<?xml version="1.0" encoding="utf-8"?>
<!-- Generator: Adobe Illustrator 25.4.2, SVG Export Plug-In . SVG Version: 6.00 Build 0)  -->
<svg version="1.1" id="Layer_1" xmlns="http://www.w3.org/2000/svg" xmlns:xlink="http://www.w3.org/1999/xlink" x="0px" y="0px"
	 viewBox="0 0 90 90" style="enable-background:new 0 0 90 90;" xml:space="preserve">
<style type="text/css">
	.st0{fill:#1A1E24;}
	.st1{fill:#13CDC2;}
	.st2{filter:url(#Adobe_OpacityMaskFilter);}
	.st3{fill-rule:evenodd;clip-rule:evenodd;fill:#FFFFFF;}
	
		.st4{mask:url(#y297guon2c_00000158737850969516553420000004241801294453163395_);fill-rule:evenodd;clip-rule:evenodd;fill:#13CDC2;}
</style>
<circle class="st0" cx="45" cy="45" r="45"/>
<g>
	<g transform="translate(-964 -1135)">
		<g>
			<g>
				<path class="st1" d="M1016.8,1160.4h-15.7l-4.7,5.5l12.5,14.9l12.5-14.9L1016.8,1160.4z M1003.7,1165.1h-4.5l2.4-2.8
					L1003.7,1165.1L1003.7,1165.1z M1006.5,1165.1l2.5-2.9l2.5,2.9H1006.5z M1012.1,1166.7l-3.1,10.5l-3.1-10.5L1012.1,1166.7
					L1012.1,1166.7z M1004.7,1166.7l3,10.1l-8.5-10.1C999.2,1166.7,1004.7,1166.7,1004.7,1166.7z M1013.3,1166.7h5.5l-8.5,10.1
					C1010.3,1176.8,1013.3,1166.7,1013.3,1166.7z M1014.3,1165.1l2.1-2.8l2.4,2.8H1014.3L1014.3,1165.1z M1015.3,1161.9l-2.3,2.8
					l-2.3-2.8C1010.7,1161.9,1015.3,1161.9,1015.3,1161.9z M1005,1164.8l-2.2-2.9h4.5L1005,1164.8L1005,1164.8z"/>
			</g>
			<g transform="translate(964 1135) translate(0 24)">
				<defs>
					<filter id="Adobe_OpacityMaskFilter" filterUnits="userSpaceOnUse" x="28.3" y="26.2" width="33.2" height="13.8">
						<feColorMatrix  type="matrix" values="1 0 0 0 0  0 1 0 0 0  0 0 1 0 0  0 0 0 1 0"/>
					</filter>
				</defs>
				
					<mask maskUnits="userSpaceOnUse" x="28.3" y="26.2" width="33.2" height="13.8" id="y297guon2c_00000158737850969516553420000004241801294453163395_">
					<g class="st2">
						<path id="_x33_mkqv0weob_00000037690921076538927650000000318773430436618892_" class="st3" d="M28.3,26.2h33.2V40H28.3V26.2z
							"/>
					</g>
				</mask>
				<path class="st4" d="M59.6,31.3l-13.1,6c-0.5,0.2-1.4,0.4-1.9,0.4H33.4v-6.1l6.4-3.6c0.4-0.2,1.2-0.3,1.6-0.2l6.9,1.9
					c0.2,0,0.3,0.2,0.4,0.3c0.1,0.2,0.1,0.3,0,0.5c-0.1,0.4-0.7,0.8-1.1,0.8L42,30.8c-0.4,0-0.7,0.3-0.7,0.6c0,0.4,0.3,0.7,0.6,0.7
					l5.7,0.4c0,0,0.1,0,0.1,0c0.8,0,1.6-0.5,2.1-1.2l9.6-1.6c0.3-0.1,0.7,0.2,0.7,0.5C60.2,30.7,59.9,31.1,59.6,31.3z M29.7,38.6H32
					v-8.7h-2.3V38.6L29.7,38.6z M61.5,30L61.5,30L61.5,30C61.5,30,61.5,30,61.5,30c-0.2-1.1-1.3-1.8-2.3-1.6l-9,1.5
					c0-0.2-0.1-0.5-0.2-0.7c-0.3-0.5-0.7-0.8-1.3-1l-6.9-1.9c-0.8-0.2-1.9-0.1-2.7,0.3l-5.7,3.2v-1.4h-5.1V40h5.1v-1h11.1
					c0.7,0,1.8-0.2,2.5-0.5l13.1-6C61.1,32.1,61.7,31,61.5,30L61.5,30z"/>
			</g>
		</g>
	</g>
</g>
</svg>
