<?xml version="1.0" encoding="utf-8"?>
<!-- Generator: Adobe Illustrator 25.3.1, SVG Export Plug-In . SVG Version: 6.00 Build 0)  -->
<svg version="1.1" id="Layer_1" xmlns="http://www.w3.org/2000/svg" xmlns:xlink="http://www.w3.org/1999/xlink" x="0px" y="0px"
	 viewBox="0 0 455 150" style="enable-background:new 0 0 455 150;" xml:space="preserve">
<style type="text/css">
	.st0{fill:#5D6676;}
</style>
<g>
	<path class="st0" d="M78.9,0c2.8,0.4,5.6,0.7,8.4,1.2c24.4,4.3,42.8,17.3,54.3,39.1c22.4,42.7-0.4,94.3-47,107.1
		C53.9,158.6,11.1,132.8,2,91.6C1.2,88,1,84.3,0.4,80.6C0.3,80,0.1,79.4,0,78.8c0-2.5,0-5,0-7.6c0.4-2.8,0.7-5.6,1.2-8.4
		c5-31.4,30.2-56.6,61.7-61.6c2.9-0.5,5.8-0.8,8.8-1.2C74.1,0,76.5,0,78.9,0z M47.5,92.2c0.3,1.8,0.5,3.1,0.6,4.4
		c0.1,1,0.6,1.6,1.7,1.5c1.4-0.1,2.8-0.1,4.2,0c1.2,0.1,1.5-0.4,1.5-1.6c0-11,0-22-0.1-32.9c-0.1-6.2-3.6-10.5-9.7-11.9
		c-8.3-1.9-16.3-0.4-24,2.8c-0.3,0.1-0.7,0.8-0.6,1.1c0.3,2.2,0.6,4.3,1,6.7c1.2-0.5,2.2-0.8,3.2-1.2c5-1.7,10.1-3.3,15.5-2.4
		c4.6,0.8,7,4.7,5.5,9.2c-2.9,0.4-5.8,0.8-8.6,1.3c-5,1-10,2.2-14.3,5.2c-4.6,3.3-6.7,8.9-5.4,14.7c1.2,5.4,4.7,8.8,10.6,9.6
		c6.4,0.9,12.1-0.8,17.1-5C46.2,93.4,46.7,92.9,47.5,92.2z M128.5,61.7c0.4-2,0.8-4.4,1.1-6.8c0-0.4-0.6-1.1-1.1-1.2
		c-3-0.9-6-2-9.1-2.4c-4.8-0.6-9.7-0.7-14.3,1.4c-4.4,2-6.8,5.5-7,10.4c-0.2,5,1.3,9.3,6.1,11.6c2.6,1.3,5.4,2.1,8.1,3
		c2.7,0.9,5.6,1.6,8.2,2.8c1.3,0.6,2.7,2,3.2,3.4c1.4,3.5-1,6.5-5.2,7.3c-6.5,1.1-12.5-0.6-18.1-3.8c-0.6-0.3-1.1-0.6-1.8-1
		c-0.4,2.5-0.9,4.8-1.1,7c-0.1,0.6,0.4,1.5,0.9,1.7c2.1,1,4.3,1.9,6.5,2.5c6.8,1.9,13.6,2.3,20.2-0.6c4.9-2.1,7.2-6,7.4-11.3
		c0.2-5.3-1.6-9.5-6.5-11.8c-2.9-1.4-6.1-2.3-9.2-3.4c-2.6-0.9-5.3-1.7-7.8-2.8c-1.9-0.8-2.6-2.4-2.5-4.5c0.2-2,1.3-3.4,3.1-3.9
		c2-0.5,4.3-1,6.3-0.6C120.2,59.4,124.2,60.6,128.5,61.7z M75.3,60.9c-0.3-1.6-0.4-2.8-0.6-4c-1-5.3-1-5.3-6.4-5
		c-1.1,0.1-1.6,0.4-1.6,1.6c0,14.4,0,28.7,0,43.1c0,1.3,0.6,1.6,1.7,1.6c1.8-0.1,3.5-0.1,5.3,0c1.5,0.1,1.9-0.5,1.9-2
		c-0.1-7.8,0-15.5-0.1-23.3c0-1.7,0.4-3,1.4-4.4c3.9-5.3,9-8.5,15.9-9.1c-0.5-2.9-0.9-5.6-1.4-8.4C84.3,51.5,79.3,55.2,75.3,60.9z"
		/>
	<path class="st0" d="M325.5,62.8c0,11.6,0,22.7,0,33.9c-1.8,0-3.5,0-5.4,0c0-14.5,0-29,0-43.7c1.5,0,3-0.1,4.5,0.1
		c0.5,0.1,1.1,0.7,1.5,1.2c7,9.8,14,19.6,21,29.4c0.4,0.5,0.8,1.1,1.5,1.9c0-11.1,0-21.7,0-32.4c1.9,0,3.6,0,5.5,0
		c0,14.5,0,29,0,43.5c-2.7,0.6-4.6,0.2-6.3-2.4c-6.8-10.1-14-19.9-21-29.9C326.5,64,326.1,63.7,325.5,62.8z"/>
	<path class="st0" d="M227.9,62.6c-13-10.1-25.9-4.4-26.8,9.5c8.8,0,17.6,0,26.7,0c-0.3,1.8-0.4,3.4-0.8,4.8c-0.1,0.5-1.2,1-1.8,1
		c-7.3,0.1-14.7,0-22,0c-0.7,0-1.4,0-2.2,0c0.7,5.4,2.2,10.1,7.1,12.7c7.3,3.8,13.9,1.5,20.3-3.2c0.3,1.7,0.6,3.3,0.7,4.8
		c0,0.4-0.4,1-0.9,1.3c-6.7,4.5-14,5.8-21.6,2.7c-7.4-3-10.6-9.3-11.7-16.9c-0.7-4.8-0.3-9.6,1.3-14.2c3.8-10.5,14.4-15.4,25.7-11.8
		c2,0.6,3.9,1.6,5.7,2.6c0.6,0.3,1,1.4,1,2.1C228.6,59.4,228.2,60.9,227.9,62.6z"/>
	<path class="st0" d="M310.8,96.8c-1.9,0-3.8,0-5.8,0c0-6.7,0-13.3,0-20.1c-7.5,0-14.9,0-22.3,0c0,6.7,0,13.3,0,20c-2.1,0-4,0-6,0
		c0-14.5,0-29,0-43.6c1.9,0,3.8,0,5.9,0c0,6,0,11.9,0,17.9c7.5,0,14.8,0,22.3,0c0-6,0-11.9,0-17.9c2,0,3.9,0,5.9,0
		C310.8,67.6,310.8,82.2,310.8,96.8z"/>
	<path class="st0" d="M455,96c-2,0.4-3.8,0.8-5.8,1.2c-1.6-4-3.1-8-4.6-12c-0.4-1.2-0.9-1.7-2.3-1.6c-4.9,0.1-9.9,0.1-14.8,0
		c-1.3,0-1.9,0.4-2.3,1.6c-1.2,3.5-2.5,7-4,10.4c-0.2,0.6-1.1,1.1-1.7,1.2c-1.5,0.2-3,0.1-4.7,0.1c1.5-3.8,2.9-7.4,4.3-10.9
		c4.1-10.4,8.2-20.9,12.2-31.4c0.5-1.4,1.2-1.9,2.7-1.8c4.1,0.1,4.1,0,5.5,3.8c4.9,12.4,9.8,24.9,14.6,37.3
		C454.5,94.5,454.7,95.2,455,96z M434.8,59.9c-2.4,6.4-4.6,12.4-6.9,18.5c4.7,0,9.2,0,13.9,0C439.5,72.2,437.3,66.2,434.8,59.9z"/>
	<path class="st0" d="M409.4,61.3c-2.9-1.1-5.6-2.6-8.5-3.2c-8.3-1.8-14.7,2.5-16.7,10.8c-0.9,3.7-1,7.5-0.2,11.3
		c1.9,9.5,9.2,14,18.6,11.3c2.5-0.7,4.9-2,7.5-3.1c0.2,1.4,0.6,2.9,0.7,4.5c0,0.4-0.5,1.1-1,1.4c-11.1,6.9-28.6,4.3-31.9-13.6
		c-1.1-6.1-0.6-12.1,2.2-17.7c6-12.3,20.9-12.8,29.2-7.7c0.4,0.3,0.9,0.8,0.9,1.2C409.9,58.2,409.6,59.9,409.4,61.3z"/>
	<path class="st0" d="M267.1,61.3c-3.1-1.1-5.9-2.7-8.9-3.2c-8.4-1.5-14.4,2.6-16.3,11c-1,4.3-0.9,8.5,0.2,12.7
		c2.3,8.3,9.5,12.2,18.2,9.6c2.5-0.7,4.9-2,7.4-3.1c0.2,1.3,0.6,2.8,0.7,4.3c0,0.5-0.5,1.3-1,1.6c-11.4,7.1-29.1,4-32-14.1
		c-1-6.1-0.4-12,2.4-17.5c6.2-12,20.9-12.4,29-7.4c0.4,0.3,0.9,0.9,0.9,1.3C267.7,58.2,267.3,59.9,267.1,61.3z"/>
	<path class="st0" d="M171.5,58.6c-4.7,0-9.2,0-13.8,0c0-1.9,0-3.6,0-5.4c11.1,0,22.2,0,33.4,0c0.3,1.7,0.6,3.4,0.9,5.4
		c-4.9,0-9.5,0-14.4,0c0,12.9,0,25.6,0,38.4c-2.1,0-4,0-6.1,0C171.5,84.1,171.5,71.4,171.5,58.6z"/>
	<path class="st0" d="M363.7,53.1c2,0,3.8,0,5.8,0c0,14.6,0,29.1,0,43.7c-2,0-3.8,0-5.8,0C363.7,82.2,363.7,67.7,363.7,53.1z"/>
	<path class="st0" d="M46.6,74.9c0,3.4,0,6.6,0,9.8c0,0.4-0.3,1-0.7,1.3c-3.7,3.3-7.9,5.6-13,5.6c-2.4,0-4.9-0.2-5.9-2.9
		c-1-2.7-0.9-5.5,1.2-7.8c0.6-0.7,1.3-1.3,2-1.7C35.2,76.2,40.8,75.5,46.6,74.9z"/>
</g>
</svg>
