<?xml version="1.0" encoding="utf-8"?>
<!-- Generator: Adobe Illustrator 25.3.1, SVG Export Plug-In . SVG Version: 6.00 Build 0)  -->
<svg version="1.1" id="Layer_1" xmlns="http://www.w3.org/2000/svg" xmlns:xlink="http://www.w3.org/1999/xlink" x="0px" y="0px"
	 viewBox="0 0 828.8 150" style="enable-background:new 0 0 828.8 150;" xml:space="preserve">
<style type="text/css">
	.st0{fill:#5D6676;}
</style>
<g>
	<g>
		<path class="st0" d="M758.3,47.8c0,19.8,0,38.4,0,57.3c-9.5,0-18.7,0-28.3,0c0-34.3,0-68.8,0-104.2c5.4,0,11,0.5,16.5-0.1
			c7.1-0.8,11.6,1.7,15.8,7.7c11.1,15.7,23,30.7,34.6,46c0.8,1,1.6,2,3.4,4.1c0-19.8,0-38.4,0-57.3c9.9,0,19,0,28.5,0
			c0,34.6,0,69.1,0,104.3c-8.3,0-16.3,0.2-24.4-0.1c-1.5-0.1-3.2-1.7-4.2-3.1c-13-16.8-25.8-33.8-38.8-50.7
			C760.7,50.6,759.8,49.7,758.3,47.8z"/>
		<path class="st0" d="M185.5,0.9c4.4,0,8.5,0,12.7,0c14.7,0.1,29.4,0,44,0.2c7.8,0.1,15.3,2,22.1,5.9c8.1,4.7,12.8,11.5,12.5,21.1
			c-0.3,9.1-5.1,15.5-12.9,19.7c-0.8,0.4-1.7,0.8-2.5,1.3c-0.1,0.1-0.1,0.3-0.2,0.5c0.2,0.3,0.3,0.8,0.5,0.8
			c10,2.8,18.5,12.4,18.5,25.5c-0.1,11.6-6.9,21.5-18.8,25.4c-6.5,2.1-13.5,3.5-20.3,3.7c-17.7,0.5-35.4,0.2-53.1,0.2
			c-0.7,0-1.4-0.2-2.4-0.3C185.5,70.5,185.5,36.1,185.5,0.9z M216.4,81.8c8,0,15.5,0.5,22.9-0.2c5.5-0.5,8.7-4.9,8.5-9.5
			c-0.1-4.4-3.5-8.2-8.9-8.6c-7.4-0.5-14.9-0.1-22.5-0.1C216.4,69.7,216.4,75.7,216.4,81.8z M216.4,41.7c6.8,0,13.3,0.2,19.8-0.1
			c5.3-0.2,8.6-3.7,8.8-8.5c0.2-4.8-2.7-8.4-8.3-8.8c-6.7-0.5-13.4-0.1-20.3-0.1C216.4,30.2,216.4,35.7,216.4,41.7z"/>
		<path class="st0" d="M547.9,53.1c0-23.8,15.4-44,38.4-50.4C603-1.9,619-0.6,634.5,7.2c20.5,10.3,31.7,36.1,26.1,58.3
			c-6,23.7-26.4,39.3-50.1,40.8c-15.4,1-29.5-1.9-41.9-11.3C555.1,84.8,547.9,70.1,547.9,53.1z M579.5,55.7c1,2.8,2,8.1,4.5,12.5
			c9.2,16,31,16.7,41.2,1.6c6.5-9.6,6.4-24-0.3-33.5c-7-10-19.7-13.3-30.5-7.8C584.4,33.7,580.2,42.4,579.5,55.7z"/>
		<path class="st0" d="M539.8,18.8c-5.8,6.9-11.5,13.7-17.3,20.5c-3.8-3.1-7.2-6.4-11.1-8.8c-9-5.6-18.5-6.7-27.6-0.6
			c-9.3,6.3-12.6,15.8-11.2,26.6c1.4,10.7,6.9,18.7,17.6,21.9c10.3,3.1,19.2-0.9,27.3-7c1.5-1.1,2.8-2.4,4.6-3.9
			c5.9,6.3,11.7,12.4,17.7,18.8c-7.3,8.5-16.4,14.1-26.7,17.3c-20.8,6.5-40.2,3-56.2-11.8c-15.3-14.2-19.7-32.6-14.6-52.8
			C450.1,8.3,482.7-4.8,510,1.5C522.3,4.4,532.7,10.5,539.8,18.8z"/>
		<path class="st0" d="M429.1,1.3c0,8.2,0,16,0,24.3c-8.1,0-15.9,0-24.3,0c0,26.6,0,52.8,0,79.4c-10.6,0-20.7,0-31.4,0
			c0-26.2,0-52.4,0-79.1c-8.3,0-15.9,0-24,0c0-8.4,0-16.3,0-24.6C375.8,1.3,402.2,1.3,429.1,1.3z"/>
		<path class="st0" d="M710.5,105.3c-10.4,0-20.3,0-30.6,0c0-34.7,0-69.2,0-104c10.2,0,20.2,0,30.6,0
			C710.5,35.9,710.5,70.4,710.5,105.3z"/>
		<path class="st0" d="M329.6,105.1c-10.1,0-20,0-30.2,0c0-34.6,0-68.9,0-103.7c9.9,0,19.9,0,30.2,0
			C329.6,35.9,329.6,70.4,329.6,105.1z"/>
		<path class="st0" d="M141.9,22.3c0,23.2,0,45.3,0,67.7c-5.8,2.9-11.7,5.8-17.9,8.9c0-22.9,0-45.2,0-67.8
			C129.7,28.3,135.6,25.4,141.9,22.3z"/>
		<path class="st0" d="M117,102.4c-5.8,2.9-11.6,5.7-17.8,8.8c0-23,0-45.2,0-67.8c5.8-2.8,11.6-5.7,17.8-8.7
			C117,57.5,117,79.8,117,102.4z"/>
		<path class="st0" d="M0.1,71.9c22.8,11.3,45,22.2,67.3,33.2c0,5.9,0,11.7,0,18.3c-22.6-11.1-44.9-22.1-67.3-33.2
			C0.1,84.3,0.1,78.6,0.1,71.9z"/>
		<path class="st0" d="M0,40.6c0-6.1,0-11.8,0-18.3c22.8,11.2,45.1,22.2,67.5,33.3c0,6,0,11.8,0,18.3C44.7,62.6,22.3,51.6,0,40.6z"
			/>
		<path class="st0" d="M67.4,98.6C44.7,87.4,22.5,76.5,0.1,65.4c0-5.9,0-11.6,0-18.3c22.6,11.1,44.8,22.1,67.3,33.1
			C67.4,86.2,67.4,91.9,67.4,98.6z"/>
		<path class="st0" d="M74.5,55.6c5.7-2.8,11.5-5.6,17.8-8.7c0,22.9,0,45.1,0,67.7c-5.7,2.8-11.5,5.7-17.8,8.8
			C74.5,100.5,74.5,78.2,74.5,55.6z"/>
	</g>
	<g>
		<path class="st0" d="M192.5,149.6c-2.7,0-4.7,0-7,0c0-8.5,0-16.7,0-25.3c2.9,0,5.7,0,8.9,0c1.7,3.9,3.5,7.9,5.7,12.8
			c2.1-4.8,3.8-8.6,5.6-12.8c2.7,0,5.4,0,8.6,0c0,8.4,0,16.7,0,25.3c-2.2,0-4.2,0-6.7,0c0-3.9,0-8.5,0-12.1
			c-0.3-0.1-3.5,6.3-4.9,9.4c-1.8,0-3.6,0-5.5,0c-1.2-2.8-4.3-9.1-4.6-9C192.6,141.5,192.7,146.1,192.5,149.6z"/>
		<path class="st0" d="M352.1,124.1c2.6,0,4.7,0,7.1,0c3,3.8,6.1,7.8,9.1,11.7c0.3-0.1,0.6-0.2,0.9-0.2c0-3.6,0-7.2,0-11.2
			c2.7,0,4.8,0,7.5,0c0,8.3,0,16.6,0,25.2c-2.3,0-4.5,0-6.8,0c-3.1-3.8-6.2-7.7-10.1-12.6c-0.2,5.1-0.4,8.7-0.6,12.6
			c-2.5,0-4.7,0-7.2,0C352.1,141.1,352.1,132.9,352.1,124.1z"/>
		<path class="st0" d="M382.7,149.7c0-8.7,0-16.9,0-25.4c7.2,0,14.1,0,21.4,0c0,1.8,0,5.2,0,5.2l-12.9,0.1v4.2l11.8,0.1
			c0,0,0,3.4,0,5.9c-4.1,0-11.8,0.1-11.8,0.1v3.6c0,0,8.8,0,13.2,0c0,2.4,0,4.1,0,6.2C397.2,149.7,390.3,149.7,382.7,149.7z"/>
		<path class="st0" d="M320.6,143.5c0,0,9,0,12.7,0c0,2.1,0,3.9,0,6c-7.6,0-22.3,0-22.3,0v-5.4l12.7-13.9l-13-0.1l0-5.7H333l0.1,4.9
			L320.6,143.5z"/>
		<path class="st0" d="M275,127.7c-1.5,1.9-2.8,3.5-4.2,5.3c-3.8-1.3-8-4.5-11.1,0.2c-1.2,1.7-1,5.2-0.1,7.2c1.3,3,4.4,3.1,7.7,1.6
			c0.2-1.6,0.4-3.4,0.6-5.4c2.2,0,4.2,0,6.5,0c0,3.5,0,6.8,0,10c-8.7,5.1-17.5,4.4-22.1-1.7c-4.1-5.3-3.7-12.3,0.9-17
			C258.3,122.7,267.5,122.4,275,127.7z"/>
		<path class="st0" d="M338.3,124.3c2.8,0,5.3,0,8,0c0,8.5,0,16.7,0,25.2c-2.7,0-5.2,0-8,0C338.3,141.1,338.3,132.8,338.3,124.3z"/>
		<path class="st0" d="M237.9,124.3c-3.5,0-6.2,0-9.1,0c-3.5,8.3-6.9,16.4-10.7,25.4c3.3,0,5.7,0,8.2,0c0.9-1.2,1.7-2.4,2.5-3.4
			c3.1,0,5.9,0,8.7,0c1,1.3,1.8,2.5,2.5,3.4c2.8,0,5.2,0,8.4,0C244.7,140.8,241.2,132.4,237.9,124.3z M229.7,140.5l3.1-9.4l3.1,9.4
			H229.7z"/>
		<path class="st0" d="M297.4,124.2c-3.2,0-5.9,0-9.1,0c-3.5,8.4-7.1,16.8-10.8,25.6c3.3,0,5.7,0,8.1,0c1-1.3,1.8-2.4,2.6-3.4
			c3.1,0,5.9,0,8.6,0c1,1.3,1.9,2.5,2.5,3.3c2.9,0,5.2,0,8.4,0C304.2,140.7,300.8,132.5,297.4,124.2z M289.4,140.5l3.1-9.4l3.1,9.4
			H289.4z"/>
	</g>
</g>
</svg>
