<?xml version="1.0" encoding="utf-8"?>
<!-- Generator: Adobe Illustrator 25.3.1, SVG Export Plug-In . SVG Version: 6.00 Build 0)  -->
<svg version="1.1" id="Layer_1" xmlns="http://www.w3.org/2000/svg" xmlns:xlink="http://www.w3.org/1999/xlink" x="0px" y="0px"
	 viewBox="0 0 814.4 150" style="enable-background:new 0 0 814.4 150;" xml:space="preserve">
<style type="text/css">
	.st0{fill:#5D6676;}
</style>
<g>
	<path class="st0" d="M82.6,55.1c3,1.8,5.8,3.1,8.3,4.9c6.1,4.5,9.6,10.7,10.8,18.1c1.2,7.6,0.7,15.2-2.4,22.4
		c-4.1,9.5-11.1,15.8-21.1,18.5c-4.7,1.3-9.5,1.9-14.4,1.9c-20.3,0.1-40.6,0.2-60.8,0.3c-2.9,0-2.9,0-2.9-2.8C0,80,0,41.4,0,2.8
		C0,0.1,0,0,2.8,0C22.5,0,42.3-0.1,62,0.1c8.9,0.1,17.3,2.3,24.4,8c4.1,3.3,6.9,7.6,8.5,12.7c2.3,7.6,2.6,15.1-0.5,22.6
		c-1.8,4.4-5.1,7.6-9.1,10.1C84.4,53.9,83.6,54.5,82.6,55.1z M46.9,70C46.9,70,46.9,70,46.9,70c-3.9,0-7.9,0-11.8,0
		c-1.2,0-1.8,0.4-1.8,1.7c0,7.1,0,14.3,0,21.4c0,1.2,0.5,1.7,1.7,1.6c7.7-0.1,15.4-0.1,23.1-0.4c5.4-0.2,9.1-3.4,10.5-8.3
		C70.8,78.3,67,69.6,56.7,70C53.5,70.1,50.2,70,46.9,70z M44.9,26.7c0-0.1,0-0.2,0-0.3c-3.4,0-6.8,0-10.2,0c-1.1,0-1.7,0.3-1.7,1.6
		c0,5.9,0,11.7,0,17.6c0,1.1,0.5,1.5,1.6,1.6c6.8,0.1,13.7,0.4,20.5,0.3c5.3-0.1,9.2-3.9,9.7-9.3c0.6-5.8-2.2-10.4-7.9-11.2
		C52.9,26.2,48.9,26.7,44.9,26.7z"/>
	<path class="st0" d="M364.5,47.7c5.5-9.9,13.6-15.2,24.9-15.5c11.4-0.3,19.8,4.4,24.9,15.1c1.4-1.8,2.6-3.2,3.7-4.7
		c4.5-5.8,10.6-8.9,17.7-10c5.9-0.9,11.6-0.5,17.3,1.6c7.3,2.7,11.8,8.2,14.5,15.3c1.7,4.4,2.6,9,2.6,13.7
		c0.1,18.5,0.2,37.1,0.3,55.6c0,2.4-0.1,2.6-2.7,2.6c-8.3,0-16.7,0-25,0c-2.7,0-2.7,0-2.7-2.7c0-15.4,0-30.8,0-46.2
		c0-3.4-0.4-6.8-2-10c-2.8-5.6-11.2-5.9-15-2.3c-3.6,3.4-4.7,7.8-4.7,12.4c-0.1,15.2,0,30.5,0,45.7c0,3.1,0,3.1-3,3.1
		c-8.2,0-16.4,0-24.6,0c-2.7,0-2.7,0-2.7-2.7c0-15.8,0.1-31.6-0.1-47.3c0-3-0.7-6.2-2-8.9c-3-6.1-12.5-6.4-16.4-0.7
		c-2.5,3.5-3.3,7.5-3.3,11.7c-0.1,15,0,30.1,0,45.1c0,2.7,0,2.7-2.8,2.7c-8.6,0-17.3,0-25.9,0c-1.9,0-2.4-0.6-2.4-2.4
		c0-27.3,0-54.5,0-81.8c0-1.8,0.5-2.5,2.4-2.4c8,0.1,16,0.1,24.1,0c1.8,0,2.6,0.5,2.5,2.4c-0.1,2.8,0,5.5,0,8.3
		c0,0.6,0.1,1.3,0.2,1.9C364.2,47.5,364.4,47.6,364.5,47.7z"/>
	<path class="st0" d="M783.8,107.5c-0.8,0.8-1.7,1.6-2.5,2.4c-4.7,4.6-10.4,6.8-16.9,7.1c-7.9,0.3-15-1.6-21.4-6.2
		c-5.5-4-9.4-9.3-11.8-15.7c-2.7-6.9-3.6-14.1-3.3-21.3c0.4-8.5,2-16.9,6.3-24.4c4.9-8.7,11.7-15,21.9-16.8
		c8.1-1.4,15.8-0.3,22.5,4.7c2.4,1.8,4.3,4.2,6.5,6.5c0.1-0.5,0.2-1,0.2-1.5c0-2,0-3.9,0-5.9c0-1.1,0.4-1.7,1.6-1.7
		c8.7,0,17.4,0,26.1,0c1.1,0,1.6,0.5,1.6,1.6c0,0.6,0,1.2,0,1.8c0,24.3,0.1,48.6,0,72.9c0,7.1-1.5,13.9-4.7,20.3
		c-4.4,8.7-11.5,13.8-20.6,16.6c-7.7,2.3-15.5,2.6-23.4,2.2c-8.6-0.5-16.8-2.5-23.9-7.6c-6.6-4.7-10.3-11.1-11.9-18.9
		c-0.3-1.3,0.2-1.9,1.6-1.9c8.6,0,17.3,0,25.9,0.1c0.7,0,1.7,0.5,1.9,1c2.2,5.4,9.6,6.9,14.5,6.2c7.8-1.1,10.2-6.3,10.7-13
		c0.2-2.6,0-5.2,0-7.9C784.2,107.7,784,107.6,783.8,107.5z M785.5,74.5c0.2-4.1-0.7-8.3-2.8-12.2c-4.7-8.9-16.1-9.4-21.6-1
		c-2.1,3.2-2.8,6.9-3.2,10.7c-0.6,5.5,0.1,10.9,2.7,15.7c5,9.2,15.7,9.6,21.4,0.8C784.9,84.3,785.6,79.7,785.5,74.5z"/>
	<path class="st0" d="M508.3,110.6c0,2.8-0.1,5.6,0,8.5c0.1,1.7-0.4,2.4-2.3,2.4c-8.1-0.1-16.3-0.1-24.4,0c-1.7,0-2.2-0.6-2.2-2.3
		c0-39,0-77.9,0-116.9c0-1.7,0.5-2.3,2.2-2.2c8.5,0.1,17,0.1,25.5,0c1.9,0,2.3,0.7,2.3,2.4c0,12.8,0,25.5,0,38.3
		c0,0.8,0.1,1.7,0.2,3c0.8-0.7,1.4-1,1.8-1.5c4.9-6.1,11.4-9,19.1-10c6.4-0.8,12.5,0.1,18.3,2.9c6.3,3,10.7,7.9,14,13.9
		c4,7.4,5.7,15.3,6.3,23.7c0.7,9.3-0.3,18.4-3.1,27.3c-2.3,7.2-6.3,13.3-12.5,17.9c-4.2,3.1-8.9,5-14.1,5.7
		c-6.4,0.9-12.6,0.7-18.6-2.1c-4.2-2-7.7-4.8-10.3-8.6c-0.5-0.8-1.1-1.6-1.7-2.4C508.6,110.5,508.4,110.5,508.3,110.6z M538,77.5
		c-0.2-2.4-0.3-4.8-0.6-7.2c-0.6-4.5-2-8.7-4.9-12.1c-5.5-6.4-16.3-4.6-20.5,3.5c-4.1,7.9-4.2,16.3-2.4,24.8c0.8,4,2.4,7.7,5.5,10.4
		c7.1,6.2,16.5,3.9,20.2-4.8C537.4,87.4,538,82.5,538,77.5z"/>
	<path class="st0" d="M659.7,94.6c-0.6,3.7-2,6.9-3.7,9.9c-6.3,11.2-16.2,16.9-28.6,18.8c-10.4,1.6-20.6,0.9-30.1-3.6
		c-10.2-4.8-17.3-12.5-21.3-23.1c-2.4-6.5-3.5-13.3-3.2-20.3c0.5-12.6,4.3-23.9,13.7-32.8c6-5.7,13.2-9.1,21.2-10.4
		c11.6-2,22.9-0.8,33,5.6c7.8,5,13.2,12.1,16.4,20.8c2.1,5.7,3.4,11.5,3.7,17.6c0.1,2.3,0.2,4.5,0.4,6.8c0.2,1.9-0.6,2.4-2.4,2.4
		c-16.1-0.1-32.2,0-48.3,0c-1.9,0-3.8,0-5.7,0c-1.2,0-1.6,0.4-1.4,1.7c0.7,4.2,2.2,8,5.2,11.1c4.7,4.8,17.7,5.4,21.2-3.1
		c0.4-1,1-1.6,2.2-1.6c8.8,0,17.6,0,26.5,0C658.8,94.4,659.1,94.5,659.7,94.6z M616.8,68.9c4.1,0,8.1,0,12.2,0c1.5,0,2-0.7,1.7-2.1
		c-0.3-1.1-0.4-2.3-0.7-3.4c-2.4-9-11.9-13.1-19.8-8.6c-4.7,2.7-6,7.3-6.8,12.3c-0.2,1.6,0.3,1.8,1.6,1.8
		C608.9,68.8,612.8,68.9,616.8,68.9z"/>
	<path class="st0" d="M145.5,78.6c-0.3-9.8,1.9-18.6,6.8-26.7c4.6-7.6,11.3-12.7,19.4-16.1c7.4-3,15.2-3.8,23-3.2
		c9.3,0.7,17.9,3.4,25.2,9.4c7.9,6.5,12.6,15,14.4,25.1c0.7,4,1.2,8.1,1.1,12.1c-0.2,10.3-2.6,20.1-9,28.5
		c-6.6,8.7-15.5,13.6-26.2,15.4c-8.4,1.4-16.8,1.2-25-1.4c-13.1-4-22-12.4-26.7-25.2C146.2,90.7,145.2,84.6,145.5,78.6z M204,78.4
		c0-1.1,0-2.2,0-3.3c-0.2-5.3-1.2-10.5-3.8-15.2c-2.5-4.6-7.8-7-12.8-5.9c-5.8,1.2-8.2,5.5-9.7,10.5c-1.7,5.9-2.1,11.9-1.6,18
		c0.4,4.6,1.1,9.1,3,13.4c2.4,5.4,7.4,8.2,13.2,7c4.6-1,7.3-4.1,9-8.2C203.5,89.5,204.1,84,204,78.4z"/>
	<path class="st0" d="M328.7,78.3c0,8.4-1.6,16.3-5.5,23.7c-6.4,12-16.6,18.9-29.9,21.2c-8.7,1.5-17.4,1.2-25.9-1.7
		c-14.3-4.9-23.1-14.7-26.9-29.2c-3.3-12.6-2.5-25,3.3-36.8c5.8-11.9,15.6-18.9,28.4-21.7c10.4-2.2,20.8-1.7,30.8,2.3
		c11,4.4,18.2,12.4,22.3,23.5c0.9,2.5,1.7,5,2.1,7.6C328.1,70.9,328.3,74.6,328.7,78.3z M297.7,77.5c-0.1-1.5-0.2-3.7-0.5-5.8
		c-0.6-4.7-1.6-9.3-4.4-13.3c-3.2-4.4-9.6-6-14.5-3.6c-4.2,2.1-6.1,6-7.2,10.2c-1.7,6.4-1.8,12.8-1.2,19.4c0.4,4.5,1.3,8.7,3.5,12.7
		c2.3,4.1,5.8,6.2,10.6,6.1c4.8-0.2,9.3-4,11.2-9.2C297,88.9,297.5,83.6,297.7,77.5z"/>
	<path class="st0" d="M138.8,60.8c0,19.1,0,38.2,0,57.3c0,3.3,0,3.3-3.4,3.3c-8.4,0-16.9,0-25.3,0c-1.9,0-2.4-0.6-2.4-2.4
		c0-38.8,0-77.7,0-116.5c0-2.4,0.1-2.4,2.5-2.4c8.7,0,17.4,0,26.1,0c2.4,0,2.5,0.1,2.5,2.5C138.8,22,138.8,41.4,138.8,60.8z"/>
	<path class="st0" d="M696.2,49.2c1.6-2.3,3.2-4.6,4.9-6.8c4.8-6,11-9.3,18.8-9.4c1.6,0,3.3,0.1,4.9,0.3c1.1,0.1,1.5,0.8,1.5,1.9
		c0,7.8,0,15.7,0,23.5c0,1.2-0.4,1.6-1.7,1.4c-5.4-0.8-10.7-0.8-15.7,1.5c-5.5,2.5-8.8,6.9-10.2,12.6c-0.9,3.9-1.5,8-1.5,12
		c-0.2,10.8-0.1,21.7-0.1,32.5c0,2.6,0,2.6-2.6,2.6c-8.5,0-16.9,0-25.4,0c-1.8,0-2.5-0.5-2.5-2.4c0.1-27.3,0-54.6,0-81.9
		c0-1.8,0.6-2.3,2.4-2.3c8.1,0.1,16.2,0.1,24.2,0c1.8,0,2.4,0.6,2.3,2.3c-0.1,3.4,0,6.8,0,10.2c0,0.6,0.1,1.3,0.1,1.9
		C695.9,49.2,696,49.2,696.2,49.2z"/>
</g>
</svg>
