<?xml version="1.0" encoding="utf-8"?>
<!-- Generator: Adobe Illustrator 25.3.1, SVG Export Plug-In . SVG Version: 6.00 Build 0)  -->
<svg version="1.1" id="Layer_1" xmlns="http://www.w3.org/2000/svg" xmlns:xlink="http://www.w3.org/1999/xlink" x="0px" y="0px"
	 viewBox="0 0 483.3 150" style="enable-background:new 0 0 483.3 150;" xml:space="preserve">
<style type="text/css">
	.st0{fill:#5D6676;}
</style>
<g>
	<path class="st0" d="M0,1.3c9,0.1,18.1-0.4,27.1,0.6c10.8,1.1,16.5,10.5,13.6,20.8c-1,3.7-3.2,6.5-6.7,8.2c0.2,0.2,0.4,0.4,0.6,0.5
		c6.4,3.2,9.1,8.4,8.6,15.4c-0.4,7-3.8,12.1-10.6,14.4c-3.1,1-6.4,1.5-9.6,1.6C15.3,62.9,7.6,62.8,0,62.8C0,42.3,0,21.8,0,1.3z
		 M10,53.5c5.5,0,10.8,0.4,16-0.1c4.7-0.4,7.4-4.2,7.4-8.8c-0.1-4.7-2.9-8.2-7.6-8.6c-5.2-0.4-10.4-0.1-15.8-0.1
		C10,41.7,10,47.6,10,53.5z M9.9,27c4.2,0,8.1,0.1,12.1,0c1.3,0,2.7-0.3,3.9-0.6c3.8-1.1,5.6-3.8,5.6-8c-0.1-4.1-1.9-7-5.8-7.5
		c-5.2-0.7-10.5-0.7-15.8-0.9C9.9,15.9,9.9,21.3,9.9,27z"/>
	<path class="st0" d="M262.2,150c0-19.1,0-38.2,0.1-57.2c0-0.8,0-1.6,0-2.5c0.6-0.1,1.1-0.2,1.7-0.2c7.5,0,15-0.1,22.5,0
		c16.2,0.2,27.5,11.2,28.1,27.5c0.2,4.6-0.1,9.1-1.5,13.5c-3.6,10.7-11.1,16.7-22.1,18.5c-0.6,0.1-1.1,0.3-1.7,0.4
		C280.1,150,271.2,150,262.2,150z M272.5,140.7c5.5,0,10.9,0.4,16.1-0.1c7.6-0.8,12.6-5.2,14.7-12.7c1.6-5.5,1.5-11-0.1-16.4
		c-2.1-6.8-6.8-11.2-13.9-12c-5.4-0.6-11-0.3-16.5-0.4c-0.1,0-0.2,0.2-0.3,0.3C272.5,113.1,272.5,126.9,272.5,140.7z"/>
	<path class="st0" d="M400.7,150c0-0.8,0.1-1.6,0.1-2.4c0-18.3,0-36.6,0-54.9c0-0.8,0-1.6,0-2.3c0.3-0.2,0.4-0.3,0.5-0.3
		c8.6,0.1,17.3-0.3,25.9,0.5c8.6,0.7,13.9,6.6,14.6,15.2c0.3,2.9,0,6.1-0.7,8.9c-1.5,6.2-6.1,9.3-12.7,10.5c7.1,8.4,14,16.6,21,24.7
		c-3.8,0-7.5,0-11.3,0c-6.6-7.8-13.1-15.7-19.7-23.5c-0.3-0.3-0.7-0.8-1.1-0.8c-2.2-0.1-4.4,0-6.6,0c0,8.3,0,16.3,0,24.3
		C407.4,150,404,150,400.7,150z M410.8,117c4.6,0,9,0.2,13.4-0.1c4.8-0.3,7.8-3.8,8-8.5c0.2-5.1-2.5-8.8-7.5-9.3
		c-4.6-0.5-9.2-0.1-13.9-0.1C410.8,105,410.8,110.9,410.8,117z"/>
	<path class="st0" d="M333.4,150c0-19.9,0-39.8,0-59.8c12.5,0,24.9,0,37.3,0c0,2.9,0,5.6,0,8.7c-8.9,0-17.9,0-27,0
		c0,4.9,0,9.7,0,14.5c8,0,16,0,24.1,0c0,3,0,5.8,0,8.9c-8,0-16,0-24.2,0c0,6.3,0,12.3,0,18.7c9.1,0,18,0,27.2,0c0,3.2,0,6.1,0,9.1
		C358.4,150,345.9,150,333.4,150z"/>
	<path class="st0" d="M169.5,150c-3-0.7-6-1.2-9-2.1c-6.4-2-6.4-2.1-6.4-8.7c0-1.4,0-2.8,0-4.4c2.1,1.2,4,2.4,5.9,3.4
		c5.8,2.8,12,3.8,18.4,2.4c4.4-0.9,6.5-3.6,6.4-7.5c-0.1-2.1-0.9-3.9-2.7-4.9c-2.1-1.2-4.4-2.3-6.7-3.2c-3.4-1.4-7-2.4-10.4-3.8
		c-5.2-2.1-9.5-5.2-11-11.1c-1.9-7.6,1-14.5,8.2-17.7c9.7-4.3,19.2-3,28.4,1.7c0.4,0.2,0.8,0.8,0.9,1.2c0.1,3,0,6,0,9.3
		c-1.3-0.8-2.3-1.4-3.3-2c-5.5-3.2-11.3-4.8-17.7-3.8c-1.2,0.2-2.4,0.6-3.4,1.1c-2.2,1-3.6,2.8-3.7,5.3c-0.1,2.6,0.8,4.7,3.1,5.9
		c3.1,1.5,6.4,2.6,9.7,3.9c3.8,1.6,7.7,2.9,11.2,4.8c9.7,5.3,10.4,21.8-1.4,27.3c-2.4,1.1-5.1,1.6-7.6,2.4c-0.6,0.2-1.1,0.3-1.7,0.4
		C174.4,150,172,150,169.5,150z"/>
	<path class="st0" d="M37.5,150c0-19.9,0-39.7,0-59.8c3.7,0,7.4,0,11.3,0c0,19.9,0,39.8,0,59.8C45,150,41.2,150,37.5,150z"/>
	<path class="st0" d="M221.1,150c0-19.9,0-39.8,0-59.8c3.7,0,7.3,0,11.2,0c0,0.8,0,1.5,0,2.3c0,18.4,0,36.7,0,55.1
		c0,0.8,0.1,1.6,0.1,2.4C228.6,150,224.8,150,221.1,150z"/>
	<path class="st0" d="M293.4,63.4c-13.4-13.5-26.7-26.9-40.5-40.8c0,13.6,0,26.7,0,39.9c-3.3,0-6.4,0-9.6,0c0-20.6,0-41.2,0-62.3
		c13.7,13.4,27.2,26.6,41,40.1c0-13.3,0-26.2,0-39.3c3.3,0,6.4,0,9.6,0c0,20.6,0,41.2,0,61.8C293.7,63.1,293.5,63.2,293.4,63.4z"/>
	<path class="st0" d="M121.2,128.2c0-12.8,0-24.9,0-37.2c3.3,0,6.5,0,9.8,0c0,19.4,0,38.9,0,58.8c-14.1-12.9-28-25.5-42.2-38.5
		c0,12.8,0,25.2,0,37.7c-3.4,0-6.6,0-9.9,0c0-19.4,0-38.9,0-58.7C92.9,102.9,106.8,115.3,121.2,128.2z"/>
	<path class="st0" d="M65.4,1.3c3.3,0,6.5,0,9.9,0c0,0.8,0,1.5,0,2.2c0,11.5-0.1,22.9,0.1,34.4c0,2.7,0.5,5.5,1.3,8.1
		c1.7,5.7,6,8.4,12.4,8.5c6.5,0,10.8-2.6,12.6-8.3c0.9-3,1.3-6.3,1.4-9.5c0.2-11.1,0.1-22.1,0.1-33.2c0-0.7,0-1.4,0-2.3
		c3.4,0,6.6,0,10.1,0c0,0.7,0,1.3,0,2c0,11.5,0,23,0,34.6c0,4.4-0.5,8.7-2.2,12.8c-3.3,7.8-9.4,11.9-17.6,12.9
		C87,64.3,80.6,63.6,75,59.9c-6.6-4.4-9.5-11-9.7-18.5C65,28.3,65.2,15.1,65.2,1.9C65.2,1.7,65.3,1.6,65.4,1.3z"/>
	<path class="st0" d="M357.5,1.3c0,3.1,0,5.9,0,9c-8.7,0-17.3,0-26.1,0c0,5,0,9.8,0,14.8c7.7,0,15.4,0,23.3,0c0,3.1,0,6,0,9.1
		c-7.7,0-15.4,0-23.3,0c0,6.6,0,12.9,0,19.3c8.7,0,17.4,0,26.1,0c0,3.1,0,6,0,9.1c-11.9,0-23.9,0-36,0c0-20.4,0-40.7,0-61.3
		C333.4,1.3,345.4,1.3,357.5,1.3z"/>
	<path class="st0" d="M480.1,15.4c-2.5-1.4-4.8-2.9-7.2-4c-4.8-2.2-9.8-2.9-14.9-1.6c-4.4,1.1-6.5,4.2-5.8,8.5
		c0.5,2.9,2.6,4.4,5.1,5.5c3.8,1.6,7.8,3,11.6,4.5c1.1,0.4,2.1,0.8,3.2,1.3c8.2,3.8,12,10.2,11,18.6c-0.8,7.7-6.2,13.3-14.9,15
		c-8.3,1.6-16.3,0.5-23.8-3.6c-1.3-0.7-2-1.5-1.9-3.1c0.2-2.8,0-5.6,0-8.8c0.8,0.5,1.3,0.9,1.8,1.2c6.8,4.7,14.2,6.9,22.4,5.1
		c4.9-1.1,7.1-4.5,6.3-9.2c-0.5-2.7-2.3-4.4-4.6-5.4c-3.8-1.7-7.7-3-11.5-4.6c-2.3-1-4.7-1.9-6.9-3.2c-6.1-3.6-8.4-9.2-7.9-16
		c0.5-6.7,4.3-11.2,10.4-13.5c9.1-3.4,17.9-2.1,26.3,2.6c0.5,0.3,1,1.1,1,1.7C480.1,9.2,480.1,12.2,480.1,15.4z"/>
	<path class="st0" d="M418.7,15.7c-1.3-0.8-2.3-1.5-3.2-2.1c-5.8-3.7-12-5.3-18.8-3.8c-4.8,1.1-7.1,5-5.7,9.4
		c0.8,2.3,2.5,3.6,4.6,4.5c4,1.6,8,3.1,12,4.6c1.6,0.6,3.1,1.3,4.6,2c8.5,4.4,11,12.3,8.9,20.7c-1.8,7.2-7.3,10.7-14.2,12.1
		c-8.1,1.6-16,0.6-23.4-3.3c-1.6-0.8-2.4-1.8-2.3-3.7c0.2-2.7,0-5.3,0-8.5c0.8,0.5,1.3,0.9,1.8,1.2c6.8,4.7,14.2,6.9,22.4,5.1
		c5.2-1.1,7.6-5.5,6-10.1c-0.8-2.3-2.6-3.8-4.7-4.7c-3.4-1.5-7-2.7-10.5-4.1c-2.7-1.1-5.4-2.2-7.8-3.6c-6.3-3.8-8.4-9.7-7.6-16.7
		c0.7-6.5,4.7-10.8,10.7-12.9c8.9-3.1,17.6-1.9,25.8,2.6c0.5,0.3,1.2,0.9,1.2,1.4C418.8,9,418.7,12.1,418.7,15.7z"/>
	<path class="st0" d="M174.6,15.6c-2-1.2-3.6-2.4-5.4-3.3c-5.2-2.8-10.7-3.9-16.5-2.6c-4.9,1.1-7.2,5.1-5.7,9.5
		c0.8,2.2,2.5,3.5,4.5,4.3c4,1.6,8,3.1,12,4.6c1.6,0.6,3.1,1.2,4.6,2c7.8,4.1,11.2,11.4,9.2,20c-1.7,7.5-7.2,11.3-14.2,12.7
		c-8.3,1.7-16.4,0.6-24-3.5c-1.3-0.7-1.9-1.6-1.8-3.2c0.1-2.8,0-5.6,0-8.7c1.4,0.9,2.5,1.7,3.6,2.4c6.4,3.9,13.3,5.6,20.8,3.8
		c5-1.2,7.2-5.1,6-9.7c-0.7-2.4-2.4-3.9-4.5-4.9c-3.2-1.4-6.5-2.6-9.7-3.9c-2.8-1.2-5.6-2.2-8.3-3.6c-6.5-3.6-9-9.4-8.3-16.7
		c0.7-7,4.9-11.3,11.3-13.5c8.8-2.9,17.2-1.6,25.2,2.8c0.5,0.3,1.2,0.9,1.2,1.4C174.6,9,174.6,12.2,174.6,15.6z"/>
	<path class="st0" d="M204,1.3c3.3,0,6.5,0,9.8,0c0,20.5,0,40.9,0,61.4c-3.3,0-6.5,0-9.8,0C204,42.3,204,21.9,204,1.3z"/>
</g>
</svg>
