<?xml version="1.0" encoding="utf-8"?>
<!-- Generator: Adobe Illustrator 25.3.1, SVG Export Plug-In . SVG Version: 6.00 Build 0)  -->
<svg version="1.1" id="Layer_1" xmlns="http://www.w3.org/2000/svg" xmlns:xlink="http://www.w3.org/1999/xlink" x="0px" y="0px"
	 viewBox="0 0 1048.8 150" style="enable-background:new 0 0 1048.8 150;" xml:space="preserve">
<style type="text/css">
	.st0{fill:#5D6676;}
</style>
<g id="Layer_3">
	<g>
		<g>
			<path class="st0" d="M245.5,109c-3.8-11.9-15.7-20.4-27.5-21.4l-0.9-0.9c3.8-4.3,7.1-8.1,8.5-12.8c4.3-9,2.4-20.9-3.8-29
				C213.2,34,199.9,30.2,187.1,34c-2.4,0.9-3.8,2.4-6.2,2.4c2.4-11.4-2.4-21.8-10.4-29c-9-7.1-22.8-9.5-33.2-4.7
				c-6.6,3.3-11.9,8.5-15.2,14.2c-2.4-3.8-6.2-8.5-10.9-11.4c-9.5-7.1-24.2-7.1-33.7-0.9C66.5,11.6,60.8,23,63.2,35.9
				c-7.6-3.8-18.5-4.7-26.6-1.4c-9.5,3.3-17.1,13.8-18,22.3C16.2,68.6,20.5,79.5,29,87.6c-7.6,1.4-14.7,3.8-20.4,9.5
				c-8.5,8.5-10.9,22.8-6.2,33.7c5.2,12.8,16.1,19,31.3,19h178.5c9.5,0.9,18-1.4,25.2-8.5C246.4,132.7,249.3,120.8,245.5,109z
				 M25.7,58.2c1.4-7.1,7.1-13.3,14.2-16.6c11.9-4.3,24.7,0.5,30.9,10.9l36.1,79.8h-0.9L33.3,82.4C25.2,76.7,21.9,67.2,25.7,58.2z
				 M30.9,143.2c-8.1,0-15.2-3.3-19.9-9.5c-5.7-6.2-7.1-16.1-3.3-24.2c2.4-5.7,7.1-10.4,12.8-12.8c7.1-3.3,16.6-2.4,22.8,1.4
				l64.6,45.6L30.9,143.2z M119.2,35.4l-12.8,80.2l-3.3-6.6L71.7,38.7c-3.3-9.5,0-19,6.2-25.2S95.5,5,104,8.8
				c4.7,2.4,9.5,5.7,11.9,10.9C118.3,24.5,120.2,29.7,119.2,35.4z M200.4,39.7c7.1,1.9,14.2,6.6,18,13.3c3.8,7.1,3.3,18-1.4,24.2
				c-3.3,4.7-8.1,7.1-11.9,10.4l-65.5,45.1l0.9-2.4l34.7-77.9C180.9,43,190.4,38.2,200.4,39.7z M138.2,33.5
				c-0.9-0.5-1.4-0.5-2.4-1.4h-10.4c0-8.5,4.7-17.6,12.8-21.4c8.5-4.7,20.4-3.8,27.5,2.4c2.8,2.4,5.2,5.2,6.6,8.5
				c4.3,8.1,1.9,17.6-2.8,25.6l-30.9,69.3l-10.9-70.3C125.9,39.7,133.9,36.8,138.2,33.5z M234.1,134.6c-5.7,6.2-11.9,9-19.5,9h-77.4
				L201.8,99c6.2-3.8,15.7-4.7,22.8-1.4c5.7,2.4,10.4,7.1,12.8,12.8C240.3,117,239.8,128.4,234.1,134.6z"/>
		</g>
		<g>
			<g>
				<path class="st0" d="M397.4,57.7c-3.3-14.2-14.2-18-27.5-19C328.1,34.9,321,66.2,321,79.5c0,22.8,6.2,40.8,47.5,40.8
					c8.1,0,28.5-8.1,28.5-20.4h59.3c-2.4,38-65.5,46.5-93.1,46.5c-57,0-105.9-10.4-103.5-66.9c1.4-40.4,39.4-68.4,114.9-66.5
					c41.8,0.9,82.1,14.2,82.1,44.2h-59.3V57.7z"/>
				<path class="st0" d="M989,57.7c-3.3-14.2-14.2-18-27.5-19c-41.8-3.8-48.9,27.5-48.9,40.4c0,22.8,6.2,40.8,47.5,40.8
					c8.1,0,28.5-8.1,28.5-20.4h59.3c-2.4,38-65.5,46.5-93.1,46.5c-57,0-105.9-10.4-103.5-66.9c1.4-40.4,39.4-68.4,114.9-66.5
					c41.8,0.9,82.6,14.2,82.6,44.2H989L989,57.7L989,57.7z"/>
				<path class="st0" d="M467.7,15.9h76.4l65.5,91.6h0.9V15.9h48.9v126.8h-73.1L518,51h-0.9v91.6h-49.4
					C467.7,143.2,467.7,15.9,467.7,15.9z"/>
				<path class="st0" d="M674.2,15.9h93.1c45.1,0,70.7,12.8,70.7,31.3c0,10.9-10.9,25.2-35.6,29l0,0c29,1.4,40.4,20.4,40.4,31.3
					c0,22.8-25.2,34.7-75.5,34.7h-93.1V15.9z M728.8,65.8h15.7c23.7,0,36.1-1.4,36.1-11.9s-10.4-14.2-31.3-14.2h-19.9v26.1H728.8z
					 M728.8,117h15.7c28.5,0,39.4-3.3,39.4-12.8c0-10.4-13.3-14.2-34.7-14.2h-19.9v26.6h-0.5V117z"/>
			</g>
		</g>
	</g>
</g>
</svg>
