<?xml version="1.0" encoding="utf-8"?>
<!-- Generator: Adobe Illustrator 25.3.1, SVG Export Plug-In . SVG Version: 6.00 Build 0)  -->
<svg version="1.1" id="Layer_1" xmlns="http://www.w3.org/2000/svg" xmlns:xlink="http://www.w3.org/1999/xlink" x="0px" y="0px"
	 viewBox="0 0 908.7 150" style="enable-background:new 0 0 908.7 150;" xml:space="preserve">
<style type="text/css">
	.st0{fill:#5D6676;}
</style>
<g>
	<path class="st0" d="M55.5,0c3,0.5,6,0.8,9,1.4c10.1,2.1,19.4,5.9,26.9,13.2c1.6,1.6,3.1,2.1,5.3,2.1c21.1-0.1,42.2-0.1,63.2-0.1
		c0.4,0,0.8,0,1.5,0c-0.4,1.8-0.8,3.5-1.2,5.1c-2.2,8.9-4.4,17.8-6.7,26.7c-0.3,1.1-0.8,2.1-1.4,3c-17.8,25.7-35.6,51.4-53.4,77
		c-4.8,6.9-9.6,13.8-14.3,20.7c-0.1,0.2-0.3,0.3-0.8,0.8c3.7-14,7.3-27.6,11-41.4c-4.5,2.2-8.8,4.3-13,6.5c-3.3,1.6-6.7,3.1-9.8,5
		c-4.7,2.8-9.9,3.6-15.1,4c-12.4,1-24.4-0.6-35.8-6c-7.8-3.7-14.4-8.8-18.4-16.7C0.8,98.1,0,94.6,0,90.9c0-18.8,0.1-37.6,0-56.4
		c-0.1-7.7,2.8-13.9,8-19.2C15.1,8,24.1,4,33.9,1.8c3.2-0.7,6.5-1,9.7-1.5c0.3,0,0.6-0.2,0.9-0.3C48.2,0,51.9,0,55.5,0z M149.3,45.1
		c1.9-7.8,3.9-15.5,5.8-23.2c-30.1,0-60,0-90,0c-1.9,7.7-3.8,15.4-5.8,23.3c11.2,0,22.2,0,33.5,0C86.6,67.9,80.6,90.3,74.5,113
		c9.3-4.6,18.4-9.1,27.8-13.8c-2.2,8.3-4.4,16.2-6.5,24.2c0.1,0,0.2,0.1,0.3,0.1c13.6-19.5,27.1-39.1,40.7-58.6
		c-0.1-0.1-0.1-0.1-0.2-0.2c-11.3,6-22.6,11.9-34.3,18.1c0.3-0.8,0.4-1,0.4-1.3c4.2-11.4,8.5-22.9,12.7-34.3
		c0.4-1.1,0.6-2.2,2.4-2.1C128.2,45.1,138.6,45.1,149.3,45.1z M85.9,16.7c-0.1-0.3-0.1-0.4-0.1-0.5c-0.5-0.4-1-0.8-1.5-1.2
		c-7.5-5.2-15.8-8.3-24.8-9.4c-9.8-1.2-19.6-0.8-29,2.2c-7.7,2.5-14.7,6.1-20.2,12.3c-6.9,8-7,17.9-0.3,26c4,4.8,9.1,8.1,14.8,10.6
		c11.4,5.1,23.4,5.9,35.6,4.3c8.6-1.1,16.4-4.1,23.5-9c0.7-0.5,1.4-1.1,2.1-1.7c-0.1-0.1-0.1-0.2-0.2-0.4C74.9,50,64,50,53,50
		c0-0.4,0-0.6,0.1-0.8c2.6-10.5,5.2-20.9,7.8-31.4c0.2-0.9,0.7-1.1,1.5-1.1c3.3,0,6.7,0,10,0C76.9,16.7,81.4,16.7,85.9,16.7z
		 M5.2,48.4C4.4,54.8,6,60.3,10,65.1c3.1,3.7,6.9,6.5,11.1,8.8c9.5,5.1,19.8,6.9,30.5,6.7c8.4-0.2,16.5-1.8,24.2-5.1
		c3-1.3,5.1-2.9,5.3-6.4c0-0.4,0.2-0.8,0.3-1.1c0.9-3.3,1.8-6.5,2.6-9.7c-3.6,1.6-7.1,3.3-10.7,4.6c-11.4,4-23.1,4.8-35,2.9
		C25.4,63.8,13.9,58.9,5.2,48.4z M5,66.9c0.2,4.2-0.2,7.9,1.3,11.6c2.3,5.5,6.3,9.5,11.1,12.7c6.8,4.4,14.3,7.2,22.4,8.2
		c10.1,1.3,20.1,0.9,29.9-2.1c3-0.9,4.8-2.2,5.4-5.5c0.7-4,2-7.8,3.1-11.9c-1.9,0.7-3.6,1.4-5.3,2c-13,4.3-26.2,4.9-39.5,1.8
		C22.4,81.2,12.5,76.4,5,66.9z M5.2,86.8c-0.9,6.7,0.8,12.5,5.2,17.5c5,5.7,11.4,9.2,18.4,11.7c11.8,4.1,23.8,4.1,36,2
		c2.6-0.5,3.9-1.6,4.4-4.3c0.8-3.9,2-7.7,3-11.6c-0.3-0.1-0.4-0.1-0.4-0.1c-0.3,0.1-0.7,0.2-1,0.3c-13.3,3.9-26.7,4.1-40,0.4
		C20.8,99.9,11.9,95.2,5.2,86.8z M152.2,50.5c0-0.1,0-0.2,0-0.4c-0.2,0-0.4,0-0.6,0c-10.2,0-20.4,0-30.6,0c-1.1,0-1.5,0.5-1.8,1.4
		c-1.9,5.2-3.9,10.4-5.8,15.6c-0.6,1.6-1.2,3.3-1.9,5.2C125.3,64.9,138.8,57.7,152.2,50.5z"/>
	<g>
		<path class="st0" d="M396.4,71c0-9.1,0-18.3,0-27.6c3.5,0,6.7,0,10.1,0c0,15.8,0,31.4,0,47c-5.5,1.2-9.5,0.2-12.8-4.8
			c-5.6-8.3-12.1-16-18.8-24.8c0,10.4,0,20,0,29.8c-3.6,0-6.8,0-10.3,0c0-15.6,0-31.2,0-47.2c4.7,0,9.3-1.4,13,4.3
			c5.4,8.3,11.9,15.8,18,23.7C395.9,71.2,396.1,71.1,396.4,71z"/>
		<path class="st0" d="M315.8,66.7c0.1,14.1-11.1,25-25.5,25c-14.1,0-25.1-10.9-25.1-24.9c0-13.6,11.2-24.5,25.1-24.6
			C304.6,42,315.8,52.8,315.8,66.7z M290.5,81.8c8.1,0,14.3-6.3,14.5-14.6c0.1-8.3-6.4-15.2-14.4-15.3c-7.9,0-14.2,6.6-14.1,14.9
			C276.4,75.3,282.5,81.8,290.5,81.8z"/>
		<path class="st0" d="M726.3,73.9c3.7,5.5,7.4,10.8,11.5,16.9c-4.2,0-7.8,0.1-11.4-0.1c-0.8,0-1.6-1.1-2.2-1.9
			c-1.9-2.7-4.1-5.3-5.5-8.3c-2.4-5.2-6.4-5.7-11.5-4.7c0,4.8,0,9.6,0,14.7c-3.5,0-6.7,0-10.2,0c0-15.7,0-31.3,0-46.9
			c9,0,17.7-0.5,26.5,0.1c6.9,0.5,11.4,5.4,12.6,12c1.3,7.4-1.3,13.3-7.5,16.9C727.8,72.9,727.2,73.3,726.3,73.9z M707.3,66.2
			c3.8,0,7.1,0,10.4,0c0.6,0,1.3-0.1,1.9-0.2c3.9-0.8,6.1-3.3,6-6.8c-0.1-3.4-2.2-5.9-6.1-6.2c-4-0.3-8.1-0.1-12.2-0.1
			C707.3,57.3,707.3,61.5,707.3,66.2z"/>
		<path class="st0" d="M676.9,48.9c-2.3,2.7-4.3,5.2-6.1,7.3c-3.3-1.4-6.1-3-9.1-3.8c-6.6-1.7-12.4,1.1-15.6,7.3
			c-3.1,6-1.8,14.3,3,18.7c4.3,3.9,12.9,5.1,17.4,1.5c1.6-1.2,1.6-4.4,2.6-7.3c-4.2,0-7.3,0-10.8,0c0-3.1,0-6,0-9.1
			c6.5,0,13,0,20.2,0c0,6.6,0,13.3-0.1,20c0,0.6-0.7,1.3-1.3,1.7c-8.2,5.9-17.2,8.2-27.1,5.1c-10.4-3.2-16.7-12.1-16.7-23.5
			c0-10.8,6.9-20.4,17-23.4C659.7,40.6,669.3,42.5,676.9,48.9z"/>
		<path class="st0" d="M908.7,90.6c-3.5,0-6.8,0-10.4,0c0-6.3,0-12.4,0-18.7c-6.5,0-12.7,0-19.2,0c0,6.2,0,12.3,0,18.6
			c-3.6,0-6.8,0-10.4,0c0-15.5,0-31.1,0-47c3.3,0,6.7,0,10.2,0c0,6.1,0,11.9,0,18c6.4,0,12.6,0,19.2,0c0-5.9,0-11.8,0-18
			c3.7,0,7.1,0,10.6,0C908.7,59.1,908.7,74.6,908.7,90.6z"/>
		<path class="st0" d="M617.9,81.1c0,3.4,0,6.4,0,9.5c-12,0-23.8,0-35.9,0c0-15.7,0-31.2,0-47.1c11.8,0,23.6,0,35.5,0
			c0,2.9,0,5.8,0,9c-8.3,0-16.5,0-24.9,0c0,3.2,0,5.9,0,9.1c7.1,0,14.3,0,21.8,0c0,3.3,0,6.1,0,9.5c-7.1,0-14.3,0-21.7,0
			c0,3.5,0,6.5,0,9.9C601,81.1,609.3,81.1,617.9,81.1z"/>
		<path class="st0" d="M478.4,43.4c11.9,0,23.6,0,35.5,0c0,3.1,0,5.9,0,9.2c-8.3,0-16.6,0-25,0c0,3.2,0,6,0,9.1c7.1,0,14.3,0,21.8,0
			c0,3.2,0,6.1,0,9.5c-7.2,0-14.3,0-21.7,0c0,3.5,0,6.5,0,10c8.5,0,16.8,0,25.3,0c0,3.4,0,6.2,0,9.4c-12,0-23.8,0-35.8,0
			C478.4,74.8,478.4,59.2,478.4,43.4z"/>
		<path class="st0" d="M799.9,90.5c-0.8,0.2-1,0.3-1.3,0.3c-9.2,0.1-9.3,0.2-12.8-8.2c-0.8-1.8-1.6-2.6-3.6-2.6
			c-5,0.1-10-0.1-14.9,0.2c-1.2,0.1-2.4,1.5-3.6,2.3c-0.1,0.1-0.1,0.2-0.2,0.3c-3.7,8.6-3.7,8.6-13.8,7.6c2.7-6.3,5.3-12.5,7.9-18.6
			c3.7-8.8,7.6-17.5,11.2-26.4c0.9-2.2,2.1-2.7,4.3-2.7c6.5,0,6.5-0.1,9.1,5.8c5.6,13.1,11.2,26.2,16.8,39.3
			C799.3,88.7,799.5,89.5,799.9,90.5z M768.7,70.5c4.2,0,8,0,12.2,0c-2-5-4-9.6-6.1-14.9C772.6,60.9,770.7,65.5,768.7,70.5z"/>
		<path class="st0" d="M825.7,90.6c-3.5,0-6.7,0-10.2,0c0-15.6,0-31.3,0-46.9c8.1,0,16.3-0.6,24.3,0.2c8,0.8,13,7.5,13.1,15.5
			c0.2,8-4.8,14.5-12.9,16.2c-4.5,0.9-9.3,0.9-14.3,1.3C825.7,81.4,825.7,85.9,825.7,90.6z M826,52.9c0,5,0,9.5,0,14.5
			c3.9-0.3,7.5-0.2,10.9-0.9c3.5-0.7,5.8-4.1,5.4-7.3c-0.5-3.6-2.7-5.9-6.2-6.2C832.8,52.6,829.5,52.9,826,52.9z"/>
		<path class="st0" d="M250.3,50.2c-1.9,2.3-3.9,4.6-6,7.1c-4.1-3.7-8.8-6.2-14.2-5c-2.9,0.7-6,2.4-8.1,4.6
			c-5.2,5.5-4.7,15.5,0.5,21c5.3,5.6,13.2,5.2,22.2-1.4c2.1,2.3,4.2,4.6,6.3,6.9c-8.3,10.2-25.6,11.2-35.5,2.2
			c-10.4-9.4-10.9-26.8-1.1-36.3C224.5,39.6,241.4,39.9,250.3,50.2z"/>
		<path class="st0" d="M447.5,52.8c0,12.9,0,25.3,0,37.8c-3.6,0-6.8,0-10.5,0c0-12.5,0-24.8,0-37.6c-4.9,0-9.5,0-14.3,0
			c0-3.4,0-6.4,0-9.6c13,0,25.9,0,39,0c0,3.1,0,6,0,9.4C457.2,52.8,452.6,52.8,447.5,52.8z"/>
		<path class="st0" d="M532,43.4c3.5,0,6.6,0,10.2,0c0,12.5,0,24.8,0,37.5c7.9,0,15.5,0,23.4,0c0,3.4,0,6.4,0,9.6
			c-11.1,0-22.2,0-33.6,0C532,74.8,532,59.3,532,43.4z"/>
		<path class="st0" d="M344.1,90.6c-3.3,0-6.5,0-10,0c0-15.6,0-31.3,0-47.2c3.3,0,6.5,0,10,0C344.1,59.2,344.1,74.8,344.1,90.6z"/>
	</g>
</g>
</svg>
