<?xml version="1.0" encoding="utf-8"?>
<!-- Generator: Adobe Illustrator 25.3.1, SVG Export Plug-In . SVG Version: 6.00 Build 0)  -->
<svg version="1.1" id="Layer_1" xmlns="http://www.w3.org/2000/svg" xmlns:xlink="http://www.w3.org/1999/xlink" x="0px" y="0px"
	 viewBox="0 0 779.5 150" style="enable-background:new 0 0 779.5 150;" xml:space="preserve">
<style type="text/css">
	.st0{fill:#5D6676;}
</style>
<g>
	<path class="st0" d="M150.1,19.6c0.1,9.9-7.7,18.2-17.1,19.2c-6.4,0.7-11.9-1.3-16.5-5.9c-2.7-2.7-5.7-4.7-9.5-5.5
		c-6.7-1.4-12.6,0.3-17.5,5.2c-2.3,2.3-4.7,4.2-7.8,5.2C74.5,40.2,67.9,39,62.1,34c-0.7-0.6-1.3-1.2-1.9-1.8
		c-6.8-6.6-17.1-7.1-24.5-1.2c-3.9,3.2-6.9,7-7.9,12.1c-1.2,5.6,0,10.8,3.4,15.4c0.8,1.1,1.7,2.2,2.6,3.2c7.2,8,6.9,19.5-0.6,27.2
		c-7.3,7.5-7.8,17.8-1.4,26.1c3.5,4.4,7.8,7,13.4,7.7c4.7,0.5,9-0.7,12.9-3.4c1.3-0.9,2.6-2,3.8-3.1c11.2-10.1,28.9-4.5,32.2,10.2
		c2.7,12-6.4,23.5-18.7,23.6c-5.7,0.1-10.5-1.9-14.4-6c-3.2-3.3-7-5.3-11.6-5.8c-6-0.6-11.2,1.3-15.4,5.5c-1.7,1.7-3.4,3.1-5.5,4.2
		c-11.5,5.8-25.2-0.6-27.9-13.2c-1.4-6.8,0.3-12.7,5.1-17.7c1.8-1.9,3.5-3.8,4.6-6.2c3.3-7.1,2-15.4-3.6-21c-2.1-2.1-3.9-4.3-5.1-7
		C-1.6,75.1,0.1,66.8,6,61c2.8-2.8,4.9-6,5.6-9.8c1.3-6.5-0.5-12.2-5-17c-1.2-1.3-2.6-2.7-3.5-4.2C-4.5,18,2.7,2.4,16.7,0.3
		c6.5-0.9,12.1,0.9,16.7,5.5c4,4,8.8,6,14.4,5.9c4-0.1,7.6-1.5,10.8-3.9c1.1-0.8,2.2-1.7,3.2-2.7C70.1-2,81.4-1.7,89,6
		c6.8,6.8,17.9,7.9,25.8,1.4c1.1-0.9,2.2-1.9,3.3-2.8c11.4-9.3,28.3-3.5,31.5,10.9C149.9,16.8,150,18.2,150.1,19.6z"/>
	<path class="st0" d="M530.8,54.1c0-17.9,0-35.7,0-53.5c1.5-0.4,11.2-0.5,14.1-0.2c0.1,0.9,0.2,1.8,0.2,2.7c0,27.7,0,55.4,0,83.1
		c0,9.7,0,19.4,0,29.1c0,0.8,0,1.6,0,2.5c-4.8,0-9.4,0-14.2,0c0-3.3,0-6.5,0-10.1c-0.5,0.3-0.7,0.4-0.8,0.6
		c-4.7,6.2-11.2,9.5-18.7,10.9c-9.4,1.7-18.5,0.3-26.7-4.8c-8.6-5.3-13.8-13.1-16.1-22.9c-2.4-10.4-1.6-20.6,3.3-30.1
		c5.9-11.4,15.6-17.5,28.2-19c6.9-0.8,13.4,0.1,19.7,3.1C524.2,47.6,526.2,49.3,530.8,54.1z M506.7,106.6c0.3,0,0.6,0,0.9,0
		c0.4,0,0.9,0,1.3-0.1c9.1-0.8,15.9-5.1,19.5-13.6c3.3-7.8,3.2-15.7,0-23.5c-2.6-6.3-7.2-10.4-13.6-12.5c-3.3-1.1-6.8-1.4-10.2-1.2
		c-10.1,0.7-17.8,6.7-20.8,16.4c-1.8,5.9-1.8,11.9-0.1,17.9c1.1,3.7,2.8,7,5.5,9.8C494,104.5,499.9,106.6,506.7,106.6z"/>
	<path class="st0" d="M711.3,0.3c4.8,0,9.3,0,14,0c0.1,1,0.1,1.9,0.1,2.8c0,23.2,0,46.5,0,69.7c0,0.8,0.1,1.6,0.1,2.8
		c0.9-0.8,1.4-1.3,1.9-1.8c9.3-9.4,18.7-18.7,28-28.2c1.1-1.1,2.1-1.5,3.6-1.5c5,0.1,10,0,14.9,0c0.7,0,1.4,0.1,2.5,0.1
		c-3,3.2-5.9,5.8-8.7,8.6c-2.8,2.8-5.7,5.5-8.5,8.3c-2.8,2.7-5.7,5.4-8.4,8.2c-2.8,2.8-5.5,5.7-8.3,8.8c12.1,13,24.3,26.2,36.9,39.7
		c-1.1,0.1-1.7,0.1-2.3,0.1c-5.4,0-10.7,0-16.1,0c-1.3,0-2.2-0.5-3.1-1.4c-10.3-11.5-20.6-23-30.9-34.5c-0.4-0.5-0.9-1-1.6-1.4
		c-0.3,4.2-0.2,8.3-0.3,12.4c0,4.1,0,8.2,0,12.3c0,4.1,0,8.3,0,12.5c-4.8,0-9.4,0-14.1,0C711.3,78.7,711.3,39.6,711.3,0.3z"/>
	<path class="st0" d="M631.7,86.3c-19.5,0-39,0-58.7,0c0,0.9-0.1,1.6,0,2.2c0.6,4.8,2.8,8.9,6.4,12.1c7,6.2,15.2,8.1,24.3,6.1
		c3.7-0.8,6.7-2.9,9.4-5.4c1.7-1.5,3.3-3,5.1-4.7c3.2,2.5,6.8,5.2,10.4,7.9c-0.5,0.7-0.9,1.2-1.3,1.6c-6.3,7.4-14.4,11.7-24,13.1
		c-6.7,0.9-13.5,0.9-20-1.2c-13.3-4.2-21.3-13.5-24.4-26.9c-2.4-10.3-1.5-20.3,3.7-29.7c6.3-11.4,16.2-17.6,29.1-19.1
		c4.5-0.5,9-0.4,13.3,0.7c13,3,21.1,11.2,25,23.8c1.9,6,2.2,12.2,2,18.5C631.9,85.6,631.8,85.9,631.7,86.3z M616.8,74.8
		c-0.2-1.8-0.3-3.3-0.6-4.8c-1.5-8.4-7-14.1-15.3-15.7c-2.9-0.6-5.7-0.7-8.6-0.3c-9,1.3-16.6,8-18.8,16.9c-0.3,1.2-0.7,2.5-0.4,4
		C587.5,74.8,601.9,74.8,616.8,74.8z"/>
	<path class="st0" d="M305,120.1c-15.7,0.1-33-10.2-38-29.1c-5.8-22,8.5-44.3,31-48.1c18.6-3.2,36.4,6.3,43.5,23.5
		c8.9,21.6-2.9,47.1-27.9,52.6C310.8,119.6,307.9,119.8,305,120.1z M304.9,106.6c11.8,0,20.4-6.5,23.3-17.6c1.3-5.2,1.4-10.5,0-15.7
		c-2-7.7-6.5-13.2-14.1-16.1c-4.2-1.6-8.6-2-13-1.3c-8.7,1.3-14.9,5.9-18.2,14.1c-2.2,5.5-2.6,11.2-1.5,17.1c0.9,4.7,2.7,8.9,6,12.4
		C292.2,104.4,298.1,106.6,304.9,106.6z"/>
	<path class="st0" d="M405.5,117.9c-4.9,0-9.4,0-13.9,0c-0.4-1.4-0.5-70.9-0.2-73.5c1.3-0.4,10.5-0.6,13.9-0.2
		c0.4,1.7,0.2,3.4,0.2,5.1c0.1,1.7,0,3.5,0,5.5c0.4-0.4,0.6-0.5,0.7-0.6c3.6-6.2,9.2-9.5,15.9-11.1c6-1.5,12-1.2,17.9,0.7
		c8.9,3,13.9,9.4,15.9,18.4c0.6,2.9,0.8,5.9,0.8,8.8c0.1,15,0,30,0,45c0,0.6,0,1.1,0,1.6c-1.5,0.5-11.9,0.6-14.2,0.1
		c0-0.7,0-1.5,0-2.3c0-13.7,0-27.5,0-41.2c0-2.4-0.3-4.9-1-7.3c-1.9-7-7.1-11-14.3-11.3c-2.1-0.1-4.3,0.1-6.4,0.5
		c-6.5,1.3-10.8,5.4-13.2,11.5c-1.7,4.1-2.1,8.4-2.1,12.8c0,11.7,0,23.3,0,35C405.5,116.1,405.5,116.9,405.5,117.9z"/>
	<path class="st0" d="M650.4,97.9c0.5,0.5,0.9,0.8,1.4,1.2c1.8,1.4,3.6,2.9,5.5,4.3c2.1,1.6,4.5,2.5,7.1,2.9c4,0.6,8,0.4,11.9-1
		c1.7-0.6,3.2-1.5,4.5-2.7c3.2-3.1,3.1-7.7-0.1-10.7c-1.4-1.4-3.1-2.4-5-3c-2.8-0.9-5.7-1.6-8.6-2.3c-3.6-1-7.2-1.9-10.7-3.1
		c-1.9-0.6-3.7-1.6-5.4-2.7c-5.2-3.3-7.9-8.1-8.1-14.3c-0.5-9.7,3.9-16.7,12.5-20.8c10.4-4.9,21-4.7,31.4,0.1
		c3.5,1.6,6.2,4.1,8.4,7.2c0.3,0.5,0.6,0.9,1,1.6c-3.6,2.8-7.2,5.5-11.2,8.5c-0.5-0.6-0.8-1.2-1.3-1.7c-5.3-5.4-11.7-6.9-18.9-5
		c-1.1,0.3-2.3,0.8-3.3,1.4c-4.2,2.5-4.8,8.1-1.2,11.4c3,2.8,6.8,4.1,10.7,4.8c4.5,0.9,9,1.8,13.3,3.5c1.6,0.6,3.1,1.3,4.6,2.2
		c5.8,3.4,8.8,8.6,9.3,15.3c0.8,12-6.5,19.4-15.3,22.6c-6.6,2.4-13.4,2.8-20.3,2.1c-3.1-0.3-6.2-1-9.2-2c-5.6-1.9-9.8-5.6-13.3-10.2
		c-0.1-0.2-0.2-0.4-0.4-0.8C643.4,103.7,646.9,100.8,650.4,97.9z"/>
	<path class="st0" d="M260.3,54.4c-3.5,3.1-6.9,6.3-10.6,9.6c-0.6-0.5-1.1-1-1.6-1.4c-3.5-3.2-7.4-5.7-12.2-6.4
		c-3.6-0.6-7.3-0.6-10.9,0.4c-5.2,1.4-9.4,4.3-12.2,9c-5.2,8.8-6.2,18.1-2.1,27.5c3.8,8.6,10.6,13.1,20.1,13.6
		c7.1,0.4,13.1-2,18-7.1c0.3-0.3,0.6-0.6,0.9-0.9c3.3,3.4,6.5,6.7,9.9,10.1c-0.2,0.2-0.4,0.6-0.8,0.9c-5.2,5.4-11.6,8.4-18.9,9.6
		c-8.4,1.4-16.6,1-24.5-2.3c-12.8-5.4-19.9-15.2-21.9-28.8c-1.2-8.2-0.5-16.4,3-24c5.5-12.2,15.2-19,28.2-21
		c7.9-1.2,15.6-0.5,23,2.6c4.1,1.7,7.8,4.1,11,7.2c0.3,0.3,0.6,0.6,0.9,1C260.1,53.8,260.1,54,260.3,54.4z"/>
	<path class="st0" d="M357.6,44.2c4.8,0,9.3,0,13.8,0c0.4,1.4,0.6,70.6,0.2,73.5c-1.4,0.4-11.9,0.5-13.9,0.1
		C357.6,93.3,357.6,68.8,357.6,44.2z"/>
	<path class="st0" d="M364.6,7.4c5.6,0,10.3,4.7,10.4,10.4c0,5.7-4.8,10.5-10.5,10.4c-5.6,0-10.3-4.8-10.4-10.4
		C354.1,12.2,358.9,7.4,364.6,7.4z"/>
	<path class="st0" d="M123.9,131c0-3.8,2.8-6.7,6.6-6.7c3.9,0,6.9,2.9,6.9,6.7c0,3.8-3,6.8-6.9,6.8
		C126.8,137.8,123.9,134.8,123.9,131z"/>
	<path class="st0" d="M68.3,77c0-3.9,2.9-6.8,6.8-6.8c3.8,0,6.7,2.9,6.7,6.7c0,3.8-3,6.8-6.8,6.8C71.3,83.7,68.4,80.8,68.3,77z"/>
	<path class="st0" d="M123.9,76.6c0-3.9,2.7-6.7,6.5-6.8c3.9-0.1,6.9,2.8,6.9,6.6c0,3.6-3,6.8-6.6,6.9
		C126.9,83.4,123.9,80.4,123.9,76.6z"/>
</g>
</svg>
