<?xml version="1.0" encoding="utf-8"?>
<!-- Generator: Adobe Illustrator 25.3.1, SVG Export Plug-In . SVG Version: 6.00 Build 0)  -->
<svg version="1.1" id="Layer_1" xmlns="http://www.w3.org/2000/svg" xmlns:xlink="http://www.w3.org/1999/xlink" x="0px" y="0px"
	 viewBox="0 0 451 150" style="enable-background:new 0 0 451 150;" xml:space="preserve">
<style type="text/css">
	.st0{fill:#5D6676;}
</style>
<g>
	<path class="st0" d="M56.5,150c-2.2-0.4-4.4-0.7-6.6-1.3c-6.3-1.6-11.7-4.8-16.3-9.4c-9.7-9.8-19.4-19.4-29.1-29.2
		c-0.7-0.7-1.3-1.7-1.7-2.6c-2.8-7-3.3-14.3-2.3-21.7C2.4,71,9,58.3,18.2,46.7c2-2.5,4.2-4.9,6.4-7.5c-4-3.9-7.9-7.7-12-11.7
		c1.3-1.2,2.4-2.4,3.6-3.5c9.4-8.8,19.9-15.8,32-20.2C54.6,1.5,61.2,0.1,68,0c5.6-0.1,11.1,0.8,16.3,3c0.7,0.3,1.3,0.7,1.8,1.2
		c9.1,9.1,18.2,18.3,27.4,27.4c3,2.9,5.9,5.8,8,9.5c4,7.1,5.3,14.8,4.6,22.8c-1.2,14.6-7.4,27.1-16.1,38.6c-2.3,3.1-4.9,6-7.5,9
		c3.9,3.8,7.9,7.7,11.9,11.5c-1.8,1.8-3.2,3.4-4.7,4.8c-10.1,9.2-21.4,16.4-34.7,20c-3.3,0.9-6.8,1.3-10.2,1.9
		c-0.2,0-0.4,0.1-0.7,0.2C61.6,150,59.1,150,56.5,150z M99.8,108.4c0.1,0,0.1-0.1,0.2-0.1c7.5-7.9,13.7-16.7,17.8-26.9
		c3.6-8.8,5.6-17.9,4-27.5c-2-12-8.8-20.2-20.5-23.9c-6.8-2.2-13.8-1.9-20.7-0.5c-11.2,2.3-21,7.5-30,14.4c-2.9,2.2-5.6,4.7-8.3,6.9
		c3.1,3.2,6.1,6.1,9.1,9.2c0.2-0.1,0.4-0.4,0.7-0.6c5.8-5.4,12.2-10,19.5-13.3c7.4-3.4,15.1-5.7,23.3-4.3c6.2,1,10.8,4.2,13.1,10.2
		c2,5.1,1.7,10.3,0.6,15.6c-1.8,8.8-5.9,16.7-11.2,23.9c-2.1,2.8-4.4,5.5-6.6,8.2C93.8,102.4,96.8,105.4,99.8,108.4z M99.5,114.5
		c-0.2,0.2-0.5,0.4-0.7,0.6c-5.8,5.3-12.1,9.9-19.2,13.2c-7,3.3-14.4,5.4-22.3,4.7c-7.3-0.6-12.9-4.9-15-11.6
		c-1.3-4.2-1.4-8.5-0.6-12.7c1.4-7.8,4.4-14.9,8.8-21.5C53.4,83,56.7,79,59.7,75c-2.8-2.8-5.8-5.8-8.8-8.8c0,0-0.1,0.1-0.3,0.2
		c-7.3,7.8-13.4,16.4-17.5,26.3c-3.8,9.1-5.7,18.4-4.2,28.3c1.9,12.1,10.6,21.4,22.6,24.1c7.7,1.7,15.4,1,22.9-1.2
		c11-3.2,20.7-8.9,29.4-16.2c1.6-1.4,3.2-2.8,4.7-4.1C105.5,120.5,102.5,117.5,99.5,114.5z M12.6,113c0.1-0.1,0.3-0.2,0.4-0.3
		c0-0.4-0.1-0.8-0.1-1.2c-0.9-6.1-0.6-12.1,0.7-18.1c2.4-11.6,7.7-22,14.8-31.4c2.6-3.5,5.5-6.8,8.2-10.1c-3.1-3.1-6.2-6.2-9.3-9.3
		c-0.1,0.1-0.2,0.1-0.3,0.3c-2,2.3-4.1,4.5-5.9,6.9C12.5,60.4,6.3,72.3,4.4,86.2c-0.9,6.7-0.5,13.4,2,19.8c0.2,0.4,0.3,0.9,0.6,1.2
		C8.8,109.1,10.7,111,12.6,113z M28,36.6c0.3-0.2,0.6-0.5,0.9-0.8c7.8-7.1,16.3-13.2,26-17.5c9.6-4.3,19.5-6.7,30.1-5.8
		c1.3,0.1,2.6,0.3,4.3,0.5c-2-2-3.7-3.7-5.5-5.5C83.3,7,82.6,6.6,82,6.3c-8.1-3.1-16.3-2.9-24.6-1.1c-9.7,2.1-18.5,6.4-26.6,12
		c-4.4,3-8.4,6.3-12.2,9.9C21.7,30.3,24.8,33.4,28,36.6z M76.1,84.8c3.4-3.5,6.4-7.3,9-11.4c4.3-6.9,7.7-14.1,8.4-22.4
		c0.1-1.8,0-3.7,0-5.9c-2.8,0.2-5.5,0.3-8.1,0.5c-0.3,0-0.8,0.5-0.9,0.9c-0.5,1.3-0.8,2.6-1.3,3.8c-3.2,8.6-8.5,15.9-14.7,22.7
		c-0.7,0.7-1.3,1.5-2,2.2C69.7,78.4,72.8,81.6,76.1,84.8z M75.2,90.3c0,0-0.2,0.1-0.3,0.2c-8.3,7.9-17.3,14.5-28.5,17.7
		c-0.3,0.1-0.6,0.4-0.6,0.6c-0.5,2.8-0.7,5.6-0.2,8.6c16,0.4,28.1-7.5,39.4-17.5C81.6,96.7,78.4,93.5,75.2,90.3z M63.6,72.4
		c7-7.4,13.2-15.4,16.6-25.6c-10.3,3.3-18.7,8.9-26.2,16C57.3,66.1,60.4,69.2,63.6,72.4z M62.9,77.9c-7.1,7.5-12.7,15.9-16,26.1
		c10.2-3.4,18.2-9.5,25.6-16.5C69.3,84.2,66.1,81.1,62.9,77.9z"/>
	<path class="st0" d="M451,75.7c-2.6,0-5.3,0-8,0c0,0.6-0.1,1-0.1,1.4c0,6.6,0,13.1,0,19.7c0,2.3,0.7,3,3,3c1.2,0,2.5,0,3.7,0
		c0.8,0,1.1,0.3,1.1,1.1c0,3.3,0,6.6,0,10.1c-1.1,0.2-2.1,0.5-3.1,0.5c-3.2,0-6.4,0.2-9.5-0.1c-5.2-0.6-8.5-4.3-8.6-9.5
		c-0.2-7.2-0.2-14.4-0.2-21.6c0-1.4,0-2.8,0-4.5c-1.6,0-3.2,0-4.8,0c-1.1,0-1.5-0.4-1.5-1.5c0.1-2.1,0-4.2,0-6.4
		c0-0.9,0.4-1.3,1.2-1.2c1.6,0,3.3,0,5.1,0c0-0.6,0-1,0-1.4c0-3.7,0-7.4,0-11.1c0-1.1,0.4-1.5,1.5-1.5c3.6,0,7.2,0,10.8,0
		c1.1,0,1.5,0.4,1.4,1.4c0,3.8,0,7.5,0,11.3c0,0.4,0,0.9,0,1.5c2.8,0,5.4,0,8.1,0C451,69.7,451,72.7,451,75.7z"/>
	<path class="st0" d="M152.2,81.5c0-9.4,0-18.8,0-28.2c0-1.7,0.1-1.8,1.8-1.8c7,0,14.1-0.1,21.1,0c4.7,0.1,9.3,0.6,13.7,2.2
		c7.8,2.7,13.1,8.1,15.4,16c2.5,8.5,2.3,17-0.8,25.2c-3.2,8.8-9.9,13.7-18.9,15.5c-2.7,0.6-5.5,0.7-8.3,0.8c-7.5,0.1-15,0-22.6,0
		c-1.5,0-1.6-0.1-1.6-1.6C152.2,100.3,152.2,90.9,152.2,81.5z M168,65.1c0,0.4,0,0.8,0,1.3c0,3.6,0,7.1,0,10.7c0,6.7,0,13.4,0,20.1
		c0,0.6-0.1,1.3,0.9,1.3c3.1-0.2,6.2-0.1,9.3-0.4c5.8-0.7,9.6-4,11-9.5c1.1-4.4,1.2-8.8,0.3-13.2c-1.1-5.6-5.2-9.5-10.9-10.1
		C175.2,64.8,171.7,65.1,168,65.1z"/>
	<path class="st0" d="M392.3,109c0,5.4,0,10.6,0,15.8c0,1.5-0.1,1.6-1.6,1.6c-3.7,0-7.4,0-11,0c-1.1,0-1.5-0.4-1.5-1.4
		c0-18.9,0-37.8,0-56.7c0-0.7,0-1.5,1-1.5c3.7,0,7.4,0,11.3,0c0.1,1,0.1,2,0.2,3.1c0.2-0.1,0.3-0.1,0.4-0.2
		c10.4-7.7,24.4-3.6,28.8,8.6c3,8.3,2.6,16.6-1.5,24.6c-5.3,10.3-17.4,11.3-24.7,7C393.4,109.6,392.9,109.3,392.3,109z M408.5,88.6
		c0-3.3-0.4-6.5-2.3-9.4c-1.4-2-3.2-3.3-5.7-3.3c-3.6-0.1-5.9,1.9-7.2,5c-0.9,2.1-1.3,4.5-1.6,6.7c-0.4,3.5-0.1,7,1.6,10.1
		c1.4,2.6,3.6,4,6.5,4.1c2.8,0.1,4.9-1.3,6.3-3.7C408,95.2,408.5,92,408.5,88.6z"/>
	<path class="st0" d="M223.3,92.2c-0.3,4,2.4,8.1,6.1,9.3c2.9,1,5.8,0.7,8.5-0.8c2.7-1.4,4.2-4,5.5-6.6c3.2,1.7,6.4,3.3,9.6,5
		c0.8,0.4,0.7,0.9,0.3,1.6c-5.5,8.8-13.5,12.7-23.8,12.1c-6.7-0.4-12.4-3-16.4-8.7c-2.4-3.5-3.6-7.4-3.9-11.6
		c-0.4-5.5,0.2-10.9,2.9-15.9c3.5-6.6,9.1-10.1,16.4-10.9c5.1-0.5,10-0.1,14.5,2.4c5.8,3.1,8.9,8.3,10.2,14.5c0.6,2.7,0.7,5.4,1,8.1
		c0.1,1.2-0.3,1.6-1.5,1.6c-9.3,0-18.6,0-28,0C224.3,92.2,223.8,92.2,223.3,92.2z M239.9,83.1c0-4.1-3.2-7.4-7.3-7.5
		c-4.7-0.2-8.7,3.2-8.9,7.5C229,83.1,234.4,83.1,239.9,83.1z"/>
	<path class="st0" d="M353.9,95.5c0.9-4.1,1.9-8.2,2.8-12.3c1.2-5.1,2.4-10.2,3.5-15.3c0.2-0.9,0.6-1.2,1.5-1.2
		c3.9,0.1,7.9,0,11.8,0c1.5,0,1.7,0.2,1.2,1.7c-5.1,15.8-10.3,31.6-15.5,47.3c-0.9,2.7-2.1,5.2-4.1,7.3c-2.5,2.5-5.6,3.3-8.9,3.3
		c-2.9,0-5.8,0-8.7,0c-1,0-1.4-0.3-1.4-1.4c0-2.9,0-5.7,0-8.6c0-1,0.4-1.4,1.4-1.4c1.6,0,3.1,0,4.7,0c3.4,0,4.5-1.4,3.5-4.6
		c-1-3.6-2.2-7.2-3.3-10.8c-3.2-10.3-6.4-20.6-9.6-31c-0.5-1.6-0.4-1.8,1.4-1.8c3.7,0,7.4,0.1,11.2,0c1.3,0,1.8,0.3,2.1,1.6
		c2,8.9,4.1,17.8,6.1,26.7c0,0.1,0.1,0.3,0.1,0.4C353.7,95.5,353.8,95.5,353.9,95.5z"/>
	<path class="st0" d="M278.8,65.6c8.3,0.1,14.5,3.2,18.9,9.8c0.8,1.2,0.8,1.4-0.6,2.2c-2.6,1.5-5.1,2.9-7.7,4.4
		c-1,0.6-1.5,0.4-2.1-0.6c-2-3.8-5.9-5.6-9.6-4.6c-2.5,0.7-4.1,2.4-5.1,4.8c-2.1,4.9-2.3,9.9,0,14.8c2.3,5.1,7.9,6.8,12.1,3.7
		c1.3-1,2.2-2.5,3.1-3.8c0.5-0.9,0.9-1.2,1.9-0.7c2.7,1.5,5.4,2.8,8.2,4.2c0.7,0.4,1.1,0.8,0.6,1.6c-4.8,7.7-11.7,11.9-20.8,11.3
		c-9.8-0.6-19.4-6.7-20.6-20.1c-0.5-5.5,0.2-10.7,2.7-15.7c3.2-6.3,8.4-9.7,15.2-10.9C276.4,65.7,277.8,65.7,278.8,65.6z"/>
	<path class="st0" d="M328.9,78.5c-2.6,0.5-4.9,0.8-7.3,1.3c-3.9,0.9-4.9,2.4-4.9,6.3c0,7.8,0,15.7,0,23.5c0,1.6,0,1.6-1.7,1.6
		c-3.6,0-7.1,0-10.7,0c-1.1,0-1.5-0.4-1.5-1.5c0-13.8,0-27.6,0-41.4c0-1.5,0.1-1.6,1.6-1.6c3.4,0,6.9,0,10.3,0
		c1.1,0,1.6,0.4,1.5,1.5c-0.1,0.7,0,1.4,0,2.3c0.5-0.3,0.8-0.5,1-0.7c3.1-2.1,6.5-3.1,10.2-3.5c0.7-0.1,1.4,0,1.4,0.9
		C328.9,71,328.9,74.7,328.9,78.5z"/>
</g>
</svg>
