<?xml version="1.0" encoding="utf-8"?>
<!-- Generator: Adobe Illustrator 25.3.1, SVG Export Plug-In . SVG Version: 6.00 Build 0)  -->
<svg version="1.1" id="Layer_1" xmlns="http://www.w3.org/2000/svg" xmlns:xlink="http://www.w3.org/1999/xlink" x="0px" y="0px"
	 viewBox="0 0 501.2 150" style="enable-background:new 0 0 501.2 150;" xml:space="preserve">
<style type="text/css">
	.st0{fill:#5D6676;}
</style>
<g>
	<path class="st0" d="M137.8,50.3c0,16.2,0,31.8,0,47.6c8.2,0,16,0.1,23.9,0c6.9-0.1,13.9-0.1,20.8-0.8c10.5-1.1,16-6.6,17.3-17
		c0.5-4.1,0.4-8.3-0.1-12.4c-1.1-9.3-5.7-14.6-15.1-15.9c-8.6-1.2-17.5-1.1-26.2-1.3C151.6,50.1,144.8,50.3,137.8,50.3z"/>
	<path class="st0" d="M0,0c0,50.2,0,100,0,150c167.2,0,334.2,0,501.2,0c0-50.1,0-100,0-150C334.1,0,167.2,0,0,0z M246.4,84.5
		c-2.8,14.8-13.1,23.6-30,25.9c-5.7,0.8-11.5,1.2-17.2,1.2c-15.6,0.2-31.2,0.1-46.8,0.1c-18.7,0-37.5-0.1-56.2,0.1
		c-3.8,0-5.2-0.8-5.2-4.9c0.2-22.1,0.2-44.1,0-66.2c0-3,0.7-4.1,3.9-4.1c36.3,0.1,72.6,0.1,108.9,0.2c5.2,0,10.5,0.7,15.6,1.6
		c17.5,3.2,26.8,13.6,27.8,31.3C247.6,74.6,247.3,79.7,246.4,84.5z M418.8,111.3c-1.2,0.1-2.4,0.3-3.6,0.3
		c-16.4,0-32.7,0.1-49.1-0.1c-2.4,0-5.1-1.1-7-2.6c-6.2-4.8-12.1-10-18.3-14.8c-1.5-1.2-3.7-2-5.6-2.1c-7.1-0.2-14.1,0-21.2-0.1
		c-2.6,0-3.5,0.9-3.4,3.4c0.1,4.4,0.2,8.9-0.1,13.3c-0.1,1.1-1.5,2.9-2.4,2.9c-14,0.2-28,0.1-42,0c-0.4,0-0.7-0.3-1.5-0.6
		c0-1.1,0-2.4,0-3.7c0-22.1,0.1-44.1-0.1-66.2c0-3.6,1-4.6,4.6-4.6c37.5,0.1,74.9,0,112.4,0.2c5.8,0,11.8,0.8,17.3,2.5
		c10,3.1,14.8,11.3,14.6,22.9c-0.2,10.2-5.5,17.8-15.3,20.8c-4.2,1.3-8.6,1.7-13.7,2.7c11.9,8.4,23.3,16.5,34.8,24.6
		C419,110.6,418.9,110.9,418.8,111.3z"/>
	<path class="st0" d="M137.8,50.3c7,0,13.8-0.2,20.6,0c8.7,0.2,17.6,0.2,26.2,1.3c9.4,1.3,13.9,6.6,15.1,15.9
		c0.5,4.1,0.6,8.3,0.1,12.4c-1.3,10.4-6.8,15.9-17.3,17c-6.9,0.7-13.8,0.7-20.8,0.8c-7.8,0.1-15.7,0-23.9,0
		C137.8,82.1,137.8,66.5,137.8,50.3z"/>
	<path class="st0" d="M310.8,78.2c0-8.8-0.1-17.2,0.1-25.7c0-0.8,1.6-2.1,2.4-2.1c14.3,0,28.5,0,42.8,0.6c7.5,0.3,10.8,4.5,11.2,12
		c0.5,8.5-2.4,12.9-9.7,14.7c-0.8,0.2-1.5,0.5-2.3,0.5C340.7,78.2,326.1,78.2,310.8,78.2z"/>
</g>
</svg>
