<?xml version="1.0" encoding="utf-8"?>
<!-- Generator: Adobe Illustrator 25.3.1, SVG Export Plug-In . SVG Version: 6.00 Build 0)  -->
<svg version="1.1" id="Layer_1" xmlns="http://www.w3.org/2000/svg" xmlns:xlink="http://www.w3.org/1999/xlink" x="0px" y="0px"
	 viewBox="0 0 602.6 150" style="enable-background:new 0 0 602.6 150;" xml:space="preserve">
<style type="text/css">
	.st0{fill:#5D6676;}
</style>
<g>
	<path class="st0" d="M373,100.8c-4.6,3.6-9.1,6.6-14.7,7.7c-22.7,4.7-39.5-9.6-42.4-27.4c-1.3-7.9-0.5-15.4,2.4-22.7
		c5.5-14.2,19.4-22.1,34-20.3c11.6,1.4,23,1.6,34.6,1.7c4.3,0,4.4,0.1,4.4,4.3c0,20.3,0.1,40.5-0.1,60.8c-0.1,4.8-0.9,9.8-2.3,14.5
		c-3.3,11.1-10.7,18.6-21.9,21.8c-13.4,3.8-26.6,2.8-39.5-2.3c-1.2-0.5-2.4-1.1-3.5-1.8c-7.9-4.4-7.9-4.4-2.4-11.7
		c0.1-0.2,0.2-0.3,0.3-0.5c1.8-2.2,3.6-4.3,5.4-6.5c2.2,1.4,4.4,2.9,6.6,4.3c7.8,4.8,16.2,6,25.1,4.1c8.3-1.8,12.6-7.3,14-15.2
		C373.5,108.2,373,104.7,373,100.8z M374.3,73.8c0.6-10.3-6.7-20.3-20.2-20.3c-12.5,0-21,8.1-21,20.3c0,11.5,9,20.7,20.7,20.3
		C368.2,93.5,374.7,83.6,374.3,73.8z"/>
	<path class="st0" d="M405,54.2c0-16.7,0-33.3,0-50c0-4,0.1-4.1,3.9-4.1c3.6,0,7.2,0.1,10.8,0c2.5-0.1,3.3,0.8,3.2,3.3
		c-0.1,9.8-0.1,19.7,0,29.5c0.1,6.9-1.3,6.7,6.9,5.5c6.6-0.9,13.2-1.2,19.8,0.2c11.4,2.4,18.8,10.4,19.2,22.1
		c0.4,11.3,0.2,22.7,0.2,34.1c0,3.6-0.1,7.2,0,10.8c0.1,2.3-0.4,3.6-3.1,3.5c-3.8-0.2-7.6-0.2-11.4,0c-2.3,0.1-2.9-0.9-2.9-3
		c0.1-8.7,0.1-17.4,0-26.1c-0.1-4.9-0.3-9.8-0.9-14.7c-0.9-6.9-4.7-10.8-10.6-11.5c-6.7-0.9-13.5,2.7-15.6,8.8
		c-1.1,3-1.4,6.3-1.5,9.4c-0.2,10.8,0,21.6-0.1,32.4c0,4.6-0.1,4.6-4.8,4.7c-3.2,0-6.5-0.2-9.7,0.1c-2.9,0.2-3.6-1-3.5-3.6
		c0.2-4.2,0-8.3,0-12.5C405,79.9,405,67,405,54.2z"/>
	<path class="st0" d="M44.5,80.5c-7.4,0-14.8,0-22.2,0c-4.4,0-4.8,0.9-3.2,5c3.5,8.8,13.4,11.9,20.5,10.8c5.4-0.8,10.1-3.2,13.9-7.1
		c1.8-1.8,2.9-1.6,4.7-0.1c2.3,1.9,4.9,3.6,7.3,5.3c2,1.4,2.2,2.5,0.4,4.5c-5.6,6.2-12.6,9.8-20.6,11c-8.5,1.3-17.1,0.6-25-3.3
		C7.1,100,0.4,89.2,0,74.4C-0.4,60,8.4,44.5,26.2,39.5c9.9-2.8,19.5-2.6,28.6,2.4c10.1,5.6,14.5,15,16,26c0.4,2.6,0.5,5.3,0.7,7.9
		c0.4,4-0.1,4.7-4.2,4.7C59.7,80.6,52.1,80.5,44.5,80.5z M35.9,67.1c4.9,0,9.8,0.1,14.8,0c3.1-0.1,3.3-0.4,2.6-3.3
		c-2.5-11.3-13.4-15-24.2-11.7C23.1,54,20,58.5,18.4,64.3c-0.5,1.7,0,2.9,2.2,2.9C25.6,67.1,30.7,67.1,35.9,67.1z"/>
	<path class="st0" d="M149.4,74.3c0-10,0-20,0-30.1c0-4.6-0.2-4.5,4.2-4.4c2.8,0,5.7-0.1,8.5,0c7.2,0.2,14.3-0.6,21.5-1.6
		c11.5-1.7,22.5,2.7,27.2,13c1.5,3.4,2.4,7.3,2.5,10.9c0.3,14.4,0.2,28.7,0.2,43.1c0,3.6-0.1,3.7-3.8,3.7c-3.2,0-6.5,0.1-9.7,0
		c-3.7-0.1-3.8-0.1-3.8-3.8c-0.1-8.5,0.1-17-0.1-25.5c-0.1-4.3-0.4-8.7-0.7-13c-0.7-8.1-4.8-12.6-11.5-13c-7.7-0.5-14.4,4.2-16,11.6
		c-0.6,2.9-0.9,6-0.9,9c-0.1,10.2,0,20.4-0.1,30.6c0,4-0.1,4.1-4.1,4.1c-4.3-0.1-8.6-0.4-12.9-0.6c-0.1-4.1-0.3-8.3-0.4-12.4
		C149.4,88.6,149.4,81.5,149.4,74.3z"/>
	<path class="st0" d="M248.5,110.3c-9.3,0.1-17.6-1.8-24.6-7.8c-2.9-2.4-2.8-2.6-0.3-5.1c1.1-1.1,2.2-2.1,3.3-3.1
		c1.9-1.6,3.7-4,5.8-4.3c1.6-0.2,3.6,2.2,5.4,3.5c5.1,3.9,10.8,4.2,16.8,3c1.4-0.3,2.8-1.2,3.9-2.2c3.7-3.2,3.5-8.2-1-10.2
		c-4.6-2-9.7-3-14.6-4.5c-2.9-0.9-5.9-1.5-8.7-2.6c-12-4.8-13-16.5-9.2-25.6c3-7.2,9.4-10.6,16.6-12.5c8.1-2.2,16.2-1.4,24,1.5
		c1.9,0.7,3.8,1.7,5.5,2.8c6,4,6,4.6,0.7,9.2c-1.6,1.4-3.2,2.7-4.6,4.2c-1.7,1.8-3,1.6-4.7-0.2c-3.7-3.9-8.4-5-13.5-4.4
		c-1.7,0.2-3.3,0.8-4.8,1.5c-2.2,1.1-3.4,3.1-3.4,5.5c0,2.5,1.6,4.3,4,5c4.9,1.4,9.8,2.6,14.7,4c2.5,0.7,5.1,1.5,7.5,2.5
		c7.6,3.1,11.6,9,11.7,17.1c0.1,8-3.4,14.2-10.6,18.1C262.2,109.4,255.4,110.6,248.5,110.3z"/>
	<path class="st0" d="M489.5,74.5c0-5.7-0.1-11.4,0-17c0-2.1-0.6-3.1-2.9-3c-3,0.1-6.1,0-9.1,0.1c-1.9,0-2.8-0.7-2.7-2.7
		c0.2-3.8,0.2-7.5,0.3-11.3c3.5-0.3,7-0.6,10.5-0.8c3.7-0.2,3.8-0.1,3.8-3.7c0.1-4.5,0.1-9.1,0-13.6c-0.1-2.2,0.8-3,3-2.9
		c4.7,0.2,9.5,0.2,14.2,0.3c0.3,4.5,0.7,8.9,0.8,13.4c0.2,7.6-0.9,6.5,6.7,6.6c3.4,0,6.8,0,10.3,0c1.7,0,2.5,0.7,2.4,2.4
		c0,0.2,0,0.4,0,0.6c-0.2,3.7-0.3,7.5-0.5,11.2c-3.5,0.2-7.1,0.5-10.6,0.6c-8.2,0.1-8.2,0-8.2,8.5c0,7,0.1,14,0,21
		c-0.1,12,5.9,12.3,14.1,11.3c5.2-0.6,5.2-0.9,5.2,4c0,1.3,0,2.7,0,4c0,5.3,0,5.6-5,6.4c-6.6,1-13.2,1.4-19.8-0.4
		c-6.2-1.8-10-5.8-11.4-12.1c-0.3-1.5-0.8-3-0.9-4.4c-0.1-6.1,0-12.1,0-18.2C489.6,74.5,489.5,74.5,489.5,74.5z"/>
	<path class="st0" d="M69,137.2c2.4-1.9,5.2-3.7,7.2-6c3.6-4.1,4.8-9.2,4.8-14.7c0-23.5,0-46.9,0-70.4c0-1.3,0.1-2.6,0-4
		c-0.1-1.7,0.6-2.5,2.3-2.3c0.2,0,0.4,0,0.6,0c4.5,0.1,9.1,0.2,13.6,0.3c0.2,4.3,0.7,8.5,0.7,12.8c0.1,22.1,0.1,44.3,0,66.4
		c-0.1,10.5-3.4,19.6-11.9,26.4c-1,0.8-2.2,1.5-3.2,2.3c-1.5,1.2-2.6,1-3.9-0.4C75.7,144,72.2,140.5,69,137.2z"/>
	<path class="st0" d="M286.7,73.9c0-10,0-20,0-30c0-4,0.1-4.1,4-4.1c3.6-0.1,7.2,0.1,10.8-0.1c2.5-0.1,3.2,0.8,3.2,3.2
		c-0.1,8.9,0,17.8,0,26.6c0,11.7,0,23.4,0,35.1c0,4.1-0.1,4.1-4,4.1c-3.6,0-7.2-0.1-10.8,0.1c-2.5,0.1-3.3-0.9-3.2-3.3
		C286.7,95.1,286.7,84.5,286.7,73.9z"/>
	<path class="st0" d="M134.9,74.2c0,10.2,0,20.5,0,30.7c0,4-0.1,4-4.1,4.1c-3.6,0-7.2,0-10.8,0c-1.7,0-2.4-0.7-2.4-2.4
		c0-0.8,0-1.5,0-2.3c0-20.1,0-40.1,0-60.2c0-4.6-0.1-4.3,4.4-4.3c3,0,6.1,0,9.1,0c3.7,0.1,3.8,0.1,3.8,3.7
		C134.9,53.7,134.9,63.9,134.9,74.2z"/>
	<path class="st0" d="M100.6,16.2c0,6.2-4.7,10.6-11.4,10.6c-5.8,0-11.3-4.9-11.2-10.5C78,11,82.4,5.7,89.6,5.8
		C95.9,5.9,100.6,10.3,100.6,16.2z"/>
	<path class="st0" d="M307,16.5c-0.1,6.1-5.2,10.6-11.7,10.3c-5.9-0.2-11.2-5.4-11-10.8c0.2-5.6,5.4-10.3,11.4-10.3
		C302.3,5.9,307,10.3,307,16.5z"/>
	<path class="st0" d="M126.1,26.4c-6.9,0-10.9-3.8-10.9-10.2c0-6,4.8-10.5,11.1-10.3c7.4,0.2,11.5,5,11.5,10.2
		C137.8,22.7,132.4,26.9,126.1,26.4z"/>
	<path class="st0" d="M522.6,140c0,2.9,0.1,5.5-0.1,8.1c0,0.7-1,1.3-1.5,1.9c-0.6-0.6-1.7-1.1-1.7-1.7c-0.1-7.6-0.1-15.1-0.1-22.7
		c0-1.6,1.5-2.2,2.3-1.6c1.8,1.4,3.1,0.4,4.6-0.1c4.6-1.4,8.5,0.1,11.2,4c2,2.9,1.5,8.2-1,11.1c-2.7,3.1-6.4,3.9-10.8,2.2
		C524.7,140.9,523.8,140.5,522.6,140z M535.1,132.6c0-3.2-2.8-6.2-6-6.3c-3.2-0.2-6.4,3.1-6.4,6.6c0,3.6,2.7,6,6.8,5.9
		C533,138.7,535,136.5,535.1,132.6z"/>
	<path class="st0" d="M485.8,135.4c0,0.9,0.2,2-0.1,2.8c-0.4,1.3-1.1,3.3-1.9,3.4c-1.9,0.2-2.2-1.6-2.2-3.2c0-2.3,0-4.5,0-6.8
		c-0.1-3.5-1.3-5.3-3.6-5.3c-2.6,0-4.6,2-4.8,5.2c-0.1,2.6,0.1,5.3-0.2,7.9c-0.1,0.8-1.3,1.6-2,2.3c-0.7-0.8-2-1.5-2-2.3
		c-0.2-6.6-0.2-13.2,0-19.8c0-0.8,1.3-1.5,2-2.3c0.7,0.8,1.5,1.5,2,2.4c0.3,0.6,0.1,1.5,0.1,2.2c0,1.8,1,2,2.6,2
		c8.5,0.1,9.9,1.6,9.9,10.3C485.8,134.6,485.8,135,485.8,135.4z"/>
	<path class="st0" d="M499.6,142.1c-6.3,0-8.3-1.5-10.3-6.2c-1.7-3.9-0.3-7,2.2-9.8c2.6-3,6.7-3.8,10.3-2c1.6,0.8,3,2.3,3.9,3.8
		c2.5,4.5,1.5,6.1-3.5,6.2c-2.3,0-4.6,0-6.8,0c-0.7,0-1.4,0.4-2.1,0.6c0.3,0.8,0.5,1.8,1,2.4c1.5,2,3.7,1.8,5.7,1.4
		c1.1-0.2,2.1-0.9,3.2-1.1c0.6-0.1,1.4,0.3,2.1,0.5c-0.4,0.8-0.5,2-1.1,2.3C502.2,141.2,500.3,141.8,499.6,142.1z M497.7,130.8
		c0.6,0,1.1,0.1,1.7,0c1.2-0.3,2.3-0.6,3.4-0.9c-1-1-1.7-2.4-2.9-2.9c-1.2-0.5-2.9-0.4-4.1,0.1c-1.1,0.5-1.9,1.9-2.8,2.9
		c1.2,0.3,2.4,0.6,3.5,0.8C497,130.9,497.4,130.8,497.7,130.8z"/>
	<path class="st0" d="M594.1,142.7c-4.6-0.4-7.2-2.5-9-6.4c-1.7-3.9-0.5-7,1.8-9.9c2.2-2.9,6.8-4,10.2-2.3c1.8,0.9,3.6,2.7,4.6,4.6
		c2,3.9,0.8,5.4-3.5,5.5c-2.7,0-5.3-0.1-8,0.1c-1.6,0.1-1.7,1.2-0.9,2.4c1.5,2.2,3.6,2.6,6,2.2c1.3-0.2,2.5-0.9,3.7-1.2
		c0.6-0.1,1.3,0.4,2,0.6c-0.3,0.7-0.4,1.7-0.9,1.9C598.2,141.1,596.1,141.8,594.1,142.7z M592,130.8c2.2,0,3.1,0.1,4.1,0
		c0.9-0.1,1.7-0.4,2.5-0.7c-0.5-0.9-0.9-2-1.6-2.6c-0.8-0.7-2-1.1-3.1-1.2c-2.2-0.2-5.7,2.3-5,3.3
		C589.8,130.6,591.7,130.7,592,130.8z"/>
	<path class="st0" d="M413.9,142.1c-5.3-0.1-10-4.9-9.8-9.8c0.2-4.4,5.3-9.1,10-9.2c5-0.1,10.3,5.4,10,10.2
		C423.8,138.1,418.9,142.2,413.9,142.1z M420,133.5c0.2-4.1-1.9-7-5.5-7.2c-3.3-0.2-5.9,2.3-6.2,6c-0.3,4.1,1.5,6.3,5.2,6.6
		C417.6,139,419.7,137.3,420,133.5z"/>
	<path class="st0" d="M426.8,132.8c0-1.5,0-3,0-4.5c0-3.3,0-3.2,3.9-3.3c1.1,0,2.1-0.7,3.1-1.1c4.4-1.6,8.5,0.9,8.8,5.4
		c0.2,3.4,0.2,6.8,0,10.2c0,0.8-1,1.6-1.6,2.5c-0.6-0.8-1.6-1.5-1.7-2.3c-0.2-2.8-0.2-5.7-0.1-8.5c0.1-2.4-0.7-4.1-3-4.7
		c-1.8-0.4-4.6,1.3-5.1,3.5c-0.6,2.5-0.7,5.2-1.1,7.7c-0.2,1.5,1.1,4-1.6,4.1c-2.7,0.1-1.6-2.4-1.7-3.9
		C426.7,136.2,426.8,134.5,426.8,132.8z"/>
	<path class="st0" d="M557.9,133.2c0,2.3,0,4.5,0,6.8c0,1.4-0.7,2.3-2.1,1.4c-1.8-1.2-3.2,0.1-4.8,0.4c-5.3,1.2-8.9-1.7-9-7.1
		c-0.1-3-0.1-6.1,0.1-9.1c0-0.6,1.1-1.2,1.6-1.8c0.6,0.6,1.5,1.2,1.6,1.8c0.2,3,0.1,6,0.1,9.1c0,1.9,0.5,3.5,2.6,3.8
		c2.1,0.3,4.4,0.5,5.4-1.9c0.6-1.5,1-3.2,1.2-4.9c0.2-1.9-0.1-3.8,0.1-5.7c0.1-0.8,1.1-1.5,1.7-2.2c0.5,0.8,1.4,1.6,1.5,2.5
		C558,128.7,557.9,131,557.9,133.2C557.9,133.2,557.9,133.2,557.9,133.2z"/>
	<path class="st0" d="M574.2,142.1c-0.7-0.2-2.5-0.7-4.1-1.5c-0.5-0.3-0.6-1.6-0.5-2.4c0-0.3,1.3-0.6,1.9-0.5c1.1,0.2,2.1,1,3.2,1
		c1.4,0.1,3.3,0.7,3.8-1.4c0.4-1.8-0.8-2.7-2.4-3.1c-1.3-0.3-2.5-0.7-3.8-1.2c-3.6-1.5-4.2-5.5-1.1-8c2.3-1.9,7-2.1,9.4-0.3
		c0.6,0.4,0.6,1.5,0.9,2.3c-0.9,0.3-2.2,1.1-2.8,0.7c-1.5-1-2.8-2-4.5-0.6c-0.5,0.4-1.3,1.1-1.2,1.6c0.1,0.6,0.7,1.4,1.3,1.6
		c1.2,0.5,2.6,0.5,3.8,1c3.6,1.3,5.3,3.5,4.8,6c-0.5,2.6-3.5,4.7-6.8,4.8C575.8,142.1,575.6,142.1,574.2,142.1z"/>
	<path class="st0" d="M462.5,142.1c-1.8,0-3.5-1.4-3.8-4.3c-0.2-2.1-0.1-4.2-0.1-6.2c0-2.3,0.4-4.6-3-4.9c-0.4,0-0.9-1.1-1-1.7
		c-0.1-0.2,0.8-0.9,1.1-0.9c2.7,0.2,3.1-1.4,3-3.6c0-0.6,0.6-1.2,1-1.8c0.7,0.5,2.1,1,2.1,1.5c0,2.8,1,4.2,4,3.9
		c0.3,0,0.9,0.9,0.8,1.2c-0.1,0.6-0.7,1.7-1.1,1.7c-3.9-0.3-3.6,2.3-3.5,4.8c0,1.3,0.1,2.7,0,4c-0.1,2.1,0.7,3.1,2.9,3.1
		c0.8,0,1.6,0.9,2.5,1.4c-0.9,0.6-1.7,1.3-2.6,1.8C464.5,142.2,464,142.1,462.5,142.1z"/>
	<path class="st0" d="M565.8,129.6c0,3.4,0.1,6.8-0.1,10.2c0,0.7-0.9,1.4-1.4,2.1c-0.6-0.7-1.8-1.4-1.9-2.1
		c-0.1-6.8-0.1-13.6,0-20.4c0-0.7,0.9-1.4,1.4-2.1c0.6,0.7,1.8,1.4,1.9,2.1C565.9,122.8,565.8,126.2,565.8,129.6z"/>
</g>
</svg>
