<?xml version="1.0" encoding="utf-8"?>
<!-- Generator: Adobe Illustrator 25.3.1, SVG Export Plug-In . SVG Version: 6.00 Build 0)  -->
<svg version="1.1" id="Layer_1" xmlns="http://www.w3.org/2000/svg" xmlns:xlink="http://www.w3.org/1999/xlink" x="0px" y="0px"
	 viewBox="0 0 693.3 150" style="enable-background:new 0 0 693.3 150;" xml:space="preserve">
<style type="text/css">
	.st0{fill:#5D6676;}
</style>
<g>
	<path class="st0" d="M0,53.3c0.6-1.3,1-2.6,1.7-3.9c2.8-5.2,7-8.2,13.2-8.2c17.1,0.1,34.3,0,51.4,0c9.1,0,15.7,6.5,15.7,15.6
		c0,7.8,0,15.6,0,23.3c0,9-6,15.1-15.2,15.1c-16.5,0-32.9,0-49.4,0c-1.1,0-2.3,0-3.6,0c0,4.7,0,9,0,13.7c18,0,36,0,54.2,0
		c0,4.6,0,8.8,0,13.5c-1.1,0-2.2,0-3.3,0c-15.8,0-31.6-0.3-47.4,0.1C9,122.9,2.9,120.3,0,112.1C0,92.5,0,72.9,0,53.3z M68.4,54.5
		c-18.3,0-36.4,0-54.5,0c0,9.1,0,18.1,0,27c18.3,0,36.3,0,54.5,0C68.4,72.5,68.4,63.7,68.4,54.5z"/>
	<path class="st0" d="M196.3,136.4c18.4,0,36.4,0,54.5,0c0-4.6,0-9,0-13.9c-1.1,0-2.2,0-3.4,0c-16.5,0-33,0-49.4,0
		c-5.2,0-9.6-1.8-12.5-6c-1.6-2.3-2.7-5.4-2.7-8.2c-0.2-17.5-0.2-35-0.1-52.5c0-8,6.5-15,14.5-15c18-0.2,36-0.2,54.1,0
		c7.8,0.1,13.3,6.7,13.4,15.5c0.1,11.9,0,23.8,0,35.7c0,14.1,0,28.2,0,42.4c0,10.1-5.4,15.5-15.5,15.5c-16.6,0-33.1-0.1-49.7,0.1
		c-2.6,0-3.3-0.8-3.2-3.3C196.4,143.4,196.3,140.1,196.3,136.4z M196.2,54.5c-0.1,1.1-0.1,2-0.1,2.8c0,16.2,0.1,32.5-0.1,48.7
		c0,2.6,0.7,3.2,3.3,3.2c16.3-0.1,32.6-0.1,48.8-0.1c0.9,0,1.8-0.1,2.8-0.1c0-18.4,0-36.4,0-54.5C232.7,54.5,214.6,54.5,196.2,54.5z
		"/>
	<path class="st0" d="M474.9,136.3c16.8,0,33.2,0,49.9,0c0-4.6,0-8.9,0-13.6c-1.2-0.1-2.3-0.2-3.4-0.2c-15.8,0-31.6,0-47.4,0
		c-8.3,0-12.8-4.4-12.9-12.8c-0.1-14.9-0.1-29.8,0-44.7c0-4.6-0.1-9.3,0.6-13.8c1.1-7.2,5.5-10.5,12.8-10.6c16.7,0,33.3,0,50,0
		c8.4,0,13.7,5,13.9,13.5c0.2,5,0.1,10,0.1,15c0,21.9,0.1,43.8-0.1,65.7c0,2.7-0.5,5.6-1.5,8.1c-1.7,4.3-5.1,6.8-9.8,6.8
		c-17,0.1-33.9,0-50.9,0c-0.4,0-0.7-0.2-1.2-0.3C474.9,145.3,474.9,141,474.9,136.3z M474.7,109c1.3,0.1,2.2,0.1,3.1,0.1
		c14.6,0,29.3-0.1,43.9,0.1c2.5,0,3.3-0.6,3.3-3.2c-0.1-16.2-0.1-32.5-0.1-48.7c0-0.9-0.1-1.9-0.1-2.7c-16.9,0-33.5,0-50.1,0
		C474.7,72.8,474.7,90.8,474.7,109z"/>
	<path class="st0" d="M433.6,40.8c0-13.8,0-27.2,0-40.8c4.6,0,8.8,0,13.3,0c0,40.8,0,81.5,0,122.4c-1.1,0.1-2,0.2-2.9,0.2
		c-20.7,0-41.4,0-62.2,0c-4.6,0-8.5-1.4-11.9-4.3c-3.1-2.7-4.8-6-4.8-10.1c0-17.3-0.1-34.6,0-51.9c0-8.5,7.5-15.5,16.5-15.5
		c16.1-0.1,32.2,0,48.3,0C431.1,40.8,432.2,40.8,433.6,40.8z M378.9,54.5c0,18.3,0,36.3,0,54.5c0.7,0.1,1.3,0.2,1.8,0.2
		c16.9,0,33.7,0,50.6,0.1c2.2,0,2.5-1,2.5-2.8c0-16.6,0-33.2,0-49.8c0-0.6-0.1-1.3-0.2-2.1C415.2,54.5,397.2,54.5,378.9,54.5z"/>
	<path class="st0" d="M561.3,95.3c0,3.9,0.1,7.4,0,10.8c-0.1,2.4,0.6,3.1,3,3.1c15.9-0.1,31.8-0.1,47.7-0.1c1.1,0,2.3,0,3.7,0
		c0,4.4,0,8.7,0,13.1c-0.6,0.1-1.2,0.2-1.9,0.2c-17.1,0-34.1,0-51.2,0c-4.3,0-7.9-1.6-10.9-4.5c-2.6-2.5-4-5.5-4-9.2
		c0-17.4,0-34.8,0-52.2c0-7.9,6.9-15.2,14.7-15.3c18.2-0.2,36.4-0.1,54.6,0c6.6,0,12.3,6.1,12.5,13.5c0.3,9.4,0.2,18.8,0,28.2
		c-0.2,7.2-5.8,12.2-13.1,12.2c-17.2,0-34.3,0-51.5,0C563.9,95.3,562.8,95.3,561.3,95.3z M561.5,81.6c18.2,0,36.3,0,54.4,0
		c0-9.1,0-18.1,0-27c-18.3,0-36.3,0-54.4,0C561.5,63.7,561.5,72.5,561.5,81.6z"/>
	<path class="st0" d="M342.4,122.1c0-22.9,0-45.4,0-68.1c-1.3-0.1-2.2-0.1-3.1-0.1c-11.9,0-23.7,0-35.6,0c-9.4,0-16.3,6.8-16.3,16.1
		c0,12,0,24,0,36c0,0.9,0.1,1.9,0.1,3.1c18.1,0,36,0,54.8,0c-1.8,2.1-2.8,3.7-4.2,5c-6.3,5.5-13.8,8-22,8.3
		c-9.3,0.4-18.7,0.3-28,0.1c-8.2-0.2-14.1-6.5-14.2-14.7c0-12.4,0.3-24.8-0.1-37.2c-0.5-15.9,13.2-30,29.8-29.8
		c12.7,0.1,25.4,0,38.2,0c7.4,0,13,5,13.8,12.4c0.1,1.2,0.2,2.5,0.2,3.7c0,20.6,0,41.1,0.1,61.7c0,2.7-0.6,3.8-3.5,3.6
		C349.2,121.9,345.9,122.1,342.4,122.1z"/>
	<path class="st0" d="M173.4,122.5c-4.7,0-8.9,0-13.6,0c0-1.2,0-2.3,0-3.4c0-16.4,0-32.8,0-49.3c0-5.6-2.1-10.2-6.8-13.2
		c-1.8-1.1-4.1-2.1-6.2-2.1c-13.6-0.2-27.2-0.1-40.7-0.1c-0.3,0-0.6,0.1-1.2,0.3c0,22.5,0,45,0,67.7c-4.6,0-8.9,0-13.5,0
		c0-1.1,0-2.2,0-3.2c0-20.7,0-41.5,0-62.2c0-9.9,6.3-16.1,16.3-16.1c12.1,0,24.3,0,36.4,0c16.9,0,29.2,12.1,29.3,29
		c0.1,16.7,0,33.4,0,50.1C173.4,120.6,173.4,121.4,173.4,122.5z"/>
	<path class="st0" d="M693.3,54.4c-13.7,0-27,0-40.8,0c0,22.7,0,45.2,0,67.9c-4.6,0-8.9,0-13.3,0c0-40.8,0-81.5,0-122.4
		c4.4,0,8.6,0,13.2,0c0,13.5,0,26.9,0,40.7c13.8,0,27.2,0,40.9,0C693.3,45.3,693.3,49.7,693.3,54.4z"/>
</g>
</svg>
