<?xml version="1.0" encoding="utf-8"?>
<!-- Generator: Adobe Illustrator 25.3.1, SVG Export Plug-In . SVG Version: 6.00 Build 0)  -->
<svg version="1.1" id="Layer_1" xmlns="http://www.w3.org/2000/svg" xmlns:xlink="http://www.w3.org/1999/xlink" x="0px" y="0px"
	 viewBox="0 0 764.4 150" style="enable-background:new 0 0 764.4 150;" xml:space="preserve">
<style type="text/css">
	.st0{fill:#5D6676;}
</style>
<g>
	<g>
		<path class="st0" d="M1.1,101.8l9.7-1.5V11.1L0,9.7L0.6,0h67.5l-1.7,27l-13.4-0.4L52.1,9.7H31.2v40.2h9.1l2.1-9.2l9.4,0.3v27.7
			h-9.4l-2.2-9.5h-9.1v42.6h21l2-18.5l14.1,0.4l1.1,28.2H0.7L1.1,101.8z"/>
		<path class="st0" d="M75.6,111.9l0.4-8.3l7.6-1.5V45.8L74.8,45v-8.4l22.1-3.2l1.7,4.8v3.2c5.3-5.6,11.8-9,20-9
			c12,0,21,7.3,21,21.7V102l8,1.5l-0.4,8.3h-26.3V58.3c0-7.7-2.8-12-9.8-12c-2.4,0-4.1,0.4-5.9,1.1c-1.1,1-2.2,2.4-3.2,3.6v51.3
			l8,1.5l-0.6,8.3L75.6,111.9L75.6,111.9z"/>
		<path class="st0" d="M498.7,111.9l0.3-8.3l7.6-1.5V45.8l-8.8-0.8v-8.4l22.1-3.2l1.7,4.8v3.2c5.3-5.6,11.8-9,20-9
			c12,0,21,7.3,21,21.7V102l8,1.5l-0.4,8.3H544V58.3c0-7.7-2.8-12-9.8-12c-2.4,0-4.1,0.4-5.9,1.1c-1.1,1-2.2,2.4-3.2,3.6v51.3l8,1.5
			l-0.6,8.3L498.7,111.9L498.7,111.9z"/>
		<path class="st0" d="M189.4,110.4c-3.1,1.3-8.5,2.7-15.7,2.7c-9.4,0-18.1-4.2-18.1-17.9V45.8l-9-1.4l0.4-9.8l10.1-0.4l4.3-15
			l12.9-0.6v16.1h13.9l-1,9.8l-12.7,1.4v49.3c0,4.1,2.2,6.7,6.4,6.7h7.6L189.4,110.4z"/>
		<path class="st0" d="M713.6,111.9l0.3-8.1l7.1-1.7V45.8l-8.4-0.8v-8.4l23-3.2l1.5,5.5v1.8c6-4.5,14.1-7.4,23.9-7.4l3.4,2.9
			L762,57.4L749.4,57l-1.3-11.3c-2.9,0.4-5.7,1.3-8.1,2.9v53.6l8,1.7l-0.6,8.1L713.6,111.9L713.6,111.9z"/>
		<path class="st0" d="M383.8,111.9l0.4-8.1l7.1-1.7V45.8l-8.4-0.8v-8.4l23-3.2l1.5,5.5v1.8c6-4.5,14.1-7.4,23.9-7.4l3.4,2.9
			l-2.7,21.3L419.5,57l-1.3-11.3c-2.9,0.4-5.7,1.3-8.1,2.9v53.6l8,1.7l-0.6,8.1L383.8,111.9L383.8,111.9z"/>
		<path class="st0" d="M195,111.9l0.4-8.1l7.1-1.7V45.8l-8.4-0.8v-8.4l23-3.2l1.5,5.5v1.8c6-4.5,14.1-7.4,23.8-7.4l3.4,2.9
			l-2.4,21.3L230.8,57l-1.3-11.3c-2.9,0.4-5.7,1.3-8.1,2.9v53.6l8,1.7l-0.6,8.1L195,111.9L195,111.9z"/>
		<path class="st0" d="M267.5,77.6c0,13.4,5.9,23.8,17.5,23.8c6,0,10.8-1.3,16.4-3.9l3.2,7.4c-5.7,4.6-14.1,8.1-24.6,8.1
			c-20.4,0-32.2-17.6-32.2-40.3c0-19.3,8.5-40.5,31.9-40.5c20.4,0,28.2,18.9,28.2,39.9l-2,5L267.5,77.6z M267.2,68.6l23.5-1.1
			c-0.4-9.4-2.4-24.2-11.6-24.2c-2.2,0-3.8,0.4-6.6,1.8C268.8,51.5,267.2,63.2,267.2,68.6z"/>
		<path class="st0" d="M593,77.6c0,13.4,5.9,23.8,17.5,23.8c6,0,10.8-1.3,16.4-3.9l3.2,7.4c-5.7,4.6-14.1,8.1-24.6,8.1
			c-20.4,0-32.2-17.6-32.2-40.3c0-19.3,8.5-40.5,31.9-40.5c20.4,0,28.2,18.9,28.2,39.9l-2,5L593,77.6z M592.7,68.6l23.5-1.1
			c-0.4-9.4-2.4-24.2-11.6-24.2c-2.2,0-3.8,0.4-6.6,1.8C594.3,51.5,592.7,63.2,592.7,68.6z"/>
		<path class="st0" d="M456.3,77.6c0,13.4,5.9,23.8,17.5,23.8c6,0,10.8-1.3,16.4-3.9l3.2,7.4c-5.7,4.6-14.1,8.1-24.6,8.1
			c-20.4,0-32.2-17.6-32.2-40.3c0-19.3,8.5-40.5,31.9-40.5c20.4,0,28.2,18.9,28.2,39.9l-2,5L456.3,77.6z M456,68.6l23.5-1.1
			c-0.4-9.4-2.4-24.2-11.6-24.2c-2.2,0-3.8,0.4-6.6,1.8C457.6,51.5,455.9,63.2,456,68.6z"/>
		<path class="st0" d="M686.3,111.9l-2-6.7c-5.2,4.9-10.2,7.8-18.1,7.8c-12,0-22.8-6-22.8-22.7V43.8l-8.8-0.8v-7.4l25.5-2.9l2,6.7
			v48.7c0,8.5,3.5,13,10.4,13c2,0,4.5-0.3,6.7-1.1c1.3-1.3,2.5-2.8,3.5-4.3V43.8l-9.1-0.8v-7.4l25.8-2.9l2,6.7v62.7l8,1.5l-1,8.3
			C708.3,111.9,686.3,111.9,686.3,111.9z"/>
	</g>
	<path class="st0" d="M346.1,101.8c-4.1,0-7.3-0.7-9.8-2.1V50.3c1.1-1.7,2.4-3.2,3.6-4.6c2.4-0.8,4.5-1.1,7-1.1
		c10.5,0,12.3,10.6,12.3,29.7c0,18.3-2.8,23.4-3.5,25.5C352.8,101.1,349.7,101.8,346.1,101.8z M377.5,70.9c0-23.7-7-38.5-24.5-38.5
		c-11.6,0-17.1,6.7-19.3,9.5v-2.7l-2-6.7l-22.8,3.2v8.1l8.8,1.1v95.5l-7.6,1.5l-0.4,8h33.8l0.6-8l-8-1.5v-30.3
		c3.2,1.8,7.7,2.9,12.6,2.9C377.2,113.2,377.5,84.2,377.5,70.9z"/>
</g>
</svg>
