<?xml version="1.0" encoding="utf-8"?>
<!-- Generator: Adobe Illustrator 25.3.1, SVG Export Plug-In . SVG Version: 6.00 Build 0)  -->
<svg version="1.1" id="Layer_1" xmlns="http://www.w3.org/2000/svg" xmlns:xlink="http://www.w3.org/1999/xlink" x="0px" y="0px"
	 viewBox="0 0 573.4 150" style="enable-background:new 0 0 573.4 150;" xml:space="preserve">
<style type="text/css">
	.st0{fill:#5D6676;}
</style>
<path id="path2995" class="st0" d="M142.4,149.6c-10-1.4-18.8-5.7-25.4-12.3c-5.6-5.5-9.2-11.6-11.8-19.9c-4.2-13-4.2-29.7,0-42.4
	c4-12.3,13.1-23,24.2-28.6c15.4-7.7,37-7.2,51.2,1.2c12.8,7.5,20.6,20.9,22.7,39.2c0.7,5.6,0.2,17.4-0.8,22.3
	c-4.2,19.9-16.6,33.8-34.7,39.1c-1.9,0.6-5,1.2-6.7,1.5C157.3,150.1,146,150.1,142.4,149.6L142.4,149.6z M157.4,141.6
	c2.9-0.9,6.5-4.2,8.4-7.9c4-7.6,5.7-18.8,5.8-36.6c0-22.3-3.5-36.5-10.8-43.9c-3.1-3.1-5.3-4.1-9.3-4.1c-8.8,0-14.4,9.2-16.6,27.3
	c-1,8.3-1,28.1,0,35.4C138.1,134.2,146.1,144.9,157.4,141.6L157.4,141.6z M319.5,149.6c-4.1-0.4-16.6-2.5-20.9-3.5l-3-0.7l0.2-16.1
	c0.6-38.8,0.6-60,0.3-80.6c-0.4-20.2-0.5-22.3-1.2-25.3c-1-3.8-2.4-6.4-4.1-7.6c-0.7-0.5-2.5-1.2-4-1.5c-5.2-1.2-4.9-0.9-5-3.3
	c-0.1-1.4,0.1-2.2,0.4-2.5C282.5,8,324.6,0,326,0c0.4,0,0.5,5.4,0.2,23.9c-0.1,13.1-0.2,23.9,0,23.9c0.1,0,1.6-0.7,3.4-1.5
	c5.3-2.5,10.2-3.5,17.3-3.8c4.7-0.2,6.9,0,9.4,0.5c15.9,3.3,27.6,16.3,31.7,35.1c1.1,4.9,1.5,17.1,0.7,23.2
	c-0.6,5.2-2.3,12.2-4.1,16.8c-6.8,17.2-21.4,28.4-40.7,31.3C339.5,150.1,325.5,150.2,319.5,149.6L319.5,149.6z M336,141.4
	c3-0.6,5.3-1.8,7.8-4c6.3-5.6,11-17.2,12.8-31.7c0.7-5.9,0.7-19.2-0.2-24.1c-2.3-13.2-7.1-21.9-14.2-25.4c-2.9-1.4-3.4-1.6-6.9-1.6
	c-2.5,0-4.7,0.2-6.5,0.8l-2.7,0.8l-0.2,15c-0.2,19.3,0.4,67.6,0.9,69c0.3,0.9,0.7,1.1,2.4,1.2C333.2,141.8,333.8,141.8,336,141.4
	L336,141.4z M438,149.4c-20.4-3.7-35.1-18.2-39.9-39.5c-0.6-2.8-0.9-5.8-1-11.7c-0.2-9.4,0.5-15.2,2.9-22.5
	c4.7-13.9,13-23.8,25.1-29.7c12.8-6.2,30.3-6.6,41.6-1c12.7,6.4,20.2,19.1,22.1,37.7c0.2,2.5,0.4,5.4,0.3,6.6l-0.1,2.1l-30.5,0.1
	L428,91.5l0.1,3.6c0.3,8.4,2.1,15.7,5.4,22.1c1.5,2.9,2.7,4.5,5.6,7.5c6.6,6.6,13.1,9.2,23.5,9.2c7.5,0,12.9-1.5,18.5-5.2
	c1.6-1,3.2-1.9,3.5-1.9c0.9,0,2.8,2.6,2.8,3.7c0,1.8-5.9,7.7-11.7,11.6c-4.7,3.2-12.2,6.1-18.7,7.2
	C452.7,150.2,442.5,150.2,438,149.4L438,149.4z M450.9,82.2l7.2-0.2l-0.2-5.1c-0.9-18-5.3-27.8-12.4-27.8c-7.7,0-13.9,10-16.5,26.6
	c-0.3,2-0.6,4.5-0.6,5.4v1.6l7.7-0.1C440.2,82.5,447,82.3,450.9,82.2L450.9,82.2z M520.4,149.8c-7.3-0.8-19-3.3-22.9-5l-1.9-0.8
	l-0.2-9.4c-0.1-5.2-0.3-12.1-0.4-15.4l-0.1-6l1.2-0.5c0.6-0.3,1.9-0.6,2.8-0.6l1.7-0.1l1.4,3.5c5.6,13.7,12.1,21,20.6,23.3
	c3.3,0.9,9.3,0.9,11.7,0c6.7-2.4,10.4-7.5,10.5-14.4c0-8.2-4.5-12.2-21.6-18.9c-10.6-4.2-14.3-6.3-18.7-10.8
	c-4.7-4.9-7-10.4-7.5-18.1c-0.5-9.3,2.4-17.2,8.9-23.9c6.5-6.7,15-10.4,26.5-11.4c10.1-0.9,25.7,1.2,33.8,4.7l1.5,0.6l0.2,8.4
	c0.2,4.6,0.3,10.8,0.3,13.8l0.1,5.4l-2,0.7c-3.2,1.2-3.4,1-5.1-3.6c-4.9-13-10.6-19.2-19.5-21.1c-5.4-1.2-10,0.1-13.3,3.6
	c-2.6,2.8-3.6,5.2-3.8,9.3c-0.2,4.5,0.5,6.8,3.3,9.8c3.3,3.7,8.8,6.8,19.7,11.4c13.4,5.6,19.7,10.3,23.2,17.3
	c2.3,4.5,2.9,8.1,2.7,15c-0.2,5.2-0.3,6.3-1.5,9.7c-3.8,11.4-12.5,18.8-26,22.4c-4.5,1.2-5.2,1.2-14.3,1.4
	C526.3,149.9,521.3,149.9,520.4,149.8z M0.5,147.3c-0.3-0.1-0.5-1.2-0.5-3.1c0-3.4-0.2-3.3,6.4-4.5c5.1-0.9,6.9-1.9,9.1-4.8
	c4.3-5.7,5.3-16.7,5.3-61.7c0-42.3-0.8-51.3-5.3-57.8c-2-2.9-5.4-4.5-11-5.2L0.2,9.7L0.1,6.3L0,2.9l1.4-0.2c0.7-0.1,27-0.2,58.2-0.1
	l56.9,0.1l0.2,1.6c0.2,0.9,0.4,10.2,0.5,20.7l0.3,19l-3,0.9c-4.4,1.4-4.4,1.4-6.4-3.9c-4.9-12.9-10.5-20.3-18.1-24.1
	c-5.3-2.6-7.7-2.9-22.6-2.9h-13l-0.2,2.1c-0.4,4-1.1,30.2-1.1,42.5v12.3l3.8,0c2.1,0,6.2-0.2,9.2-0.3c4.5-0.2,5.8-0.5,7.6-1.4
	c4.6-2.1,7.7-6.8,9.6-14.3l1-3.9l3.4-0.1l3.4-0.1v24.8v24.8l-3.4-0.1l-3.4-0.1L83.4,96c-1.8-7.3-5.2-12.6-9.5-14.5
	c-2-0.9-6.8-1.4-16.3-1.6l-4.5-0.1V89c0,10.1,0.6,23.9,1.3,31.3c1,10.4,3.6,16.1,8.4,18.2c0.9,0.4,3.8,1,6.4,1.4
	c2.6,0.4,5.1,0.9,5.4,1.1c1,0.5,1.1,5.9,0.1,6.3C74,147.6,1.3,147.6,0.5,147.3L0.5,147.3z M203.7,147.2c-0.4-0.2-0.5-1.2-0.4-3.2
	l0.1-2.8l1.4-0.3c0.8-0.2,2.5-0.5,3.8-0.7c4-0.7,6.3-2.9,7.6-7.2c1.1-3.5,1.5-14.5,1.5-36.7c0-27.2-0.5-33.6-3.3-37.2
	c-1.5-2-2.6-2.5-6.2-3.2c-1.8-0.3-3.7-0.7-4.2-0.8c-0.8-0.2-0.9-0.5-0.9-2.5c0-2,0.1-2.3,0.9-2.6c1.2-0.5,42.1-8.7,43.4-8.7h1
	l-0.2,6.1c-0.1,3.3-0.3,8.2-0.4,10.8l-0.2,4.7l1.5-2.7c4.7-8.5,10.1-13.8,17.1-17.1c3.9-1.8,6.5-2.3,11.3-2.3
	c5.7,0,11.4,1.9,11.4,3.7c0,1.2-10,27.7-10.6,27.9c-0.3,0.1-2.2-0.7-4.3-1.6c-4.4-2.1-8.6-3.2-12.6-3.1c-5,0-10.6,1.9-12.8,4.2
	c-0.9,1-0.9,1.1-1.2,16.2c-0.2,15,0.2,33.3,1.1,40.6c0.7,6.3,2.4,9.4,5.8,10.8c1.2,0.5,8.4,1.5,10.8,1.5c0.2,0,0.3,1.4,0.2,3.2
	l-0.1,3.2l-30.5,0.1C218,147.5,204,147.4,203.7,147.2L203.7,147.2z"/>
</svg>
