<?xml version="1.0" encoding="utf-8"?>
<!-- Generator: Adobe Illustrator 25.3.1, SVG Export Plug-In . SVG Version: 6.00 Build 0)  -->
<svg version="1.1" id="Layer_1" xmlns="http://www.w3.org/2000/svg" xmlns:xlink="http://www.w3.org/1999/xlink" x="0px" y="0px"
	 viewBox="0 0 645.4 150" style="enable-background:new 0 0 645.4 150;" xml:space="preserve">
<style type="text/css">
	.st0{fill:#5D6676;}
</style>
<g>
	<path class="st0" d="M525.5,147.8c-7.4-23.4-14.6-46.7-22.1-70c-0.4,23.3-0.2,46.7-0.3,70.1c-8.2,0-16.3,0-24.4,0
		c0-48.6,0-97.2,0-145.9c8.2,0,16.4,0.1,24.6,0.2c8.2,25.9,16.3,51.8,24.5,77.6c0.1,0,0.2,0,0.3,0c0-0.4,0.1-0.9,0.1-1.3
		c0.1-7.4,0.1-14.8,0.2-22.2c0-17.6,0-35.1,0-52.7c0-0.5,0-0.9,0-1.4c0.9-0.3,22.7-0.3,24.6-0.1c0,0,0.1,0,0.1,0.1c0,0,0,0.1,0,0.1
		c0,0.3,0.1,0.6,0.1,0.9c0,48.1,0,96.2,0,144.3c0,0.1-0.1,0.2-0.2,0.5C543.7,148,534.7,147.9,525.5,147.8z"/>
	<path class="st0" d="M185.7,2.1c0.3,0,0.5-0.1,0.7-0.1c10.7,0,21.5,0,32.2,0.1c2,0,4.1,0,6,0.3c8.4,1.2,15.5,5,21.1,11.4
		c4,4.6,6.6,9.9,7.8,15.9c0.4,2.2,0.5,4.4,0.5,6.6c0,9,0,18-0.2,26.9c-0.2,7.6-2.6,14.5-7.1,20.7c-1.4,2-3.1,3.8-5,5.3
		c-0.3,0.2-0.5,0.5-0.9,0.7c5.6,19.2,11.2,38.4,16.8,57.7c-8.6,0-17,0-25.6,0c-6-22.9-12.1-45.9-18.2-68.9c1-0.4,1.8-0.8,2.7-1.1
		c3.8-1.5,6.9-3.8,9.4-7c2-2.7,3.2-5.7,3.3-9c0.1-8.2,0.1-16.4,0.2-24.6c0-1.2-0.2-2.4-0.3-3.5c-0.4-3.7-3.4-5.9-6.4-6.5
		c-0.7-0.1-1.4-0.2-2.1-0.2c-2.9,0-5.8-0.1-8.7-0.1c-0.4,0-0.9,0-1.4,0c0,40.4,0,80.7,0,121c-8.3,0-16.5,0-24.8,0
		C185.7,99.3,185.7,50.8,185.7,2.1z"/>
	<path class="st0" d="M153,76c0,12.8,0,25.6,0,38.5c0,2.3-0.1,4.6-0.3,6.9c-0.3,3.3-1.5,6.3-2.9,9.2c-4.6,9.2-11.8,15.4-21.8,18.2
		c-14.2,3.9-29.1-1.6-37.4-13.9c-3-4.4-4.9-9.2-5.6-14.5c-0.1-0.8-0.1-1.6-0.1-2.4c-0.1-11.4-0.2-22.9-0.2-34.3
		c0-14.1,0-28.2,0-42.3c0-2.9,0.1-5.8,0.1-8.7c0-5.2,1.4-10.1,3.9-14.6C94,8.6,102.1,2.6,112.9,0.6c6.3-1.2,12.5-0.5,18.5,1.9
		c9.8,3.9,16.3,11,19.9,20.9c0.6,1.6,0.8,3.3,1.2,5c0.5,2.2,0.5,4.4,0.5,6.6C153,48.6,153,62.3,153,76C153,76,153,76,153,76z
		 M128.2,75c0,0,0.1,0,0.1,0c0-13.8,0-27.7,0-41.5c0-1.6-0.4-3.1-1.2-4.5c-1.9-3.4-5.5-5.3-9.5-4.8c-3.9,0.5-6.4,2.8-7.8,6.5
		c-0.5,1.3-0.5,2.7-0.5,4.1c0,19.5,0,39-0.1,58.5c0,7.3,0,14.6,0,21.8c0,1.2,0,2.4,0.3,3.6c1,3.5,3.3,5.9,6.8,6.7
		c3.5,0.9,6.7-0.1,9.2-2.7c1.6-1.7,2.7-3.8,2.5-6.3c-0.1-0.9-0.1-1.8-0.1-2.7C128.2,100.8,128.2,87.9,128.2,75z"/>
	<path class="st0" d="M422.1,2.1c8.3,0,16.5,0,24.8,0c0,0.4,0.1,0.8,0.1,1.2c0,33.8,0,67.5-0.1,101.3c0,4.1-0.1,8.2-0.1,12.3
		c0,6.4-1.9,12.2-5.5,17.4c-5.4,8-12.8,13.3-22.5,15c-11.9,2.1-22.2-1.2-30.7-9.7c-4.9-4.9-7.9-10.8-9.1-17.6
		c-0.3-1.8-0.4-3.6-0.4-5.4c-0.1-11.9-0.2-23.7-0.2-35.6c0-25.7,0-51.5,0-77.2c0-0.5,0-1,0-1.6c8.2,0,16.3,0,24.6,0c0,0.5,0,1,0,1.5
		c0,26.5,0,53,0,79.4c0,9.2,0.1,18.4,0.1,27.5c0,1.7,0,3.4,0.1,5.1c0,4.3,3,8.2,7.1,9.1c3.4,0.8,6.5,0,9.1-2.4
		c1.9-1.8,2.8-4.1,2.8-6.7c0-9.4,0.1-18.8,0.1-28.3c0-27.9,0-55.8,0-83.7C422.1,3.3,422.1,2.7,422.1,2.1z"/>
	<path class="st0" d="M645.4,26.9c-11.8,0-23.5,0-35.2,0c-0.3,0.9-0.4,31.8-0.1,33.7c2.4,0,4.9,0,7.4,0c2.5,0,5.1,0,7.6,0
		c2.5,0,5,0,7.5,0c0,8.3,0,16.5,0,24.8c-7.5,0-15,0-22.6,0c0,12.7,0,25.2,0,37.8c11.8,0,23.5,0,35.3,0c0,8.3,0,16.5,0,24.7
		c-0.9,0.2-58.3,0.3-60,0.1c-0.2-0.8-0.3-144.2-0.1-145.8c20,0,40,0,60.1,0C645.4,10.4,645.4,18.5,645.4,26.9z"/>
	<path class="st0" d="M24.9,26.9c0,11.3,0,22.4,0,33.7c7.6,0,15.1,0.1,22.8,0.1c0.1,8.2,0.1,16.3,0.2,24.6c-1.3,0.1-2.6,0-3.8,0
		c-1.3,0-2.5,0-3.8,0c-1.3,0-2.6,0-3.9,0c-1.3,0-2.5,0-3.8,0c-1.3,0-2.5,0-3.8,0c-1.3,0-2.5,0-3.9,0c0,20.9,0,41.7,0,62.6
		c-8.3,0-16.5,0-24.7,0C0,147.1-0.1,3.9,0.2,2.2c20,0,40,0,60.1,0c0,8.2,0,16.4,0,24.7c-1.3,0.1-2.6,0-3.8,0.1c-1.3,0-2.6,0-3.9,0
		s-2.6,0-3.9,0s-2.6,0-3.9,0c-1.3,0-2.6,0-3.9,0c-1.3,0-2.6,0-3.9,0c-1.3,0-2.6,0-3.9,0s-2.6,0-3.9,0C27.7,26.9,26.4,26.9,24.9,26.9
		z"/>
	<path class="st0" d="M327.8,148c-8.4,0-16.6,0-24.9,0c0-40.3,0-80.6,0-121c-7.3-0.1-14.4-0.1-21.7-0.2c-0.1-8.2-0.1-16.3-0.2-24.4
		c0.9-0.3,66.5-0.4,68.4-0.1c0.2,0.9,0.3,22.1,0.1,24.7c-1.2,0.2-2.4,0.1-3.6,0.1c-1.2,0-2.4,0-3.6,0c-1.2,0-2.5,0-3.7,0
		c-1.2,0-2.4,0-3.6,0c-1.2,0-2.5,0-3.7,0c-1.2,0-2.4,0-3.7,0C327.8,67.3,327.8,107.6,327.8,148z"/>
</g>
</svg>
