<?xml version="1.0" encoding="utf-8"?>
<!-- Generator: Adobe Illustrator 25.3.1, SVG Export Plug-In . SVG Version: 6.00 Build 0)  -->
<svg version="1.1" id="Layer_1" xmlns="http://www.w3.org/2000/svg" xmlns:xlink="http://www.w3.org/1999/xlink" x="0px" y="0px"
	 viewBox="0 0 434.6 150" style="enable-background:new 0 0 434.6 150;" xml:space="preserve">
<style type="text/css">
	.st0{fill:#5D6676;}
</style>
<g>
	<path class="st0" d="M107.9,147.2c0-10.7,0-21.3,0-32c4.8,0,9.5,0,14.4,0c0-16.2,0-32.3,0-48.5c-4.8,0-9.5,0-14.3,0
		c0-10.7,0-21.4,0-32.1c21,0,42,0,63.1,0c0,7.3,0,14.6,0,21.9c0.1,0,0.1,0.1,0.2,0.1c0.7-0.7,1.4-1.4,2.1-2.2
		c4.3-5.2,9.4-9.5,15.3-12.7c4.8-2.5,9.8-4.2,15.2-5c6.3-1.1,12.7-1.2,19.1-0.7c7.5,0.6,14.8,2.2,21.4,6.1
		c8.3,4.8,13.3,12,15.1,21.3c0.6,3,0.9,6.1,0.9,9.2c0.1,13.8,0,27.5,0,41.3c0,0.4,0,0.8,0,1.2c4.3,0,8.5,0,12.8,0
		c-0.2-0.4-0.3-0.7-0.4-1.1c-3-7.7-4.2-15.6-3.9-23.9c0.3-6.9,1.6-13.6,4.4-19.9c4.4-9.9,11.4-17.4,20.5-23.1
		c7.1-4.5,14.9-7.4,23.1-9.3c7.2-1.7,14.4-2.4,21.8-2.5c5-0.1,9.9,0.1,14.8,0.8c8.8,1.3,17.2,3.8,24.9,8.5
		c10.1,6.1,16.9,14.9,20.4,26.2c1.1,3.7,1.8,7.4,2.3,11.3c-14.4,1.6-28.8,3.2-43.2,4.7c-0.1-1.7-0.3-3.4-0.4-5
		c-0.4-4-1.2-7.9-3-11.6c-2.3-4.4-5.8-7-10.7-7.8c-4-0.6-8-0.3-11.8,1.1c-4.7,1.7-7.6,5.2-9.3,9.8c-1.6,4.1-2.1,8.5-2.3,12.8
		c-0.1,4.3-0.1,8.7,0,13c0.2,4.8,0.8,9.6,2.8,14.1c2.5,5.7,7,8.8,13.1,9.7c3.6,0.5,7.3,0.4,10.8-0.7c6.9-2.2,11-7.5,11.5-14.7
		c0-0.5,0.1-1,0.1-1.6c14.3,0,28.6,0,43.1,0c-0.1,1.4-0.2,2.7-0.4,4c-1.5,7.4-4.3,14.2-8.9,20.2c-5.8,7.5-13.4,12.3-22.2,15.5
		c-7.1,2.5-14.4,3.7-21.9,4.2c-6.8,0.5-13.6,0.4-20.4-0.4c-12.4-1.4-24.2-4.8-34.8-11.6c-8.3-5.3-14.9-12.3-19.2-21.3
		c-0.1-0.1-0.1-0.3-0.3-0.6c0,10.6,0,21,0,31.4c-26.2,0-52.2,0-78.4,0c0-10.7,0-21.3,0-32.1c4.9,0,9.9,0,14.9,0c0-0.4,0-0.7,0-0.9
		c0-11.1,0-22.1,0-33.2c0-2.5-0.5-4.9-1.8-7.1c-1.9-3.4-4.8-5.3-8.5-6.3c-5.5-1.5-10.9-1.1-16.1,1.5c-5.9,3-9.3,7.9-10.5,14.3
		c-0.2,1.2-0.3,2.4-0.4,3.6c0,9.1,0,18.2,0,27.3c0,0.2,0,0.4,0,0.7c5.1,0,10.1,0,15.2,0c0,10.7,0,21.4,0,32.1
		C161.3,147.2,134.6,147.2,107.9,147.2z"/>
	<path class="st0" d="M102.5,34.5c-6.4,0-12.8,0-19.2,0c0,26.9,0,53.7,0,80.6c6.4,0,12.7,0,19.2,0c0,10.7,0,21.4,0,32.1
		c-34.1,0-68.3,0-102.5,0c0-10.6,0-21.3,0-32.1c6.4,0,12.8,0,19.2,0c0-26.9,0-53.7,0-80.6c-6.4,0-12.8,0-19.2,0C0,23,0,11.5,0,0
		c34.1,0,68.3,0,102.5,0C102.5,11.4,102.5,22.9,102.5,34.5z"/>
	<path class="st0" d="M398.1,129.5c0-10.1,8.2-18.3,18.3-18.3c10.1,0,18.2,8.2,18.2,18.3c0,10-8.2,18.2-18.3,18.2
		C406.3,147.7,398.1,139.5,398.1,129.5z"/>
</g>
</svg>
