<?xml version="1.0" encoding="utf-8"?>
<!-- Generator: Adobe Illustrator 25.3.1, SVG Export Plug-In . SVG Version: 6.00 Build 0)  -->
<svg version="1.1" id="Layer_1" xmlns="http://www.w3.org/2000/svg" xmlns:xlink="http://www.w3.org/1999/xlink" x="0px" y="0px"
	 viewBox="0 0 833.1 150" style="enable-background:new 0 0 833.1 150;" xml:space="preserve">
<style type="text/css">
	.st0{fill:#5D6676;}
</style>
<g>
	<path class="st0" d="M0,68.6c0.8-3.9,1.4-7.7,2.3-11.6C9.5,26.7,36.4,3.6,67.4,0.4c39.2-4,74,22.2,81.6,58.7
		c9.3,44.3-21,83.4-61.4,89.7c-2,0.3-3.9,0.7-5.9,1.1c-4.3,0-8.5,0-12.8,0c-0.6-0.2-1.2-0.5-1.8-0.6C35.5,146,9.6,123.2,2.2,92.3
		C1.3,88.7,0.7,85,0,81.3C0,77.1,0,72.8,0,68.6z M35.6,64.8c3.9,0,7.8,0,11.6,0c-2.6,1.7-6.9-1.1-8.6,4c3.7-0.4,6.8-0.8,9.9-1.2
		c-1.5,0.6-3,1.1-4.5,1.4c-2.3,0.3-2.5,1.6-1.8,3.7c3.1-0.8,6.2-1.6,9.3-2.4c-1.8,2.6-7.1,0.8-7.1,6.3c3.6-1.4,6.8-2.7,9.9-4
		c-1.4,1.3-3,2.2-4.7,3c-1.9,0.9-3.1,1.9-1.5,4.1c2.7-1.3,5.3-2.6,8.2-4C55,78.6,49.9,78,51,82.8c2.9-1.6,5.4-2.9,7.9-4.2
		c-0.9,1.3-2,2.1-3.2,2.8c-1.9,1.1-1.2,2.2-0.1,3.6c2.5-1.4,4.8-2.8,7.1-4.1c-3.6,3.4-3.6,3.4-1.8,5.5c1-0.5,2-1.1,3.1-1.7
		c1.4,4.9,4.1,0.4,6.7,1.3c-4.5,1.7-8.4,3.5-12.5,4.7c-5.4,1.5-9.2,4.5-11.7,9.5c-1.6,3.2-3.8,6.1-5.8,9.2c0.2,0.2,0.4,0.3,0.7,0.5
		c2.9-3.3,5.8-6.5,8.7-9.8c0.1,0.1,0.2,0.2,0.3,0.3c-1.3,2-2.6,4.1-4.1,6.3c5.4,0.7,5.8-4.3,8.8-6.8c-1.1,2.3-1.9,4-2.8,5.8
		c0.2,0.3,0.4,0.6,0.6,0.8c1.3-0.8,2.9-1.3,3.9-2.3c1.1-1.2,1.6-2.9,2.4-4.4c0.1,0,0.2,0.1,0.3,0.1c-0.6,1.8-1.1,3.6-1.7,5.4
		c4.6,1.7,4.4-2.1,5.7-5c-0.1,1.4-0.1,2-0.2,2.6c-0.1,0.7-0.2,1.4-0.3,2.1c4.1,0,4.1,0,4.7-5.2c0.1,1.6,0.3,2.8,0.4,4.6
		c1.5-1.2,2.6-2,3.6-2.8c-0.4,0.4-0.8,0.7-1.3,1.1c1.8,1.7,3.6,3.4,5,4.8c-4.4,1.3-10.1,3-16.4,4.9c3.8,2.2,6.8,3.9,9.8,5.7
		c-1.2-0.1-2.2-0.3-3.1-0.9c-2.4-1.6-4.8-1.1-7.1,0c-0.8,0.4-1.8,1.3-1.8,2c0,0.7,0.9,1.8,1.7,2.1c2.4,1.1,4.9,2.2,7.5,2.7
		c2,0.4,4.4,0.6,6.1-0.2c5.2-2.4,10.1-5.4,15.1-8.1c0.2-0.1,0.5-0.2,0.8-0.4c-0.2,0.5-0.3,0.9-0.6,1.9c5.1-2.3,9.8-4.5,14.2-6.5
		c0.6,0.3,1,0.8,1.4,0.7c5-0.4,10-0.7,14.9-1.3c2.6-0.3,4-3.2,2.3-4.6c-3-2.4-6.3-5.1-9.9-5.7c-3.6-0.6-7.6,1.2-11.3,2.2
		c-1.8,0.5-3.2,1.2-5.1-0.2c-2.5-1.9-3.2-4-2.7-6.9c0.2-0.9,0-1.9,0-3c-0.8,0.3-1.2,0.5-2.3,0.9c3.5-4.1,6.6-7.6,9.6-11.3
		c0.4-0.5,0.3-1.4,0.6-2.5c1.8,0.2,4.1,0.5,6.5,0.8c-0.2-1-0.3-1.8-0.5-2.6c0.2-0.1,0.5-0.2,0.7-0.3c0.6,1,1.3,1.9,1.9,2.9
		c2.3-1.5,2.6-2.8,1-4.9c-0.7-0.9-1.3-2-2-2.9c-1-1.2-2-2.9-3.3-3.3c-4.1-1.3-8.3-2.2-12.5-3.2c-0.1,0.2-0.1,0.5-0.2,0.7
		c2.4-0.4,4.9-0.4,7-1.2c3.6-1.4,7-3.6,10.6-5.1c2-0.9,3.3-2,4-4.1c2.3-7,4.8-13.9,9.9-19.6c2.2-2.5,4.1-5.4,6.1-8.1
		c-0.1-0.2-0.3-0.3-0.4-0.5c-2.1,1.4-4.1,2.9-6.7,4.7c0.5-1.5,0.8-2.4,1.1-3.2c-0.2-0.1-0.3-0.1-0.5-0.2c-0.8,1-1.7,2.1-2.9,3.6
		c0-1.9,0-3.2,0-4.6c-0.1,0-0.3,0-0.4-0.1c-0.5,1.5-0.9,2.9-1.5,4.8c-0.9-1.9-1.5-3.4-2.2-4.8c-0.2,1.6,0.2,3,0.5,4.4
		c0.3,1.3,0.4,2.7,0.7,4.7c-1.8-3.1-3.1-5.4-4.4-7.7c-0.1,0.1-0.2,0.1-0.3,0.2c1,3.1,2,6.2,3,9.3c-1.6-2.5-3.2-4.8-4.7-7.1
		c-0.3,0.2-0.6,0.3-0.9,0.5c3.1,3.4,4,7.3,3.1,11.8c0.4-5.1-1.8-8.7-6.2-11.2c3.3,3.5,5,7.6,4.2,12.4c-1.6-6.9-3.2-9.2-7.7-11.1
		c4.3,3.3,6.2,7.5,5.3,13c-0.3-5.2-2.4-9-7.8-10.3c1.5,1.7,3.6,2.9,4.6,4.7c1,1.9,0.9,4.4,1.3,6.7c-3.3-7.4-3.3-7.4-7.2-8.3
		c4.7,2.2,4.1,6.6,4.8,10.5c-0.9-1.9-1.2-4.2-2.4-5.8c-1.1-1.4-3.3-2.1-5-3.1c-0.2,0.3-0.5,0.5-0.7,0.8c5.5,1.4,4.8,6.2,5.8,10
		c-1.9-3.7-2.5-8.8-8.9-7.2c5.9,0.3,5.3,5.3,6.6,8.8c-1.1-1.5-2-3.1-2.9-4.6c-1.1-1.7-2.2-1.9-5.1-0.9c4.1,0.6,4,4.1,5.4,6.6
		c-5.1-4.8-5.1-4.8-6.8-3.9c1.5,1.7,3.2,3.5,4.9,5.4c-0.2,0.2-0.3,0.4-0.5,0.6c-2.4-2.8-5.1-4.3-8.6-2.1c4.7,0.8,4.7,0.8,6.2,3.1
		c-2.1-0.3-4.7-0.6-7.3-1c0,0.3-0.1,0.7-0.1,1c1.1,0.2,2.2,0.2,3.2,0.5c1,0.3,1.9,1,2.3,1.2c-2.9,0.2-6,0.5-9.2,0.7
		c0,0.2,0,0.3,0.1,0.5c2.8,0.3,5.6,0.6,9,1c-5.2,0.7-9.7,1.2-14.2,1.8c0,0.2,0,0.4,0,0.7c2.2,0.3,4.4,0.5,7.1,0.8
		c-2,0.4-3.5,0.8-5.4,1.2c1.1,0.4,1.7,0.7,2.2,0.9c-1.4,0.8-2.7,1.5-4.5,2.5c-4.1-2.7-6.9-7.7-9.9-12.3C59.4,49.6,53.6,43.6,45,40.6
		c-0.2-0.1-0.3-0.2-0.5-0.3c-5.8-4.6-12.6-8.3-14.6-16.2c-0.1-0.4-0.5-0.7-0.9-1.3c-0.8,6.2,1.8,11,5.1,15.5
		c-4.6-2.7-8.3-6.3-10.1-11.6c-0.4,0.2-0.7,0.4-1.1,0.6c1.4,4.3,2.8,8.6,4.3,13.3c-2.8-2.8-5.4-5.4-8.1-8c-0.2,0.1-0.4,0.2-0.6,0.3
		c1.4,3.3,2.9,6.6,4.6,10.6c-2.9-2.1-5.2-3.7-7.5-5.4c-0.1,0.1-0.3,0.1-0.4,0.2c1.2,2.3,2.4,4.5,3.5,6.8c-0.5,0.1-1.1,0.2-2.4,0.5
		c2.1,1.9,3.7,3.4,5.5,5c-1.4,0.1-2.6,0.2-4.6,0.3c2.7,1.7,4.7,3,7,4.4c-0.9,0.3-1.6,0.5-2.7,0.9c2.8,1.1,5.1,2,7.7,3.1
		c-0.8,0.5-1.4,0.9-2.6,1.6c6.2,0.5,11.6,0.9,17,1.3c-1.7,0.2-3.3,0.1-5,0.2C37.3,62.6,35,61.6,35.6,64.8z"/>
	<path class="st0" d="M570.9,106.2c-14.2-16.6-28.4-33.3-43.1-50.5c0,1.8,0,2.9,0,4.1c0.1,10.1,0.2,20.1,0.5,30.2
		c0,1.9,0.5,3.8,1,5.7c0.9,3.7,3.3,6.1,7.1,7c1,0.3,2,0.7,2.8,1.7c-8,0-16,0-24.6,0c0.8-0.6,1.2-1.2,1.6-1.2
		c6.9-1.2,9.5-6.1,9.7-12.3c0.4-11.9,0.2-23.8,0.2-35.7c0-0.8-0.6-1.7-1.2-2.3c-3.2-3.8-7-6.7-12.1-7.7c0-0.2,0-0.5,0.1-0.7
		c0.6-0.2,1.2-0.5,1.8-0.5c6.1,0,12.2-0.1,18.3,0c0.8,0,1.8,0.5,2.3,1.1c8.1,9.8,16.1,19.7,24.2,29.6c3.4,4.2,7,8.3,11,13
		c0-6.2,0-11.8,0-17.3c0-4.7,0-9.4-0.4-14.1c-0.6-7.6-2.3-9.4-9.8-10.7c-0.4-0.1-0.8-0.2-2-0.5c1.1-0.5,1.5-1,2-1
		c19.9,0.1,39.8-0.3,59.7,0.6c13.9,0.6,24.5,10.4,27.1,23c3.7,17.8-7.4,33.8-25.5,36.6c-2.6,0.4-5.3,0.6-8,0.6
		c-9.2,0.1-18.3,0-27.5,0c-1,0-1.9-0.1-2.9-0.1c-0.1-0.3-0.1-0.5-0.2-0.8c0.9-0.3,1.8-0.6,2.8-0.8c4.2-0.9,6.3-3,6.3-6.9
		c0.1-13.7,0.2-27.3-0.1-41c-0.1-7.1-5.2-10.8-12.2-9.6c-4.8,0.8-7.7,4.2-7.8,9.6c-0.2,12.1-0.1,24.2-0.1,36.3c0,4.8,0,9.5,0,14.3
		C571.7,105.8,571.3,106,570.9,106.2z M603.5,45c-0.1,1.1-0.1,1.6-0.2,2c0,16.2,0,32.5,0,48.7c0,1.1,0.2,2.2,0.5,3.3
		c0.6,2.3,2,3.7,4.4,4c9.6,1.1,19.6-2,24-11.9c4.9-11.1,4.9-22.4-0.1-33.5c-2.9-6.4-8.1-10.4-15-11.6
		C612.8,45.2,608.2,45.3,603.5,45z"/>
	<path class="st0" d="M266.1,106.2C251.9,89.6,237.7,73,223.2,56c-0.2,1-0.4,1.5-0.3,2.1c0.1,10.4,0.3,20.8,0.5,31.3c0,2,0.5,4,1,6
		c0.9,3.9,3.4,6.4,7.4,7.4c1,0.2,1.9,0.7,2.8,1c-0.1,0.2-0.1,0.5-0.2,0.7c-8,0-16,0-24.8,0c0.9-0.7,1.3-1.1,1.8-1.3
		c7.2-2.4,9.6-5.2,9.8-12.8c0.3-9.4,0.1-18.8,0.2-28.2c0-0.4,0-0.7,0-1.1c-0.2-3.4,1.2-7.3-2.7-9.8c-2.9-1.9-5.8-3.7-8.8-5.6
		c-0.5-0.3-1.1-0.5-1.6-1.3c0.6-0.1,1.2-0.4,1.8-0.4c6,0,12-0.1,18,0c0.8,0,1.8,0.5,2.3,1c9.3,11.2,18.5,22.5,27.8,33.8
		c2.2,2.7,4.5,5.3,7.1,8.3c0.2-0.8,0.4-1.3,0.4-1.8c-0.1-9.4,0-18.8-0.2-28.2c-0.2-7.8-2.6-11-10.2-11.8c-0.2,0-0.5-0.2-0.8-1
		c0.9-0.2,1.8-0.4,2.8-0.5c17.6,0,35.2-0.1,52.8,0c3.3,0,6.7,0.5,9.9,1.3c15.3,3.8,24,15.4,23.3,31c-0.7,14.2-11.3,25.7-26.2,27.9
		c-3.4,0.5-6.8,0.6-10.2,0.6c-8.4,0.1-16.8,0-25.3,0c-1,0-1.9-0.1-2.9-0.1c0-0.2-0.1-0.5-0.1-0.7c0.6-0.3,1.1-0.6,1.7-0.7
		c6.1-1.4,7.5-3,7.6-9.2c0-8.1,0-16.2,0-24.4c0-5,0-10-0.3-14.9c-0.4-5.8-3.7-9-9.1-9.2c-6.2-0.3-9.7,2.4-10.7,8.4
		c-0.2,1.4-0.3,2.8-0.3,4.1c0,14.9,0,29.9,0,44.8c0,1,0,2,0,3C266.8,105.8,266.4,106,266.1,106.2z M298.5,44.9
		c-0.1,1.3-0.1,1.8-0.1,2.4c0,15.7,0,31.3,0,47c0,1.3,0.2,2.6,0.4,3.8c0.5,3.1,1.9,4.7,5.1,4.9c10.5,1,20.2-2.7,24.5-13.9
		c3.2-8.3,3.4-16.9,1.3-25.5c-2.2-8.9-7.3-15.4-16.5-17.5C308.4,45.1,303.6,45.3,298.5,44.9z"/>
	<path class="st0" d="M708.5,103.8c0.4-0.3,0.9-0.6,1.3-0.8c6.9-2.2,9.1-4.8,9.6-12.1c0.3-5,0.3-10,0.3-14.9
		c0-6.6,0.1-13.1-0.1-19.7c0-1.4-0.7-3-1.6-4.1c-2.8-3.3-6.1-5.9-10.5-6.9c-0.4-0.1-0.7-0.4-1-1.3c0.7-0.1,1.4-0.3,2.2-0.3
		c5.8,0,11.7-0.1,17.5,0c0.9,0,2,0.4,2.5,1.1c7.6,9.2,15,18.5,22.6,27.7c3.9,4.8,8,9.4,12.6,13.9c0-2.5,0-5,0-7.6
		c-0.1-7.7,0.1-15.5-0.5-23.2c-0.6-7.2-2.8-9.1-9.9-10.4c-0.3,0-0.5-0.2-0.7-0.3c1.1-1.5,21.6-1.7,24.1-0.1
		c-0.9,0.3-1.5,0.5-2.2,0.6c-5.4,1.1-7.9,3.5-8.7,8.9c-0.3,2.2-0.5,4.4-0.5,6.6c0,13.8,0,27.7,0,41.5c0,1,0,2,0,3
		c-0.2,0.2-0.4,0.3-0.7,0.5c-0.9-0.8-1.8-1.4-2.5-2.3c-13-15.2-26-30.5-39-45.8c-0.5-0.6-1-1.1-2.1-2.3c0,2.8,0,4.7,0,6.7
		c0.1,8,0.2,16.1,0.3,24.1c0,2.3,0.2,4.6,0.6,6.9c0.7,5,3.3,8.5,8.6,9.6c0.7,0.1,1.4,0.5,2,0.8c-0.1,0.2-0.1,0.5-0.2,0.7
		c-8,0-16,0-24,0C708.6,104.2,708.5,104,708.5,103.8z"/>
	<path class="st0" d="M395.6,62.6c-1-1.2-1.5-1.7-1.8-2.3c-0.9-1.5-1.8-3-2.6-4.6c-2.9-6.3-7.8-9.7-14.7-10.1c-3.9-0.2-7.9,0-12,0
		c0,8.9,0,17.8,0,26.9c4.6,0,9.2,0.7,13.3-1.6c4.2-2.3,4.4-7.4,6.2-11.2c0.2,0.1,0.5,0.1,0.7,0.2c0,9,0,17.9,0,27.4
		c-0.6-0.8-1.1-1.1-1.3-1.6c-0.3-0.7-0.5-1.6-0.8-2.4c-2.4-7.2-4.7-8.9-12.3-9.1c-1.9,0-3.8,0-5.9,0c0,7.8-0.2,15.5,0.1,23.1
		c0.1,3.7,2.3,5.6,6.1,5.9c10,0.9,18.6-1.4,23.3-11.4c0.6-1.3,1.5-2.6,2.3-3.8c0.3-0.5,0.9-0.8,1.8-1.6c0,6.4,0,12.2,0,18.1
		c-18,0-35.9,0-53.9,0c-0.1-0.2-0.1-0.4-0.2-0.6c0.8-0.3,1.7-0.6,2.5-0.8c4.8-0.9,6.8-3.2,6.8-8.2c0-13.7,0-27.3,0-41
		c0-5-1.6-6.9-6.6-8c-0.9-0.2-1.8-0.5-2.8-0.7c0-0.3,0.1-0.5,0.1-0.8c17.1,0,34.3,0,51.5,0C395.6,49.9,395.6,55.8,395.6,62.6z"/>
	<path class="st0" d="M703,87.1c0,5.7,0,11.4,0,17.3c-18.1,0-36,0-54,0c-0.1-0.2-0.1-0.4-0.2-0.6c0.8-0.3,1.6-0.6,2.5-0.8
		c4.9-0.9,6.9-3.2,6.9-8.1c0-13.6,0-27.1,0-40.7c0-5.4-1.4-7.2-6.8-8.4c-0.9-0.2-1.8-0.5-2.6-0.8c0-0.3,0.1-0.5,0.1-0.8
		c17.1,0,34.1,0,51.5,0c0,5.7,0,11.6,0,18.1c-0.8-0.9-1.3-1.3-1.6-1.8c-0.8-1.3-1.6-2.5-2.1-3.9c-3.6-8.4-10.4-11.5-19.1-11.4
		c-2.7,0-5.3,0-8.1,0c0,9.1,0,17.9,0,27.2c4.5,0,9.1,0.7,13.2-1.5c4.4-2.3,4.5-7.5,6.4-11.4c0.2,0.1,0.4,0.1,0.7,0.2
		c0,9,0,17.9,0,26.9c-2.8-3.4-2.5-9.1-7-10.9c-4-1.5-8.6-1.6-13.1-2.3c-0.2,1.4-0.3,2.1-0.3,2.8c0,6.5-0.1,12.9,0,19.4
		c0.1,5.2,2.3,7.4,7.5,7.5c2.7,0,5.4,0,8-0.4c5-0.7,9-3.2,11.8-7.5c1.4-2.2,2.7-4.6,4.2-6.9c0.4-0.7,1.1-1.2,1.6-1.8
		C702.6,86.8,702.8,87,703,87.1z"/>
	<path class="st0" d="M455.6,44.1c17.1,0,34.2,0,51.4,0c0,5.7,0,11.6,0,17.9c-0.7-0.6-1.3-0.9-1.6-1.3c-1.1-1.8-2.2-3.6-3.1-5.5
		c-2.8-5.8-7.5-9.1-13.9-9.5c-4.1-0.3-8.3,0-12.6,0c0,8.8,0,17.7,0,27.1c3.9-0.3,7.6-0.3,11.2-1c4.1-0.7,5.6-4.2,6.8-7.6
		c0.5-1.5,1.1-3.1,1.6-4.6c0.3,0.1,0.6,0.2,0.9,0.3c0,8.9,0,17.9,0,27.7c-0.8-1.1-1.3-1.5-1.5-2.1c-3-9.4-4.5-11.3-16.1-11.2
		c-0.9,0-1.8,0-2.7,0c0,8.1-0.2,16,0.1,23.9c0.1,2.8,2.2,4.7,5.1,4.9c12.9,1.1,18.8-1.6,23.7-10.6c1.1-2,2.3-3.9,3.5-5.8
		c0.3,0.1,0.5,0.2,0.8,0.3c0,5.8,0,11.5,0,17.4c-17.8,0-35.7,0-53.6,0c0-0.3-0.1-0.5-0.1-0.8c0.8-0.2,1.6-0.5,2.4-0.6
		c4.8-0.9,6.9-3,6.9-7.8c0.1-14,0.1-28,0-42.1c0-4.1-1.7-6.1-5.6-7.1c-1.2-0.3-2.4-0.6-3.6-0.8C455.5,44.8,455.6,44.5,455.6,44.1z"
		/>
	<path class="st0" d="M434.8,104.4c-10.1,0-20.2,0-30.2,0c-0.1-0.2-0.2-0.4-0.2-0.6c0.7-0.3,1.4-0.7,2.1-0.9c5.5-1.3,7-3.2,7-8.9
		c0-12.9,0-25.8,0-38.7c0-6.8-1-8.1-7.5-9.8c-0.6-0.1-1.1-0.4-2-0.8c0.7-0.4,1.1-0.8,1.4-0.8c10.3,0.1,20.5,0.1,30.8,0.5
		c4.4,0.2,8.4,2.1,11.9,4.9c8.5,7,8.2,19.7-0.5,26.4c-5.1,3.9-14.1,6-21.5,4.6c1-0.6,1.5-1.1,1.9-1.1c6.5-0.4,11.2-3.3,13.2-9.6
		c2.2-7,2-13.9-3-19.9c-3.4-4-8.1-4.8-13.6-4.3c0,1,0,2,0,3c0,14.7,0,29.3,0,44c0,1,0,2,0.1,3c0.4,4.4,1.6,5.8,5.8,6.9
		c1.5,0.4,3.1,0.8,4.6,1.2C434.9,103.9,434.9,104.1,434.8,104.4z"/>
	<path class="st0" d="M800.4,45.5c-8.3-0.9-12.6,1.4-15.9,8.7c-1.2,2.6-2.2,5.3-3.3,7.9c-0.3,0.8-0.8,1.5-1.1,2.3
		c-0.2-0.1-0.5-0.1-0.7-0.2c0-6.7,0-13.3,0-20.2c17.8,0,35.7,0,53.7,0c0,6.8,0,13.5,0,20.1c-0.2,0.1-0.4,0.2-0.6,0.3
		c-0.4-0.7-1-1.3-1.3-2c-1.1-2.6-2.1-5.3-3.3-7.9c-3.4-7.5-7.6-9.8-16.3-8.9c0,1,0,2.1,0,3.2c0,15,0,30.1,0,45.1
		c0,6.2,1.4,7.9,7.5,9.2c0.6,0.1,1.2,0.5,1.6,1.4c-9.7,0-19.4,0-29,0c-0.1-0.2-0.1-0.4-0.2-0.7c0.9-0.3,1.8-0.6,2.8-0.8
		c4.2-0.9,6.3-3.1,6.3-7.2c0.1-16.5,0-33,0-49.5C800.6,46,800.5,45.8,800.4,45.5z"/>
	<path class="st0" d="M207.3,45c-0.8,0.3-1.6,0.5-2.5,0.7c-5.1,1.2-6.7,3.2-6.7,8.3c0,13.6,0,27.1,0,40.7c0,4.9,1.7,7,6.5,8.1
		c0.9,0.2,1.7,0.5,2.6,0.8c0,0.2-0.1,0.5-0.1,0.7c-9.7,0-19.5,0-29.2,0c-0.1-0.2-0.1-0.4-0.2-0.6c0.7-0.3,1.3-0.6,2-0.8
		c6-1.4,7.4-3.2,7.4-9.4c0-12.7,0-25.5,0-38.2c0-6.6-1.2-8.2-7.6-9.9c-0.6-0.2-1.2-0.4-1.8-0.7c0-0.2,0.1-0.5,0.1-0.7
		c9.8,0,19.5,0,29.3,0C207.2,44.4,207.3,44.7,207.3,45z"/>
	<path class="st0" d="M79.6,97.8c2.9,2,5.8,4.1,8.7,6.2c-0.5,0.2-1.1,0.5-1.9,0.8c0.2,0.5,0.5,1.1,0.7,1.8c-0.9-0.6-1.7-1.1-2.5-1.7
		c-0.1,0.1-0.3,0.3-0.4,0.4c0.2,0.6,0.4,1.2,0.7,1.8C81.1,104.9,79.5,101.6,79.6,97.8z"/>
	<path class="st0" d="M36.7,52.5c-4.6-1.4-10.4-0.6-12.9-5.3C27.7,48.7,32.3,50.6,36.7,52.5z"/>
	<path class="st0" d="M45.5,44.9c-3.2-1.2-7.8-2-8.9-6.5C39.5,40.4,42.9,42.9,45.5,44.9z"/>
	<path class="st0" d="M38.2,49.3c-4.2-1.4-9-1-11.1-5.4C30.5,45.6,34.2,47.4,38.2,49.3z"/>
	<path class="st0" d="M37.8,55.9c-4.6-0.8-9.2-1.7-13.7-2.5c0.1-0.3,0.1-0.5,0.2-0.8c4.6,0.9,9.2,1.9,13.7,2.8
		C37.9,55.6,37.9,55.8,37.8,55.9z"/>
	<path class="st0" d="M30.9,40.2c2.7,1.8,6,4,8.8,5.9C36.1,45.4,32.2,44.1,30.9,40.2z"/>
	<path class="st0" d="M31.3,57.5c2.9,0.4,5.8,0.9,8.7,1.3c0,0.2,0,0.3-0.1,0.5c-2.9-0.4-5.8-0.7-8.7-1.1
		C31.3,58,31.3,57.7,31.3,57.5z"/>
</g>
</svg>
