<?xml version="1.0" encoding="utf-8"?>
<!-- Generator: Adobe Illustrator 25.3.1, SVG Export Plug-In . SVG Version: 6.00 Build 0)  -->
<svg version="1.1" id="Layer_1" xmlns="http://www.w3.org/2000/svg" xmlns:xlink="http://www.w3.org/1999/xlink" x="0px" y="0px"
	 viewBox="0 0 673.4 150" style="enable-background:new 0 0 673.4 150;" xml:space="preserve">
<style type="text/css">
	.st0{fill:#5D6676;}
</style>
<g>
	<rect x="359.5" y="4.3" class="st0" width="12.9" height="142"/>
	<polygon class="st0" points="537.3,4.3 578.6,4.3 578.6,16.1 564.1,16.1 564.1,146.2 551.2,146.2 551.2,16.1 537.3,16.1 	"/>
	<polygon class="st0" points="347.7,4.3 347.7,146.2 334.3,146.2 315,60 315,146.2 302.1,146.2 302.1,4.3 313.9,4.3 334.8,98 
		334.8,4.3 	"/>
	<polygon class="st0" points="67,4.3 67,146.2 54.1,146.2 54.1,24.6 38.6,146.2 28.4,146.2 12.9,24.6 12.9,146.2 0,146.2 0,4.3 
		21.4,4.3 33.7,90 45.5,4.3 	"/>
	<path class="st0" d="M223.9,146.2c26.8-36.4,18.8-87.9-17.7-114.6S118.4,12.9,91.6,49.3c-21.4,28.9-21.4,68.6,0,97.5h17.1
		C82,119.5,82,76.1,109.3,49.3s70.7-26.8,97.5,0.5c26.8,26.8,26.8,70.2,0,97.5h17.1V146.2z"/>
	<path class="st0" d="M625.2,146.2h-12.9l-3.2-32.1h-18.8l-3.2,32.1h-12.9l14.5-142h19.8L625.2,146.2z M608,101.2L599.5,23l-8,78.2
		H608L608,101.2z"/>
	<path class="st0" d="M470.9,128c1.1,4.3-2.1,8.6-6.4,9.6c-4.3,1.1-8.6-2.1-9.6-6.4c0-1.1,0-2.1,0-3.2V20.9
		c-1.1-4.3,2.1-8.6,6.4-9.6c4.3-1.1,8.6,2.1,9.6,6.4c0,1.1,0,2.1,0,3.2v5.4V53h12.9V32.7v-6.4c0-17.7-7-26.2-21.4-26.2
		c-12.9,0-21.4,9.1-21.4,23v5.4v88.9v5.9c0,18.2,7,26.8,21.4,26.8c14.5,0,20.9-8.6,20.9-27.3V71.2h-23v12.3h10.7v40.2V128z"/>
	<path class="st0" d="M523.9,124.8v-37l-29.5-22V24.6C494.5,8.6,502,0,515.9,0c14.5,0,20.9,8,21.4,26.2v5.9V53h-13.4V25.2v-4.3
		c1.1-4.3-2.1-8.6-6.4-9.6c-4.3-1.1-8.6,2.1-9.6,6.4c0,1.1,0,2.1,0,3.2v38.6l29.5,22v42.9c0,16.6-7.5,25.7-21.4,25.7
		c-13.9,0-21.4-8.6-21.4-24.6V120V92.1h13.4V128c-1.1,4.3,2.1,8.6,6.4,9.6c4.3,1.1,8.6-2.1,9.6-6.4c0-1.1,0-2.1,0-3.2V124.8z"/>
	<path class="st0" d="M294.1,146.2h-12.9c-1.6-4.8-2.7-10.2-2.7-15v-7.5V120V92.1c0.5-4.3-2.1-8-6.4-8.6c-0.5,0-0.5,0-1.1,0H262
		v62.1h-12.9V4.3h16.6c18.8,0,25.7,7,25.7,25.2v26.8c0,11.8-2.1,17.1-11.2,20.4c0,0,0,0,0.5,0c8.6,2.7,10.7,5.9,10.7,17.1v5.4v25.7
		C290.9,131.8,292,139.3,294.1,146.2z M262,15.5v56.2h4.3c5.9,1.1,11.2-2.7,12.3-8.6c0-1.1,0-2.1,0-3.2V31.1
		c0-11.8-2.7-15.5-11.2-15.5H262L262,15.5z"/>
	<path class="st0" d="M673.4,146.2h-12.9c-1.6-4.8-2.7-10.2-2.7-15v-7.5V120V92.1c0.5-4.3-2.1-8-6.4-8.6c-0.5,0-0.5,0-1.1,0h-9.1
		v62.1h-12.9V4.3H645c18.8,0,25.7,7,25.7,25.2v26.8c0,11.8-2.1,17.1-11.2,20.4c0,0,0,0,0.5,0c8.6,2.7,10.7,5.9,10.7,17.1v5.4v25.7
		C670.2,131.8,671.2,139.3,673.4,146.2z M641.2,15.5v56.2h4.3c5.9,1.1,11.2-2.7,12.3-8.6c0-1.1,0-2.1,0-3.2V31.1
		c0-11.8-2.7-15.5-11.2-15.5H641.2L641.2,15.5z"/>
	<polygon class="st0" points="429.6,4.3 429.6,146.2 415.7,146.2 396.4,60 396.4,146.2 384.1,146.2 384.1,4.3 395.4,4.3 416.8,98 
		416.8,4.3 	"/>
</g>
</svg>
