<?xml version="1.0" encoding="utf-8"?>
<!-- Generator: Adobe Illustrator 25.3.1, SVG Export Plug-In . SVG Version: 6.00 Build 0)  -->
<svg version="1.1" id="Layer_1" xmlns="http://www.w3.org/2000/svg" xmlns:xlink="http://www.w3.org/1999/xlink" x="0px" y="0px"
	 viewBox="0 0 1068.3 150" style="enable-background:new 0 0 1068.3 150;" xml:space="preserve">
<style type="text/css">
	.st0{fill:#5D6676;}
</style>
<g>
	<path class="st0" d="M149.3,49.6c-4.9,0-9.4,0-13.8,0c-10.5,0-20.9,0.2-31.4-0.1c-3.8-0.1-4.7,1.2-4.7,4.8
		c0.1,28.9,0.1,57.8,0.1,86.7c0,9.1,0,9.1-9,9.1c-11.7,0-23.4,0-35.2,0c-1.6,0-3.3-0.2-5.4-0.3c0-1.9,0-3.6,0-5.2
		c0-29.9-0.1-59.7,0.1-89.6c0-4.1-0.9-5.6-5.3-5.5c-13.3,0.3-26.5,0.1-39.8,0.1c-1.5,0-3,0-4.9,0C0,33,0,16.7,0,0.1
		c49.6,0,99.3,0,149.3,0C149.3,16.5,149.3,32.7,149.3,49.6z"/>
	<path class="st0" d="M199.9,50.4c0,5,0,9.7,0,14.5c0,10.2,0.1,20.4-0.1,30.6c-0.1,3.8,1,5,4.9,5c30-0.2,60-0.1,90-0.1
		c1.6,0,3.3,0,5.3,0c0,16.6,0,32.9,0,49.4c-49.9,0-99.6,0-149.5,0c0-33.2,0-66.1,0-99.3C166.9,50.4,183,50.4,199.9,50.4z"/>
	<path class="st0" d="M201,0c33,0,65.9,0,99.1,0c0,16.4,0,32.7,0,49.2c-33,0-65.8,0-99.1,0C201,33,201,16.7,201,0z"/>
	<path class="st0" d="M715,61.7c-7.3,2.9-14.3,5.7-21.7,8.6c-1.2-2.4-2.3-4.6-3.5-6.8c-5.4-9-17.4-9-21.9,0.5
		c-5.3,11.1-5.3,22.8-0.1,34c4.2,8.9,15.5,9.8,21.9,2.2c1.9-2.2,3.4-4.7,5.3-7.3c6.8,3.6,13.4,7.1,20.3,10.8
		c-6.1,12.4-15.2,20.1-28.7,22.2c-24.6,3.9-43.3-9.7-47.1-34.3c-1.9-12.1-1.1-24,4.6-35.1c5.8-11.5,15.3-18.4,28.1-20
		c5.5-0.7,11.2-0.6,16.6,0.2C703.1,38.8,710.5,48.5,715,61.7z"/>
	<path class="st0" d="M1030.4,33.6c0,10.1,0,19.5,0,29.7c6.8-4.4,13.5-6.4,20.9-5.1c7.4,1.3,12.5,5.4,14.8,12.5c1,3.2,2,6.5,2.1,9.8
		c0.2,14.6,0.1,29.3,0.1,44.3c-7.4,0-14.7,0-22.4,0c-0.1-1.5-0.2-2.9-0.2-4.4c0-10.2,0-20.4,0-30.6c0-2.5-0.2-5-0.6-7.5
		c-0.7-3.7-3.2-5.4-6.9-5.3c-3.7,0-6.2,1.6-7,5.3c-0.5,2.3-0.6,4.7-0.6,7.1c-0.1,10.8-0.1,21.5,0,32.3c0,2.7-0.7,3.7-3.5,3.6
		c-6.1-0.2-12.3-0.1-18.9-0.1c-0.1-1.7-0.3-3.2-0.3-4.6c0-24.6,0-49.1-0.1-73.7c0-3.1,0.9-4.7,3.9-5.8
		C1017.7,38.9,1023.7,36.3,1030.4,33.6z"/>
	<path class="st0" d="M586.4,34c0,10,0,19.4,0,28.5c5.1-1.5,9.6-3.6,14.3-4.2c12.7-1.5,21.3,5.1,22.7,17.8c1,9.5,0.7,19.2,0.9,28.8
		c0.1,6.4,0,12.8,0,19.8c-7,0-13.7,0.1-20.3-0.2c-0.7,0-1.8-2.2-1.8-3.4c-0.1-10.6-0.1-21.2-0.1-31.8c0-2.2-0.1-4.5-0.5-6.7
		c-0.7-3.9-3.1-6.1-7.2-6.2c-4.2,0-7,2-7.6,6.3c-0.5,4.3-0.4,8.6-0.4,12.9c-0.1,8.2-0.2,16.5,0.1,24.7c0.1,3.6-1.2,4.6-4.6,4.4
		c-4.7-0.2-9.5-0.2-14.2,0c-2.5,0.1-3.4-0.8-3.4-3.4c0.1-25.3,0-50.5,0.1-75.8c0-1.2,0.9-3.1,1.9-3.6
		C572.7,39.4,579.2,36.9,586.4,34z"/>
	<path class="st0" d="M824.7,59.4c7.8,0,15,0,22.5,0c0,21.9,0,43.6,0,65.5c-7.5,0-14.7,0-22.1,0c-0.2-1-0.5-2.1-0.7-3.3
		c-0.5,0.2-1.1,0.3-1.5,0.5c-2.8,1.2-5.5,2.9-8.4,3.7c-14,3.5-24.5-3.3-26.8-17.6c-0.8-4.6-0.7-9.5-0.7-14.2
		c-0.1-11.4,0-22.8,0-34.5c7.6,0,14.8,0,22.5,0c0.1,1.5,0.2,3,0.2,4.4c0,10.6,0,21.2,0.1,31.8c0,2.3,0.3,4.8,0.8,7
		c0.8,3.3,3.3,4.6,6.6,4.6c3.2,0,5.9-1.2,6.7-4.5c0.6-2.4,0.8-4.9,0.8-7.4C824.8,83.5,824.7,71.7,824.7,59.4z"/>
	<path class="st0" d="M924.4,124.9c-7.8,0-15,0-22.8,0c0-1.7,0-3.2,0-4.7c0-10.6,0-21.2,0-31.8c0-2.2-0.2-4.5-0.8-6.6
		c-0.9-3.7-3.7-5-7.3-4.8c-4,0.2-6.4,2.4-6.6,6.2c-0.4,6.3-0.4,12.5-0.4,18.8c-0.1,7.5,0,15,0,22.8c-7.5,0-14.7,0-22.2,0
		c0-21.7,0-43.4,0-65.7c6.7,0,13.5-0.1,20.3,0.1c0.9,0,1.8,1.8,2.7,2.8c3.8-1.3,7.8-3.2,12.1-3.9c12.9-2.2,22.3,4.6,24.3,17.5
		c0.9,5.9,0.8,11.9,0.9,17.9C924.5,103.9,924.4,114.2,924.4,124.9z"/>
	<path class="st0" d="M425.6,58.1c-7.3,0-13.8,0.2-20.4-0.1c-3.5-0.1-4.5,1.1-4.5,4.5c0.1,19,0.1,38,0.1,56.9c0,5.4,0,5.4-5.6,5.4
		c-4.7,0-9.5-0.2-14.2,0.1c-3.2,0.2-4-0.9-4-4.1c0.1-19,0.1-38,0.1-56.9c0-1.8-0.2-3.6-0.3-5.7c-8.1,0-15.9,0-24,0
		c0-7,0-13.6,0-20.5c1.4-0.1,2.8-0.2,4.1-0.2c21.4,0,42.7,0.1,64.1-0.1c3.7,0,4.9,1,4.7,4.7C425.4,47.2,425.6,52.4,425.6,58.1z"/>
	<path class="st0" d="M444.1,98.3c1,11.8,8.7,13.5,28.2,6.9c2.6,4.3,5.4,8.8,8.3,13.6c-12.6,6.8-25.3,9.8-38.9,5
		c-6.8-2.4-11.6-7.2-14.4-13.8c-5-11.7-5.2-23.7-0.3-35.4c4.7-11.2,15-17.1,28-16.5c12.7,0.6,21.6,6.9,25.1,19
		c1.6,5.5,1.7,11.5,2.4,17.3c0.4,2.8-0.8,3.9-3.8,3.9c-9.9-0.2-19.8-0.1-29.7-0.1C447.4,98.3,445.9,98.3,444.1,98.3z M462.6,84.5
		c-0.4-7-3.8-10.5-9.8-10.3c-5.3,0.1-8.5,3.8-8.6,10.3C450.3,84.5,456.4,84.5,462.6,84.5z"/>
	<path class="st0" d="M994.1,73.1c-5.1,3.8-9.9,7.5-15.1,11.4c-1.1-1.5-2-2.9-2.9-4.2c-2.1-3-4.9-4.6-8.6-4c-3.5,0.5-5.3,3-6.2,6.1
		c-1.9,6.3-2,12.7-0.1,19c2.2,7.2,9.3,9,14.8,3.9c1.7-1.6,3.1-3.5,4.9-5.5c3.7,2.9,7.4,5.7,11,8.5c1,0.8,1.9,1.6,2.8,2.4
		c-6.1,11.7-16.7,17.1-30.4,15.6c-13-1.4-21.7-8.7-25-21.2c-2.4-9.1-2.4-18.3,0.4-27.3c3.7-12.1,12.9-18.8,27-20
		C978.4,56.9,988.5,62.3,994.1,73.1z"/>
	<path class="st0" d="M550.1,72.9c-5,3.8-9.8,7.4-14.7,11.2c-1.5-2-2.5-3.8-3.9-5.3C527,74,520.3,75,517.9,81
		c-2.8,7.1-2.8,14.5-0.2,21.7c2.2,6,8.5,7.5,13.7,3.6c2.1-1.6,4-3.4,6.5-5.6c3.7,2.9,8.2,6.4,12.8,9.9
		c-6.6,11.1-15.9,16.3-28.7,15.4c-12.5-0.8-21.5-7.1-25.4-18.5c-3.7-10.9-3.8-22,0.7-32.7c4.9-11.7,14.5-16.3,26.6-16.8
		C535.5,57.7,544.1,62.6,550.1,72.9z"/>
	<path class="st0" d="M729,124.9c0-22,0-43.6,0-65.5c7.3,0,14.5,0,21.9,0c0.3,1,0.7,2.1,1.1,3.5c0.9-0.5,1.7-1,2.5-1.5
		c6-4.2,12.4-4.7,19.1-2.1c1,0.4,2.4,2,2.2,2.8c-1.4,7.1-3.1,14.1-4.7,21.2c-2.6-1.5-4.7-3.2-7.1-4.1c-6.7-2.4-12,0.8-12.2,7.9
		c-0.4,10.9-0.2,21.7-0.2,32.6c0,1.6,0,3.3,0,5.1C743.8,124.9,736.6,124.9,729,124.9z"/>
</g>
</svg>
