<?xml version="1.0" encoding="utf-8"?>
<!-- Generator: Adobe Illustrator 25.3.1, SVG Export Plug-In . SVG Version: 6.00 Build 0)  -->
<svg version="1.1" id="Layer_1" xmlns="http://www.w3.org/2000/svg" xmlns:xlink="http://www.w3.org/1999/xlink" x="0px" y="0px"
	 viewBox="0 0 656.4 150" style="enable-background:new 0 0 656.4 150;" xml:space="preserve">
<style type="text/css">
	.st0{fill:#5D6676;}
</style>
<g id="Layer_2_1_" transform="translate(-374,-105.69991)">
	<g id="Layer_1-2">
		<path id="path6" class="st0" d="M449.3,108.7h-69.6c-3.1,0-5.7,2.5-5.7,5.6l0,0v11.4c0,3.1,2.6,5.6,5.7,5.6h17
			c1.9,0,3.4,1.6,3.4,3.5l0,0l0,0V247c0,3.2,2.5,5.7,5.7,5.7h17.2c3.1,0,5.6-2.5,5.7-5.7V134.9c0-1.8,1.5-3.4,3.4-3.4h17.2
			c3.1,0,5.7-2.5,5.7-5.7v-11.4C455,111.4,452.5,108.8,449.3,108.7C449.4,108.7,449.3,108.7,449.3,108.7L449.3,108.7z"/>
		<path id="path8" class="st0" d="M528.8,160.5c-3.2-9.4-11.5-14.8-21.2-14.8c-6.8,0-13.4,2.6-18.5,7.3c-0.3,0.3-0.7,0.6-1.1,0.7
			l0,0c-0.1-0.3-0.2-0.8-0.2-1.1l-0.1-38.1c0-3.1-2.5-5.7-5.7-5.7h-14.3c-3.1,0-5.6,2.5-5.6,5.7v132.6c0,3.1,2.5,5.6,5.6,5.7h14.8
			c3.1,0,5.6-2.5,5.7-5.7v-69.9c-0.1-1.4,0-2.6,0.3-3.9c0.8-3.6,4.1-6.3,8-6.2c2.8-0.1,5.6,1.4,7,3.9c0.7,1.7,0.7,3.3,0.7,7.6V247
			l0,0c0,3.1,2.5,5.7,5.7,5.7h14.8c3.1,0,5.7-2.5,5.7-5.7v-76C530.4,167.6,529.8,164,528.8,160.5L528.8,160.5z"/>
		<path id="path10" class="st0" d="M567,206.8h31.7c3.2,0,5.7-2.5,5.7-5.7l0,0v-24.8c0-8-1-11.5-2.8-15.1
			c-3.2-6.5-12.9-15.3-30-15.3c-12.3,0-26.1,4.4-31.4,17.1c-1.7,4.6-2.6,9.4-2.6,14.3v43.4c0.1,4.6,0.7,9.3,1.8,13.8
			c2.8,9.6,10.5,20.4,31.8,20.4h0.2c13.8,0,27.4-4.1,31.5-19.2c0.9-3.1,1.3-6.3,1-9.6V222c-0.1-3-2.6-5.4-5.7-5.2h-13.9
			c-3.1,0.1-5.6,2.5-5.7,5.7c0,2.3-0.2,4.4-0.7,6.6c-0.7,3-3.4,5-6.5,4.8c-3.3,0.2-6.3-1.8-7.2-5c-0.6-1.6-0.6-2.8-0.6-6.4v-12.3
			C563.7,208.1,565.2,206.8,567,206.8z M563.6,176c-0.1-1.9,0.3-3.8,1-5.6c1-1.9,2.6-3.4,6.6-3.5c3.5,0,5.1,1.4,6,3.1
			c0.7,1.7,1,3.4,1,5.2v8.8c0,1.8-1.5,3.4-3.4,3.4h-8c-1.8,0-3.4-1.5-3.4-3.4v-8H563.6z"/>
		<path id="path12" class="st0" d="M688.3,186.9c-3.3-4.3-7.3-8.2-12-11.3L651,158.3c-1.9-1.1-3.6-2.6-5.1-4.3
			c-2.3-3.2-2.6-9.3-2.6-11.8v-1.3c0.2-11.5,4.8-12.8,10.6-13c9.4,0.1,10.2,5.1,10.5,9.1v9.9c0,3.2,2.5,5.7,5.7,5.7h17
			c3.2,0,5.7-2.5,5.7-5.7l0,0l0,0v-9.4c0.2-4.2-0.5-8.4-2.3-12.3c-8-19.5-31.1-19.4-35.3-19.4c-2.8,0-27.7-0.2-36.1,17.9
			c-3.3,7-3.5,15.9-3.5,19.1v0.8c0,12.2,2.1,17.9,5.1,23.1c3.6,5.9,6.7,8.4,12.2,12.1l24.7,16.6c2.2,1.4,4.1,3.2,5.7,5.2
			c2.4,3.4,2.6,8.2,2.6,10.8v1.6c0,9.8-0.2,15.6-3.4,18c-1.6,1.5-3.9,2.4-8.4,2.4c-2.6,0.1-5.1-0.6-7.4-1.8
			c-3.8-2.4-4.1-6.6-4.1-11.3v-14c0-3.1-2.5-5.7-5.7-5.7H620c-3.1,0-5.7,2.5-5.7,5.7v16.1c-0.2,5.1,0.8,10.4,3,15
			c1.7,4,4.3,7.4,7.9,10.1c8.8,6.8,19.7,8.3,29.8,8.3l0,0c24.5,0.1,34.5-10.7,37.9-22.4c1.5-5.6,1.5-10.4,1.5-21.2v-4.6
			C694.2,199.9,693.7,194,688.3,186.9L688.3,186.9z"/>
		<path id="path14" class="st0" d="M748,235.2c-0.3-1-1.3-1.8-2.4-1.9c-0.1,0-0.2,0-0.2,0c-0.6,0.1-1.3,0.1-1.8,0.1
			c-4.1,0-8.1-0.7-9.2-4.8c-0.6-1.5-0.6-2.1-0.6-5.2v-54.2c0-1.8,1.5-3.4,3.4-3.4h5c3.1,0,5.7-2.5,5.7-5.6l0,0v-6.6
			c0-3.1-2.5-5.7-5.7-5.7h-5.1c-1.8,0-3.4-1.5-3.4-3.3l0,0l0,0v-19.9c0-3.1-2.5-5.7-5.7-5.7h-14.7c-3.1,0-5.7,2.5-5.7,5.7v19.9
			c0,1.8-1.5,3.4-3.4,3.4l0,0h-3.6c-3.1,0-5.7,2.5-5.7,5.7v6.7c0,3.1,2.5,5.7,5.7,5.7h3.9c1.8,0,3.4,1.6,3.4,3.4v61.8
			c0,4,0.2,8.4,2.1,12.3c3.2,7.2,11.2,10.2,24.9,10.2h0.3c2.6,0,5.2-0.1,8-0.5c3.2-0.6,5.5-3.3,5.5-6.5v-8.1
			C748.7,237.6,748.4,236.4,748,235.2L748,235.2z"/>
		<path id="path16" class="st0" d="M806.6,151.4c0-2.8-2.3-5.2-5.1-5.4c-0.2,0-0.3,0-0.6,0c-6.4,0.6-12.3,3.9-16.1,9.2
			c-0.6,0.7-1,1.4-1.5,2.2v-4l0,0c0-3.1-2.5-5.6-5.6-5.6h-14.7c-3.1,0-5.7,2.5-5.7,5.7v93.5c0,3.1,2.5,5.7,5.6,5.7l0,0h14.7
			c3.1,0,5.7-2.5,5.7-5.7l0,0l0,0v-57.2c0-6.5,0.2-13.4,5.9-17.3c2.5-1.5,5.4-2.3,8.4-2.2c1.3,0,2.5,0.1,3.8,0.3l0.2-1.1l0,0
			l-0.2,1.1c0.3,0.1,0.7,0.1,1,0.1c1.1,0,2.2-0.5,3-1.3c0.8-0.9,1.3-2.1,1.1-3.2L806.6,151.4L806.6,151.4z"/>
		<path id="path18" class="st0" d="M839.8,206.8h31.7c3.2,0,5.7-2.6,5.7-5.7l0,0v-24.8c0-8-1-11.5-2.8-15.1
			c-3.2-6.5-12.9-15.3-30-15.3c-12.3,0-26.1,4.4-31.3,17.1c-1.8,4.6-2.7,9.4-2.7,14.3v43.4c0.1,4.6,0.8,9.3,1.8,13.8
			c2.8,9.6,10.6,20.5,32,20.4h0.2c13.7,0,27.2-4.2,31.3-19.2c0.8-3.1,1.1-6.3,1-9.6V222c-0.1-3-2.6-5.4-5.7-5.2h-13.9
			c-3.1,0-5.6,2.5-5.7,5.7c0,2.3-0.2,4.4-0.7,6.6c-0.7,3-3.5,5-6.5,4.8c-3.2,0.2-6.2-1.8-7.1-4.9c-0.6-1.6-0.6-2.8-0.6-6.5v-12.3
			C836.5,208.1,837.9,206.8,839.8,206.8L839.8,206.8z M844,166.9c3.6,0,5.1,1.4,6,3.1c0.7,1.7,1.1,3.4,1,5.2v8.8
			c0,1.8-1.6,3.4-3.4,3.4h-8c-1.8,0-3.4-1.5-3.4-3.3l0,0V176c-0.1-1.9,0.3-3.8,1-5.6C838.4,168.5,840.1,166.9,844,166.9L844,166.9z"
			/>
		<path id="path20" class="st0" d="M913.6,206.8h31.7c3.1,0,5.7-2.5,5.7-5.7l0,0v-24.8c0-8-1-11.5-2.8-15.1
			c-3.2-6.5-12.9-15.3-30-15.3c-12.3,0-26.1,4.4-31.3,17.1c-1.7,4.6-2.6,9.4-2.6,14.3v43.4c0.1,4.6,0.8,9.3,1.8,13.8
			c2.8,9.6,10.6,20.5,32,20.4h0.2c13.7,0,27.2-4.2,31.3-19.2c0.8-3.1,1.3-6.3,1-9.6V222c-0.1-3-2.6-5.4-5.7-5.2h-14
			c-3.1,0-5.6,2.5-5.7,5.7c0,2.3-0.2,4.4-0.7,6.6c-0.7,3-3.4,5-6.5,4.8c-3.2,0.2-6.2-1.9-7.1-5c-0.6-1.6-0.6-2.8-0.6-6.4v-12.3
			C910.3,208.3,911.7,206.8,913.6,206.8L913.6,206.8z M917.8,166.9c3.6,0,5.1,1.4,6,3.1c0.8,1.7,1.1,3.4,1,5.2c0,0.2,0,0.5,0,0.7
			v8.1c0,1.8-1.6,3.4-3.4,3.4h-7.9c-1.8,0-3.4-1.5-3.4-3.4v-8.2c-0.1-1.9,0.3-3.8,1-5.6C912.2,168.5,913.9,166.9,917.8,166.9
			L917.8,166.9z"/>
		<path id="path22" class="st0" d="M1006.3,235.2c-0.3-1-1.3-1.8-2.4-1.9h-0.2c-0.6,0.1-1.3,0.1-1.8,0.1c-4.1,0-8.1-0.7-9.2-4.8
			c-0.6-1.5-0.6-2.1-0.6-5.2v-54.2c0-1.8,1.5-3.4,3.4-3.4h5.1c3.1,0,5.7-2.5,5.7-5.7l0,0l0,0v-6.6c0-3.2-2.5-5.7-5.7-5.7l0,0h-5.1
			c-1.8,0-3.4-1.5-3.4-3.4v-20c0-3.1-2.5-5.7-5.7-5.7h-14.6c-3.1,0-5.7,2.5-5.7,5.7v19.9c0,1.8-1.5,3.4-3.4,3.4l0,0h-3.5
			c-3.2,0-5.7,2.5-5.7,5.7l0,0l0,0v6.6c0,3.1,2.5,5.7,5.7,5.7h3.9c1.8,0,3.4,1.6,3.4,3.4v61.8c0,4,0.2,8.4,2.1,12.3
			c3.3,7.2,11.2,10.2,24.9,10.2h0.2c2.6,0,5.2-0.1,8-0.5c3.2-0.6,5.5-3.3,5.5-6.5v-8.1C1006.8,237.6,1006.7,236.4,1006.3,235.2
			L1006.3,235.2z"/>
		<path id="path24" class="st0" d="M1023.6,253.9c-3.6-0.1-6.6-3.1-6.5-6.7c0.1-3.6,3.1-6.6,6.7-6.5s6.6,3.1,6.5,6.7
			c-0.1,3.5-3,6.5-6.5,6.5H1023.6z M1023.6,241.1c-3.3,0-6,2.6-6,6c0,3.3,2.6,6,6,6c3.3,0,6-2.6,6-5.9c0.1-3.3-2.4-6-5.7-6.2
			L1023.6,241.1z M1023.6,242.8c0.7,0,1.4,0.1,2.1,0.3c0.8,0.6,1.1,1.4,1.1,2.3c0,1-0.6,1.9-1.5,2.3l1.5,3.5h-1.9l-1.1-3.2h-1.1v3.2
			h-1.7v-8.5L1023.6,242.8z M1022.5,246.5h1.1c0.9,0,1.4-0.3,1.4-1.1c0-0.8-0.3-1-1.3-1h-1.1v2.2L1022.5,246.5L1022.5,246.5z"/>
	</g>
</g>
</svg>
