<?xml version="1.0" encoding="utf-8"?>
<!-- Generator: Adobe Illustrator 25.3.1, SVG Export Plug-In . SVG Version: 6.00 Build 0)  -->
<svg version="1.1" id="Layer_1" xmlns="http://www.w3.org/2000/svg" xmlns:xlink="http://www.w3.org/1999/xlink" x="0px" y="0px"
	 viewBox="0 0 884.7 150" style="enable-background:new 0 0 884.7 150;" xml:space="preserve">
<style type="text/css">
	.st0{fill:#5D6676;}
</style>
<g>
	<path class="st0" d="M773.1,0c0,14.3,0,28.6,0,43.3c-6.5,0-12.8,0-19,0c-4.7,0-9.4,0.2-14-0.1c-18-0.8-30.9,14.3-30.8,31
		c0.2,17.8,14.4,30.8,32.3,29.4c6.4-0.5,7.2-1.3,7.2-7.7c0-1.9,0-3.9,0-6.3c-8.1,0-16.1,0-24.4,0c0-5.8,0-11.2,0-16.5
		c0-5.4,0-10.7,0-16.4c21.9,0,43.5,0,65.6,0c0,1.1,0,2.2,0,3.4c0,22.9-0.1,45.8,0,68.8c0,2.6-0.7,4.3-2.9,5.8
		c-48.8,32.9-112,11-123.1-47.7c-6.3-33.2,10.2-66.1,40-79.6c7.6-3.4,16.2-4.5,24.4-6.6c1.5-0.4,3.1-0.5,4.7-0.7
		C746.5,0,759.8,0,773.1,0z"/>
	<path class="st0" d="M455.6,146.1c0-40.1,0-79.7,0-119.4c-0.2-0.1-0.4-0.1-0.5-0.2c-0.5,1.1-1.1,2.2-1.5,3.4
		c-13.9,37.5-27.8,75.1-41.5,112.6c-1.1,3.1-2.5,4-5.8,3.9c-13.4-0.2-26.8-0.1-40.2-0.1c-2,0-3.3-0.3-4.1-2.5
		C345,96.9,327.9,50,310.9,3.1c-0.2-0.7-0.4-1.4-0.7-2.3c30.8,0,61.4,0,92.3,0c-3.1,10.5-6.2,20.8-9.3,31.1
		c-2.6,8.8-2.7,8.8-11.9,8.8c-2.8,0-5.6,0-9,0c4.6,16.4,9.1,32.2,13.5,47.9c0.3,0,0.5,0,0.8,0c2.5-8.4,5.1-16.7,7.6-25.1
		c6-19.8,11.9-39.6,17.8-59.4c0.8-2.5,1.7-3.8,4.7-3.7c40.4,0.1,80.7,0.1,121.1,0.1c1.1,0,2.2,0.1,3.6,0.2c0,13.3,0,26.4,0,39.9
		c-13.7,0-27.3,0-41.2,0c0,5.2,0,10,0,15.2c8.5,0,17.1,0,25.9,0c0,11.2,0,22,0,33.2c-8.4,0-17,0-25.9,0c0,5.8,0,11.2,0,17
		c13.6,0,27.2,0,41.1,0c0,13.6,0,26.7,0,40.1C512.9,146.1,484.5,146.1,455.6,146.1z"/>
	<path class="st0" d="M151.9,146.1c0-18.3,0-36.4,0-54.7c-7.3,0-14.2,0-21.6,0c0,18.1,0,36.3,0,54.7c-15.6,0-30.8,0-46.2,0
		c0-48.5,0-96.8,0-145.4c18.9,0,37.7,0,56.7,0c0,13,0,26,0,39.6c-3.3,0-6.8,0-10.5,0c0,5.3,0,10.2,0,15.3c7.1,0,14.2,0,21.6,0
		c0-18.3,0-36.5,0-54.9c15.6,0,30.8,0,46.2,0c0,48.5,0,96.8,0,145.4C182.9,146.1,167.7,146.1,151.9,146.1z"/>
	<path class="st0" d="M640.3,91.4c12,17.8,24.2,36.1,36.9,55c-1.9,0-3,0-4.2,0c-14.6,0-29.3-0.1-43.9,0.1c-3.2,0-5-1-6.8-3.6
		c-6.9-10-14-19.8-21-29.7c-0.7-1-1.4-1.9-2.8-3.8c0,12.9,0,24.8,0,36.8c-15.7,0-30.9,0-46.3,0c0-48.5,0-96.8,0-145.3
		c0.7-0.1,1.3-0.3,1.9-0.3c18.3,0,36.7-0.2,55,0.2c11.4,0.2,22.1,3.3,31.6,9.9C656.1,21.6,661,37.1,659.8,55
		c-0.5,8.3-2.1,16.5-7.1,23.2C649.2,82.9,644.7,86.8,640.3,91.4z M598.4,66.1c6.6-0.6,12.6-1.4,15.9-7.5c2.5-4.7,2.1-9.6-1.1-13.9
		c-3.6-4.8-9-5.8-14.8-5.7C598.4,48.1,598.4,56.9,598.4,66.1z"/>
	<path class="st0" d="M278.9,89.2c-8.7,0-17,0-25.8,0c0,5.6,0,11,0,17c13.7,0,27.4,0,41.2,0c0,13.6,0,26.7,0,40
		c-28.5,0-56.9,0-85.6,0c0-48.4,0-96.8,0-145.4c28.5,0,56.8,0,85.5,0c0,13.1,0,26.2,0,39.6c-13.6,0-27.2,0-41.1,0
		c0,5.3,0,10.2,0,15.5c8.6,0,17.1,0,25.8,0C278.9,67.2,278.9,78.1,278.9,89.2z"/>
	<path class="st0" d="M799.2,0.8c28.6,0,56.9,0,85.5,0c0,13.3,0,26.3,0,39.7c-13.8,0-27.4,0-41.2,0c0,5.2,0,10.1,0,15.4
		c8.6,0,17.2,0,26.1,0c0,11.2,0,21.9,0,33.1c-8.6,0-17.2,0-26,0c0,5.8,0,11.2,0,17.1c13.6,0,27.2,0,41.1,0c0,13.6,0,26.7,0,40.1
		c-28.4,0-56.8,0-85.4,0C799.2,97.8,799.2,49.5,799.2,0.8z"/>
	<path class="st0" d="M27.2,40.6c-9.3,0-18.1,0-27.2,0C0,27.2,0,14.1,0,0.8c24.4,0,48.7,0,73.3,0c0,48.4,0,96.8,0,145.4
		c-15.2,0-30.4,0-46.1,0C27.2,111.1,27.2,76,27.2,40.6z"/>
</g>
</svg>
