<?xml version="1.0" encoding="utf-8"?>
<!-- Generator: Adobe Illustrator 25.3.1, SVG Export Plug-In . SVG Version: 6.00 Build 0)  -->
<svg version="1.1" id="Layer_1" xmlns="http://www.w3.org/2000/svg" xmlns:xlink="http://www.w3.org/1999/xlink" x="0px" y="0px"
	 viewBox="0 0 620.8 150" style="enable-background:new 0 0 620.8 150;" xml:space="preserve">
<style type="text/css">
	.st0{fill:#5D6676;}
</style>
<g>
	<path class="st0" d="M394.8,0.2c0,31.2,0,62.3,0,93.5c1,0.1,1.8,0.2,2.6,0.2c5.1,0,10.2-0.1,15.3,0c5.5,0.1,10.1-1.8,14-5.7
		c6.4-6.3,12.7-12.7,19.1-19c4.2-4.2,6-9.3,6-15.1c0-17,0-34-0.1-51c0-2.4,0.6-3.1,3.1-3.1c16.6,0.1,33.3,0.1,49.9,0.1
		c0.9,0,1.7,0,3,0c0,1.2,0,2.1,0,3.1c0,19.7-0.1,39.3,0,59c0.1,10.7-2.5,20.6-7.9,29.8c-0.3,0.5-0.5,1-0.9,1.7
		c1,0.1,1.8,0.2,2.5,0.2c8.2,0,16.4,0,24.6,0c5.2,0,9.7-1.8,13.4-5.4c6.6-6.5,13.1-13,19.6-19.5c4.1-4.1,5.7-9.1,5.7-14.7
		c0-17.1,0-34.2-0.1-51.2c0-2.3,0.6-3,3-3c16.7,0.1,33.4,0.1,50.1,0c2.1,0,2.9,0.4,2.9,2.8c-0.1,20.1-0.1,40.1-0.1,60.2
		c0,15.8-5.8,29.3-16.9,40.5c-9.8,9.8-19.6,19.6-29.4,29.4c-11.5,11.5-25.3,17.1-41.5,17.1c-16.5,0-33.1,0-49.6,0
		c-0.9,0-1.8,0-3.1,0c0-11.6,0-23.1,0-34.6c-0.2-0.1-0.4-0.2-0.6-0.3c-0.6,0.5-1.3,1-1.9,1.6c-5.9,5.9-11.7,11.9-17.8,17.6
		c-10.8,10.3-23.8,15.5-38.7,15.6c-26.6,0.1-53.2,0-79.8,0.1c-2,0-2.6-0.6-2.6-2.6c0-48.2,0-96.5,0-144.7c0-1.6,0.1-2.7,2.3-2.7
		c17.3,0.1,34.6,0,51.8,0.1C393.4,0.1,393.9,0.2,394.8,0.2z"/>
	<path class="st0" d="M319.3,149.8c-18.7,0-37,0-55.8,0c0-1.1,0-2.2,0-3.2c0-16.8-0.1-33.5,0-50.3c0-6.6-2.1-12.1-6.9-16.7
		c-6-5.7-11.8-11.6-17.6-17.5c-4.2-4.3-9.3-6.3-15.3-6.3c-4.8,0-9.6,0.1-14.4,0c-2.3-0.1-3,0.7-3,3c0.1,29.2,0,58.4,0,87.6
		c0,1,0,2.1,0,3.3c-18.7,0-37.1,0-55.8,0c0-1-0.1-1.9-0.1-2.9c0-47.9,0-95.8,0-143.7c0-3.1,0-3.1,3.2-3.1c26,0,51.9,0.1,77.9,0
		c16.4-0.1,30.2,5.7,41.7,17.3c9.7,9.7,19.5,19.4,29.2,29.2c11,11.1,16.8,24.4,16.8,40c0,20.3,0,40.6,0,60.9
		C319.5,148.2,319.4,148.9,319.3,149.8z"/>
	<path class="st0" d="M93.6,149.8c-18.7,0-37.1,0-55.7,0c-0.1-1.1-0.2-2.2-0.2-3.3c0-29.1,0-58.1,0-87.2c0-3.5,0-3.5-3.5-3.5
		c-10.4,0-20.8,0-31.1,0c-1,0-1.9,0-3,0C0,37.2,0,18.8,0,0.2c1,0,2-0.1,2.9-0.1c41.7,0,83.4,0,125.1,0c3.3,0,3.3,0,3.3,3.1
		c0,16.5,0,33,0,49.5c0,3.2,0,3.2-3.3,3.2c-10.4,0-20.8,0-31.1,0c-3.3,0-3.3,0-3.3,3.4c0,29.1,0,58.3,0,87.4
		C93.6,147.6,93.6,148.6,93.6,149.8z"/>
</g>
</svg>
