<?xml version="1.0" encoding="utf-8"?>
<!-- Generator: Adobe Illustrator 25.3.1, SVG Export Plug-In . SVG Version: 6.00 Build 0)  -->
<svg version="1.1" id="Layer_1" xmlns="http://www.w3.org/2000/svg" xmlns:xlink="http://www.w3.org/1999/xlink" x="0px" y="0px"
	 viewBox="0 0 751.8 150" style="enable-background:new 0 0 751.8 150;" xml:space="preserve">
<style type="text/css">
	.st0{fill:#5D6676;}
</style>
<path class="st0" d="M634.3,23.5v103.6h51.2c14.5,0,22.9-2.4,28.9-7.2c7.2-6.6,11.4-18.7,11.4-44.6s-3.6-37.3-11.4-44.6
	c-6-5.4-14.5-7.2-28.9-7.2C685.5,23.5,634.3,23.5,634.3,23.5z M704.2,75.3c0,22.9-1.2,27.7-6,30.7c-3,2.4-6.6,3-14.5,3h-28.9V41
	h28.9c7.2,0,11.4,0,14.5,3C703,47.6,704.2,53,704.2,75.3z M751.8,150H601.2V0h150v150H751.8z M478.9,41V23.5h89.2v33.1h-18.7V41
	h-36.1v24.7h28.9v16.9h-28.9v27.7H550V92.2h18.7v35.5h-89.8v-17.5h14.5V41H478.9z M398.2,100c0,11.4,0.6,19.3,2.4,26.5h20.5
	c-0.6-5.4-1.2-15.1-1.2-27.7c-0.6-15.1-5.4-17.5-15.7-19.3c12-2.4,17.5-7.2,17.5-26.5c0-15.1-2.4-21.1-6.6-24.7
	c-3-3-8.4-4.8-16.9-4.8h-63.9v103.6h21.1v-41h29.5c6,0,8.4,0.6,10.8,2.4C398.2,90.4,398.2,92.8,398.2,100z M355.4,69.9V41h33.7
	c4.8,0,6,0.6,6.6,1.2c1.2,1.2,3,3.6,3,12.7s-1.2,12-3,13.3c-0.6,0.6-2.4,1.2-6.6,1.2L355.4,69.9z M450.6,150H300V0h150L450.6,150
	L450.6,150z M260.8,109.6v17.5h-71.1v-17.5h25.3V41h-25.3V23.5h71.7V41h-25.3v69.3h24.7V109.6z M140.4,23.5h-19.3l-14.5,81.9
	L89.8,29.5c-0.6-5.4-3-6-7.2-6H71.7c-4.8,0-6.6,1.2-7.2,6l-16.9,75.9L33.1,23.5H12l20.5,98.8c0.6,4.8,2.4,5.4,7.2,5.4h14.5
	c4.8,0,6-0.6,7.2-5.4l16.3-71.7l15.7,71.7c0.6,4.8,2.4,5.4,7.2,5.4h13.3c4.8,0,6.6-0.6,7.2-5.4L140.4,23.5z M150.6,150H0V0h150
	L150.6,150L150.6,150z"/>
</svg>
