<svg xmlns="http://www.w3.org/2000/svg" width="90" height="91" viewBox="0 0 90 91">
    <g fill="none" fill-rule="evenodd">
        <g fill-rule="nonzero">
            <g>
                <g transform="translate(-1098.000000, -3598.000000) translate(0.000000, 2723.000000) translate(1098.000000, 875.563131)">
                    <circle cx="45" cy="45" r="45" fill="#1A1E24"/>
                    <g fill="#00C3FF">
                        <path d="M18 36C8.059 36 0 27.941 0 18S8.059 0 18 0s18 8.059 18 18-8.059 18-18 18zM7.415 29.999C10.236 32.489 13.942 34 18 34c4.058 0 7.764-1.511 10.585-4.001l-4.256-4.256C22.605 27.153 20.4 28 18 28s-4.605-.846-6.329-2.257l-4.256 4.256zm-1.414-1.414l4.256-4.256C8.847 22.605 8 20.4 8 18s.846-4.605 2.257-6.329L6.001 7.415C3.511 10.236 2 13.942 2 18c0 4.058 1.511 7.764 4.001 10.585zM7.415 6l4.256 4.256C13.395 8.847 15.6 8 18 8s4.605.846 6.329 2.257l4.256-4.256C25.764 3.511 22.058 2 18 2c-4.058 0-7.764 1.511-10.585 4.001zM30 7.415l-4.256 4.256C27.153 13.395 28 15.6 28 18s-.846 4.605-2.257 6.329l4.256 4.256C32.489 25.764 34 22.058 34 18c0-4.058-1.511-7.764-4.001-10.585zM18 26c4.418 0 8-3.582 8-8s-3.582-8-8-8-8 3.582-8 8 3.582 8 8 8z" transform="translate(27.000000, 27.436869)"/>
                    </g>
                </g>
            </g>
        </g>
    </g>
</svg>
