<?xml version="1.0" encoding="UTF-8"?>
<svg viewBox="0 0 616 616" version="1.1" xmlns="http://www.w3.org/2000/svg" xmlns:xlink="http://www.w3.org/1999/xlink">
    <title>liquid_laserlines</title>
    <defs>
        <rect id="path-1" x="0" y="2.27373675e-13" width="616" height="616"></rect>
        <linearGradient x1="-51.6477474%" y1="-25.9450605%" x2="74.6515471%" y2="172.089214%" id="linearGradient-3">
            <stop stop-color="#179BD1" offset="0%"></stop>
            <stop stop-color="#0D433F" offset="35.8671931%"></stop>
            <stop stop-color="#26B7AE" offset="73.1308143%"></stop>
            <stop stop-color="#35D6A3" offset="100%"></stop>
        </linearGradient>
        <linearGradient x1="-50.4486571%" y1="-25.9450605%" x2="74.3607444%" y2="172.089214%" id="linearGradient-4">
            <stop stop-color="#179BD1" offset="0%"></stop>
            <stop stop-color="#0D433F" offset="35.8671931%"></stop>
            <stop stop-color="#26B7AE" offset="73.1308143%"></stop>
            <stop stop-color="#35D6A3" offset="100%"></stop>
        </linearGradient>
        <linearGradient x1="-49.4692463%" y1="-25.9450605%" x2="74.1232184%" y2="172.089214%" id="linearGradient-5">
            <stop stop-color="#179BD1" offset="0%"></stop>
            <stop stop-color="#0D433F" offset="35.8671931%"></stop>
            <stop stop-color="#26B7AE" offset="73.1308143%"></stop>
            <stop stop-color="#35D6A3" offset="100%"></stop>
        </linearGradient>
        <linearGradient x1="-49.086777%" y1="-25.9450605%" x2="74.0304621%" y2="172.089214%" id="linearGradient-6">
            <stop stop-color="#179BD1" offset="0%"></stop>
            <stop stop-color="#0D433F" offset="35.8671931%"></stop>
            <stop stop-color="#26B7AE" offset="73.1308143%"></stop>
            <stop stop-color="#35D6A3" offset="100%"></stop>
        </linearGradient>
        <linearGradient x1="-48.3833385%" y1="-25.9450605%" x2="73.8598647%" y2="172.089214%" id="linearGradient-7">
            <stop stop-color="#179BD1" offset="0%"></stop>
            <stop stop-color="#0D433F" offset="35.8671931%"></stop>
            <stop stop-color="#26B7AE" offset="73.1308143%"></stop>
            <stop stop-color="#35D6A3" offset="100%"></stop>
        </linearGradient>
        <linearGradient x1="-48.1401165%" y1="-25.9450605%" x2="73.8008786%" y2="172.089214%" id="linearGradient-8">
            <stop stop-color="#179BD1" offset="0%"></stop>
            <stop stop-color="#0D433F" offset="35.8671931%"></stop>
            <stop stop-color="#26B7AE" offset="73.1308143%"></stop>
            <stop stop-color="#35D6A3" offset="100%"></stop>
        </linearGradient>
        <linearGradient x1="-48.2416472%" y1="-25.9450605%" x2="73.8255018%" y2="172.089214%" id="linearGradient-9">
            <stop stop-color="#179BD1" offset="0%"></stop>
            <stop stop-color="#0D433F" offset="35.8671931%"></stop>
            <stop stop-color="#26B7AE" offset="73.1308143%"></stop>
            <stop stop-color="#35D6A3" offset="100%"></stop>
        </linearGradient>
        <linearGradient x1="-48.0484467%" y1="-25.9450605%" x2="73.7786469%" y2="172.089214%" id="linearGradient-10">
            <stop stop-color="#179BD1" offset="0%"></stop>
            <stop stop-color="#0D433F" offset="35.8671931%"></stop>
            <stop stop-color="#26B7AE" offset="73.1308143%"></stop>
            <stop stop-color="#35D6A3" offset="100%"></stop>
        </linearGradient>
        <linearGradient x1="-47.8615767%" y1="-25.9450605%" x2="73.7333273%" y2="172.089214%" id="linearGradient-11">
            <stop stop-color="#179BD1" offset="0%"></stop>
            <stop stop-color="#0D433F" offset="35.8671931%"></stop>
            <stop stop-color="#26B7AE" offset="73.1308143%"></stop>
            <stop stop-color="#35D6A3" offset="100%"></stop>
        </linearGradient>
        <linearGradient x1="-48.2269014%" y1="-25.9450605%" x2="73.8219256%" y2="172.089214%" id="linearGradient-12">
            <stop stop-color="#179BD1" offset="0%"></stop>
            <stop stop-color="#0D433F" offset="35.8671931%"></stop>
            <stop stop-color="#26B7AE" offset="73.1308143%"></stop>
            <stop stop-color="#35D6A3" offset="100%"></stop>
        </linearGradient>
        <linearGradient x1="-48.0658838%" y1="-25.9450605%" x2="73.7828758%" y2="172.089214%" id="linearGradient-13">
            <stop stop-color="#179BD1" offset="0%"></stop>
            <stop stop-color="#0D433F" offset="35.8671931%"></stop>
            <stop stop-color="#26B7AE" offset="73.1308143%"></stop>
            <stop stop-color="#35D6A3" offset="100%"></stop>
        </linearGradient>
        <linearGradient x1="-48.3833385%" y1="-25.9450605%" x2="73.8598647%" y2="172.089214%" id="linearGradient-14">
            <stop stop-color="#179BD1" offset="0%"></stop>
            <stop stop-color="#0D433F" offset="35.8671931%"></stop>
            <stop stop-color="#26B7AE" offset="73.1308143%"></stop>
            <stop stop-color="#35D6A3" offset="100%"></stop>
        </linearGradient>
        <linearGradient x1="-48.9042554%" y1="-25.9450605%" x2="73.9861971%" y2="172.089214%" id="linearGradient-15">
            <stop stop-color="#179BD1" offset="0%"></stop>
            <stop stop-color="#0D433F" offset="35.8671931%"></stop>
            <stop stop-color="#26B7AE" offset="73.1308143%"></stop>
            <stop stop-color="#35D6A3" offset="100%"></stop>
        </linearGradient>
        <linearGradient x1="-48.7328971%" y1="-25.9450605%" x2="73.9446394%" y2="172.089214%" id="linearGradient-16">
            <stop stop-color="#179BD1" offset="0%"></stop>
            <stop stop-color="#0D433F" offset="35.8671931%"></stop>
            <stop stop-color="#26B7AE" offset="73.1308143%"></stop>
            <stop stop-color="#35D6A3" offset="100%"></stop>
        </linearGradient>
        <linearGradient x1="-49.1864645%" y1="-25.9450605%" x2="74.0546383%" y2="172.089214%" id="linearGradient-17">
            <stop stop-color="#179BD1" offset="0%"></stop>
            <stop stop-color="#0D433F" offset="35.8671931%"></stop>
            <stop stop-color="#26B7AE" offset="73.1308143%"></stop>
            <stop stop-color="#35D6A3" offset="100%"></stop>
        </linearGradient>
        <linearGradient x1="-49.0171958%" y1="-25.9450605%" x2="74.0135874%" y2="172.089214%" id="linearGradient-18">
            <stop stop-color="#179BD1" offset="0%"></stop>
            <stop stop-color="#0D433F" offset="35.8671931%"></stop>
            <stop stop-color="#26B7AE" offset="73.1308143%"></stop>
            <stop stop-color="#35D6A3" offset="100%"></stop>
        </linearGradient>
        <linearGradient x1="-49.0469679%" y1="-25.9450605%" x2="74.0208077%" y2="172.089214%" id="linearGradient-19">
            <stop stop-color="#179BD1" offset="0%"></stop>
            <stop stop-color="#0D433F" offset="35.8671931%"></stop>
            <stop stop-color="#26B7AE" offset="73.1308143%"></stop>
            <stop stop-color="#35D6A3" offset="100%"></stop>
        </linearGradient>
        <linearGradient x1="-49.2569357%" y1="-25.9450605%" x2="74.0717289%" y2="172.089214%" id="linearGradient-20">
            <stop stop-color="#179BD1" offset="0%"></stop>
            <stop stop-color="#0D433F" offset="35.8671931%"></stop>
            <stop stop-color="#26B7AE" offset="73.1308143%"></stop>
            <stop stop-color="#35D6A3" offset="100%"></stop>
        </linearGradient>
        <linearGradient x1="-49.7992425%" y1="-25.9450605%" x2="74.2032488%" y2="172.089214%" id="linearGradient-21">
            <stop stop-color="#179BD1" offset="0%"></stop>
            <stop stop-color="#0D433F" offset="35.8671931%"></stop>
            <stop stop-color="#26B7AE" offset="73.1308143%"></stop>
            <stop stop-color="#35D6A3" offset="100%"></stop>
        </linearGradient>
        <linearGradient x1="-49.4659121%" y1="-25.9450605%" x2="74.1224097%" y2="172.089214%" id="linearGradient-22">
            <stop stop-color="#179BD1" offset="0%"></stop>
            <stop stop-color="#0D433F" offset="35.8671931%"></stop>
            <stop stop-color="#26B7AE" offset="73.1308143%"></stop>
            <stop stop-color="#35D6A3" offset="100%"></stop>
        </linearGradient>
        <linearGradient x1="-49.8063012%" y1="-25.9450605%" x2="74.2049607%" y2="172.089214%" id="linearGradient-23">
            <stop stop-color="#179BD1" offset="0%"></stop>
            <stop stop-color="#0D433F" offset="35.8671931%"></stop>
            <stop stop-color="#26B7AE" offset="73.1308143%"></stop>
            <stop stop-color="#35D6A3" offset="100%"></stop>
        </linearGradient>
        <linearGradient x1="-49.9587072%" y1="-25.9450605%" x2="74.2419221%" y2="172.089214%" id="linearGradient-24">
            <stop stop-color="#179BD1" offset="0%"></stop>
            <stop stop-color="#0D433F" offset="35.8671931%"></stop>
            <stop stop-color="#26B7AE" offset="73.1308143%"></stop>
            <stop stop-color="#35D6A3" offset="100%"></stop>
        </linearGradient>
    </defs>
    <g id="liquid_laserlines" stroke="none" stroke-width="1" fill="none" fill-rule="evenodd">
        <g id="laser-lines/liquid" transform="translate(0.000000, -0.000000)">
            <mask id="mask-2" fill="white">
                <use xlink:href="#path-1"></use>
            </mask>
            <g id="Mask" opacity="0.698962984" fill-rule="nonzero"></g>
            <g id="Group" mask="url(#mask-2)">
                <g transform="translate(62.000000, -254.000000)" id="Group-45-Copy-2">
                    <path d="M400.392785,571.691856 C400.392785,571.691856 384.143159,579.447976 364.645966,592.566011 C337.796535,610.629578 351.1033,635.094056 361.915416,646.17142 C376.383992,660.996233 419.891943,677.17822 444.803057,626.911733 C469.712204,576.645245 490.508816,625.069434 495.555125,634.043277 C504.016097,649.086103 524.002783,689.194411 550.746059,675.023634 C577.184629,661.01391 572.087208,637.918391 568.837676,623.179997 C564.882408,605.236237 562.971612,598.609459 569.568968,595.459088 C579.769708,590.586226 603.251656,607.526345 609.129515,587.871879 C614.596514,569.5903 593.876569,557.556432 595.781467,548.06211 C597.804316,537.982494 639.987292,532.481129 639.230444,504.966448 C638.567956,480.957635 628.367217,469.412822 597.763033,477.919216 C567.15885,486.425611 567.139191,465.604487 575.845893,455.742883 C584.55456,445.879314 595.43548,447.766787 608.535832,433.368177 C621.638149,418.969568 617.03612,397.655461 597.521235,386.644875 C581.737513,377.741738 546.303262,390.435534 529.296788,406.108826 C512.288348,421.780154 513.481612,450.46935 489.635984,462.163433 C465.792321,473.855552 454.070022,435.137806 423.290879,451.364967 C395.696395,465.91481 414.499646,493.347 413.837159,498.960317 C412.736289,508.30537 408.083148,506.064364 405.967905,521.537321 C404.318566,533.608506 410.896263,546.42211 411.083018,557.360025 C411.25208,567.351258 400.392785,571.691856 400.392785,571.691856 Z" id="Stroke-1" stroke="url(#linearGradient-3)" stroke-width="1.2756"></path>
                    <path d="M415.258525,440.198805 C429.434767,432.663583 440.641595,434.989999 452.185811,441.931788 C461.80632,447.682767 470.408744,455.219961 481.461675,454.135615 C484.324546,453.865514 487.256473,453.05324 490.306782,451.548955 C500.211408,446.657567 506.300188,438.938992 510.814488,430.037493 C518.063411,415.743835 523.674717,398.780713 535.386641,388.266495 C545.739146,379.004205 563.145243,369.438298 580.125165,366.528306 C595.0117,363.975163 606.400046,366.455359 613.808785,371.200853 C628.813702,380.812106 633.339839,396.369521 625.779177,412.145776 C624.275726,415.286438 621.959385,419.010675 618.587471,422.622535 C613.431936,428.146787 608.613789,431.975516 604.419121,435.033373 C597.0676,440.393987 591.951525,442.789407 588.169221,448.773028 C585.160346,453.536267 583.678598,460.616063 587.604934,465.063855 C591.953498,469.990731 600.930799,472.942125 616.859095,470.318007 C623.001146,469.306607 628.18825,469.752175 632.523004,470.079451 C650.820912,471.463471 657.848856,484.649124 654.07839,504.979635 C651.282602,520.057965 640.478273,527.957922 631.197126,535.779018 C622.052117,543.489707 612.405959,548.097193 611.356305,554.256281 C610.790045,557.582268 612.236278,561.117237 613.931113,565.162835 C617.8318,574.488215 623.869281,582.114128 618.427656,594.073484 C617.642389,595.79858 616.699279,597.259491 615.661463,598.53902 C607.962689,608.069439 596.818998,605.953978 587.454983,605.504467 C584.426377,605.364488 581.788432,605.934263 579.635853,607.539095 C573.592453,612.040119 575.668084,619.995279 578.140294,638.874737 C580.308657,655.425807 583.396454,678.339034 556.387605,691.252614 C554.333678,692.234441 552.295534,692.890963 550.302771,693.306958 C525.168303,698.594626 506.327811,662.322251 498.133804,647.740748 C493.974651,640.337619 481.712251,612.365423 465.3124,613.433997 C458.008232,613.909138 449.56365,619.871072 441.973392,634.316539 C434.797471,647.924101 426.129937,658.544782 416.619918,664.973971 C393.357858,680.698966 365.173081,672.315982 350.085297,660.37437 C337.165877,650.169684 326.495714,628.311231 337.925495,611.04252 C340.259593,607.517409 343.327659,603.540814 348.029397,599.869809 C357.99716,592.088144 368.077386,585.938914 376.54959,581.449719 C383.297363,577.873348 387.645927,575.785488 388.212188,575.552846 C389.784695,574.90421 400.867222,570.365727 401.45124,560.17287 C401.593298,557.704503 401.492673,555.106015 401.102013,552.322202 C399.594615,541.577314 394.796199,529.523324 395.997776,519.440874 C397.511093,507.081295 400.468669,504.810082 403.132264,499.500728 C403.864259,498.04376 404.35949,496.332465 404.728447,494.073081 C405.395333,489.982137 399.6104,479.6217 398.746211,467.908786 C397.974755,457.451743 402.364754,447.057789 415.258525,440.198805 Z" id="Stroke-3" stroke="url(#linearGradient-4)" stroke-width="1.2291"></path>
                    <path d="M405.997328,431.09041 C420.461035,423.332639 432.835453,424.206643 446.907664,432.738026 C457.37772,439.039123 466.787392,447.403186 479.470678,445.895332 C482.693142,445.513447 485.943148,444.580388 489.263977,442.930804 C500.078313,437.556859 506.800632,428.929021 511.614654,418.74018 C519.106193,402.876217 526.76102,383.915838 539.469881,372.744726 C550.894085,362.760607 570.990218,351.333593 590.848305,349.26866 C608.719403,347.410417 620.043274,352.760739 627.585964,358.174053 C642.049671,368.5499 645.116716,384.114655 634.534524,402.840784 C632.909521,405.714762 630.098226,409.81707 626.094738,414.031581 C620.503626,419.915361 615.284337,424.462545 611.038869,428.316824 C603.787342,434.899414 600.191089,438.121813 598.149015,443.826461 C596.492535,448.450416 595.845288,455.194421 600.983917,458.698311 C607.299001,463.007309 617.424777,463.597853 633.426925,464.621461 C639.94661,465.038779 645.142291,465.977743 649.43104,466.875368 C666.877198,470.528863 673.945765,485.790472 666.153226,506.729171 C660.036841,523.162024 649.102499,530.42177 641.252908,540.067312 C633.759401,549.269946 625.510445,554.679323 624.438258,561.935132 C623.893312,565.620122 625.1701,569.519677 626.252123,573.994027 C628.872588,584.826561 632.240633,590.308772 625.177969,601.550749 C624.15103,603.186554 622.962771,604.599921 621.707624,605.918801 C612.431729,615.721821 603.24633,616.999363 594.580303,617.432428 C591.778846,617.580064 589.451511,618.68438 587.411404,620.833957 C581.971775,626.568133 584.076803,635.975489 585.162762,655.626803 C586.173962,673.96908 587.257953,696.486498 559.886686,708.256027 C557.750181,709.175306 555.615643,709.740259 553.526354,710.082774 C527.262685,714.47248 507.443944,677.589111 498.947106,662.441674 C494.274731,654.103202 481.260936,624.572097 464.353822,623.231564 C455.770422,622.55047 445.817771,628.209844 437.743906,642.780517 C430.065472,656.557893 420.718754,669.053791 410.12279,676.661958 C386.766814,693.433389 356.910827,688.451171 337.450137,675.516303 C320.761396,664.447553 310.250027,639.443947 320.513514,621.552452 C322.742483,617.666677 325.58132,612.853748 330.617649,608.418768 C340.568333,599.659041 351.528251,592.605985 361.896006,587.241883 C369.066873,583.531302 373.849418,581.243931 374.97669,580.77937 C378.112591,579.484112 389.414822,574.749923 390.681773,564.431162 C391.012282,561.746158 391.108681,558.893834 390.784074,555.720647 C389.51909,543.502305 383.807971,529.514302 384.923439,518.996725 C386.269084,506.313822 389.027261,503.14851 392.499573,496.894656 C393.410441,495.252945 393.992766,493.363206 394.457053,490.967569 C395.442678,485.88299 389.361704,474.861483 388.143936,461.975827 C386.985187,449.741737 392.755324,438.20252 405.997328,431.09041 Z" id="Stroke-5" stroke="url(#linearGradient-5)" stroke-width="1.1826"></path>
                    <path d="M397.300614,421.042172 C412.128492,413.036697 425.737641,412.458962 442.407419,422.609746 C453.786174,429.481441 464.05269,438.721258 478.43094,436.76524 C482.029939,436.276236 485.615135,435.211468 489.222022,433.413194 C501.001104,427.537254 508.404197,417.978007 513.533511,406.462742 C521.319183,388.984779 531.045356,367.959562 544.822129,356.093318 C557.376229,345.35494 580.273755,332.057175 603.108175,330.805087 C624.063227,329.655533 635.376904,337.8503 643.095526,343.970742 C657.110918,355.081789 663.263728,374.117468 645.059692,392.504428 C644.010559,395.458172 639.985596,399.616681 635.325631,404.445599 C629.275367,410.711954 623.617543,415.974667 619.304659,420.651757 C612.104688,428.454137 610.077416,432.310962 609.702725,437.981836 C609.412833,442.339496 609.714558,448.816832 615.950194,451.484667 C624.422141,455.106849 635.978381,454.876149 651.754817,458.094113 C658.587987,459.48817 663.880981,461.349542 668.184004,462.850075 C684.770955,468.627426 691.80133,486.17243 680.162264,507.783269 C670.546526,525.639817 659.575986,532.144758 653.109619,543.768471 C647.211204,554.372768 640.328733,560.72391 639.232271,569.100082 C638.70376,573.154086 639.78839,577.458508 640.29718,582.350523 C641.59282,594.788587 642.342201,598.085423 633.651356,608.640425 C632.371493,610.194197 630.933865,611.56262 629.454824,612.9271 C618.533586,623.010844 611.272481,627.691878 603.261995,629.026781 C600.672687,629.458604 598.635555,631.077445 596.704914,633.806405 C591.814218,640.719507 593.890792,651.720134 593.691614,672.169588 C593.492437,692.400173 592.6129,714.529593 564.761573,725.224592 C562.529208,726.08035 560.286982,726.555552 558.090113,726.827659 C530.560231,730.333505 509.658424,692.717631 500.813759,676.955127 C495.603591,667.654184 481.682858,636.125232 464.265672,632.714032 C454.294964,630.761958 442.843243,636.251427 434.245085,650.994515 C426.019645,664.98635 415.938502,679.374515 404.210693,688.208143 C380.589423,706.003565 348.94978,704.485285 325.016925,690.511196 C304.470088,678.544391 293.992562,650.229459 303.215862,631.739967 C305.347653,627.465122 307.982318,621.8396 313.373915,616.604492 C323.388008,606.88553 335.251888,598.848506 347.573286,592.601869 C355.201193,588.737157 360.446858,586.252699 362.140853,585.554685 C366.859979,583.610498 378.495101,578.655385 380.396162,568.183199 C380.924673,565.26889 381.210621,562.159374 380.946365,558.586487 C379.920897,544.854929 373.284933,528.88933 374.300541,517.900533 C375.507439,504.853186 378.053361,500.777492 382.360328,493.562706 C383.452847,491.732883 384.139122,489.66053 384.691297,487.116918 C386.012574,481.024081 379.573815,469.30375 378.009976,455.205438 C376.450081,441.152477 383.63822,428.430476 397.300614,421.042172 Z" id="Stroke-7" stroke="url(#linearGradient-6)" stroke-width="1.1358"></path>
                    <path d="M388.99503,410.148108 C404.1156,401.917254 418.888006,399.888106 438.07443,411.633523 C450.305431,419.056658 461.379818,429.151176 477.379651,426.747719 C481.337319,426.154735 485.239909,424.962857 489.116928,423.018421 C501.802313,416.655171 509.853372,406.190285 515.270577,393.375133 C523.317702,374.332664 535.056946,351.289032 549.833285,338.757566 C563.456945,327.291896 589.042122,312.17179 614.735486,311.720649 C638.674258,311.29906 649.92371,322.282068 657.7761,329.114189 C671.297473,340.885216 677.405106,361.279137 654.744904,381.395281 C653.757454,384.182896 649.064118,388.627321 643.766902,394.054799 C637.291435,400.691885 631.215275,406.647335 626.860267,412.143765 C619.733713,421.133087 617.924044,425.843468 620.593305,431.249275 C620.640514,435.29181 622.965545,441.434415 630.223891,443.34733 C640.865531,446.152676 653.155543,448.646755 669.210453,450.628621 C676.616326,451.544693 681.66963,455.742862 685.98333,457.874452 C701.589757,465.587184 708.456663,485.496473 693.161027,507.779668 C679.987818,526.97186 669.080629,532.655444 664.09027,546.319686 C659.747065,558.210886 654.323959,565.576889 653.218488,575.054782 C652.703126,579.465716 653.568619,584.176097 653.529279,589.461732 C653.426993,603.500282 651.599621,604.571988 641.343519,614.41828 C639.815136,615.883994 638.139225,617.207865 636.443644,618.612508 C623.949061,628.967072 618.628241,637.036382 611.314818,639.258595 C608.94848,639.977662 607.201756,642.089551 605.403889,645.405139 C601.046914,653.438989 603.045418,666.061076 601.637024,687.243015 C600.169618,709.329205 597.364632,730.966225 569.198709,740.583991 C566.877612,741.37792 564.540779,741.762079 562.249187,741.961054 C533.58954,744.575305 511.704349,706.320944 502.55962,689.98532 C496.835559,679.745018 482.080856,646.072985 464.237915,640.822812 C452.927484,637.497373 440.067033,642.926821 430.955744,657.786881 C422.255564,671.975155 411.446726,688.182727 398.657088,698.239814 C374.852075,716.959195 341.621046,718.966672 313.333168,703.988409 C289.034429,691.153557 278.573757,659.534312 286.776277,640.558825 C288.792485,635.893755 291.227669,629.493075 296.937962,623.456852 C306.991459,612.838302 319.67291,603.795789 333.890613,596.689832 C341.931837,592.670937 347.618525,590.003494 349.872743,589.073633 C356.147573,586.483022 368.105157,581.31756 370.585584,570.72462 C371.319286,567.586336 371.783506,564.225437 371.582868,560.263674 C370.79999,545.050976 363.276095,527.149164 364.184863,515.716985 C365.249027,502.34234 367.560289,497.360092 372.684406,489.2041 C373.953141,487.186773 374.747822,484.94092 375.377272,482.257717 C377.043348,475.17146 370.259056,462.779868 368.364805,447.502158 C366.401708,431.666925 374.979932,417.793858 388.99503,410.148108 Z" id="Stroke-9" stroke="url(#linearGradient-7)" stroke-width="1.0893"></path>
                    <path d="M381.097656,400.290019 C396.557741,391.818959 412.543398,388.335515 434.302474,401.693648 C447.424058,409.679746 459.340961,420.650526 477.011598,417.793983 C481.342154,417.092169 485.57232,415.771338 489.731622,413.677723 C503.365,406.81926 512.091071,395.434487 517.807404,381.297655 C526.14963,360.661153 539.932609,335.561426 555.752917,322.347204 C570.48665,310.134448 598.839981,293.1805 627.47283,293.517608 C654.464005,293.835002 665.695893,307.593327 673.697579,315.169376 C686.795543,327.571385 692.856353,349.400578 665.67424,371.277084 C664.745139,373.901003 659.367376,378.642194 653.418766,384.676616 C646.49775,391.694762 639.974358,398.342286 635.569002,404.674388 C628.486574,414.850699 627.872423,420.41396 632.612413,425.586885 C633.736389,429.431094 637.34453,435.075181 645.651324,436.297443 C658.493391,438.189976 671.886619,440.951892 687.941172,444.261855 C695.818847,445.88628 700.76946,451.201145 705.113795,454.008403 C719.804222,463.500642 726.443751,485.909423 707.52119,508.962849 C690.689106,529.465296 679.791852,534.344485 676.341187,550.11757 C673.463335,563.274621 669.550087,571.704281 668.433985,582.298527 C667.930066,587.073232 668.556028,592.196872 667.993056,597.886301 C666.439961,613.545046 662.070036,612.385869 650.237776,621.546915 C648.454374,622.926887 646.537119,624.20829 644.619864,625.65529 C630.51603,636.300791 627.112607,647.770334 620.471109,650.881186 C618.31961,651.888566 616.841315,654.486857 615.183893,658.404007 C611.310014,667.551253 613.21349,681.839882 610.656494,703.781444 C607.861317,727.763394 603.160695,748.908514 574.606584,757.493914 C572.191314,758.221357 569.752424,758.517065 567.358808,758.647177 C537.476003,760.370171 514.541772,721.421435 505.065728,704.48523 C498.810043,693.289711 483.216104,657.282287 464.846673,650.327226 C452.18767,645.532807 437.82794,650.983698 428.200327,665.99977 C418.972305,680.390911 407.417595,698.442922 393.536194,709.754753 C369.444524,729.387818 334.544179,734.962907 301.816986,718.957198 C273.691993,705.236329 263.151026,670.2146 270.42636,650.770788 C272.323931,645.696432 274.587631,638.532404 280.62482,631.677884 C290.768163,620.161028 304.283434,610.071458 320.446251,602.101132 C328.926267,597.919815 335.073688,595.067215 337.894455,593.904095 C345.740635,590.663131 358.09453,585.28321 361.125919,574.548996 C362.076673,571.181863 362.710509,567.566335 362.572719,563.207594 C362.029431,546.494156 353.594689,526.626496 354.399778,514.731133 C355.328879,501.006322 357.405578,495.107925 363.367966,486.00405 C364.814765,483.798065 365.722214,481.373257 366.43085,478.544313 C368.454401,470.459646 361.285362,457.375536 359.063,440.894722 C356.683162,423.25276 366.684778,408.205146 381.097656,400.290019 Z" id="Stroke-11" stroke="url(#linearGradient-8)" stroke-width="1.0428"></path>
                    <path d="M371.627486,391.071994 C387.417818,382.376294 404.605873,377.447549 428.92822,392.391314 C442.931042,400.927515 455.683787,412.75217 475.017642,409.445993 C479.716747,408.642585 484.272142,407.191333 488.711389,404.954396 C503.283143,397.611491 512.68529,385.329996 518.69353,369.895916 C527.33382,347.707704 543.145807,320.596653 560.001164,306.722128 C575.840712,293.786881 606.943,275.038746 638.50004,276.155246 C668.531397,277.218579 679.748615,293.698269 687.884938,302.021803 C700.57075,315.000372 706.559303,338.255856 674.870365,361.852 C673.998265,364.309481 667.942778,369.338651 661.341982,375.96479 C653.981298,383.356923 647.008432,390.678167 642.56328,397.835973 C635.515606,409.17819 636.110131,415.587724 642.9196,420.516469 C645.122491,424.1574 650.03027,430.82686 659.359578,429.822601 C674.321119,428.20988 688.88303,433.902649 704.931252,438.45332 C713.276248,440.82022 718.134812,447.17265 722.491376,450.681648 C736.307178,461.811199 742.630398,486.750293 720.123122,510.580765 C699.606124,532.306231 688.68223,536.415816 686.853379,554.277839 C685.378879,568.666308 683.040154,578.151632 681.91607,589.842386 C681.423914,594.973952 681.797953,600.497375 680.723084,606.582002 C677.675654,623.821779 670.797283,620.430929 657.404735,628.904117 C655.36524,630.195869 653.211566,631.432486 651.071672,632.919183 C635.367959,643.838036 633.881648,658.687283 627.920655,662.676751 C625.985498,663.970472 624.762983,667.050199 623.260923,671.561488 C619.847329,681.802959 621.632871,697.729322 617.973199,720.394066 C613.803654,746.223209 607.244199,766.814454 578.332989,774.37987 C575.821025,775.037561 573.287407,775.244321 570.791191,775.305364 C539.700715,776.075296 515.730751,736.562633 505.928973,719.058992 C499.147064,706.93109 482.772051,668.572341 463.837827,660.004634 C449.876346,653.68568 433.983646,659.215011 423.847202,674.359628 C414.096608,688.92532 401.79074,708.776169 386.837074,721.335312 C362.45173,741.820224 325.921946,750.974732 288.774014,733.973221 C256.835061,719.389807 246.16512,680.999551 252.563147,661.156578 C254.330971,655.674507 256.443305,647.778275 262.796054,640.106525 C273.038804,627.732481 287.360542,616.591116 305.46007,607.779236 C314.373999,603.439263 320.978732,600.410733 324.362796,599.016586 C333.782661,595.131483 346.549187,589.550954 350.102553,578.689205 C351.277821,575.101442 352.075114,571.237999 352.000306,566.490414 C351.697138,548.303484 342.357987,526.511067 343.056848,514.174436 C343.850203,500.126627 345.68693,493.321297 352.488525,483.284616 C354.110671,480.892117 355.136324,478.294828 355.917868,475.325372 C358.305808,466.257506 350.744324,452.505067 348.198894,434.849803 C345.39951,415.436101 356.825403,399.241935 371.627486,391.071994 Z" id="Stroke-13" stroke="url(#linearGradient-9)" stroke-width="0.9963"></path>
                    <path d="M363.94281,379.861311 C380.082669,370.916809 398.491057,364.525062 425.405933,381.100205 C440.308054,390.212391 453.91134,402.928813 474.929225,399.160838 C480.002372,398.253367 484.890252,396.667267 489.614546,394.280226 C505.14145,386.430607 515.232557,373.215077 521.537528,356.436739 C530.485503,332.629452 548.345975,303.424688 566.25572,288.847952 C583.215482,275.151068 617.105441,254.555437 651.626096,256.451261 C684.731629,258.268174 695.959958,277.500627 704.227965,286.612813 C716.538328,300.179495 722.435318,324.961327 686.197994,350.346824 C685.384004,352.645091 678.643459,357.977466 671.384563,365.217501 C663.57578,373.002018 656.139501,381.019322 651.653688,389.026761 C644.62539,401.565634 647.311753,407.472083 655.329453,413.54227 C659.125444,416.418557 664.854907,423.039145 675.192379,421.470799 C692.189589,418.894373 708.020014,425.055307 724.096804,430.796043 C732.908784,433.944571 737.709944,441.297054 742.063705,445.546382 C755.087541,458.258858 761.016067,485.84793 734.913209,510.572551 C710.661046,533.543388 699.659373,536.950347 699.513525,556.940341 C699.399212,572.619851 698.675885,583.176098 697.546548,596.001022 C697.061702,601.503054 697.177986,607.435148 695.599279,613.941316 C691.022804,632.798944 681.649111,627.170655 666.685891,634.992655 C664.385828,636.194067 661.997074,637.399425 659.629999,638.926342 C642.329269,650.18292 642.73922,668.428992 637.451243,673.305659 C635.728659,674.891759 634.755025,678.460485 633.4148,683.579802 C630.438712,694.946854 632.090342,712.551779 627.360135,736.013833 C621.766666,763.762699 613.368578,783.839494 584.082686,790.436409 C581.473189,791.024292 578.83807,791.148576 576.238427,791.139241 C543.911406,791.014428 518.874816,750.762199 508.734436,732.636465 C501.418383,719.537328 484.291093,678.66368 464.723805,668.50593 C449.480714,660.59121 431.998658,666.266846 421.341897,681.58534 C411.055668,696.371188 397.974676,718.065648 381.945188,731.924299 C357.220003,753.301144 319.039352,766.088585 277.423388,748.039788 C241.633462,732.547691 230.769754,690.650179 236.349427,670.37019 C237.975435,664.457823 239.960151,655.8191 246.62383,647.298742 C256.992837,634.037839 272.121614,621.798825 292.183604,612.120457 C301.537587,607.608751 308.611217,604.397095 312.562911,602.765621 C323.564583,598.226297 336.781569,592.436241 340.841663,581.408504 C342.246928,577.589237 343.202824,573.46222 343.190999,568.313312 C343.1299,548.599505 332.875206,524.811945 333.464511,511.998858 C334.128711,497.583889 335.723185,489.84869 343.370352,478.852517 C345.171773,476.266227 346.316877,473.490551 347.174227,470.369642 C349.937456,460.294748 341.963116,445.828487 339.095428,426.947186 C335.869033,405.702515 348.737166,388.310649 363.94281,379.861311 Z" id="Stroke-15" stroke="url(#linearGradient-10)" stroke-width="0.9495"></path>
                    <path d="M355.870388,370.667495 C372.302697,361.497977 391.871618,353.664284 421.283013,371.822059 C437.032937,381.482168 451.439722,395.051243 474.066595,390.834919 C479.498146,389.822213 484.701579,388.108101 489.694594,385.576336 C506.12297,377.246142 516.870046,363.13722 523.450049,345.066137 C532.678966,319.713029 552.517302,288.502384 571.421537,273.270423 C589.444767,258.852173 626.000559,236.478076 663.364593,239.141846 C699.428753,241.713016 710.643863,263.622136 719.003574,273.508823 C730.918768,287.600012 736.682662,313.851552 696.026659,340.950296 C695.271512,343.082101 687.871467,348.703208 679.975856,356.53099 C671.749869,364.689773 663.869991,373.372641 659.360742,382.205248 C652.373668,395.902388 656.053042,402.68003 666.33995,408.48437 C671.067484,411.154052 678.204015,417.106161 689.556782,415.00785 C708.553443,411.496874 725.554079,418.130688 741.624547,424.998961 C750.859363,428.947331 755.628194,437.228269 759.936857,442.224809 C772.196193,456.432243 777.63561,486.604569 748.033462,512.180314 C720.124495,536.292168 709.047042,539.042629 710.626164,561.077845 C711.839512,578.018008 712.759847,589.591225 711.633026,603.511003 C711.157127,609.36657 711.00767,615.687115 708.936916,622.596762 C702.826913,642.998645 691.013979,635.153131 674.534473,642.31103 C671.983886,643.418307 669.362504,644.586663 666.780453,646.151037 C647.919481,657.680908 650.247851,679.300402 645.648141,685.047606 C644.145714,686.925249 643.412199,690.970161 642.248014,696.6819 C639.703327,709.143697 641.207721,728.359493 635.449726,752.558037 C628.413489,782.125498 618.236706,801.615158 588.683721,807.246117 C585.983678,807.760351 583.25807,807.801726 580.563926,807.720946 C547.109349,806.70627 521.094149,765.837486 510.651884,747.145775 C502.825102,733.115663 485.045721,689.827419 464.871109,678.135988 C448.436834,668.611825 429.387076,674.45163 418.250627,689.896378 C407.462253,704.856445 393.64346,728.318118 376.599561,743.445656 C351.606955,765.63061 311.92045,782.030926 265.982353,762.988512 C226.466937,746.637452 215.403249,701.34941 220.189779,680.707157 C221.656809,674.378731 223.526977,665.033861 230.470788,655.68505 C240.94255,641.58598 256.812432,628.273037 278.766753,617.765723 C288.530565,613.092303 296.046635,609.709393 300.553918,607.847511 C313.098401,602.665768 326.73824,596.690016 331.273054,585.52267 C332.911172,581.489579 334.014394,577.109725 334.065524,571.571368 C334.244478,550.391238 323.113929,524.683486 323.591795,511.431621 C324.122757,496.698132 325.467863,488.052699 333.937699,476.132719 C335.910127,473.358614 337.174605,470.415069 338.098873,467.152344 C341.235485,456.101242 332.867908,440.967793 329.689999,420.914644 C326.042089,397.904157 340.311217,379.370066 355.870388,370.667495 Z" id="Stroke-17" stroke="url(#linearGradient-11)" stroke-width="0.903"></path>
                    <path d="M345.825565,360.682089 C362.59308,351.291614 383.370005,342.017242 415.352817,361.754555 C431.988522,371.95971 447.247099,386.429148 471.531765,381.714233 C477.337343,380.610281 482.865528,378.756588 488.139927,376.082309 C505.511412,367.270376 516.943541,352.271592 523.809507,332.908166 C533.347101,306.013863 555.211957,272.800865 575.156704,256.91459 C594.288944,241.776091 633.602011,217.628875 673.906609,221.056831 C713.015074,224.38246 724.264241,248.948823 732.719806,259.618386 C744.291615,274.219669 749.922101,301.952266 704.746404,330.761266 C704.048004,332.725158 695.970165,338.636513 687.418201,347.052913 C678.752132,355.581479 670.40477,364.930629 665.868117,374.588728 C658.893948,389.439925 663.629301,397.151842 676.161164,402.626339 C681.866408,405.119577 690.152784,409.065072 702.786948,407.750563 C724.185548,405.521014 742.013452,410.446487 758.149456,418.404383 C767.814927,423.174398 772.605364,432.348411 776.854788,438.100372 C788.44627,453.781992 793.346878,486.52468 760.173834,512.974254 C728.53924,538.199839 717.331386,540.348707 720.666003,564.397531 C723.192049,582.61765 725.771213,595.188134 724.641968,610.198725 C724.175712,616.409189 723.756671,623.109643 721.193246,630.429963 C713.520676,652.357469 699.255599,642.307772 681.221126,648.809475 C678.409817,649.822906 675.553261,650.95244 672.747854,652.556219 C652.281767,664.359251 656.533157,689.346729 652.604408,695.962566 C651.319745,698.129144 650.820044,702.651213 649.832447,708.95023 C647.7038,722.512499 649.049451,743.320311 642.272014,768.264497 C633.74956,799.633641 621.794123,818.526756 591.904546,823.220025 C589.103074,823.658851 586.281929,823.627366 583.48636,823.467972 C548.814214,821.633956 521.755619,780.077368 510.984512,760.822172 C502.62928,745.864713 484.18757,700.150104 463.320148,686.942043 C445.687009,675.782491 424.98681,681.815852 413.340243,697.389241 C402.022219,712.523805 387.418761,737.737584 369.33117,754.141396 C343.992017,777.123658 302.709658,797.136467 252.338255,777.10398 C209.00004,759.895325 197.668245,711.2152 201.713067,690.216509 C203.011501,683.47473 204.795866,673.427001 212.027754,663.249396 C222.641476,648.317518 239.281115,633.924825 263.186088,622.592105 C273.382736,617.757152 281.360241,614.203254 286.433974,612.113421 C300.553469,606.290619 314.659193,600.139189 319.669972,588.822211 C321.548768,584.577606 322.798019,579.941404 322.912124,574.018242 C323.331164,551.374447 311.297034,523.748112 311.664924,510.059901 C312.068226,495.00405 313.162059,485.452214 322.477345,472.612137 C324.625665,469.650556 326.010662,466.537452 327.008096,463.135078 C330.527641,451.11165 321.737631,435.308024 318.243661,414.085001 C314.165395,389.315952 329.872522,369.639641 345.825565,360.682089 Z" id="Stroke-19" stroke="url(#linearGradient-12)" stroke-width="0.8565"></path>
                    <path d="M338.158434,351.067431 C355.257874,341.430078 377.236683,330.691257 411.779872,352.058556 C429.298386,362.836785 445.392438,378.194285 471.337704,373.017976 C477.511681,371.810105 483.366926,369.821945 488.919177,366.998325 C507.230589,357.682151 519.346381,341.755198 526.496232,321.049963 C536.341543,292.547752 560.224881,257.245601 581.204206,240.662497 C601.437854,224.767071 643.496847,198.787005 686.73043,202.984013 C728.872058,207.076587 740.167407,234.351223 748.70237,245.838806 C759.946565,260.975618 765.418149,290.273881 715.73514,320.866713 C715.097674,322.669653 706.344319,328.884376 697.138442,337.908927 C688.034875,346.832986 679.218561,356.870336 674.657923,367.378617 C667.694983,383.419854 673.534488,392.113373 688.263104,397.246333 C694.972238,399.583258 704.5421,402.915248 718.288939,400.982261 C741.790585,397.675886 760.711918,403.279777 776.93189,412.327973 C787.009364,417.949598 791.859222,428.016504 796.026362,434.544525 C807.002978,451.738462 811.309809,487.117459 774.570904,514.530024 C739.215143,540.912057 727.864704,542.504161 732.972303,568.608363 C736.799067,588.174693 741.046874,601.754868 739.919504,617.894627 C739.459111,624.473879 738.770491,631.569383 735.718916,639.323009 C726.47369,662.818367 709.773651,650.542614 690.185339,656.414483 C687.118026,657.334672 684.023167,658.432199 680.99717,660.079475 C658.929824,672.181831 665.105769,700.603254 661.849576,708.104666 C660.783197,710.563757 660.511684,715.578491 659.705014,722.480893 C657.983462,737.182241 659.163955,759.617511 651.384507,785.3828 C641.350317,818.621914 627.642828,836.954757 597.428113,840.745857 C594.530003,841.108415 591.614186,841.000042 588.716076,840.767531 C552.838931,838.040462 524.743201,795.761033 513.648535,775.891258 C504.765326,759.966276 485.696432,711.702664 464.11112,696.952055 C445.313739,684.108819 422.939464,690.370833 410.788258,706.112565 C398.943979,721.456272 383.55232,748.478693 364.434238,766.212526 C338.746713,790.040887 295.892855,813.729347 241.100279,792.653671 C193.951395,774.543487 182.32354,722.346904 185.658432,700.940197 C186.775965,693.761936 188.491615,682.993558 196.005452,671.957202 C206.76171,656.156357 224.156272,640.643194 250.007098,628.45808 C260.631534,623.449257 269.072057,619.717271 274.708911,617.390198 C290.397661,610.911437 304.976748,604.574548 310.452267,593.075142 C312.577154,588.610157 313.966201,583.703796 314.143275,577.378729 C314.802383,553.213426 301.872052,523.601865 302.125857,509.440414 C302.399338,494.023802 303.241423,483.539165 313.401532,469.744214 C315.723168,466.589562 317.232231,463.302891 318.29861,459.748243 C322.206041,446.723728 312.992294,430.209588 309.185205,407.764467 C304.673755,381.169628 321.818446,360.300847 338.158434,351.067431 Z" id="Stroke-21" stroke="url(#linearGradient-13)" stroke-width="0.81"></path>
                    <path d="M330.499186,340.292831 C347.924491,330.433034 371.099872,318.258842 408.198972,341.20009 C426.594099,352.524097 443.519739,368.730769 471.119314,363.108126 C477.662164,361.795455 483.841085,359.681797 489.671815,356.714018 C508.916764,346.917198 521.715256,330.102407 529.145305,308.107778 C539.295968,278.067869 565.189995,240.765955 587.200804,223.528038 C608.532934,206.917921 653.325686,179.172728 699.475795,184.128211 C744.640344,188.977421 755.994923,218.879567 764.591512,231.167905 C775.523147,246.792042 780.818803,277.58964 726.642589,309.888839 C726.06227,311.526234 716.637497,318.030551 706.777977,327.640409 C697.243042,336.935384 687.955972,347.633559 683.374403,358.967405 C676.422379,376.162025 683.401944,385.821084 700.288241,390.587636 C708.019269,392.770174 718.840742,395.474238 733.70871,392.927616 C759.291922,388.546796 779.288335,394.836598 795.615952,404.936494 C806.085299,411.413259 811.030797,422.329885 815.093029,429.617475 C825.497459,448.290081 829.166255,486.192242 788.870482,514.512098 C749.802232,541.967992 738.302081,543.036628 745.191156,571.108513 C750.3137,591.985305 756.230985,606.52703 755.105757,623.757074 C754.653305,630.688452 753.69332,638.155133 750.156325,646.326366 C739.334852,671.320262 720.209901,656.855291 699.072522,662.088265 C695.747983,662.910898 692.417543,663.971663 689.171691,665.658259 C665.508449,678.03319 673.609308,709.816767 671.026397,718.182834 C670.176574,720.930195 670.131329,726.424916 669.507732,733.911277 C668.189719,749.71844 669.196917,773.710613 660.43115,800.241535 C648.862148,835.250703 633.429599,852.972753 602.896955,855.871651 C599.900936,856.155047 596.891146,855.972021 593.893159,855.668945 C556.819633,852.055654 527.695491,809.158649 516.275995,788.724663 C506.868927,771.872479 487.204968,721.180134 464.87941,704.928197 C444.947914,690.417961 420.8814,696.904566 408.226513,712.776674 C395.856867,728.29257 379.672855,757.047359 359.538739,776.072241 C333.501107,800.680405 289.091956,827.990665 229.893524,805.925187 C178.945456,786.961314 166.996788,731.380399 169.64855,709.617996 C170.573126,702.025362 172.237363,690.563594 180.023473,678.694446 C190.929534,662.066616 209.066959,645.464371 236.855384,632.463609 C247.908984,627.291644 256.806551,623.391022 263.007112,620.834559 C280.261272,613.716219 295.316122,607.217806 301.249145,595.557267 C303.623535,590.887148 305.148101,585.719119 305.388098,579.008159 C306.2871,553.382527 292.463707,521.856761 292.60141,507.259932 C292.750916,491.523617 293.339103,480.132698 304.337622,465.419756 C306.835944,462.078052 308.468706,458.622203 309.603771,454.926255 C313.900098,440.937545 304.258935,423.752765 300.141621,400.138453 C295.196124,371.787109 313.774198,349.778704 330.499186,340.292831 Z" id="Stroke-23" stroke="url(#linearGradient-14)" stroke-width="0.7632"></path>
                    <path d="M320.865206,331.284244 C338.655888,321.192485 363.079146,307.566248 402.813507,332.110792 C422.127809,343.991438 439.922432,361.067529 469.237832,354.988464 C476.162124,353.573492 482.67841,351.328036 488.802457,348.212737 C509.02344,337.926149 522.533005,320.204563 530.259514,296.895905 C540.739577,265.286343 568.702838,225.942651 591.791697,208.03214 C614.26756,190.682501 661.893998,161.145213 711.067709,166.862171 C759.356419,172.474826 770.81018,205.029015 779.470966,218.137675 C790.124482,234.263236 795.243294,266.600948 736.448897,300.640955 C735.924598,302.114966 725.809178,308.916277 715.273926,319.122178 C705.282682,328.798696 695.504312,340.173572 690.892059,352.341542 C683.934259,370.706654 692.098341,381.343542 711.158377,385.751799 C719.94531,387.784713 732.021922,389.860924 748.050487,386.700361 C775.765396,381.235303 796.865467,388.231443 813.359198,399.383939 C824.223616,406.732346 829.314833,418.502785 833.260872,426.557693 C843.151592,446.745148 846.15744,487.181064 802.205036,516.454644 C759.340651,545.002042 747.654306,545.57669 756.350571,575.635491 C762.778159,597.857828 770.384434,613.363477 769.260936,631.701038 C768.813508,638.994342 767.579632,646.836709 763.546868,655.438714 C751.119409,681.947294 729.536431,665.286445 706.794476,669.889531 C703.207169,670.615712 699.633658,671.644961 696.160671,673.372841 C670.84847,686.032803 680.896874,721.20833 678.977073,730.451894 C678.346337,733.488474 678.523732,739.475044 678.086159,747.549632 C677.167651,764.485998 677.995491,790.047983 668.230918,817.383111 C655.084026,854.188119 637.910283,871.317345 606.992421,873.346324 C603.893933,873.549025 600.781648,873.293189 597.677247,872.917306 C559.328533,868.416555 529.110393,824.849596 517.343235,803.829689 C507.389441,786.031352 487.107355,732.854787 463.973162,715.080066 C442.884917,698.877755 417.046446,705.608218 403.866047,721.629476 C390.943855,737.333891 373.919911,767.845325 352.737056,788.194153 C326.283618,813.602637 280.232047,844.568673 216.49229,821.4883 C161.630134,801.647208 149.311083,742.627735 151.307755,720.478213 C152.029158,712.460696 153.663157,700.296662 161.732629,687.577661 C172.817804,670.107975 191.72804,652.394262 221.522405,638.563356 C233.025443,633.224249 242.40369,629.150547 249.180154,626.359963 C268.041114,618.596314 283.610424,611.932762 290.006476,600.091476 C292.639796,595.214842 294.299419,589.775368 294.60296,582.672958 C295.746168,555.556275 280.998785,522.085011 281.020467,507.031995 C281.044119,490.957601 281.377226,478.64597 293.242937,463.000594 C295.921591,459.468085 297.679766,455.843081 298.888019,452.0016 C303.588969,437.031239 293.49326,419.154183 289.05643,394.347899 C283.663642,364.208412 303.719058,341.033576 320.865206,331.284244 Z" id="Stroke-25" stroke="url(#linearGradient-15)" stroke-width="0.7167"></path>
                    <path d="M312.432804,321.669994 C330.54207,311.33369 356.152704,296.243907 398.4267,322.414633 C418.610267,334.864688 437.231706,352.826651 468.190612,346.290372 C475.479231,344.767604 482.318715,342.38988 488.718911,339.12568 C509.865758,328.336289 524.052958,309.688785 532.056651,285.040828 C542.841839,251.825577 572.802006,210.397624 596.911579,191.795429 C620.47943,173.69163 670.820155,142.328128 722.894389,148.811219 C774.186574,155.197782 785.726232,190.432226 794.415449,204.38141 C804.781049,221.02154 809.692003,254.936121 746.424812,290.755639 C745.957946,292.065653 735.174729,299.173216 723.989652,309.984277 C713.570865,320.054638 703.31952,332.114644 698.694201,345.134014 C691.744403,364.689663 701.091566,376.310371 722.264022,380.370429 C732.095779,382.253697 745.382736,383.703576 762.536602,379.925221 C792.307659,373.367273 814.447335,381.083549 831.087057,393.299181 C842.305622,401.537493 847.557368,414.166813 851.36321,422.994139 C860.74386,444.738397 863.05258,487.726547 815.548507,517.990819 C768.988015,547.652288 757.143023,547.756695 767.628786,579.819528 C775.348814,603.423414 784.62506,619.900038 783.506158,639.365069 C783.066871,647.026187 781.56187,655.25268 777.044895,664.296699 C763.034986,692.342813 739.049517,673.468765 714.760683,677.450025 C710.919383,678.080408 707.109602,679.0772 703.416045,680.848181 C676.519067,693.806482 688.492103,732.417414 687.243188,742.546873 C686.83345,745.878051 687.229399,752.359172 686.981192,761.032841 C686.461139,779.118911 687.103325,806.266729 676.371325,834.442859 C661.660132,873.07349 642.806246,889.619062 611.579434,890.797089 C608.384261,890.919226 605.179238,890.590245 601.974215,890.143067 C562.446256,884.747387 531.209595,840.468923 519.124275,818.836951 C508.650332,800.077161 487.820638,744.357253 463.915934,725.039968 C441.742771,707.119374 414.177998,714.10874 400.501001,730.293812 C387.058422,746.205062 369.230852,778.500348 347.057688,800.199297 C320.249356,826.431091 272.678307,861.092282 204.55335,836.974239 C145.911478,816.234653 133.233219,753.720404 134.588508,731.152709 C135.094772,722.705582 136.708118,709.822139 145.036844,696.239365 C156.277077,677.909022 175.911044,659.060584 207.634269,644.3904 C219.560027,638.874553 229.393754,634.623411 236.731622,631.599544 C257.151577,623.179997 273.20033,616.352166 280.039813,604.30989 C282.929653,599.223491 284.718319,593.504739 285.08472,586.001217 C286.467588,557.368059 270.834483,521.911011 270.739928,506.38981 C270.639464,489.958495 270.71432,476.714552 283.418187,460.117761 C286.268629,456.392594 288.15185,452.592569 289.426374,448.59949 C294.522498,432.633082 283.995367,414.046646 279.249885,388.017757 C273.424898,356.061302 294.908598,331.693076 312.432804,321.669994 Z" id="Stroke-27" stroke="url(#linearGradient-16)" stroke-width="0.6702"></path>
                    <path d="M304.999409,310.891083 C323.444393,300.332588 350.266473,283.812066 395.119707,311.552219 C416.193494,324.546684 435.657287,343.357569 468.288749,336.372355 C475.950511,334.749031 483.117648,332.242225 489.798043,328.836195 C511.892611,317.567373 526.774717,298.036322 535.059195,272.100519 C546.159685,237.353509 578.146755,193.93106 603.299721,174.675482 C627.977769,155.854759 681.080009,122.736976 736.107543,129.972083 C790.451273,137.116677 802.103536,174.948988 810.813667,189.714352 C820.913084,206.831077 825.607096,242.251029 757.806017,279.772448 C757.398099,280.91763 745.938956,288.316053 734.091601,299.708838 C723.233497,310.151241 712.503482,322.8722 707.858736,336.710794 C700.908367,357.418509 711.464967,369.991893 734.755699,373.69504 C745.645334,375.428554 760.147111,376.247103 778.446269,371.859208 C810.297365,364.222697 833.481685,372.644307 850.300909,385.894568 C861.868436,395.010764 867.311282,408.471566 870.97269,418.046228 C879.872001,441.319779 881.468201,486.739408 830.364167,517.938717 C780.070058,548.642175 768.051259,548.293898 780.336091,582.281389 C789.353639,607.223521 800.308303,624.625557 799.194904,645.177827 C798.761368,653.190162 796.983871,661.779023 791.976531,671.247431 C776.373179,700.762418 749.966899,679.722168 724.10451,683.077038 C720.005625,683.608308 715.956005,684.572464 712.040387,686.380749 C683.531458,699.611334 697.440079,741.567872 696.860717,752.565156 C696.669567,756.181726 697.286371,763.14923 697.227252,772.399227 C697.103103,791.59971 697.556346,820.26073 685.854817,849.228706 C669.549924,889.5875 649.016086,905.511819 617.448758,905.85443 C614.153885,905.887643 610.8531,905.492142 607.544432,904.974646 C566.797966,898.695825 534.515304,853.799594 522.098441,831.606291 C511.09451,811.919795 489.711336,753.785109 465.001758,732.961301 C441.734673,713.355479 412.370496,720.566975 398.217518,736.910407 C384.210366,752.962624 365.588027,786.993404 342.409619,810.003288 C315.215092,836.999663 266.083647,875.284537 193.511702,850.179089 C131.035233,828.585924 117.970036,762.722247 118.699165,739.775328 C118.980963,730.918864 120.592929,717.343938 129.182852,702.924883 C140.5947,683.773592 160.961036,663.829331 194.648749,648.351672 C207.008464,642.672988 217.306913,638.255579 225.209091,635.001059 C247.209069,625.945861 263.756348,618.974421 271.043692,606.753249 C274.19274,601.470066 276.112122,595.482459 276.539746,587.594087 C278.163535,557.502574 261.630051,520.138568 261.419195,504.182766 C261.194544,487.432027 261.009306,473.280574 274.565187,455.770316 C277.592056,451.858597 279.600115,447.89375 280.942106,443.757717 C286.442101,426.831855 275.4697,407.57431 270.413095,380.379201 C264.14653,346.673086 287.082551,321.166234 304.999409,310.891083 Z" id="Stroke-29" stroke="url(#linearGradient-17)" stroke-width="0.6237"></path>
                    <path d="M295.801999,300.477724 C314.563215,289.675943 342.565236,271.690043 389.942821,301.056707 C411.882102,314.621459 432.167372,334.316738 466.431008,326.872667 C474.454933,325.141625 481.943273,322.502721 488.897998,318.94611 C511.912386,307.177388 527.471909,286.723916 536.02748,259.448681 C547.430314,223.100739 581.404498,177.597377 607.573323,157.650024 C633.334553,138.076843 689.135782,103.138942 747.049813,111.138364 C804.379034,119.057044 816.144175,159.558305 824.851364,175.171161 C834.684856,192.800613 839.148718,229.794495 766.894013,269.092495 C766.545489,270.075192 754.421979,277.779214 741.928285,289.77441 C730.643594,300.609669 719.441604,314.016874 714.784774,328.704145 C707.843833,350.603105 719.605036,364.150133 744.976392,367.511781 C756.920718,369.095123 772.608229,369.286149 792.034988,364.282079 C825.920564,355.550065 850.112452,364.691699 867.109389,379.004797 C879.00055,389.020815 884.649787,403.33982 888.150778,413.676839 C896.576392,438.54555 897.446717,486.461343 842.797389,518.663843 C788.831325,550.462631 776.648743,549.676868 790.721624,585.646699 C801.027691,611.986501 813.645436,630.340666 812.538824,652.019061 C812.111537,660.400534 810.061745,669.366898 804.573971,679.28051 C787.391942,710.317167 758.598358,687.073153 731.192962,689.810523 C726.841337,690.243776 722.556659,691.17527 718.4236,693.02841 C688.336343,706.555745 704.189255,751.942916 704.254234,763.827829 C704.291647,767.736951 705.118652,775.206623 705.24861,785.04934 C705.518372,805.406314 705.780257,835.627668 693.1251,865.451216 C675.238147,907.606716 653.064547,922.937957 621.185444,922.457441 C617.79669,922.406238 614.402028,921.943445 610.995552,921.352646 C569.078175,914.178373 535.785286,868.574575 523.055304,845.77563 C511.534327,825.125225 489.632457,764.461953 464.133113,742.090353 C439.817175,720.754621 408.707975,728.23414 394.060128,744.741073 C379.538301,760.9979 360.099727,796.79443 335.955097,821.16687 C308.400053,848.979732 257.771549,890.965869 180.836385,864.824969 C114.599131,842.33324 101.146504,772.999003 101.265823,749.615167 C101.313874,740.335679 102.932443,726.042275 111.771559,710.756328 C123.343732,690.745955 144.418596,669.666236 180.02907,653.352298 C192.806308,647.497477 203.557383,642.904997 212.020409,639.415343 C235.572351,629.704572 252.598825,622.579532 260.323452,610.149115 C263.731897,604.662559 265.773814,598.39024 266.26411,590.103295 C268.126842,558.495532 250.714433,519.148299 250.383631,502.724078 C250.039045,485.620439 249.594037,470.535363 263.981968,452.076824 C267.183662,447.972738 269.312217,443.833204 270.724034,439.545971 C276.623342,421.628997 265.212631,401.659981 259.852846,373.246473 C253.150162,337.721711 277.511388,311.02546 295.801999,300.477724 Z" id="Stroke-31" stroke="url(#linearGradient-18)" stroke-width="0.5772"></path>
                    <path d="M288.20502,291.431908 C307.279032,280.397996 336.457646,260.966574 386.355025,291.92808 C409.157273,306.049283 430.259682,326.608904 466.15109,318.711505 C474.538146,316.876457 482.346785,314.108134 489.575038,310.406536 C513.506578,298.147946 529.796709,276.808627 538.56741,248.203937 C550.348244,210.315717 586.227847,162.75412 613.407576,142.1374 C640.248911,121.831771 698.726152,85.2115463 759.53477,93.8630474 C819.829896,102.654343 831.734676,145.675576 840.42668,162.122092 C850.004018,180.24614 854.224106,218.778201 777.528676,259.812778 C777.237499,260.631855 764.47493,268.657235 751.312976,281.22101 C739.624611,292.459692 727.93231,306.517889 723.265621,322.037036 C716.328543,345.105081 729.303593,359.608257 756.74302,362.628604 C769.741678,364.05805 786.606292,363.624885 807.159794,358.005544 C843.07481,348.188433 868.257621,358.039016 885.446857,373.402617 C897.650683,384.310518 903.519459,399.475256 906.856181,410.560361 C914.820245,437.014974 914.955996,487.358677 856.769931,520.533266 C799.140643,553.390856 786.795163,552.17996 802.650497,590.089838 C814.240492,617.8026 828.517965,637.086351 827.418185,659.870869 C826.99716,668.610972 824.679554,677.945694 818.708474,688.296386 C799.951214,720.819257 768.781584,695.396366 739.831188,697.512971 C735.229423,697.84769 730.710289,698.749463 726.358385,700.641609 C694.69887,714.451721 712.462588,763.222244 713.200366,775.986851 C713.454161,780.184621 714.498855,788.146995 714.821509,798.574475 C715.482558,820.06934 715.551417,851.810544 701.948765,882.466865 C682.471434,926.364274 658.67958,941.086002 626.484931,939.79635 C623.00262,939.656555 619.514407,939.128881 616.010455,938.467318 C572.926207,930.404529 538.6284,884.140459 525.582523,860.757386 C513.543959,839.164074 491.141094,776.038043 464.842764,752.135171 C439.490756,729.090753 406.631123,736.832607 391.489958,753.48586 C376.455033,769.928438 356.194674,807.452404 331.092527,833.166697 C303.175021,861.763511 251.058407,907.411304 169.773015,880.261657 C99.7844752,856.896304 85.9339293,784.171715 85.4578168,760.367289 C85.2630435,750.67619 86.8999262,735.674873 95.9834447,719.53748 C107.719028,698.688426 129.49429,676.490651 167.02258,659.358946 C180.217979,653.334004 191.420395,648.57115 200.43899,644.849863 C225.541137,634.493264 243.049092,627.227893 251.20793,614.597174 C254.877144,608.914827 257.037357,602.36418 257.592166,593.683145 C259.693356,560.591251 241.406308,519.302681 240.955771,502.428907 C240.489496,484.988079 239.743849,468.95504 255.005025,449.59647 C258.369292,445.294346 260.629842,440.994192 262.107365,436.56015 C268.407003,417.670186 256.559277,397.010149 250.895112,367.40524 C243.757359,330.101795 269.542196,302.241362 288.20502,291.431908 Z" id="Stroke-33" stroke="url(#linearGradient-19)" stroke-width="0.5304"></path>
                    <path d="M279.236096,281.605871 C298.639536,270.342808 329.0216,249.464215 381.478963,282.021198 C405.161705,296.695461 427.101247,318.117327 464.652864,309.767464 C473.410186,307.83058 481.541845,304.933126 489.049808,301.084946 C513.920917,288.337726 530.890565,266.095047 539.948914,236.187501 C552.031303,196.733319 589.935103,147.145923 618.148987,125.859876 C646.091357,104.823813 707.311944,66.4030296 771.050926,75.8295951 C834.376733,85.3683581 846.42961,131.02687 855.098395,148.307266 C864.440063,166.92616 868.410469,206.99054 787.207998,249.755535 C786.975834,250.411005 773.539807,258.729374 759.724055,271.886017 C747.596413,283.503388 735.427454,298.236702 730.746782,314.586055 C723.807426,338.822702 738.010775,354.274475 767.536979,356.957375 C781.604571,358.234852 799.654374,357.173896 821.355849,350.942009 C859.324575,340.03916 885.511939,350.595575 902.920339,367.011853 C915.433609,378.814252 921.546618,394.825044 924.71822,406.653031 C932.237988,434.706364 931.631999,487.449071 869.854611,521.600441 C808.517941,555.507732 795.998768,553.881851 813.647202,593.721836 C826.534297,622.812504 842.435594,643.015943 841.386919,666.906155 C840.956038,676.004001 838.380586,685.702203 831.925234,696.490887 C811.575429,730.490691 778.004055,702.897959 747.486233,704.393927 C742.628487,704.632101 737.873051,705.502124 733.298624,707.433104 C700.038114,721.526695 719.728808,773.674951 721.137534,787.315816 C721.609733,791.801751 722.872865,800.257905 723.386382,811.267047 C724.440959,833.899465 724.313072,867.151286 709.755574,898.641408 C688.660088,944.268426 663.247917,958.377765 630.701608,956.289315 C627.124701,956.059015 623.539924,955.468501 619.933505,954.734296 C575.647151,945.786046 540.312901,898.865804 526.941802,874.900793 C514.375409,852.368762 491.459989,786.78829 464.330195,761.352901 C437.930342,736.600539 403.28078,744.607903 387.637224,761.404079 C372.074335,778.032942 350.969012,817.270602 324.893795,844.331872 C296.585471,873.707956 242.941708,923.015842 157.23564,894.858185 C83.4368547,870.623506 69.1685779,794.524018 68.1021954,770.291308 C67.6595089,760.191557 69.3299125,744.483895 78.6597758,727.496787 C90.5729606,705.809191 113.063401,682.495714 152.543164,664.548037 C166.166102,658.355518 177.831382,653.422761 187.413085,649.470257 C214.084453,638.468988 232.089003,631.067884 240.686958,618.234055 C244.623917,612.358445 246.906211,605.524234 247.522038,596.453945 C249.865325,561.881342 230.686179,518.653778 230.115606,501.332046 C229.529292,483.555618 228.529804,466.609846 244.627852,446.319798 C248.167376,441.829927 250.55198,437.359739 252.098432,432.78129 C258.803656,412.918381 246.455655,391.579187 240.535461,360.777998 C232.889774,321.709618 260.186806,292.676032 279.236096,281.605871 Z" id="Stroke-35" stroke="url(#linearGradient-20)" stroke-width="0.5"></path>
                    <path d="M270.468687,270.793144 C290.219491,259.309407 321.826685,237.008427 376.890666,271.125407 C401.475789,286.34072 424.268965,308.604345 463.512611,299.81214 C472.645635,297.771373 481.111109,294.747578 488.905095,290.758449 C514.734736,277.534752 532.398217,254.409994 541.751788,223.224403 C554.143793,182.245885 594.104218,130.680151 623.377942,108.744858 C652.446871,86.9983051 716.462712,46.8140735 783.182227,57.0061111 C849.594552,67.2807231 861.815238,115.531685 870.459907,133.631203 C879.579147,152.729477 883.294976,194.28405 797.517806,238.740522 C797.344519,239.232037 783.219642,247.8355 768.738344,261.574304 C756.163206,273.557419 743.505363,288.951643 738.808886,306.115317 C731.861644,331.499075 747.311774,347.880258 778.944567,350.223798 C794.095383,351.346416 813.344048,349.665438 836.212053,342.827493 C876.265029,330.850276 903.467183,342.09612 921.122787,359.552737 C933.949979,372.237734 940.322222,389.084873 943.325211,401.636179 C950.414233,431.278415 949.061412,486.351593 883.639581,521.449637 C818.542665,556.372701 805.837561,554.341764 825.294958,596.06935 C839.490726,626.511771 857.083316,647.615423 856.031778,672.582376 C855.608406,682.031244 852.757043,692.083692 845.809801,703.300045 C823.849586,738.742148 787.851136,709.007508 755.735896,709.884369 C750.619985,710.023959 745.620255,710.861499 740.821381,712.833454 C705.931576,727.195498 727.564909,782.667786 729.648294,797.173351 C730.339473,801.943005 731.822261,810.886596 732.527225,822.464704 C733.974567,846.214668 733.649653,880.935228 718.124694,913.237539 C695.390593,960.542828 668.345973,974.024078 635.417464,971.151669 C631.741019,970.831202 628.054727,970.178471 624.344805,969.374354 C578.817529,959.546037 542.417368,912.012686 528.709956,887.490061 C515.609049,864.038938 492.168015,796.070394 464.178192,769.125587 C436.714138,742.688024 400.239149,750.953326 384.076178,767.879107 C367.974251,784.677095 346.000251,825.590734 318.935939,853.974694 C290.211615,884.102546 234.997977,937.020926 144.798044,907.882001 C67.1259895,882.79905 52.4202065,803.411649 50.7720088,778.761231 C50.0709832,768.266421 51.7841636,751.861644 61.368128,734.041307 C73.4706645,711.537822 96.6596442,687.056485 138.156024,668.386811 C152.210011,662.004992 164.355869,656.932565 174.510894,652.752729 C202.776401,641.117606 221.292533,633.591541 230.336944,620.560518 C234.543098,614.499165 236.947458,607.389904 237.626822,597.937104 C240.212346,561.915014 220.156321,516.792048 219.433634,499.036591 C218.758208,480.942972 217.470369,463.102974 234.422978,441.901019 C238.140776,437.225736 240.651472,432.589775 242.268163,427.869273 C249.386723,407.056597 236.589068,385.046593 230.344821,353.086376 C222.265305,312.278905 251.015229,282.115664 270.468687,270.793144 Z" id="Stroke-37" stroke="url(#linearGradient-21)" stroke-width="0.5"></path>
                    <path d="M262.898798,261.322018 C282.958908,249.588497 315.737328,225.806461 373.307108,261.572044 C398.747663,277.367017 422.352769,300.530877 463.216611,291.270058 C472.708621,289.124163 481.492419,285.964381 489.558169,281.822211 C516.29908,268.090448 534.62407,244.024918 544.255756,211.484085 C556.936688,168.873292 598.880554,115.19834 629.158592,92.5601259 C659.298921,70.0459406 725.992835,27.9981992 795.574681,38.9796722 C864.949965,50.0182379 877.329907,100.982274 885.918947,119.948841 C894.808977,139.576895 898.257577,182.725147 808.060855,228.985931 C807.944787,229.312737 793.158891,238.225094 778.040528,252.57897 C765.038933,264.958228 751.879957,281.04457 747.211659,299.075999 C740.216096,325.655574 756.941707,343.01961 790.619163,345.035571 C806.827386,346.006146 827.233732,343.698816 851.230321,336.23543 C893.292223,323.153342 921.453493,335.115233 939.331916,353.660496 C952.44171,367.260356 959.07333,384.986634 961.89831,398.293156 C968.549602,429.609451 966.448573,487.141108 897.500183,523.27484 C828.764258,559.298324 815.896436,556.866966 837.125096,600.582206 C852.605433,632.457614 871.855034,654.511121 870.800584,680.620174 C870.389428,690.442076 867.265425,700.874278 859.837067,712.546769 C836.308684,749.521141 797.949159,717.509891 764.29531,717.83276 C758.930603,717.864259 753.695735,718.679306 748.681199,720.695266 C712.225978,735.362168 735.764196,794.303423 738.51442,809.706622 C739.425259,814.774086 741.123001,824.227838 742.02007,836.404319 C743.857487,861.334114 743.334197,897.603687 726.872199,930.806007 C702.53134,979.899767 673.921535,992.790891 640.661138,989.133025 C636.89581,988.717626 633.112776,988.004953 629.306136,987.126907 C582.621183,976.397429 545.223646,928.130528 531.204979,902.984176 C517.5896,878.556403 493.673669,808.031248 464.867139,779.504618 C436.398977,751.314637 398.157487,759.860814 381.504664,776.955137 C364.893154,793.968742 342.084788,836.654346 314.088767,866.438983 C284.993051,897.393035 228.314437,954.056491 133.787785,923.86433 C52.3846974,897.869463 37.260433,815.002456 35.0413682,789.860041 C34.07938,778.949441 35.8400742,761.805901 45.658649,743.103141 C57.9284249,719.724692 81.8128804,694.109786 125.210548,674.574261 C139.679717,668.022389 152.27409,662.761991 162.981864,658.344203 C192.78776,646.04763 211.783585,638.381468 221.25789,625.116289 C225.729463,618.857755 228.24755,611.449493 228.989206,601.590186 C231.812218,564.031107 210.880614,516.896215 210.04453,498.663977 C209.24189,480.205338 207.709397,461.425798 225.479621,439.254168 C229.372821,434.385545 232.005009,429.572045 233.685046,424.697515 C241.207833,402.882222 227.981971,380.141635 221.425106,346.945221 C212.92656,304.293085 243.076726,272.921666 262.898798,261.322018 Z" id="Stroke-39" stroke="url(#linearGradient-22)" stroke-width="0.5"></path>
                    <path d="M254.33294,251.656649 C274.752385,239.683933 308.782166,214.442555 369.000222,251.826028 C395.363845,268.184867 419.83999,292.226807 462.426473,282.509192 C472.303227,280.25606 481.425384,276.964991 489.781122,272.675375 C517.502233,258.445587 536.536607,233.458278 546.468528,199.592369 C559.468094,155.388446 603.500724,99.6510093 634.858876,76.3279449 C666.150041,53.0679051 735.687275,9.18895283 808.303976,20.9548696 C880.820196,32.7483598 893.398133,86.3803787 901.944983,106.197696 C910.633689,126.343924 913.813638,171.042197 818.970792,219.06699 C818.913655,219.23046 803.429632,228.441909 787.634312,243.400419 C774.175683,256.164882 760.535793,272.943229 755.828918,291.811238 C748.846429,319.585419 766.814911,337.894084 802.619868,339.581963 C819.928323,340.397345 841.541726,337.466698 866.725183,329.385754 C910.89967,315.209144 940.084661,327.869224 958.240314,347.493528 C971.655598,361.995109 978.573069,380.593293 981.226966,394.637946 C987.460768,427.615601 984.546801,487.427976 911.951772,524.68146 C839.350833,561.661181 826.343386,558.943243 849.397026,604.60855 C866.201103,637.891481 887.15448,660.871849 886.098437,688.102442 C885.694541,698.288804 882.268314,709.073899 874.363758,721.212055 C849.133016,759.629527 808.392637,725.513489 773.11373,725.186548 C767.484788,725.125493 762.003613,725.905423 756.758866,727.963572 C718.648742,742.922082 744.149405,805.279078 747.577602,821.570954 C748.708513,826.92805 750.601903,836.889886 751.717052,849.650411 C753.898095,875.744591 753.224277,913.521968 735.785787,947.596646 C709.772864,998.429976 679.537741,1010.71585 645.85472,1006.28442 C641.989132,1005.77629 638.101872,1005.00227 634.188999,1004.05099 C586.229703,992.426877 547.739325,943.4705 533.374391,917.726894 C519.210421,892.341742 494.767769,819.327669 465.066579,789.239301 C435.530888,759.316373 395.419012,768.135887 378.234681,785.386919 C361.073993,802.596591 337.366237,847.013222 308.372359,878.178918 C278.832727,909.929562 220.551407,970.295372 121.458779,939.076499 C36.1203138,912.190572 20.5358086,825.925564 17.7439952,800.308008 C16.5106324,788.989172 18.3330935,771.117741 28.4049001,751.550553 C40.8784149,727.319539 65.518089,700.589204 110.921998,680.208603 C125.846477,673.488599 138.916971,668.048782 150.206378,663.396774 C181.627578,650.447176 201.150569,642.649843 211.078549,629.162565 C215.824829,622.712385 218.464935,615.011559 219.270758,604.754295 C222.338404,565.686882 200.476751,516.582791 199.527101,497.89007 C198.593213,479.083116 196.810157,459.378061 215.448516,436.259827 C219.522947,431.200128 222.289148,426.217241 224.03477,421.191024 C232.010254,398.403669 218.291555,374.940769 211.403637,340.537181 C202.464712,296.07525 234.094755,263.526951 254.33294,251.656649 Z" id="Stroke-41" stroke="url(#linearGradient-23)" stroke-width="0.5"></path>
                    <path d="M245.182072,240.819956 C265.911293,228.629479 301.104911,201.968588 363.823991,240.906511 C391.038473,257.804397 416.326076,282.68501 460.528206,272.52464 C504.728368,262.364269 534.076394,232.341506 547.361832,186.614921 C560.649239,140.888337 606.660157,83.1817606 639.019549,59.211942 C671.378941,35.2440905 743.588744,-10.3920049 819.057908,2.13682358 C894.52904,14.665652 907.285029,70.8771881 915.756219,91.510707 C924.229376,112.146193 927.126586,158.32129 827.877471,208.029402 C827.877471,208.029402 772.928897,240.345871 762.601683,283.308599 C752.2725,326.271327 799.572598,347.823509 880.098101,321.235403 C960.623605,294.647297 992.343327,354.983963 998.14562,389.578401 C1003.94594,424.170873 1000.34018,486.374371 924.166393,524.468384 C847.992609,562.560428 834.766217,559.34806 859.587352,606.882462 C884.40652,654.416865 917.736241,681.667903 886.748694,727.933489 C855.759178,774.197108 802.658756,718.050488 762.989421,733.278257 C723.318117,748.506026 750.717612,814.177624 754.815432,831.329274 C758.913251,848.48289 770.275746,910.082472 742.905774,962.076421 C712.069779,1020.65445 676.067225,1028.37948 637.53158,1018.5732 C588.420726,1006.07387 548.934435,956.507397 534.259438,930.206497 C519.582472,903.907563 494.678672,828.522139 464.151686,796.919748 C433.624701,765.317357 391.741126,774.395791 374.070508,791.773663 C356.399891,809.153503 331.8484,855.226307 301.935497,887.721788 C272.022594,920.219236 212.289294,984.185309 108.879377,951.988836 C19.8197014,924.257811 3.81025588,834.748194 0.456420726,808.681385 C-2.89741443,782.616543 10.5887819,722.425447 96.4107468,683.967511 C175.117621,648.698337 205.75089,646.674132 209.05552,606.166417 C212.36015,565.658702 189.623352,514.664069 188.562485,495.541327 C187.49965,476.416618 185.47239,455.820475 204.930145,431.793609 C228.694351,402.447548 209.675507,376.105337 200.907118,332.81016 C191.550233,286.615391 224.576849,252.939616 245.182072,240.819956 Z" id="Stroke-43" stroke="url(#linearGradient-24)" stroke-width="0.5"></path>
                </g>
            </g>
        </g>
    </g>
</svg>