<svg xmlns="http://www.w3.org/2000/svg" width="40" height="48" viewBox="0 0 40 48">
    <g fill="none" fill-rule="evenodd">
        <g fill-rule="nonzero">
            <g>
                <g>
                    <path fill="#00B45A" d="M4.61 26.493V4.558h25.422V0H.055v21.99c0 4.415 3.106 7.996 7.157 11.28-1.603-2.043-2.602-4.272-2.602-6.777z" transform="translate(-1012.000000, -5000.000000) translate(980.000000, 4960.000000) translate(32.000000, 40.000000)"/>
                    <path fill="#FFF" d="M24.16 9.007H9.045v21.99c0 7.062 7.969 11.994 14.983 17.003 7.025-4.998 14.983-9.93 14.983-17.003V9.007H24.16zm10.384 21.99c0 3.932-5.203 7.776-10.494 11.489-5.28-3.724-10.494-7.557-10.494-11.49V13.5h20.988v17.498z" transform="translate(-1012.000000, -5000.000000) translate(980.000000, 4960.000000) translate(32.000000, 40.000000)"/>
                </g>
            </g>
        </g>
    </g>
</svg>
