<?xml version="1.0" encoding="utf-8"?>
<!-- Generator: Adobe Illustrator 26.0.2, SVG Export Plug-In . SVG Version: 6.00 Build 0)  -->
<svg version="1.1" id="Layer_1" xmlns="http://www.w3.org/2000/svg" xmlns:xlink="http://www.w3.org/1999/xlink" x="0px" y="0px"
	 viewBox="0 0 90 90" style="enable-background:new 0 0 90 90;" xml:space="preserve">
<style type="text/css">
	.st0{fill:#1A1E24;}
	.st1{fill:#5E6675;}
</style>
<g>
	<g>
		<g transform="translate(-319.000000, -1055.000000) translate(319.000000, 1055.000000)">
			<circle class="st0" cx="45" cy="45" r="45"/>
		</g>
	</g>
	<g>
		<path class="st1" d="M66.6,62.1c0-0.3-0.3-0.6-0.6-0.6h-2.4v-2c0-0.3-0.3-0.6-0.6-0.6h-2.2V38.7h5.2c0.2,0,0.4-0.1,0.5-0.2
			c0.1-0.1,0.1-0.3,0.1-0.5s-0.1-0.3-0.2-0.4L45.4,21.3c-0.2-0.2-0.5-0.2-0.7-0.1l0.4,0.5l-0.2,0.1l-0.4-0.5L23.7,37.5
			c-0.2,0.1-0.3,0.3-0.3,0.5c0,0.3,0.3,0.6,0.6,0.6h5.2v20.1h-2.2c-0.3,0-0.6,0.3-0.6,0.6v2h-2.4c-0.3,0-0.6,0.3-0.6,0.6v2.7
			c0,0.3,0.3,0.6,0.6,0.6h41.9c0.3,0,0.6-0.3,0.6-0.6V62.1z M25.9,37.4L45,22.6l0.1,0l19,14.8H25.9z M59.5,38.7v20.1h-3.4V38.7H59.5
			z M54.8,38.7v20.1H35.2V38.7H54.8z M33.9,38.7v20.1h-3.4V38.7H33.9z M27.7,60.1h34.6v1.4H27.7V60.1z M65.3,64.2H24.7v-1.4h40.6
			V64.2z"/>
		<path class="st1" d="M48.9,51c0-0.4-0.1-0.9-0.2-1.3l0,0c-0.1-0.4-0.4-0.7-0.6-1c-0.3-0.3-0.6-0.5-1.1-0.7
			c-0.2-0.1-0.7-0.2-1.5-0.4l-0.1,0v-4.4l0.1,0c0.5,0.1,0.9,0.3,1.2,0.6c0.3,0.3,0.5,0.7,0.6,1.3l1.3-0.2c-0.1-0.9-0.5-1.5-1.1-2
			c-0.5-0.4-1.1-0.6-2-0.7l-0.1,0v-0.7h-0.7v0.7l-0.1,0c-0.9,0.1-1.7,0.4-2.1,0.8c-0.7,0.6-1.1,1.5-1.1,2.5c0,0.6,0.1,1.1,0.4,1.5
			c0.2,0.4,0.6,0.8,1,1c0.6,0.3,1.2,0.6,1.8,0.7l0.1,0v4.9l-0.1,0c-0.6-0.1-1.1-0.4-1.6-0.9c-0.3-0.4-0.5-0.9-0.6-1.7l-1.3,0.2
			c0.1,0.7,0.2,1.3,0.6,1.8c0.3,0.5,0.7,0.9,1.2,1.1c0.4,0.2,1,0.4,1.8,0.5l0.1,0V56h0.7v-1.5l0.1,0c1,0,1.8-0.4,2.4-1.1
			C48.5,52.8,48.9,52,48.9,51z M44.7,47.5l-0.1,0c-0.7-0.2-1.2-0.5-1.5-0.8c-0.3-0.4-0.4-0.8-0.4-1.3c0-0.5,0.2-1,0.5-1.4
			c0.3-0.4,0.8-0.6,1.4-0.7l0.1,0V47.5z M47,52.7L47,52.7c-0.4,0.4-0.9,0.7-1.5,0.8l-0.1,0v-4.7l0.1,0c0.8,0.3,1.3,0.6,1.6,0.9
			c0.3,0.3,0.4,0.8,0.4,1.3C47.5,51.8,47.4,52.3,47,52.7z"/>
	</g>
</g>
</svg>
