<?xml version="1.0" encoding="utf-8"?>
<!-- Generator: Adobe Illustrator 26.0.2, SVG Export Plug-In . SVG Version: 6.00 Build 0)  -->
<svg version="1.1" id="Layer_1" xmlns="http://www.w3.org/2000/svg" xmlns:xlink="http://www.w3.org/1999/xlink" x="0px" y="0px"
	 viewBox="0 0 90 90" style="enable-background:new 0 0 90 90;" xml:space="preserve">
<style type="text/css">
	.st0{fill:#1A1E24;}
	.st1{fill:#46B4A5;}
</style>
<g>
	<g>
		<g transform="translate(-319.000000, -1055.000000) translate(319.000000, 1055.000000)">
			<circle class="st0" cx="45" cy="45" r="45"/>
		</g>
	</g>
	<g>
		<g>
			<g id="path-7_5_">
				<path class="st1" d="M45,66.1c-1.7,0-3.4-0.2-5.1-0.6c-5.5-1.4-10.1-4.8-13-9.6c-2.9-4.8-3.8-10.5-2.4-16
					c1.4-5.5,4.8-10.1,9.6-13c4.8-2.9,10.5-3.8,16-2.4c5.5,1.4,10.1,4.8,13,9.6c2.9,4.8,3.8,10.5,2.4,16l0,0
					c-1.4,5.5-4.8,10.1-9.6,13C52.5,65.1,48.8,66.1,45,66.1z M45,25.1c-3.6,0-7.1,1-10.2,2.8c-4.5,2.7-7.8,7.1-9,12.2
					c-1.3,5.1-0.5,10.5,2.2,15c2.7,4.5,7.1,7.8,12.2,9c5.1,1.3,10.5,0.5,15-2.2c4.5-2.7,7.8-7.1,9-12.2l0,0c1.3-5.1,0.5-10.5-2.2-15
					c-2.7-4.5-7.1-7.8-12.2-9C48.2,25.3,46.6,25.1,45,25.1z"/>
			</g>
		</g>
		<g id="Shape_7_">
			<path class="st1" d="M44.2,32.7l2.1,0.5l-0.8,3.3c0.6,0.1,1.1,0.3,1.7,0.4l0.8-3.3l2.1,0.5l-0.8,3.4c2.6,0.9,4.5,2.2,4.1,4.7
				c-0.3,1.8-1.3,2.7-2.6,3c1.9,1,2.8,2.4,1.9,5c-0.8,2.3-2.4,3.1-4.6,3.1c-0.8,0-1.7-0.1-2.7-0.3l-0.9,3.4L42.3,56l0.8-3.4
				c-0.5-0.1-1.1-0.3-1.6-0.4l-0.8,3.4l-2.1-0.5l0.9-3.4c-0.5-0.1-1-0.3-1.5-0.4l-2.7-0.7l1-2.4c0,0,1.4,0.4,1.5,0.4c0,0,0,0,0,0
				c0.1,0,0.2,0,0.2,0c0.4,0,0.6-0.3,0.7-0.5l2.3-9.3c0-0.4-0.1-1-1-1.2c0,0-1.5-0.4-1.5-0.4l0.5-2.2l2.8,0.7l0,0
				c0.4,0.1,0.9,0.2,1.3,0.3L44.2,32.7 M46.9,43.7c1,0,2-0.3,2.3-1.4c0.6-2.4-3.1-3-4.3-3.3l-1,4.1C44.4,43.3,45.7,43.7,46.9,43.7
				 M46,50.4c1.2,0,2.2-0.3,2.5-1.5c0.7-2.7-3.8-3.4-5.2-3.7l-1.1,4.5C42.9,49.9,44.6,50.4,46,50.4 M43.3,31.2L43,32.4l-0.5,2.2
				l-0.1,0l-2.8-0.7l-1.2-0.3l-0.3,1.2L37.4,37l-0.3,1.2l0,0l0,0l0,0l1.2,0.3c0,0,0,0,0,0l1.4,0.4l-2.1,8.5l-0.5-0.1l0,0
				c-0.2,0-0.4-0.1-0.5-0.1l-1-0.3l-0.4,1l-1,2.4l-0.6,1.4l1.4,0.4l2.7,0.7c0.1,0,0.2,0,0.3,0.1l-0.6,2.2L37.1,56l1.2,0.3l2.1,0.5
				l0.4,0.1v0l1.2,0.3l2.1,0.5l1.2,0.3l0.3-1.2l0.6-2.3c0.6,0.1,1.2,0.1,1.8,0.1c2.9,0,4.9-1.3,5.8-3.9c0.7-2.1,0.5-3.9-0.7-5.2
				c0.8-0.7,1.4-1.8,1.5-3c0.4-2.5-0.9-4.4-3.9-5.7l0.6-2.3l0.3-1.2l-1.2-0.3l-2.1-0.5L47,32.1l0,0L46.5,32l-2.1-0.5L43.3,31.2
				L43.3,31.2z M45.3,42.2l0.4-1.7c0.8,0.2,1.8,0.5,2.2,1c0,0.1,0.1,0.2,0,0.4c0,0.2-0.1,0.5-1,0.5C46.4,42.4,45.8,42.3,45.3,42.2
				L45.3,42.2z M43.7,48.8l0.5-2.1c1.1,0.3,2.6,0.7,3,1.4c0.1,0.1,0.1,0.2,0.1,0.5c0,0.2-0.1,0.6-1.3,0.6
				C45.2,49.2,44.4,49,43.7,48.8L43.7,48.8z"/>
		</g>
	</g>
</g>
</svg>
