<?xml version="1.0" encoding="utf-8"?>
<!-- Generator: Adobe Illustrator 26.0.2, SVG Export Plug-In . SVG Version: 6.00 Build 0)  -->
<svg version="1.1" id="Layer_1" xmlns="http://www.w3.org/2000/svg" xmlns:xlink="http://www.w3.org/1999/xlink" x="0px" y="0px"
	 viewBox="0 0 90 90" style="enable-background:new 0 0 90 90;" xml:space="preserve">
<style type="text/css">
	.st0{fill:#2B313B;}
	.st1{fill:#46B4A5;}
</style>
<g>
	<circle class="st0" cx="45" cy="45" r="45"/>
	<g>
		<path class="st1" d="M45,22.3L25.3,33.7v22.7L45,67.7l19.7-11.3V33.7L45,22.3z M62.6,55.1L45,65.3l-8.9-5.1l0,0l-8.7-5V34.9
			L45,24.7l17.6,10.1V55.1z"/>
		<g>
			<path class="st1" d="M51.9,41.3L51.9,41.3c-0.2-0.2-0.5-0.3-0.8-0.3h-2v-2.4c0-0.8-0.3-1.6-0.9-2.1c-0.6-0.6-1.3-0.9-2.1-0.9
				h-2.6c-0.8,0-1.6,0.3-2.1,0.9s-0.9,1.3-0.9,2.1V41h-1.7c-0.3,0-0.7,0.1-0.8,0.4c-0.2,0.2-0.3,0.5-0.3,0.8v9.7
				c0,0.3,0.1,0.6,0.3,0.8c0.1,0.3,0.5,0.4,0.8,0.4h12.3c0.3,0,0.6-0.1,0.8-0.3c0.3-0.1,0.4-0.5,0.4-0.8v-9.7
				C52.3,41.8,52.2,41.6,51.9,41.3z M42.3,40.9v-2.4l0,0c0-0.4,0.2-0.7,0.4-0.9c0.3-0.3,0.5-0.4,0.9-0.4h2.6c0.4,0,0.7,0.2,0.9,0.4
				c0.3,0.3,0.4,0.5,0.4,0.9v2.4L42.3,40.9z M50.6,42.7v8.7H39.3v-8.7H50.6z"/>
			<path class="st1" d="M44.4,47.7v1.8c0,0.3,0.3,0.6,0.6,0.6s0.6-0.3,0.6-0.6v-1.8c0.6-0.2,1.1-0.8,1.1-1.6c0-0.9-0.8-1.7-1.7-1.7
				s-1.7,0.8-1.7,1.7C43.3,46.9,43.8,47.5,44.4,47.7z M45,45.6c0.3,0,0.5,0.2,0.5,0.5s-0.2,0.5-0.5,0.5s-0.5-0.2-0.5-0.5
				S44.7,45.6,45,45.6z"/>
		</g>
	</g>
</g>
</svg>
