<?xml version="1.0" encoding="utf-8"?>
<!-- Generator: Adobe Illustrator 26.0.2, SVG Export Plug-In . SVG Version: 6.00 Build 0)  -->
<svg version="1.1" id="Layer_1" xmlns="http://www.w3.org/2000/svg" xmlns:xlink="http://www.w3.org/1999/xlink" x="0px" y="0px"
	 viewBox="0 0 90 90" style="enable-background:new 0 0 90 90;" xml:space="preserve">
<style type="text/css">
	.st0{fill:#1A1E24;}
	.st1{fill:#5E6675;}
</style>
<g>
	<g>
		<g transform="translate(-319.000000, -1055.000000) translate(319.000000, 1055.000000)">
			<circle class="st0" cx="45" cy="45" r="45"/>
		</g>
	</g>
	<g>
		<path class="st1" d="M64.7,27.5c-0.2-0.1-0.4-0.1-0.6-0.1l-9.8,3.9l-9.8-3.9c0,0-0.1,0-0.1,0c-0.1,0-0.1,0-0.2,0
			c-0.1,0-0.1,0-0.2,0c0,0-0.1,0-0.1,0l-9.8,4.1l-9.8-4.1c-0.2-0.1-0.4-0.1-0.6,0.1c-0.2,0.1-0.3,0.3-0.3,0.5v30.4
			c0,0.3,0.2,0.5,0.4,0.6l10.1,4.2c0.1,0,0.1,0,0.2,0c0,0,0,0,0,0c0,0,0,0,0,0c0,0,0,0,0,0c0,0,0,0,0,0c0.1,0,0.1,0,0.2,0l9.8-4.1
			l9.8,4.1c0.1,0,0.2,0,0.2,0c0,0,0.1,0,0.1,0c0.1,0,0.1,0,0.2,0l10.1-4.2c0.2-0.1,0.4-0.3,0.4-0.6V28.1
			C64.9,27.9,64.8,27.7,64.7,27.5z M53.5,61.3l0,0.5l-8.8-3.7V29l8.8,3.5L53.5,61.3z M34.7,32.7l8.8-3.6v29l-8.8,3.6V32.7z
			 M24.6,29.1l8.8,3.6v29l-8.8-3.6V29.1z M63.6,58.1l-8.8,3.7l0-1.3l0-27.9l8.8-3.5V58.1z"/>
		<circle class="st0" cx="61.1" cy="55.8" r="12"/>
		<g>
			<path class="st1" d="M67.2,61.1c-0.2-0.2-0.6-0.2-0.8,0c-0.2,0.2-0.2,0.6,0,0.8c0.2,0.2,0.6,0.2,0.8,0
				C67.4,61.7,67.4,61.3,67.2,61.1z M55.9,49.8c-0.2-0.2-0.6-0.2-0.8,0c-0.2,0.2-0.2,0.6,0,0.8c0.2,0.2,0.6,0.2,0.8,0
				C56.1,50.4,56.1,50,55.9,49.8z M67.2,49.8c-0.2-0.2-0.6-0.2-0.8,0c-0.2,0.2-0.2,0.6,0,0.8c0.2,0.2,0.6,0.2,0.8,0
				C67.4,50.4,67.4,50,67.2,49.8z M55.9,61.1c-0.2-0.2-0.6-0.2-0.8,0c-0.2,0.2-0.2,0.6,0,0.8c0.2,0.2,0.6,0.2,0.8,0
				C56.1,61.7,56.1,61.3,55.9,61.1z M61.1,47.3c-0.3,0-0.6,0.3-0.6,0.6c0,0.3,0.3,0.6,0.6,0.6c0.3,0,0.6-0.3,0.6-0.6
				C61.7,47.5,61.4,47.3,61.1,47.3z M53.1,55.3c-0.3,0-0.6,0.3-0.6,0.6c0,0.3,0.3,0.6,0.6,0.6c0.3,0,0.6-0.3,0.6-0.6
				C53.7,55.5,53.4,55.3,53.1,55.3z M61.1,63.3c-0.3,0-0.6,0.3-0.6,0.6c0,0.3,0.3,0.6,0.6,0.6c0.3,0,0.6-0.3,0.6-0.6
				C61.7,63.5,61.4,63.3,61.1,63.3z M69.1,55.3c-0.3,0-0.6,0.3-0.6,0.6c0,0.3,0.3,0.6,0.6,0.6s0.6-0.3,0.6-0.6
				C69.7,55.5,69.4,55.3,69.1,55.3z M62.6,55.4c-0.2-0.5-0.5-0.9-1-1v-5h-0.9v5c-0.6,0.2-1.1,0.8-1.1,1.5c0,0.9,0.7,1.6,1.6,1.6
				c0.7,0,1.3-0.5,1.5-1.1h2.9v-0.9H62.6z M61.1,56.5c-0.4,0-0.7-0.3-0.7-0.7c0-0.4,0.3-0.7,0.7-0.7s0.7,0.3,0.7,0.7
				C61.8,56.2,61.5,56.5,61.1,56.5z M69.1,55.3c-0.3,0-0.6,0.3-0.6,0.6c0,0.3,0.3,0.6,0.6,0.6s0.6-0.3,0.6-0.6
				C69.7,55.5,69.4,55.3,69.1,55.3z M67.2,50.6c0.2-0.2,0.2-0.6,0-0.8c-0.2-0.2-0.6-0.2-0.8,0c-0.2,0.2-0.2,0.6,0,0.8
				C66.6,50.9,66.9,50.9,67.2,50.6z M66.3,61.1c-0.2,0.2-0.2,0.6,0,0.8c0.2,0.2,0.6,0.2,0.8,0c0.2-0.2,0.2-0.6,0-0.8
				C66.9,60.9,66.6,60.9,66.3,61.1z M61.6,54.3v-5h-0.9v5c-0.6,0.2-1.1,0.8-1.1,1.5c0,0.9,0.7,1.6,1.6,1.6c0.7,0,1.3-0.5,1.5-1.1
				h2.9v-0.9h-2.9C62.5,54.9,62.1,54.5,61.6,54.3z M61.1,56.5c-0.4,0-0.7-0.3-0.7-0.7c0-0.4,0.3-0.7,0.7-0.7s0.7,0.3,0.7,0.7
				C61.8,56.2,61.5,56.5,61.1,56.5z M61.1,48.5c0.3,0,0.6-0.3,0.6-0.6c0-0.3-0.3-0.6-0.6-0.6c-0.3,0-0.6,0.3-0.6,0.6
				C60.5,48.2,60.8,48.5,61.1,48.5z M61.1,63.3c-0.3,0-0.6,0.3-0.6,0.6c0,0.3,0.3,0.6,0.6,0.6c0.3,0,0.6-0.3,0.6-0.6
				C61.7,63.5,61.4,63.3,61.1,63.3z M55,49.8c-0.2,0.2-0.2,0.6,0,0.8c0.2,0.2,0.6,0.2,0.8,0c0.2-0.2,0.2-0.6,0-0.8
				C55.6,49.6,55.2,49.6,55,49.8z M55,61.1c-0.2,0.2-0.2,0.6,0,0.8c0.2,0.2,0.6,0.2,0.8,0c0.2-0.2,0.2-0.6,0-0.8
				C55.6,60.9,55.2,60.9,55,61.1z M53.1,55.3c-0.3,0-0.6,0.3-0.6,0.6c0,0.3,0.3,0.6,0.6,0.6c0.3,0,0.6-0.3,0.6-0.6
				C53.7,55.5,53.4,55.3,53.1,55.3z M69.1,55.3c-0.3,0-0.6,0.3-0.6,0.6c0,0.3,0.3,0.6,0.6,0.6s0.6-0.3,0.6-0.6
				C69.7,55.5,69.4,55.3,69.1,55.3z M61.1,45.5c-5.7,0-10.3,4.6-10.3,10.3c0,5.7,4.6,10.3,10.3,10.3c5.7,0,10.3-4.6,10.3-10.3
				C71.4,50.2,66.8,45.5,61.1,45.5z M61.1,65.3c-5.2,0-9.4-4.2-9.4-9.4c0-5.2,4.2-9.4,9.4-9.4c5.2,0,9.4,4.2,9.4,9.4
				C70.5,61,66.3,65.3,61.1,65.3z M67.2,50.6c0.2-0.2,0.2-0.6,0-0.8c-0.2-0.2-0.6-0.2-0.8,0c-0.2,0.2-0.2,0.6,0,0.8
				C66.6,50.9,66.9,50.9,67.2,50.6z M66.3,61.1c-0.2,0.2-0.2,0.6,0,0.8c0.2,0.2,0.6,0.2,0.8,0c0.2-0.2,0.2-0.6,0-0.8
				C66.9,60.9,66.6,60.9,66.3,61.1z M61.6,54.3v-5h-0.9v5c-0.6,0.2-1.1,0.8-1.1,1.5c0,0.9,0.7,1.6,1.6,1.6c0.7,0,1.3-0.5,1.5-1.1
				h2.9v-0.9h-2.9C62.5,54.9,62.1,54.5,61.6,54.3z M61.1,56.5c-0.4,0-0.7-0.3-0.7-0.7c0-0.4,0.3-0.7,0.7-0.7s0.7,0.3,0.7,0.7
				C61.8,56.2,61.5,56.5,61.1,56.5z M61.1,48.5c0.3,0,0.6-0.3,0.6-0.6c0-0.3-0.3-0.6-0.6-0.6c-0.3,0-0.6,0.3-0.6,0.6
				C60.5,48.2,60.8,48.5,61.1,48.5z M61.1,63.3c-0.3,0-0.6,0.3-0.6,0.6c0,0.3,0.3,0.6,0.6,0.6c0.3,0,0.6-0.3,0.6-0.6
				C61.7,63.5,61.4,63.3,61.1,63.3z M55,49.8c-0.2,0.2-0.2,0.6,0,0.8c0.2,0.2,0.6,0.2,0.8,0c0.2-0.2,0.2-0.6,0-0.8
				C55.6,49.6,55.2,49.6,55,49.8z M55,61.1c-0.2,0.2-0.2,0.6,0,0.8c0.2,0.2,0.6,0.2,0.8,0c0.2-0.2,0.2-0.6,0-0.8
				C55.6,60.9,55.2,60.9,55,61.1z M53.1,55.3c-0.3,0-0.6,0.3-0.6,0.6c0,0.3,0.3,0.6,0.6,0.6c0.3,0,0.6-0.3,0.6-0.6
				C53.7,55.5,53.4,55.3,53.1,55.3z M69.1,55.3c-0.3,0-0.6,0.3-0.6,0.6c0,0.3,0.3,0.6,0.6,0.6s0.6-0.3,0.6-0.6
				C69.7,55.5,69.4,55.3,69.1,55.3z M61.1,45.5c-5.7,0-10.3,4.6-10.3,10.3c0,5.7,4.6,10.3,10.3,10.3c5.7,0,10.3-4.6,10.3-10.3
				C71.4,50.2,66.8,45.5,61.1,45.5z M61.1,65.3c-5.2,0-9.4-4.2-9.4-9.4c0-5.2,4.2-9.4,9.4-9.4c5.2,0,9.4,4.2,9.4,9.4
				C70.5,61,66.3,65.3,61.1,65.3z M67.2,50.6c0.2-0.2,0.2-0.6,0-0.8c-0.2-0.2-0.6-0.2-0.8,0c-0.2,0.2-0.2,0.6,0,0.8
				C66.6,50.9,66.9,50.9,67.2,50.6z M66.3,61.1c-0.2,0.2-0.2,0.6,0,0.8c0.2,0.2,0.6,0.2,0.8,0c0.2-0.2,0.2-0.6,0-0.8
				C66.9,60.9,66.6,60.9,66.3,61.1z M61.6,54.3v-5h-0.9v5c-0.6,0.2-1.1,0.8-1.1,1.5c0,0.9,0.7,1.6,1.6,1.6c0.7,0,1.3-0.5,1.5-1.1
				h2.9v-0.9h-2.9C62.5,54.9,62.1,54.5,61.6,54.3z M61.1,56.5c-0.4,0-0.7-0.3-0.7-0.7c0-0.4,0.3-0.7,0.7-0.7s0.7,0.3,0.7,0.7
				C61.8,56.2,61.5,56.5,61.1,56.5z M61.1,48.5c0.3,0,0.6-0.3,0.6-0.6c0-0.3-0.3-0.6-0.6-0.6c-0.3,0-0.6,0.3-0.6,0.6
				C60.5,48.2,60.8,48.5,61.1,48.5z M61.1,63.3c-0.3,0-0.6,0.3-0.6,0.6c0,0.3,0.3,0.6,0.6,0.6c0.3,0,0.6-0.3,0.6-0.6
				C61.7,63.5,61.4,63.3,61.1,63.3z M55,49.8c-0.2,0.2-0.2,0.6,0,0.8c0.2,0.2,0.6,0.2,0.8,0c0.2-0.2,0.2-0.6,0-0.8
				C55.6,49.6,55.2,49.6,55,49.8z M55,61.1c-0.2,0.2-0.2,0.6,0,0.8c0.2,0.2,0.6,0.2,0.8,0c0.2-0.2,0.2-0.6,0-0.8
				C55.6,60.9,55.2,60.9,55,61.1z M53.1,55.3c-0.3,0-0.6,0.3-0.6,0.6c0,0.3,0.3,0.6,0.6,0.6c0.3,0,0.6-0.3,0.6-0.6
				C53.7,55.5,53.4,55.3,53.1,55.3z M69.1,55.3c-0.3,0-0.6,0.3-0.6,0.6c0,0.3,0.3,0.6,0.6,0.6s0.6-0.3,0.6-0.6
				C69.7,55.5,69.4,55.3,69.1,55.3z M61.1,45.5c-5.7,0-10.3,4.6-10.3,10.3c0,5.7,4.6,10.3,10.3,10.3c5.7,0,10.3-4.6,10.3-10.3
				C71.4,50.2,66.8,45.5,61.1,45.5z M61.1,65.3c-5.2,0-9.4-4.2-9.4-9.4c0-5.2,4.2-9.4,9.4-9.4c5.2,0,9.4,4.2,9.4,9.4
				C70.5,61,66.3,65.3,61.1,65.3z M67.2,50.6c0.2-0.2,0.2-0.6,0-0.8c-0.2-0.2-0.6-0.2-0.8,0c-0.2,0.2-0.2,0.6,0,0.8
				C66.6,50.9,66.9,50.9,67.2,50.6z M66.3,61.1c-0.2,0.2-0.2,0.6,0,0.8c0.2,0.2,0.6,0.2,0.8,0c0.2-0.2,0.2-0.6,0-0.8
				C66.9,60.9,66.6,60.9,66.3,61.1z M61.6,54.3v-5h-0.9v5c-0.6,0.2-1.1,0.8-1.1,1.5c0,0.9,0.7,1.6,1.6,1.6c0.7,0,1.3-0.5,1.5-1.1
				h2.9v-0.9h-2.9C62.5,54.9,62.1,54.5,61.6,54.3z M61.1,56.5c-0.4,0-0.7-0.3-0.7-0.7c0-0.4,0.3-0.7,0.7-0.7s0.7,0.3,0.7,0.7
				C61.8,56.2,61.5,56.5,61.1,56.5z M61.1,48.5c0.3,0,0.6-0.3,0.6-0.6c0-0.3-0.3-0.6-0.6-0.6c-0.3,0-0.6,0.3-0.6,0.6
				C60.5,48.2,60.8,48.5,61.1,48.5z M61.1,63.3c-0.3,0-0.6,0.3-0.6,0.6c0,0.3,0.3,0.6,0.6,0.6c0.3,0,0.6-0.3,0.6-0.6
				C61.7,63.5,61.4,63.3,61.1,63.3z M55,49.8c-0.2,0.2-0.2,0.6,0,0.8c0.2,0.2,0.6,0.2,0.8,0c0.2-0.2,0.2-0.6,0-0.8
				C55.6,49.6,55.2,49.6,55,49.8z M55,61.1c-0.2,0.2-0.2,0.6,0,0.8c0.2,0.2,0.6,0.2,0.8,0c0.2-0.2,0.2-0.6,0-0.8
				C55.6,60.9,55.2,60.9,55,61.1z M53.1,55.3c-0.3,0-0.6,0.3-0.6,0.6c0,0.3,0.3,0.6,0.6,0.6c0.3,0,0.6-0.3,0.6-0.6
				C53.7,55.5,53.4,55.3,53.1,55.3z"/>
		</g>
	</g>
</g>
</svg>
