<?xml version="1.0" encoding="utf-8"?>
<!-- Generator: Adobe Illustrator 26.0.2, SVG Export Plug-In . SVG Version: 6.00 Build 0)  -->
<svg version="1.1" id="Layer_1" xmlns="http://www.w3.org/2000/svg" xmlns:xlink="http://www.w3.org/1999/xlink" x="0px" y="0px"
	 viewBox="0 0 90 90" style="enable-background:new 0 0 90 90;" xml:space="preserve">
<style type="text/css">
	.st0{fill:#1A1E24;}
	.st1{fill:#46B4A5;}
</style>
<g>
	<g>
		<g transform="translate(-319.000000, -1055.000000) translate(319.000000, 1055.000000)">
			<circle class="st0" cx="45" cy="45" r="45"/>
		</g>
	</g>
	<path class="st1" d="M45,26.7c-10.1,0-18.3,8.2-18.3,18.3S34.9,63.3,45,63.3S63.3,55.1,63.3,45S55.1,26.7,45,26.7z M45.6,38.8
		c2.5,0,5-0.4,7.2-0.9c0.6,2,1.1,4.2,1.1,6.6h-8.3V38.8z M45.6,37.6V28c1.9,0.6,5,3.8,6.8,8.7C50.3,37.2,48,37.5,45.6,37.6z
		 M44.4,28v9.6c-2.4,0-4.8-0.3-6.9-0.9C39.3,31.8,42.3,28.6,44.4,28z M44.4,38.8v5.6h-8.3c0.1-2.4,0.4-4.6,1.1-6.6
		C39.4,38.4,41.8,38.7,44.4,38.8z M34.9,44.4H28c0.1-3.4,1.2-6.6,3.1-9.2c1.4,0.9,3.1,1.7,5,2.3C35.3,39.7,35,42,34.9,44.4z
		 M34.9,45.6c0.1,2.4,0.5,4.7,1.1,6.8c-1.9,0.6-3.6,1.4-5.1,2.3c-1.8-2.6-2.9-5.7-3-9.1H34.9z M36.1,45.6h8.3v5.5
		c-2.6,0-5,0.4-7.2,0.9C36.5,50.1,36.2,47.9,36.1,45.6z M44.4,52.3V62c-2.1-0.6-5.1-3.9-6.9-8.8C39.6,52.7,42,52.4,44.4,52.3z
		 M45.6,52.3c2.4,0,4.8,0.3,6.9,0.9c-1.7,4.8-4.6,8.3-6.9,8.8V52.3z M45.6,51.1v-5.5h8.3c-0.1,2.3-0.4,4.5-1,6.5
		C50.6,51.5,48.2,51.2,45.6,51.1z M55.1,45.6H62c-0.1,3.4-1.2,6.5-3,9.1c-1.4-0.9-3.1-1.7-5-2.3C54.7,50.3,55,48,55.1,45.6z
		 M55.1,44.4c-0.1-2.4-0.5-4.8-1.2-6.9c1.9-0.6,3.6-1.4,5.1-2.3c1.8,2.6,3,5.8,3.1,9.2H55.1z M58.2,34.2c-1.3,0.9-2.9,1.6-4.7,2.1
		c-1.3-3.6-3.3-6.5-5.3-8.1C52.2,29,55.8,31.2,58.2,34.2z M41.6,28.3c-1.1,0.9-2.2,2.3-3.2,3.9c-0.8,1.3-1.4,2.7-1.9,4.1
		c-1.7-0.5-3.3-1.2-4.6-2.1C34.2,31.2,37.6,29.1,41.6,28.3z M31.7,55.7c1.3-0.9,2.9-1.6,4.7-2.1c1.3,3.6,3.3,6.5,5.3,8.2
		C37.7,61,34.2,58.8,31.7,55.7z M48.6,61.7c2-1.7,3.9-4.6,5.1-8.1c1.7,0.5,3.3,1.3,4.6,2.1C55.9,58.7,52.5,60.9,48.6,61.7z"/>
</g>
</svg>
