<?xml version="1.0" encoding="utf-8"?>
<!-- Generator: Adobe Illustrator 26.0.2, SVG Export Plug-In . SVG Version: 6.00 Build 0)  -->
<svg version="1.1" id="Layer_1" xmlns="http://www.w3.org/2000/svg" xmlns:xlink="http://www.w3.org/1999/xlink" x="0px" y="0px"
	 viewBox="0 0 858.5 593.5" style="enable-background:new 0 0 858.5 593.5;" xml:space="preserve">
<style type="text/css">
	.st0{opacity:0.4;}
	.st1{clip-path:url(#SVGID_00000011019059826276305000000008458450472232203669_);}
	.st2{fill:none;stroke:url(#Stroke-1_00000003065275754999229070000008305316866938009248_);stroke-width:1.3;}
	.st3{fill:none;stroke:url(#Stroke-1_00000078017725223942074520000007580906566308995226_);stroke-width:1.3;}
	.st4{fill:none;stroke:url(#Stroke-1_00000074441730429069278220000002306785253117794182_);stroke-width:1.3;}
	.st5{fill:none;stroke:url(#Stroke-1_00000127757510963225950310000017036521788823569803_);stroke-width:1.3;}
	.st6{fill:none;stroke:url(#Stroke-1_00000142164250140301264690000006198037600332297148_);stroke-width:1.3;}
	.st7{fill:none;stroke:url(#Stroke-1_00000106860975203726544810000015395191244266388390_);stroke-width:1.3;}
	.st8{fill:none;stroke:url(#Stroke-1_00000121972050209265048450000005778672248890462099_);stroke-width:1.3;}
	.st9{fill:none;stroke:url(#Stroke-1_00000161628757525909579080000013260506807864962735_);stroke-width:1.3;}
	.st10{fill:none;stroke:url(#Stroke-1_00000176750608915347521940000010217864118136350129_);stroke-width:1.3;}
	.st11{fill:none;stroke:url(#Stroke-1_00000024696242616348720180000009097611058093903244_);stroke-width:1.3;}
</style>
<g class="st0">
	<defs>
		<polygon id="SVGID_1_" class="st0" points="0,0 858.5,0 858.5,593.5 0,593.5 140,293 		"/>
	</defs>
	<clipPath id="SVGID_00000016060529048602517970000012965428730412772003_">
		<use xlink:href="#SVGID_1_"  style="overflow:visible;"/>
	</clipPath>
	
		<g id="Unified-Headers_00000004536001452477012650000006125735927142266519_" style="clip-path:url(#SVGID_00000016060529048602517970000012965428730412772003_);">
		<g>
			
				<linearGradient id="Stroke-1_00000011023922307930195850000009672057749780546700_" gradientUnits="userSpaceOnUse" x1="130.147" y1="399.6811" x2="134.6845" y2="392.5663" gradientTransform="matrix(153.8009 -100.0877 -101.4513 -155.8962 20437.8652 75473.1328)">
				<stop  offset="0" style="stop-color:#179BD1"/>
				<stop  offset="0.3587" style="stop-color:#0D433F"/>
				<stop  offset="0.7313" style="stop-color:#26B7AE"/>
				<stop  offset="1" style="stop-color:#35D6A3"/>
			</linearGradient>
			
				<path id="Stroke-1_00000029004292023848991670000001071243056247699364_" style="fill:none;stroke:url(#Stroke-1_00000011023922307930195850000009672057749780546700_);stroke-width:1.3;" d="
				M503.3,691.1c0,0,5.7-11.7-18.5,45.3c-21.2,56.8,42.7,144.2,105.9,129.6c27-7.9,71.1-14.2,97.3-109.2
				c25.2-96.4,111.8-79.2,135.9-66.6c40.3,21.1,140.8,69.5,179.6-0.3c38.3-69-18.2-91.8-46.6-119.8c-34.6-34-61.8-78.9-51.8-95.3
				c15.5-25.4,163.1-31.3,147.8-83.3c-14.2-48.3-148.7-16.6-158.2-40.3c-10-25.2,35.7-79.7-5.6-139.4c-36-52.1-56.8-24.7-77.4-4.4
				c-55.4,62.8-72,14-82.8-8.1c-12.2-26.2-22.2-62.6-33.7-99.4C680.6,64,661.2,55.4,641,55.9c-47.7,3-68.9,32.2-83.9,91.3
				c-21.9,74.3,34.8,123.1-7,181c-35.9,60.1-152.9-12.4-235.8,40.6c-89.8,87.4,112.9,84.1,135.8,131.2c11,22.2-58.9,61.3-41.3,98.5
				c13.7,29.1,81.3,21.8,97.5,45.7C521,665.9,503.3,691.1,503.3,691.1z"/>
		</g>
		<g>
			
				<linearGradient id="Stroke-1_00000098908306759260739310000007402501112705279372_" gradientUnits="userSpaceOnUse" x1="130.4019" y1="399.3173" x2="134.4889" y2="392.909" gradientTransform="matrix(153.8009 -100.0877 -101.4513 -155.8962 20437.8652 75473.1328)">
				<stop  offset="0" style="stop-color:#179BD1"/>
				<stop  offset="0.3587" style="stop-color:#0D433F"/>
				<stop  offset="0.7313" style="stop-color:#26B7AE"/>
				<stop  offset="1" style="stop-color:#35D6A3"/>
			</linearGradient>
			
				<path id="Stroke-1_00000076567675556397981220000007254221187164765094_" style="fill:none;stroke:url(#Stroke-1_00000098908306759260739310000007402501112705279372_);stroke-width:1.3;" d="
				M525.4,661.2c0,0,5-10.2-16.1,39.4c-18.4,49.4,37.1,125.4,92.1,112.7c23.5-6.9,61.8-12.4,84.6-95c21.9-83.8,97.2-68.9,118.2-57.9
				c35.1,18.3,122.5,60.4,156.1-0.3c33.3-60-15.8-79.9-40.5-104.1c-30-29.5-53.7-68.6-45-82.9c13.5-22.1,141.8-27.3,128.5-72.4
				c-12.4-42-129.3-14.4-137.5-35.1c-8.7-21.9,31-69.3-4.8-121.2c-31.3-45.3-49.4-21.5-67.3-3.8c-48.2,54.6-62.6,12.2-72-7
				c-10.6-22.8-19.3-54.5-29.3-86.4c-12.8-31.2-29.7-38.7-47.2-38.3c-41.5,2.6-59.9,28-73,79.4c-19.1,64.6,30.2,107.1-6.1,157.4
				c-31.2,52.3-133-10.8-205,35.3c-78,76,98.2,73.1,118.1,114.1c9.6,19.3-51.2,53.3-35.9,85.7c11.9,25.3,70.7,18.9,84.7,39.7
				C540.8,639.3,525.4,661.2,525.4,661.2z"/>
		</g>
		<g>
			
				<linearGradient id="Stroke-1_00000167356305508013000850000008102163990530222976_" gradientUnits="userSpaceOnUse" x1="130.6236" y1="399.001" x2="134.3188" y2="393.207" gradientTransform="matrix(153.8009 -100.0877 -101.4513 -155.8962 20437.8652 75473.1328)">
				<stop  offset="0" style="stop-color:#179BD1"/>
				<stop  offset="0.3587" style="stop-color:#0D433F"/>
				<stop  offset="0.7313" style="stop-color:#26B7AE"/>
				<stop  offset="1" style="stop-color:#35D6A3"/>
			</linearGradient>
			
				<path id="Stroke-1_00000111183281912061596100000006332533121973234591_" style="fill:none;stroke:url(#Stroke-1_00000167356305508013000850000008102163990530222976_);stroke-width:1.3;" d="
				M544.6,635.2c0,0,4.3-8.9-14,34.3c-16,43,32.3,109,80,98c20.4-6,53.8-10.8,73.6-82.6c19-72.9,84.5-59.9,102.7-50.4
				c30.5,15.9,106.5,52.5,135.8-0.2c29-52.2-13.8-69.4-35.2-90.5c-26.1-25.7-46.7-59.7-39.1-72.1c11.8-19.2,123.3-23.7,111.8-63
				c-10.7-36.5-112.5-12.6-119.6-30.5c-7.6-19,27-60.2-4.2-105.4c-27.2-39.4-42.9-18.7-58.5-3.3c-41.9,47.5-54.5,10.6-62.6-6.1
				c-9.2-19.8-16.8-47.4-25.5-75.1c-11.1-27.1-25.8-33.7-41-33.3c-36.1,2.3-52.1,24.3-63.5,69C568.7,280,611.6,317,580,360.7
				c-27.1,45.5-115.6-9.4-178.3,30.7c-67.9,66.1,85.3,63.6,102.7,99.2c8.3,16.8-44.5,46.3-31.2,74.5c10.4,22,61.5,16.5,73.7,34.6
				C558,616.1,544.6,635.2,544.6,635.2z"/>
		</g>
		<g>
			
				<linearGradient id="Stroke-1_00000092451720904730820710000005135160593223689396_" gradientUnits="userSpaceOnUse" x1="130.8164" y1="398.7259" x2="134.1709" y2="393.4662" gradientTransform="matrix(153.8009 -100.0877 -101.4513 -155.8962 20437.8652 75473.1328)">
				<stop  offset="0" style="stop-color:#179BD1"/>
				<stop  offset="0.3587" style="stop-color:#0D433F"/>
				<stop  offset="0.7313" style="stop-color:#26B7AE"/>
				<stop  offset="1" style="stop-color:#35D6A3"/>
			</linearGradient>
			
				<path id="Stroke-1_00000074418578199432677680000002432071604889239455_" style="fill:none;stroke:url(#Stroke-1_00000092451720904730820710000005135160593223689396_);stroke-width:1.3;" d="
				M561.3,612.5c0,0,3.8-7.7-12.2,29.8c-13.9,37.4,28.1,94.8,69.6,85.2c17.7-5.2,46.7-9.3,64-71.8c16.5-63.4,73.5-52.1,89.3-43.8
				c26.5,13.9,92.6,45.7,118.1-0.2c25.2-45.4-12-60.4-30.6-78.7c-22.7-22.3-40.6-51.9-34-62.7c10.2-16.7,107.2-20.6,97.2-54.7
				c-9.3-31.7-97.8-10.9-104-26.5c-6.6-16.6,23.5-52.4-3.7-91.7c-23.7-34.3-37.3-16.3-50.9-2.9c-36.4,41.3-47.4,9.2-54.4-5.3
				c-8-17.2-14.6-41.2-22.1-65.3c-9.7-23.6-22.4-29.3-35.7-29c-31.4,2-45.3,21.2-55.2,60c-14.4,48.9,22.9,81-4.6,119
				c-23.6,39.5-100.5-8.1-155,26.7c-59,57.5,74.2,55.3,89.3,86.2c7.2,14.6-38.7,40.3-27.1,64.8c9,19.1,53.5,14.3,64.1,30
				C573,596,561.3,612.5,561.3,612.5z"/>
		</g>
		<g>
			
				<linearGradient id="Stroke-1_00000024684419329372290400000012634667429189920702_" gradientUnits="userSpaceOnUse" x1="130.984" y1="398.4867" x2="134.0423" y2="393.6915" gradientTransform="matrix(153.8009 -100.0877 -101.4513 -155.8962 20437.8652 75473.1328)">
				<stop  offset="0" style="stop-color:#179BD1"/>
				<stop  offset="0.3587" style="stop-color:#0D433F"/>
				<stop  offset="0.7313" style="stop-color:#26B7AE"/>
				<stop  offset="1" style="stop-color:#35D6A3"/>
			</linearGradient>
			
				<path id="Stroke-1_00000106139657148622478400000009340962546223790781_" style="fill:none;stroke:url(#Stroke-1_00000024684419329372290400000012634667429189920702_);stroke-width:1.3;" d="
				M575.9,592.9c0,0,3.3-6.7-10.6,25.9c-12.1,32.5,24.4,82.4,60.5,74.1c15.4-4.5,40.7-8.1,55.7-62.4c14.4-55.1,63.9-45.3,77.7-38.1
				c23.1,12.1,80.5,39.7,102.7-0.2c21.9-39.5-10.4-52.5-26.7-68.5c-19.8-19.4-35.3-45.1-29.6-54.5c8.9-14.5,93.3-17.9,84.5-47.6
				c-8.1-27.6-85-9.5-90.4-23.1c-5.7-14.4,20.4-45.5-3.2-79.7c-20.6-29.8-32.5-14.1-44.2-2.5c-31.7,35.9-41.2,8-47.3-4.6
				c-6.9-15-12.7-35.8-19.3-56.8c-8.4-20.5-19.5-25.5-31-25.2c-27.3,1.7-39.4,18.4-48,52.2c-12.5,42.5,19.9,70.4-4,103.5
				c-20.5,34.4-87.4-7.1-134.8,23.2c-51.3,50,64.5,48.1,77.6,75c6.3,12.7-33.7,35-23.6,56.3c7.8,16.6,46.5,12.5,55.7,26.1
				C586,578.5,575.9,592.9,575.9,592.9z"/>
		</g>
		<g>
			
				<linearGradient id="Stroke-1_00000036248914113454855860000001021721121589342856_" gradientUnits="userSpaceOnUse" x1="131.1298" y1="398.2787" x2="133.9304" y2="393.8875" gradientTransform="matrix(153.8009 -100.0877 -101.4513 -155.8962 20437.8652 75473.1328)">
				<stop  offset="0" style="stop-color:#179BD1"/>
				<stop  offset="0.3587" style="stop-color:#0D433F"/>
				<stop  offset="0.7313" style="stop-color:#26B7AE"/>
				<stop  offset="1" style="stop-color:#35D6A3"/>
			</linearGradient>
			
				<path id="Stroke-1_00000083798421128899337840000003126688810142904489_" style="fill:none;stroke:url(#Stroke-1_00000036248914113454855860000001021721121589342856_);stroke-width:1.3;" d="
				M588.5,575.8c0,0,2.8-5.8-9.2,22.5c-10.5,28.3,21.2,71.7,52.6,64.4c13.4-3.9,35.3-7.1,48.4-54.3c12.5-47.9,55.6-39.4,67.6-33.1
				c20.1,10.5,70,34.5,89.3-0.2c19-34.3-9.1-45.7-23.2-59.5c-17.2-16.9-30.7-39.2-25.7-47.4c7.7-12.7,81.1-15.6,73.5-41.4
				c-7.1-24-73.9-8.3-78.6-20.1c-5-12.5,17.7-39.6-2.8-69.3c-17.9-25.9-28.2-12.3-38.5-2.2c-27.6,31.2-35.8,7-41.1-4
				c-6-13-11-31.1-16.7-49.4c-7.3-17.8-17-22.1-27-21.9c-23.7,1.5-34.2,16-41.7,45.4c-10.9,37,17.3,61.2-3.5,90
				c-17.8,29.9-76-6.2-117.2,20.2c-44.6,43.5,56.1,41.8,67.5,65.2c5.5,11.1-29.3,30.5-20.5,49c6.8,14.4,40.4,10.8,48.5,22.7
				C597.3,563.2,588.5,575.8,588.5,575.8z"/>
		</g>
		<g>
			
				<linearGradient id="Stroke-1_00000157273244418468581510000008477471339689488805_" gradientUnits="userSpaceOnUse" x1="131.2566" y1="398.0979" x2="133.8332" y2="394.0578" gradientTransform="matrix(153.8009 -100.0877 -101.4513 -155.8962 20437.8652 75473.1328)">
				<stop  offset="0" style="stop-color:#179BD1"/>
				<stop  offset="0.3587" style="stop-color:#0D433F"/>
				<stop  offset="0.7313" style="stop-color:#26B7AE"/>
				<stop  offset="1" style="stop-color:#35D6A3"/>
			</linearGradient>
			
				<path id="Stroke-1_00000064352837373670036970000011069505582769226408_" style="fill:none;stroke:url(#Stroke-1_00000157273244418468581510000008477471339689488805_);stroke-width:1.3;" d="
				M599.5,560.9c0,0,2.5-5.1-8,19.6c-9.1,24.6,18.5,62.3,45.8,56c11.7-3.4,30.7-6.1,42.1-47.2c10.9-41.7,48.3-34.2,58.7-28.8
				c17.4,9.1,60.9,30,77.6-0.1c16.6-29.8-7.9-39.7-20.2-51.8c-14.9-14.7-26.7-34.1-22.4-41.2c6.7-11,70.5-13.6,63.9-36
				c-6.1-20.9-64.3-7.2-68.4-17.4c-4.3-10.9,15.4-34.4-2.4-60.3c-15.6-22.5-24.5-10.7-33.4-1.9c-24,27.2-31.1,6-35.8-3.5
				c-5.3-11.3-9.6-27.1-14.6-43c-6.4-15.5-14.7-19.3-23.5-19.1c-20.6,1.3-29.8,13.9-36.3,39.5c-9.5,32.1,15,53.2-3,78.2
				c-15.5,26-66.1-5.4-101.9,17.5c-38.8,37.8,48.8,36.4,58.7,56.7c4.8,9.6-25.4,26.5-17.8,42.6c5.9,12.6,35.2,9.4,42.1,19.8
				C607.2,550,599.5,560.9,599.5,560.9z"/>
		</g>
		<g>
			
				<linearGradient id="Stroke-1_00000002370433426280460100000014407185224399162005_" gradientUnits="userSpaceOnUse" x1="131.3668" y1="397.9406" x2="133.7486" y2="394.206" gradientTransform="matrix(153.8009 -100.0877 -101.4513 -155.8962 20437.8652 75473.1328)">
				<stop  offset="0" style="stop-color:#179BD1"/>
				<stop  offset="0.3587" style="stop-color:#0D433F"/>
				<stop  offset="0.7313" style="stop-color:#26B7AE"/>
				<stop  offset="1" style="stop-color:#35D6A3"/>
			</linearGradient>
			
				<path id="Stroke-1_00000087380880606496605110000013788321176996496575_" style="fill:none;stroke:url(#Stroke-1_00000002370433426280460100000014407185224399162005_);stroke-width:1.3;" d="
				M609,548c0,0,2.2-4.4-7,17c-8,21.4,16.1,54.2,39.8,48.7c10.1-3,26.7-5.3,36.6-41.1c9.5-36.2,42-29.8,51.1-25
				c15.2,7.9,52.9,26.1,67.5-0.1c14.4-25.9-6.9-34.5-17.5-45c-13-12.8-23.2-29.7-19.5-35.8c5.8-9.6,61.3-11.8,55.6-31.3
				c-5.3-18.1-55.9-6.2-59.5-15.2c-3.8-9.5,13.4-29.9-2.1-52.4c-13.5-19.6-21.3-9.3-29.1-1.7c-20.8,23.6-27.1,5.3-31.1-3
				c-4.6-9.8-8.3-23.5-12.7-37.4c-5.5-13.5-12.8-16.7-20.4-16.6c-17.9,1.1-25.9,12.1-31.5,34.3c-8.2,27.9,13.1,46.3-2.6,68
				c-13.5,22.6-57.5-4.7-88.6,15.2c-33.7,32.9,42.4,31.6,51,49.3c4.1,8.4-22.1,23-15.5,37c5.2,10.9,30.6,8.2,36.6,17.2
				C615.7,538.5,609,548,609,548z"/>
		</g>
		<g>
			
				<linearGradient id="Stroke-1_00000072264243094204817060000016626193508372774573_" gradientUnits="userSpaceOnUse" x1="131.4626" y1="397.8038" x2="133.675" y2="394.3348" gradientTransform="matrix(153.8009 -100.0877 -101.4513 -155.8962 20437.8652 75473.1328)">
				<stop  offset="0" style="stop-color:#179BD1"/>
				<stop  offset="0.3587" style="stop-color:#0D433F"/>
				<stop  offset="0.7313" style="stop-color:#26B7AE"/>
				<stop  offset="1" style="stop-color:#35D6A3"/>
			</linearGradient>
			
				<path id="Stroke-1_00000033354788504586504770000013593312151237682857_" style="fill:none;stroke:url(#Stroke-1_00000072264243094204817060000016626193508372774573_);stroke-width:1.3;" d="
				M617.3,536.7c0,0,1.9-3.8-6,14.8c-6.9,18.6,14,47.1,34.6,42.4c8.8-2.6,23.2-4.6,31.8-35.7c8.2-31.5,36.6-25.9,44.4-21.8
				c13.2,6.9,46,22.7,58.7-0.1c12.5-22.6-6-30-15.2-39.1c-11.3-11.1-20.2-25.8-16.9-31.2c5.1-8.3,53.3-10.2,48.3-27.2
				c-4.6-15.8-48.6-5.4-51.7-13.2c-3.3-8.2,11.7-26-1.8-45.6c-11.8-17-18.6-8.1-25.3-1.4c-18.1,20.5-23.6,4.6-27.1-2.6
				c-4-8.6-7.3-20.5-11-32.5c-4.8-11.7-11.2-14.6-17.7-14.4c-15.6,1-22.5,10.5-27.4,29.8c-7.2,24.3,11.4,40.3-2.3,59.2
				c-11.7,19.7-50-4-77.1,13.3c-29.3,28.6,36.9,27.5,44.4,42.9c3.6,7.3-19.2,20-13.5,32.2c4.5,9.5,26.6,7.1,31.9,14.9
				C623.2,528.5,617.3,536.7,617.3,536.7z"/>
		</g>
		<g>
			
				<linearGradient id="Stroke-1_00000130646170173885635150000005579160130954240148_" gradientUnits="userSpaceOnUse" x1="131.546" y1="397.6849" x2="133.6111" y2="394.4468" gradientTransform="matrix(153.8009 -100.0877 -101.4513 -155.8962 20437.8652 75473.1328)">
				<stop  offset="0" style="stop-color:#179BD1"/>
				<stop  offset="0.3587" style="stop-color:#0D433F"/>
				<stop  offset="0.7313" style="stop-color:#26B7AE"/>
				<stop  offset="1" style="stop-color:#35D6A3"/>
			</linearGradient>
			
				<path id="Stroke-1_00000127006998982215097570000009035748422140699780_" style="fill:none;stroke:url(#Stroke-1_00000130646170173885635150000005579160130954240148_);stroke-width:1.3;" d="
				M624.6,526.9c0,0,1.6-3.3-5.3,12.9c-6,16.2,12.1,41,30.1,36.8c7.7-2.3,20.2-4,27.7-31c7.2-27.4,31.8-22.5,38.6-18.9
				c11.5,6,40,19.8,51-0.1c10.9-19.6-5.2-26.1-13.2-34c-9.8-9.7-17.6-22.4-14.7-27.1c4.4-7.2,46.4-8.9,42-23.7
				c-4-13.7-42.3-4.7-45-11.5c-2.9-7.2,10.1-22.6-1.6-39.6c-10.2-14.8-16.1-7-22-1.2c-15.8,17.9-20.5,4-23.5-2.3
				c-3.5-7.4-6.3-17.8-9.6-28.3c-4.2-10.2-9.7-12.7-15.4-12.5c-13.6,0.9-19.6,9.1-23.9,25.9c-6.2,21.1,9.9,35-2,51.4
				c-10.2,17.1-43.5-3.5-67,11.5c-25.5,24.9,32.1,23.9,38.6,37.3c3.1,6.3-16.7,17.4-11.7,28c3.9,8.3,23.1,6.2,27.7,13
				C629.6,519.8,624.6,526.9,624.6,526.9z"/>
		</g>
	</g>
</g>
</svg>
