<?xml version="1.0" encoding="utf-8"?>
<!-- Generator: Adobe Illustrator 26.0.2, SVG Export Plug-In . SVG Version: 6.00 Build 0)  -->
<svg version="1.1" id="Layer_1" xmlns="http://www.w3.org/2000/svg" xmlns:xlink="http://www.w3.org/1999/xlink" x="0px" y="0px"
	 viewBox="0 0 869.1 268.7" style="enable-background:new 0 0 869.1 268.7;" xml:space="preserve">
<style type="text/css">
	.st0{opacity:0.7;}
	.st1{clip-path:url(#SVGID_00000088113652825589666530000005894741122960947361_);}
	.st2{fill:none;stroke:url(#SVGID_00000097470985015338976880000001640070240670529929_);stroke-width:0.7473;}
	.st3{fill:none;stroke:url(#SVGID_00000036229529691684973340000012994301466071709328_);stroke-width:0.7473;}
	.st4{fill:none;stroke:url(#SVGID_00000101792751955126432820000007785946888118356924_);stroke-width:0.7473;}
	.st5{fill:none;stroke:url(#SVGID_00000174569032756243245960000011570531444279862433_);stroke-width:0.7473;}
	.st6{fill:none;stroke:url(#SVGID_00000090253546921206601650000008821713799185526167_);stroke-width:0.7473;}
	.st7{fill:none;stroke:url(#SVGID_00000017493260347209443690000012598019956261580222_);stroke-width:0.7473;}
	.st8{fill:none;stroke:url(#SVGID_00000156568079834659213280000008417610726301099159_);stroke-width:0.7473;}
	.st9{fill:none;stroke:url(#SVGID_00000159469252994098049090000004362762613845904284_);stroke-width:0.7473;}
	.st10{fill:none;stroke:url(#SVGID_00000023998188525976442410000010326748059484997053_);stroke-width:0.7473;}
	.st11{fill:none;stroke:url(#SVGID_00000035506161618283558860000016710688810785727107_);stroke-width:0.7473;}
	.st12{fill:none;stroke:url(#SVGID_00000072275201585190135260000014695261447340367520_);stroke-width:0.7473;}
	.st13{fill:none;stroke:url(#SVGID_00000181771291598640132400000002818362400573690522_);stroke-width:0.7473;}
	.st14{fill:none;stroke:url(#SVGID_00000133511087909685760620000003206984372439356594_);stroke-width:0.7473;}
	.st15{fill:none;stroke:url(#SVGID_00000031168596856477223390000002867899598173701018_);stroke-width:0.7473;}
	.st16{fill:none;stroke:url(#SVGID_00000166656776948078346290000009375231605061230735_);stroke-width:0.7473;}
	.st17{fill:none;stroke:url(#SVGID_00000129911133467968113290000003815325336130506122_);stroke-width:0.7473;}
	.st18{fill:none;stroke:url(#SVGID_00000083051428731511478780000011198648317115905713_);stroke-width:0.7473;}
	.st19{fill:none;stroke:url(#SVGID_00000106830314480240721320000005501352252569716627_);stroke-width:0.7473;}
	.st20{fill:none;stroke:url(#SVGID_00000037672346733920312030000018267740378901720198_);stroke-width:0.7473;}
	.st21{fill:none;stroke:url(#SVGID_00000137815114197266428670000001790931140909314699_);stroke-width:0.7473;}
	.st22{fill:none;stroke:url(#SVGID_00000181066517018539055440000002118667583985099171_);stroke-width:0.7473;}
	.st23{fill:none;stroke:url(#SVGID_00000086680745750177974160000012935504578485485738_);stroke-width:0.7473;}
</style>
<g class="st0">
	<defs>
		<rect id="SVGID_1_" x="0" class="st0" width="869.1" height="268.7"/>
	</defs>
	<clipPath id="SVGID_00000087389013089083111060000013635903796348647561_">
		<use xlink:href="#SVGID_1_"  style="overflow:visible;"/>
	</clipPath>
	<g style="clip-path:url(#SVGID_00000087389013089083111060000013635903796348647561_);">
		
			<linearGradient id="SVGID_00000045584764187900147290000015639263482337077434_" gradientUnits="userSpaceOnUse" x1="-2112.0657" y1="1630.9849" x2="-2112.0657" y2="1198.6362" gradientTransform="matrix(0.9322 -0.5472 0.3709 0.6319 1767.4805 -2230.2666)">
			<stop  offset="1.614687e-07" style="stop-color:#179BD1"/>
			<stop  offset="0.3587" style="stop-color:#0D433F"/>
			<stop  offset="0.7313" style="stop-color:#26B7AE"/>
			<stop  offset="1" style="stop-color:#35D6A3"/>
		</linearGradient>
		<path style="fill:none;stroke:url(#SVGID_00000045584764187900147290000015639263482337077434_);stroke-width:0.7473;" d="
			M-329.7,140.1c36.7-2,212.9,14,140.5-157.2c-59.7-141,351.2,1.4,399.6,14c191.1,49.6,131.6-62.8,138.6-161.2
			c6.3-88.1,139.1-282.5,218.4-164c63.8,95.3,140,92.4,270.1-96c53.6-77.7,139,81.1,164.1-34.1"/>
		
			<linearGradient id="SVGID_00000129173138796659120900000017168075817304409528_" gradientUnits="userSpaceOnUse" x1="-2113.8411" y1="1656.389" x2="-2113.8411" y2="1242.2061" gradientTransform="matrix(0.9322 -0.5472 0.3709 0.6319 1767.4805 -2230.2666)">
			<stop  offset="1.614687e-07" style="stop-color:#179BD1"/>
			<stop  offset="0.3587" style="stop-color:#0D433F"/>
			<stop  offset="0.7313" style="stop-color:#26B7AE"/>
			<stop  offset="1" style="stop-color:#35D6A3"/>
		</linearGradient>
		<path style="fill:none;stroke:url(#SVGID_00000129173138796659120900000017168075817304409528_);stroke-width:0.7473;" d="
			M-313.6,167c36.4-1.8,208.6,12,140.3-155.8c-56.8-139.3,333.7-9.1,383.7,3.1c191,46.9,144-50,151.1-146.9
			c6.6-90.2,130.9-280.4,213.5-168.1c66.8,90.8,141.4,94.7,267.2-87.8c54.1-79,138.9,61.5,166.7-49.4"/>
		
			<linearGradient id="SVGID_00000103973617617756369430000012856184233296097460_" gradientUnits="userSpaceOnUse" x1="-2115.6169" y1="1682.7281" x2="-2115.6169" y2="1285.6407" gradientTransform="matrix(0.9322 -0.5472 0.3709 0.6319 1767.4805 -2230.2666)">
			<stop  offset="1.614687e-07" style="stop-color:#179BD1"/>
			<stop  offset="0.3587" style="stop-color:#0D433F"/>
			<stop  offset="0.7313" style="stop-color:#26B7AE"/>
			<stop  offset="1" style="stop-color:#35D6A3"/>
		</linearGradient>
		<path style="fill:none;stroke:url(#SVGID_00000103973617617756369430000012856184233296097460_);stroke-width:0.7473;" d="
			M-297.5,193.9c36.2-1.6,204.4,9.9,140.2-154.3c-53.9-137.6,316.2-19.7,367.7-7.7c191,44.3,156.5-37.1,163.5-132.7
			c7-92.2,122.7-278.4,208.6-172.2c69.8,86.3,143.4,97.4,264.3-79.6c54.7-80.2,138.8,42,169.2-64.7"/>
		
			<linearGradient id="SVGID_00000120526737699353469040000008705769310975504790_" gradientUnits="userSpaceOnUse" x1="-2117.3933" y1="1710.2034" x2="-2117.3933" y2="1328.9172" gradientTransform="matrix(0.9322 -0.5472 0.3709 0.6319 1767.4805 -2230.2666)">
			<stop  offset="1.614687e-07" style="stop-color:#179BD1"/>
			<stop  offset="0.3587" style="stop-color:#0D433F"/>
			<stop  offset="0.7313" style="stop-color:#26B7AE"/>
			<stop  offset="1" style="stop-color:#35D6A3"/>
		</linearGradient>
		<path style="fill:none;stroke:url(#SVGID_00000120526737699353469040000008705769310975504790_);stroke-width:0.7473;" d="
			M-281.4,220.8c36-1.4,200.2,7.7,140-152.9c-50.9-136,298.7-30.2,351.8-18.6C401.3,91,379.4,25,386.4-69.1
			c7.4-94.3,114.6-276.4,203.7-176.3c72.8,81.8,145.1,99.8,261.4-71.4c55.3-81.4,138.7,22.4,171.8-80.1"/>
		
			<linearGradient id="SVGID_00000141435506195032027650000017673552507652706964_" gradientUnits="userSpaceOnUse" x1="-2119.1702" y1="1738.9926" x2="-2119.1702" y2="1372.0068" gradientTransform="matrix(0.9322 -0.5472 0.3709 0.6319 1767.4805 -2230.2666)">
			<stop  offset="1.614687e-07" style="stop-color:#179BD1"/>
			<stop  offset="0.3587" style="stop-color:#0D433F"/>
			<stop  offset="0.7313" style="stop-color:#26B7AE"/>
			<stop  offset="1" style="stop-color:#35D6A3"/>
		</linearGradient>
		<path style="fill:none;stroke:url(#SVGID_00000141435506195032027650000017673552507652706964_);stroke-width:0.7473;" d="
			M-265.3,247.6c35.8-1.2,196,5.6,139.9-151.5c-48-134.3,281.2-40.7,335.9-29.4C401.2,106,391.7,55.2,398.9-37.4
			c7.6-96.4,106.5-274.3,198.8-180.3c75.9,77.3,146.7,102.3,258.5-63.3c55.8-82.7,138.6,2.9,174.3-95.4"/>
		
			<linearGradient id="SVGID_00000173158858652085195670000003881304782426923698_" gradientUnits="userSpaceOnUse" x1="-2120.9478" y1="1769.4316" x2="-2120.9478" y2="1414.8733" gradientTransform="matrix(0.9322 -0.5472 0.3709 0.6319 1767.4805 -2230.2666)">
			<stop  offset="1.614687e-07" style="stop-color:#179BD1"/>
			<stop  offset="0.3587" style="stop-color:#0D433F"/>
			<stop  offset="0.7313" style="stop-color:#26B7AE"/>
			<stop  offset="1" style="stop-color:#35D6A3"/>
		</linearGradient>
		<path style="fill:none;stroke:url(#SVGID_00000173158858652085195670000003881304782426923698_);stroke-width:0.7473;" d="
			M-249.2,274.5c35.6-1,191.9,3.4,139.8-150c-45.1-132.7,263.7-51.2,320-40.3c190.6,36.9,193.6,1.3,200.9-89.9
			c7.9-98.4,98.4-272.3,193.9-184.4c79.1,72.8,148.3,104.7,255.5-55.1c56.3-84,138.5-16.7,176.9-110.7"/>
		
			<linearGradient id="SVGID_00000065063918623194438150000013186665619893245848_" gradientUnits="userSpaceOnUse" x1="-2122.7258" y1="1804.7972" x2="-2122.7258" y2="1457.4705" gradientTransform="matrix(0.9322 -0.5472 0.3709 0.6319 1767.4805 -2230.2666)">
			<stop  offset="1.614687e-07" style="stop-color:#179BD1"/>
			<stop  offset="0.3587" style="stop-color:#0D433F"/>
			<stop  offset="0.7313" style="stop-color:#26B7AE"/>
			<stop  offset="1" style="stop-color:#35D6A3"/>
		</linearGradient>
		<path style="fill:none;stroke:url(#SVGID_00000065063918623194438150000013186665619893245848_);stroke-width:0.7473;" d="
			M-233.1,301.4c35.4-0.8,187.8,1.3,139.6-148.6c-42.1-131,246.1-61.7,304-51.1c190.4,34.6,206,14.2,213.4-75.6
			c8.3-100.5,90.4-270.3,189-188.5c82.3,68.3,149.9,107,252.6-46.9c56.9-85.2,138.4-36.2,179.5-126"/>
		
			<linearGradient id="SVGID_00000023260532256607324490000016638454553740174234_" gradientUnits="userSpaceOnUse" x1="-2124.5049" y1="1846.2964" x2="-2124.5049" y2="1499.7393" gradientTransform="matrix(0.9322 -0.5472 0.3709 0.6319 1767.4805 -2230.2666)">
			<stop  offset="1.614687e-07" style="stop-color:#179BD1"/>
			<stop  offset="0.3587" style="stop-color:#0D433F"/>
			<stop  offset="0.7313" style="stop-color:#26B7AE"/>
			<stop  offset="1" style="stop-color:#35D6A3"/>
		</linearGradient>
		<path style="fill:none;stroke:url(#SVGID_00000023260532256607324490000016638454553740174234_);stroke-width:0.7473;" d="
			M-216.9,328.3c35.1-0.6,183.7-0.9,139.5-147.2c-39.1-129.4,228.6-72.1,288.1-62c190.2,32.4,218.4,27,225.8-61.3
			c8.6-102.6,82.5-268.3,184.1-192.5C706.1-71,772-25.4,870.3-173.5c57.4-86.5,138.2-55.8,182-141.4"/>
		
			<linearGradient id="SVGID_00000103972114554615932990000005401668384091211399_" gradientUnits="userSpaceOnUse" x1="-2126.2847" y1="1887.9712" x2="-2126.2847" y2="1541.6021" gradientTransform="matrix(0.9322 -0.5472 0.3709 0.6319 1767.4805 -2230.2666)">
			<stop  offset="1.614687e-07" style="stop-color:#179BD1"/>
			<stop  offset="0.3587" style="stop-color:#0D433F"/>
			<stop  offset="0.7313" style="stop-color:#26B7AE"/>
			<stop  offset="1" style="stop-color:#35D6A3"/>
		</linearGradient>
		<path style="fill:none;stroke:url(#SVGID_00000103972114554615932990000005401668384091211399_);stroke-width:0.7473;" d="
			M-200.8,355.2c34.9-0.4,179.6-3.1,139.3-145.8c-36.1-127.8,211-82.6,272.2-72.8c190,30.2,230.9,39.8,238.3-47.1
			c9-104.6,74.6-266.3,179.2-196.6C717-47.9,781.2,4.6,875-137.7c57.9-87.8,138.1-75.3,184.6-156.7"/>
		
			<linearGradient id="SVGID_00000134962021280717802130000004692696306770574983_" gradientUnits="userSpaceOnUse" x1="-2128.0657" y1="1929.8208" x2="-2128.0657" y2="1582.9562" gradientTransform="matrix(0.9322 -0.5472 0.3709 0.6319 1767.4805 -2230.2666)">
			<stop  offset="1.614687e-07" style="stop-color:#179BD1"/>
			<stop  offset="0.3587" style="stop-color:#0D433F"/>
			<stop  offset="0.7313" style="stop-color:#26B7AE"/>
			<stop  offset="1" style="stop-color:#35D6A3"/>
		</linearGradient>
		<path style="fill:none;stroke:url(#SVGID_00000134962021280717802130000004692696306770574983_);stroke-width:0.7473;" d="
			M-184.7,382c34.7-0.1,175.6-5.4,139.2-144.3c-33.1-126.2,193.5-93,256.2-83.7c189.8,28.1,243.3,52.6,250.8-32.8
			c9.3-106.7,66.8-264.4,174.3-200.7c92.1,54.6,154.4,114.1,243.9-22.4c58.4-89.1,138-94.9,187.1-172"/>
		
			<linearGradient id="SVGID_00000139997068200681982010000009061321911537081782_" gradientUnits="userSpaceOnUse" x1="-2129.8477" y1="1971.8444" x2="-2129.8477" y2="1623.6635" gradientTransform="matrix(0.9322 -0.5472 0.3709 0.6319 1767.4805 -2230.2666)">
			<stop  offset="1.614687e-07" style="stop-color:#179BD1"/>
			<stop  offset="0.3587" style="stop-color:#0D433F"/>
			<stop  offset="0.7313" style="stop-color:#26B7AE"/>
			<stop  offset="1" style="stop-color:#35D6A3"/>
		</linearGradient>
		<path style="fill:none;stroke:url(#SVGID_00000139997068200681982010000009061321911537081782_);stroke-width:0.7473;" d="
			M-168.6,408.9C-134.1,409,3,401.3-29.6,266c-30-124.7,176-103.4,240.3-94.5C400.3,197.5,466.5,237,474,153
			c9.7-108.8,59-262.6,169.4-204.8c95.4,50,155.9,116.4,241-14.2c58.9-90.4,137.9-114.4,189.7-187.3"/>
		
			<linearGradient id="SVGID_00000049221672377060845740000016830216926613887911_" gradientUnits="userSpaceOnUse" x1="-2131.6309" y1="2014.0408" x2="-2131.6309" y2="1663.5369" gradientTransform="matrix(0.9322 -0.5472 0.3709 0.6319 1767.4805 -2230.2666)">
			<stop  offset="1.614687e-07" style="stop-color:#179BD1"/>
			<stop  offset="0.3587" style="stop-color:#0D433F"/>
			<stop  offset="0.7313" style="stop-color:#26B7AE"/>
			<stop  offset="1" style="stop-color:#35D6A3"/>
		</linearGradient>
		<path style="fill:none;stroke:url(#SVGID_00000049221672377060845740000016830216926613887911_);stroke-width:0.7473;" d="
			M-152.5,435.8c34.3,0.3,167.7-9.9,138.9-141.5c-26.9-123.1,158.4-113.8,224.4-105.4c189.3,24,268.2,78.3,275.7-4.3
			C496.6,73.9,537.7-76.1,651-24.2c98.8,45.3,157.3,118.7,238.1-6c59.4-91.7,137.8-134,192.3-202.7"/>
		
			<linearGradient id="SVGID_00000138566339631502945130000008136380864593337994_" gradientUnits="userSpaceOnUse" x1="-2133.4155" y1="2056.4094" x2="-2133.4155" y2="1702.3225" gradientTransform="matrix(0.9322 -0.5472 0.3709 0.6319 1767.4805 -2230.2666)">
			<stop  offset="1.614687e-07" style="stop-color:#179BD1"/>
			<stop  offset="0.3587" style="stop-color:#0D433F"/>
			<stop  offset="0.7313" style="stop-color:#26B7AE"/>
			<stop  offset="1" style="stop-color:#35D6A3"/>
		</linearGradient>
		<path style="fill:none;stroke:url(#SVGID_00000138566339631502945130000008136380864593337994_);stroke-width:0.7473;" d="
			M-136.4,462.7c34.1,0.5,163.8-12.2,138.8-140C-21.4,201,143.2,198.5,210.8,206.4c189.1,22.1,280.7,91.1,288.2,10
			c10.5-112.9,43.5-259,159.6-212.9c102.2,40.6,158.8,120.9,235.2,2.2c59.8-93,137.7-153.5,194.8-218"/>
		
			<linearGradient id="SVGID_00000044156650388483022510000016388769742913598901_" gradientUnits="userSpaceOnUse" x1="-2135.2012" y1="2098.9495" x2="-2135.2012" y2="1739.6813" gradientTransform="matrix(0.9322 -0.5472 0.3709 0.6319 1767.4805 -2230.2666)">
			<stop  offset="1.614687e-07" style="stop-color:#179BD1"/>
			<stop  offset="0.3587" style="stop-color:#0D433F"/>
			<stop  offset="0.7313" style="stop-color:#26B7AE"/>
			<stop  offset="1" style="stop-color:#35D6A3"/>
		</linearGradient>
		<path style="fill:none;stroke:url(#SVGID_00000044156650388483022510000016388769742913598901_);stroke-width:0.7473;" d="
			M-120.3,489.6c33.8,0.7,159.9-14.5,138.6-138.6C-2.2,230.9,141.7,216.5,210.9,223.9c188.9,20.2,293.1,104,300.6,24.3
			c10.8-114.9,35.8-257.3,154.7-217c105.6,35.8,160.1,123.2,232.3,10.3c60.3-94.3,137.6-173.1,197.4-233.3"/>
		
			<linearGradient id="SVGID_00000139262787376270721210000006898841687521374649_" gradientUnits="userSpaceOnUse" x1="-2136.9883" y1="2141.6602" x2="-2136.9883" y2="1775.1877" gradientTransform="matrix(0.9322 -0.5472 0.3709 0.6319 1767.4805 -2230.2666)">
			<stop  offset="1.614687e-07" style="stop-color:#179BD1"/>
			<stop  offset="0.3587" style="stop-color:#0D433F"/>
			<stop  offset="0.7313" style="stop-color:#26B7AE"/>
			<stop  offset="1" style="stop-color:#35D6A3"/>
		</linearGradient>
		<path style="fill:none;stroke:url(#SVGID_00000139262787376270721210000006898841687521374649_);stroke-width:0.7473;" d="
			M-104.2,516.4c33.6,0.9,156.1-16.8,138.5-137.2C17,260.7,140.1,234.4,210.9,241.3c188.6,18.3,305.6,116.8,313.1,38.5
			c11.2-117,28-255.7,149.8-221.1c109,31,161.5,125.4,229.3,18.5c60.7-95.6,137.5-192.6,199.9-248.6"/>
		
			<linearGradient id="SVGID_00000151508176831909815520000016456613597949931930_" gradientUnits="userSpaceOnUse" x1="-2138.7764" y1="2184.5405" x2="-2138.7764" y2="1808.3875" gradientTransform="matrix(0.9322 -0.5472 0.3709 0.6319 1767.4805 -2230.2666)">
			<stop  offset="1.614687e-07" style="stop-color:#179BD1"/>
			<stop  offset="0.3587" style="stop-color:#0D433F"/>
			<stop  offset="0.7313" style="stop-color:#26B7AE"/>
			<stop  offset="1" style="stop-color:#35D6A3"/>
		</linearGradient>
		<path style="fill:none;stroke:url(#SVGID_00000151508176831909815520000016456613597949931930_);stroke-width:0.7473;" d="
			M-88.1,543.3c33.4,1.1,152.4-19.1,138.4-135.8c-14-117,88.2-155.1,160.7-148.8c188.4,16.5,318.1,129.6,325.6,52.8
			c11.6-119.1,20.3-254.1,144.9-225.1c112.4,26.1,162.9,127.7,226.4,26.7c61.1-97,137.4-212.2,202.5-264"/>
		
			<linearGradient id="SVGID_00000078043623835886138160000016528599255070831276_" gradientUnits="userSpaceOnUse" x1="-2140.5652" y1="2227.5894" x2="-2140.5652" y2="1838.9705" gradientTransform="matrix(0.9322 -0.5472 0.3709 0.6319 1767.4805 -2230.2666)">
			<stop  offset="1.614687e-07" style="stop-color:#179BD1"/>
			<stop  offset="0.3587" style="stop-color:#0D433F"/>
			<stop  offset="0.7313" style="stop-color:#26B7AE"/>
			<stop  offset="1" style="stop-color:#35D6A3"/>
		</linearGradient>
		<path style="fill:none;stroke:url(#SVGID_00000078043623835886138160000016528599255070831276_);stroke-width:0.7473;" d="
			M-71.9,570.2c33.2,1.3,148.7-21.4,138.2-134.3C55.6,320.3,136.9,270.4,211,276.2c188.2,14.7,330.5,142.5,338,67.1
			c12.1-121.1,12.5-252.5,140.1-229.2C804.8,135.3,853.3,244,912.6,149c61.5-98.4,137.3-231.8,205.1-279.3"/>
		
			<linearGradient id="SVGID_00000139265262764798081830000010050956062593146812_" gradientUnits="userSpaceOnUse" x1="-2142.3542" y1="2270.8049" x2="-2142.3542" y2="1866.9977" gradientTransform="matrix(0.9322 -0.5472 0.3709 0.6319 1767.4805 -2230.2666)">
			<stop  offset="1.614687e-07" style="stop-color:#179BD1"/>
			<stop  offset="0.3587" style="stop-color:#0D433F"/>
			<stop  offset="0.7313" style="stop-color:#26B7AE"/>
			<stop  offset="1" style="stop-color:#35D6A3"/>
		</linearGradient>
		<path style="fill:none;stroke:url(#SVGID_00000139265262764798081830000010050956062593146812_);stroke-width:0.7473;" d="
			M-55.8,597.1c33,1.6,145.1-23.7,138.1-132.9C75,350.1,135.3,288.5,211,293.7C399,306.6,554.1,449,561.5,375
			c12.5-123.2,4.7-251,135.2-233.3c119.1,16.2,165.5,132.1,220.6,43.1c61.8-99.8,137.2-251.3,207.6-294.6"/>
		
			<linearGradient id="SVGID_00000135689310465668446520000008034669307149244076_" gradientUnits="userSpaceOnUse" x1="-2144.1216" y1="2314.1853" x2="-2144.1216" y2="1892.9191" gradientTransform="matrix(0.9322 -0.5472 0.3709 0.6319 1767.4805 -2230.2666)">
			<stop  offset="1.614687e-07" style="stop-color:#179BD1"/>
			<stop  offset="0.3587" style="stop-color:#0D433F"/>
			<stop  offset="0.7313" style="stop-color:#26B7AE"/>
			<stop  offset="1" style="stop-color:#35D6A3"/>
		</linearGradient>
		<path style="fill:none;stroke:url(#SVGID_00000135689310465668446520000008034669307149244076_);stroke-width:0.7473;" d="
			M-39.7,623.9c32.7,1.8,141.5-26,137.9-131.5C94.4,380,133.8,306.5,211.1,311.1c187.7,11.2,355.6,168.1,363,95.6
			c13.1-125.2-3.1-249.6,130.3-237.3c122.5,11.2,166.7,134.3,217.7,51.2c62.1-101.2,137-270.9,210.2-309.9"/>
		
			<linearGradient id="SVGID_00000031918835126673270520000011310074328156158625_" gradientUnits="userSpaceOnUse" x1="-2145.8779" y1="2357.7285" x2="-2145.8779" y2="1917.3177" gradientTransform="matrix(0.9322 -0.5472 0.3709 0.6319 1767.4805 -2230.2666)">
			<stop  offset="1.614687e-07" style="stop-color:#179BD1"/>
			<stop  offset="0.3587" style="stop-color:#0D433F"/>
			<stop  offset="0.7313" style="stop-color:#26B7AE"/>
			<stop  offset="1" style="stop-color:#35D6A3"/>
		</linearGradient>
		<path style="fill:none;stroke:url(#SVGID_00000031918835126673270520000011310074328156158625_);stroke-width:0.7473;" d="
			M-23.6,650.8c32.5,2,138-28.2,137.8-130c-0.2-111,18-196.2,96.9-192.2c187.5,9.5,368.1,181,375.4,109.9
			c13.5-127.3-10.9-248.1,125.4-241.4c125.8,6.2,168,136.4,214.8,59.4c62.3-102.6,136.9-290.4,212.7-325.3"/>
		
			<linearGradient id="SVGID_00000047052206387848339760000012748532884846394044_" gradientUnits="userSpaceOnUse" x1="-2147.635" y1="2401.4314" x2="-2147.635" y2="1940.6823" gradientTransform="matrix(0.9322 -0.5472 0.3709 0.6319 1767.4805 -2230.2666)">
			<stop  offset="1.614687e-07" style="stop-color:#179BD1"/>
			<stop  offset="0.3587" style="stop-color:#0D433F"/>
			<stop  offset="0.7313" style="stop-color:#26B7AE"/>
			<stop  offset="1" style="stop-color:#35D6A3"/>
		</linearGradient>
		<path style="fill:none;stroke:url(#SVGID_00000047052206387848339760000012748532884846394044_);stroke-width:0.7473;" d="
			M-7.5,677.7c32.3,2.2,134.6-30.5,137.7-128.6c3.5-109.4,0.4-206.4,81-203c187.3,7.8,380.5,193.8,387.9,124.1
			c13.9-129.3-18.8-246.7,120.5-245.5c129.1,1.1,169.2,138.6,211.9,67.6c62.5-104.1,136.8-310,215.3-340.6"/>
		
			<linearGradient id="SVGID_00000018200215608747731740000011470339252407210391_" gradientUnits="userSpaceOnUse" x1="-2149.3931" y1="2445.2908" x2="-2149.3931" y2="1963.3514" gradientTransform="matrix(0.9322 -0.5472 0.3709 0.6319 1767.4805 -2230.2666)">
			<stop  offset="1.614687e-07" style="stop-color:#179BD1"/>
			<stop  offset="0.3587" style="stop-color:#0D433F"/>
			<stop  offset="0.7313" style="stop-color:#26B7AE"/>
			<stop  offset="1" style="stop-color:#35D6A3"/>
		</linearGradient>
		<path style="fill:none;stroke:url(#SVGID_00000018200215608747731740000011470339252407210391_);stroke-width:0.7473;" d="
			M8.6,704.6c32.1,2.4,131.2-32.7,137.5-127.2c7.2-107.8-17.1-216.6,65.1-213.9c187.1,6.1,393,206.6,400.4,138.4
			c14.3-131.4-26.6-245.3,115.6-249.6c132.3-3.9,170.5,140.8,209,75.8C998.7,222.5,1072.9-1.4,1154-27.8"/>
	</g>
</g>
</svg>
