<?xml version="1.0" encoding="utf-8"?>
<!-- Generator: Adobe Illustrator 26.0.2, SVG Export Plug-In . SVG Version: 6.00 Build 0)  -->
<svg version="1.1" id="Layer_1" xmlns="http://www.w3.org/2000/svg" xmlns:xlink="http://www.w3.org/1999/xlink" x="0px" y="0px"
	 viewBox="0 0 90 90" style="enable-background:new 0 0 90 90;" xml:space="preserve">
<style type="text/css">
	.st0{fill:#1A1E24;}
	.st1{opacity:0.9;}
	.st2{fill:#5E6675;}
</style>
<g>
	<g>
		<g transform="translate(-319.000000, -1055.000000) translate(319.000000, 1055.000000)">
			<circle class="st0" cx="45" cy="45" r="45"/>
		</g>
	</g>
	<g class="st1">
		<path class="st2" d="M47.7,39.3V26.2c0-1-0.8-1.7-1.7-1.7s-1.7,0.8-1.7,1.7v13.1c0,1,0.8,1.7,1.7,1.7C47,41,47.7,40.2,47.7,39.3z"
			/>
		<path class="st2" d="M29,48c1,6.3,5.2,11.4,11.3,13.6s12.6,0.9,17.4-3.5c4.5-4.1,6.4-10,5.3-16c-1.1-5.9-5.3-10.8-10.9-12.8
			c0,0.8,0,1.3,0,1.9c0,0.9,0,1.6,0,1.9c5.7,2.8,8.7,9,7.5,15.2c-1,4.8-4.4,8.5-9,10c-4.7,1.5-9.7,0.6-13.4-2.7
			c-3.5-3.2-5.3-7.8-4.6-12.5c0.7-4.6,3.4-8.2,7.7-10.1c0-0.9,0-1.5,0-2.1c0-0.9,0-1.5-0.1-1.7C32.4,32,27.7,39.9,29,48z"/>
	</g>
</g>
</svg>
