<?xml version="1.0" encoding="utf-8"?>
<!-- Generator: Adobe Illustrator 26.0.2, SVG Export Plug-In . SVG Version: 6.00 Build 0)  -->
<svg version="1.1" id="Layer_1" xmlns="http://www.w3.org/2000/svg" xmlns:xlink="http://www.w3.org/1999/xlink" x="0px" y="0px"
	 viewBox="0 0 779.7 593.5" style="enable-background:new 0 0 779.7 593.5;" xml:space="preserve">
<style type="text/css">
	.st0{filter:url(#Adobe_OpacityMaskFilter);}
	.st1{fill:#FFFFFF;}
	.st2{mask:url(#SVGID_1_);}
	.st3{fill:#111316;}
</style>
<defs>
	<filter id="Adobe_OpacityMaskFilter" filterUnits="userSpaceOnUse" x="-26.4" y="-21.1" width="806.1" height="670.6">
		<feColorMatrix  type="matrix" values="1 0 0 0 0  0 1 0 0 0  0 0 1 0 0  0 0 0 1 0"/>
	</filter>
</defs>
<mask maskUnits="userSpaceOnUse" x="-26.4" y="-21.1" width="806.1" height="670.6" id="SVGID_1_">
	<g class="st0">
		<polygon class="st1" points="672.9,-1.5 -0.1,-1.5 -0.1,593.5 672.9,593.5 812.9,291.5 		"/>
	</g>
</mask>
<g class="st2">
	<polygon class="st3" points="764.9,513.4 738.7,417.1 673.8,384.4 732.8,423.6 760.5,518.2 	"/>
	<polygon class="st3" points="23.1,-0.1 121,62.2 145,135.5 235.3,166.8 152.7,128.2 128.4,54.4 44.6,1.1 	"/>
	<polygon class="st3" points="657.5,-14.3 533.6,39.3 520.5,146.8 366.5,279.2 528.9,153.1 543,44.8 657.8,-8.9 	"/>
	<polygon class="st3" points="93.2,35.1 100.7,93.9 70.9,110.9 59,157.5 65.1,103.5 94.1,85.9 82.4,30.7 	"/>
	<polygon class="st3" points="539.9,618.1 516.4,546.7 595.6,496.2 615,431.4 599,503.3 525.5,549.9 541.6,628.8 	"/>
	<polygon class="st3" points="674.8,649.5 593.5,547.4 630,357.6 584,549 	"/>
	<polygon class="st3" points="576.3,26.4 633.3,64.1 618.6,140.2 676.3,181.1 610.1,144.9 625.4,69 571.6,29.4 	"/>
	<polygon class="st3" points="-8.1,544 52.6,499.8 184.2,568.7 307.4,490 184.6,560.7 51.5,489.7 -9.4,535.5 	"/>
	<polygon class="st3" points="-18.6,340.3 31.2,400 16.2,432.1 -26.4,445.5 12.7,428.8 26.9,400.3 -18.6,342.6 	"/>
	<polygon class="st3" points="52.6,496.3 79,547 16.7,649.3 87.5,548.4 64.2,502.4 	"/>
	<polygon class="st3" points="268.8,-11.2 243.4,36.4 208.1,35.5 169.9,68.6 206.2,28.1 240,30.7 262.6,-21.1 	"/>
	<polygon class="st3" points="775.7,161.7 682,182.5 779.7,153.2 	"/>
	<polygon class="st3" points="97.1,353.7 108.9,405.2 159.1,431 113.7,400.5 100.2,347.5 29,305.9 	"/>
	<polygon class="st3" points="481.7,620.9 469.4,569.1 418.8,543 464.6,573.9 478.6,627.1 	"/>
</g>
</svg>
