<?xml version="1.0" encoding="utf-8"?>
<!-- Generator: Adobe Illustrator 25.0.0, SVG Export Plug-In . SVG Version: 6.00 Build 0)  -->
<svg version="1.1" xmlns="http://www.w3.org/2000/svg" xmlns:xlink="http://www.w3.org/1999/xlink" x="0px" y="0px"
	 viewBox="0 0 1341 1350" style="enable-background:new 0 0 1341 1350;" xml:space="preserve">
<style type="text/css">
	.st0{fill:none;stroke:url(#SVGID_1_);stroke-width:1.9852;}
	.st1{fill:none;stroke:url(#SVGID_2_);stroke-width:1.9852;}
	.st2{fill:none;stroke:url(#SVGID_3_);stroke-width:1.9852;}
	.st3{fill:none;stroke:url(#SVGID_4_);stroke-width:1.9852;}
	.st4{fill:none;stroke:url(#SVGID_5_);stroke-width:1.9852;}
	.st5{fill:none;stroke:url(#SVGID_6_);stroke-width:1.9852;}
	.st6{fill:none;stroke:url(#SVGID_7_);stroke-width:1.9852;}
	.st7{fill:none;stroke:url(#SVGID_8_);stroke-width:1.9852;}
	.st8{fill:none;stroke:url(#SVGID_9_);stroke-width:1.9852;}
	.st9{fill:none;stroke:url(#SVGID_10_);stroke-width:1.9852;}
	.st10{fill:none;stroke:url(#SVGID_11_);stroke-width:1.9852;}
	.st11{fill:none;stroke:url(#SVGID_12_);stroke-width:1.9852;}
	.st12{fill:none;stroke:url(#SVGID_13_);stroke-width:1.9852;}
	.st13{fill:none;stroke:url(#SVGID_14_);stroke-width:1.9852;}
	.st14{fill:none;stroke:url(#SVGID_15_);stroke-width:1.9852;}
	.st15{fill:none;stroke:url(#SVGID_16_);stroke-width:1.9852;}
</style>
<g id="Layer_5">
	<g>
		
			<linearGradient id="SVGID_1_" gradientUnits="userSpaceOnUse" x1="-1016.3007" y1="1393.8036" x2="-709.6804" y2="1393.8036" gradientTransform="matrix(1.1266 2.0707 0.6867 -0.3736 373.8967 2692.2734)">
			<stop  offset="0" style="stop-color:#006D62"/>
			<stop  offset="0.5168" style="stop-color:#001713"/>
			<stop  offset="1" style="stop-color:#00AF85"/>
		</linearGradient>
		<polygon class="st0" points="564.4,681.4 543.6,571.9 540.3,554.4 532.4,508 519.1,430.7 293.1,15.3 427,756.2 		"/>
		
			<linearGradient id="SVGID_2_" gradientUnits="userSpaceOnUse" x1="-673.9952" y1="1393.0511" x2="-367.4684" y2="1393.0511" gradientTransform="matrix(1.1266 2.0707 0.6867 -0.3736 373.8967 2692.2734)">
			<stop  offset="0" style="stop-color:#006D62"/>
			<stop  offset="0.5168" style="stop-color:#001713"/>
			<stop  offset="1" style="stop-color:#00AF85"/>
		</linearGradient>
		<polygon class="st1" points="468.4,834.8 1018.7,1348.9 793.3,934.7 713.2,861.2 700.5,849.5 665.6,816.3 606.2,759.8 		"/>
		
			<linearGradient id="SVGID_3_" gradientUnits="userSpaceOnUse" x1="-673.9957" y1="1735.8856" x2="-366.1347" y2="1735.8856" gradientTransform="matrix(1.1266 2.0707 0.6867 -0.3736 373.8967 2692.2734)">
			<stop  offset="0" style="stop-color:#006D62"/>
			<stop  offset="0.5168" style="stop-color:#001713"/>
			<stop  offset="1" style="stop-color:#00AF85"/>
		</linearGradient>
		<polygon class="st2" points="911.5,593.7 774.1,668.5 795.2,779.4 798.5,796.9 806.5,843.3 820,922.1 1046,1337.6 		"/>
		
			<linearGradient id="SVGID_4_" gradientUnits="userSpaceOnUse" x1="-1016.2949" y1="1735.9733" x2="-709.9615" y2="1735.9733" gradientTransform="matrix(1.1266 2.0707 0.6867 -0.3736 373.8967 2692.2734)">
			<stop  offset="0" style="stop-color:#006D62"/>
			<stop  offset="0.5168" style="stop-color:#001713"/>
			<stop  offset="1" style="stop-color:#00AF85"/>
		</linearGradient>
		<polygon class="st3" points="868.8,515 319,1.2 544.4,415.6 625.6,490 638.4,501.8 673.2,535 731.1,590 		"/>
	</g>
</g>
<g id="Layer_4">
	<g>
		
			<linearGradient id="SVGID_5_" gradientUnits="userSpaceOnUse" x1="-777.9353" y1="827.4373" x2="-448.1346" y2="827.4373" gradientTransform="matrix(1.7457 1.243 0.4122 -0.5789 1000.5001 1794.2258)">
			<stop  offset="0" style="stop-color:#006D62"/>
			<stop  offset="0.5168" style="stop-color:#001713"/>
			<stop  offset="1" style="stop-color:#00AF85"/>
		</linearGradient>
		<polygon class="st4" points="579.5,726.1 514.2,638.7 503.8,624.7 476.9,587.3 432.1,525 55.1,256.6 490.7,850.8 		"/>
		
			<linearGradient id="SVGID_6_" gradientUnits="userSpaceOnUse" x1="-409.5924" y1="826.6201" x2="-79.8977" y2="826.6201" gradientTransform="matrix(1.7457 1.243 0.4122 -0.5789 1000.5001 1794.2258)">
			<stop  offset="0" style="stop-color:#006D62"/>
			<stop  offset="0.5168" style="stop-color:#001713"/>
			<stop  offset="1" style="stop-color:#00AF85"/>
		</linearGradient>
		<polygon class="st5" points="560.8,902.1 1265.3,1118.3 889.4,850.7 787.5,820.4 771.2,815.6 726.3,801.3 649.9,777.1 		"/>
		
			<linearGradient id="SVGID_7_" gradientUnits="userSpaceOnUse" x1="-409.5967" y1="1195.5876" x2="-78.4636" y2="1195.5876" gradientTransform="matrix(1.7457 1.243 0.4122 -0.5789 1000.5001 1794.2258)">
			<stop  offset="0" style="stop-color:#006D62"/>
			<stop  offset="0.5168" style="stop-color:#001713"/>
			<stop  offset="1" style="stop-color:#00AF85"/>
		</linearGradient>
		<polygon class="st6" points="847.1,500 758.4,624.7 824.5,713.3 834.9,727.2 861.8,764.6 907.5,828.1 1284.5,1096.6 		"/>
		
			<linearGradient id="SVGID_8_" gradientUnits="userSpaceOnUse" x1="-777.8737" y1="1195.5763" x2="-448.4611" y2="1195.5763" gradientTransform="matrix(1.7457 1.243 0.4122 -0.5789 1000.5001 1794.2258)">
			<stop  offset="0" style="stop-color:#006D62"/>
			<stop  offset="0.5168" style="stop-color:#001713"/>
			<stop  offset="1" style="stop-color:#00AF85"/>
		</linearGradient>
		<polygon class="st7" points="775.8,449.2 71.9,233.2 447.8,500.9 551.2,531.5 567.5,536.4 612.4,550.6 686.8,574.2 		"/>
	</g>
</g>
<g id="Layer_3">
	<g>
		
			<linearGradient id="SVGID_9_" gradientUnits="userSpaceOnUse" x1="-606.41" y1="-101.908" x2="-276.5869" y2="-101.908" gradientTransform="matrix(1.9217 0.3199 0.1061 -0.6373 1154.5911 810.7646)">
			<stop  offset="0" style="stop-color:#006D62"/>
			<stop  offset="0.5168" style="stop-color:#001713"/>
			<stop  offset="1" style="stop-color:#00AF85"/>
		</linearGradient>
		<polygon class="st8" points="616,753 527.8,707.6 513.7,700.3 476.8,680.5 415.4,647.4 0.4,578.3 593.1,890.2 		"/>
		
			<linearGradient id="SVGID_10_" gradientUnits="userSpaceOnUse" x1="-238.0325" y1="-102.802" x2="91.6759" y2="-102.802" gradientTransform="matrix(1.9217 0.3199 0.1061 -0.6373 1154.5911 810.7646)">
			<stop  offset="0" style="stop-color:#006D62"/>
			<stop  offset="0.5168" style="stop-color:#001713"/>
			<stop  offset="1" style="stop-color:#00AF85"/>
		</linearGradient>
		<polygon class="st9" points="670.9,904.3 1332.7,800.1 918.8,731.2 823.5,747.1 808.3,749.7 765.9,755.9 693.8,766.6 		"/>
		
			<linearGradient id="SVGID_11_" gradientUnits="userSpaceOnUse" x1="-238.0423" y1="266.1292" x2="93.0873" y2="266.1292" gradientTransform="matrix(1.9217 0.3199 0.1061 -0.6373 1154.5911 810.7646)">
			<stop  offset="0" style="stop-color:#006D62"/>
			<stop  offset="0.5168" style="stop-color:#001713"/>
			<stop  offset="1" style="stop-color:#00AF85"/>
		</linearGradient>
		<polygon class="st10" points="744.6,461.6 721.7,598.9 811.1,644.9 825.1,652.1 862,671.9 924.6,705.7 1339.7,774.7 		"/>
		
			<linearGradient id="SVGID_12_" gradientUnits="userSpaceOnUse" x1="-606.3991" y1="266.2098" x2="-276.8873" y2="266.2098" gradientTransform="matrix(1.9217 0.3199 0.1061 -0.6373 1154.5911 810.7646)">
			<stop  offset="0" style="stop-color:#006D62"/>
			<stop  offset="0.5168" style="stop-color:#001713"/>
			<stop  offset="1" style="stop-color:#00AF85"/>
		</linearGradient>
		<polygon class="st11" points="666.1,448.5 4.7,552.5 418.6,621.4 515.3,605.3 530.5,602.8 572.9,596.5 643.1,586.1 		"/>
	</g>
</g>
<g id="Layer_2">
	<g>
		
			<linearGradient id="SVGID_13_" gradientUnits="userSpaceOnUse" x1="-585.469" y1="-1270.3162" x2="-255.6561" y2="-1270.3162" gradientTransform="matrix(1.6977 -0.5044 -0.1673 -0.563 888.6078 -54.227)">
			<stop  offset="0" style="stop-color:#006D62"/>
			<stop  offset="0.5168" style="stop-color:#001713"/>
			<stop  offset="1" style="stop-color:#00AF85"/>
		</linearGradient>
		<polygon class="st12" points="656.5,760.4 566.3,758.5 552,758.1 513.9,756.6 450.5,754.1 83.9,863 692.5,881.7 		"/>
		
			<linearGradient id="SVGID_14_" gradientUnits="userSpaceOnUse" x1="-217.1109" y1="-1271.0999" x2="112.6162" y2="-1271.0999" gradientTransform="matrix(1.6977 -0.5044 -0.1673 -0.563 888.6078 -54.227)">
			<stop  offset="0" style="stop-color:#006D62"/>
			<stop  offset="0.5168" style="stop-color:#001713"/>
			<stop  offset="1" style="stop-color:#00AF85"/>
		</linearGradient>
		<polygon class="st13" points="761.7,862.1 1260.9,513.3 895.3,622 823.7,672.9 812.3,681.1 780.2,703.1 725.5,740.6 		"/>
		
			<linearGradient id="SVGID_15_" gradientUnits="userSpaceOnUse" x1="-217.0737" y1="-902.2039" x2="114.0233" y2="-902.2039" gradientTransform="matrix(1.6977 -0.5044 -0.1673 -0.563 888.6078 -54.227)">
			<stop  offset="0" style="stop-color:#006D62"/>
			<stop  offset="0.5168" style="stop-color:#001713"/>
			<stop  offset="1" style="stop-color:#00AF85"/>
		</linearGradient>
		<polygon class="st14" points="645.5,471.1 681.5,592.3 772.8,594.3 787.2,594.6 825.2,596.2 889.8,598.7 1256.5,489.8 		"/>
		
			<linearGradient id="SVGID_16_" gradientUnits="userSpaceOnUse" x1="-585.4188" y1="-902.1366" x2="-255.9395" y2="-902.1366" gradientTransform="matrix(1.6977 -0.5044 -0.1673 -0.563 888.6078 -54.227)">
			<stop  offset="0" style="stop-color:#006D62"/>
			<stop  offset="0.5168" style="stop-color:#001713"/>
			<stop  offset="1" style="stop-color:#00AF85"/>
		</linearGradient>
		<polygon class="st15" points="576.1,491.6 77.2,840.2 442.8,731.6 515.4,679.8 526.8,671.7 558.9,649.7 612.2,613.2 		"/>
	</g>
</g>
</svg>
