<?xml version="1.0" encoding="utf-8"?>
<!-- Generator: Adobe Illustrator 25.0.0, SVG Export Plug-In . SVG Version: 6.00 Build 0)  -->
<svg version="1.1" id="Layer_1" xmlns:serif="http://www.serif.com/"
	 xmlns="http://www.w3.org/2000/svg" xmlns:xlink="http://www.w3.org/1999/xlink" x="0px" y="0px" viewBox="0 0 150 80"
	 style="enable-background:new 0 0 150 80;" xml:space="preserve">
<style type="text/css">
	.st0{fill-rule:evenodd;clip-rule:evenodd;fill:#FFFFFF;}
	.st1{fill:#FFFFFF;}
</style>
<g id="logo_horizontal">
	<g>
		<path class="st0" d="M0,8.7l18,7.7L7.1,14.8l29.3,54.6l29.3-54.6l-10.9,1.6l18-7.7L36.4,71.3L0,8.7L0,8.7z"/>
	</g>
	<g>
		<path class="st1" d="M82.4,40.9h1.2l1.8-13H84l-1,8.3l-1-8.3h-1.3C80.6,27.9,82.4,40.9,82.4,40.9z"/>
		<path class="st1" d="M93.9,41c0.7,0,2.1-0.1,2.1-2.7V27.9h-1.4v10.5c0,1.1-0.1,1.4-0.7,1.4s-0.7-0.2-0.7-1.4V27.9h-1.4v10.4
			C91.9,40.9,93.3,41,93.9,41z"/>
		<path class="st1" d="M103.4,40.9h3.5v-1.3h-2.2V27.9h-1.4V40.9z"/>
		<path class="st1" d="M113.3,40.9h1.4v-5h0.4c2.2,0,2.6-0.8,2.6-4.1c0-3.4-0.4-4-2.6-4h-1.7L113.3,40.9L113.3,40.9z M114.7,34.7
			v-5.5h0.4c1.1,0,1.3,0.5,1.3,2.6c0,2.4-0.1,2.9-1.3,2.9H114.7z"/>
		<path class="st1" d="M124.5,40.9h3.5v-1.2h-2.2v-5h1.6v-1.2h-1.6v-4.6h2v-1.2h-3.3L124.5,40.9L124.5,40.9z"/>
		<path class="st1" d="M134.6,40.9h1.3v-8.2l0.8,6.3h0.9l0.8-6.3v8.2h1.3v-13h-1.3l-1.2,8l-1.2-8h-1.3L134.6,40.9L134.6,40.9z"/>
		<path class="st1" d="M72.5,59.2h1.2l1.8-13h-1.3l-1,8.3l-1-8.3h-1.3C70.7,46.2,72.5,59.2,72.5,59.2z"/>
		<path class="st1" d="M82.1,59.2h3.5v-1.2h-2.2v-5h1.6v-1.2h-1.6v-4.6h2v-1.2h-3.3C82.1,46.2,82.1,59.2,82.1,59.2z"/>
		<path class="st1" d="M92.3,59.3h1.3v-8.1l1.7,8.1h1.3V46.2h-1.3V54l-1.6-7.8h-1.4C92.3,46.2,92.3,59.3,92.3,59.3z"/>
		<path class="st1" d="M104.3,59.2h1.4V47.4h1.4v-1.2h-4.1v1.2h1.4L104.3,59.2L104.3,59.2z"/>
		<path class="st1" d="M115.4,59.3c0.7,0,2.1-0.1,2.1-2.7V46.2h-1.4v10.5c0,1.1-0.1,1.4-0.7,1.4c-0.6,0-0.7-0.2-0.7-1.4V46.2h-1.4
			v10.4C113.3,59.2,114.7,59.3,115.4,59.3L115.4,59.3z"/>
		<path class="st1" d="M124.9,59.2h1.3v-5h0.8l0.9,5h1.3l-1-5.3c0.9-0.5,0.9-1.6,0.9-4.1c0-3.3-0.5-3.7-2.5-3.7h-1.6L124.9,59.2
			L124.9,59.2z M126.1,53v-5.5h0.4c1.2,0,1.2,0.1,1.2,2.5c0,2.7,0,3.1-1.2,3.1L126.1,53z"/>
		<path class="st1" d="M136.2,59.2h3.5v-1.2h-2.2v-5h1.6v-1.2h-1.6v-4.6h2v-1.2h-3.3L136.2,59.2L136.2,59.2z"/>
		<path class="st1" d="M148,59.3c1.4,0,2-0.9,2-2.8c0-4.1-2.7-5.3-2.7-8c0-0.9,0.1-1.3,0.6-1.3c0.5,0,0.6,0.3,0.6,1.3v1.3h1.3v-1.3
			c0-1.5-0.7-2.3-1.9-2.3c-1.3,0-1.9,0.8-1.9,2.2c0,3.5,2.6,4.4,2.6,8.1c0,1.4-0.2,1.7-0.7,1.7c-0.6,0-0.7-0.3-0.7-1.4v-2h-1.3
			l0,1.9C145.9,58.4,146.2,59.3,148,59.3L148,59.3z"/>
	</g>
</g>
</svg>
