<?xml version="1.0" encoding="utf-8"?>
<!-- Generator: Adobe Illustrator 25.3.1, SVG Export Plug-In . SVG Version: 6.00 Build 0)  -->
<svg version="1.1" id="Layer_1" xmlns="http://www.w3.org/2000/svg" xmlns:xlink="http://www.w3.org/1999/xlink" x="0px" y="0px"
	 viewBox="0 0 90 90" style="enable-background:new 0 0 90 90;" xml:space="preserve">
<style type="text/css">
	.st0{fill:#1A1E24;}
	.st1{fill:#00B45A;}
</style>
<g>
	<g>
		<g transform="translate(-1032.000000, -1055.000000) translate(1032.000000, 1055.000000)">
			<circle class="st0" cx="45" cy="45.5" r="45"/>
			<g>
				<path class="st1" d="M38.4,40.7c-2,0-3.7,1.3-4.2,3.2h-5v2.4h5c0.5,1.9,2.3,3.2,4.2,3.2c2,0,3.7-1.3,4.2-3.2h18.2v-2.4H42.6
					C42.1,42,40.4,40.7,38.4,40.7z M38.4,47.1c-1.1,0-2-0.9-2-2c0-1.1,0.9-2,2-2c1.1,0,2,0.9,2,2C40.4,46.2,39.5,47.1,38.4,47.1z
					 M51.6,29.7c-2,0-3.7,1.3-4.2,3.2H29.2v2.4h18.2c0.5,1.9,2.3,3.2,4.2,3.2c2,0,3.7-1.3,4.2-3.2h5v-2.4h-5
					C55.3,31,53.6,29.7,51.6,29.7z M51.6,36.1c-1.1,0-2-0.9-2-2c0-1.1,0.9-2,2-2c1.1,0,2,0.9,2,2C53.6,35.2,52.7,36.1,51.6,36.1z
					 M51.6,51.7c-2,0-3.7,1.3-4.2,3.2H29.2v2.4h18.2c0.5,1.9,2.3,3.2,4.2,3.2c2,0,3.7-1.3,4.2-3.2h5v-2.4h-5
					C55.3,53,53.6,51.7,51.6,51.7z M51.6,58.1c-1.1,0-2-0.9-2-2c0-1.1,0.9-2,2-2c1.1,0,2,0.9,2,2C53.6,57.2,52.7,58.1,51.6,58.1z"/>
			</g>
		</g>
	</g>
</g>
</svg>
