<?xml version="1.0" encoding="utf-8"?>
<!-- Generator: Adobe Illustrator 25.3.1, SVG Export Plug-In . SVG Version: 6.00 Build 0)  -->
<svg version="1.1" id="Layer_1" xmlns="http://www.w3.org/2000/svg" xmlns:xlink="http://www.w3.org/1999/xlink" x="0px" y="0px"
	 viewBox="0 0 90 90" style="enable-background:new 0 0 90 90;" xml:space="preserve">
<style type="text/css">
	.st0{fill:#1A1E24;}
	.st1{fill:#00B45A;stroke:#00B45A;stroke-width:0.25;stroke-linecap:round;stroke-linejoin:round;stroke-miterlimit:10;}
</style>
<g>
	<g>
		<g>
			<g transform="translate(-319.000000, -1055.000000) translate(319.000000, 1055.000000)">
				<circle class="st0" cx="45" cy="45" r="45"/>
			</g>
		</g>
	</g>
	<g>
		<path class="st1" d="M29.8,50.5c-0.4-1.1-0.6-2.2-0.8-3.3c-0.1-1-0.2-1.9-0.1-2.9c0.1-2.1,0.6-4.1,1.4-6c0.9-2,2.2-3.7,3.8-5.2
			c3-2.7,6.9-4.3,10.9-4.3c2.2,0,4.4,0.4,6.4,1.3c1,0.4,2,1,2.8,1.6l-4.8,1.7l0.7,2.1l8.5-3l0,0l0-0.1c0,0,0,0,0,0l-3-8.4l-2.1,0.7
			l1.7,4.8c-3.1-2-6.7-3.1-10.2-3.1c-4.5,0-9,1.6-12.5,4.9c-4.3,4-6.3,9.5-5.9,14.9h0c0.2,3.3,1.3,6.6,3.3,9.4l2.3-0.8
			C31.2,53.5,30.4,52,29.8,50.5z"/>
		<path class="st1" d="M63.5,46.2c0.3-4.1-0.8-8.3-3.3-11.9l-2.3,0.8c1,1.3,1.8,2.8,2.4,4.4c0.7,2,1,4,0.9,6.1c0,0.2,0,0.5-0.1,0.7
			c-0.2,1.9-0.6,3.7-1.4,5.4c-0.9,2-2.2,3.7-3.8,5.2c-3,2.7-6.9,4.3-10.9,4.3c-2.2,0-4.4-0.4-6.4-1.3c-1-0.4-2-1-2.8-1.6l4.8-1.7
			l-0.7-2.1l-8.5,3l0,0l0,0l0,0.1c0,0,0,0,0,0l3,8.4l2.1-0.7l-1.7-4.8c3.1,2,6.7,3.1,10.2,3.1c4.5,0,9-1.6,12.5-4.9
			c3.4-3.1,5.3-7.2,5.8-11.4h0c0-0.2,0-0.4,0-0.5C63.4,46.5,63.5,46.4,63.5,46.2L63.5,46.2z"/>
	</g>
</g>
</svg>
