<?xml version="1.0" encoding="utf-8"?>
<!-- Generator: Adobe Illustrator 25.3.1, SVG Export Plug-In . SVG Version: 6.00 Build 0)  -->
<svg version="1.1" id="Layer_1" xmlns="http://www.w3.org/2000/svg" xmlns:xlink="http://www.w3.org/1999/xlink" x="0px" y="0px"
	 viewBox="0 0 90 90" style="enable-background:new 0 0 90 90;" xml:space="preserve">
<style type="text/css">
	.st0{fill:#1A1E24;}
	.st1{fill:#00B45A;}
</style>
<g>
	<g>
		<g transform="translate(-319.000000, -1055.000000) translate(319.000000, 1055.000000)">
			<circle class="st0" cx="45" cy="45.5" r="45"/>
			<g>
				<path class="st1" d="M42.2,63.5l1.5,1.1l0.8,0.6l0.8-0.6l1.5-1.1c2.9-2,5.9-4.1,8.2-6.3c3.4-3.3,5-6.4,5-9.7V31.6l-15.6-5.7
					L29,31.6v15.8c0,3.4,1.6,6.5,5,9.8C36.4,59.4,39.4,61.5,42.2,63.5z M31.9,47.4V33.6L44.6,29l12.7,4.6v13.8c0,2.5-1.3,5-4.1,7.6
					c-2.2,2.1-5.1,4.1-7.8,6.1l-0.7,0.5l-0.7-0.5c-2.8-2-5.7-4-7.8-6.1C33.2,52.3,31.9,49.9,31.9,47.4z"/>
				<path class="st1" d="M53.3,40l-2-2.1l-9.1,8.9l-3.9-4.5L36,44.2l5.9,6.9L53.3,40z"/>
			</g>
		</g>
	</g>
</g>
</svg>
