<svg width="25" height="25" viewBox="0 0 25 25" fill="none" xmlns="http://www.w3.org/2000/svg">
<path d="M19.7773 5.56738H17.7773V3.56738H7.77734V5.56738H5.77734C4.67734 5.56738 3.77734 6.46738 3.77734 7.56738V8.56738C3.77734 11.1174 5.69734 13.1974 8.16734 13.5074C8.79734 15.0074 10.1473 16.1374 11.7773 16.4674V19.5674H7.77734V21.5674H17.7773V19.5674H13.7773V16.4674C15.4073 16.1374 16.7573 15.0074 17.3873 13.5074C19.8573 13.1974 21.7773 11.1174 21.7773 8.56738V7.56738C21.7773 6.46738 20.8773 5.56738 19.7773 5.56738ZM5.77734 8.56738V7.56738H7.77734V11.3874C6.61734 10.9674 5.77734 9.86738 5.77734 8.56738ZM19.7773 8.56738C19.7773 9.86738 18.9373 10.9674 17.7773 11.3874V7.56738H19.7773V8.56738Z" fill="#E8934B"/>
</svg>
