<svg width="25" height="25" viewBox="0 0 25 25" fill="none" xmlns="http://www.w3.org/2000/svg">
<path d="M6.77734 13.5674C4.57734 13.5674 2.77734 15.3674 2.77734 17.5674C2.77734 19.7674 4.57734 21.5674 6.77734 21.5674C8.97734 21.5674 10.7773 19.7674 10.7773 17.5674C10.7773 15.3674 8.97734 13.5674 6.77734 13.5674ZM12.7773 3.56738C10.5773 3.56738 8.77734 5.36738 8.77734 7.56738C8.77734 9.76738 10.5773 11.5674 12.7773 11.5674C14.9773 11.5674 16.7773 9.76738 16.7773 7.56738C16.7773 5.36738 14.9773 3.56738 12.7773 3.56738ZM18.7773 13.5674C16.5773 13.5674 14.7773 15.3674 14.7773 17.5674C14.7773 19.7674 16.5773 21.5674 18.7773 21.5674C20.9773 21.5674 22.7773 19.7674 22.7773 17.5674C22.7773 15.3674 20.9773 13.5674 18.7773 13.5674Z" fill="#E8934B"/>
</svg>
