<svg width="621" height="443" viewBox="0 0 621 443" fill="none" xmlns="http://www.w3.org/2000/svg">
<path d="M364.002 1.33955C365.081 2.41783 371.285 2.27688 373.881 1.11513C377.831 -0.652811 380.439 -0.333977 382.606 2.18178C383.645 3.38801 385.878 5.88529 387.569 7.73123C389.26 9.57717 391.263 12.1059 392.02 13.3512C394.888 18.0693 403.629 27.5522 408.456 31.1825C414.896 36.0252 415.84 37.9388 416.193 46.8559L416.463 53.6978L420.396 57.8029C422.56 60.0607 425.731 63.9093 427.443 66.3553C431.449 72.0792 435.776 76.4703 439.766 78.8622C442.044 80.2272 443.376 81.6749 444.487 83.9936C445.338 85.7698 447.076 88.8048 448.35 90.739C450.225 93.5846 450.827 95.41 451.506 100.318C451.968 103.652 452.665 106.943 453.058 107.632C453.449 108.319 456.055 110.792 458.849 113.125C468.565 121.244 474.555 130.975 476.171 141.274C477.056 146.91 477.327 147.577 479.368 149.142C484.747 153.268 488 156.71 491.672 162.163C494.164 165.864 497.926 170.119 501.954 173.794C505.56 177.083 508.732 180.603 509.288 181.936C509.829 183.226 510.545 188.158 510.881 192.894C511.217 197.631 512.092 203.849 512.826 206.714C515.014 215.263 525.171 234.298 528.907 236.85C532.213 239.109 535.505 242.35 536.582 244.405C538.835 248.702 543.761 263.966 545.052 270.648C546.723 279.299 546.791 284.312 545.349 292.48C543.599 302.397 544.022 304.416 549.882 314.106C552.656 318.695 555.988 325.25 557.285 328.674C559.414 334.295 559.699 335.895 560.221 345.162C560.938 357.88 561.636 362.201 564.6 372.27C566.784 379.688 573.495 395.45 574.47 395.45C574.71 395.45 575.421 394.578 576.051 393.512C578.42 389.506 583.43 383.159 585.071 382.084C587.155 380.719 589.395 381.293 590.375 383.442C590.941 384.686 590.521 386.728 588.281 393.609C582.431 411.575 581.758 418.201 585.946 416.61C588.449 415.659 591.359 415.844 592.332 417.017C593.316 418.202 595.28 418.218 609.598 417.165C620.22 416.383 621.302 416.689 620.944 420.365C620.757 422.269 620.336 422.62 616.629 423.957C608.302 426.961 604.045 427.881 602.403 427.031C600.603 426.101 598.351 426.01 592.32 426.624C588.409 427.023 587.72 426.912 586.643 425.718C585.654 424.622 584.824 424.427 582.335 424.707C579.799 424.993 578.964 424.785 577.633 423.535C576.025 422.026 576.012 422.025 575.571 423.413C575.328 424.181 574.197 425.593 573.058 426.55C570.084 429.051 566.39 428.93 563.313 426.231L560.965 424.171L559.547 426.573C557.758 429.602 554.757 429.891 552.324 427.267C550.875 425.705 550.221 425.554 544.653 425.495C541.305 425.46 535.947 425.618 532.746 425.846C529.544 426.075 522.303 426.427 516.654 426.628C511.004 426.829 505.228 427.166 503.816 427.375C500.266 427.902 498.446 427.318 494.672 424.44C492.078 422.461 491.18 422.104 490.253 422.682C489.613 423.082 487.896 423.607 486.437 423.85C484.979 424.093 481.782 424.739 479.334 425.285C475.236 426.199 474.452 426.173 469.452 424.954C465.692 424.038 463.517 423.821 462.388 424.25C458.307 425.801 455.832 424.416 457.413 421.466C459.434 417.692 465.381 416.349 471.117 418.37C472.718 418.935 475.022 419.397 476.237 419.397C478.645 419.397 482.765 418.163 482.745 417.448C482.738 417.202 481.659 414.886 480.348 412.302C476.73 405.167 477.462 400.239 482.14 400.239C483.624 400.239 484.781 401.113 487.34 404.162C497.709 416.518 506.894 424.201 511.265 424.174C512.346 424.167 516.157 423.203 519.735 422.031C525.647 420.096 529.181 419.342 537.196 418.309C538.703 418.114 542.169 418.386 544.9 418.912L549.865 419.869V417.716C549.865 416.531 549.1 412.653 548.166 409.098C547.231 405.542 546.461 401.772 546.454 400.718C546.424 396.276 550.44 392.706 554.361 393.69C557.272 394.42 559.133 396.898 560.323 401.634C562.107 408.73 563.343 411.19 565.109 411.164C566.312 411.146 567.043 410.252 568.509 407.009L570.377 402.878L568.246 398.659C567.074 396.339 565.411 392.59 564.55 390.327C563.689 388.065 562.207 384.475 561.258 382.35C560.308 380.225 559.047 375.914 558.456 372.771C557.864 369.628 556.745 364.505 555.969 361.386C555.192 358.268 554.624 354.727 554.706 353.518C555.126 347.392 554.692 345.713 551.48 341.026C549.732 338.476 546.794 333.283 544.952 329.487C543.109 325.69 540.077 319.813 538.215 316.426C532.926 306.805 531.837 302.883 532.262 294.982C532.457 291.348 532.959 286.259 533.376 283.673C534.41 277.258 533.371 269.55 530.061 259.08C528.611 254.495 527.214 249.757 526.956 248.55C526.698 247.343 525.308 244.876 523.867 243.068C522.427 241.261 520.488 237.912 519.559 235.627C518.63 233.342 515.917 228.573 513.53 225.03C506.252 214.222 503.743 206.651 502.889 192.93C502.353 184.335 502.058 183.893 494.079 179.747C489.382 177.305 487.149 175.435 478.8 166.949C466.683 154.633 465.845 153.122 465.023 142.126C464.323 132.749 463.887 131.809 455.184 120.915C447.619 111.446 447.154 110.43 447.135 103.328C447.124 99.0232 446.777 96.7654 445.817 94.7491C443.832 90.5831 435.163 82.1196 430.046 79.3548C427.432 77.942 423.924 75.1765 421.489 72.6094C419.22 70.2168 415.157 66.0604 412.461 63.3729C405.539 56.4721 405.121 55.4356 405.719 46.6725L406.206 39.5248L400.829 34.2956C394.422 28.0667 388.621 20.9717 386.051 16.22C385.024 14.3214 383.566 12.1114 382.812 11.3096C382.057 10.507 381.096 8.86357 380.675 7.65666C379.783 5.09917 378.908 4.96644 375.25 6.83085C371.762 8.60906 369.226 8.59194 362.31 6.74463C361.662 6.57153 360.975 7.72919 360.181 10.3346C359.536 12.4494 355.471 20.1465 351.147 27.4393C346.824 34.7314 341.511 43.7284 339.341 47.432C336.633 52.0543 333.317 56.3524 328.764 61.1417C321.698 68.5754 311.395 82.9427 305.42 93.6947C298.466 106.208 292.377 114.541 282.07 125.649C278.521 129.474 273.709 134.737 271.377 137.345C267.627 141.54 266.554 142.3 262.094 143.926C254.969 146.522 249.255 150.606 239.315 160.206C229.227 169.949 224.707 175.392 216.802 187.315C209.448 198.406 205.102 206.314 199.476 218.835C193.689 231.717 192.217 236.101 190.01 247.038C187.322 260.362 184.015 268.222 177.372 277.085C175.82 279.155 162.594 293.01 147.978 307.874C133.363 322.738 120.212 336.244 118.754 337.887C115.771 341.253 101.789 352.658 95.1219 357.166C88.8234 361.424 83.8911 366.665 78.0891 375.266C65.86 393.396 53.8798 408.101 44.5273 416.465C35.9315 424.151 29.3619 428.682 14.5224 437.162C4.51875 442.878 3.1918 443.457 1.68326 442.771C0.42741 442.199 0 441.471 0 439.903C0 435.296 3.04243 432.083 18.4537 420.412C35.2996 407.655 43.5695 398.598 63.8199 370.732C73.0252 358.064 79.1416 352.88 93.1279 345.893C96.7057 344.105 101.636 341.227 104.084 339.498C109.972 335.339 166.89 278.16 171.321 271.954C177.143 263.798 179.171 258.971 182.459 245.442C185.66 232.272 186.426 230.063 192.724 215.85C201.216 196.687 210.563 179.645 218.266 169.281C222.734 163.27 234.643 151.631 242.089 145.999C247.373 142.002 251.922 139.773 259.246 137.594C263.809 136.236 264.23 135.93 267.885 131.308C269.998 128.636 274.804 123.149 278.564 119.116C286.183 110.945 294.957 98.8084 300.219 89.1627C304.723 80.9059 313.442 68.4106 320.606 59.9478C328.347 50.8023 330.239 48.0313 334.527 39.5652C339.592 29.5637 350.873 11.1843 353.987 7.85714C355.396 6.35192 357.234 4.11941 358.071 2.89676C359.625 0.628679 362.527 -0.134189 364.002 1.33955Z" fill="#6A6A6A"/>
<path d="M372.834 45.8296C373.509 43.7599 374.194 41.836 374.354 41.5534C374.944 40.5169 376.47 41.0813 376.834 42.4702C377.576 45.3034 374.57 58.9469 371.833 65.1757C371.135 66.7651 370.214 70.0074 369.788 72.3809C367.825 83.3094 360.328 96.1872 352.152 102.672C348.064 105.915 347.331 106.969 345.502 112.242C344.087 116.321 336.551 125.542 326.252 135.794C318.461 143.549 317.042 145.283 312.658 152.392C309.145 158.089 308.303 154.779 311.53 147.962C314.572 141.538 318.316 136.485 325.377 129.275C333.063 121.426 337.292 114.505 338.328 108.082C338.709 105.714 339.294 103.285 339.629 102.684C339.962 102.083 342.953 98.9288 346.273 95.6755C349.593 92.4221 353.389 88.018 354.707 85.8882C356.025 83.759 358.369 80.0951 359.914 77.7463C362.566 73.7164 367.717 61.2745 367.718 58.8962C367.718 58.2948 368.593 55.9556 369.662 53.6978C370.73 51.4399 372.158 47.8993 372.834 45.8296Z" fill="#6A6A6A"/>
<path d="M408.76 159.246C407.301 153.889 405.519 133.761 406.318 131.678C407.617 128.297 410.207 135.835 412.552 149.826C415.937 170.017 418.841 177.032 429.12 189.851C432.741 194.367 436.146 199.108 436.686 200.387C437.226 201.667 437.943 206.344 438.281 210.782C438.925 219.264 440.422 224.797 443.119 228.665C443.977 229.895 447.957 234.289 451.965 238.429C455.971 242.568 460.052 247.34 461.034 249.034C463.373 253.07 465.253 260.238 466.961 271.636C467.725 276.73 469.315 284.427 470.495 288.741C473.1 298.268 473.253 299.883 471.58 300.218C469.686 300.597 467.704 298.428 465.445 293.506C462.151 286.33 460.887 282.144 458.726 271.27C455.834 256.714 454.546 254.268 444.58 244.402C432.937 232.876 430.716 227.744 430.716 212.362C430.716 203.491 430.862 203.92 424.212 193.272C417.155 181.973 411.643 169.835 408.76 159.246Z" fill="#6A6A6A"/>
<path d="M299.995 250.044C302.172 245.52 304.176 241.594 304.45 241.321C305.265 240.507 306.79 240.755 307.179 241.765C307.573 242.792 306.141 248.965 303.942 255.715C302.869 259.01 301.561 261.075 298.29 264.637C295.039 268.176 293.496 270.603 291.757 274.914C289.635 280.174 289.037 280.963 282.965 286.519C279.382 289.798 275.114 294.327 273.48 296.585C271.511 299.307 267.565 303.008 261.765 307.572C252.179 315.117 247.387 320.659 242.391 329.981C238.952 336.398 235.26 340.124 229.738 342.752C227.478 343.828 218.255 347.186 209.242 350.215C200.23 353.243 192.424 356.153 191.896 356.68C191.368 357.208 189.954 360.374 188.754 363.716C187.005 368.583 186.301 369.793 185.215 369.793C183.947 369.793 183.862 369.328 183.904 362.609C183.962 353.511 185.23 350.613 190.463 347.627C192.39 346.527 201.861 342.933 211.51 339.639C232.949 332.321 235.776 330.589 240.058 322.146C243.545 315.27 256.023 303.71 265.284 298.776C268.449 297.09 270.409 295.273 274.274 290.444C276.992 287.048 280.063 283.5 281.099 282.559C282.135 281.618 284.604 277.419 286.585 273.227C288.567 269.035 291.504 263.955 293.114 261.938C294.723 259.92 297.819 254.569 299.995 250.044Z" fill="#6A6A6A"/>
<path d="M124.289 393.802C122.884 389.229 122.991 387.269 124.746 385.402C127.352 382.631 131.284 383.566 133.286 387.431C135.439 391.587 138.413 403.044 140.057 413.509L140.476 416.174L142.807 410.814C145.507 404.611 148.433 400.676 150.584 400.358C154.246 399.815 154.816 402.867 153.054 413.581C151.32 424.125 151.747 424.5 156.859 416.93C164.449 405.692 178.556 390.204 182.705 388.554C184.826 387.711 186.94 388.895 186.94 390.927C186.94 391.799 184.681 395.868 181.92 399.968C176.717 407.691 169.137 420.775 169.137 422.028C169.137 422.454 170.705 422.204 173.01 421.412C179.421 419.208 182.832 419.819 182.832 423.168C182.832 426.039 175.547 430.838 168.362 432.7C162.761 434.152 156.811 432.463 156.811 429.423C156.811 429.06 156.272 429.237 155.612 429.815C153.206 431.926 151.572 431.899 149.332 429.711C148.172 428.579 147.224 427.335 147.224 426.946C147.224 425.224 145.998 426.481 145.253 428.966C143.981 433.208 141.757 435.381 138.799 435.27C137.437 435.218 136.137 435.474 135.912 435.839C135.103 437.146 133.417 436.452 130.247 433.507C127.538 430.989 126.683 430.563 124.889 430.834C122.964 431.125 122.43 430.762 119.482 427.158C113.957 420.403 113.284 416.373 117.373 414.512C119.866 413.376 122.305 414.302 126.055 417.808C128.186 419.799 129.42 420.564 129.42 419.896C129.42 417.974 125.34 397.223 124.289 393.802Z" fill="#6A6A6A"/>
</svg>
