<?xml version="1.0" encoding="utf-8"?>
<!-- Generator: Adobe Illustrator 26.0.2, SVG Export Plug-In . SVG Version: 6.00 Build 0)  -->
<svg version="1.1" id="Layer_1" xmlns="http://www.w3.org/2000/svg" xmlns:xlink="http://www.w3.org/1999/xlink" x="0px" y="0px"
	 viewBox="0 0 90 90" style="enable-background:new 0 0 90 90;" xml:space="preserve">
<style type="text/css">
	.st0{fill:#2B313B;}
	.st1{fill:#46B4A5;}
</style>
<g>
	<circle class="st0" cx="45" cy="45" r="45"/>
	<g>
		<g id="ToW2Wx_1_">
			<path class="st1" d="M45,25.4c1.4,1.6,3,3,4.4,4.5c1.2,1.2,2.5,2.4,3.6,3.6c3.1,3.3,5,6.1,6.2,9.1c3,8,0.1,15.9-7.2,19.7
				c-2.2,1.1-4.1,1.6-6.6,1.6c-0.4,0-0.9,0-1.5,0c-6.2-0.3-11.9-4.6-13.6-10.4C29,49,29.6,44.7,32,40.1c1.8-3.3,4.4-6.1,6.8-8.5
				c0.6-0.6,1.3-1.3,1.9-1.9C42.1,28.4,43.6,26.9,45,25.4 M45,22.4c-0.3,0-0.5,0.3-0.7,0.5c-2.2,2.6-4.7,4.8-7.1,7.2
				c-2.7,2.7-5.4,5.5-7.2,9c-2.5,4.7-3.3,9.7-1.8,14.9c2,6.7,8.5,11.6,15.5,11.9c0.5,0,1.1,0,1.6,0c2.9,0,5.2-0.6,7.6-1.8
				c8.7-4.5,11.4-13.8,8.2-22.4c-1.4-3.8-3.9-6.9-6.6-9.9c-3-3.1-6.3-5.9-9.1-9.2C45.3,22.5,45.2,22.4,45,22.4L45,22.4z"/>
		</g>
		<path class="st1" d="M44.1,38.7L43.6,41l-3.1-0.8L40,42.1c0,0,1.3,0.3,1.2,0.3c0.7,0.2,0.8,0.6,0.8,1L40.1,51
			c-0.1,0.2-0.2,0.4-0.6,0.4c-0.1,0-0.1,0-0.2,0c0,0,0,0,0,0c-0.1,0-1.2-0.3-1.2-0.3l-0.8,2l3.1,0.8l-0.6,2.5l1.7,0.4l0.6-2.5
			c0.5,0.1,0.9,0.2,1.4,0.3l-0.6,2.4l1.7,0.4l0.6-2.5c0.6,0.1,1.2,0.2,1.7,0.2c2,0,3.5-0.8,3.9-2.6c0.4-1.8,0-3.1-1.2-4
			c0.8-0.3,1.6-1.1,1.8-2.4c0.2-1.6-0.9-3.3-3-4l0.6-2.3l-1.7-0.4l-0.5,2.2c-0.4-0.1-0.9-0.2-1.4-0.3l0.6-2.2L44.1,38.7L44.1,38.7z
			 M46.5,47.3c-1,0-2-0.3-2.5-0.5l0.8-3.4c1,0.2,4.1,0.7,3.6,2.7C48.2,47,47.4,47.3,46.5,47.3L46.5,47.3z M45.8,52.8
			c-1.2,0-2.5-0.4-3.1-0.6l0.9-3.8c1.2,0.3,4.9,0.9,4.3,3.1C47.6,52.5,46.7,52.8,45.8,52.8L45.8,52.8z"/>
	</g>
</g>
</svg>
