<?xml version="1.0" encoding="utf-8"?>
<!-- Generator: Adobe Illustrator 26.0.2, SVG Export Plug-In . SVG Version: 6.00 Build 0)  -->
<svg version="1.1" id="Layer_1" xmlns="http://www.w3.org/2000/svg" xmlns:xlink="http://www.w3.org/1999/xlink" x="0px" y="0px"
	 viewBox="0 0 90 90" style="enable-background:new 0 0 90 90;" xml:space="preserve">
<style type="text/css">
	.st0{fill:#2B313B;}
	.st1{fill:#46B4A5;}
</style>
<g>
	<circle class="st0" cx="45" cy="45" r="45"/>
	<g transform="translate(-204 -1130)">
		<g>
			<path class="st1" d="M262.5,1161l-26.9,0l-8.1,9.4l21.5,25.6l21.5-25.6L262.5,1161z M240,1169.1l-7.7,0l4.1-4.8L240,1169.1z
				 M244.8,1169.1l4.2-4.9l4.2,4.9L244.8,1169.1z M254.4,1171.8l-5.4,18l-5.4-18L254.4,1171.8z M241.1,1171.7l5.6,17.4l-14.6-17.4
				L241.1,1171.7z M256.9,1171.8l9,0l-14.6,17.4L256.9,1171.8z M261.8,1164.3l4.1,4.8l-7.8,0L261.8,1164.3z M259.8,1163.7l-3.9,4.9
				l-3.9-4.9L259.8,1163.7z M242.1,1168.6l-3.8-4.9l7.8,0L242.1,1168.6z"/>
		</g>
	</g>
</g>
</svg>
