<svg width="211" height="389" viewBox="0 0 211 389" fill="none" xmlns="http://www.w3.org/2000/svg">
<path d="M33.7999 208.3C39.2999 208.7 67.6999 207.3 66.3999 209.4C65.9999 221.2 65.4999 232.9 64.9999 244.7C63.4999 287.9 61.5999 331 59.9999 374.2C60.8999 377.1 57.9999 377.3 48.7999 377C38.8999 376.9 28.9999 376.9 19.0999 376.7C17.4999 376.6 16.8999 376.4 16.9999 375.9C17.5999 370.3 18.2999 364.7 18.8999 359C19.7999 349.2 20.7999 339.4 21.7999 329.6C25.7999 289.2 29.4999 248.7 33.7999 208.3Z" fill="#6A6A6A" fill-opacity="0.5"/>
<path d="M176.8 208.3C182.5 263.7 187.6 319.1 193.2 374.5C193 375.4 195.2 376.8 190.8 376.8C179.2 377 167.6 377 156 377.1C152.5 377.1 149.8 376.6 150.6 375.4C150.2 365.4 149.8 355.5 149.5 345.5C148.2 313.4 147 281.4 145.8 249.3C145.3 236.1 144.8 222.9 144.2 209.7C144.2 208.8 145.1 208.4 147.9 208.3C157.3 208.3 166.8 208.3 176.8 208.3Z" fill="#6A6A6A" fill-opacity="0.5"/>
<path d="M100.5 208.3C101 264.7 100.7 321 100.9 377.4C91.3996 377.6 81.6996 377.2 72.0996 377.2C68.3996 377.3 68.6996 376 68.5996 375.2C69.5996 339.1 70.0996 303 70.9996 266.8C71.3996 247.5 71.7996 228.2 72.2996 209C72.4996 208.4 72.8996 208.3 74.8996 208.3C83.6996 208.3 91.5996 208.3 100.5 208.3Z" fill="#6A6A6A" fill-opacity="0.5"/>
<path d="M109.8 377.4C109.8 320.9 109.7 264.8 110 208.4C118.5 208.2 126.9 208.4 135.5 208.3C137.7 208.3 138.1 208.4 138.3 209.1C138.9 236.7 139.5 264.3 140.1 292C140.7 320 141.4 348.1 141.9 376.1C141.7 377 140.8 377.3 137.7 377.3C128.4 377.2 119 377.5 109.8 377.4Z" fill="#6A6A6A" fill-opacity="0.5"/>
<path d="M209.7 378.9C210 382 210.3 385.1 210.6 388.3C140.5 388.2 70.4 387.9 0 388.4C0.3 385.2 0.6 382 0.9 378.9C70.5 378.9 140 378.9 209.7 378.9Z" fill="#6A6A6A" fill-opacity="0.5"/>
<path d="M188.4 192.4C188.6 194.6 188.8 196.8 189.1 199C133.3 199.4 77.5996 199.4 21.9996 199C21.4996 198.5 21.9996 193.1 22.5996 192.4C77.5996 192.4 132.8 192.4 188.4 192.4Z" fill="#6A6A6A" fill-opacity="0.5"/>
<path d="M25.5 201.5C78.7 201.2 131.8 201.2 184.8 201.5C187.4 202 176.4 205.2 174.5 205.1C157.2 205.2 139.8 205.1 122.5 205.2C94.5 205.3 66.5 205.2 38.6 205.2C33 205.3 30.5 203.6 26.7 202.6C25.5 202.2 25.5 202.2 25.5 201.5Z" fill="#6A6A6A" fill-opacity="0.5"/>
<path d="M46.2997 64.3999C42.7997 68.9999 39.8997 73.8999 37.8997 79.2999C36.8997 81.9999 36.0997 84.6999 35.3997 87.4999C34.7997 90.2999 34.3998 93.0999 34.0998 95.9999C33.6998 101.7 33.9997 107.5 34.9997 113.1C36.0997 118.7 37.6997 124.3 40.0998 129.4L38.2997 129.5C39.0997 126.8 40.1997 124.5 41.2997 122C42.3997 119.6 43.5997 117.2 44.8997 114.9C47.3997 110.3 50.1997 105.7 52.9997 101.3C54.3997 99.0999 55.8997 96.8999 57.3997 94.6999C58.8997 92.4999 60.3997 90.3999 61.8997 88.1999C63.3997 86.0999 64.8997 83.8999 66.5998 81.7999L68.9998 78.6999C69.7998 77.6999 70.5997 76.5999 71.2997 75.5999C74.0997 71.6999 75.8997 66.9999 76.2997 62.1999C76.7997 57.3999 75.8997 52.3999 73.6997 47.8999C71.5998 43.2999 68.7997 38.8999 65.6997 34.7999C62.5997 30.6999 59.0998 26.7999 55.3997 23.1999L56.6997 21.8999C58.0997 23.4999 58.7997 25.4999 59.1997 27.3999C59.6997 29.3999 59.7997 31.3999 59.6997 33.2999C59.5997 37.1999 58.6997 40.9999 57.4997 44.5999C56.2997 48.1999 54.5997 51.6999 52.6997 54.9999C50.7997 58.2999 48.6997 61.3999 46.2997 64.3999ZM45.0998 63.4999C47.3998 60.4999 49.4998 57.4999 51.3997 54.1999C53.2997 50.9999 54.8997 47.5999 56.0998 44.0999C57.2998 40.5999 58.0998 36.8999 58.0998 33.2999C58.0998 31.4999 57.9997 29.6999 57.4997 27.8999C57.0997 26.1999 56.3997 24.4999 55.2997 23.2999C54.9997 22.8999 54.9998 22.2999 55.3997 21.9999C55.7997 21.6999 56.2997 21.6999 56.6997 21.9999C58.6997 23.7999 60.5998 25.5999 62.3997 27.5999C64.1997 29.4999 65.9997 31.4999 67.6997 33.4999C71.0998 37.5999 74.1997 41.8999 76.6997 46.6999C77.9997 48.9999 79.0997 51.6999 79.7997 54.3999C80.4997 57.0999 80.7997 59.8999 80.6997 62.6999C80.4997 68.2999 78.6998 73.8999 75.4998 78.5999C74.6998 79.7999 73.8997 80.7999 73.0998 81.8999L70.7997 84.9999L66.1997 91.2999C63.0997 95.4999 60.0998 99.6999 57.0998 104C54.0998 108.3 51.1997 112.6 48.3997 116.9C46.9998 119.1 45.5997 121.3 44.2997 123.5C43.5997 124.6 42.9998 125.7 42.3997 126.9C41.7997 128 41.0998 129.2 40.5998 130.3L40.4997 130.4C40.2997 130.9 39.6997 131.1 39.1997 130.9C38.9997 130.8 38.7997 130.6 38.6997 130.4C37.3997 127.7 36.4998 124.9 35.5998 122.1C34.7998 119.3 34.0998 116.4 33.5998 113.5C32.5998 107.7 32.2997 101.8 32.6997 95.8999C32.9997 92.9999 33.3997 90.0999 33.9997 87.1999C34.6997 84.2999 35.4998 81.4999 36.5998 78.7999C38.4998 73.1999 41.4998 68.0999 45.0998 63.4999Z" fill="#6A6A6A" fill-opacity="0.5"/>
<path d="M141.5 157.3C132.1 164.2 134.3 183.6 134.3 183.6C134.3 183.6 151.3 174.7 158.5 166.6C165.7 158.5 157.9 142.1 153.6 135.4C155.3 138.7 154 148 141.5 157.3Z" fill="#6A6A6A" fill-opacity="0.5"/>
<path d="M128.9 51.8002C131.7 54.3002 135.3 62.2002 135.7 74.5002C131.7 66.9002 127.1 59.6002 122.2 52.7002C119.1 48.5002 116 44.4002 112.7 40.4002C109.4 36.5002 106 32.6002 102.4 28.8002C95.1998 21.3002 87.6998 14.2002 79.4998 7.90023L79.1998 7.60023C78.0998 6.80023 76.5998 6.90023 75.6998 7.90023C75.1998 8.40023 74.8998 9.10023 74.8998 9.80023C74.8998 10.5002 75.1998 11.2002 75.6998 11.7002C78.1998 14.5002 80.3998 17.8002 82.1998 21.3002C83.9998 24.8002 85.3998 28.5002 86.3998 32.3002C88.3998 39.9002 88.7998 47.9002 87.5998 55.8002C86.9998 59.7002 85.9998 63.6002 84.6998 67.3002C84.0998 69.2002 83.2998 71.0002 82.4998 72.8002C81.5998 74.6002 80.7998 76.4002 79.7998 78.1002C78.8998 79.9002 77.7998 81.6002 76.7998 83.3002C75.6998 85.0002 74.5998 86.7002 73.3998 88.3002C71.0998 91.6002 68.3998 94.6002 65.6998 97.6002C62.8998 100.7 60.0998 103.9 57.5998 107.4C56.2998 109.1 55.1998 110.9 53.9998 112.6C52.8998 114.4 51.6998 116.2 50.6998 118.1C47.8998 123.2 45.4998 128.7 44.0998 134.4C43.9998 134.9 43.7998 135.4 43.6998 135.9C43.6998 136.1 43.5998 136.3 43.5998 136.5C43.4998 137 43.3998 137.4 43.2998 137.9C43.3998 137.9 43.5998 137.9 43.6998 137.9C43.9998 137.9 44.3998 137.9 44.6998 137.9C44.8998 137.9 45.1998 137.9 45.3998 137.9C45.5998 137.9 45.6998 137.9 45.8998 138C46.1998 138 46.3998 138.1 46.6998 138.1C46.7998 137.5 46.9998 136.9 47.0998 136.3V136.2C47.2998 135.6 47.3998 135 47.5998 134.4C49.0998 129.4 51.1998 124.5 53.8998 120C54.8998 118.2 55.9998 116.5 57.0998 114.8C58.2998 113.2 59.3998 111.4 60.6998 109.8C63.0998 106.5 65.8998 103.5 68.5998 100.5C71.3998 97.4002 74.1998 94.3002 76.6998 90.9002C77.9998 89.2002 79.0998 87.5002 80.2998 85.8002C81.3998 84.0002 82.5998 82.3002 83.5998 80.4002C84.6998 78.6002 85.5998 76.7002 86.4998 74.8002C87.2998 72.9002 88.1998 70.9002 88.8998 68.9002C90.3998 64.9002 91.4998 60.8002 92.1998 56.6002C93.5998 48.2002 93.2998 39.5002 91.1998 31.2002C91.0998 30.6002 90.8998 29.9002 90.6998 29.3002C92.2998 31.2002 93.7998 33.1002 95.2998 35.1002C101.5 42.9002 107.2 51.1002 112.6 59.4002C115.2 63.6002 117.8 67.8002 120.1 72.1002C122.4 76.4002 124.7 80.8002 126.6 85.2002C128.5 89.6002 130.4 94.1002 131.7 98.7002C132.1 99.8002 132.4 101 132.7 102.1C133 103.3 133.4 104.4 133.6 105.5L134.3 109L134.8 112.4C135.4 117 135.6 121.6 135.3 126.1C134.9 130.6 133.9 134.9 132.3 139.1L131.7 140.7L131.4 141.5C131.3 141.8 131.1 142 131 142.3L129.5 145.6L127.9 148.9C127.4 150 126.8 151 126.2 152.1C123.9 156.4 121.3 160.5 118.4 164.3C115.5 168.1 112.3 171.6 108.6 174.6C106.7 176 104.8 177.4 102.8 178.5C100.7 179.6 98.5998 180.6 96.3998 181.3C91.8998 182.7 87.0998 183.3 82.2998 183.2C77.3998 183 72.5998 182.1 67.7998 180.8C64.1998 179.4 60.7998 177.5 57.7998 175C57.6998 174.9 57.5998 174.8 57.4998 174.7C57.3998 174.7 57.3998 174.6 57.2998 174.5C56.7998 174.1 56.3998 173.7 55.8998 173.2L55.7998 173.1C55.4998 173.3 55.2998 173.5 54.9998 173.7C54.2998 174.2 53.5998 174.6 52.7998 175C53.1998 175.4 53.5998 175.8 53.9998 176.3C54.0998 176.4 54.1998 176.5 54.1998 176.5C54.5998 176.9 54.9998 177.2 55.3998 177.6C58.6998 180.5 62.3998 182.8 66.4998 184.5H66.5998H66.6998C71.5998 186.1 76.6998 187.3 81.9998 187.9C87.2998 188.5 92.7998 188.3 98.0998 187C100.7 186.4 103.4 185.5 105.9 184.4C108.4 183.3 110.8 182 113.1 180.5C117.7 177.5 121.8 174 125.5 170C129.2 166.1 132.5 161.9 135.4 157.5C136.1 156.4 136.9 155.3 137.6 154.2L139.7 150.8L141.6 147.4C141.8 147.1 141.9 146.8 142.1 146.5L142.6 145.5L143.5 143.6C145.8 138.6 147.3 133.2 148 127.8C149.8 121.4 154.6 103.6 154.7 90.9002C154.7 75.0002 137 58.0002 128.9 51.8002Z" fill="#6A6A6A" fill-opacity="0.5"/>
<path d="M58.2002 13C58.4002 19.7 68.4002 25 68.4002 25C68.4002 25 69.7002 14 68.2002 7.9C66.7002 1.8 56.3002 0.2 51.7002 0C53.9002 0.3 57.9002 4 58.2002 13Z" fill="#6A6A6A" fill-opacity="0.5"/>
<path d="M117.9 33.9001C117.7 35.2001 117.9 36.5001 118.3 37.7001C118.7 38.9001 119.4 40.1001 120.1 41.2001C120.8 42.3001 121.7 43.4001 122.6 44.3001C123.5 45.3001 124.5 46.2001 125.5 47.0001L124.4 47.3001C125 44.3001 125.6 41.4001 126 38.4001C126.2 36.9001 126.4 35.5001 126.6 34.0001C126.7 33.3001 126.7 32.6001 126.7 31.8001V30.8001C126.7 30.5001 126.6 30.2001 126.6 29.9001C126.4 28.8001 125.6 27.7001 124.7 26.7001C123.8 25.7001 122.6 24.9001 121.4 24.1001C119 22.6001 116.2 21.3001 113.4 20.3001L113.7 19.1001C114.5 19.4001 115 19.9001 115.5 20.4001C116 20.9001 116.4 21.5001 116.7 22.1001C117.3 23.3001 117.7 24.6001 118 25.9001C118.5 28.7001 118.3 31.3001 117.9 33.9001ZM116.9 33.8001C117.3 31.3001 117.4 28.7001 116.9 26.3001C116.7 25.1001 116.3 23.9001 115.7 22.8001C115.1 21.8001 114.3 20.8001 113.3 20.5001C113 20.4001 112.8 20.0001 112.9 19.7001C113 19.4001 113.3 19.2001 113.6 19.3001H113.7C116.8 19.7001 119.8 20.6001 122.7 22.1001C124.1 22.8001 125.5 23.7001 126.7 24.9001C127.9 26.1001 129 27.6001 129.5 29.4001C129.6 29.9001 129.6 30.3001 129.7 30.8001V32.0001C129.7 32.8001 129.6 33.6001 129.5 34.4001C129.3 36.0001 129 37.5001 128.7 39.0001C128 42.0001 127 44.9001 125.8 47.8001C125.7 48.2001 125.3 48.3001 124.9 48.2001C124.8 48.2001 124.7 48.1001 124.7 48.1001C123.6 47.2001 122.7 46.2001 121.8 45.1001C120.9 44.1001 120 43.0001 119.3 41.8001C118.6 40.6001 117.9 39.4001 117.5 38.0001C116.9 36.7001 116.7 35.2001 116.9 33.8001Z" fill="#6A6A6A" fill-opacity="0.5"/>
<path d="M47.6998 134.2C47.4998 134.8 47.3998 135.4 47.1998 136C46.7998 135.9 46.3998 135.9 46.0998 135.9C45.7998 135.9 45.4998 135.8 45.0998 135.8C44.6998 135.8 44.1998 135.8 43.7998 135.8C43.8998 135.3 43.9998 134.8 44.1998 134.3C44.9998 134.2 45.7998 134.2 46.5998 134.2C46.8998 134.1 47.2998 134.1 47.6998 134.2Z" fill="#6A6A6A" fill-opacity="0.5"/>
<path d="M57.5 174.4C57 174.7 56.5 175 56 175.2C56.5 174.9 56.9 174.6 57.3 174.2C57.3 174.3 57.4 174.4 57.5 174.4Z" fill="#6A6A6A" fill-opacity="0.5"/>
<path fill-rule="evenodd" clip-rule="evenodd" d="M64.3997 164.43C65.0997 162.513 65.3997 160.405 65.3997 158.296C65.3997 148.327 57.9997 139.988 47.6997 137.496C47.3997 137.4 47.1997 137.4 46.8997 137.4H46.5997H45.8997C45.7108 137.4 45.4997 137.422 45.2767 137.444C45.0275 137.47 44.7636 137.496 44.4997 137.496L44.4968 137.497H43.9995C40.5995 137.497 37.3995 138.264 34.4995 139.606C30.4995 142.193 27.4995 146.123 25.9995 150.628C27.8995 146.603 31.1995 143.248 35.3995 141.331C35.5495 141.235 35.6745 141.163 35.7995 141.091C35.9245 141.019 36.0495 140.947 36.1995 140.852C36.1995 140.852 36.2995 140.756 36.3995 140.756C36.5995 140.564 36.7995 140.468 36.9995 140.372L36.9995 140.372C37.0995 140.276 37.1995 140.181 37.2995 140.181C37.3484 140.134 37.4213 140.087 37.5063 140.04C37.9411 139.909 38.3757 139.795 38.7997 139.701C38.9621 139.649 39.1245 139.625 39.3028 139.599C39.4538 139.577 39.6162 139.553 39.7997 139.509C40.0997 139.413 40.4997 139.317 40.7997 139.317H40.8997C41.0389 139.317 41.1781 139.297 41.3273 139.275C41.4997 139.249 41.6853 139.222 41.8997 139.222H42.9997H43.3997H44.3997H45.0997C45.2996 139.317 45.3996 139.317 45.5996 139.317H45.5997C45.7497 139.317 45.8747 139.341 45.9997 139.365C46.1247 139.389 46.2497 139.413 46.3997 139.413C47.2997 139.509 48.1997 139.701 48.9997 139.988C49.1497 140.036 49.2747 140.084 49.3997 140.132C49.5247 140.18 49.6497 140.228 49.7997 140.276C49.8997 140.324 50.0247 140.372 50.1497 140.42C50.2747 140.468 50.3997 140.516 50.4997 140.563L50.4997 140.563C50.7997 140.659 51.0997 140.755 51.3997 140.947C51.5497 140.995 51.6747 141.067 51.7997 141.139C51.9247 141.21 52.0497 141.282 52.1997 141.33C52.2997 141.378 52.4247 141.45 52.5497 141.522C52.6747 141.594 52.7997 141.666 52.8997 141.714C54.1997 142.385 55.3997 143.151 56.4997 144.11L57.0997 144.685L57.6997 145.26L58.2997 145.835C58.3531 145.912 58.3993 145.982 58.4423 146.047L58.4426 146.047L58.4427 146.048C58.5604 146.226 58.6532 146.366 58.7997 146.506C58.8531 146.583 58.8993 146.653 58.9423 146.718L58.9426 146.718L58.9427 146.719C59.0604 146.897 59.1532 147.037 59.2997 147.177C59.4997 147.369 59.6997 147.656 59.7997 147.848C59.9997 148.04 60.1997 148.327 60.2997 148.519C60.4497 148.759 60.5747 149.022 60.6997 149.286L60.6997 149.286C60.8247 149.55 60.9497 149.813 61.0997 150.053C61.3996 150.532 61.5996 151.011 61.7996 151.49L61.7997 151.49C61.8497 151.634 61.8997 151.754 61.9497 151.874C61.9997 151.994 62.0497 152.113 62.0997 152.257C62.1497 152.353 62.1747 152.473 62.1997 152.593C62.2247 152.713 62.2497 152.832 62.2997 152.928C62.3497 153.024 62.3747 153.144 62.3997 153.264L62.3997 153.264C62.4247 153.384 62.4497 153.503 62.4997 153.599C62.4997 153.695 62.5247 153.791 62.5497 153.887C62.5747 153.983 62.5997 154.078 62.5997 154.174C62.6997 154.27 62.6997 154.366 62.6997 154.462C62.6997 154.558 62.7247 154.654 62.7497 154.749C62.7747 154.845 62.7997 154.941 62.7997 155.037C62.8997 155.42 62.9997 155.9 62.9997 156.283C63.0997 156.666 63.0997 156.954 63.0997 157.242V158.2V159.35C63.0997 159.734 63.0997 160.021 62.9997 160.405C62.9997 160.692 62.9997 161.076 62.8997 161.363V161.555C62.8997 161.746 62.8997 161.938 62.7997 162.13C62.7997 162.322 62.7997 162.513 62.6997 162.705C62.6997 162.753 62.6747 162.801 62.6497 162.849C62.6247 162.897 62.5997 162.945 62.5997 162.993L62.2997 163.855L61.9997 164.718C61.9997 164.91 61.8997 165.101 61.7997 165.293C61.6997 165.581 61.5997 165.772 61.4997 165.964L61.4997 165.964C61.4997 166.012 61.4747 166.036 61.4497 166.06C61.4247 166.084 61.3997 166.108 61.3997 166.156C61.3497 166.251 61.2747 166.371 61.1997 166.491C61.1247 166.611 61.0497 166.731 60.9997 166.827L60.6997 167.402C60.6497 167.45 60.6247 167.498 60.5997 167.545C60.5747 167.593 60.5497 167.641 60.4997 167.689C60.4497 167.785 60.3747 167.881 60.2997 167.977L60.2997 167.977C60.2247 168.073 60.1497 168.168 60.0997 168.264C60.0997 168.456 59.9997 168.552 59.8997 168.648C59.7997 168.744 59.7247 168.863 59.6497 168.983C59.5747 169.103 59.4997 169.223 59.3997 169.319C59.2997 169.462 59.1997 169.582 59.0997 169.702C58.9997 169.822 58.8997 169.942 58.7997 170.086C58.7997 170.181 58.6997 170.277 58.6997 170.277C58.5997 170.373 58.4997 170.493 58.3997 170.613L58.3995 170.613C58.2996 170.733 58.1996 170.852 58.0997 170.948C57.8997 171.236 57.6997 171.427 57.4997 171.619C57.4299 171.753 57.3116 171.84 57.2124 171.913L57.2124 171.913C57.1693 171.945 57.1299 171.974 57.0997 172.003C57.0351 172.126 56.9288 172.21 56.8078 172.306C56.7414 172.358 56.6705 172.414 56.5997 172.482C56.4966 172.581 56.3671 172.705 56.2247 172.828C56.183 172.852 56.1414 172.876 56.0996 172.9C55.7996 173.1 55.4996 173.3 55.1996 173.4C54.4996 173.9 53.7996 174.3 52.9996 174.7C50.1996 176.1 47.1996 176.9 43.8996 176.9C43.2996 176.9 42.6996 176.9 42.0996 176.8C43.4996 177.1 44.9996 177.3 46.5996 177.3H47.8996C48.0388 177.3 48.1996 177.279 48.3719 177.256C48.5709 177.229 48.7852 177.2 48.9996 177.2H49.1996C49.2996 177.2 49.4246 177.175 49.5496 177.15C49.6746 177.125 49.7996 177.1 49.8996 177.1C49.9996 177.1 50.0996 177.075 50.1996 177.05C50.2996 177.025 50.3996 177 50.4996 177C50.7996 176.9 51.1246 176.825 51.4496 176.75C51.7746 176.675 52.0996 176.6 52.3996 176.5C52.637 176.5 52.8117 176.438 53.023 176.362C53.0787 176.342 53.137 176.321 53.1996 176.3L54.0996 176C54.2996 175.9 54.5996 175.8 54.8996 175.7C55.0996 175.6 55.2746 175.525 55.4496 175.45C55.6246 175.375 55.7996 175.3 55.9996 175.2C56.1996 175.05 56.4246 174.875 56.6496 174.7C56.8746 174.525 57.0996 174.35 57.2996 174.2C59.9629 172.021 62.1052 169.256 63.516 166.062C63.8361 165.532 64.1312 164.988 64.3997 164.43ZM24.0996 158.297C24.0996 168.073 31.8996 176.125 41.8996 176.988C43.3996 177.275 44.8996 177.467 46.3996 177.467C49.7996 177.467 52.9996 176.7 55.8996 175.358C52.3996 177.658 48.1996 179 43.6996 179C31.7996 179 22.0996 169.703 22.0996 158.297C22.0996 150.053 27.0996 142.96 34.2996 139.606C30.2996 142.29 27.2996 146.124 25.7996 150.629C24.6996 153.025 24.0996 155.613 24.0996 158.297Z" fill="white"/>
<path d="M80 140.6C89.1127 140.6 96.5 133.213 96.5 124.1C96.5 114.987 89.1127 107.6 80 107.6C70.8873 107.6 63.5 114.987 63.5 124.1C63.5 133.213 70.8873 140.6 80 140.6Z" stroke="white" stroke-width="2" stroke-miterlimit="10"/>
<path d="M147.1 52.8001C152.954 52.8001 157.7 48.0543 157.7 42.2001C157.7 36.3459 152.954 31.6001 147.1 31.6001C141.246 31.6001 136.5 36.3459 136.5 42.2001C136.5 48.0543 141.246 52.8001 147.1 52.8001Z" stroke="white" stroke-width="2" stroke-miterlimit="10"/>
</svg>
