<?xml version="1.0" encoding="utf-8"?>
<!-- Generator: Adobe Illustrator 25.4.2, SVG Export Plug-In . SVG Version: 6.00 Build 0)  -->
<svg version="1.1" id="Layer_1" xmlns="http://www.w3.org/2000/svg" xmlns:xlink="http://www.w3.org/1999/xlink" x="0px" y="0px"
	 viewBox="0 0 256 44.5" style="enable-background:new 0 0 256 44.5;" xml:space="preserve">
<style type="text/css">
	.st0{fill:#5E6677;}
	.st1{fill:#FFFFFF;}
</style>
<g>
	<g>
		<path class="st0" d="M31.1,31h-7.3v-3.2c-2.3,2.5-5.6,3.8-9.2,3.8c-8,0-14.5-7-14.5-15.7C0,7.2,6.4,0,15.6,0
			c9.1,0,15.5,7.2,15.5,15.9V31z M15.6,7.3c-4.3,0-7.8,3.7-7.8,8.7c0,4.8,3.5,8.5,7.8,8.5c4.3,0,7.8-3.8,7.8-8.5
			C23.3,11.2,19.9,7.3,15.6,7.3z"/>
		<path class="st0" d="M67.2,44.5h-7.8V28.1c-2.3,2.3-5.3,3.5-8.9,3.5c-7.9,0-14.4-7.1-14.4-15.9C36.1,7.1,42.5,0,51.7,0
			c9.1,0,15.5,7.1,15.5,15.8V44.5z M51.7,7.3c-4.3,0-7.8,3.6-7.8,8.5c0,4.9,3.5,8.7,7.8,8.7c4.3,0,7.8-3.9,7.8-8.7
			C59.4,11.1,56,7.3,51.7,7.3z"/>
		<path class="st0" d="M86,31.7c-8.5,0-13.4-5.6-13.4-13.5V0.8h7.8v17.7c0,1.7,0.6,5.8,5.7,5.8c3.4,0,5.9-2.4,5.9-5.8V0.8h7.8v17.4
			C99.6,25.9,94.2,31.7,86,31.7z"/>
		<path class="st0" d="M135.8,31h-7.3v-3.2c-2.3,2.5-5.6,3.8-9.2,3.8c-8,0-14.5-7-14.5-15.7c0-8.8,6.4-15.9,15.6-15.9
			c9.1,0,15.5,7.2,15.5,15.9V31z M120.2,7.3c-4.3,0-7.8,3.7-7.8,8.7c0,4.8,3.5,8.5,7.8,8.5c4.3,0,7.8-3.8,7.8-8.5
			C128,11.2,124.5,7.3,120.2,7.3z"/>
		<path class="st1" d="M155.7,0c8.5,0,13.4,5.6,13.4,13.5V31h-7.8V13.3c0-1.7-0.6-5.8-5.7-5.8c-3.4,0-5.9,2.4-5.9,5.8V31H142V13.5
			C142,5.8,147.4,0,155.7,0z"/>
		<path class="st1" d="M204.6,15.9c0,9-6.9,15.8-15.3,15.8c-8.4,0-15.2-6.8-15.2-15.8c0-9,6.8-15.9,15.2-15.9
			C197.8,0,204.6,6.9,204.6,15.9z M196.8,16c0-5.2-3.3-8.9-7.5-8.9c-4.1,0-7.5,3.6-7.5,8.9c0,5.1,3.3,8.6,7.5,8.6
			C193.5,24.6,196.8,21.1,196.8,16z"/>
		<path class="st1" d="M256,18.2c0,7.7-5.4,13.6-13.6,13.6c-4.1,0-7.5-1.6-9.7-4.3c-2.3,2.6-5.6,4.3-9.6,4.3
			c-8.4,0-13.4-5.6-13.4-13.6V0.8h7.8v17.7c0,1.7,0.6,5.8,5.6,5.8c3.5,0,5.9-2.3,5.9-5.8V0.8h7.8v17.7c0,1.7,0.6,5.8,5.7,5.8
			c3.4,0,5.9-2.3,5.9-5.8V0.8h7.8V18.2z"/>
	</g>
</g>
</svg>
