<?xml version="1.0" encoding="utf-8"?>
<!-- Generator: Adobe Illustrator 25.4.2, SVG Export Plug-In . SVG Version: 6.00 Build 0)  -->
<svg version="1.1" id="Layer_1" xmlns="http://www.w3.org/2000/svg" xmlns:xlink="http://www.w3.org/1999/xlink" x="0px" y="0px"
	 viewBox="0 0 601.9 177" style="enable-background:new 0 0 601.9 177;" xml:space="preserve">
<style type="text/css">
	.st0{fill:#FFFFFF;}
	.st1{fill:#5E6677;}
</style>
<g>
	<path class="st0" d="M22.8,0.2c0,33.5,0,67,0.2,100.4c0.1,29.4,23.1,53,52.5,53c21.7,0,38.2-10.3,47.7-29.8
		c9.7-19.9,7.2-39.4-6.7-56.6C99.9,46.7,72.6,42,49.4,55.1c-2.8,1.6-4,1.8-3.9-2c0.2-6.2,0.2-12.3,0-18.5c-0.1-2.7,1-3.7,3.4-4.7
		c36.1-14,76.6,1.8,94.9,37.3c17.1,33,5.4,76.1-26.1,96.6c-8.7,5.8-18.6,9.8-29,11.5c-1.3,0.2-3.1-0.3-3.7,1.7H65
		c-2.9-1-5.8-2.2-8.7-3.1c-29.9-9.3-48.4-29.1-54.8-60c-0.3-1.6,0.4-3.7-1.5-5v-2c1.9-1.6,0.9-3.7,0.9-5.6C1,67.5,1,33.8,1.1,0
		C8.3,0.3,15.6,0.2,22.8,0.2L22.8,0.2z"/>
	<path class="st0" d="M601.9,141.2c-17.5,0.9-17.5,0.9-29.3-11.9c-4.1-4.5-8.2-8.9-13.4-14.5c0,8.7-0.1,15.7,0,22.8
		c0.1,2.7-0.6,3.7-3.6,3.8c-11.1,0.3-11.1,0.4-11.1-10.8c0-21.7,0.1-43.3-0.1-65c0-3.7,0.6-5.3,4.8-5.2c9.9,0.3,9.9,0,9.9,10v35
		c2.6-0.9,3.6-2.9,5-4.3c2.3-2.4,4.9-4.7,6.6-7.5c6.3-10.5,15.6-12.7,27.2-9.9c-1.1,2.6-3.5,4.4-5.4,6.5
		c-5.4,6.1-10.9,12.1-16.3,18.2c-0.9,1-2.6,2-1,3.7c8.9,9.3,17,19.4,26.7,28L601.9,141.2z"/>
	<path class="st1" d="M45.6,100.7c-0.2-16.6,13-30.3,29.6-30.5c0.2,0,0.4,0,0.7,0c16.8,0.2,30.4,13.7,30.7,30.5
		c0,16.8-13.6,30.5-30.4,30.5c-0.2,0-0.3,0-0.5,0C58.4,131.2,45.5,118.2,45.6,100.7z"/>
	<path class="st0" d="M349.2,88.2c17.3-9.6,29.8-8.4,39.2,3.5s8.6,31.1-1.3,42.1c-8.3,9.1-23.5,13.3-36.9,2.7
		c-2.3,0.8,0.7,4.8-2.7,4.8c-4,0.2-7.9,0.1-11.9-0.3c-1.3-0.1-0.9-1.9-0.9-3c0-24.7,0-49.3-0.1-74c0-2.7,0.9-3.3,3.5-3.4
		c11.2-0.5,11.2-0.5,11.2,10.6C349.2,76.6,349.2,82.1,349.2,88.2L349.2,88.2z M380,112.3c0.1-10.1-6.3-17.1-15.5-17.1
		c-9.4,0-15.8,6.8-15.8,16.8s6.4,17.1,15.5,17.2C373.3,129.3,379.9,122.2,380,112.3L380,112.3z"/>
	<path class="st0" d="M218,136.3c1.6,6-2.3,5.1-5.6,5c-8.9,0-8.9,0-8.9-8.9c0-22.3,0.1-44.6-0.1-67c0-4,1-5.1,5-5
		c9.7,0.2,9.7,0,9.7,9.7v16.5c0.1,0.5,0.2,1.1,0.3,1.6c6.6-4.5,13.5-8.1,21.7-6.7c7.9,1.2,14.8,5.8,19,12.6
		c7.5,11.6,6.2,29.3-3,39.6C246.5,144.3,235.6,145.1,218,136.3L218,136.3z M249,112.2c0-10-6.4-17-15.6-17
		c-9.4,0-15.8,6.9-15.8,16.9s6.5,17.1,15.6,17.1S249,121.9,249,112.2L249,112.2z"/>
	<path class="st0" d="M449.8,88.6c-1.2-5.4,1.3-5.8,5-5.7c9.6,0.2,9.6,0.1,9.6,9.7c0,14.5-0.2,29,0.1,43.4c0.1,4.6-1.4,6-5.6,5.3
		c-1.3-0.2-2.7-0.2-4,0c-3.7,0.5-6.3-0.2-5.1-6.1c-7.8,7-15.8,8.7-24.6,6.7c-6.4-1.5-11.4-5.4-15.2-10.6c-9-12.1-7.8-31.2,2.6-41.9
		C422.3,79.3,435.1,78.8,449.8,88.6z M450.1,112.1c0-10-6.4-16.9-15.6-16.9c-9,0-15.5,6.9-15.6,16.4c-0.1,10.1,6.6,17.6,15.7,17.5
		C443.5,129.1,450,122,450.1,112.1z"/>
	<path class="st0" d="M493.4,88.4c7.1-5,13.6-8.5,21.7-6.6c8.5,2,13.8,7.3,14.9,16c1.6,13.6,0.4,27.3,0.7,40.9
		c0.1,2-0.9,2.6-2.7,2.6c-2.8-0.2-5.7-0.2-8.5,0c-3,0.2-3.6-1.1-3.6-3.8c0.1-9,0-18-0.1-27c0-2.3-0.2-4.7-0.5-7
		c-0.6-3.9-2.3-7-6.4-8.1c-4.4-1.2-8.2,0.1-11.2,3.6c-2.6,3.1-4,7.1-3.8,11.1c-0.1,9-0.2,18-0.1,27c0,3.2-0.7,4.3-4.2,4.3
		c-10.9,0-10.9,0.2-10.9-10.5c0-14.5,0.1-29-0.1-43.5c0-3.3,0.6-5,4.3-4.5c2.2,0.3,4.3,0.3,6.5,0C492.9,82.5,494.3,83.9,493.4,88.4
		L493.4,88.4z"/>
	<path class="st0" d="M303.7,118.6c0-6.3-0.1-12.7,0.1-19c0.1-2.8-0.7-4.1-3.6-3.7c-3.8,0.6-4.6-1.3-4.2-4.6c0.1-1,0.1-2,0-3
		c-0.5-3.7,0.2-6.2,4.9-5.4c2.6,0.5,3-1.1,3-3.3c-0.1-4.7,0.1-9.3-0.1-14c-0.1-3.1,0.6-4.4,4-4.3c10.7,0,10.7-0.1,10.7,10.7
		c0.1,1.8,0.1,3.7,0,5.5c-0.6,4.3,0.8,6.4,5.4,5.5c2.8-0.5,3.5,1,3.2,3.4c-0.2,1.3-0.2,2.7,0,4c0.6,4.2-0.6,6.4-5.3,5.5
		c-3.3-0.6-3.3,1.6-3.3,3.9c0.1,12.3-0.1,24.6,0.1,37c0,3.4-0.8,4.6-4.4,4.6c-10.4-0.1-10.4,0.1-10.4-10.4
		C303.7,126.9,303.7,122.7,303.7,118.6L303.7,118.6z"/>
	<path class="st0" d="M273.9,112.2c0-8.3,0.1-16.6-0.1-24.9c-0.1-3,0.5-4.4,4-4.4c11,0,11-0.2,11,10.7c0,14.5-0.1,28.9,0.1,43.4
		c0,3.5-1,4.5-4.5,4.4c-10.5-0.1-10.5,0.1-10.5-10.3V112.2z"/>
	<path class="st0" d="M281.5,59.1c5.1,0,9.3,4.1,9.3,9.2c0,0.1,0,0.3,0,0.4c0,5.2-4.2,9.5-9.4,9.5h-0.1c-5.2-0.2-9.3-4.5-9.3-9.7
		c-0.1-5.1,4-9.3,9.2-9.4C281.3,59.1,281.4,59.1,281.5,59.1z"/>
</g>
</svg>
