<?xml version="1.0" encoding="utf-8"?>
<!-- Generator: Adobe Illustrator 25.4.2, SVG Export Plug-In . SVG Version: 6.00 Build 0)  -->
<svg version="1.1"
	 id="svg446" inkscape:version="0.92.0 r15299" sodipodi:docname="bitfinex.svg" xmlns:cc="http://creativecommons.org/ns#" xmlns:dc="http://purl.org/dc/elements/1.1/" xmlns:inkscape="http://www.inkscape.org/namespaces/inkscape" xmlns:rdf="http://www.w3.org/1999/02/22-rdf-syntax-ns#" xmlns:sodipodi="http://sodipodi.sourceforge.net/DTD/sodipodi-0.dtd" xmlns:svg="http://www.w3.org/2000/svg"
	 xmlns="http://www.w3.org/2000/svg" xmlns:xlink="http://www.w3.org/1999/xlink" x="0px" y="0px" viewBox="0 0 853.9 105"
	 style="enable-background:new 0 0 853.9 105;" xml:space="preserve">
<style type="text/css">
	.st0{fill:#FFFFFF;}
	.st1{fill-rule:evenodd;clip-rule:evenodd;fill:#FFFFFF;}
	.st2{fill:#5E6677;}
</style>
<sodipodi:namedview  bordercolor="#666666" borderopacity="1.0" fit-margin-bottom="0" fit-margin-left="0" fit-margin-right="0" fit-margin-top="0" id="base" inkscape:current-layer="layer1" inkscape:cx="426.69788" inkscape:cy="56.847669" inkscape:document-units="mm" inkscape:pageopacity="0.0" inkscape:pageshadow="2" inkscape:window-height="744" inkscape:window-maximized="1" inkscape:window-width="1280" inkscape:window-x="-4" inkscape:window-y="-4" inkscape:zoom="0.86180571" pagecolor="#ffffff" showgrid="false" units="px">
	</sodipodi:namedview>
<g>
	<path class="st0" d="M623.7,104.1c-1.1,0-2-1.4-1.1-2.6L663,58l-41-41c-1.1-1.1,0-2.6,1.1-2.6h23.2c0.6,0,1.1,0,1.1,0.6l28.2,30
		l27-30.1c0.6-0.6,0.6-0.6,1.1-0.6h20.1c1.1,0,2,1.4,1.1,2.6l-36.7,38.7l45.6,46.2c1.1,1.1,0.6,2.6-1.1,2.6h-24.4
		c-0.6,0-0.6,0-1.1-0.6L675,69.7l-29.5,34.1c-0.6,0.6-0.6,0.6-1.1,0.6h-20.7C623.7,104.7,623.7,104.1,623.7,104.1z"/>
	<path class="st0" d="M517.5,104.1c-1.1,0-1.4-0.6-1.4-1.4V16.1c0-1.1,0.6-1.4,1.4-1.4h86.1c1.1,0,1.4,0.6,1.4,1.4v12.3
		c0,1.1-0.6,1.4-1.4,1.4h-66.3v20.1h39.9c1.1,0,1.4,0.6,1.4,1.4v12.3c0,1.1-0.6,1.4-1.4,1.4h-39.9v23h67.4c1.1,0,1.4,0.6,1.4,1.4
		v14.1c0,1.1-0.6,1.4-1.4,1.4h-86.9C517.5,105,517.5,104.1,517.5,104.1z"/>
	<path class="st0" d="M365.2,104.1c-1.1,0-1.4-0.6-1.4-1.4V16.1c0-1.1,0.6-1.4,1.4-1.4h18.1c1.1,0,1.4,0.6,1.4,1.4v86.4
		c0,1.1-0.6,1.4-1.4,1.4h-18.1V104.1z"/>
	<path class="st0" d="M263.1,104.1c-1.1,0-1.4-0.6-1.4-1.4V16.1c0-1.1,0.6-1.4,1.4-1.4H348c1.1,0,1.4,0.6,1.4,1.4V29
		c0,1.1-0.6,1.4-1.4,1.4h-65.4v23.8h36.1c1.1,0,1.4,0.6,1.4,1.4v13.5c0,1.1-0.6,1.4-1.4,1.4h-36.1v32.7c0,1.1-0.6,1.4-1.4,1.4h-18.1
		V104.1z"/>
	<path class="st0" d="M207.7,30.4v72c0,1.1-0.6,1.4-1.4,1.4h-18.1c-1.1,0-1.4-0.6-1.4-1.4v-72H148c-1.1,0-1.4-0.6-1.4-1.4V16.1
		c0-1.1,0.6-1.4,1.4-1.4h97.3c1.1,0,1.4,0.6,1.4,1.4V29c0,1.1-0.6,1.4-1.4,1.4H207.7z"/>
	<path class="st0" d="M113.3,104.1c-1.1,0-1.4-0.6-1.4-1.4V16.1c0-1.1,0.6-1.4,1.4-1.4h18.1c1.1,0,1.4,0.6,1.4,1.4v86.4
		c0,1.1-0.6,1.4-1.4,1.4h-18.1C113.3,103.9,113.3,104.1,113.3,104.1z"/>
	<path class="st1" d="M0,16.1c0-1.1,0.6-1.4,1.4-1.4H78c10.3,0,18.6,8.3,18.6,18.6v6C96.7,49.6,88.4,58,78,58h0.9
		c10.3,0,18.6,8.3,18.6,18.6v8.9c0,10.3-8.3,18.6-18.6,18.6H1.4c-1.1,0-1.4-0.6-1.4-1.4V16.1z M20.1,29h48.8c4.6,0,8.9,3.7,8.9,8.9
		v4c0,4.6-3.7,8.9-8.9,8.9H20.1V29z M20.1,65.1h49.3c4.6,0,8.9,3.7,8.9,8.9v5.7c0,4.6-3.7,8.9-8.9,8.9H20.1V65.1z"/>
	<path class="st0" d="M398.8,102.4V16.1c0-1.1,0.6-1.4,1.4-1.4h12.3c0.6,0,0.6,0,1.1,0.6l68.9,61.1V16.1c0-1.1,0.6-1.4,1.4-1.4H500
		c1.1,0,1.4,0.6,1.4,1.4v86.4c0,1.1-0.6,1.4-1.4,1.4h-12.3c-0.6,0-0.6,0-1.1-0.6l-69.1-60.8v60c0,1.1-0.6,1.4-1.4,1.4H400
		C399.9,104.1,398.8,103.6,398.8,102.4z"/>
	<path class="st2" d="M755.9,86.4c1.4,2,3.2,4,5.2,6.3c17.2,17.2,47.6,14.1,68.9-7.2C857.5,58,853.8,0,853.8,0
		c0,0.6-30.1,68-78.3,82.3C768.9,84.9,762,86.4,755.9,86.4z"/>
	<path class="st2" d="M750.2,67.7c-1.1-14.6,5.2-31,18.1-43.6c27.5-27.5,84.9-23.8,85.5-23.8c0,0-41.9,61.1-91.8,66.8
		C757.4,67.7,753.6,67.7,750.2,67.7z"/>
</g>
</svg>
