<?xml version="1.0" encoding="utf-8"?>
<!-- Generator: Adobe Illustrator 26.0.2, SVG Export Plug-In . SVG Version: 6.00 Build 0)  -->
<svg version="1.1" id="Layer_1" xmlns="http://www.w3.org/2000/svg" xmlns:xlink="http://www.w3.org/1999/xlink" x="0px" y="0px"
	 viewBox="0 0 1350.4 311" style="enable-background:new 0 0 1350.4 311;" xml:space="preserve">
<style type="text/css">
	.st0{fill:#FFFFFF;}
</style>
<g>
	<g transform="matrix( 0.9952392578125, 0, 0, 0.99517822265625, 1,1.2) ">
		<g>
			<g id="Layer0_0_MEMBER_0_MEMBER_0_MEMBER_0_MEMBER_0_FILL">
				<path class="st0" d="M199,22.1L70.2,65.9L199,110l128.8-44.1L199,22.1 M130.5,144.6l-73.7-24.9v145.6l136.5,46V122.6
					L130.5,144.6 M124,163.8c1.2-0.6,2.5-0.6,3.9-0.2c1.3,0.3,2.2,1.1,2.7,2.4l7.5,15.2c0.4,0.8,1,1.2,1.7,1.2l16.7,2.5
					c1.2,0.3,2.1,0.7,2.8,1.4c0.9,1.1,1.4,2.3,1.4,3.6c0,1.4-0.5,2.6-1.5,3.5l-12,11.6c-0.5,0.5-0.8,1.2-0.8,2l3,16.6
					c0.2,1.6-0.2,3-1.1,4c-1,1-2.3,1.7-3.9,1.9l-2.2-0.7l-14.9-7.8c-0.9-0.4-1.6-0.4-2.1,0l-15,7.8c-2.4,1.2-4.4,0.8-6.1-1.2
					c-1.1-1.1-1.4-2.4-1-4l2.8-16.6c0.1-0.7-0.1-1.4-0.7-2l-12-11.6c-0.9-1-1.3-2-1.4-2.9c-0.3-1.3,0-2.5,0.8-3.7
					c0.8-1,1.9-1.7,3.3-1.9l16.7-2.5c0.7,0,1.3-0.4,1.6-1.2l7.4-15.2C122.3,165.2,123.1,164.4,124,163.8 M10.5,42.6l47,16.1
					L186,14.8l-47.2-16L10.5,42.6 M51.9,71.4L-1,89.4l131.1,44.5l52.8-18L51.9,71.4 M341.3,265.3V119.7l-73.7,24.9l-62.8-22v188.7
					L341.3,265.3 M310.2,168.7c0,1-0.4,1.8-1.2,2.5l-8.3,8.2c-0.4,0.3-0.5,0.8-0.5,1.4l2.1,11.6c0.1,1.2-0.1,2.1-0.8,2.8
					c-0.6,0.7-1.5,1.2-2.7,1.3l-1.5-0.4l-10.4-5.5c-0.6-0.3-1.1-0.3-1.5,0l-10.4,5.5c-1.6,0.8-3.1,0.6-4.3-0.8
					c-0.7-0.7-1-1.7-0.7-2.8l2-11.6c0-0.5-0.1-1-0.5-1.4l-8.4-8.2c-0.5-0.7-0.9-1.3-1-2c-0.2-0.8,0-1.7,0.6-2.6
					c0.6-0.7,1.4-1.1,2.3-1.2l11.7-1.8c0.5,0,0.9-0.3,1.1-0.8l5.2-10.6c0.4-0.6,0.9-1.1,1.6-1.5c0.8-0.4,1.7-0.4,2.7-0.1
					c0.9,0.3,1.5,0.8,1.9,1.7l5.3,10.6c0.3,0.6,0.6,0.8,1.1,0.8l11.7,1.8c0.9,0.1,1.5,0.4,1.9,0.9
					C309.9,166.9,310.2,167.8,310.2,168.7 M257,219.2c0.3,0.6,0.7,0.8,1.1,0.8l11.7,1.7c0.9,0.1,1.5,0.5,2,1c0.7,0.7,1,1.5,1,2.5
					s-0.4,1.8-1.1,2.5l-8.3,8.1c-0.4,0.4-0.6,0.8-0.6,1.4l2.1,11.6c0.2,1.2-0.1,2.1-0.8,2.8c-0.6,0.7-1.5,1.2-2.7,1.4l-1.5-0.4
					l-10.5-5.6c-0.6-0.2-1.1-0.2-1.4,0l-10.5,5.6c-1.6,0.8-3.1,0.4-4.3-0.9c-0.7-0.7-1-1.7-0.7-2.8l1.9-11.6
					c0.1-0.5-0.1-0.9-0.5-1.4l-8.5-8.1c-0.5-0.6-0.8-1.3-0.9-2c-0.2-0.9,0-1.8,0.6-2.6c0.5-0.7,1.3-1.1,2.3-1.3l11.7-1.7
					c0.5,0,0.8-0.3,1-0.8l5.2-10.6c0.4-0.6,0.9-1.1,1.6-1.6c0.8-0.4,1.7-0.5,2.7-0.2c0.9,0.3,1.5,0.9,1.9,1.7L257,219.2 M340.5,58.7
					l46.9-16.1L259.1-1.2l-47.1,16L340.5,58.7 M399,89.4l-52.8-18l-131,44.4l52.6,18L399,89.4z"/>
			</g>
		</g>
	</g>
	<g>
		<path class="st0" d="M513.2,99.2c28,0,43.3,10,43.3,31.1c0,12.2-6.2,20.6-15.7,25.3c12.2,4.5,19.4,13.4,19.4,28.2
			c0,18.4-12,34.1-43.3,34.1h-43.5V99.2H513.2z M497.6,146.1h16c13.2,0,18.9-5.2,18.9-13.6c0-8.3-4.1-13.1-21.5-13.1h-13.4V146.1z
			 M497.6,197.5H515c14.4,0,21.3-5.5,21.3-15.7c0-11.2-7.4-15.5-23.6-15.5h-15.1V197.5z"/>
		<path class="st0" d="M610.9,217.8h-24.1V99.2h24.1V217.8z"/>
		<path class="st0" d="M722.6,99.2v20.5h-32.7v98.2h-24.1v-98.2h-32.7V99.2H722.6z"/>
		<path class="st0" d="M798.9,163.8l33-64.7h22.9v118.7h-23v-73.6L806,196.5h-14.6l-25.5-51.8v73.1H743V99.2h22.5L798.9,163.8z"/>
		<path class="st0" d="M873.2,217.8l41.3-118.7h23l41.3,118.7h-25.6l-7.2-22.5h-39.7l-7.2,22.5H873.2z M912.6,175h26.8L926,133.2
			L912.6,175z"/>
		<path class="st0" d="M1070.2,99.2v20.5h-32.7v98.2h-24.1v-98.2h-32.7V99.2H1070.2z"/>
		<path class="st0" d="M1155.3,217.8l-21.3-46.6h-19.3v46.6h-24.1V99.2h42.5c27.3,0,44.4,12.2,44.4,36.3c0,16-7.4,26.5-20.3,31.8
			l24.6,50.6H1155.3z M1130.9,150.9c14.3,0,22.5-3.1,22.5-15.5s-8.3-15.8-22.5-15.8h-16.2v31.3H1130.9z"/>
		<path class="st0" d="M1230,217.8h-24.1V99.2h24.1V217.8z"/>
		<path class="st0" d="M1253,217.8l33.4-61.2l-29.8-57.4h26.1l18.9,37.8l19.1-37.8h26l-29.9,57.4l33.5,61.2h-26l-22.7-40.4
			l-22.5,40.4H1253z"/>
	</g>
</g>
</svg>
