<svg width="82" height="27" viewBox="0 0 82 27" xmlns="http://www.w3.org/2000/svg">
    <g fill="#FFF" fill-rule="nonzero">
        <path d="M16.372 18.366c.006 1.87.006 3.735.012 5.606v1.857c0 .474-.076.57-.543.673-1.267.282-2.54.39-3.833.276-1.765-.154-3.442-.615-5.015-1.442a12.826 12.826 0 0 1-5.336-5.221c-1.05-1.89-1.593-3.914-1.6-6.08C.052 9.635.052 5.24.052.838c0-.493.051-.557.55-.557 2.195-.006 4.396-.006 6.59 0 .473 0 .493.02.493.513v12.844c0 .98.185 1.91.684 2.761.94 1.59 2.316 2.505 4.171 2.685 1.254.121 2.374-.231 3.41-.904.218-.14.359-.18.416.128-.006.007-.019.013-.019.02.006.012.02.025.026.038z"/>
        <path d="M18.304 19.308v-5.35c0-2.037-.845-3.632-2.566-4.708-1.126-.705-2.367-.903-3.685-.666a5.18 5.18 0 0 0-1.964.8c-.096.064-.185.186-.307.116-.122-.07-.115-.218-.115-.346V1.85c0-.455.109-.564.556-.66C11.228.973 12.24.85 13.263.89c2.399.083 4.631.704 6.666 2.018 2.604 1.685 4.414 3.997 5.406 6.938.384 1.134.588 2.306.646 3.504.122 2.556-.537 4.92-1.855 7.092-1.286 2.127-3.04 3.767-5.278 4.868-.045.026-.09.058-.135.084-.313.173-.416.115-.416-.25.007-1.948.007-3.895.007-5.836zM29.877 13.376v-6.76c0-.422.013-.435.429-.435 1.938 0 3.877-.006 5.822.013.838.006 1.644.192 2.386.602 1.056.583 1.587 1.506 1.708 2.685.128 1.236-.115 2.357-1.075 3.235-.16.147-.48.288-.473.423.006.179.345.217.518.352.73.564 1.145 1.326 1.267 2.216.185 1.39-.026 2.685-1.107 3.697-.697.647-1.56.935-2.482 1.07-.73.102-1.465.128-2.201.121-1.44-.006-2.879 0-4.318 0-.43 0-.48-.05-.48-.467.006-2.249.006-4.497.006-6.752zm5.374-1.346c.032.02.07.039.103.051.16-.019.32-.032.473-.064.557-.115 1.03-.352 1.26-.903.519-1.23-.204-2.37-1.542-2.415-.754-.026-1.51.006-2.264-.013-.243-.006-.275.096-.275.301.006.904.012 1.813 0 2.716-.007.263.09.32.332.32.64-.012 1.273 0 1.913.007zm-2.239 4.177c0 .513.013 1.025-.006 1.538-.007.23.05.3.281.294.774-.006 1.555.013 2.329-.012.505-.013.998-.116 1.363-.507.511-.55.575-1.217.383-1.909-.185-.679-.678-1.044-1.35-1.146-.94-.141-1.887-.032-2.834-.064-.179-.007-.172.115-.172.237.006.525.006 1.044.006 1.57zM81.327 13.433c-.019 1.096.02 2.236-.268 3.357-.224.878-.57 1.691-1.197 2.364-.857.929-1.951 1.39-3.167 1.563-1.254.18-2.488.083-3.653-.455-1.484-.685-2.348-1.883-2.738-3.446-.237-.948-.269-1.916-.275-2.89-.006-1.313-.026-2.62.256-3.914.505-2.37 2.297-3.735 4.491-3.965 1.139-.122 2.246-.045 3.327.384 1.529.609 2.437 1.755 2.885 3.306.352 1.198.307 2.428.34 3.696zm-3.154.032c-.019-.98 0-1.877-.121-2.767-.167-1.217-1.1-2.005-2.368-2.005-1.298.006-2.2.755-2.354 2.005a23.07 23.07 0 0 0 0 5.355c.134 1.198.992 2.012 2.2 2.031 1.19.02 2.17-.506 2.47-1.774.218-.961.141-1.948.173-2.845zM63.113 5.99c1.9.025 3.493.415 4.92 1.396.224.153.269.275.102.506-.352.493-.684 1.006-1.023 1.505-.307.449-.32.449-.768.154a5.61 5.61 0 0 0-2.943-.916c-.441-.013-.877.026-1.267.25-.48.269-.748.672-.768 1.236-.019.564.244.948.73 1.21.57.321 1.203.41 1.836.494 1.043.141 2.08.314 3.026.827 1.222.66 1.83 1.71 1.958 3.062.07.75.019 1.486-.269 2.197-.512 1.294-1.484 2.101-2.777 2.48-2.776.82-5.38.416-7.766-1.25a3.05 3.05 0 0 1-.224-.18c-.282-.243-.295-.352-.051-.627.454-.525.908-1.044 1.35-1.582.166-.205.3-.218.505-.052.87.699 1.836 1.192 2.943 1.371.8.128 1.593.103 2.322-.333.55-.326.825-.826.768-1.467-.051-.583-.416-.922-.934-1.14-.653-.276-1.344-.308-2.022-.41-1.01-.154-1.996-.404-2.872-.974-.973-.64-1.497-1.557-1.632-2.69-.102-.878-.032-1.743.365-2.557.659-1.358 1.791-2.062 3.218-2.357.46-.11.96-.18 1.273-.154zM53.433 14.74v5.35c0 .435-.019.454-.447.454H50.81c-.48 0-.486 0-.486-.48V9.372c0-.417 0-.417-.41-.417-1.055 0-2.11-.006-3.166.007-.294.006-.397-.09-.39-.385.019-.685.012-1.364 0-2.05-.007-.243.076-.34.332-.34 3.455.007 6.903.007 10.358 0 .25 0 .346.084.34.334-.007.704-.007 1.41 0 2.114.006.263-.116.327-.353.327-1.087-.007-2.175.006-3.263-.013-.275-.007-.364.057-.358.352.026 1.807.02 3.626.02 5.44zM44.988 13.337v6.752c0 .449 0 .449-.441.449-.749 0-1.49-.007-2.24 0-.249 0-.364-.077-.364-.353.007-4.567.007-9.135 0-13.703 0-.262.096-.352.358-.352.78.013 1.555.013 2.336 0 .287-.006.358.109.358.378-.013 2.28-.007 4.555-.007 6.83z"/>
        <path d="M16.395 18.402c-.01-.02-.03-.04-.04-.07l.03-.03c.02.03.03.07.01.1zM35.251 12.034c.051-.01.083.01.103.08-.032-.03-.064-.05-.103-.08z"/>
    </g>
</svg>
