<?xml version="1.0" encoding="utf-8"?>
<!-- Generator: Adobe Illustrator 25.4.2, SVG Export Plug-In . SVG Version: 6.00 Build 0)  -->
<svg version="1.1" id="Layer_1" xmlns="http://www.w3.org/2000/svg" xmlns:xlink="http://www.w3.org/1999/xlink" x="0px" y="0px"
	 viewBox="0 0 323.9 86.7" style="enable-background:new 0 0 323.9 86.7;" xml:space="preserve">
<style type="text/css">
	.st0{fill:#FFFFFF;}
	.st1{fill:#5E6677;}
	.st2{fill:#2D9961;}
</style>
<g>
	<path class="st0" d="M80.6,37.2c1.5,1.5,3,2.9,4.4,4.4c1.2,1.2,1.1,2.6-0.1,3.8c-7.5,7.6-15,15.2-22.5,22.8
		C56.6,74,50.8,79.8,45.1,85.6c-1.5,1.5-2.7,1.5-4.2,0C27.6,72.2,14.3,58.8,1.1,45.4c-1.4-1.4-1.4-2.6,0-4c4.9-5,9.9-10,14.9-15
		C24.3,18,32.5,9.7,40.8,1.3c1.7-1.7,2.8-1.7,4.5,0c8.5,8.6,17,17.2,25.5,25.7c1.4,1.4,2.7,2.8,4.1,4.2c0.4,0.4,0.5,0.6-0.1,1
		c-2.4,1.5-4.7,3.1-7.1,4.7c-1.2,0.8-2.3,0.6-3.4-0.6c-6.5-6.6-13-13.1-19.5-19.7c-1.7-1.7-1.7-1.7-3.5,0
		C32.7,25.3,24.1,34,15.5,42.7c-0.2,0.2-0.8,0.4-0.4,0.9c0.1,0.2,0.3,0.3,0.5,0.3l0,0c0.2,1.1,1.1,1.6,1.8,2.3
		c5,5.5,10.1,11,15.2,16.4c1.2,1.3,2.3,2.6,3.5,3.9c2.2,2.4,4.4,4.7,6.6,7.1c0.4,0.4,0.6,0.4,1,0c1.2-1.2,2.5-2.3,3.6-3.5
		C58.2,59.3,68.9,48.3,80,37.7C80,37.6,80.2,37.3,80.6,37.2z"/>
	<path class="st1" d="M80.6,37.2c-0.4,0.1-0.6,0.4-0.8,0.7C68.8,48.6,58,59.5,47.1,70.3c-1.2,1.2-2.4,2.3-3.6,3.5
		c-0.4,0.4-0.6,0.4-1,0c-2.2-2.4-4.4-4.7-6.6-7.1c-1.2-1.3-2.3-2.6-3.5-3.9c-5.1-5.5-10.1-10.9-15.2-16.4c-0.6-0.7-1.6-1.3-1.8-2.3
		c3.1,1.2,6.1,2.8,9.1,4.3c5.8,2.8,11.6,5.5,17.4,8.3c0.8,0.4,1.3,0.3,2-0.2C60.3,45.6,76.7,34.8,93.1,24c0.3-0.2,0.5-0.5,1.2-0.4
		c-1.2,1.1-2.2,2.2-3.3,3.2c-3.4,3.4-6.8,6.8-10.2,10.1C80.7,36.9,80.6,37,80.6,37.2z"/>
	<path class="st0" d="M223.1,41.2c0-4.9,0.1-9.8,0-14.7c0-1.7,0.3-2.7,2.4-2.6c5.2,0.1,10.4-0.1,15.5,0.1c7.9,0.3,12.3,6.9,9.6,14.2
		c-0.5,1.3-0.3,2,0.5,3.1c2.6,3.7,2.8,7.7,0.8,11.7c-2.1,3.9-5.4,5.7-9.9,5.7c-5.5-0.1-10.9-0.1-16.4,0c-1.9,0-2.5-0.5-2.4-2.4
		C223.2,51.2,223.1,46.2,223.1,41.2z M237.4,51c1.3,0,2.7,0,4,0c2.4,0.1,4-1,4.1-3.4c0-2.4-1.8-3.4-4-3.5c-2.6-0.1-5.2,0.2-7.7-0.1
		c-2.7-0.3-3.2,0.8-3.1,3.2c0.2,4.3-0.5,3.7,3.9,3.7C235.5,51,236.5,51,237.4,51z M236.9,31.7L236.9,31.7c-1.5,0-3.1,0-4.6,0
		c-1.9-0.1-1.6,1.3-1.5,2.4c0.1,1-0.7,2.5,1.3,2.5c3.1,0,6.3,0.1,9.4,0c1.4,0,2.3-1,2.3-2.4s-0.9-2.3-2.4-2.4
		C239.9,31.7,238.4,31.7,236.9,31.7z"/>
	<path class="st1" d="M129.3,58.5c-3,0-5.9,0-8.9,0c-1.3,0-2.1-0.2-2.1-1.9c0.1-10.3,0-20.5,0-30.8c0-1.4,0.6-1.9,1.9-1.9
		c5.7,0,11.3-0.3,17,0.2c7.3,0.6,11.2,7,8.6,13.9c-0.5,1.2-0.4,2,0.4,3.1c2.7,3.7,2.9,7.7,0.8,11.6c-2.1,3.9-5.4,5.8-9.9,5.7
		C134.5,58.4,131.9,58.5,129.3,58.5z M132.3,51c1.4,0,2.9,0,4.3,0c2.4,0.1,4.1-0.9,4.1-3.4s-1.7-3.5-4-3.6c-2.6-0.1-5.2,0.2-7.8-0.1
		c-2.6-0.3-3.3,0.7-3.1,3.2c0.3,4.4-0.5,3.7,3.9,3.8C130.6,51.1,131.4,51,132.3,51z M131.7,36.6c1.4,0,2.9,0,4.3,0
		c1.6,0,2.9-0.6,3-2.4c0.1-1.9-1.3-2.6-3-2.7c-2.8-0.1-5.6,0-8.3,0c-1.4,0-1.7,0.6-1.8,1.9c-0.2,2.3,0.2,3.8,3,3.3
		C129.8,36.5,130.7,36.7,131.7,36.6z"/>
	<path class="st0" d="M257.5,41.3c0-9.9,7.3-17.6,16.7-17.5c9,0.1,16.3,8,16.3,17.7c0,9.8-7.4,17.5-16.8,17.4
		C264.5,58.9,257.5,51.2,257.5,41.3z M265,41.5c0,5.4,4.1,9.9,8.9,9.8c4.7,0,8.9-4.6,8.9-9.9c0-5.2-4.1-9.9-8.8-10
		C269.2,31.4,265,36.1,265,41.5z"/>
	<path class="st1" d="M212.4,36.6c-1.8,0.4-3.3-0.3-4.7-2.2c-2.3-3-5.8-3.7-9.1-2.4c-3.6,1.4-6.1,5.5-6,9.7c0.1,4.1,2.7,7.9,6.3,9.2
		c3.5,1.2,6.6,0.2,9.6-3.4c0.9-1,7.1-1.9,8.1-1.1c1,0.9,0.2,1.8-0.2,2.6c-2.7,5.6-7,9.1-13.2,9.8c-6.3,0.7-11.3-1.9-14.9-7
		c-7.4-10.3-1.8-25.2,10.4-27.8c7.1-1.5,14.8,2.8,17.8,9.7c0.8,1.8,0.9,3-1.7,2.7C214.1,36.6,213.5,36.6,212.4,36.6z"/>
	<path class="st1" d="M166.1,24c4.2,0,8.4,0.1,12.7,0c2.1-0.1,3,0.5,2.9,2.7c-0.2,5.8,0.6,5-4.8,5c-6.7,0-6.7,0-6.7,6.7
		c0,5.9-0.1,11.7,0,17.6c0,1.9-0.4,2.7-2.5,2.7c-5.2-0.1-5.2,0.1-5.2-5.2c0-6.4-0.1-12.9,0-19.3c0-1.8-0.5-2.6-2.4-2.5
		c-2.3,0.1-4.6,0-6.9,0c-1.6,0-2.2-0.5-2.3-2.1c-0.3-5.6-0.4-5.6,5.2-5.6C159.3,24,162.7,24,166.1,24z"/>
	<path class="st0" d="M295.5,58.5c-1.4-0.2-3.5,0.9-4.2-0.5c-0.8-1.4,1.1-2.6,2-3.8c6.7-9.3,13.4-18.6,20.1-27.9
		c1.4-1.9,7.8-3.4,9.8-2.2c1.3,0.7,0.5,1.6,0,2.4c-2.7,3.7-5.4,7.4-8.1,11.1c-4.1,5.7-8.4,11.4-12.4,17.3
		C300.9,57.6,299,59.4,295.5,58.5z"/>
	<path class="st0" d="M319,58.8c-3,0.9-5-0.8-6.5-3.6c-0.2-0.4-0.5-0.8-0.8-1.2c-3.6-5-3.5-5.3,0.5-9.8c0.9-1,1.5-1.1,2.3,0
		c3,4.2,6,8.4,9,12.6c0.8,1.1,0.4,1.8-0.9,1.9C321.5,58.9,320.4,58.8,319,58.8z"/>
	<path class="st0" d="M296,23.9c2.8-0.8,4.8,0.7,6.2,3.5c0.3,0.5,0.7,0.9,1,1.4c3.5,4.8,3.4,5.4-0.6,9.8c-0.9,1-1.5,0.9-2.2-0.1
		c-2.9-4.1-5.9-8.2-8.8-12.3c-1.1-1.5-0.7-2.3,1.2-2.2C293.5,23.9,294.5,23.9,296,23.9z"/>
	<path class="st2" d="M15.5,43.9c-0.2,0-0.4,0-0.5-0.3C15.2,43.7,15.4,43.7,15.5,43.9z"/>
</g>
</svg>
