<?xml version="1.0" encoding="utf-8"?>
<!-- Generator: Adobe Illustrator 25.4.2, SVG Export Plug-In . SVG Version: 6.00 Build 0)  -->
<svg version="1.1" id="Layer_1" xmlns="http://www.w3.org/2000/svg" xmlns:xlink="http://www.w3.org/1999/xlink" x="0px" y="0px"
	 viewBox="0 0 506.6 128" style="enable-background:new 0 0 506.6 128;" xml:space="preserve">
<style type="text/css">
	
		.st0{clip-path:url(#SVGID_00000165207136664208455750000015077513452530476723_);fill:url(#SVGID_00000002353896977612436370000018293190714146619553_);}
	.st1{fill:#F5F5F5;}
</style>
<g>
	<defs>
		<path id="SVGID_1_" d="M63.6,111.9c-7.4,5.3-11.9,11.9-9.8,14.8c2,2.9,9.7,0.9,17.1-4.4c7.4-5.3,11.9-11.9,9.8-14.7
			c-0.6-0.9-1.8-1.3-3.4-1.3c-0.1,0-0.1,0-0.2,0C73.7,106.3,68.6,108.3,63.6,111.9 M22.6,100.6c-14.4,6-24.4,14.8-22.3,19.9
			c2,5,15.4,4.3,29.9-1.6c14.4-6,24.4-14.8,22.3-19.9c-0.9-2.2-4.1-3.3-8.6-3.3c-0.1,0-0.3,0-0.4,0C37.9,95.7,30.4,97.4,22.6,100.6
			 M88.6,94.7c-2.6,4.9-3.3,9.5-1.8,10.2c1.5,0.9,4.9-2.5,7.4-7.3c2.6-4.9,3.3-9.5,1.8-10.2c-0.2-0.1-0.3-0.1-0.5-0.1c0,0,0,0-0.1,0
			C93.8,87.3,90.9,90.4,88.6,94.7 M67.8,81.2c-4.9,2.8-7.5,7.6-5.8,10.7c1.8,3.1,7.2,3.2,12.1,0.3c4.9-2.8,7.5-7.6,5.8-10.7
			c-0.9-1.6-2.8-2.4-5.1-2.4C72.7,79.2,70.2,79.8,67.8,81.2 M86.1,74.7c-1.5,2.5-1.4,5.2,0.3,6.1c1.5,0.9,4-0.4,5.4-2.9
			c1.4-2.5,1.4-5.2-0.3-6.1c-0.3-0.2-0.7-0.3-1.1-0.3C89,71.6,87.3,72.8,86.1,74.7 M67.7,64.1c0,3,2.7,5.4,6.1,5.4
			c3.3,0,6.1-2.4,6.1-5.4c0-3-2.7-5.4-6.1-5.4C70.5,58.7,67.7,61.2,67.7,64.1 M27.1,64.1c0,6.7,7.5,12,16.8,12
			c9.2,0.1,16.7-5.3,16.7-12c0-6.7-7.5-12-16.8-12C34.6,52,27.1,57.4,27.1,64.1 M86.5,47.1c-1.5,0.9-1.6,3.7-0.3,6.1
			c1.5,2.5,3.8,3.8,5.4,2.9c1.5-0.9,1.6-3.7,0.3-6.1c-1.1-2-2.8-3.2-4.3-3.2c-0.1,0-0.2,0-0.2,0C87.1,46.8,86.8,46.9,86.5,47.1
			 M62.3,36.1c-1.8,3.1,0.9,7.8,5.8,10.7c4.9,2.8,10.3,2.7,12.1-0.3c1.8-3.1-0.9-7.8-5.8-10.7c-2.4-1.4-4.9-2-7-2
			C65.1,33.7,63.1,34.5,62.3,36.1 M86.8,23c-1.5,0.9-0.8,5.4,1.8,10.2c2.6,4.9,5.9,8.1,7.4,7.3c1.5-0.9,0.8-5.4-1.8-10.2
			c-2.3-4.4-5.2-7.4-6.9-7.4C87.2,22.9,87,22.9,86.8,23 M0.3,7.4c-2,5,7.9,13.9,22.3,19.9c14.4,6,27.7,6.7,29.9,1.6
			c2-5-7.9-13.9-22.3-19.9c-8-3.2-15.6-4.9-21.2-4.9C4.4,4.1,1.2,5.2,0.3,7.4 M53.7,1.3c-2,2.9,2.4,9.5,9.8,14.8
			c7.4,5.3,15.1,7.2,17.1,4.3c2.1-2.9-2.4-9.5-9.8-14.8C65.7,2,60.5,0,57.1,0C55.5,0,54.3,0.4,53.7,1.3"/>
	</defs>
	<clipPath id="SVGID_00000010275791137789721590000002564609156052882050_">
		<use xlink:href="#SVGID_1_"  style="overflow:visible;"/>
	</clipPath>
	
		<linearGradient id="SVGID_00000090264592376866070850000008945046027242118583_" gradientUnits="userSpaceOnUse" x1="5.497880e-03" y1="65.2215" x2="96.8357" y2="65.2215" gradientTransform="matrix(1 0 0 -1 0 130)">
		<stop  offset="0" style="stop-color:#38404A"/>
		<stop  offset="0.3904" style="stop-color:#5E6677"/>
		<stop  offset="0.8035" style="stop-color:#737C8C"/>
		<stop  offset="1" style="stop-color:#838C9B"/>
	</linearGradient>
	
		<path style="clip-path:url(#SVGID_00000010275791137789721590000002564609156052882050_);fill:url(#SVGID_00000090264592376866070850000008945046027242118583_);" d="
		M-1.8,0h99.4v129.6H-1.8L-1.8,0z"/>
</g>
<path class="st1" d="M117.4,23h28.1c15.5,0,26.1,8.4,26.1,21.9c0,7.4-3.5,13.3-10,16.4c9.5,3.1,14.8,10.2,14.8,20.1
	c0,14.7-11.3,23.6-29.1,23.6h-30.2L117.4,23z M144.6,57c7.8,0,13.3-3.9,13.3-10.9s-5.5-10.9-13.3-10.9h-13.3V57L144.6,57L144.6,57z
	 M147.1,92.8c9.2,0,15.2-4.3,15.2-12.3c0-7.6-6.2-12.1-15.5-12.1h-15.6v24.4L147.1,92.8L147.1,92.8z M215,94.1
	c2.3,0,4.7-0.3,6.4-1.7v12.1c-2.3,1.4-5.6,2.2-10.5,2.2c-11.7,0-18.8-7-18.8-19.1V59.2h-10.3v-1.9l23.6-24.4h0.3v14.8h15.5v11.5
	h-15.2V85C206.1,91.3,208.8,94.1,215,94.1 M259.9,46.2c5.8,0,10.9,1.4,15.6,4.1v13.5c-4.7-3.3-9.4-5-14.4-5
	c-10.3,0-18.1,7.8-18.1,17.8c0,10,7.6,17.8,18.1,17.8c5.6,0,10.5-2.3,14.7-5v13.5c-4.9,2.7-10.2,4.1-16,4.1
	c-18.1,0-30.6-12.7-30.6-30C229.1,59.1,241.7,46.2,259.9,46.2 M275.5,23H336v13.1h-23v68.9h-14.4V36.1h-23L275.5,23L275.5,23z
	 M376.7,47.6h13.9V105h-13.9v-7.6c-3.7,5.5-9.5,8.9-17.8,8.9c-13.9,0-22.2-9.2-22.2-24.2V47.5h13.9v32c0,8.9,4.5,14.2,12.7,14.2
	c8.2,0,13.5-6.3,13.5-16L376.7,47.6L376.7,47.6z M441.1,60.6c-0.6-0.3-1.7-0.3-3.5-0.3c-10.2,0-16.2,7.8-16.2,19.5v25.3h-13.6V47.6
	h13.5v9.7c3-6.6,9.7-10.9,17.4-10.9c1.6,0,2.3,0.2,2.5,0.3L441.1,60.6z M463.9,105h-13.6V23h13.6V105z M487.3,47.6h17l-21.9,27.1
	l24.2,30.2h-17l-24.2-30.2L487.3,47.6z"/>
</svg>
