<?xml version="1.0" encoding="utf-8"?>
<!-- Generator: Adobe Illustrator 25.4.2, SVG Export Plug-In . SVG Version: 6.00 Build 0)  -->
<svg version="1.1" id="Layer_1" xmlns="http://www.w3.org/2000/svg" xmlns:xlink="http://www.w3.org/1999/xlink" x="0px" y="0px"
	 viewBox="0 0 706.8 118.9" style="enable-background:new 0 0 706.8 118.9;" xml:space="preserve">
<style type="text/css">
	.st0{fill:#FFFFFF;}
	.st1{fill-rule:evenodd;clip-rule:evenodd;fill:#38404A;}
	.st2{fill-rule:evenodd;clip-rule:evenodd;fill:#6E7684;}
	.st3{fill-rule:evenodd;clip-rule:evenodd;fill:#5E6677;}
	.st4{fill-rule:evenodd;clip-rule:evenodd;fill:#444D56;}
</style>
<g>
	<path class="st0" d="M176.7,99.3h31.8c15.6,0,24.6-8.3,24.6-19.7c0-10.2-7.5-16.7-16-17.1v-0.7c7.8-1.7,13.3-7.3,13.3-15.4
		c0-10.7-8.2-17.9-24.1-17.9h-29.5L176.7,99.3L176.7,99.3z M193.8,85.5V68.6h10.9c6.6,0,10.5,3.5,10.5,8.9c0,5-3.4,8-10.8,8H193.8z
		 M193.8,57.6V42.2h9.7c5.7,0,9.3,2.9,9.3,7.6c0,5-3.9,7.8-9.6,7.8H193.8z"/>
	<path id="_x31_" class="st0" d="M275.6,76.4c0,6.1-3.9,9.6-9,9.6c-5.2,0-8.4-3.5-8.4-9.2V46.2h-16.9v33.9c0,12,7.3,20,18.2,20
		c8,0,13.9-4.1,16.2-10.6h0.6v9.8h16V46.2h-16.7V76.4z"/>
	<polygon id="_x32_" class="st0" points="320,28.5 303.1,28.5 303.1,99.3 320,99.3 	"/>
	<polygon id="_x33_" class="st0" points="347.7,28.5 330.8,28.5 330.8,99.3 347.7,99.3 	"/>
	<path id="_x34_" class="st0" d="M379.3,99.3h31.8c15.6,0,24.6-8.3,24.6-19.7c0-10.2-7.4-16.7-16-17.1v-0.7
		c7.7-1.7,13.2-7.3,13.2-15.4c0-10.7-8.2-17.9-24.1-17.9h-29.5V99.3z M396.4,85.5V68.6h10.9c6.6,0,10.5,3.5,10.5,8.9
		c0,5-3.4,8-10.8,8H396.4z M396.4,57.6V42.2h9.7c5.7,0,9.3,2.9,9.3,7.6c0,5-3.9,7.8-9.6,7.8H396.4z"/>
	<path id="_x35_" class="st0" d="M443.9,99.3h16.9V46.2h-16.9V99.3z M452.4,40.1c4.8,0,8.7-3.6,8.7-8.1s-3.9-8.1-8.7-8.1
		s-8.7,3.5-8.7,8.1C443.7,36.4,447.6,40.1,452.4,40.1z"/>
	<path id="_x36_" class="st0" d="M501.5,46.2h-9.6V33.5H475v12.7h-7v12.5h7v25.8c-0.1,10.8,6.9,16.1,18.8,15.5
		c4.1-0.2,7.1-1,8.7-1.5l-2.6-12.2c-0.7,0.2-2.4,0.5-3.7,0.5c-2.7,0-4.3-1.1-4.3-4.2V58.7h9.6V46.2z"/>
	<path id="_x37_" class="st0" d="M534.4,100.3c14.9,0,24.1-8.7,24.6-21.8h-15.8c-0.6,5.6-4,8.7-8.7,8.7c-6,0-9.8-5-9.8-14.4
		s3.9-14.4,9.8-14.4c4.9,0,8,3.3,8.7,8.7H559c-0.4-13-9.9-21.6-24.7-21.6c-16.6,0-26.8,11.2-26.8,27.4
		C507.5,89.2,517.6,100.3,534.4,100.3z"/>
	<path id="_x38_" class="st0" d="M592.5,100.3c16.7,0,26.8-11,26.8-27.4s-10.1-27.4-26.8-27.4c-16.6,0-26.8,11-26.8,27.4
		S575.8,100.3,592.5,100.3z M592.6,87.6c-6.2,0-9.7-6-9.7-14.8s3.4-14.8,9.7-14.8c6,0,9.6,6,9.6,14.8S598.6,87.6,592.6,87.6z"/>
	<path id="_x39_" class="st0" d="M628,99.3h16.9V46.2H628V99.3z M636.4,40.1c4.9,0,8.7-3.6,8.7-8.1s-3.9-8.1-8.7-8.1
		c-4.7,0-8.7,3.5-8.7,8.1C627.8,36.4,631.7,40.1,636.4,40.1z"/>
	<path id="_x31_0" class="st0" d="M672.5,69c0-6,3.5-9.7,8.9-9.7c5.3,0,8.5,3.5,8.5,9.4v30.5h16.9V65.5c0-12-7.2-20-18.4-20
		c-7.9,0-13.8,4-16.1,10.4h-0.6v-9.7h-16.1v53.1h17L672.5,69L672.5,69z"/>
</g>
<g>
	<rect x="54" y="37.7" class="st0" width="39.3" height="48"/>
	<g>
		<path class="st1" d="M11.9,0l5.4,20.8L47,30.6l9-13.4l17.6,7.6l17.6-7.6l9,13.4l29.7-9.8L135.3,0l11.9,29.2l-29.3,21.7L138.6,66
			l-20.7,4.1l-10-1.8l0.1,11.8L94.6,96.3l-2.5,11.9l-18.5,10.7l-18.5-10.7l-2.5-11.8L39.2,80.2l0.1-11.8l-10,1.8L8.6,66l20.7-15.1
			L0,29.2L11.9,0z M65.6,44.8L65.6,44.8h-8.7v5h2.4c1.9,0,3.4,1.5,3.4,3.4v16.3c0,1.8-1.5,3.3-3.4,3.3h-2.4v5.1h8.7l0,0l0,0v5.8h4.7
			v-5.8h3.3v5.8h4.7v-5.8h4.1c5.1,0,9.3-4.2,9.3-9.3l0,0c0-3.9-2.4-7.2-5.9-8.6c2.1-1.5,3.4-4,3.4-6.8l0,0c0-4.6-3.8-8.4-8.4-8.4
			h-2.5v-5.6h-4.7v5.6h-3.3v-5.6h-4.7V44.8z M70.3,49.9v8.7h6.8c2.4,0,4.4-2,4.4-4.4l0,0c0-2.4-2-4.4-4.4-4.4h-6.8V49.9z M70.3,63.4
			v9.1h7.6c2.5,0,4.6-2,4.6-4.6l0,0c0-2.5-2-4.6-4.6-4.6L70.3,63.4L70.3,63.4z"/>
		<polygon class="st2" points="47,30.6 17.3,20.8 29.3,51 		"/>
		<polygon class="st3" points="0,29.2 29.3,51 17.3,20.8 		"/>
		<polygon class="st3" points="56,17.2 47,30.6 65.6,42.2 65.6,39.2 70.3,39.2 70.3,44.8 73.7,44.8 73.7,24.8 		"/>
		<polygon class="st3" points="42.4,53.2 47,30.6 29.3,51 		"/>
		<polygon class="st2" points="8.6,66 29.3,51 29.3,70.2 		"/>
		<polygon class="st3" points="39.3,68.4 29.3,51 29.3,70.2 		"/>
		<polygon class="st3" points="42.4,53.2 62.6,58.7 62.6,63.8 39.3,68.4 		"/>
		<polygon class="st2" points="29.3,51 42.4,53.2 39.3,68.4 		"/>
		<path class="st2" d="M73.7,58.6v-8.7h-3.3v8.7H73.7z M65.6,42.2L47,30.6l-4.6,22.6l20.2,5.5v-5.5c0-1.9-1.5-3.4-3.4-3.4h-2.4v-5
			h8.7l0,0v-2.6H65.6z"/>
		<path class="st2" d="M73.7,85.7v-7.8h-3.3v5.8h-0.7L73.7,85.7z M73.7,72.6v-9.1h-3.3v9.1H73.7z M62.6,63.8l-23.3,4.5l17.5,8.9
			v-4.4h2.4c1.9,0,3.4-1.5,3.4-3.3V63.8z M58.2,77.9l7.4,3.7v-3.7l0,0l0,0H58.2z"/>
		<polygon class="st3" points="52.6,96.4 73.7,85.7 69.7,83.7 65.6,83.7 65.6,81.6 58.2,77.9 56.9,77.9 56.9,77.2 39.3,68.4 		"/>
		<polygon class="st2" points="39.3,80.2 39.3,68.4 52.6,96.4 		"/>
		<polygon class="st2" points="73.7,118.9 55.2,108.3 73.7,102.8 		"/>
		<polygon class="st3" points="52.6,96.4 73.7,102.8 55.2,108.3 		"/>
		<polygon class="st2" points="73.7,85.7 73.7,102.8 52.6,96.4 		"/>
		<polygon class="st4" points="135.4,0 147.3,29.2 130,20.8 		"/>
		<polygon class="st4" points="100.3,30.6 130,20.8 118,51 		"/>
		<polygon class="st1" points="147.3,29.2 118,51 130,20.8 		"/>
		<polygon class="st1" points="91.3,17.2 100.3,30.6 78.4,44.3 78.4,39.2 73.7,39.2 73.7,44.8 73.7,44.8 73.7,24.8 		"/>
		<polygon class="st1" points="104.9,53.2 100.3,30.6 118,51 		"/>
		<polygon class="st4" points="138.7,66 118,51 118,70.2 		"/>
		<polygon class="st1" points="108,68.4 118,51 118,70.2 		"/>
		<path class="st1" d="M104.9,53.2l-17,4.6c-0.6,0.8-1.2,1.5-2,2.1c2.3,0.9,4.2,2.8,5.2,5.1l16.9,3.3L104.9,53.2z"/>
		<polygon class="st4" points="118,51 104.9,53.2 108,68.4 		"/>
		<path class="st4" d="M73.7,58.6v-8.7h3.4c2.4,0,4.4,2,4.4,4.4l0,0c0,2.4-2,4.4-4.4,4.4h-3.4V58.6z M78.4,44.3l21.9-13.7l4.6,22.6
			l-17,4.6c0.9-1.3,1.4-2.9,1.4-4.6l0,0c0-4.6-3.8-8.4-8.4-8.4h-2.5C78.4,44.8,78.4,44.3,78.4,44.3z"/>
		<path class="st4" d="M73.7,85.7v-7.8l0,0v5.8h4L73.7,85.7z M73.7,72.6v-9.1h4.2c2.5,0,4.6,2.1,4.6,4.6l0,0c0,2.5-2,4.6-4.6,4.6
			L73.7,72.6L73.7,72.6z M91.1,65.1l16.9,3.3l-29.6,15v-5.5h4.1c5.1,0,9.3-4.2,9.3-9.3l0,0C91.8,67.3,91.5,66.2,91.1,65.1z"/>
		<polygon class="st1" points="94.7,96.4 73.7,85.7 77.7,83.7 78.4,83.7 78.4,83.3 108,68.4 		"/>
		<polygon class="st4" points="108,80.2 108,68.4 94.7,96.4 		"/>
		<polygon class="st4" points="73.7,118.9 92.2,108.3 73.7,102.8 		"/>
		<polygon class="st1" points="94.7,96.4 73.7,102.8 92.2,108.3 		"/>
		<polygon class="st4" points="73.7,85.7 73.7,102.8 94.7,96.4 		"/>
		<polygon class="st2" points="11.9,0 0,29.2 17.3,20.8 		"/>
	</g>
</g>
</svg>
