<?xml version="1.0" encoding="utf-8"?>
<!-- Generator: Adobe Illustrator 25.4.2, SVG Export Plug-In . SVG Version: 6.00 Build 0)  -->
<svg version="1.1"
	 id="svg8" inkscape:version="1.0.1 (1.0.1+r75)" sodipodi:docname="coinos.svg" xmlns:cc="http://creativecommons.org/ns#" xmlns:dc="http://purl.org/dc/elements/1.1/" xmlns:inkscape="http://www.inkscape.org/namespaces/inkscape" xmlns:rdf="http://www.w3.org/1999/02/22-rdf-syntax-ns#" xmlns:sodipodi="http://sodipodi.sourceforge.net/DTD/sodipodi-0.dtd" xmlns:svg="http://www.w3.org/2000/svg"
	 xmlns="http://www.w3.org/2000/svg" xmlns:xlink="http://www.w3.org/1999/xlink" x="0px" y="0px" viewBox="0 0 439.2 105.3"
	 style="enable-background:new 0 0 439.2 105.3;" xml:space="preserve">
<style type="text/css">
	.st0{fill:#FAFAFA;}
	.st1{fill:#5E6677;}
</style>
<sodipodi:namedview  bordercolor="#666666" borderopacity="1.0" id="base" inkscape:current-layer="layer1" inkscape:cx="-193.30366" inkscape:cy="272.6851" inkscape:document-rotation="0" inkscape:document-units="mm" inkscape:pageopacity="0.0" inkscape:pageshadow="2" inkscape:window-height="1025" inkscape:window-maximized="1" inkscape:window-width="1920" inkscape:window-x="0" inkscape:window-y="27" inkscape:zoom="0.98994949" pagecolor="#ffffff" showgrid="false">
	</sodipodi:namedview>
<g id="layer1" transform="translate(-27.223143,-76.2925)" inkscape:groupmode="layer" inkscape:label="Layer 1">
	<path id="path875" class="st0" d="M197.3,76.3v15.5H210V76.3H197.3z M66.1,103.5c-12.1,0-21.6,3.5-28.5,10.4
		c-6.9,7-10.4,16.5-10.4,28.6c0,12,3.4,21.5,10.3,28.5s16.1,10.6,27.8,10.6c4.3,0,8.3-0.4,12.1-1.2c3.8-0.8,7.5-2,11.1-3.6v-11.3
		c-3.6,1.9-7.2,3.3-10.9,4.3c-3.6,0.9-7.2,1.4-10.9,1.4c-8.2,0-14.7-2.5-19.2-7.5c-4.6-5-6.8-12.1-6.8-21.2c0-9.1,2.3-16.1,6.8-21.1
		c4.6-5,11-7.6,19.2-7.6c3.7,0,7.3,0.5,10.9,1.5c3.6,0.9,7.3,2.3,10.9,4.3v-11.4c-3.5-1.5-7.1-2.7-10.9-3.5
		C73.9,103.9,70.1,103.5,66.1,103.5z M140.7,103.5c-11.1,0-19.8,3.5-26.1,10.4c-6.3,6.9-9.4,16.5-9.4,28.7c0,12.2,3.1,21.7,9.4,28.7
		c6.3,6.9,15,10.4,26.1,10.4c11.1,0,19.7-3.5,26.1-10.4c6.3-7,9.5-16.5,9.5-28.7c0-12.2-3.2-21.8-9.5-28.7S151.8,103.5,140.7,103.5z
		 M273.9,103.5c-5.4,0-10.2,1.1-14.3,3.3c-4.1,2.2-7.7,5.6-10.7,10v-11.6h-12.8v74.4h12.8v-42c0-7.3,2-13,5.9-17.2
		c4-4.2,9.4-6.3,16.2-6.3c5.7,0,10,1.7,12.9,5.2c2.9,3.5,4.3,8.8,4.3,15.8v44.5h12.7v-44.9c0-10.3-2.3-18-6.8-23.3
		C289.5,106.1,282.8,103.5,273.9,103.5z M197.3,105.3v74.4H210v-74.4H197.3z M140.7,113.8c6.8,0,12.1,2.6,16.1,7.8
		c4,5.1,5.9,12.1,5.9,20.9c0,8.9-2,15.9-5.9,21c-4,5.1-9.3,7.7-16.1,7.7c-6.9,0-12.3-2.5-16.2-7.6c-3.9-5.1-5.9-12.2-5.9-21.1
		s2-15.9,5.9-21C128.5,116.4,133.9,113.8,140.7,113.8z"/>
	<path id="path883" class="st1" d="M356.4,103.5c-11.1,0-19.8,3.5-26.1,10.4c-6.3,6.9-9.4,16.5-9.4,28.7c0,12.2,3.1,21.7,9.4,28.7
		c6.3,6.9,15,10.4,26.1,10.4c11.1,0,19.7-3.5,26.1-10.4c6.3-7,9.5-16.5,9.5-28.7c0-12.2-3.2-21.8-9.5-28.7S367.5,103.5,356.4,103.5z
		 M437.6,103.5c-9.5,0-16.8,1.9-22,5.7c-5.2,3.8-7.7,9.2-7.7,16.2c0,5.8,1.8,10.3,5.3,13.6c3.5,3.3,9.2,5.7,17.1,7.3l4.4,1
		c7.9,1.6,13,3.3,15.3,5.1c2.4,1.8,3.5,4.3,3.5,7.6c0,3.6-1.6,6.4-4.8,8.4c-3.2,1.9-7.8,2.9-13.8,2.9c-4.5,0-9-0.6-13.5-1.7
		c-4.6-1.2-9.2-3-13.9-5.3v12.6c5,1.6,9.7,2.7,14.2,3.5c4.5,0.8,8.8,1.2,13,1.2c10,0,17.8-2,23.4-6c5.7-4,8.6-9.5,8.6-16.4
		c0-6.1-1.9-10.8-5.7-14.1c-3.8-3.4-10.2-6-19.2-7.9l-4.4-0.9c-6.8-1.5-11.4-3-13.6-4.6c-2.3-1.6-3.4-3.9-3.4-6.7
		c0-3.7,1.6-6.5,4.7-8.4c3.2-1.9,7.9-2.8,14.2-2.8c4.1,0,8.2,0.4,12,1.3s7.6,2.2,11.2,4v-11.6c-3.5-1.3-7.3-2.3-11.5-3
		C446.7,103.8,442.3,103.5,437.6,103.5z M356.4,113.8c6.8,0,12.1,2.6,16.1,7.8c4,5.1,5.9,12.1,5.9,20.9c0,8.9-2,15.9-5.9,21
		c-4,5.1-9.3,7.7-16.1,7.7c-6.9,0-12.3-2.5-16.2-7.6c-3.9-5.1-5.9-12.2-5.9-21.1s2-15.9,5.9-21C344.2,116.4,349.6,113.8,356.4,113.8
		z"/>
</g>
</svg>
