<?xml version="1.0" encoding="utf-8"?>
<!-- Generator: Adobe Illustrator 25.4.2, SVG Export Plug-In . SVG Version: 6.00 Build 0)  -->
<svg version="1.1" id="Layer_1" xmlns="http://www.w3.org/2000/svg" xmlns:xlink="http://www.w3.org/1999/xlink" x="0px" y="0px"
	 viewBox="0 0 180 34.6" style="enable-background:new 0 0 180 34.6;" xml:space="preserve">
<style type="text/css">
	.st0{fill:url(#SVGID_1_);}
	.st1{fill:#FFFFFF;}
</style>
<linearGradient id="SVGID_1_" gradientUnits="userSpaceOnUse" x1="28.0727" y1="1052.22" x2="6.5446" y2="1070.2815" gradientTransform="matrix(1 0 0 1 0 -1044)">
	<stop  offset="0" style="stop-color:#838C9B"/>
	<stop  offset="1" style="stop-color:#5E6677"/>
</linearGradient>
<path class="st0" d="M18.4,0.7c0-0.3,0-0.5,0.2-0.7l16,16c-0.1,0.1-0.3,0.2-0.4,0.2h-5.9c-0.9-0.1-1.8-0.6-2.5-1.2l-6.1-6.1
	c-0.8-0.9-1.2-2-1.3-3.1L18.4,0.7z M28.8,18.5c-1.2,0.1-2.3,0.5-3.1,1.3l-6,6c-0.8,0.9-1.2,2-1.3,3.1V34c0,0.2,0.1,0.4,0.2,0.6
	l16-16c-0.2-0.1-0.4-0.2-0.6-0.1L28.8,18.5z M5.7,16.2c1.2-0.1,2.3-0.5,3.1-1.3l6-6c0.8-0.9,1.2-2,1.3-3.1V0.7c0-0.3,0-0.5-0.2-0.7
	L0,16c0.2,0.1,0.4,0.2,0.7,0.1L5.7,16.2z M16.1,28.9c-0.1-1.2-0.5-2.3-1.3-3.1l-6-6c-0.9-0.8-2-1.2-3.1-1.3h-5c-0.2,0-0.4,0-0.6,0.1
	l16,16c0.1-0.2,0.1-0.4,0.1-0.6L16.1,28.9z M24,16.4l-5.8-5.8h-1.9l-5.8,5.8v1.8l5.8,5.8h1.8l5.8-5.7C24.5,17.8,24.5,16.9,24,16.4
	L24,16.4z"/>
<path class="st1" d="M45.1,17.7c0-1,0.2-2,0.5-3s0.9-1.9,1.5-2.6c0.7-0.8,1.5-1.4,2.5-1.9s2.2-0.8,3.3-0.7c1.3,0,2.6,0.3,3.8,1
	c1,0.7,1.8,1.6,2.3,2.6l-1,0.6c-0.5-1-1.3-1.9-2.3-2.4c-0.5-0.2-0.9-0.4-1.4-0.5s-1-0.2-1.5-0.2c-1,0-1.9,0.2-2.8,0.6
	c-0.8,0.4-1.5,1-2,1.7c-0.6,0.7-1,1.5-1.3,2.3s-0.4,1.7-0.4,2.6c0,1,0.2,1.9,0.5,2.8s0.8,1.7,1.4,2.4c0.6,0.7,1.3,1.2,2.1,1.6
	s1.7,0.6,2.6,0.6c0.5,0,1-0.1,1.6-0.2c0.5-0.1,1-0.3,1.5-0.6c0.5-0.3,1-0.6,1.4-1s0.8-0.9,1-1.5l1,0.5c-0.3,0.6-0.7,1.2-1.2,1.6
	c-0.5,0.5-1,0.9-1.6,1.2c-1.2,0.6-2.5,1-3.8,1c-1.1,0-2.2-0.2-3.1-0.8c-0.9-0.5-1.8-1.2-2.4-2c-0.7-0.8-1.2-1.7-1.6-2.7
	C45.2,19.9,45,18.8,45.1,17.7z M70,26.4c-0.8,0-1.6-0.2-2.4-0.5c-0.7-0.3-1.4-0.8-1.9-1.4s-1-1.3-1.2-2c-0.6-1.6-0.6-3.3,0-4.8
	c0.3-0.7,0.7-1.4,1.2-2s1.2-1,1.9-1.4c0.7-0.3,1.5-0.5,2.4-0.5c0.8,0,1.6,0.2,2.3,0.5c0.7,0.3,1.3,0.8,1.9,1.4
	c1.7,1.9,2.2,4.5,1.3,6.9c-0.3,0.7-0.7,1.4-1.2,2s-1.2,1-1.9,1.4C71.6,26.2,70.8,26.4,70,26.4z M65.2,20.1c0,0.7,0.1,1.4,0.4,2
	c0.2,0.6,0.6,1.2,1,1.6c0.4,0.5,0.9,0.8,1.5,1.1c0.6,0.3,1.2,0.4,1.8,0.4c0.6,0,1.3-0.1,1.8-0.4c0.6-0.3,1.1-0.7,1.5-1.1
	c0.4-0.5,0.8-1.1,1-1.7c0.3-0.6,0.4-1.3,0.4-2c0-1.4-0.5-2.7-1.4-3.7c-0.4-0.5-0.9-0.9-1.5-1.1c-0.6-0.3-1.2-0.4-1.8-0.4
	c-0.6,0-1.3,0.1-1.8,0.4c-0.6,0.3-1.1,0.7-1.5,1.1c-0.4,0.5-0.8,1.1-1,1.7C65.4,18.7,65.2,19.4,65.2,20.1L65.2,20.1z M81.7,11.2V9.1
	h1.2v2.1C82.9,11.2,81.7,11.2,81.7,11.2z M81.7,26.1V14h1.2v12.1H81.7z M99.3,26.1h-1.2v-6.8c0.1-1.2-0.1-2.4-0.7-3.4
	c-0.5-0.7-1.3-1.1-2.1-1.1c-0.5,0-1,0.1-1.5,0.3s-1,0.5-1.4,0.8c-0.4,0.3-0.8,0.8-1.2,1.2c-0.3,0.4-0.5,0.8-0.7,1.3
	c0,0.1-0.1,0.3-0.1,0.4v7.3h-1.2V14h1.1v2.9c0.2-0.5,0.6-0.9,0.9-1.3c0.4-0.4,0.8-0.7,1.2-1c0.5-0.3,0.9-0.5,1.5-0.6
	c0.5-0.1,1-0.2,1.6-0.2c1.1-0.1,2.2,0.4,2.8,1.4c0.6,1.2,0.9,2.6,0.8,4L99.3,26.1z M104.9,20c0-0.8,0.1-1.7,0.4-2.4
	c0.3-0.7,0.7-1.4,1.2-2c1.1-1.2,2.7-1.8,4.3-1.8c1,0,2,0.2,2.9,0.7c0.8,0.5,1.5,1.2,1.9,2.1l-1.1,0.4c-0.4-0.6-0.9-1.2-1.6-1.5
	c-0.7-0.4-1.4-0.6-2.2-0.6c-0.6,0-1.3,0.1-1.9,0.4c-0.6,0.3-1.1,0.6-1.5,1.1c-1.4,1.6-1.8,3.8-1,5.8c0.2,0.6,0.6,1.2,1,1.7
	s1,0.9,1.6,1.1c0.6,0.3,1.2,0.4,1.9,0.4c0.4,0,0.8-0.1,1.2-0.2c0.4-0.1,0.8-0.3,1.1-0.5c0.3-0.2,0.7-0.4,0.9-0.7
	c0.2-0.2,0.4-0.5,0.5-0.9l1.2,0.3c-0.2,0.4-0.4,0.8-0.7,1.2c-0.3,0.4-0.7,0.7-1.1,0.9c-0.5,0.3-0.9,0.5-1.4,0.6s-1.1,0.2-1.6,0.2
	c-0.8,0-1.6-0.2-2.4-0.5c-0.7-0.3-1.4-0.8-1.9-1.4s-1-1.3-1.3-2C105.1,21.7,104.9,20.9,104.9,20z M131.3,26.1h-1.2v-6.7
	c0-3-1-4.5-3-4.5c-0.5,0-1,0.1-1.5,0.3s-0.9,0.5-1.3,0.8c-0.4,0.3-0.8,0.8-1.1,1.2c-0.3,0.4-0.5,0.8-0.6,1.3c0,0.1-0.1,0.3-0.1,0.4
	v7.3h-1.2v-17h1.2v4.5c0,0.7,0.6,1.3,1.3,1.3c0.2,0,0.5-0.1,0.7-0.2l0,0c0.8-0.5,1.8-0.8,2.8-0.8c0.6,0,1.2,0.1,1.7,0.4
	c0.5,0.3,0.9,0.6,1.2,1.1c0.3,0.5,0.6,1.1,0.7,1.7c0.2,0.7,0.2,1.5,0.2,2.2L131.3,26.1z M142.9,26.3c-0.8,0-1.6-0.2-2.4-0.5
	c-0.7-0.3-1.4-0.8-1.9-1.4c-1.1-1.2-1.7-2.8-1.7-4.5c0-1.6,0.6-3.2,1.7-4.4c0.5-0.6,1.2-1,1.9-1.3s1.5-0.5,2.4-0.5
	c0.8,0,1.6,0.2,2.4,0.5c0.7,0.3,1.4,0.8,1.9,1.4s1,1.3,1.2,2c0.3,0.8,0.4,1.6,0.4,2.4v0.3c0,0.1,0,0.1,0,0.2h-9
	c-0.7,0-1.3,0.6-1.3,1.3c0,0.2,0,0.3,0.1,0.5l0.1,0.2c0.3,0.6,0.6,1.1,1.1,1.6c0.4,0.4,0.9,0.8,1.5,1c0.6,0.3,1.2,0.4,1.8,0.4
	c0.4,0,0.8-0.1,1.2-0.2s0.8-0.3,1.1-0.5s0.7-0.4,0.9-0.7c0.3-0.3,0.5-0.6,0.6-1l1,0.3c-0.2,0.4-0.4,0.9-0.8,1.2
	c-0.3,0.4-0.7,0.7-1.2,0.9c-0.5,0.3-0.9,0.5-1.4,0.6C144,26.3,143.5,26.4,142.9,26.3L142.9,26.3z M146.1,19.6c0.7,0,1.3-0.6,1.3-1.3
	c0-0.2,0-0.3-0.1-0.5c0-0.1-0.1-0.1-0.1-0.2c-0.3-0.6-0.6-1.1-1.1-1.5c-0.4-0.4-0.9-0.8-1.5-1c-1.1-0.5-2.4-0.5-3.6,0
	c-0.6,0.2-1.1,0.6-1.5,1s-0.8,1-1,1.5l-0.1,0.2c-0.2,0.7,0.1,1.4,0.8,1.7c0.1,0.1,0.3,0.1,0.4,0.1L146.1,19.6z M153.5,20
	c0-0.8,0.1-1.7,0.4-2.4c0.3-0.7,0.7-1.4,1.2-2c0.5-0.5,1.2-1,1.9-1.3c0.8-0.3,1.6-0.5,2.4-0.5c1,0,2,0.2,2.9,0.7
	c0.8,0.5,1.5,1.2,1.9,2.1l-1.1,0.4c-0.3-0.7-0.9-1.2-1.5-1.6c-0.7-0.4-1.4-0.6-2.2-0.6c-0.6,0-1.3,0.1-1.9,0.4
	c-0.6,0.3-1.1,0.6-1.5,1.1s-0.8,1.1-1,1.7s-0.4,1.3-0.4,2c0,1.4,0.5,2.7,1.4,3.8c0.4,0.5,0.9,0.9,1.5,1.1c0.6,0.3,1.2,0.4,1.9,0.4
	c0.4,0,0.8-0.1,1.2-0.2s0.8-0.3,1.1-0.5s0.6-0.4,0.9-0.7c0.2-0.2,0.4-0.5,0.5-0.9l1.1,0.3c-0.2,0.4-0.4,0.8-0.7,1.2
	c-0.3,0.4-0.7,0.7-1.1,0.9c-0.4,0.3-0.9,0.5-1.4,0.6s-1.1,0.2-1.6,0.2c-0.8,0-1.6-0.2-2.4-0.5c-0.7-0.3-1.4-0.8-1.9-1.4
	C154,23.3,153.4,21.7,153.5,20L153.5,20z M178.3,25.6l-3.5-4.8c-0.4-0.6-1.2-0.7-1.8-0.3l-0.1,0.1l-1.4,1.3c-0.3,0.2-0.4,0.6-0.4,1
	v3.3h-1.2v-17h1.2V18c0,0.7,0.6,1.3,1.3,1.3c0.3,0,0.7-0.1,0.9-0.4l4.8-4.6c0.2-0.2,0.6-0.4,0.9-0.4h0.8l-4.3,4.1
	c-0.5,0.4-0.5,1.2-0.1,1.7L180,26h-0.6C179,26.1,178.6,26,178.3,25.6L178.3,25.6z"/>
</svg>
