<?xml version="1.0" encoding="utf-8"?>
<!-- Generator: Adobe Illustrator 26.0.2, SVG Export Plug-In . SVG Version: 6.00 Build 0)  -->
<svg version="1.1" id="Layer_1" xmlns="http://www.w3.org/2000/svg" xmlns:xlink="http://www.w3.org/1999/xlink" x="0px" y="0px"
	 viewBox="0 0 553.9 114.4" style="enable-background:new 0 0 553.9 114.4;" xml:space="preserve">
<style type="text/css">
	.st0{fill:#FFFFFF;}
	.st1{fill:#5E6677;}
</style>
<g>
	<rect x="125.8" y="10.4" class="st0" width="23.2" height="104"/>
	<polygon class="st0" points="417.3,10.4 417.3,114.4 513.2,114.4 513.2,91.2 440.6,91.2 440.6,10.4 	"/>
	<g>
		<rect x="333.7" y="50.8" class="st0" width="23.2" height="63.6"/>
		<rect x="293.3" y="10.4" class="st0" width="104" height="23.2"/>
	</g>
	<path class="st0" d="M61.8,10.4h-60v23.2h60c13.3,0,20.7,7.3,20.7,20.7v16.1c0,13.3-7.3,20.7-20.7,20.7H25V50.8H1.7v63.6h60
		c30,0,43.9-14,43.9-43.9V54.4C105.7,24.4,91.7,10.4,61.8,10.4z"/>
	<path class="st0" d="M273.2,10.4h-60c-30,0-43.9,14-43.9,43.9v16.1c0,30,14,43.9,43.9,43.9h60V50.8H250v40.4h-36.8
		c-13.3,0-20.7-7.3-20.7-20.7V54.4c0-13.3,7.3-20.7,20.7-20.7h60V10.4z"/>
	<polygon class="st1" points="474,33.7 512.9,0 551.8,33.7 	"/>
</g>
</svg>
