<?xml version="1.0" encoding="utf-8"?>
<!-- Generator: Adobe Illustrator 25.4.2, SVG Export Plug-In . SVG Version: 6.00 Build 0)  -->
<svg version="1.1" id="Layer_1" xmlns="http://www.w3.org/2000/svg" xmlns:xlink="http://www.w3.org/1999/xlink" x="0px" y="0px"
	 viewBox="0 0 1352.3 254.9" style="enable-background:new 0 0 1352.3 254.9;" xml:space="preserve">
<style type="text/css">
	.st0{fill:#FFFFFF;}
	.st1{fill:#5E6677;}
</style>
<path class="st0" d="M500.6,147.4c-2.8,4.5-3.1,9.8-4.4,14.6c-3.3,12.4-6.2,24.8-9.2,37.3c-0.7,3.1-2.1,4.2-5.4,4.1
	c-10-0.2-20-0.3-30,0c-3.4,0.1-4.6-1.2-5.4-4.1c-4.6-16.1-9.4-32.2-14.1-48.3c-0.5-1.6-0.4-3.3-2.6-4.7c-1.5,8.5-2.9,16.7-4.4,24.9
	c-1.7,9.8-3.4,19.7-5,29.5c-0.3,2.2-1.4,2.7-3.3,2.7c-22.2,0-44.3-0.1-66.5,0c-2.9,0-3-1.5-3.3-3.7c-2.4-16.5-4.9-32.9-7.4-49.4
	c-0.1-0.9-0.1-2-1.3-2.6c-1.9,0.5-1.6,2.3-1.9,3.6c-4.1,16.3-8.3,32.5-12.2,48.9c-0.6,2.6-1.7,3.1-4,3.1c-10.7-0.1-21.3-0.1-32,0
	c-2.7,0-3.6-1.1-4.3-3.6c-5-17.7-10.2-35.3-15.5-53.5c-2,1.8-2.1,3.8-2.4,5.6c-2.6,15.4-5.3,30.8-7.8,46.3c-0.6,3.8-1.9,5.4-6.3,5.3
	c-14.5-0.4-28.9-0.1-43.6-0.1c1.2-8.1,3.5-15.6,4-23.3c-0.9-0.5-1.5-0.4-2,0.2c-14.4,15.4-32.8,22.2-53.2,22.9
	c-25,0.8-50,0.2-75,0.3c-3,0-3.6-1.1-3.6-3.8c0.1-44.7,0.1-89.3,0-134c0-2.7,0.7-3.9,3.6-3.8c24.6,0.8,49.3-1.6,73.8,1.8
	c22.9,3.2,43.7,10.6,58.1,30.2c4,5.4,6.7,11.4,8.7,17.8c0.3,1,0.5,2.3,1.6,2.3c1.6,0,1.2-1.6,1.4-2.6c3-15.5,6-31,8.9-46.6
	c0.4-2.1,1.2-2.8,3.3-2.8c13.3,0,26.7,0.1,40-0.1c2.6,0,3.4,1.5,4,3.5c5.9,19.2,11.9,38.4,17.8,57.6c0.4,1.4,0.5,2.9,2.6,4.2
	c2.3-8,4.5-15.7,6.7-23.4c3.6-12.6,7.2-25.2,10.6-37.9c0.9-3.2,2.3-4,5.5-4c13.3,0.2,26.7,0.2,40,0c3.8-0.1,5.3,0.8,6,5
	c3.1,19.4,6.7,38.6,10.4,57.9c0.5,2.5-0.3,5.4,1.7,7.7c1.8-0.8,1.5-2.4,1.7-3.8c4-20.7,8-41.5,11.9-62.2c0.6-3.1,1.6-4.8,5.4-4.7
	c12.3,0.3,24.7,0.2,37,0.1c2.9,0,4.3,0.6,5.2,3.7c5.8,19.4,12,38.7,18.1,58c0.3,1.1,0,3.2,1.9,2.9c1.2-0.1,1.2-1.8,1.5-2.9
	c5.4-19.2,10.9-38.4,16.1-57.6c0.8-3.1,2-4.3,5.4-4.2c13.7,0.2,27.3,0.2,41,0c3,0,4.3,0.6,4.9,3.9c4.3,24.9,8.9,49.8,13.4,74.6
	c3.6,20,7.2,39.9,11,59.9c0.5,2.8-0.4,3.1-2.7,3.1c-14-0.1-28-0.1-42,0c-3,0-3.6-1.4-4-3.8c-2.3-15.8-4.6-31.6-6.9-47.4
	C502,150.7,502.3,148.9,500.6,147.4L500.6,147.4z M141.1,132.9v18.4c0,1.4-0.4,2.9,1.8,3.5c6.6,1.9,18.8-2.2,22.2-8.2
	c5-8.6,5.2-17.8,0.7-26.6c-4.3-8.4-12.7-9.2-21-9.7c-2.8-0.2-3.8,0.8-3.8,3.7C141.2,120.3,141.1,126.6,141.1,132.9z"/>
<path class="st1" d="M621,203.4c-11.2,0-22.3-0.2-33.5,0.1c-4.6,0.1-5.9-0.9-5.3-5.7c2.9-21.4,5.4-42.9,8.1-64.4
	c2.6-21,5.2-41.9,7.8-62.9c0.9-7.6,1-7.6,8.5-7.5c23.8,0.1,47.6,0,71.4,0.5c9.6,0.2,18.5,3.3,25.8,10.1c10.6,9.8,8.8,29.8,2.5,39.9
	c-3.4,5.5-7.9,9.8-13.4,13c-3.5,2.1-3.6,2.9,0.1,5c11.9,6.7,20.6,15.8,19.9,30.7c-0.8,15.3-8.6,26.1-22,33c-11.3,5.8-23.6,7.3-36,8
	C643.7,203.8,632.3,203.3,621,203.4L621,203.4z M644.8,143.1c-4.7,0-8.6,0.1-12.4,0c-2.5-0.1-3.5,0.8-3.8,3.3
	c-0.7,6.8-1.8,13.5-2.5,20.3c-0.4,3.4-2.4,7.4-0.6,10.2c2.1,3.1,6.4,0.9,9.7,1.1c8.1,0.6,16.2,0.2,24-2.6c7-2.6,11.7-8.7,11.8-15.6
	c0.1-7.6-2.9-11.7-10.9-15.2C654.8,142.3,649.3,143.7,644.8,143.1z M650.5,87.3c0-0.1,0-0.2,0-0.3c-3.8,0-7.7,0.1-11.5,0
	c-2.3,0-3.3,1-3.6,3.2c-1,8.4-1.9,16.8-3,25.2c-0.4,3.1,0.7,4.2,3.8,4c4.6-0.2,9.3,0,14-0.1c5.6-0.2,10.8-1.9,15.6-4.5
	c5.9-3.3,9-11.8,7.2-18.7c-1.4-5.3-6-8.4-13.5-8.7C656.5,87.2,653.5,87.3,650.5,87.3z"/>
<path class="st1" d="M1231.4,91.4c10.6,0,18.5-0.2,26.3,0.1c6.5,0.2,12.8,2,18.3,5.2c12.9,7.4,14.8,19.9,13.5,32.9
	c-2.4,23.2-5.7,46.2-8.5,69.4c-0.4,3.1-1.3,4.6-4.9,4.5c-10.3-0.2-20.7-0.2-31,0c-3.5,0.1-4.1-1.2-3.7-4.4
	c2.5-19.6,4.9-39.3,7.3-58.9c0.6-4.8,0.5-9.7-0.6-14.4c-1.4-6.4-5.7-10.1-12.2-10.3c-3.8-0.1-7.7,0.1-11.5,0.2c-4,0.1-5.8,2-6.2,6.1
	c-1.7,15.2-3.6,30.4-5.5,45.6c-1.3,10.2-2.6,20.5-3.8,30.7c-0.4,3.8-1.4,5.8-6.1,5.5c-10-0.5-20-0.3-30-0.1
	c-3.3,0.1-4.7-0.4-4.2-4.3c3.5-26.7,6.8-53.4,10.1-80.2c0.9-7.4,1.8-14.9,2.5-22.3c0.2-2.4,0.8-3.6,3.5-3.6
	C1201.3,93.5,1217.6,90.1,1231.4,91.4L1231.4,91.4z"/>
<path class="st1" d="M1046.7,89.2c11.3-0.2,22.3,0.7,32.9,5.6c11.4,5.3,18.6,13.9,21,25.8c4.2,20.9,1.3,41.1-10,59.5
	c-7.2,11.8-18.3,18.4-31.6,21.6c-9,2.2-18.2,4.2-27.4,3.5c-10.1-0.8-20.3-1.3-29.9-5.5c-13-5.6-20.9-15-22.9-28.7
	c-3.3-21.8,0-42.5,13.6-60.5c7.9-10.6,19.2-16.4,32.2-19.2C1031.9,89.5,1039.3,89.3,1046.7,89.2L1046.7,89.2z M1016.9,157.7
	c0,2-0.1,4,0,6c0.4,11,4.5,16.8,13.6,19.3c7.7,2.2,18.9-2,23.2-9.5c9.2-16.1,11-33.5,8.1-51.5c-0.8-5.2-4.3-8.6-9.3-10.7
	c-9.2-3.9-21.6,0.3-26.8,9.5C1019.2,132.3,1017.5,144.9,1016.9,157.7L1016.9,157.7z"/>
<path class="st1" d="M956.3,113.8c-12.6-1.2-24.8,0-35.6,7.5c-15.4,10.8-20.6,34.9-10.4,49.7c6.1,8.7,15.6,11.4,25.5,12.2
	c7.9,0.7,16,0.8,23.9-0.4c3-0.4,4,0.6,3.6,3.4c-0.1,0.5,0,1-0.1,1.5c-0.8,4.6,0.1,9.8-2.5,13.6c-2.9,4.2-8.4,1.5-12.7,2.4
	c-13.5,3-27.2,2-40.6-0.5c-18.9-3.6-36.3-11.8-41.3-35.9c-3-14.6-0.5-28.9,6.1-42.3c8.1-16.5,22-25.5,39.5-30.2
	c16.1-4.3,32.3-3.6,48.5-3.3c4,0.1,8.1,1.6,12.3,1.8c3,0.1,2.9,2.6,2.8,4.4c-0.3,4.6-1.1,9.3-1.6,13.9c-0.2,1.9-1.2,2.2-3.1,2.1
	C966,113.6,961.1,113.8,956.3,113.8L956.3,113.8z"/>
<g>
	<path class="st1" d="M818.8,67.2c5,0,10,0.2,15-0.1c3.4-0.2,4.3,0.9,3.7,4.3c-0.9,5.4-1.1,10.9-2,16.3c-0.7,4.3,0.7,5.7,5,5.5
		c5.8-0.3,11.7,0.1,17.5-0.2c4.1-0.2,5,1.5,4,5c-0.3,1.3-0.5,2.6-0.7,3.9c-0.7,4.4,0.7,10.1-2.5,12.9c-3,2.5-8.3,0.6-12.6,0.8
		c-2.7,0.1-5.4,0.3-8,0c-4.9-0.7-6.3,1.7-6.8,6.1c-1.5,13.6-3.3,27.1-5,40.6c-1.5,12.6,3.9,18.6,17.3,19c9.8,0.3,9.8,0.3,8.1,9.9
		c-0.2,1.1-0.4,2.3-0.5,3.5c-0.7,8.3-1,8.6-9.6,8.7c-8.2,0-16.3,0.5-24.5,0.2c-18.8-0.7-30.6-14.9-30.1-31.4
		c0.5-15.3,3.5-30.4,5.2-45.6c2-18.2,4.5-36.3,6.5-54.5c0.4-3.7,1.5-5.3,5.5-5C809.1,67.4,813.9,67.2,818.8,67.2L818.8,67.2z"/>
	<path class="st1" d="M742.8,203.4c-5.3,0-10.7-0.1-16,0c-2.4,0-3.7-0.3-3.3-3.3c3.1-23.6,6.1-47.2,9.1-70.7
		c1.4-10.7,2.7-21.4,3.9-32.2c0.3-3,1.2-4.2,4.5-4.1c10.3,0.2,20.6,0.2,31,0c3.4-0.1,4.3,1.1,3.8,4.3c-2.8,21.3-5.5,42.5-8.2,63.8
		c-1.6,12.9-3.2,25.7-4.5,38.7c-0.3,2.9-1.2,3.6-3.9,3.6C753.8,203.3,748.3,203.4,742.8,203.4L742.8,203.4z"/>
	<path class="st1" d="M1129.4,203.4c-5.2,0-10.3-0.1-15.5,0.1c-2.7,0.1-4-0.5-3.6-3.6c2.7-21.4,5.3-42.9,8-64.3
		c1.6-12.7,3.3-25.4,4.6-38.1c0.4-3.5,1.6-4.4,4.9-4.3c10.2,0.2,20.3,0,30.5,0c2,0,4.4-0.7,3.9,3.1c-4.2,33.5-8.4,67-12.2,100.5
		c-0.6,5.7-2.8,7.3-8.1,6.7C1137.8,203,1133.6,203.4,1129.4,203.4L1129.4,203.4z"/>
</g>
<path class="st1" d="M761.2,58.9h16c2.5,0,4,0.5,3.3,3.8c-0.9,4.4-1.1,8.9-1.4,13.4c-0.2,2.8-1.2,4.2-4.2,4.2
	c-11-0.1-21.9,0-32.9,0.1c-2.7,0-3.8-0.7-3.1-3.9c1-4.3,1.3-8.9,1.6-13.3c0.2-3.1,1.7-4.2,4.8-4.1C750.5,59,755.9,58.9,761.2,58.9
	L761.2,58.9z"/>
<path class="st1" d="M1144.4,80.2c-5.3,0-10.7-0.1-16,0c-2.7,0.1-3.6-1-3.2-3.6c0.7-5.1,1.4-10.2,1.9-15.3c0.2-1.8,1.1-2.1,2.6-2.1
	c11.5,0,23-0.1,34.5-0.2c2.5,0,3.2,1.4,2.7,3.6c-1,4.7-1.9,9.5-2,14.3c-0.1,2.6-1.7,3.3-4,3.3C1155.4,80.1,1149.9,80.2,1144.4,80.2z
	"/>
</svg>
