<?xml version="1.0" encoding="utf-8"?>
<!-- Generator: Adobe Illustrator 25.4.2, SVG Export Plug-In . SVG Version: 6.00 Build 0)  -->
<svg version="1.1" id="Layer_1" xmlns="http://www.w3.org/2000/svg" xmlns:xlink="http://www.w3.org/1999/xlink" x="0px" y="0px"
	 viewBox="0 0 456.5 105" style="enable-background:new 0 0 456.5 105;" xml:space="preserve">
<style type="text/css">
	.st0{fill:#5E6677;}
	.st1{fill:#FFFFFF;}
</style>
<g>
	<path class="st0" d="M189.4,104.9c-61,0-122,0-183,0c-1.3,0-2.7,0.1-4,0c-2.6-0.2-3.1-1-1.6-3.5c3.6-5.6,7.5-8.6,15.1-8.5
		c116.6,0.3,233.3,0.2,349.9,0.3c4.1,0,6.6-1.2,9.1-4.5c21-28.2,42.2-56.2,63.4-84.3c2.5-3.3,12.7-5.6,16.3-3.8
		c1.2,0.6,1.2,1.5,0.6,2.4c-0.6,1-1.4,1.9-2.1,2.8c-23.9,31.7-47.8,63.3-71.5,95.1c-2.3,3-4.7,4-8.4,4
		C312,104.9,250.7,104.9,189.4,104.9z"/>
	<path class="st1" d="M65,35.3c3.3,0,6.7,0.3,10-0.1c4.7-0.5,5.6,1.6,5.4,5.8C79.5,62.3,62.6,78.7,41,79
		C19.4,79.3,1.8,63.4,0.7,42.7C-0.4,20.8,14.6,3,36.2,0.7C46.7-0.4,56.3,2.1,65,8.2c3,2.1,4.4,4.1,1.1,7c-0.1,0.1-0.2,0.3-0.3,0.4
		c-1.8,2.2-3.1,5.3-5.4,6.4c-3,1.4-4.5-2.6-6.8-3.9c-11.7-7-27.4-3.5-34.3,7.9c-7.3,12-3.7,28.2,7.8,35.2
		c11.7,7.1,27.3,3.6,34.3-7.8c0.9-1.5,2.5-3.1,1.7-5c-1-2.1-3.3-1-5-1.1c-4-0.1-8-0.1-12,0c-3,0-3.5-1-1.8-3.6
		C49.8,35.4,49.7,35.3,65,35.3z"/>
	<path class="st1" d="M180.6,39.3c0.1,22.3-17.5,39.7-40.1,39.7c-22.3,0-39.6-17-39.7-38.9C100.7,17.9,118.5,0.3,141,0.3
		C163.3,0.4,180.5,17.3,180.6,39.3z M140.4,14.6c-14.1,0.1-24.7,10.9-24.7,25.3c0,14.3,10.8,25.1,24.9,25.1
		c14.3,0,25.1-11.1,24.9-25.6C165.4,25.1,154.6,14.5,140.4,14.6z"/>
	<path class="st1" d="M355.4,79.2c-5.1,1.6-7.6-1.4-9.5-6.8c-4.8-13.4-5.1-13.4-19.3-13.2c-5.4,0.1-12.1-2.2-16,1
		c-3.6,2.9-4.8,9.2-6.5,14.3c-1.3,3.9-3.2,5-7.2,4.9c-10.5-0.3-10.5-0.1-6.4-10c9-21.5,18.1-42.9,26.7-64.5
		c2.3-5.9,6.4-3.7,10.2-4.2c3.7-0.6,5.6,0.8,7,4.4c9.2,22.7,18.7,45.2,28.1,67.8c2.7,6.4,2.7,6.4-4.1,6.4
		C357.6,79.2,356.9,79.2,355.4,79.2z M325.2,47.2c2.3,0,4.6-0.1,7,0c3,0.1,3.4-1.3,2.4-3.7c-2.5-6.1-4.9-12.3-7.4-18.4
		c-0.4-0.9-0.7-2.1-1.9-2c-1.1,0.1-1.4,1.3-1.7,2.2c-1.6,4.2-3.3,8.3-5,12.5C314.8,47.2,314.8,47.2,325.2,47.2z"/>
	<path class="st1" d="M209,39.9c0-11.7,0.1-23.3-0.1-35c0-3.2,0.7-4.4,4.1-4.4c10,0.2,20-0.1,30,0.1c14.2,0.4,25.6,9.1,27.8,20.7
		c2.2,11.7-4,22.3-15.8,27.6c-7.3,3.2-14.9,2.8-22.6,2.8c-9.7,0.1-8.2-1.3-8.4,8.5c-0.1,5-0.2,10,0,15c0.1,3.1-1,3.9-4,4
		c-11,0.2-11,0.3-11-10.5C209,59.2,209,49.5,209,39.9z M224,26.1c0,3.2,0,6.3,0,9.5c0,1.5-0.1,3.4,2,3.3c7.3-0.2,14.7,1.4,21.7-1.5
		c4.8-1.9,8-5.3,8.2-10.8c0.1-5-2.9-9.1-8.2-11.4c-3.6-1.6-7.4-1.5-11.3-1.5C224,13.8,224,13.8,224,26.1z"/>
	<path class="st1" d="M430.1,42.7c8.7,11.5,17.1,22.6,25.5,33.7c1.4,1.8,1,2.8-1.2,2.9c-6.9,0.3-13.7,1.4-17.9-6.7
		c-3.1-5.8-7.7-10.8-11.9-16c-2.1-2.5-2.3-4.4,0-6.8C426.6,47.7,428.1,45.3,430.1,42.7z"/>
	<path class="st1" d="M392.5,0.6c4.6-1.5,7.4,1.5,10.2,5.5c3.9,5.6,8,11.1,12.4,16.3c2.3,2.8,2.1,4.6-0.1,7.3
		c-5.4,6.8-5.2,6.9-10.3,0.1c-6-8-12.1-15.9-18-24c-1-1.4-3.3-2.6-2.2-4.5c0.9-1.5,3.1-0.6,4.7-0.7C390,0.5,390.9,0.6,392.5,0.6z"/>
</g>
</svg>
