<?xml version="1.0" encoding="utf-8"?>
<!-- Generator: Adobe Illustrator 25.4.2, SVG Export Plug-In . SVG Version: 6.00 Build 0)  -->
<svg version="1.1" id="Layer_1" xmlns="http://www.w3.org/2000/svg" xmlns:xlink="http://www.w3.org/1999/xlink" x="0px" y="0px"
	 viewBox="0 0 1000 250" style="enable-background:new 0 0 1000 250;" xml:space="preserve">
<style type="text/css">
	.st0{fill:#5E6677;}
	.st1{fill:#FFFFFF;}
</style>
<g id="LOGO_1_">
	<path class="st0" d="M243.8,20.4L223.7,0.3h-29.4l-18.9,18.9l-7.4-7.4h-44.7h-3H75.6l-7.4,7.4L49.3,0.3H20L-0.1,20.4v28.7L18.8,68
		l-8.5,8.5V125v48.5l8.5,8.5l-18.9,19v28.7L20,249.8h29.4L68.2,231l7.4,7.4h44.7h3H168l7.4-7.4l18.9,18.9h29.4l20.1-20.1V201
		l-18.9-18.9l8.5-8.5v-39.8l-0.4-4.5h-66.9v15.2l-24.3,24.3h-6.1v5h8.2l27.3-27.3v-12.2h25.7v23.8l-44,43.9h-28.1v-12h24.8
		l37.4-37.4V145h-5v5.5l-34.4,34.4h-22.7v-28.3h11.9l17.6-17.6v-20.4h79v-42l-8.5-8.5l18.9-18.9V20.4z M119.7,184.9H96.4l-34.8-34.8
		v-11.3h-5v13.4L94.3,190h25.4v12H90.8l-43.9-43.9v-31.5H73v18.9l28.2,28.2h6.7v-5h-4.6L78,143.4v-37.5l26-26h36.5l8.1,8.1l3.6-3.6
		l-9.5-9.5H102l-29,28.9v17.8H46.8V92l43.9-43.9H108v-5H88.7L67.5,64.2L34.8,31.5L31.2,35L64,67.8L41.8,89.9V125v35.1L64,182.3
		l-32.8,32.8l3.6,3.6l32.8-32.8L88.7,207h31v10.3H84.9l-16.6-16.6l-27.5,27.5H28.1l-7.7-7.7V209l27.1-27.1l-16.7-16.7V125V84.9
		l16.7-16.7L20.4,41.1V29.6l7.7-7.7h12.7l27.5,27.4l16.6-16.6h34.9V60H94.3L56.6,97.8v13.4h5V99.9l34.8-34.8h51L178.3,96h-34.4
		l-5.5-5.5h-29.2l-19.7,19.7v28.2l18.2,18.2h12V184.9z M238.7,47l-21,21l10.6,10.6v35h-26.5V89.9l-22.2-22.2L212.4,35l-3.6-3.6
		L176,64.2L154.8,43h-19.3v5h17.2l44.1,44v21.6h-47.5V137l-14.7,14.7h-24.8l-15.3-15.3v-24l16.8-16.8h25l5.5,5.5h48.7l-40.9-40.9
		h-24.8V32.8h34l16.6,16.6L202.9,22h12.7l7.7,7.7v11.5l-27.1,27.1L212.9,85v16.5h5V82.8l-14.6-14.6l25-25V27.5l-10.6-10.6h-16.9
		l-25.4,25.4l-14.5-14.5h-37.6h-3H82.8L68.3,42.3L42.9,16.9H26L15.4,27.5v15.7l25,25L25.8,82.8V125v42.3l14.6,14.6l-25,25v15.7
		L26,233.2h16.9l25.4-25.4l14.5,14.5h37.6h3H161l14.5-14.5l25.4,25.4h16.9l10.6-10.6v-15.7l-25-25l14.6-14.6V145h-5v20.2l-16.7,16.7
		l27.1,27.1v11.5l-7.7,7.7H203l-27.5-27.5l-16.6,16.6h-34V207h30.2l21.2-21.2l32.8,32.8l3.6-3.6l-32.8-32.8l22.2-22.2v-25.9h26.5
		v37.2L218,181.9l21,21v24.6l-17.2,17.2h-25.2l-21-21l-9.5,9.5h-42.6h-3H77.7l-9.5-9.5l-21,21H22.1l-17.2-17v-24.6l21-21l-10.6-10.6
		V125V78.6L25.9,68l-21-21V22.4L22.1,5.3h25.2l21,21l9.5-9.5h42.6h3H166l9.5,9.5l21-21h25.2l17.2,17.2V47H238.7z"/>
	<path class="st1" d="M510.5,126.1c-0.5,27.7-21.8,47.9-49.9,47.4c-27.8-0.5-49-21.9-48.6-49.1c0.4-27.5,22.5-48.3,50.7-47.7
		C490.7,77.2,511,98.2,510.5,126.1z M461.1,164c22.1,0.9,39.3-15.7,39.5-38.7c0.2-22.8-16.1-39.1-39-39.2s-39.5,16.2-39.6,38.7
		C422,147.5,438.4,163.9,461.1,164z"/>
	<path class="st1" d="M695.1,78.4c3.6,0,6.9,0,10.6,0c13.9,30.8,27.7,61.4,42,93.3c-4.4,0-7.1,0-10.2,0c-3.6-7.8-7.3-15.6-11.1-23.7
		c-17.3,0-34.5,0-52.4,0c-3.5,7.7-7.1,15.5-10.9,23.8c-2.9,0-5.9,0-10.2,0C667.3,140,681.1,109.4,695.1,78.4z M700.2,88
		c-6.3,16.8-15.4,32.4-21.2,50.8c15.1,0.7,28.6,0.6,43.7,0.1C714.7,120.7,707.4,104.4,700.2,88z"/>
	<path class="st1" d="M767.9,78.3c3.2,0,5.5,0,8.4,0c0,31.2,0,62.3,0,93.8c-2.7,0.2-5.1-0.1-8.4,0.2
		C767.9,140.7,767.9,109.9,767.9,78.3z"/>
	<g>
		<path class="st1" d="M404.1,77.9H392c-9.4,11-22.8,27-30.5,35.9c-2.3,2.7-5.5,5.1-5.5,5.1s-14.8,0-21.3,0c0-12.6,0-26.8,0-40.4
			c-3.5,0-6,0-8.7,0c0,31.4,0,62.1,0,93.1c3.1,0,5.6,0,9.4,0c0-14.1,0-28.3,0-42.2c6.7,0,20,0,20,0s5.1,4.4,8.2,8.7
			c7.5,10.6,20.5,24.3,28.8,34.4l0,0h12.4C392,157.3,377,139.7,365,125.2C377,109.4,392.5,93.7,404.1,77.9z"/>
	</g>
	<path class="st1" d="M625.1,78.4c-12.9,22.5-25.9,45.1-39.5,68.8c-2.5-3.7-4.5-6.4-6.1-9.2c-10.1-17.3-23.5-41.4-33.8-59.6h-7.9
		c-0.2,0.1-0.5,0.2-0.7,0.3c0,30.8,0,61.7,0,93.6c3.3-0.4,5.9,0.1,9.4-0.3c0-23.4-0.1-74-0.1-74s27,43.5,39.4,64.7
		c2.8-3.1,23.7-40.2,33.2-56.6c1.1-1.9,4.4-7.2,5.6-9.1c0.7,0.2,0,51.1,0,75.5c3.7-0.5,6.2,0.3,8.6,0c0-31.4,0-63,0-94.1
		C630.2,78.4,627.9,78.4,625.1,78.4z"/>
	<path class="st1" d="M879.5,151.4c-0.6,0.2-1.2,0.3-1.8,0.5c-4.5-5.7-9.1-11.4-13.6-17.1c-12.6-16-30.6-39.3-44-56.4h-8.6
		c0,30.3,0,62.5,0,92.9h9.4c0-12.6-0.1-24.6,0-36.5c0.1-12.1,0.2-37.7,0.2-37.7s16.4,19.8,23.6,29c10.4,13.2,24.3,31.4,35,45.2h8.5
		c0.2-0.2,0.4-0.3,0.7-0.5c0-30.7,0-61.3,0-92.4c-3.2,0-5.7,0-9.4,0C879.5,103.1,879.5,127.2,879.5,151.4z"/>
	<path class="st1" d="M989.4,78.3c0,3.9,0,6.5,0,9.2c0,16,0.3,32.1-0.2,48.1c-0.6,20.3-11.2,29.5-31.3,28.3
		c-14.2-0.9-23.3-9.5-24.8-23.6c-0.4-3.7-0.4-7.4-0.4-11.1c0-14.1,0-28.1,0-42.2c0-2.6-0.2-5.3-0.4-8.5c-3.5,0-6.4,0-9.9,0
		c0,5.2,0,9.7,0,14.1c0.1,15.8-0.6,31.6,0.5,47.4c1.3,18.8,12.4,30.2,31.3,32.9c23.1,3.3,42.9-7.8,44.7-32.5
		c1.4-18.7,0.9-42.5,0.7-62.1C999.6,78.3,989.4,78.3,989.4,78.3z"/>
</g>
</svg>
