<?xml version="1.0" encoding="utf-8"?>
<!-- Generator: Adobe Illustrator 26.0.2, SVG Export Plug-In . SVG Version: 6.00 Build 0)  -->
<svg version="1.1" id="Layer_1" xmlns="http://www.w3.org/2000/svg" xmlns:xlink="http://www.w3.org/1999/xlink" x="0px" y="0px"
	 viewBox="0 0 500 126" style="enable-background:new 0 0 500 126;" xml:space="preserve">
<style type="text/css">
	.st0{fill:#5E6677;}
	.st1{fill:#FFFFFF;}
	.st2{fill:#38404A;}
	.st3{fill:url(#SVGID_1_);}
	.st4{opacity:0.3;fill:#FFFFFF;enable-background:new    ;}
</style>
<path class="st0" d="M163.7,113.3c-2.6,0-4.7-2.1-4.7-4.7c0-2.6,2.1-4.6,4.7-4.6c2.6,0,4.7,2,4.7,4.6
	C168.3,111.1,166.2,113.3,163.7,113.3z"/>
<path class="st0" d="M189.8,113.3c-5.9,0-12-1.9-15.1-4.6l-0.6-0.6l3.1-5.5l0.9,0.7c2.4,1.9,7,3.8,12,3.8c5.7,0,8.5-1.5,8.5-4.7
	c0-3-3.4-3.8-8.9-4.7c-6.4-1.1-14.3-2.5-14.3-11c0-6.7,6-11,15.2-11c5,0,10.2,1.4,13.2,3.5l0.8,0.5l-3.1,5.6l-0.9-0.6
	c-2.8-1.8-6.3-2.8-10-2.8c-5.2,0-8.2,1.7-8.2,4.7c0,3.2,3.5,4.1,9.2,5.1c6.2,1.1,13.9,2.5,13.9,10.6c0,3.4-1.5,6.1-4.3,8.1
	C198.4,112.3,194.5,113.3,189.8,113.3z"/>
<path class="st0" d="M212.3,125.9V76h6.7v4.9c3.1-3.4,7.5-5.1,12.7-5.1c5.3,0,10.1,1.8,13.5,5.2c3.5,3.4,5.4,8.2,5.4,13.5
	c0,5.3-1.9,10.2-5.4,13.6c-3.4,3.4-8.2,5.2-13.5,5.2c-5.1,0-9.4-1.7-12.6-5v17.6L212.3,125.9L212.3,125.9z M231.4,81.9
	c-3.4,0-6.6,1.2-8.8,3.5c-2.3,2.3-3.5,5.4-3.5,9.1c0,7.4,5.1,12.5,12.3,12.5c7.2,0,12.3-5.2,12.3-12.5c0-3.6-1.2-6.8-3.5-9.1
	C238,83.1,234.9,81.9,231.4,81.9z"/>
<path class="st0" d="M269.2,113.3c-8.6,0-14.1-4.4-14.1-11.2c0-3.2,1.2-5.9,3.4-7.7c2.5-2.1,6.4-3.2,11.4-3.2h10.3v-1
	c0-5.4-3.1-8.2-9.1-8.2c-4.2,0-8.4,1.4-11.3,3.9l-1,0.8l-3-5.6l0.6-0.5c3.8-3.2,9.2-4.9,15.3-4.9c9.9,0,15.3,5.2,15.3,14.6V113h-6.7
	v-3.6C277.9,111.9,274,113.3,269.2,113.3z M270.2,96.7c-7.3,0-8.1,2.9-8.1,5.1c0,3.5,2.9,5.5,8,5.5h0c0.1,0,0.2,0,0.4,0
	c4.7,0,8.1-2.1,9.9-6.2v-4.5H270.2L270.2,96.7z"/>
<path class="st0" d="M313.7,113c-10.9,0-18.8-7.8-18.8-18.6c0-5.3,2-10.1,5.5-13.5c3.5-3.4,8.4-5.2,13.9-5.2
	c6.5,0,11.8,2.6,14.9,7.3l0.6,0.9l-5.4,3.4l-0.6-0.8c-2-3-5.5-4.7-9.5-4.7c-3.6,0-6.7,1.2-9,3.5c-2.3,2.3-3.5,5.4-3.5,9.1
	c0,3.7,1.2,6.9,3.5,9.1c2.2,2.2,5.4,3.4,8.9,3.4c4.1,0,7.5-1.6,9.5-4.6l0.6-0.8l5.3,3.4l-0.5,0.9c-2.9,4.7-8.3,7.3-14.9,7.3
	C314,113,313.9,113,313.7,113z"/>
<path class="st0" d="M352.1,113.4c-5.6,0-10.7-1.9-14.3-5.3c-3.6-3.4-5.6-8.2-5.6-13.6c0-10.8,7.8-18.7,18.4-18.7
	c10.5,0,18.1,7.7,18.3,18.4c0,0.6,0,2.7,0,2.7h-29.6c1,6.1,6,10.1,12.9,10.1c4.2,0,7.8-1.5,10.2-4.2l0.8-0.9l4,4.6l-0.6,0.7
	C363.2,111.2,358.1,113.4,352.1,113.4z M362.3,91.3c-1-5.7-5.5-9.6-11.5-9.6c-5.9,0-10.4,3.8-11.5,9.6H362.3z"/>
<path class="st1" d="M219.5,56.2V33.8c0-3.5-0.8-6.1-2.4-7.9c-1.6-1.8-3.9-2.7-7-2.7c-3.4,0-6.2,1.1-8.2,3.2c-1.9,2.1-3,5.2-3,8.9
	v20.8h-7.6V33.8c0-7-3.2-10.6-9.4-10.6c-3.4,0-6.2,1.1-8.2,3.2c-1.9,2.1-3,5.2-3,8.9v20.8h-7.6V16.4h7.4v4.3c3-3,7.3-4.6,12.3-4.6
	c6,0,10.7,2.3,13.4,6.6c3.2-4.2,8.5-6.6,14.6-6.6c5,0,8.9,1.4,11.7,4.3c2.9,3,4.5,7.4,4.5,12.9v22.8H219.5L219.5,56.2z"/>
<path class="st1" d="M255.4,56.6c-12.3,0-20.8-8.3-20.8-20.2c0-11.7,8.2-20.1,19.4-20.1c11.3,0,19.3,8.3,19.3,20.1
	c0,0.1,0,0.3,0,0.4c0,0.1,0,0.2,0,0.3v0.1l0,0.1c0,0.2,0,0.4,0,0.7v1.3h-30.9c1.1,6.3,6.1,10.4,13.2,10.4c4.3,0,7.9-1.5,10.4-4.4
	l1-1.1l4.5,5.2l-0.7,0.9C267.2,54.2,261.7,56.6,255.4,56.6z M265.8,32.8c-0.5-2.8-1.8-5.2-3.8-6.9c-2.1-1.9-4.9-2.9-8-2.9
	c-3.1,0-5.8,1-7.9,2.9c-2,1.7-3.2,4.1-3.7,6.9H265.8z"/>
<path class="st1" d="M337.3,56.2V33.8c0-3.5-0.8-6.1-2.4-7.9c-1.6-1.8-3.9-2.7-7-2.7c-3.4,0-6.2,1.1-8.2,3.2c-1.9,2.1-3,5.2-3,8.9
	v20.8h-7.6V33.8c0-7-3.2-10.6-9.4-10.6c-3.4,0-6.2,1.1-8.2,3.2c-1.9,2.1-3,5.2-3,8.9v20.8H281V16.4h7.4v4.3c3-3,7.3-4.6,12.3-4.6
	c6,0,10.7,2.3,13.4,6.6c3.2-4.2,8.5-6.6,14.6-6.6c5,0,8.9,1.4,11.7,4.3c2.9,3,4.5,7.4,4.5,12.9v22.8L337.3,56.2L337.3,56.2z"/>
<path class="st1" d="M354.3,69.9V16.4h7.4v4.9c3.3-3.4,7.8-5.2,13.1-5.2c11.5,0,19.8,8.5,19.8,20.1c0,11.7-8.3,20.2-19.8,20.2
	c-5.2,0-9.6-1.7-12.8-5v18.3L354.3,69.9L354.3,69.9z M374.4,23.1c-7.4,0-12.6,5.4-12.6,13.2c0,7.8,5.2,13.2,12.6,13.2
	c7.4,0,12.6-5.4,12.6-13.2C387,28.7,381.7,23.1,374.4,23.1z"/>
<path class="st1" d="M420.3,56.6c-11.7,0-20.2-8.5-20.2-20.2c0-11.7,8.5-20.1,20.2-20.1c5.7,0,10.8,2,14.5,5.7
	c3.7,3.7,5.7,8.8,5.6,14.4C440.4,48.1,432,56.6,420.3,56.6z M420.3,23.1c-7.4,0-12.6,5.4-12.6,13.2c0,7.8,5.2,13.2,12.6,13.2
	c7.3,0,12.5-5.4,12.5-13.2C432.8,28.5,427.7,23.1,420.3,23.1z"/>
<path class="st1" d="M464.6,56.6c-11.7,0-20.2-8.5-20.2-20.2c0-11.7,8.5-20.1,20.2-20.1c11.7,0,20.1,8.5,20.1,20.1
	C484.7,48.1,476.3,56.6,464.6,56.6z M464.6,23.1c-7.4,0-12.6,5.4-12.6,13.2c0,7.8,5.2,13.2,12.6,13.2c7.3,0,12.5-5.4,12.5-13.2
	C477.1,28.5,472,23.1,464.6,23.1z"/>
<path class="st1" d="M500,1.1h-7.6v55h7.6V1.1z"/>
<path class="st2" d="M124.7,110.2c0,8.6-6.9,15.5-15.5,15.5H15.5c-8.6,0-15.5-6.9-15.5-15.5V16.5C0,7.9,7,0.9,15.5,0.9h93.7
	c8.6,0,15.5,6.9,15.5,15.5V110.2z"/>
<linearGradient id="SVGID_1_" gradientUnits="userSpaceOnUse" x1="62.379" y1="91.6051" x2="62.379" y2="-28.837" gradientTransform="matrix(1 0 0 -1 0 128)">
	<stop  offset="0" style="stop-color:#5E6677"/>
	<stop  offset="1" style="stop-color:#838C9B"/>
</linearGradient>
<path class="st3" d="M0,63.5v46.7c0,8.6,7,15.5,15.6,15.5h93.6c8.6,0,15.6-6.9,15.6-15.5V63.5H0z"/>
<path class="st4" d="M109.9,109.1c0,1.9-1.3,3.5-2.9,3.5H90.9c-1.6,0-2.9-1.6-2.9-3.5V17.6c0-1.9,1.3-3.5,2.9-3.5H107
	c1.6,0,2.9,1.6,2.9,3.5V109.1z"/>
</svg>
