<?xml version="1.0" encoding="utf-8"?>
<!-- Generator: Adobe Illustrator 25.4.2, SVG Export Plug-In . SVG Version: 6.00 Build 0)  -->
<svg version="1.1" id="Layer_1" xmlns="http://www.w3.org/2000/svg" xmlns:xlink="http://www.w3.org/1999/xlink" x="0px" y="0px"
	 viewBox="0 0 839 212" style="enable-background:new 0 0 839 212;" xml:space="preserve">
<style type="text/css">
	.st0{fill:none;}
	.st1{fill:#5E6677;}
	.st2{fill:#38404A;}
	.st3{fill:#737C8C;}
	.st4{fill:#838C9B;}
	.st5{fill:#FFFFFF;}
	.st6{fill-opacity:0.2;}
</style>
<path class="st0" d="M0,0h785v212H0V0z"/>
<circle class="st1" cx="63.9" cy="64.8" r="63.9"/>
<circle class="st2" cx="159.2" cy="163.1" r="48.7"/>
<circle class="st3" cx="182.5" cy="60.4" r="42.2"/>
<circle class="st4" cx="63.9" cy="173.3" r="31.2"/>
<path class="st5" d="M353.3,109.2c0,6.9-1.1,13.9-3.4,20.4c-2.2,6.2-5.6,11.9-9.9,16.7c-4.5,4.9-9.9,8.8-16,11.4
	c-14,5.6-29.6,5.6-43.5,0c-6.1-2.6-11.6-6.5-16.1-11.4c-4.4-4.8-7.8-10.5-9.9-16.7c-4.5-13.2-4.5-27.5,0-40.7
	c2.1-6.2,5.5-11.9,9.9-16.8c4.5-4.9,10-8.8,16.1-11.4c14-5.6,29.6-5.6,43.5,0c6.1,2.6,11.6,6.5,16,11.4s7.8,10.6,9.9,16.8
	C352.2,95.5,353.4,102.3,353.3,109.2z M302.2,145.1c4.5,0.1,9-0.9,13.1-2.8c3.6-1.8,6.8-4.4,9.3-7.6c2.6-3.4,4.5-7.3,5.6-11.4
	c2.4-9.3,2.4-19.1,0-28.4c-1.1-4.1-3-8-5.6-11.4c-2.5-3.2-5.7-5.8-9.3-7.6c-8.3-3.7-17.8-3.7-26.1,0c-3.6,1.8-6.8,4.4-9.3,7.6
	c-2.6,3.4-4.5,7.3-5.6,11.4c-2.4,9.3-2.4,19.1,0,28.4c1.1,4.1,3,8,5.6,11.4c2.5,3.2,5.7,5.8,9.3,7.6
	C293.2,144.3,297.7,145.2,302.2,145.1z M366.8,160.1V58.4h21.4v48.9l35.3-48.9h24.8l-37.4,50.3l40,51.5h-26.5l-36.2-50v50h-21.4
	L366.8,160.1z M503.6,56.5c2.5,0,5.1,0.1,7.8,0.4c2.6,0.3,5.2,0.6,7.7,1.1s4.9,1,7.2,1.7c2.1,0.6,4.2,1.4,6.2,2.3l-3.1,15.6
	c-3.5-1.3-7.2-2.3-10.9-3c-3.9-0.8-7.8-1.2-11.8-1.2c-11.6,0-20.5,3-26.7,9.1c-6.2,6-9.2,14.9-9.2,26.7s3.1,20.7,9.2,26.7
	c6.2,6,15.1,9.1,26.7,9.1c3.9,0,7.9-0.4,11.8-1.1c3.7-0.7,7.3-1.7,10.9-3l3.1,15.6c-2,1-4.1,1.8-6.2,2.3c-2.3,0.7-4.7,1.2-7.2,1.7
	s-5.1,0.8-7.7,1.1c-2.6,0.2-5.2,0.4-7.8,0.4c-7.9,0.1-15.8-1.2-23.2-4c-6.4-2.4-12.2-6.2-17-11c-4.6-4.7-8.2-10.4-10.4-16.7
	c-2.4-6.8-3.6-13.9-3.5-21.1c-0.1-7.2,1.1-14.3,3.5-21.1c2.2-6.2,5.8-11.9,10.4-16.7c4.8-4.8,10.6-8.6,17-11
	C487.8,57.7,495.6,56.4,503.6,56.5L503.6,56.5z M641.7,109.2c0,6.9-1.1,13.9-3.4,20.4c-2.2,6.2-5.6,11.9-9.9,16.7
	c-4.5,4.9-9.9,8.8-16,11.4c-14,5.6-29.6,5.6-43.5,0c-6.1-2.6-11.6-6.5-16.1-11.4c-4.4-4.8-7.8-10.5-9.9-16.7
	c-4.5-13.2-4.5-27.5,0-40.7c2.1-6.2,5.5-11.9,9.9-16.8c4.5-4.9,10-8.8,16.1-11.4c14-5.6,29.6-5.6,43.5,0c6.1,2.6,11.6,6.5,16,11.4
	s7.8,10.6,9.9,16.8C640.6,95.5,641.7,102.3,641.7,109.2z M590.5,145.1c4.5,0.1,9-0.9,13.1-2.8c3.6-1.8,6.8-4.4,9.3-7.6
	c2.6-3.4,4.5-7.3,5.6-11.4c2.4-9.3,2.4-19.1,0-28.4c-1.1-4.1-3-8-5.6-11.4c-2.5-3.2-5.7-5.8-9.3-7.6c-8.3-3.7-17.8-3.7-26.1,0
	c-3.6,1.8-6.8,4.4-9.3,7.6c-2.6,3.4-4.5,7.3-5.6,11.4c-2.4,9.3-2.4,19.1,0,28.4c1.1,4.1,3,8,5.6,11.3c2.5,3.2,5.7,5.8,9.3,7.6
	C581.5,144.3,586,145.2,590.5,145.1L590.5,145.1z M677.3,160.1h-21.4V58.4h21.4V160.1z M764.4,160.1l-47.5-66.6v66.6h-20.5V58.4
	h20.5l47.5,66.6V58.4h20.5v101.8h-20.5V160.1z"/>
<path class="st6" d="M835,46h4v120h-4V46z"/>
</svg>
