<?xml version="1.0" encoding="utf-8"?>
<!-- Generator: Adobe Illustrator 25.4.2, SVG Export Plug-In . SVG Version: 6.00 Build 0)  -->
<svg version="1.1" id="Layer_1" xmlns="http://www.w3.org/2000/svg" xmlns:xlink="http://www.w3.org/1999/xlink" x="0px" y="0px"
	 viewBox="0 0 1582.1 639.9" style="enable-background:new 0 0 1582.1 639.9;" xml:space="preserve">
<style type="text/css">
	.st0{fill:#FFFFFF;}
	.st1{fill:#838C9B;}
	.st2{fill:#5E6677;}
	.st3{fill:#38404A;}
</style>
<g>
	<g>
		<path class="st0" d="M61.3,546.5c6.2,2.7,10.9,6.7,14.2,11.8c3.3,5.1,4.9,11.2,4.9,18.3c0,7-1.6,13-4.9,18.2s-8,9.1-14.2,11.9
			c-6.2,2.7-13.4,4.1-21.8,4.1H17.8v27.7H0v-96.1h39.5C47.9,542.4,55.1,543.8,61.3,546.5z M56.4,590.7c4-3.3,6-8,6-14.1
			s-2-10.8-6-14.1c-4-3.3-9.9-4.9-17.7-4.9H17.8v38.2h20.9C46.5,595.6,52.4,594,56.4,590.7z"/>
		<path class="st0" d="M194.3,616.2h-48l-9.5,22.2h-18.4l43.2-96.1h17.6l43.4,96.1h-18.7L194.3,616.2z M188.3,602.2l-18.1-42l-18,42
			H188.3z"/>
		<path class="st0" d="M336.1,638.5l-19.6-28.1c-0.8,0.1-2.1,0.1-3.7,0.1h-21.7v28h-17.8v-96.1h39.5c8.3,0,15.6,1.4,21.8,4.1
			s10.9,6.7,14.2,11.8c3.3,5.1,4.9,11.2,4.9,18.3c0,7.2-1.8,13.4-5.3,18.7c-3.5,5.2-8.6,9.1-15.2,11.7l22.1,31.6L336.1,638.5
			L336.1,638.5z M329.6,562.4c-4-3.3-9.9-4.9-17.7-4.9H291v38.3h20.9c7.8,0,13.7-1.7,17.7-5s6-8.1,6-14.2
			C335.6,570.4,333.6,565.7,329.6,562.4z"/>
		<path class="st0" d="M474.3,616.2h-48l-9.5,22.2h-18.4l43.2-96.1h17.6l43.4,96.1h-18.7L474.3,616.2z M468.4,602.2l-18.1-42l-18,42
			H468.4z"/>
		<path class="st0" d="M553.2,542.4h42c10.2,0,19.4,2,27.3,6c8,4,14.1,9.6,18.5,16.9s6.6,15.7,6.6,25.2s-2.2,17.9-6.6,25.2
			c-4.4,7.3-10.6,12.9-18.5,16.9c-8,4-17.1,6-27.3,6h-42V542.4z M594.4,623.4c7,0,13.2-1.3,18.6-4.1c5.4-2.7,9.5-6.5,12.4-11.5
			s4.3-10.8,4.3-17.4s-1.4-12.4-4.3-17.4c-2.9-5-7-8.8-12.4-11.5s-11.6-4-18.6-4h-23.3v65.9H594.4z"/>
		<path class="st0" d="M723.4,633.5c-7.9-4.3-14-10.2-18.5-17.7c-4.5-7.6-6.7-16-6.7-25.3s2.2-17.8,6.7-25.3s10.7-13.5,18.5-17.7
			c7.9-4.3,16.7-6.4,26.5-6.4s18.6,2.1,26.5,6.4s14,10.1,18.5,17.6s6.7,16,6.7,25.4s-2.2,17.9-6.7,25.4s-10.7,13.4-18.5,17.6
			c-7.9,4.3-16.7,6.4-26.5,6.4C740.1,639.8,731.3,637.7,723.4,633.5z M767.2,619.9c5.1-2.9,9.2-6.9,12.1-12.1s4.4-11,4.4-17.4
			s-1.5-12.2-4.4-17.4c-2.9-5.2-7-9.2-12.1-12.1s-10.9-4.3-17.3-4.3c-6.4,0-12.2,1.4-17.3,4.3s-9.2,6.9-12.1,12.1
			c-2.9,5.2-4.4,11-4.4,17.4s1.5,12.2,4.4,17.4c2.9,5.2,7,9.2,12.1,12.1s10.9,4.3,17.3,4.3C756.3,624.2,762.1,622.8,767.2,619.9z"/>
		<path class="st0" d="M916.2,638.5L890.1,602l-25.8,36.5H844l35.7-49l-33.8-47.1h20.2l24.6,34.2l24.3-34.2h19.4l-33.6,46.4
			l36.1,49.7H916.2z"/>
		<path class="st0" d="M1083.3,557.3v29.2h46.4v15.1h-46.4v36.8h-17.8v-96.1h70.1v15H1083.3z"/>
		<path class="st0" d="M1201.7,628.7c-7.4-7.5-11.1-18.1-11.1-32.1v-54.2h17.8v53.5c0,18.8,8.1,28.3,24.4,28.3
			c16.2,0,24.3-9.4,24.3-28.3v-53.5h17.6v54.2c0,13.9-3.7,24.6-11,32.1c-7.4,7.5-17.7,11.2-31,11.2
			C1219.4,639.8,1209.1,636.1,1201.7,628.7z"/>
		<path class="st0" d="M1423.5,542.4v96.1h-14.7l-53-65.1v65.1h-17.7v-96.1h14.7l53,65.1v-65.1H1423.5z"/>
		<path class="st0" d="M1487.7,542.4h42c10.3,0,19.4,2,27.3,6c8,4,14.1,9.6,18.5,16.9s6.6,15.7,6.6,25.2s-2.2,17.9-6.6,25.2
			c-4.4,7.3-10.6,12.9-18.5,16.9c-8,4-17.1,6-27.3,6h-42V542.4z M1528.9,623.4c7,0,13.2-1.3,18.6-4.1c5.4-2.7,9.5-6.5,12.4-11.5
			s4.3-10.8,4.3-17.4s-1.4-12.4-4.3-17.4s-7-8.8-12.4-11.5s-11.6-4-18.6-4h-23.3v65.9H1528.9z"/>
	</g>
	<g>
		<polygon class="st1" points="692.5,368.3 573.3,451.3 573.3,83 692.5,0 		"/>
		<polygon class="st2" points="853.1,368.3 734,451.3 734,83 853.1,0 		"/>
		<polygon class="st3" points="1013.8,368.3 894.7,451.3 894.7,83 1013.8,0 		"/>
	</g>
</g>
</svg>
