<?xml version="1.0" encoding="utf-8"?>
<!-- Generator: Adobe Illustrator 25.4.2, SVG Export Plug-In . SVG Version: 6.00 Build 0)  -->
<svg version="1.1" id="Layer_1" xmlns="http://www.w3.org/2000/svg" xmlns:xlink="http://www.w3.org/1999/xlink" x="0px" y="0px"
	 viewBox="0 0 226.3 112.5" style="enable-background:new 0 0 226.3 112.5;" xml:space="preserve">
<style type="text/css">
	.st0{fill:#38404A;}
	.st1{fill:#FFFFFF;}
	.st2{fill:#838C9B;}
	.st3{fill:#5E6677;}
</style>
<g>
	<polygon class="st0" points="226.2,71 226.2,70.2 226.2,53 221.9,53 221.9,48.7 23.7,48.7 12.4,48.7 4.3,48.7 4.3,53 0,53 0,70.2 
		0,72.2 0,73.6 0,76.6 0.1,76.6 0.1,88.2 0.1,90.2 0.1,91.6 0.1,94.7 4.4,94.7 4.4,99 9.4,99 12.5,99 16.2,99 20.1,99 23.8,99 
		217,99 222,99 222,94.7 226.3,94.7 226.3,91.6 226.3,90.2 226.3,88.2 226.3,71 	"/>
	<g>
		<path class="st1" d="M59.3,87.6v-3.9h-2.9v3.9H43.8v-3.9h-3.9V63.3h3.9v-3.9h20.4v8.7H48.7v10.7h6.8v-2.9h-3.9v-4.8h12.6v16.5
			H59.3z"/>
		<path class="st1" d="M87,87.6v-3.9h-2.9v3.9H71.5v-3.9h-3.9V75h3.9v-3.9h11.6v-2.9l-11.6,0v-8.7H88v3.9h3.9v24.3H87z M83.1,75.9
			h-6.8v2.9h6.8V75.9z"/>
		<path class="st1" d="M126.3,87.6V68.2h-6.8v19.4h-8.7V68.2H104v19.4h-8.7V59.5h4.9v3.9h2.9v-3.9h12.6v3.9h2.9v-3.9h12.6v3.9h3.9
			v24.3H126.3z"/>
		<path class="st1" d="M142.3,87.6v-3.9h-3.9V63.3h3.9v-3.9h16.5v3.9h3.9v12.6h-15.5v2.9h15.5v8.7H142.3z M153.9,68.2l-6.8,0v2.9
			h6.8V68.2z"/>
		<path class="st1" d="M182.6,83.7v3.9h-16.5v-8.7h11.7v-2.9H170v-3.9h-3.9v-8.7h3.9v-3.9h16.5v8.7h-11.7v2.9h7.8V75h3.9v8.7
			C186.5,83.7,182.6,83.7,182.6,83.7z"/>
	</g>
	<polygon class="st2" points="32.3,69.6 24.3,69.6 24.3,66.9 27,66.9 27,61.5 29.7,61.5 29.7,53.3 27,53.3 27,56 24.3,56 24.3,58.7 
		21.7,58.7 21.7,61.5 19,61.5 19,64.2 16.3,64.2 16.3,66.9 13.7,66.9 13.7,69.6 11,69.6 11,72.4 8.4,72.4 8.4,77.8 19,77.8 19,80.5 
		16.3,80.5 16.3,86 13.7,86 13.7,94.1 16.3,94.1 16.3,91.4 19,91.4 19,88.7 21.7,88.7 21.7,86 24.3,86 24.3,83.2 27,83.2 27,80.5 
		29.6,80.5 29.6,77.8 32.3,77.8 32.3,75.1 35,75.1 35,69.6 	"/>
	<polygon class="st2" points="215.4,69.6 207.4,69.6 207.4,66.9 210.1,66.9 210.1,61.5 212.8,61.5 212.8,53.3 210.1,53.3 210.1,56 
		207.4,56 207.4,58.7 204.8,58.7 204.8,61.5 202.1,61.5 202.1,64.2 199.5,64.2 199.5,66.9 196.8,66.9 196.8,69.6 194.1,69.6 
		194.1,72.4 191.5,72.4 191.5,77.8 202.1,77.8 202.1,80.5 199.5,80.5 199.5,86 196.8,86 196.8,94.1 199.5,94.1 199.5,91.4 
		202.1,91.4 202.1,88.7 204.8,88.7 204.8,86 207.4,86 207.4,83.2 210.1,83.2 210.1,80.5 212.8,80.5 212.8,77.8 215.4,77.8 
		215.4,75.1 218.1,75.1 218.1,69.6 	"/>
	<g>
		<path class="st3" d="M19.5,36.6v4.3H0.1V30.2H13V28H4.4v-4.3H0.1V12.9h4.3V8.6h19.4v10.7H10.9v2.1h8.6v4.3h4.3v10.8H19.5z"/>
		<path class="st3" d="M48,40.9v-4.3h-2.1v4.3H30.8v-4.3h-4.3V25.8h4.3v-4.3h12.9v-2.1H30.8V8.6h19.4v4.3h4.3v28L48,40.9L48,40.9z
			 M43.7,28h-6.4v2.2h6.4V28z"/>
		<path class="st3" d="M65.8,40.9v-4.3h-4.3V19.4h-4.3V8.6h4.3V4.3h4.3V0h6.5v8.6h8.6v10.7h-8.6v10.8h8.6v10.7H65.8z"/>
		<path class="st3" d="M107.3,36.6v4.3H87.9v-4.3h-4.3V12.9h4.3V8.6h19.4v4.3h4.3v23.7L107.3,36.6L107.3,36.6z M100.8,19.4h-6.4
			v10.8h6.4V19.4z"/>
		<path class="st3" d="M133.7,36.6v4.3h-19.4V30.2h12.9V28h-8.6v-4.3h-4.3V12.9h4.3V8.6h19.4v10.7h-12.9v2.1h8.6v4.3h4.3v10.8H133.7
			z"/>
		<path class="st3" d="M157.9,40.9V19.4h-6.4v21.5h-10.8V0h10.8v8.6h12.9v4.3h4.3v28L157.9,40.9L157.9,40.9z"/>
		<path class="st3" d="M222,36.6v4.3h-19.4V30.2h12.9V28h-8.6v-4.3h-4.3V12.9h4.3V8.6h19.4v10.7h-12.9v2.1h8.6v4.3h4.3v10.8H222z"/>
		<g>
			<polygon class="st3" points="182.1,8.6 171.4,8.6 171.4,40.9 182.1,40.9 182.1,17.9 182.1,15.8 			"/>
			<rect x="171.4" class="st3" width="10.8" height="6.4"/>
			<polygon class="st3" points="189.2,0 189.2,12.9 184.9,12.9 184.9,15.8 184.9,17.9 184.9,19.3 195.6,19.3 195.6,15 199.9,15 
				199.9,0 			"/>
		</g>
	</g>
	<g>
		<path class="st0" d="M0,112.8v-7.4h5.3v2.1H2.1v1.1h3.2v1.1H2.1v1.1h3.2v2.1L0,112.8L0,112.8z"/>
		<path class="st0" d="M12.6,112.8v-2.1h-2.1v2.1H8.3v-5.3h1.1v-1h1.1v-1.1h2.1v1.1h1.1v1.1l1.1,0v5.3H12.6z M12.6,107.5h-2.1v2.1
			h2.1V107.5z"/>
		<path class="st0" d="M20.9,112.8v-2.1h-1.1v2.1h-2.1v-7.4H22v1.1H23v3.2H22v1.1H23v2.1H20.9z M20.9,107.5h-1.1v2.1h1.1V107.5z"/>
		<path class="st0" d="M31.3,112.8v-1.1h-1.1v-1.1h-1.1v-1.1h-1.1v3.2h-2.1v-7.4h1.1v1.1h1.1v1h1.1v1.1h1.1v-3.2h2.1v7.4H31.3z"/>
		<path class="st0" d="M44.4,111.8v1.1h-5.3v-7.4h5.3v1.1h1.1v2.1h-1.1v1.1h1.1v2.1L44.4,111.8L44.4,111.8z M43.3,107.5h-2.1v1.1
			h2.1V107.5z M43.3,109.7h-2.1v1.1h2.1V109.7z"/>
		<path class="st0" d="M48.5,112.8v-7.4h2.1v7.4H48.5z"/>
		<path class="st0" d="M57.4,107.6v5.3h-2.1v-5.3h-1.6v-2.1H59v2.1H57.4z"/>
		<path class="st0" d="M63.1,112.8v-1.1H62v-5.3h1.1v-1.1h4.2v2.1h-3.2v3.2h3.2v2.1L63.1,112.8L63.1,112.8z"/>
		<path class="st0" d="M75.6,111.8v1.1h-4.2v-1.1h-1.1v-5.3h1.1v-1.1h4.2v1.1h1.1v5.3H75.6z M74.6,107.5h-2.1v3.2h2.1V107.5z"/>
		<path class="st0" d="M79.8,112.8v-7.4h2.1v7.4H79.8z"/>
		<path class="st0" d="M90.2,112.8v-1.1h-1.1v-1.1h-1.1v-1.1H87v3.2h-2.1v-7.4H86v1.1H87v1h1.1v1.1h1.1v-3.2h2.1v7.4H90.2z"/>
		<path class="st0" d="M103.2,111.8v1.1H98v-7.4h5.3v1.1h1.1v2.1h-1.1v1.1h1.1v2.1L103.2,111.8L103.2,111.8z M102.2,107.5h-2.1v1.1
			h2.1V107.5z M102.2,109.7h-2.1v1.1h2.1V109.7z"/>
		<path class="st0" d="M112.6,108.6v1.1h-1.1v3.2h-2.1v-3.2h-1.1v-1.1h-1.1v-3.2h2.1v3.2h2.1v-3.2h2.1v3.2H112.6z"/>
		<path class="st0" d="M124.6,109.7v1.1h-2.1v2.1h-2.1v-7.4h4.2v1.1h1.1v3.2H124.6z M123.6,107.5h-1.1v1.1h1.1V107.5z"/>
		<path class="st0" d="M128.7,112.8v-7.4h2.1v5.3h2.1v2.1H128.7z"/>
		<path class="st0" d="M140.3,112.8v-2.1h-2.1v2.1H136v-5.3h1.1v-1h1.1v-1.1h2.1v1.1h1.1v1.1l1.1,0v5.3H140.3z M140.3,107.5h-2.1
			v2.1h2.1L140.3,107.5L140.3,107.5z"/>
		<path class="st0" d="M150.7,108.6v1.1h-1.1v3.2h-2.1v-3.2h-1.1v-1.1h-1.1v-3.2h2.1v3.2h2.1v-3.2h2.1v3.2H150.7z"/>
		<path class="st0" d="M154.8,112.8v-7.4h2.1v7.4H154.8z"/>
		<path class="st0" d="M165.3,112.8v-1.1h-1.1v-1.1h-1.1v-1.1h-1.1v3.2H160v-7.4h1.1v1.1h1.1v1h1.1v1.1h1.1v-3.2h2.1v7.4H165.3z"/>
		<path class="st0" d="M174.7,112.8v-1.1h-1.1v1.1h-3.2v-1.1h-1.1v-5.3h1.1v-1.1h5.3v2.1h-4.2v3.2h2.1v-1.1h-1.1v-1.1h3.2v4.2
			L174.7,112.8L174.7,112.8z"/>
		<path class="st0" d="M187.7,112.8v-1.1h-1.1v1.1h-3.2v-1.1h-1.1v-5.3h1.1v-1.1h5.3v2.1h-4.2v3.2h2.1v-1.1h-1.1v-1.1h3.2v4.2
			L187.7,112.8L187.7,112.8z"/>
		<path class="st0" d="M196,112.8v-2.1h-2.1v2.1h-2.1v-5.3h1.1v-1h1.1v-1.1h2.1v1.1h1.1v1.1l1.1,0v5.3H196z M196,107.5h-2.1v2.1h2.1
			V107.5z"/>
		<path class="st0" d="M207.6,112.8v-3.2h-1.1v3.2h-2.1v-3.2h-1.1v3.2h-2.1v-7.4h1.1v1.1h1.1v1h1.1v1.1h2.1v-1.1h1.1v-1h1.1v-1.1
			h1.1v7.4H207.6z"/>
		<path class="st0" d="M212.7,112.8v-7.4h5.3v2.1h-3.2v1.1h3.2v1.1h-3.2v1.1h3.2v2.1L212.7,112.8L212.7,112.8z"/>
		<path class="st0" d="M225.3,111.8v1.1h-4.2v-2.1h3.2v-1.1h-2.1v-1.1h-1.1v-2.1h1.1v-1.1h4.2v2.1h-3.2v1h2.1v1.1h1.1v2.1
			L225.3,111.8L225.3,111.8z"/>
	</g>
</g>
</svg>
