<?xml version="1.0" encoding="utf-8"?>
<!-- Generator: Adobe Illustrator 26.0.2, SVG Export Plug-In . SVG Version: 6.00 Build 0)  -->
<svg version="1.1" id="svg38772" xmlns:svg="http://www.w3.org/2000/svg"
	 xmlns="http://www.w3.org/2000/svg" xmlns:xlink="http://www.w3.org/1999/xlink" x="0px" y="0px" viewBox="0 0 484 252.2"
	 style="enable-background:new 0 0 484 252.2;" xml:space="preserve">
<style type="text/css">
	.st0{fill:#5E6677;}
	.st1{fill:#FFFFFF;}
</style>
<path id="path36626" class="st0" d="M358.2,23.1l22.2,26.7l22.2-26.7c9.6-11.4,24-18.7,40.2-18.7h36v26.2h-36
	c-8.1,0-15.3,3.6-20,9.5l-25.3,30l25.3,30.1c4.8,5.7,11.9,9.4,20,9.4h36v26.2h-36c-16.1,0-30.5-7.3-40.2-18.7l-22.2-26.7l-22.2,26.7
	c-9.6,11.4-24,18.7-40.2,18.7h-36v-26.2h36c8.1,0,15.3-3.6,20-9.4l25.3-30.1l-25.3-30c-4.8-5.9-11.9-9.5-20-9.5h-36V4.4h36
	C334.2,4.4,348.5,11.6,358.2,23.1z M228.2,135.8h27.5V4.4h-27.5V135.8z M125.7,23.1c9.6-11.4,24.2-18.7,40.2-18.7H202v26.2h-36.1
	c-8.1,0-15.3,3.6-20,9.5l-64.3,77c-9.8,11.4-24.2,18.7-40.2,18.7H5.2v-26.2h36.1c7.9,0,15.3-3.6,20-9.4L125.7,23.1z"/>
<path id="path36628" class="st1" d="M472.2,203.4h-14.5c0-1.9,0.2-3.3,0.3-5.1c0.5-4.5,2.3-7.8,7.2-7.8c4.8,0,6.5,3.7,6.8,7.8
	C472.2,200,472.2,201.6,472.2,203.4L472.2,203.4z M478.7,207.7L478.7,207.7v-1.9c0-9.6-0.3-19.9-13.4-19.9c-13.4,0-14,12-14,22.7
	c0,10.5,1.5,19.3,13.6,19.3c9.7,0,13.2-5.3,13.4-13.6H472c0,4.8-1,8.9-7.1,8.9c-6.7,0-7.2-6.1-7.2-12.8v-2.7H478.7z M435.2,205.6
	L435.2,205.6c0,6.1,0.2,16.4-8,16.4c-6.8,0-6.9-8.1-6.9-14.8c0-7.2,0-16.6,7.4-16.6C434.9,190.6,435.2,198.9,435.2,205.6z
	 M441.8,186.8L441.8,186.8h-6.4v4.8c-2-4-4.6-5.7-9.5-5.7c-10.9,0-12.2,11.2-12.2,21.4c0,8.9,1,19.1,12.2,19.1
	c4.1,0,6.7-1.1,9.2-4.8v5.7c0,6.4-0.9,11-7.6,11c-4.6,0-6.1-3-6.1-7.3h-6.6c0,8.1,4.3,11.6,12.4,11.6c9.9,0,14.5-4.1,14.5-14v-35.1
	C441.7,191.1,441.8,188.9,441.8,186.8L441.8,186.8z M403.9,226.8L403.9,226.8v-28.6c0-7.5-2.6-12.4-10.5-12.4c-5.1,0-8.8,3-10.5,6.5
	v-5.6h-6.1c0.2,2.9,0.3,5.9,0.3,8.8v31.3h6.1v-24.1c0-5.4,2.3-12.1,8-12.1c6.4,0,6.4,5.7,6.4,10.7v25.5L403.9,226.8L403.9,226.8z
	 M359.7,211.2L359.7,211.2c0,5.3-1.6,11.8-8.2,11.8c-4.4,0-6.1-3.8-6.1-7.8c0-7.5,6.4-8.6,12.6-8.6h1.6
	C359.7,206.6,359.7,211.2,359.7,211.2z M366.3,226.8L366.3,226.8c-0.3-4.3-0.3-8.5-0.3-12.8v-14.8c0-8.9-2.6-13.4-12.2-13.4
	c-7.2,0-13.2,2.9-13.2,10.5v0.5h6.1v-0.5c0-3.8,3.1-5.9,6.7-5.9c6.3,0,6.3,5.3,6.3,9.9v1.9c-10.2,0-20.5,0.8-20.5,13.6
	c0,6.5,3.1,11.8,10.2,11.8c4.9,0,7.9-1.9,10.7-6.1v5.3H366.3L366.3,226.8z M330.1,226.8L330.1,226.8v-28.4c0-7.3-2.4-12.6-10.5-12.6
	c-4.6,0-7.6,2.1-10.1,5.6v-22h-6.3v57.4h6.3v-24.4c0-6.5,1.8-11.8,8.1-11.8c6.2,0,6.1,6.1,6.1,10.7v25.5L330.1,226.8L330.1,226.8z
	 M294.9,214.6L294.9,214.6h-6.3c-0.2,4.5-0.9,8.6-6.3,8.6c-5.9,0-7.2-4.8-7.2-16.4c0-7.5-0.2-16.3,7.4-16.3c5.3,0,6.1,3.8,6.1,8.5
	h6.3c0-8.9-2.8-13.1-12.4-13.1c-13.2,0-14,11-14,21.7c0,12,1.3,20.3,13.8,20.3C292.4,227.8,294.9,221.6,294.9,214.6z M263.6,226.8
	L263.6,226.8l-11.3-21.2l10.1-18.8h-6.5l-6.8,14.5l-6.3-14.5h-7.4l9.7,18.8L234,226.8h6.8l7.9-16.7l7.6,16.7H263.6z M229.3,226.8
	L229.3,226.8v-5.4H209v-21.5h18.8v-5.3H209v-19.8h19.8v-5.4h-26.5v57.4L229.3,226.8L229.3,226.8z M173.6,216L173.6,216
	c0-6.7-4.4-9.4-9.5-12c-4.4-2.6-8-4.1-8-8.3c0-3.2,2.3-5.4,5.4-5.4c3.8,0,5.1,2.1,5.5,4.9c0,0.8,0.1,1.6,0.1,2.6h6.3
	c0-1.1,0-2.2-0.1-3.2c-1-6.1-4.6-8.8-11.4-8.8c-6.7,0-12,3.3-12,10.4c0,7,4.7,9.1,10.2,12.1c4.6,2.4,7.2,3.7,7.2,8.6
	c0,4-2,6.2-5.9,6.2c-4.1,0-5.6-2.6-6.1-6.2c0-0.8,0-1.6,0-2.2H149c0,1,0,2.1,0.2,2.7c0.5,6.9,4.4,10.2,12,10.2
	S173.6,223.8,173.6,216L173.6,216z M142.3,216L142.3,216c0-6.7-4.6-9.4-9.5-12c-4.6-2.6-7.9-4.1-7.9-8.3c0-3.2,2-5.4,5.3-5.4
	c4,0,5.3,2.1,5.6,4.9c0,0.8,0.2,1.6,0.2,2.6h6.3c0-1.1,0-2.2-0.3-3.2c-0.9-6.1-4.5-8.8-11.4-8.8c-6.7,0-11.8,3.3-11.8,10.4
	c0,7,4.7,9.1,10.1,12.1c4.5,2.4,7.1,3.7,7.1,8.6c0,4-2.2,6.2-5.9,6.2c-4.1,0-5.5-2.6-5.9-6.2c-0.2-0.8-0.2-1.6-0.2-2.2h-6.1
	c0,1,0,2.1,0,2.7c0.5,6.9,4.6,10.2,11.9,10.2C137.4,227.6,142.3,223.8,142.3,216L142.3,216z M108.8,186.8L108.8,186.8h-6.3v40h6.3
	V186.8z M109.2,170.2L109.2,170.2h-6.9v6.9h6.9C109.2,177.1,109.2,170.2,109.2,170.2z M95.1,186.8L95.1,186.8h-6.3l-7.2,34.1
	l-7.9-34.1h-7.4l-7.6,34.1l-7.6-34.1h-6.7l10.2,40H62l7.7-33.2l7.8,33.2h7.6L95.1,186.8L95.1,186.8z M40.2,212.8L40.2,212.8
	c0-10.4-5.5-12.8-12.2-17.1c-5.8-3.8-11.9-5.9-11.9-13.4c0-5.4,3.3-8.6,8.4-8.6c6.8,0,8.4,3.5,8.4,8.9v1.4h6.7v-1.9
	c0-9.7-5.3-13.9-14.8-13.9c-9,0-15.6,4.6-15.6,14.4c0,10,6.3,13.2,14,18.2c5.3,3.2,10.1,5.4,10.1,12.4c0,5.7-2.6,9.3-8.9,9.3
	c-7.4,0-8.9-4.8-8.9-11.3v-0.5H8.6v0.5c0,11.3,4.4,16.7,15.8,16.7C34,228,40.2,223,40.2,212.8L40.2,212.8z"/>
</svg>
