<?xml version="1.0" encoding="utf-8"?>
<!-- Generator: Adobe Illustrator 26.0.2, SVG Export Plug-In . SVG Version: 6.00 Build 0)  -->
<svg version="1.1" id="Layer_1" xmlns="http://www.w3.org/2000/svg" xmlns:xlink="http://www.w3.org/1999/xlink" x="0px" y="0px"
	 viewBox="0 0 859 176" style="enable-background:new 0 0 859 176;" xml:space="preserve">
<style type="text/css">
	.st0{fill:#FFFFFF;}
</style>
<g>
	<path class="st0" d="M262.9-0.3c10.1,2.9,20,6.2,28.3,13.2c12.4,10.6,20,23.5,19.8,40.2c-0.1,8.3-4.5,12.6-12.7,12.7
		c-6.3,0.1-12.7,0.1-19,0c-7-0.1-11.3-3.8-12.3-10.5c-1.9-11.8-5.2-14.6-17.2-14.6c-19.5,0-39,0-58.5,0c-10.3,0-15.3,5-15.3,15.3
		c-0.1,20.3-0.5,40.6,0.1,60.9c0.9,29.7-19.5,52.9-42.9,57.6c-0.8,0.2-1.5,0.7-2.2,1c-29,0-58,0-87,0c-4.7-1.5-9.8-1-14.4-3
		c-11.7-5.1-20.1-13.9-26.2-24.8c-2.5-4.5-2.3-9.8-3-14.8c-0.1-1.1,0.3-2.3-0.5-3.3c0-30,0-59.9,0-89.9C1.3,30.6,3.8,22.2,10.3,15
		C18.1,6.6,26.8,0.6,38.6,0.2c0.8,0,1.7,0.1,2.3-0.5c2.3,0,4.7,0,7,0c10.3,1.7,11.7,6,12.4,15.8c0.3,5,0.4,10-0.3,14.9
		c-0.8,5.7-3.5,10.1-8.9,12.3c-5.7,2.4-7.7,6.6-7.7,12.6c0.2,21,0,41.9,0.1,62.9c0,10.1,3.8,13.8,14,13.8c20,0.1,40,0.1,59.9,0
		c10.7,0,14.9-4.1,15-14.8c0.1-22-0.5-43.9,0.2-65.9c0.8-21.6,11.4-37.8,30.6-48.1c5.2-2.8,11.1-2.4,16.7-3.6
		C207.6-0.3,235.3-0.3,262.9-0.3z"/>
	<path class="st0" d="M176.9,175.5c-8.5-3.2-8.5-3.2-2.5-10.2c6.5-7.6,11.2-16.1,13.6-25.8c0.9-3.8,2.9-4.9,6.6-4.9
		c18,0.2,36,0.1,53.9,0.1c10.9,0,17.1-5,18-15.7c1-11.8,8.4-14.8,16.3-15c5.5-0.1,11-0.6,16.4,0.5c7.5,1.5,11.5,6.3,11.7,13.9
		c0.5,22.7-15.8,45.3-38.7,53.5c-3.7,1.3-7.6,2.4-11.4,3.6C232.9,175.5,204.9,175.5,176.9,175.5z"/>
	<path class="st0" d="M793.8,175.5c0.1-18.8,0.1-37.6,0.2-56.4c0-6.6,0.2-6.1,6.7-6.8c7-0.7,11.3,2.2,15.4,7.5
		c8,10.6,16.6,20.8,25,31.1c0.7,0.9,1.4,1.8,2.2,2.7c2.1-1.9,1.3-3.8,1.4-5.5c0.1-10,0.2-20,0-29.9c-0.1-4.2,1.2-6.3,5.7-5.8
		c2.8,0.3,5.7,0.1,8.5,0.1c0,20-0.1,40,0.1,59.9c0,2.5-0.6,3.2-3.1,3.1c-4.3-0.2-8.7-0.1-13-0.1c-5.4-2.4-8.5-7.3-12.1-11.6
		c-6.4-7.8-12.6-15.8-19.4-23.9c-0.1,9.8,0,19.1,0,28.3c0,1.5,0,3.1-0.4,4.5c-0.5,1.7-2.1,2.8-3.9,2.8
		C802.7,175.5,798.3,175.5,793.8,175.5z"/>
	<path class="st0" d="M453.9,175.5c0-19,0.1-38-0.1-56.9c-0.1-4.9,1.7-6,6.3-6.3c6.7-0.5,11.1,1.7,15.1,7.1
		c8,10.8,16.8,21.1,25.3,31.6c0.7,0.9,1.1,2.1,2.6,2.2c1.5-1.5,0.8-3.4,0.8-5.1c0.1-10.2,0.2-20.3,0-30.5c-0.1-3.9,1.4-5.6,5.3-5.2
		c1.2,0.1,2.3,0.1,3.5,0c3.8-0.3,5.4,1.1,5.4,5.1c-0.2,19.3-0.1,38.6-0.1,57.9h-13.2c-2.2,0-4.3-0.7-6-2c-2.7-2.1-4.8-4.9-7-7.7
		c-6.7-8.6-13.7-17-21.3-26.2c-0.2,10.2,0,19.4-0.1,28.6c0,2.4,0.1,4.7-1.6,6.5c-0.4,0.5-1.1,0.7-1.7,0.7
		C462.6,175.5,458.3,175.5,453.9,175.5z"/>
	<path class="st0" d="M399.5,175.5c-1,0-2-0.2-3-0.5c-2.3-0.8-4.6-1.6-7-2.5c-9.7-3.8-14.4-10.7-14.5-21.1c0-11,0.2-22-0.1-33
		c-0.1-4.5,1.3-6.6,6-6c1,0.1,2,0.1,3,0c4.4-0.5,6.3,1.2,6.1,5.9c-0.3,9.3-0.1,18.6-0.1,28c0.1,10.6,4.6,15.2,15.2,15.4
		c1.7,0,3.3,0,5,0c9.9-0.3,14.5-5,14.6-15c0.1-9.3,0.2-18.6-0.1-28c-0.1-4.7,1.4-6.9,6.2-6.3c1.6,0.2,3.3,0.1,5,0.1
		c2.5,0,3.7,1.2,3.7,3.7c-0.1,12.8,0.2,25.6-0.4,38.4c-0.5,11-8.2,16.1-17.7,19.1c-1.2,0.4-2.5,0.8-3.7,1.2c-1.3,0.4-2.7,0.6-4,0.6
		C409,175.5,404.3,175.5,399.5,175.5z"/>
	<path class="st0" d="M637.8,175.5c-3-1-6-2-8.9-3.2c-11.5-4.7-17.5-13.3-18.2-25.7c-0.7-13.3,3.3-24.2,16-30.1
		c14-6.5,28.2-5.4,42.2,0.3c3.3,1.3,2.7,4.2,2.8,6.8c0.1,8.6,0.1,8.5-7.5,5.3c-9.4-4-19-5.1-28.7-1.5c-7.4,2.7-10.2,8.7-10.5,16
		c-0.4,7.5,3.2,13.8,9.8,16.5c10.5,4.4,20.9,2.9,30.9-1.8c6-2.9,6-2.9,6,3.4c0.1,8.8-0.2,9.1-8.8,11.7c-2.4,0.7-4.7,1.5-7.1,2.3
		C648.9,176.7,643.8,176.8,637.8,175.5z"/>
	<path class="st0" d="M763.8,175.5c0-18.9,0-37.8,0.1-56.8c0-6.3,0.1-6.3,7.6-6.3c7,0,7.1,0.1,7.1,6.3c0.1,18.9,0.1,37.8,0.2,56.8
		C773.8,175.5,768.8,175.5,763.8,175.5z"/>
	<path class="st0" d="M582.1,114.8c-10.4-3.4-21-3.4-31.4,0c-12.5,4-19.5,13.7-19.8,27c-0.4,16,5.5,25.9,18.5,30.9
		c2.8,1.1,5.7,1.9,8.5,2.8c5.5,0.7,10.2,0.8,17,0c2-0.7,4-1.4,6.1-2c13-3.9,20.6-14.5,20.8-29C602,129.8,595,119,582.1,114.8z
		 M586.9,146c-0.5,7.5-4.5,12.8-11.6,15.1c-2.9,0.9-5.8,1.4-8.8,1.4c-12.9,0-21.3-7-21.3-17.9c0-12.4,7.3-19,21-19.1
		C580.6,125.5,587.7,132.5,586.9,146z"/>
	<path class="st0" d="M730.8,114.3c-6.9-2.1-13.8-2.1-20.8-1.6c-16.5,1.2-27.8,11.9-29.1,27c-1.6,18.3,6.6,30.3,23.6,34.7
		c0.3,0.1,0.7,0.2,1,0.3c1.8,0.6,3.6,0.8,5.5,0.8h10.1c2.5,0,5-0.4,7.4-1.1c0.8-0.3,1.6-0.5,2.5-0.8c13.6-4.3,20.9-14.8,20.8-30
		C751.8,128.7,744.3,118.6,730.8,114.3z M716.2,162.4c-13.6,0-20.7-6.4-20.6-18.8c0.1-12,7.4-18.2,21.3-18.1
		c13.3,0.1,20.2,6.5,20.1,18.7C736.9,156.1,729.5,162.5,716.2,162.4z"/>
</g>
</svg>
