<?xml version="1.0" encoding="utf-8"?>
<!-- Generator: Adobe Illustrator 25.4.2, SVG Export Plug-In . SVG Version: 6.00 Build 0)  -->
<svg version="1.1" id="Layer_1" xmlns="http://www.w3.org/2000/svg" xmlns:xlink="http://www.w3.org/1999/xlink" x="0px" y="0px"
	 viewBox="0 0 500 275" style="enable-background:new 0 0 500 275;" xml:space="preserve">
<style type="text/css">
	.st0{fill:#FFFFFF;}
	.st1{fill:#5E6677;}
</style>
<g>
	<g>
		<path class="st0" d="M15,219.5L1,176.8h10.5l8,27.8l9.2-27.8h6.4l9.3,27.8l7.9-27.8h10.5l-14,42.8h-8.6L32,192.9l-8.3,26.6H15z"/>
		<path class="st0" d="M107.9,219.5l-2.8-8.6H90.8l-3,8.6h-10l16-42.8h8.3l15.7,42.8H107.9z M98,189l-4.6,13.5h9.2L98,189z"/>
		<path class="st0" d="M148.2,186h-12.1v-9.2h33.8v9.2h-12v33.6h-9.6L148.2,186L148.2,186z"/>
		<path class="st0" d="M197.2,214.1c-4.2-4.1-6.3-9.4-6.3-15.8c0-6.5,2.1-11.8,6.4-16c4.3-4.2,9.6-6.3,15.7-6.3
			c7.6,0,14.5,3.4,18.4,8.7l-6.3,6.4c-3.2-3.9-7.1-5.8-11.6-5.8c-3.5,0-6.5,1.2-9,3.7s-3.7,5.6-3.7,9.3c0,3.6,1.2,6.7,3.6,9.1
			s5.4,3.6,9,3.6c4.6,0,8.6-2,11.9-5.9l6.4,6c-3.9,5.3-10.9,9-18.9,9C206.6,220.2,201.4,218.2,197.2,214.1z"/>
		<path class="st0" d="M258.1,219.5v-42.8h9.6v16.7h16.7v-16.7h9.6v42.8h-9.6v-16.8h-16.7v16.8H258.1z"/>
		<path class="st0" d="M323.8,219.5v-42.8h17.1c6.5,0,11.6,1.9,15.3,5.8c3.7,3.8,5.6,9,5.6,15.6s-1.9,11.8-5.6,15.6
			c-3.8,3.8-8.9,5.7-15.5,5.7L323.8,219.5L323.8,219.5z M333.4,210.3h7.6c3.5,0,6.1-1.2,8-3.5c1.9-2.4,2.8-5.3,2.8-8.7
			c0-3.5-0.9-6.4-2.8-8.7s-4.5-3.5-8-3.5h-7.6V210.3z"/>
		<path class="st0" d="M393.6,182.5c4.3-4.3,9.6-6.5,15.9-6.5s11.6,2.1,15.9,6.5c4.3,4.3,6.5,9.5,6.5,15.7s-2.1,11.4-6.4,15.7
			c-4.3,4.2-9.6,6.4-16,6.4s-11.7-2.1-15.9-6.4s-6.4-9.4-6.4-15.6C387.1,192,389.3,186.8,393.6,182.5z M418.3,207.2
			c2.4-2.4,3.6-5.4,3.5-9s-1.3-6.7-3.6-9.1c-2.4-2.4-5.3-3.6-8.7-3.6c-3.5,0-6.4,1.2-8.8,3.6s-3.6,5.4-3.6,9.1c0,3.6,1.2,6.6,3.6,9
			s5.3,3.6,8.8,3.6C413,210.8,416,209.6,418.3,207.2z"/>
		<path class="st0" d="M463.3,214c-4.2-4.2-6.3-9.4-6.3-15.8c0-6.4,2.2-11.8,6.5-15.9c4.3-4.2,9.8-6.3,16.2-6.3
			c6.9,0,13.1,2.7,17.1,6.7l-6.1,6.9c-3.1-3-6.8-4.4-11-4.4c-3.8,0-6.8,1.2-9.3,3.7c-2.4,2.4-3.6,5.5-3.6,9.1s1.2,6.7,3.6,9.2
			s5.5,3.8,9.3,3.8c4.2,0,8.3-1.7,10.7-4.1V202h-10.9v-8.2H499v18c-5.6,5.6-12,8.3-19.5,8.3C472.9,220.2,467.6,218.1,463.3,214z"/>
		<path class="st0" d="M89.3,270.3c-2.6-2.5-3.9-5.8-3.9-9.8s1.3-7.3,4-9.9c2.7-2.6,5.9-3.9,9.7-3.9c4.7,0,8.9,2.1,11.3,5.4
			l-3.9,3.9c-2-2.4-4.4-3.6-7.1-3.6c-2.2,0-4,0.8-5.6,2.3c-1.5,1.5-2.3,3.4-2.3,5.8c0,2.3,0.8,4.1,2.3,5.6s3.4,2.2,5.6,2.2
			c2.9,0,5.3-1.2,7.3-3.6l4,3.7c-2.4,3.3-6.8,5.6-11.7,5.6C95.1,274.1,91.9,272.8,89.3,270.3z"/>
		<path class="st0" d="M160.1,273.7l-1.8-5.3h-8.9l-1.8,5.3h-6.1l9.9-26.4h5.1l9.7,26.4H160.1z M153.9,254.8l-2.9,8.4h5.7
			L153.9,254.8z"/>
		<path class="st0" d="M210.1,247.3c3.2,0,5.6,0.9,7.2,2.6c1.6,1.7,2.4,3.8,2.4,6.4c0,2.5-0.8,4.6-2.5,6.3c-1.6,1.6-4.1,2.5-7.5,2.5
			h-3.8v8.8H200v-26.4h10.1V247.3z M209.9,259.6c2.4,0,3.8-1.6,3.8-3.5s-1.4-3.4-3.5-3.4h-4.3v6.9H209.9z"/>
		<path class="st0" d="M254,247.3h5.9v26.4H254V247.3z"/>
		<path class="st0" d="M301.4,253h-7.5v-5.7h20.8v5.7h-7.4v20.7h-5.9V253z"/>
		<path class="st0" d="M362.3,273.7l-1.8-5.3h-8.9l-1.8,5.3h-6.1l9.9-26.4h5.1l9.7,26.4H362.3z M356.2,254.8l-2.9,8.4h5.7
			L356.2,254.8z"/>
		<path class="st0" d="M402.3,273.7v-26.4h5.9v20.8h13.2v5.6H402.3z"/>
	</g>
	<path class="st1" d="M337.2,39.5H326l0,0h-10.4l-2.1,4.4l-1.4,2.9l0,0L283.8,106l-24.5-27.9l16.2-17.8c5.4-6,8.5-13.2,9.2-20.8
		h-5.5l0,0h-14.7l2.2,6.3c-0.8,1.4-1.7,2.7-2.8,4l-15,16.5l-14.7-16.8c-5.3-6-6.5-14-3.2-21.3s10.1-11.7,18.1-11.7
		c6.9,0,12.9,3.2,16.5,8.8H283c-0.4-1.1-0.8-2.2-1.2-3.3C276,8.9,263.5,0.8,249.2,0.8c-14.1,0-26.5,8-32.4,20.9
		c-5.8,12.9-3.7,27.5,5.6,38.1l15.9,18.1l-24.8,27.2l-28.2-59l-3.1-6.4l0,0l-0.1-0.2h-10.4l0,0h-11.2l10.1,10.4l33.7,70.5h16.5l0,0
		l27.9-30.6l27.7,31.6l0,0h16.5l34.2-71.5L337.2,39.5z"/>
</g>
</svg>
