<?xml version="1.0" encoding="utf-8"?>
<!-- Generator: Adobe Illustrator 25.4.2, SVG Export Plug-In . SVG Version: 6.00 Build 0)  -->
<svg version="1.1" id="Layer_1" xmlns="http://www.w3.org/2000/svg" xmlns:xlink="http://www.w3.org/1999/xlink" x="0px" y="0px"
	 viewBox="0 0 2874 1324.1" style="enable-background:new 0 0 2874 1324.1;" xml:space="preserve">
<style type="text/css">
	.st0{clip-path:url(#SVGID_00000106855692707931711920000003004464762460781503_);fill:#FFFFFF;}
	.st1{fill:#FFFFFF;}
	.st2{fill:#A9B2BF;}
	.st3{fill:none;}
	.st4{fill:#5E6677;}
	.st5{fill:#38404A;}
</style>
<g>
	<g>
		<defs>
			<rect id="SVGID_1_" x="0.1" y="1.1" width="2873.9" height="1323"/>
		</defs>
		<clipPath id="SVGID_00000181047252542824757300000014928373949365344444_">
			<use xlink:href="#SVGID_1_"  style="overflow:visible;"/>
		</clipPath>
		<path style="clip-path:url(#SVGID_00000181047252542824757300000014928373949365344444_);fill:#FFFFFF;" d="M19.2,1271
			c0.7-46.7,1.3-54.4,4.7-67.9c2.2-8.4,3.6-17.2,3.1-19.8c-11.7-57.5-7-91.1,15.6-113.7c13.3-13.3,18-16,39.5-23.4l12.4-4.1
			l-0.2-211.8c-0.2-116.6-0.7-252.8-1.3-302.8c-1.1-92.5-1.4-98.1-8.8-124c-2.7-9.5-5.2-19.4-7.9-30.5c-1.1-4.5-3.2-12-4.7-17.1
			c-1.4-4.9-4.3-15.6-6.5-23.7c-3.6-13.5-4.5-15.1-11.9-20.3C32.5,296.8,15.1,273.6,5,247.1c-4.9-12.8-5-14.6-5-44.7
			c0-29.8,0.4-32.2,4.9-43.5C18.9,123.4,42,97.2,71.7,83c17.6-8.4,26.4-11.1,45.3-13.7c19.2-2.7,38.5-0.5,59.5,6.5
			c39.2,13.1,70.1,44.4,83.9,85.2c4.9,14,5.2,17.4,5.2,40.4c0,27.1-2.3,39.2-11.3,58.4c-9.3,20.1-29.6,44.2-44.9,53.2
			c-5.2,3.1-7.4,7.9-11,24.1c-1.3,5.4-2.9,11.5-3.8,13.5c-1.4,3.4-12.6,48.9-16,64.7c-0.9,4-2.5,9.7-3.8,12.6
			c-1.4,3.9-2.3,31.4-3.1,98.5c-0.4,51-0.4,92.9,0.2,92.9c0.9,0,21.6-8.6,34.5-14.4c7.2-3.2,54.4-18.9,72.8-24.1
			c11.7-3.4,37.2-9,61.6-13.5c12.2-2.3,18.3-4.3,20.1-6.6c1.4-2,9-16.4,16.9-32.2c14.7-30,17.8-36.5,35.9-76.7
			c6.1-13.5,15.1-32.7,19.9-42.6c4.9-9.7,11.3-23.4,14.6-30.2c3.1-6.6,10.6-22.3,16.4-34.7c5.9-12.4,14-29.3,18-37.7
			c20.7-43.3,78.7-160.4,93.6-188.7c13.3-25.3,35.4-64.7,40.2-71.9c2.2-3.4,4.1-7.2,4.1-8.4c0-1.3,0.9-2.3,1.8-2.3
			c1.1,0,1.8-0.7,1.8-1.8c0-2.9,11-20.3,16.9-26.4c4.1-4.7,6.8-5.9,12-5.9c7.5,0,10.8,3.6,28,31.4c9,14.4,11.3,18.7,35,61.8
			c6.6,12.4,34.7,67.6,62,122.4c45.6,92,53.7,108.3,65.2,133.9c9.9,21.9,14.7,32,25.7,54.8c6.3,13.3,13.3,28.2,15.4,32.9
			c2.2,4.9,8.1,17.2,13.1,27.9c8.4,18,13.7,29.3,22.6,48.9c21,46,21.6,46.7,42.9,51.2c46.7,9.9,66.1,14.9,99.4,26.1
			c28.6,9.5,67.2,25.3,77.6,31.8c3.8,2.3,7.2,4.1,7.7,4.1c0.4,0,7.5,4.9,15.6,10.6c28.2,20.1,46.4,43.8,46.4,60.9v7.9l-5.7-1.3
			c-10.1-2-41.5-11.1-68.8-19.8c-16.7-5.4-48.2-14.2-68.3-18.9c-8.8-2-23.9-5.8-33.2-8.1c-29.5-7.2-50.1-10.4-53.2-7.9
			c-4,3.2-3.1,4.5,5.2,7.7c4.1,1.6,9.7,4.7,12.2,6.8c6.5,5.6,15.1,20.3,17.6,30.4c2.7,9.5,1.8,51.7-1.3,64.7
			c-2.9,12.2-12.9,32-20.1,39.5c-7,7.4-9.5,12.9-14.4,31.3c-5.4,20.8-10.1,29.8-19.8,38.6l-9,8.1l-1.8,24.8
			c-2.3,33.8-4,39.2-16.5,55.2c-4.7,6.1-4.9,6.8-3.2,17.1c2.3,13.8,2.3,46,0,51.9c-0.9,2.5-1.1,4.7-0.2,4.7c0.9,0,2,1.6,2.5,3.6
			c0.9,3.2,2.5,3.6,18.7,3.8c9.7,0,21.2,0.4,25.7,0.9c8.3,0.9,38.1,8.3,47.6,11.9c8.4,3.1,21.2,8.6,24.8,10.4c1.6,1.1,4.9,2.9,7.2,4
			c38.6,21,75.8,58.6,92.2,93.1c8.3,17.1,11.5,24.8,11.5,26.6c0,1.1,1.6,5.7,3.8,10.6c7,16.2,10.6,46.2,10.6,88.2v38.1H18.3
			L19.2,1271z M243.5,1069.9c33.6-19,65.9-28.6,102.6-30.2c14.9-0.7,25.5-2,26.8-3.2c1.3-1.3,2.2-12.6,2.5-33.2
			c0.2-17.1,0.9-32.7,1.6-34.7c0.9-2.5-0.2-5.2-3.4-9c-12.4-14-16.4-27-18-57.7l-1.1-21.7l-9-9.3c-10.2-10.6-15.3-21.2-21.4-44.2
			c-2.3-8.8-5-16.9-6.3-18c-5.4-4.7-15.6-19.2-19.8-28.2c-7.9-17.4-10.2-29.3-10.4-55.3c-0.2-22.5,0.2-25.2,4.8-37
			c7.2-18.9,19.6-28.8,42.8-33.8c3.4-0.7,4.5-2,3.8-4.3c-0.5-2.5-2.2-3.1-6.5-2.7c-8.6,1.1-26.4,4-34.5,5.9
			c-4,0.9-16.9,3.8-28.7,6.5c-11.9,2.7-33.2,7.9-47.6,11.7c-14.4,3.8-31.4,7.9-38.1,9.2l-12.2,2.3L171.2,850
			c-0.4,192.1-0.4,189.7,3.1,192.4c1.4,1.3,8.6,4.3,16.2,6.8c14.6,5.2,25.5,12.2,34,21.7c3.1,3.2,5.6,6.1,5.8,6.1
			C230.2,1077.3,236.3,1074.1,243.5,1069.9L243.5,1069.9z M243.5,1069.9"/>
	</g>
	<path class="st1" d="M1350.1,1172c0-5,14.4-60.6,20.7-80.3c1.4-4.5,5.4-16.5,8.8-27c22.8-70.8,30.5-105.1,39.5-175.2
		c4-31.1,8.3-94.9,8.3-124c0-46.2-5.9-110-14.6-155.4c-28.2-148.4-98.6-261.6-205-328.4c-18-11.5-58-31.4-76.9-38.6
		c-36.8-14-56.2-19-103.3-27.3c-7.9-1.4-26.1-5-40.2-8.1c-19.2-4-30.5-5.4-44.4-5.4c-17.6,0-24.8-2.2-13.7-4
		c2.7-0.5,23.5-4.7,46.2-9.2c71-14,77.6-14.7,138.3-14.6c58.2,0,71.2,1.4,112.7,12.4c94.3,24.8,165.3,82.5,212.9,173.4
		c15.6,30,33.2,75.1,43.1,111.4c14,51.2,27.3,128.8,32.9,193.1c1.1,11.9,2.9,30.5,4,41.3c2.5,25.2,2.5,71-0.2,90.7
		c-1.1,8.3-2,26.1-2,39.2v24.1l6.1-11.5c9.9-18.5,29.1-47.6,55.9-84.3c13.8-18.9,35.8-49.1,48.5-67
		c33.2-46.2,85.5-115.9,111.9-149.1c38.3-48.3,65.9-83,66.8-83.7c0.5-0.5,11.9-14.6,25.2-31.4c55.2-69.9,82.3-98.5,115.4-120.9
		c13.8-9.5,14.7-8.3,7.7,11.3c-3.2,9.3-10.4,26.9-15.8,39.2c-26.2,58.6-29.5,67.6-43.5,120.7c-15.5,59.1-22.8,130.6-23,221.9
		c0,58.6,0.2,65.2,3.8,81.6c2.2,9.9,4.5,18.5,5.4,19.4c1.1,1.1,4.1-2.3,7.5-8.8c37-65.8,123.6-185.2,193.9-267.4
		c105.3-123.1,210.6-210.8,320.9-266.8c59.3-30.2,108.9-47.6,162.6-57.3c52.5-9.3,112.7-9.9,129.4-1.1c5.4,2.9,5.8,2.9-21.6,8.1
		c-99.9,18.7-193.1,59.8-283.9,124.5c-51.7,37-81.6,62.7-138.3,119.7c-65.8,65.8-120.4,130.8-190.5,226.6
		c-11.1,15.3-23,31.4-26.2,35.9c-18.5,25.2-88.6,126.5-136.2,196.7c-55.7,82.3-69.4,102-86.6,125.8c-10.2,13.8-28.2,39.3-40.1,56.6
		c-11.9,17.4-26.6,37.2-32.9,44c-11.5,12.4-28.2,26.8-29.6,25.3c-0.9-0.7,1.4-7.5,9.3-28.9c31.1-82.8,57.1-177.3,69-251.5
		c1.3-6.8,2.9-17.1,3.8-22.5c6.1-36.7,7.9-65.8,8.1-123.1c0-47.3-0.7-65-3.4-87.5c-1.8-15.6-4-28.4-4.9-28.4c-2,0-35,42.8-53.4,69.5
		c-3.4,4.7-18.7,26.8-34.1,49c-39.7,57.3-90.7,126-158.1,212.4c-34.9,44.9-37,47.8-45.5,57.9c-2.5,3.1-14.6,18.9-26.8,35.2
		c-49.2,65.6-77.6,96.5-103.3,113C1358.9,1170.9,1350.1,1174.7,1350.1,1172L1350.1,1172z M1350.1,1172"/>
	<path class="st1" d="M2603.3,1150.3c-27.3-3.2-33.1-4.3-91.6-17.2c-98.5-21.6-110.9-22.6-168.9-14.4c-37,5.2-47.6,6.1-47.6,3.8
		c0-4,9.5-20.8,17.6-31.6c12.2-16,59.3-63.4,115.9-116.4c27.3-25.7,49.6-47.1,49.2-47.4c-0.4-0.2-11.1-1.3-23.9-2.3
		c-27.1-2.2-46.4-5.9-59.8-12c-10.8-4.7-21.7-12.2-21.7-15.1c0-0.9,14-1.6,34.7-1.6c38.6,0,76.2-3.6,96.5-9.2
		c20.7-5.6,31.8-12.6,50.5-31.4c9.3-9.3,23.7-22.8,32-30c8.4-7.2,24.6-20.8,35.9-30.7c20.3-17.1,54.1-50.5,54.1-53.2
		c0-0.7-4.3-0.5-9.3,0.5c-12.8,2.3-43.3,0.4-65.2-4.1c-43.3-8.8-48.9-9.7-72.8-9.7c-31.6,0-55,6.1-95.2,24.4
		c-27.1,12.4-35.4,14.7-33.4,9.2c3.9-10.6,20.1-33.2,32.5-45.8c24.1-24.1,50.7-39,80.3-44.7c16-3.2,64-2.7,109.2,1.1
		c59.1,4.9,90.7,2.7,159.4-11c15.6-3.1,16.7-3.1,16.7-0.5c0,1.3-4.5,8.8-10.1,17.2c-7,10.4-21.2,26.2-47.3,52.3
		c-20.5,20.5-52.1,53-70.2,72.2c-18.1,19.2-44.7,46.9-58.9,61.3l-25.7,26.2l22.1,1.1c26.8,1.3,46.9,5.4,62.3,12.4
		c12.8,5.7,23.9,13.7,22.6,15.8c-0.5,0.7-19.8,0.9-42.8,0.4c-42.8-0.9-67.6,0.9-84.3,5.9c-20.8,6.1-25.3,9.9-89.1,73.5l-61.6,61.3
		l32.2,1.3c47.6,1.8,71.1,6.5,125.2,24.6c27.7,9.2,46.2,12.8,67.4,12.8c22.8,0,31.8-2,48.3-10.8c14.9-7.9,26.6-18.9,46-43.1
		c9.5-11.9,18-21.6,19-21.6c1.3,0,1.6,2.5,0.9,6.8c-0.5,3.6-1.4,11.5-2,17.4c-4.9,47.3-33.2,83-78,97.9
		C2654.5,1152.2,2632.9,1153.7,2603.3,1150.3L2603.3,1150.3z M2603.3,1150.3"/>
	<path class="st1" d="M2030.1,1144.2c-14.2-2-20.8-14.4-17.4-32.7c4.1-22.3,14.6-38.6,85.5-132.8c49.8-66.1,76.4-101.7,94.5-126.8
		c7.9-10.8,19.6-26.6,26.1-35c6.5-8.4,15.3-22.5,19.8-31.3c6.8-13.5,8.1-17.4,8.1-26.4c0-9-0.7-11.3-5.2-16.4
		c-4.5-5-6.3-5.7-16.7-6.5c-15.6-1.1-33.4,4.1-66.1,18.9c-20.1,9.2-52.1,18.3-52.1,14.9c0-3.4,19.9-25,34.3-37.2
		c44-37.2,110-67,148.1-67c23.5,0,36.8,9.3,39.5,27.7c2.3,15.6-10.2,52.5-28.9,83.7c-7.2,12.2-49,74.6-62.2,92.7
		c-110.5,152.2-116.2,160.4-125.1,178.1c-6.5,12.8-12.9,29.1-12.9,32.7c0,5,44.2-0.9,70.4-9.5c7.7-2.5,15.4-5.4,17.4-6.5
		c9.2-4.9,34.5-6.3,31.6-1.8c-1.6,2.5-80,45.1-105.6,57.3C2072.5,1139.7,2047.7,1146.7,2030.1,1144.2L2030.1,1144.2z M2030.1,1144.2
		"/>
	<path class="st1" d="M2793.7,293.2l-32.3-33.1l-21.6,4.3c-11.9,2.5-29.6,5.9-39.5,7.9c-9.9,1.8-20.1,3.8-23,4.5
		c-2.7,0.7-4.8,0.5-4.8-0.5c0-0.9,15.3-14.4,34-29.8l34-28l-2.3-8.4c-6.6-25-22.6-81.8-23.5-84.1c-2.7-7,5-1.1,22.5,17.4
		c10.4,11,25.5,26.9,33.6,35.4l14.6,15.3l42-12.2c23.2-6.8,43.1-12.8,44.4-13.3c6.5-2.3-0.9,5.4-29.6,31.3
		c-17.6,15.6-31.8,29.3-31.8,30.4c0.2,2,16.4,85.3,17.8,92.2c0.5,2.2,0.4,4-0.4,4C2826.6,326.3,2811.5,311.4,2793.7,293.2
		L2793.7,293.2z M2793.7,293.2"/>
	<path class="st2" d="M19.2,1271c0.7-46.7,1.3-54.4,4.7-67.9c2.2-8.4,3.6-17.2,3.1-19.8c-11.7-57.5-7-91.1,15.6-113.7
		c13.3-13.3,18-16,39.5-23.4l12.4-4.1l-0.2-211.8c-0.2-116.6-0.7-252.8-1.3-302.8c-1.1-92.5-1.4-98.1-8.8-124
		c-2.7-9.5-5.2-19.4-7.9-30.5c-1.1-4.5-3.2-12-4.7-17.1c-1.4-4.9-4.3-15.6-6.5-23.7c-3.6-13.5-4.5-15.1-11.9-20.3
		C32.5,296.8,15.1,273.6,5,247.1c-4.9-12.8-5-14.6-5-44.7c0-29.8,0.4-32.2,4.9-43.5C18.9,123.4,42,97.2,71.7,83
		c17.6-8.4,26.4-11.1,45.3-13.7c19.2-2.7,38.5-0.5,59.5,6.5c39.2,13.1,70.1,44.4,83.9,85.2c4.9,14,5.2,17.4,5.2,40.4
		c0,27.1-2.3,39.2-11.3,58.4c-9.3,20.1-29.6,44.2-44.9,53.2c-5.2,3.1-7.4,7.9-11,24.1c-1.3,5.4-2.9,11.5-3.8,13.5
		c-1.4,3.4-12.6,48.9-16,64.7c-0.9,4-2.5,9.7-3.8,12.6c-1.4,3.9-2.3,31.4-3.1,98.5c-0.4,51-0.4,92.9,0.2,92.9
		c0.9,0,21.6-8.6,34.5-14.4c7.2-3.2,54.4-18.9,72.8-24.1c11.7-3.4,37.2-9,61.6-13.5c12.2-2.3,18.3-4.3,20.1-6.6
		c1.4-2,9-16.4,16.9-32.2c14.7-30,17.8-36.5,35.9-76.7c6.1-13.5,15.1-32.7,19.9-42.6c4.9-9.7,11.3-23.4,14.6-30.2
		c3.1-6.6,10.6-22.3,16.4-34.7c5.9-12.4,14-29.3,18-37.7c20.7-43.3,78.7-160.4,93.6-188.7c13.3-25.3,35.4-64.7,40.2-71.9
		c2.2-3.4,4.1-7.2,4.1-8.4c0-1.3,0.9-2.3,1.8-2.3c1.1,0,1.8-0.7,1.8-1.8c0-2.9,11-20.3,16.9-26.4c4.1-4.7,6.8-5.9,12-5.9
		c7.5,0,10.8,3.6,28,31.4c9,14.4,11.3,18.7,35,61.8c6.6,12.4,34.7,67.6,62,122.4c45.6,92,53.7,108.3,65.2,133.9
		c9.9,21.9,14.7,32,25.7,54.8c6.3,13.3,13.3,28.2,15.4,32.9c2.2,4.9,8.1,17.2,13.1,27.9c8.4,18,13.7,29.3,22.6,48.9
		c21,46,21.6,46.7,42.9,51.2c46.7,9.9,66.1,14.9,99.4,26.1c28.6,9.5,67.2,25.3,77.6,31.8c3.8,2.3,7.2,4.1,7.7,4.1
		c0.4,0,7.5,4.9,15.6,10.6c28.2,20.1,46.4,43.8,46.4,60.9v7.9l-5.7-1.3c-10.1-2-41.5-11.1-68.8-19.8c-16.5-5.4-48.2-14-68.3-18.9
		c-8.8-2.2-24.3-5.8-34.1-8.1c-36.5-9-109.8-22.5-150.9-27.8c-121.6-16-251.7-18.7-381.8-7.9c-53,4.3-126.8,14.4-156.3,21
		c-6.5,1.4-18.1,3.6-26.1,4.9c-7.9,1.1-17.2,2.7-20.7,3.6c-3.4,0.9-16,3.8-27.8,6.5c-11.9,2.7-33.2,7.9-47.6,11.7
		c-14.4,3.8-31.4,7.9-38.1,9.2l-12.2,2.3L171.2,850c-0.4,192.1-0.4,189.7,3.1,192.4c1.4,1.3,8.8,4.3,16.4,7
		c14.7,5.2,22.5,10.1,33.2,21l6.6,6.8l12.9-7.4c33.8-19.2,65.2-28.6,100.4-29.8c16.4-0.5,25.5-1.8,28.2-3.4c2.2-1.4,4.3-2.5,4.9-2.5
		c0.4,0,2.5,5.4,4.7,12.2c2.3,6.6,7.9,20.3,12.8,30.2c9.3,19.9,11.5,26.8,13.3,42.9c1.8,15.5,9,36.1,16.7,47.6
		c9.2,13.5,21.4,22.1,39.5,28c8.3,2.7,15.3,5.8,15.6,6.8c0.2,1.1,1.8,9.3,3.4,18.1c4.9,25.2,12.4,36.1,31.6,45.5
		c9.5,4.7,11.1,4.9,37.9,4.9h28l6.6,5.9c9.3,8.3,18.1,13.5,30.7,18.3c9.3,3.8,13.8,4.3,35,4.3c23.4,0.2,24.8-0.2,37.9-5.8
		c7.9-3.4,18.3-9.9,25.2-15.6l11.5-9.7l9.9,1.3c5.4,0.7,17.6,1.3,26.9,1.3c15.1,0,18.3-0.7,27.3-5.2c18.1-8.8,25.9-21,30.9-47.4
		c1.6-8.3,3.2-15.6,3.8-16.5c0.5-0.9,6.3-3.2,12.9-5.4c22.5-7.2,31.8-14,42.4-30.7c9.7-15.6,10.8-19,17.4-58.2
		c0.9-4.9,5.9-18.5,11.5-30.2c5.6-11.7,10.1-21.6,10.1-22.3c0-2.9,7.9-22.1,9-22.1c0.7,0,1.8,1.6,2.3,3.6c0.9,3.2,2.5,3.6,18.7,3.8
		c9.7,0,21.2,0.4,25.7,0.9c8.3,0.9,38.1,8.3,47.6,11.9c8.4,3.1,21.2,8.6,24.8,10.4c1.6,1.1,4.9,2.9,7.2,4
		c38.6,21,75.8,58.6,92.2,93.1c8.3,17.1,11.5,24.8,11.5,26.6c0,1.1,1.6,5.7,3.8,10.6c7,16.2,10.6,46.2,10.6,88.2v38.1H18.3
		L19.2,1271z M19.2,1271"/>
	<rect x="0.1" y="1.1" class="st3" width="2873.9" height="1323"/>
	<path class="st2" d="M19.2,1271c0.7-46.7,1.3-54.4,4.7-67.9c2.2-8.4,3.6-17.2,3.1-19.8c-11.7-57.5-7-91.1,15.6-113.7
		c13.3-13.3,18-16,39.5-23.4l12.4-4.1l-0.2-213.6c-0.2-117.7-0.7-253.9-1.3-302.8c-1.1-90.6-1.4-96.3-8.8-122.2
		c-3.4-12-5.8-21.2-8.8-33.2c-4.7-18.5-6.8-26.4-11-40.8l-4-13.7l4.1,1.4c2.2,0.9,5.6,2.5,7.4,3.6c30.9,17.8,79.6,19,114.8,2.9
		c15.6-7.4,17.8-7.7,16-3.2c-0.7,1.6-2.5,8.3-4,14.7c-1.4,6.5-3.4,13.3-4.3,15.3c-1.4,3.4-12.8,49.2-16.2,65.2
		c-0.7,4.1-2.5,9.3-3.8,11.7c-1.4,2.9-2.3,29.3-2.9,97.9c-0.5,51.6-0.4,93.8,0.2,93.8c0.9,0,21.4-8.6,34.5-14.4
		c7.2-3.2,54.4-18.9,72.8-24.1c11.7-3.4,37.2-9,61.6-13.5c12.2-2.3,18.3-4.3,20.1-6.6c1.4-2,9-16.4,16.9-32.2
		c14.7-30,17.8-36.5,35.9-76.7c6.1-13.5,15.1-32.7,19.9-42.6c4.9-9.7,11.3-23.4,14.6-30.2c3.1-6.6,10.6-22.3,16.4-34.7
		c5.9-12.4,14-29.3,18-37.7c20.7-43.3,78.7-160.4,93.6-188.7c13.3-25.3,35.4-64.7,40.2-71.9c2.2-3.4,4.1-7.2,4.1-8.4
		c0-1.3,0.9-2.3,1.8-2.3c1.1,0,1.8-0.7,1.8-1.8c0-2.9,11-20.3,16.9-26.4c4.1-4.7,6.8-5.9,12-5.9c7.5,0,10.8,3.6,28,31.4
		c9,14.4,11.3,18.7,35,61.8c6.6,12.4,34.7,67.6,62,122.4c45.6,92,53.7,108.3,65.2,133.9c9.9,21.9,14.7,32,25.7,54.8
		c6.3,13.3,13.3,28.2,15.4,32.9c2.2,4.9,8.1,17.2,13.1,27.9c8.4,18,13.7,29.3,22.6,48.9c21,46,21.6,46.7,42.9,51.2
		c46.7,9.9,66.1,14.9,99.4,26.1c28.6,9.5,67.2,25.3,77.6,31.8c3.8,2.3,7.2,4.1,7.7,4.1c0.4,0,7.5,4.9,15.6,10.6
		c28.2,20.1,46.4,43.8,46.4,60.9v7.9l-5.7-1.3c-10.1-2-41.5-11.1-68.8-19.8c-16.5-5.4-48.2-14-68.3-18.9c-8.8-2.2-24.3-5.8-34.1-8.1
		c-36.5-9-109.8-22.5-150.9-27.8c-121.6-16-251.7-18.7-381.8-7.9c-53,4.3-126.8,14.4-156.3,21c-6.5,1.4-18.1,3.6-26.1,4.9
		c-7.9,1.1-17.2,2.7-20.7,3.6c-3.4,0.9-16,3.8-27.8,6.5c-11.9,2.7-33.2,7.9-47.6,11.7c-14.4,3.8-31.4,7.9-38.1,9.2l-12.2,2.3
		L171.2,850c-0.4,192.1-0.4,189.7,3.1,192.4c1.4,1.3,8.8,4.3,16.4,7c14.7,5.2,22.5,10.1,33.2,21l6.6,6.8l12.9-7.4
		c33.8-19.2,65.2-28.6,100.4-29.8c16.4-0.5,25.5-1.8,28.2-3.4c2.2-1.4,4.3-2.5,4.9-2.5c0.4,0,2.5,5.4,4.7,12.2
		c2.3,6.6,7.9,20.3,12.8,30.2c9.3,19.9,11.5,26.8,13.3,42.9c1.8,15.5,9,36.1,16.7,47.6c9.2,13.5,21.4,22.1,39.5,28
		c8.3,2.7,15.3,5.8,15.6,6.8c0.2,1.1,1.8,9.3,3.4,18.1c4.9,25.2,12.4,36.1,31.6,45.5c9.5,4.7,11.1,4.9,37.9,4.9h28l6.6,5.9
		c9.3,8.3,18.1,13.5,30.7,18.3c9.3,3.8,13.8,4.3,35,4.3c23.4,0.2,24.8-0.2,37.9-5.8c7.9-3.4,18.3-9.9,25.2-15.6l11.5-9.7l9.9,1.3
		c5.4,0.7,17.6,1.3,26.9,1.3c15.1,0,18.3-0.7,27.3-5.2c18.1-8.8,25.9-21,30.9-47.4c1.6-8.3,3.2-15.6,3.8-16.5
		c0.5-0.9,6.3-3.2,12.9-5.4c22.5-7.2,31.8-14,42.4-30.7c9.7-15.6,10.8-19,17.4-58.2c0.9-4.9,5.9-18.5,11.5-30.2
		c5.6-11.7,10.1-21.6,10.1-22.3c0-2.9,7.9-22.1,9-22.1c0.7,0,1.8,1.6,2.3,3.6c0.9,3.2,2.5,3.6,18.7,3.8c9.7,0,21.2,0.4,25.7,0.9
		c8.3,0.9,38.1,8.3,47.6,11.9c8.4,3.1,21.2,8.6,24.8,10.4c1.6,1.1,4.9,2.9,7.2,4c38.6,21,75.8,58.6,92.2,93.1
		c8.3,17.1,11.5,24.8,11.5,26.6c0,1.1,1.6,5.7,3.8,10.6c7,16.2,10.6,46.2,10.6,88.2v38.1H18.3L19.2,1271z M19.2,1271"/>
	<path class="st2" d="M500.9,965.9c-19.8-9.7-49.2-38.5-44.6-43.1c3.2-3.2,39.5-16.5,61.6-22.8c19.2-5.2,27.1-6.5,52.3-7.9
		c39.2-2.2,51.7-4.1,65.9-10.6c14-6.5,15.6-6.5,26.9-1.6c15.3,6.8,25.9,8.8,57.1,10.8c31.8,2,46.4,4.9,87.1,17.1
		c23.5,7,43.1,15.6,43.1,18.9c0,4-31.1,33.1-39.7,37.2c-10.2,5-26.9,8.1-37.5,7.2c-9.2-0.9-16.5-4.5-49.1-23.5
		c-13.8-8.3-26.8-14.4-32.3-15.6c-14.6-3.2-50.7-4.3-68.1-2c-18.5,2.5-25.2,5.2-51,21c-28.7,17.6-35.4,20.5-49.4,20.5
		C513.9,971.3,509.6,970.2,500.9,965.9L500.9,965.9z M500.9,965.9"/>
	<path class="st2" d="M861.5,867.8c-29.8-23.7-53-36.5-81.4-44.6c-32.9-9.5-66.8-10.6-89.7-2.9c-6.3,2.2-17.8,8.3-25.3,13.7
		c-7.7,5.4-14.4,9.7-14.9,9.7s-6.3-4-12.8-9c-6.5-4.8-13.3-9.9-15.3-11c-19.9-10.6-69.4-11.3-102.2-1.3c-19.9,6.1-51.9,23-71.1,37.6
		c-26.4,19.9-23.5,19.2-39.9,10.6c-7.5-4.1-16.7-9.7-19.9-12.4l-6.3-5.2l4.1-19.4c7.2-33.4,7.7-38.3,6.8-77.1
		c-0.7-30.7-1.6-40.2-4.5-51.2c-2.2-7.4-4.3-17.4-4.9-22.5l-1.3-9l7.9-2.2c4.1-1.3,12.9-3.1,19.4-4.3c17.4-2.9,26.6-7,46-20.8
		c9.7-7,19.4-13.5,21.4-14.6c7.5-3.8,26.2-5.8,85.7-8.6c85.5-4.1,164.8-2.7,250.6,4.7c21.9,1.8,22.8,2.2,49.1,18
		c9.3,5.8,24.4,12.9,33.2,16c26.2,9.3,28.4,10.4,27.1,15.1c-0.5,2.2-2.9,14-5,26.4c-3.2,18.5-4,29.3-4,61.1
		c0,35.4,0.4,40.6,4.9,61.8c5,23,5,23.4,1.6,27.8c-4.3,5.7-35.4,27.1-39.5,27.1C879.9,881.5,870.9,875.4,861.5,867.8L861.5,867.8z
		 M861.5,867.8"/>
	<path class="st2" d="M310.1,799.7c-8.8-11.3-15.5-24.8-19.4-39.9c-3.6-13.5-4.1-54.3-0.9-64.3c7.9-24.1,20.7-36.1,42.8-40.3
		c6.5-1.3,7.7-1.1,8.6,1.6c1.1,3.4,0.9,4-7.5,25.9c-10.6,27.1-13.1,43.1-13.1,87.9c0,21.4-0.5,39-1.4,39
		C318.4,809.6,314.2,805.1,310.1,799.7L310.1,799.7z M310.1,799.7"/>
	<path class="st2" d="M986.2,803.9c-0.4-1.3-1.1-19.2-1.6-40.1c-1.1-39.2-3.1-53.9-10.1-80.3c-3.6-12.9-4-16.4-2.2-20.3
		c3.1-6.8,6.3-7.2,16.5-2c10.8,5.4,12.2,6.6,18.7,17.1c7.9,12.4,10.1,22.3,10.1,46.2c0,32.2-7,55.7-21.9,74.9
		C990.2,806.4,987.5,807.6,986.2,803.9L986.2,803.9z M986.2,803.9"/>
	<path class="st4" d="M112.1,267v-9H79.8v-7.9c0-7.4,0.4-8.1,4.9-8.6c4-0.4,5.2-1.8,6.1-5.9c1.6-7.2,1.8-49.8,0.5-61.5
		c-1.1-9-1.4-9.5-6.3-9.5c-5,0-5.2-0.4-5.2-7.9c0-9.5,1.1-10.1,19-10.1h13.3v-16.2h16.2v8.1c0,7.4,0.4,8.1,4.5,8.1
		c4.1,0,4.5-0.7,4.5-8.1v-8.1h16.2v8.6c0,8.6,0.2,8.8,7.2,11c21.7,6.5,27.3,27.3,11.5,43.5l-6.3,6.5l6.3,3.8
		c15.3,9,18.1,28.4,5.9,41.3c-4.9,5.2-16,11.1-21,11.1c-3.2,0-3.6,1.1-3.6,9.9v9.9h-16l-0.5-8.4c-0.5-7.4-1.1-8.6-4.5-9.2
		c-3.8-0.5-4.1,0-4.1,8.4v9.2h-16.2V267z M150.6,234.5c3.6-2.7,4.7-5.2,4.7-10.2c0-3.6-0.7-7.5-1.4-8.8c-2.3-3.6-11-5.9-22.1-5.9
		h-10.6v28.8h12.4C143.2,238.2,146.8,237.5,150.6,234.5L150.6,234.5z M149.7,187.2c3.8-3.4,4.9-10.8,2.3-14.9
		c-2.2-3.6-10.8-5.9-21.2-5.9h-9.7v25.5l12.4-0.7C142.5,190.8,147,189.6,149.7,187.2L149.7,187.2z M149.7,187.2"/>
	<path class="st4" d="M18.9,1270.8c0.7-46.7,1.3-53.5,5-69.2c2.3-9.7,4.7-17.6,5.2-17.6c0.5,0,4.7,6.8,9,15.1
		c9.9,19.2,25.2,36.1,43.8,48.5c14.4,9.5,15.3,9.9,33.1,11.9c12.9,1.4,22.5,1.4,33.1,0c8.3-0.9,16-1.8,17.1-1.8s4.5-2.3,7.2-5
		c2.9-2.9,11.3-10.1,18.9-16.2c7.5-6.1,16-13.7,18.9-16.9c12.4-14.9,29.5-64.9,29.5-86.8c0-11.3-5.6-33.8-11-44.6
		c-4.5-8.8-18.7-23-29.1-28.9c-4.1-2.5-16.4-7.4-27-11c-19.4-6.5-19.4-6.5-48.5-6.1l-28.9,0.4l-0.5-56.4
		c-0.2-31.1-0.9-167.6-1.3-303.5c-0.7-264.5-0.2-247.6-9.2-280.3c-1.6-5.4-3.6-12.8-4.5-16.2c-0.9-3.4-3.2-12.8-5.4-20.7
		s-4.5-17.6-5.4-21.6c-0.9-4-3.1-12.2-5-18.3l-3.6-11.1l9.3,4.7c20.3,10.2,33.1,13.5,57,14.4c26.1,1.1,43.5-2.3,63.8-12.2
		c12-5.9,14.7-6.1,11.9-0.4c-0.9,1.8-2.7,8.1-4,14c-1.3,5.9-2.9,12.4-3.8,14.4c-1.4,3.4-12.8,49.1-16.2,65.2
		c-0.7,4.1-2.5,9.3-3.8,11.7c-1.4,2.9-2.3,29.3-2.9,97.9c-0.5,51.6-0.4,93.8,0.2,93.8c0.9,0,21.4-8.6,34.5-14.4
		c7.2-3.2,54.4-18.9,72.8-24.1c11.7-3.4,37.2-9,61.6-13.5c12.2-2.3,18.3-4.3,20.1-6.6c1.4-2,9-16.4,16.9-32.2
		c14.7-30,17.8-36.5,35.9-76.7c6.1-13.5,15.1-32.7,19.9-42.6c4.9-9.7,11.3-23.4,14.6-30.2c3.1-6.6,10.6-22.3,16.4-34.7
		c5.9-12.4,14-29.3,18-37.7c20.7-43.3,78.7-160.4,93.6-188.7c13.3-25.3,35.4-64.7,40.2-71.9c2.2-3.4,4.1-7.2,4.1-8.4
		c0-1.3,0.9-2.3,1.8-2.3c1.1,0,1.8-0.7,1.8-1.8c0-2.9,11-20.3,16.9-26.4c4.1-4.7,6.8-5.9,12-5.9c7.5,0,10.8,3.6,28,31.4
		c9,14.4,11.3,18.7,35,61.8c6.6,12.4,34.7,67.6,62,122.4c45.6,92,53.7,108.3,65.2,133.9c9.9,21.9,14.7,32,25.7,54.8
		c6.3,13.3,13.3,28.2,15.4,32.9c2.2,4.9,8.1,17.2,13.1,27.9c8.4,18,13.7,29.3,22.6,48.9c21,46,21.6,46.7,42.9,51.2
		c46.7,9.9,66.1,14.9,99.4,26.1c28.6,9.5,67.2,25.3,77.6,31.8c3.8,2.3,7.2,4.1,7.7,4.1c0.4,0,7.5,4.9,15.6,10.6
		c28.2,20.1,46.4,43.8,46.4,60.9v7.9l-5.7-1.3c-10.1-2-41.5-11.1-68.8-19.8c-16.5-5.4-48.2-14-68.3-18.9c-8.8-2.2-24.3-5.8-34.1-8.1
		c-36.5-9-109.8-22.5-150.9-27.8c-121.6-16-251.7-18.7-381.8-7.9c-53,4.3-126.8,14.4-156.3,21c-6.5,1.4-18.1,3.6-26.1,4.9
		c-7.9,1.1-17.2,2.7-20.7,3.6c-3.4,0.9-16,3.8-27.8,6.5c-11.9,2.7-33.2,7.9-47.6,11.7c-14.4,3.8-31.4,7.9-38.1,9.2l-12.2,2.3
		l-0.4,165.3c-0.2,194.2-0.4,191.5,3.2,194.2c1.4,1.3,8.8,4.3,16.4,7c14.7,5.2,22.5,10.1,33.2,21l6.6,6.8l12.9-7.4
		c33.8-19.2,65.2-28.6,100.4-29.8c16.4-0.5,25.5-1.8,28.2-3.4c2.2-1.4,4.3-2.5,4.9-2.5c0.4,0,2.5,5.4,4.7,12.2
		c2.3,6.6,7.9,20.3,12.8,30.2c9.3,19.9,11.5,26.8,13.3,42.9c1.8,15.5,9,36.1,16.7,47.6c9.2,13.5,21.4,22.1,39.5,28
		c8.3,2.7,15.3,5.8,15.6,6.8c0.2,1.1,1.8,9.3,3.4,18.1c4.9,25.2,12.4,36.1,31.6,45.5c9.5,4.7,11.1,4.9,37.9,4.9h28l6.6,5.9
		c9.3,8.3,18.1,13.5,30.7,18.3c9.3,3.8,13.8,4.3,35,4.3c23.4,0.2,24.8-0.2,37.9-5.8c7.9-3.4,18.3-9.9,25.2-15.6l11.5-9.7l9.9,1.3
		c5.4,0.7,17.6,1.3,26.9,1.3c15.1,0,18.3-0.7,27.3-5.2c18.1-8.8,25.9-21,30.9-47.4c1.6-8.3,3.2-15.6,3.8-16.5
		c0.5-0.9,6.3-3.2,12.9-5.4c22.5-7.2,31.8-14,42.4-30.7c9.7-15.6,10.8-19,17.4-58.2c0.9-4.9,5.9-18.5,11.5-30.2
		c5.6-11.7,10.1-21.6,10.1-22.3c0-2.9,7.9-22.1,9-22.1c0.7,0,1.8,1.6,2.3,3.6c0.9,3.2,2.5,3.6,18.7,3.8c9.7,0,21.2,0.4,25.7,0.9
		c8.3,0.9,38.1,8.3,47.6,11.9c8.4,3.1,21.2,8.6,24.8,10.4c1.6,1.1,4.9,2.9,7.2,4c38.6,21,75.8,58.6,92.2,93.1
		c8.3,17.1,11.5,24.8,11.5,26.6c0,1.1,1.6,5.7,3.8,10.6c7,16.2,10.6,46.2,10.6,88.2v38.1H18.1L18.9,1270.8z M18.9,1270.8"/>
	<path class="st5" d="M19.2,1271c0.7-48,1.1-54.1,5-69.7l4.3-16.9l9,16c11,19.4,30.4,40.4,46.5,50.3l11.7,7.2l0.2,15.3
		c0,8.4-0.5,23.2-1.3,32.9l-1.1,17.4H18.3L19.2,1271z M19.2,1271"/>
	<path class="st5" d="M169.6,1303.3c0-11.1-0.5-25.7-1.1-32.3l-1.3-11.9l15.1-9.7c17.1-11.1,27.1-20.3,35.6-32.7
		c24.4-35.4,31.8-83.9,18.7-122.4c-3.1-8.8-5.2-16.7-4.9-17.4c0.4-0.5,6.6-4.3,13.8-8.3c33.8-18.5,63.6-27.3,98.3-28.6
		c16.4-0.5,25.5-1.8,28.2-3.4c2.2-1.4,4.3-2.5,4.9-2.5c0.4,0,2.5,5.4,4.7,12.2c2.3,6.6,7.9,20.3,12.8,30.2
		c9.3,19.9,11.5,26.8,13.3,42.9c1.8,15.5,9,36.1,16.7,47.6c9.2,13.5,21.4,22.1,39.5,28c8.3,2.7,15.3,5.8,15.6,6.8
		c0.2,1.1,1.8,9.3,3.4,18.1c4.9,25.2,12.4,36.1,31.6,45.5c9.3,4.7,11.1,4.9,37.2,4.9c25.3,0,27.5,0.2,32.3,4
		c22.6,17.8,37.7,24.1,61.6,25.2c29.8,1.6,50.5-5,71-22.5l10.8-9.3l9.9,1.4c5.4,0.7,17.6,1.3,26.9,1.3c15.1,0,18.3-0.7,27.3-5.2
		c18.1-8.8,25.9-21,30.9-47.4c1.6-8.3,3.2-15.6,3.8-16.5c0.5-0.9,6.3-3.2,12.9-5.4c22.5-7.2,31.8-14,42.4-30.7
		c9.7-15.6,10.8-19,17.4-58.2c0.9-4.9,5.9-18.5,11.5-30.2c5.6-11.7,10.1-21.6,10.1-22.3c0-2.9,7.9-22.1,9-22.1
		c0.7,0,1.8,1.6,2.3,3.6c0.9,3.2,2.5,3.6,18.7,3.8c9.7,0,21.2,0.4,25.7,0.9c8.3,0.9,38.1,8.3,47.6,11.9c8.4,3.1,21.2,8.6,24.8,10.4
		c1.6,1.1,4.9,2.9,7.2,4c38.6,21,75.8,58.6,92.2,93.1c8.3,17.1,11.5,24.8,11.5,26.6c0,1.1,1.6,5.7,3.8,10.6
		c7,16.2,10.6,46.2,10.6,88.2v38.1H169.6V1303.3z M169.6,1303.3"/>
	<path class="st5" d="M1201.8,705.9c-8.8-1.8-43.8-12.2-66.5-19.4c-16.5-5.4-48.2-14-68.3-18.9c-8.8-2.2-24.3-5.8-34.1-8.1
		c-36.5-9-109.8-22.5-150.9-27.8c-121.6-16-251.7-18.7-381.8-7.9c-53,4.3-126.8,14.4-156.3,21c-6.5,1.4-18.1,3.6-26.1,4.9
		c-7.9,1.1-17.2,2.7-20.7,3.6c-3.4,0.9-16,3.8-27.8,6.5c-11.9,2.7-31.6,7.4-44,10.8c-31.1,8.1-46.2,11.5-51.4,11.5h-4.3l0.4-30.9
		l0.5-30.9l18-7.9c9.9-4.1,19.6-8.4,21.7-9.3c5-2,56.6-18.9,69-22.3c11.7-3.4,37.2-9,61.6-13.5c12.2-2.3,18.3-4.3,20.1-6.6
		c1.4-2,9-16.4,16.9-32.2c14.7-30,17.8-36.5,35.9-76.7c6.1-13.5,15.1-32.7,19.9-42.6c4.9-9.7,11.3-23.4,14.6-30.2
		c3.1-6.6,10.6-22.3,16.4-34.7c5.9-12.4,14-29.3,18-37.7c20.7-43.3,78.7-160.4,93.6-188.7c13.3-25.3,35.4-64.7,40.2-71.9
		c2.2-3.4,4.1-7.2,4.1-8.4c0-1.3,0.9-2.3,1.8-2.3c1.1,0,1.8-0.7,1.8-1.8c0-2.9,11-20.3,16.9-26.6c4.1-4.5,6.8-5.8,12-5.8
		c7.5,0,10.8,3.6,28,31.4c9,14.4,11.3,18.7,35,61.8c6.6,12.4,34.7,67.6,62,122.4c45.6,92,53.7,108.3,65.2,133.9
		c9.9,21.9,14.7,32,25.7,54.8c6.3,13.3,13.3,28.2,15.4,32.9c2.2,4.9,8.1,17.2,13.1,27.9c8.4,18,13.7,29.3,22.6,48.9
		c21,46,21.6,46.7,42.9,51.2c46.7,9.9,66.1,14.9,99.4,26.1c28.6,9.5,67.2,25.3,77.6,31.8c3.8,2.3,7.2,4.1,7.7,4.1
		c0.4,0,7.5,4.9,15.6,10.6c28.2,19.9,46.4,43.8,46.4,60.7C1209.9,707.4,1209.6,707.7,1201.8,705.9L1201.8,705.9z M1201.8,705.9"/>
	<path class="st4" d="M563.3,929.6c-3.4-1.3-8.8-4.9-12.2-8.1c-5.4-5.6-5.9-7-5.9-16.5c0-10.4,0.2-10.6,5.6-11.7
		c3.1-0.5,11.5-1.1,18.5-1.1c29.3-0.2,49.1-3.2,66.1-10.1c15.1-5.9,17.1-6.5,22.1-4.3c22.5,9.3,30.7,11.1,64.7,13.7
		c18.7,1.3,35.2,2.3,36.7,2.5c3.6,0,1.4,19-3.1,25c-6.8,9.7-14.9,11.9-42.6,11.9c-13.8,0-33.6-0.9-44-2c-11.1-1.1-24.8-1.3-33.2-0.5
		C608.4,931.1,569.7,931.8,563.3,929.6L563.3,929.6z M563.3,929.6"/>
	<path class="st4" d="M619.7,811.9c-2.9-0.4-8.1-2.9-11.3-5.2c-14.6-11.1-15.1-30.9-1.3-43.8c4.7-4.3,5.6-4.5,41-5.7
		c36.3-1.1,36.3-1.1,44.6,3.2c10.4,5.8,14.2,12.2,14.2,24.1c0,11.1-4.1,19-12.9,24.3c-5.2,3.1-9.5,3.6-37.4,3.8
		C639.3,812.7,622.7,812.5,619.7,811.9L619.7,811.9z M619.7,811.9"/>
	<path d="M586.8,1315.6c-8.6-9.3-20.1-32.5-20.1-40.4c0-4.9,0.5-5.6,5.2-5.6c2.7,0,7.5,1.8,10.6,4.1c3.1,2.2,9.3,6.6,13.8,10.1
		c4.7,3.2,13.3,8.1,19.4,10.6c10.1,4.1,13.5,4.7,36.3,4.7c28.6,0,37-2.3,56.2-15.1l10.2-7l3.1,5.7c4.5,8.4,4,11.7-4.3,26.4
		l-7.7,13.5l-57.7,0.5l-57.7,0.4L586.8,1315.6z M586.8,1315.6"/>
	<path d="M488.5,766.7c-8.3-3.8-18.1-14.2-20.1-21.4c-2.3-8.3-1.6-54.4,0.9-61.8c2.7-7.5,16-20.5,22.8-22.3c9.3-2.3,25.3,0.2,32.9,5
		c11.7,7.9,15.5,18,16.2,43.7c0.4,11.9-0.2,25.7-1.3,30.7C534.7,763.8,509.9,776.5,488.5,766.7L488.5,766.7z M488.5,766.7"/>
	<path d="M784.3,765.9c-4.3-2.2-10.2-7.5-13.5-11.7l-5.6-7.9l-0.5-29.3c-0.5-24.8-0.2-30.4,2.5-35.4c7-13.8,18.5-21.2,33.4-21.2
		c17.4,0,30.9,10.1,35.6,26.8c2.5,9,2.3,50.3-0.4,57.9C828.6,766.3,803.9,776.4,784.3,765.9L784.3,765.9z M784.3,765.9"/>
</g>
</svg>
