<svg width="261" height="242" viewBox="0 0 261 242" fill="none" xmlns="http://www.w3.org/2000/svg">
<g clip-path="url(#clip0)">
<path d="M64.1 128.2C99.5014 128.2 128.2 99.5014 128.2 64.1C128.2 28.6985 99.5014 0 64.1 0C28.6985 0 0 28.6985 0 64.1C0 99.5014 28.6985 128.2 64.1 128.2Z" fill="#F3BA2C"/>
<path d="M44.3992 71.8999C50.8992 78.2999 57.2992 84.5999 63.6992 90.8999C70.0992 84.4999 76.5992 78.1999 82.9992 71.8999C86.7992 75.5999 90.4992 79.2999 94.1992 82.9999C84.0992 92.9999 73.8992 103 63.6992 113C53.4992 103 43.3992 92.9999 33.1992 82.9999C36.8992 79.2999 40.5992 75.5999 44.3992 71.8999Z" fill="white"/>
<path d="M33.1992 45.2C43.3992 35.2 53.4992 25.2 63.6992 15.2C73.8992 25.2 83.9992 35.2 94.1992 45.2C90.4992 48.8 86.7992 52.5 82.9992 56.2C76.5992 49.9 70.1992 43.5 63.6992 37.2C57.1992 43.6 50.7992 49.9 44.3992 56.2C40.6992 52.5 36.8992 48.8 33.1992 45.2Z" fill="white"/>
<path d="M52.3984 64.1C56.1984 60.4 59.8984 56.7 63.6984 53C67.4984 56.7 71.2984 60.4 74.9984 64.2C71.1984 67.9 67.4984 71.6 63.6984 75.3C59.9984 71.5 56.1984 67.8 52.3984 64.1Z" fill="white"/>
<path d="M14 64.0999C17.7 60.4999 21.4 56.7999 25.1 53.0999C28.8 56.6999 32.5 60.3999 36.2 64.0999C32.5 67.6999 28.8 71.3999 25.1 75.0999C21.5 71.3999 17.7 67.6999 14 64.0999Z" fill="white"/>
<path d="M91.1016 63.9999C94.8016 60.3999 98.5016 56.6999 102.202 53.0999C105.902 56.7999 109.602 60.3999 113.402 64.0999C109.702 67.6999 106.002 71.3999 102.302 74.9999C98.6016 71.3999 94.9016 67.6999 91.1016 63.9999Z" fill="white"/>
<path d="M162.7 241.9C216.934 241.9 260.9 197.934 260.9 143.7C260.9 89.4656 216.934 45.5 162.7 45.5C108.466 45.5 64.5 89.4656 64.5 143.7C64.5 197.934 108.466 241.9 162.7 241.9Z" fill="black"/>
<path d="M182.5 98C182.4 98 182.3 98 182.3 98C182.2 98 182.1 98 182.1 98C182 98 182 98 181.9 98C181.8 98 181.8 98 181.7 98C181.6 98 181.5 98 181.4 98C181.1 98 180.9 98 180.6 98H125.5C120.3 98 116 102.2 116 107.5C116 112.7 120.2 117 125.5 117H180.6C180.9 117 181.1 117 181.4 117C181.7 117 181.9 117 182.2 117C192.6 117 201.1 125.5 201.1 135.9C201.1 146.3 192.6 154.8 182.2 154.8H163.3V145.3H182.2C187.4 145.3 191.7 141 191.7 135.8C191.7 130.6 187.4 126.3 182.2 126.3H153.9H138.1C132.9 126.3 128.6 130.5 128.6 135.8C128.6 141 132.8 145.3 138.1 145.3H144.4V154.8V173.7V195.8C144.4 201 148.7 205.3 153.9 205.3C159.1 205.3 163.4 201 163.4 195.8V173.7H182.3C203.2 173.7 220.1 156.8 220.1 135.9C220.1 115 203.3 98.1 182.5 98Z" fill="url(#paint0_linear)"/>
</g>
<defs>
<linearGradient id="paint0_linear" x1="197.556" y1="87.2037" x2="123.519" y2="185.543" gradientUnits="userSpaceOnUse">
<stop stop-color="#009F98"/>
<stop offset="1" stop-color="#41FF7A"/>
</linearGradient>
<clipPath id="clip0">
<rect width="260.9" height="242" fill="white"/>
</clipPath>
</defs>
</svg>