<svg width="90" height="90" viewBox="0 0 90 90" xmlns="http://www.w3.org/2000/svg">
    <g fill-rule="nonzero" fill="none">
        <circle fill="#2B313B" cx="45" cy="45" r="45"/>
        <path d="M38.31 53.158v6.79A5.053 5.053 0 0 0 43.363 65h4.042a5.053 5.053 0 0 0 5.053-5.053v-6.794a14.965 14.965 0 1 0-14.148 0v.005zm11.392.57v3.95h-8.636v-3.95h8.636zm-2.297 8.498h-4.042a2.297 2.297 0 0 1-2.242-1.815h8.526a2.297 2.297 0 0 1-2.242 1.833v-.018zm-2.021-34.47a12.21 12.21 0 0 1 5.236 23.216h-3.858V39.029a1.378 1.378 0 0 0-2.756 0v11.943h-3.859a12.21 12.21 0 0 1 5.237-23.216z" fill="#00C3FF"/>
    </g>
</svg>
