<svg width="90" height="90" viewBox="0 0 90 90" xmlns="http://www.w3.org/2000/svg">
    <g fill-rule="nonzero" fill="none">
        <circle fill="#2B313B" cx="45" cy="45" r="45"/>
        <path d="M45.193 65 29.648 49.454a10.738 10.738 0 0 1-3.168-7.644 10.74 10.74 0 0 1 3.168-7.644A10.738 10.738 0 0 1 37.29 31c2.887 0 5.602 1.124 7.643 3.166l.259.258.257-.258A10.741 10.741 0 0 1 53.094 31c2.888 0 5.602 1.124 7.644 3.166a10.737 10.737 0 0 1 3.167 7.644c0 2.888-1.124 5.602-3.167 7.644L45.193 65zm-7.902-30.684c-2.002 0-3.883.78-5.299 2.195a7.442 7.442 0 0 0-2.196 5.299c0 2.001.78 3.884 2.196 5.299l13.201 13.2 13.201-13.2a7.446 7.446 0 0 0 2.195-5.299c0-2.002-.78-3.883-2.195-5.299a7.447 7.447 0 0 0-5.3-2.195c-2 0-3.883.78-5.298 2.195l-2.603 2.603-2.603-2.603a7.445 7.445 0 0 0-5.299-2.195z" fill="#00C3FF"/>
    </g>
</svg>
