<svg version="1.1" id="Layer_1" xmlns="http://www.w3.org/2000/svg" xmlns:xlink="http://www.w3.org/1999/xlink"
	 viewBox="0 0 1474.4 264.5" style="enable-background:new 0 0 1474.4 264.5;" xml:space="preserve">
<style type="text/css">
	.st0{fill:#F0D003;}
	.st1{fill:#FFFFFF;}
</style>
<g>
	<g>
		<g>
			<polygon class="st0" points="1152.4,172.2 1152.4,92.3 1137.6,92.3 1137.6,125.4 1109.2,125.4 1109.2,92.3 1094.4,92.3 
				1094.4,172.2 1109.2,172.2 1109.2,138.4 1137.6,138.4 1137.6,172.2 			"/>
			<path class="st0" d="M1221,157.9l4.8,14.3h15.4L1212,92.3h-11.7l-29.1,79.9h15.4l4.9-14.3L1221,157.9L1221,157.9z M1206.6,114.1
				l10.6,31.5h-21.5L1206.6,114.1z"/>
			<polygon class="st0" points="325.6,159 325.6,92.3 310.7,92.3 310.7,172.2 355.6,172.2 362,159 			"/>
			<rect x="385" y="92.3" class="st0" width="14.9" height="79.9"/>
			<polygon class="st0" points="556.1,92.3 556.1,125.3 527.9,125.3 527.9,92.3 513,92.3 513,172.2 527.9,172.2 527.9,138.4 
				556.1,138.4 556.1,172.2 571,172.2 571,92.3 			"/>
			<polygon class="st0" points="654.1,92.3 597,92.3 590.7,105.5 614.9,105.5 614.9,172.2 629.8,172.2 629.8,105.5 647.7,105.5 			
				"/>
			<polygon class="st0" points="734.7,172.2 734.7,92.3 719.7,92.3 719.7,142.8 719,141.6 687.1,92.3 673.7,92.3 673.7,172.2 
				688.6,172.2 688.6,121.6 721.3,172.2 			"/>
			<rect x="763.5" y="92.3" class="st0" width="14.9" height="79.9"/>
			<polygon class="st0" points="868.1,172.2 868.1,92.3 853.2,92.3 853.2,142.8 852.4,141.6 820.6,92.3 807.1,92.3 807.1,172.2 
				822.1,172.2 822.1,121.6 854.7,172.2 			"/>
			<g>
				<path class="st0" d="M917,172c1,0.2,2,0.4,3.1,0.6h0.2c1.6,0.2,3,0.3,4.4,0.3c1.2,0,2.4-0.1,3.7-0.2c0.1,0,0.1,0,0.1,0h0.1
					c0.1,0,0.1,0,0.2,0c0.1,0,0.2,0,0.3,0c8.3-0.7,15.3-3.8,20.7-9.3c5.5-5.5,7.6-12.3,7.6-24.3v-11.5h-23.1l-6.8,12.6H942h0.3v0.3
					v3.1c0,4.7-1.2,8.4-3.7,10.9c-3.1,3.2-6.8,4.1-9.7,4.6c-1.2,0.2-2.3,0.3-3.4,0.3c-9.9,0-19.9-8.3-19.9-27
					c0-13.5,6-27.1,19.3-27.1c0.9,0,1.9,0.1,2.9,0.2c5.5,0.9,11.8,4.5,13.9,10.6l12.7-7.5c-1.5-3-8.5-14.8-25.8-16.6h-0.3l0,0l0,0
					c-1.3-0.1-2.5-0.2-3.7-0.2c-2.6,0-5.2,0.3-7.7,0.9l-0.4,0.1h-0.2c-0.5,0.1-1,0.3-1.5,0.4c-15.5,4.4-25,19.5-24.6,39.3
					c0,20.1,9.7,35.1,25.2,39.3v0.2c0,0,0,0,0.1,0l0,0v-0.1C916.2,171.8,916.6,171.9,917,172z"/>
			</g>
			<g>
				<path class="st0" d="M448.8,172c1,0.2,2,0.4,3.1,0.6h0.2c1.6,0.2,3,0.3,4.4,0.3c1.2,0,2.4-0.1,3.7-0.2c0.1,0,0.1,0,0.1,0h0.1
					c0.1,0,0.1,0,0.2,0s0.2,0,0.3,0c8.3-0.7,15.3-3.8,20.7-9.3c5.5-5.5,7.6-12.3,7.6-24.3v-11.5h-23.1l-6.8,12.6h14.5h0.3v0.3v3.1
					c0,4.7-1.2,8.4-3.7,10.9c-3.1,3.2-6.8,4.1-9.7,4.6c-1.2,0.2-2.3,0.3-3.4,0.3c-9.9,0-19.9-8.3-19.9-27c0-13.5,6-27.1,19.3-27.1
					c0.9,0,1.9,0.1,2.9,0.2c5.5,0.9,11.8,4.5,13.9,10.6l12.7-7.5c-1.5-3-8.5-14.8-25.8-16.6h-0.3l0,0l0,0c-1.3-0.1-2.5-0.2-3.7-0.2
					c-2.6,0-5.2,0.3-7.7,0.9l-0.4,0.1h-0.2c-0.5,0.1-1,0.3-1.5,0.4c-15.5,4.4-25,19.5-24.6,39.3c0,20.1,9.7,35.1,25.2,39.3v0.2
					c0,0,0,0,0.1,0l0,0v-0.1C447.9,171.8,448.4,171.9,448.8,172z"/>
			</g>
			<path class="st0" d="M1047.2,159.8c-1,0.1-2,0.2-3,0.2c-13.7,0-19.9-13.9-19.9-27.7l0,0l0,0c0-13.8,6.2-27.7,19.9-27.7
				c1,0,2,0.1,3,0.2c5.5,0.9,11.9,4.5,14.2,10.5l12.1-7.1c-2-3.8-9-14.5-25.6-16.2l-0.6-0.1c-1.3-0.1-2.4-0.2-3.4-0.2
				c-2.6,0-5.2,0.3-7.7,0.9l-0.5,0.1c-0.5,0.1-1,0.3-1.5,0.4c-15.4,4.4-24.8,19.3-24.6,39v0.1v0.1v0.1v0.1
				c-0.2,19.7,9.2,34.6,24.6,39c0.5,0.2,1,0.3,1.5,0.4l0.5,0.1c2.5,0.6,5.1,0.9,7.7,0.9c1.1,0,2.2,0,3.4-0.2l0.6-0.1
				c16.6-1.7,23.6-12.5,25.6-16.2l-12.1-7.1C1059.1,155.3,1052.7,158.9,1047.2,159.8z"/>
			<g>
				<path class="st0" d="M1362.1,172c1,0.2,2,0.4,3.1,0.6h0.2c1.6,0.2,3,0.3,4.4,0.3c1.2,0,2.4-0.1,3.7-0.2c0.1,0,0.1,0,0.1,0h0.1
					c0.1,0,0.1,0,0.2,0s0.2,0,0.3,0c8.3-0.7,15.3-3.8,20.7-9.3c5.5-5.5,7.6-12.3,7.6-24.3v-11.5h-23.1l-6.8,12.6h14.5h0.3v0.3v3.1
					c0,4.7-1.2,8.4-3.7,10.9c-3.1,3.2-6.8,4.1-9.7,4.6c-1.2,0.2-2.3,0.3-3.4,0.3c-9.9,0-19.9-8.3-19.9-27c0-13.5,6-27.1,19.3-27.1
					c0.9,0,1.9,0.1,2.9,0.2c5.5,0.9,11.8,4.5,13.9,10.6l12.7-7.5c-1.5-3-8.5-14.8-25.8-16.6h-0.3l0,0l0,0c-1.3-0.1-2.5-0.2-3.7-0.2
					c-2.6,0-5.2,0.3-7.7,0.9l-0.4,0.1h-0.2c-0.5,0.1-1,0.3-1.5,0.4c-15.5,4.4-25,19.5-24.6,39.3c0,20.1,9.7,35.1,25.2,39.3v0.2
					c0,0,0,0,0.1,0l0,0v-0.1C1361.2,171.8,1361.7,171.9,1362.1,172z"/>
			</g>
			<path class="st0" d="M1300.1,172.2h17.1l-20.2-33.5l0.6-0.1c1.8-0.4,3.3-0.8,4.8-1.2c9-3.3,14.5-11.1,14.5-20.8
				c0-14.3-10.6-24.3-25.8-24.3h-31.2v79.9h14.9V140h6.5L1300.1,172.2z M1274.8,105.5h15.3c7,0,11.9,4.6,11.9,11.1
				s-4.9,11.1-11.9,11.1h-15.3V105.5z"/>
			<polygon class="st0" points="1474.4,105.4 1474.4,92.3 1422.1,92.3 1422.1,172.2 1474.4,172.2 1474.4,159.1 1436.9,159.1 
				1436.9,138.5 1468.8,138.5 1468.8,125.4 1436.9,125.4 1436.9,105.4 			"/>
		</g>
	</g>
	<g>
		<path class="st0" d="M141.8,62.4l44-52.1L0,150.8h20.7h46.4h28.7L227.2,0L141.8,62.4z M11,147.1L161.6,33.2l-32.4,38.4L25.8,147.1
			H11z"/>
		<path class="st1" d="M251.8,113.7h-20.7h-46.4H156L24.6,264.5l85.4-62.4l-44,52.1L251.8,113.7z M226,117.4h14.8L90.2,231.3
			l32.4-38.4L226,117.4z"/>
	</g>
</g>
</svg>