<?xml version="1.0" encoding="utf-8"?>
<!-- Generator: Adobe Illustrator 25.3.1, SVG Export Plug-In . SVG Version: 6.00 Build 0)  -->
<svg version="1.1" id="Layer_1" xmlns="http://www.w3.org/2000/svg" xmlns:xlink="http://www.w3.org/1999/xlink" x="0px" y="0px"
	 viewBox="0 0 600 600" style="enable-background:new 0 0 600 600;" xml:space="preserve">
<style type="text/css">
	.st0{fill:none;stroke:url(#SVGID_1_);stroke-width:0.5;}
	.st1{fill:none;stroke:url(#SVGID_2_);stroke-width:0.5;}
	.st2{fill:none;stroke:url(#SVGID_3_);stroke-width:0.5;}
	.st3{fill:none;stroke:url(#SVGID_4_);stroke-width:0.5;}
	.st4{fill:none;stroke:url(#SVGID_5_);stroke-width:0.5;}
	.st5{fill:none;stroke:url(#SVGID_6_);stroke-width:0.5;}
	.st6{fill:none;stroke:url(#SVGID_7_);stroke-width:0.5;}
	.st7{fill:none;stroke:url(#SVGID_8_);stroke-width:0.5;}
	.st8{fill:none;stroke:url(#SVGID_9_);stroke-width:0.5;}
	.st9{fill:#F0D003;}
	.st10{fill:#FFFAE6;}
</style>
<g>
	<g>
		
			<linearGradient id="SVGID_1_" gradientUnits="userSpaceOnUse" x1="-7794.7661" y1="1706.0325" x2="-7582.5464" y2="1706.0325" gradientTransform="matrix(-7.8058 4.0333 7.7017 -5.8701 -72783.7891 41262.7148)">
			<stop  offset="0" style="stop-color:#F0D003"/>
			<stop  offset="0.2815" style="stop-color:#F8DC01;stop-opacity:0.5489"/>
			<stop  offset="0.624" style="stop-color:#FFE600;stop-opacity:0"/>
			<stop  offset="0.8451" style="stop-color:#FDE703;stop-opacity:0.6903"/>
			<stop  offset="0.9443" style="stop-color:#F9EA08"/>
			<stop  offset="1" style="stop-color:#111316"/>
		</linearGradient>
		<path class="st0" d="M139.2,211.7L0,575.3l600-310l0,0L139.2,211.7z"/>
	</g>
	<g>
		
			<linearGradient id="SVGID_2_" gradientUnits="userSpaceOnUse" x1="-7806.4272" y1="1509.0409" x2="-7594.2139" y2="1509.0409" gradientTransform="matrix(-5.9198 3.0279 5.3808 -4.5328 -53327.3203 30384.7656)">
			<stop  offset="0" style="stop-color:#F0D003"/>
			<stop  offset="0.2815" style="stop-color:#F8DC01;stop-opacity:0.5489"/>
			<stop  offset="0.624" style="stop-color:#FFE600;stop-opacity:0"/>
			<stop  offset="0.8451" style="stop-color:#FDE703;stop-opacity:0.6903"/>
			<stop  offset="0.9443" style="stop-color:#F9EA08"/>
			<stop  offset="1" style="stop-color:#111316"/>
		</linearGradient>
		<path class="st1" d="M165.1,199.7l-34.6,292.4l455-232.7l0,0L165.1,199.7z"/>
	</g>
	<g>
		
			<linearGradient id="SVGID_3_" gradientUnits="userSpaceOnUse" x1="-7758.8169" y1="1296.2435" x2="-7546.6196" y2="1296.2435" gradientTransform="matrix(-4.4971 2.271 3.6542 -3.5197 -38772.4375 22163.5645)">
			<stop  offset="0" style="stop-color:#F0D003"/>
			<stop  offset="0.2815" style="stop-color:#F8DC01;stop-opacity:0.5489"/>
			<stop  offset="0.624" style="stop-color:#FFE600;stop-opacity:0"/>
			<stop  offset="0.8451" style="stop-color:#FDE703;stop-opacity:0.6903"/>
			<stop  offset="0.9443" style="stop-color:#F9EA08"/>
			<stop  offset="1" style="stop-color:#111316"/>
		</linearGradient>
		<path class="st2" d="M185,190.8l40.6,237.8L571.3,254l0,0L185,190.8z"/>
	</g>
	<g>
		
			<linearGradient id="SVGID_4_" gradientUnits="userSpaceOnUse" x1="-7630.624" y1="1063.6973" x2="-7418.4624" y2="1063.6973" gradientTransform="matrix(-3.4233 1.7014 2.3742 -2.751 -27904.4961 15944.8965)">
			<stop  offset="0" style="stop-color:#F0D003"/>
			<stop  offset="0.2815" style="stop-color:#F8DC01;stop-opacity:0.5489"/>
			<stop  offset="0.624" style="stop-color:#FFE600;stop-opacity:0"/>
			<stop  offset="0.8451" style="stop-color:#FDE703;stop-opacity:0.6903"/>
			<stop  offset="0.9443" style="stop-color:#F9EA08"/>
			<stop  offset="1" style="stop-color:#111316"/>
		</linearGradient>
		<path class="st3" d="M200.4,184.3l93.7,195.8l263.1-130.8l0,0L200.4,184.3z"/>
	</g>
	<g>
		
			<linearGradient id="SVGID_5_" gradientUnits="userSpaceOnUse" x1="-7390.4419" y1="809.3972" x2="-7178.249" y2="809.3972" gradientTransform="matrix(-2.6126 1.2727 1.4296 -2.1669 -19809.3262 11236.5029)">
			<stop  offset="0" style="stop-color:#F0D003"/>
			<stop  offset="0.2815" style="stop-color:#F8DC01;stop-opacity:0.5489"/>
			<stop  offset="0.624" style="stop-color:#FFE600;stop-opacity:0"/>
			<stop  offset="0.8451" style="stop-color:#FDE703;stop-opacity:0.6903"/>
			<stop  offset="0.9443" style="stop-color:#F9EA08"/>
			<stop  offset="1" style="stop-color:#111316"/>
		</linearGradient>
		<path class="st4" d="M212.5,179.4L343,342.7l200.8-97.8l0,0L212.5,179.4z"/>
	</g>
	<g>
		
			<linearGradient id="SVGID_6_" gradientUnits="userSpaceOnUse" x1="-6998.7476" y1="527.5114" x2="-6786.5698" y2="527.5114" gradientTransform="matrix(-2.0002 0.9503 0.7367 -1.7219 -13798.3535 7666.5825)">
			<stop  offset="0" style="stop-color:#F0D003"/>
			<stop  offset="0.2815" style="stop-color:#F8DC01;stop-opacity:0.5489"/>
			<stop  offset="0.624" style="stop-color:#FFE600;stop-opacity:0"/>
			<stop  offset="0.8451" style="stop-color:#FDE703;stop-opacity:0.6903"/>
			<stop  offset="0.9443" style="stop-color:#F9EA08"/>
			<stop  offset="1" style="stop-color:#111316"/>
		</linearGradient>
		<path class="st5" d="M222,175.9l155.1,138l153.7-73l0,0L222,175.9z"/>
	</g>
	<g>
		
			<linearGradient id="SVGID_7_" gradientUnits="userSpaceOnUse" x1="-6401.8403" y1="212.8528" x2="-6189.6147" y2="212.8528" gradientTransform="matrix(-1.5371 0.7079 0.2323 -1.3821 -9352.2197 4955.9082)">
			<stop  offset="0" style="stop-color:#F0D003"/>
			<stop  offset="0.2815" style="stop-color:#F8DC01;stop-opacity:0.5489"/>
			<stop  offset="0.624" style="stop-color:#FFE600;stop-opacity:0"/>
			<stop  offset="0.8451" style="stop-color:#FDE703;stop-opacity:0.6903"/>
			<stop  offset="0.9443" style="stop-color:#F9EA08"/>
			<stop  offset="1" style="stop-color:#111316"/>
		</linearGradient>
		<path class="st6" d="M229.5,173.3l170.7,118.1L518.4,237l0,0L229.5,173.3z"/>
	</g>
	<g>
		
			<linearGradient id="SVGID_8_" gradientUnits="userSpaceOnUse" x1="-5527.1792" y1="-141.7046" x2="-5314.9917" y2="-141.7046" gradientTransform="matrix(-1.1868 0.5257 -0.131 -1.1217 -6081.0112 2893.2908)">
			<stop  offset="0" style="stop-color:#F0D003"/>
			<stop  offset="0.2815" style="stop-color:#F8DC01;stop-opacity:0.5489"/>
			<stop  offset="0.624" style="stop-color:#FFE600;stop-opacity:0"/>
			<stop  offset="0.8451" style="stop-color:#FDE703;stop-opacity:0.6903"/>
			<stop  offset="0.9443" style="stop-color:#F9EA08"/>
			<stop  offset="1" style="stop-color:#111316"/>
		</linearGradient>
		<path class="st7" d="M235.5,171.5l179.7,102.4l91.2-40.4l0,0L235.5,171.5z"/>
	</g>
	<g>
		
			<linearGradient id="SVGID_9_" gradientUnits="userSpaceOnUse" x1="-4280.8657" y1="-546.527" x2="-4068.6675" y2="-546.527" gradientTransform="matrix(-0.9213 0.3888 -0.3888 -0.9213 -3690.7229 1319.7528)">
			<stop  offset="0" style="stop-color:#F0D003"/>
			<stop  offset="0.2815" style="stop-color:#F8DC01;stop-opacity:0.5489"/>
			<stop  offset="0.624" style="stop-color:#FFE600;stop-opacity:0"/>
			<stop  offset="0.8451" style="stop-color:#FDE703;stop-opacity:0.6903"/>
			<stop  offset="0.9443" style="stop-color:#F9EA08"/>
			<stop  offset="1" style="stop-color:#111316"/>
		</linearGradient>
		<path class="st8" d="M240.4,170.2l183.8,89.9l70.8-29.9l0,0L240.4,170.2z"/>
	</g>
</g>
<g>
	<g>
		<polygon class="st9" points="167.8,235.5 116,305.3 175.6,289.8 139.9,289.8 		"/>
		<polygon class="st10" points="123.2,370 175,300.2 115.4,315.7 151.1,315.7 		"/>
	</g>
	<g>
		<polygon class="st9" points="228.7,298.1 226.3,302.8 238.7,302.8 241,298.1 		"/>
		<polygon class="st9" points="254.8,309.8 254.8,285.5 249.4,285.5 249.4,314.6 265.7,314.6 268,309.8 		"/>
		<rect x="276.4" y="285.5" class="st9" width="5.4" height="29.1"/>
		<polygon class="st9" points="338.6,285.5 338.6,297.5 328.4,297.5 328.4,285.5 323,285.5 323,314.6 328.4,314.6 328.4,302.3 
			338.6,302.3 338.6,314.6 344.1,314.6 344.1,285.5 		"/>
		<polygon class="st9" points="374.3,285.5 353.5,285.5 351.2,290.3 360,290.3 360,314.6 365.5,314.6 365.5,290.3 371.9,290.3 		"/>
		<polygon class="st9" points="403.6,314.6 403.6,285.5 398.2,285.5 398.2,303.9 397.9,303.4 386.3,285.5 381.4,285.5 381.4,314.6 
			386.8,314.6 386.8,296.2 398.7,314.6 		"/>
		<rect x="414.1" y="285.5" class="st9" width="5.4" height="29.1"/>
		<polygon class="st9" points="452.1,314.6 452.1,285.5 446.7,285.5 446.7,303.9 446.4,303.4 434.8,285.5 429.9,285.5 429.9,314.6 
			435.4,314.6 435.4,296.2 447.3,314.6 		"/>
		<g>
			<path class="st9" d="M469.9,314.5c0.4,0.1,0.7,0.2,1.1,0.2h0.1c0.6,0.1,1.1,0.1,1.6,0.1c0.4,0,0.9,0,1.3-0.1c0,0,0,0,0,0
				c0,0,0,0,0,0c0,0,0,0,0.1,0c0,0,0.1,0,0.1,0c3-0.2,5.6-1.4,7.5-3.4c2-2,2.8-4.5,2.8-8.8v-4.2h-8.4l-2.5,4.6h5.3h0.1v0.1v1.1
				c0,1.7-0.4,3.1-1.4,4c-1.1,1.2-2.5,1.5-3.5,1.7c-0.4,0.1-0.8,0.1-1.2,0.1c-3.6,0-7.2-3-7.2-9.8c0-4.9,2.2-9.9,7-9.9
				c0.4,0,0.7,0,1.1,0.1c2,0.3,4.3,1.6,5.1,3.8l4.6-2.7c-0.5-1.1-3.1-5.4-9.4-6H474l0,0h0c-0.5,0-0.9-0.1-1.4-0.1
				c-0.9,0-1.9,0.1-2.8,0.3l-0.1,0l-0.1,0c-0.2,0-0.4,0.1-0.5,0.2c-5.7,1.6-9.1,7.1-9,14.3c0,7.3,3.5,12.8,9.2,14.3v0.1h0l0,0l0,0
				C469.6,314.4,469.8,314.5,469.9,314.5z"/>
		</g>
		<g>
			<path class="st9" d="M299.6,314.5c0.4,0.1,0.7,0.2,1.1,0.2h0.1c0.6,0.1,1.1,0.1,1.6,0.1c0.4,0,0.9,0,1.3-0.1c0,0,0,0,0,0
				c0,0,0,0,0,0s0,0,0.1,0c0,0,0.1,0,0.1,0c3-0.2,5.6-1.4,7.5-3.4c2-2,2.8-4.5,2.8-8.8v-4.2h-8.4l-2.5,4.6h5.3h0.1v0.1v1.1
				c0,1.7-0.4,3.1-1.4,4c-1.1,1.2-2.5,1.5-3.5,1.7c-0.4,0.1-0.8,0.1-1.2,0.1c-3.6,0-7.2-3-7.2-9.8c0-4.9,2.2-9.9,7-9.9
				c0.4,0,0.7,0,1.1,0.1c2,0.3,4.3,1.6,5.1,3.8l4.6-2.7c-0.5-1.1-3.1-5.4-9.4-6h-0.1l0,0h0c-0.5,0-0.9-0.1-1.4-0.1
				c-0.9,0-1.9,0.1-2.8,0.3l-0.1,0l-0.1,0c-0.2,0-0.4,0.1-0.5,0.2c-5.7,1.6-9.1,7.1-9,14.3c0,7.3,3.5,12.8,9.2,14.3v0.1h0l0,0l0,0
				C299.3,314.4,299.4,314.5,299.6,314.5z"/>
		</g>
		<path class="st9" d="M210.1,310.1c-0.4,0-0.7,0.1-1.1,0.1c-5,0-7.2-5.1-7.2-10.1l0,0l0,0c0-5,2.2-10.1,7.2-10.1
			c0.4,0,0.7,0,1.1,0.1c2,0.3,4.3,1.6,5.1,3.8l4.4-2.6c-0.7-1.4-3.3-5.3-9.3-5.9l-0.2,0c-0.5,0-0.9-0.1-1.2-0.1
			c-0.9,0-1.9,0.1-2.8,0.3l-0.2,0c-0.2,0-0.4,0.1-0.5,0.2c-5.6,1.6-9,7-9,14.2v0c0,0,0,0,0,0s0,0,0,0v0c-0.1,7.2,3.3,12.6,9,14.2
			c0.2,0,0.4,0.1,0.5,0.2l0.2,0c0.9,0.2,1.8,0.3,2.8,0.3c0.4,0,0.8,0,1.2-0.1l0.2,0c6-0.6,8.6-4.5,9.3-5.9l-4.4-2.6
			C214.5,308.5,212.1,309.7,210.1,310.1z"/>
	</g>
</g>
</svg>
