<svg id="Layer_1" data-name="Layer 1" xmlns="http://www.w3.org/2000/svg" viewBox="0 0 826.1954 299.9426">
  <g>
    <path id="logoMark" d="M299.7874,0,0,.5073.0137,299.9382l299.7737.0044v-.0049h.0041ZM139.17,278.5093h0v0H21.4421V21.4287H139.17V53.41H53.4563V246.2671H139.17Zm53.5716-139.385H74.8848V74.8386h117.857a32.1429,32.1429,0,0,1,0,64.2857Zm32.1428,53.5713v32.1428h-150V160.5527h117.857A32.1409,32.1409,0,0,1,224.8846,192.6956Zm53.4742,85.8137h-117.76V246.2671h85.7146V192.6956a53.47,53.47,0,0,0-21.4287-42.8465v-.01h-.0105A53.566,53.566,0,0,0,192.7418,53.41H160.5987V21.429l117.76,0Z" style="fill: #fff"/>
    <path id="fullLogo" d="M401.9583,53.8984c15.2716,0,25.2172,8.8794,25.2172,20.8369,0,8.17-4.7351,15.0356-12.1951,18.5874,9.8267,2.9608,15.9845,10.7741,15.9845,20.72,0,12.6688-10.8929,22.7316-26.9947,22.7316H366.4391V53.8984Zm-2.7232,35.044c8.8794,0,14.3259-5.4449,14.3259-12.1936,0-6.63-5.4465-12.1951-14.3259-12.1951h-19.18V88.9424Zm-19.18,37.1762h21.6654c9.7079,0,15.628-6.1561,15.628-13.6161,0-7.5772-5.92-13.6146-15.628-13.6146H380.0553Z" style="fill: #fff"/>
    <path id="fullLogo-2" data-name="fullLogo" d="M462.46,58.99a8.5842,8.5842,0,1,1-8.5245-8.5245A8.3175,8.3175,0,0,1,462.46,58.99ZM447.3059,76.0375h13.26v60.7364h-13.26Z" style="fill: #fff"/>
    <path id="fullLogo-3" data-name="fullLogo" d="M500.9851,76.0375h21.3106V86.4568H500.9851v29.2426c0,6.9863,3.433,10.3,9.1155,10.3a41.3321,41.3321,0,0,0,10.538-1.5382l1.6571,10.7725s-5.8013,2.7232-15.1544,2.7232c-11.7215,0-19.18-6.63-19.18-19.297V86.4568h-11.84V76.0375h11.84V61.0019h13.0236Z" style="fill: #fff"/>
    <path id="fullLogo-4" data-name="fullLogo" d="M587.4473,126.9472s-8.0509,11.01-24.2714,11.01c-18.4685,0-32.2019-13.6145-32.2019-31.3733s14.207-31.73,32.6755-31.73c15.5109,0,23.3241,9.9456,23.3241,9.9456l-8.8794,8.6418a18.7287,18.7287,0,0,0-14.6807-6.63,19.0888,19.0888,0,0,0-19.4175,19.5347c0,11.129,8.2886,19.6535,19.4175,19.6535,10.5365,0,15.1544-7.3395,15.1544-7.3395Z" style="fill: #fff"/>
    <path id="fullLogo-5" data-name="fullLogo" d="M661.4432,106.11c0,17.7588-14.2087,31.847-32.6772,31.847-18.47,0-32.2035-13.6145-32.2035-31.3733s14.2071-31.73,32.6772-31.73C647.7082,74.8541,661.4432,88.3515,661.4432,106.11Zm-13.0237.236a19.417,19.417,0,1,0-38.8333,0c0,11.129,8.2869,19.6535,19.4159,19.6535C640.0138,126,648.42,117.4753,648.42,106.3463Z" style="fill: #fff"/>
    <path id="fullLogo-6" data-name="fullLogo" d="M691.4682,58.99a8.5834,8.5834,0,1,1-8.5246-8.5245A8.3166,8.3166,0,0,1,691.4682,58.99ZM676.3138,76.0375h13.2613v60.7364H676.3138Z" style="fill: #fff"/>
    <path id="fullLogo-7" data-name="fullLogo" d="M718.9382,136.7739H705.9161V76.0375H717.4l.8286,10.5381c4.38-7.8148,12.1951-11.7215,21.1917-11.7215,12.9065,0,23.3241,8.8794,23.3241,26.2834v35.6364H749.7206V105.2817c0-13.0236-6.63-18.47-14.5619-18.47-8.8794,0-16.22,5.5653-16.22,19.6535Z" style="fill: #fff"/>
    <path id="fullLogo-8" data-name="fullLogo" d="M366.4391,163.136h35.7553c17.1679,0,28.7705,10.7741,28.7705,26.0473,0,11.9575-7.46,21.4278-19.0626,24.6247l22.6144,32.2035H418.5321l-20.9557-30.4276H380.0553v30.4276H366.4391Zm13.6162,11.6027v30.19h20.482c10.4176,0,16.8114-6.3922,16.8114-15.1544,0-8.6417-6.3938-15.0355-16.8114-15.0355Z" style="fill: #fff"/>
    <path id="fullLogo-9" data-name="fullLogo" d="M454.4878,217.5974c.71,10.6553,8.8794,18.2325,20.0084,18.2325a22.2736,22.2736,0,0,0,18.3513-9.117l7.932,7.2223s-8.0508,13.26-27.1118,13.26c-18.47,0-32.2035-13.4957-32.2035-31.2561,0-17.7588,14.09-31.8471,32.3223-31.8471a29.6614,29.6614,0,0,1,29.8351,29.5991,12.7812,12.7812,0,0,1-.5925,3.9066Zm.3549-8.8794h36.2289a17.4882,17.4882,0,0,0-17.5228-14.6807C464.0769,194.0373,456.7374,199.9558,454.8427,208.718Z" style="fill: #fff"/>
    <path id="fullLogo-10" data-name="fullLogo" d="M560.566,228.6076c0,10.4192-8.2869,18.5873-23.3241,18.5873a36.7267,36.7267,0,0,1-23.6789-8.2869l5.6841-8.5245s7.8132,6.8674,18.1136,6.8674c6.7487,0,10.4193-3.4345,10.4193-7.3411,0-4.0255-2.1324-7.34-14.4447-10.8913-10.8913-3.1969-17.1663-9.4719-17.1663-17.6416,0-8.9983,7.6944-17.2852,22.2579-17.2852a35.3942,35.3942,0,0,1,21.3106,7.1036l-5.8013,8.6433a24.3813,24.3813,0,0,0-15.1544-5.8013c-6.63,0-9.708,3.3141-9.708,6.3922,0,3.5518,2.1308,6.7487,12.5484,9.5907C554.055,213.572,560.566,220.083,560.566,228.6076Z" style="fill: #fff"/>
    <path id="fullLogo-11" data-name="fullLogo" d="M586.4786,217.5974c.71,10.6553,8.8794,18.2325,20.0083,18.2325a22.2736,22.2736,0,0,0,18.3513-9.117l7.9321,7.2223s-8.0509,13.26-27.1119,13.26c-18.47,0-32.2035-13.4957-32.2035-31.2561,0-17.7588,14.09-31.8471,32.3223-31.8471a29.6614,29.6614,0,0,1,29.8351,29.5991,12.7812,12.7812,0,0,1-.5925,3.9066Zm.3548-8.8794h36.2289A17.4881,17.4881,0,0,0,605.54,194.0373C596.0677,194.0373,588.7281,199.9558,586.8334,208.718Z" style="fill: #fff"/>
    <path id="fullLogo-12" data-name="fullLogo" d="M650.72,185.2751h11.6026l.8285,12.7877c4.2631-9.1171,12.55-13.9711,23.7978-13.9711l-.2376,13.26H684.107c-12.55,0-20.3633,6.9863-20.3633,22.7316v25.9285H650.72Z" style="fill: #fff"/>
    <path id="fullLogo-13" data-name="fullLogo" d="M698.1737,185.2751h14.4447l17.1663,44.0422,17.2867-44.0422H760.922l-25.0984,60.7364H723.1548Z" style="fill: #fff"/>
    <path id="fullLogo-14" data-name="fullLogo" d="M777.0616,217.5974c.7114,10.6553,8.8794,18.2325,20.01,18.2325a22.2723,22.2723,0,0,0,18.35-9.117l7.9337,7.2223s-8.0509,13.26-27.1135,13.26c-18.4685,0-32.2019-13.4957-32.2019-31.2561,0-17.7588,14.0882-31.8471,32.3207-31.8471a29.66,29.66,0,0,1,29.8351,29.5991,12.8124,12.8124,0,0,1-.5909,3.9066Zm.3565-8.8794h36.2273a17.4853,17.4853,0,0,0-17.5211-14.6807C786.6524,194.0373,779.3112,199.9558,777.4181,208.718Z" style="fill: #fff"/>
  </g>
</svg>
