<svg width="32" height="41" viewBox="0 0 32 41" fill="none" xmlns="http://www.w3.org/2000/svg">
<path d="M7.25818 21.7695L8.71273 22.0436L9.06182 22.8948C9.29455 23.443 9.77455 23.8469 10.3564 23.9912L10.4873 24.0201C11.4473 24.2509 12.4218 23.7171 12.7273 22.7794L12.1891 22.4908L1.90735e-06 16.1721L10.0509 0L5.41091 14.2101L16 18.4803L26.6036 14.2101L21.9491 0L32 16.1865L19.8109 22.5053L19.2727 22.7794C19.5782 23.7027 20.5527 24.2509 21.5127 24.0201L21.6436 23.9912C22.2255 23.8469 22.7055 23.443 22.9382 22.8948L23.2873 22.0436L24.7418 21.7695L25.6291 24.525L17.6873 33.3107C17.7018 33.3251 17.7018 33.3251 17.7164 33.3396L17.7309 33.354C18.3273 33.931 19.2582 34.0032 19.9418 33.5127L20.1164 33.3973C20.5527 33.0799 20.8145 32.5749 20.8145 32.0267V31.19L22.3418 30.108L22.6036 33.253L16.0145 41L9.42546 33.253L9.68727 30.108L11.2145 31.19V32.0267C11.2145 32.5605 11.4764 33.0799 11.9127 33.3973L12.0873 33.5127C12.7709 34.0032 13.7018 33.931 14.2982 33.354L14.3127 33.3396C14.3273 33.3251 14.3273 33.3251 14.3418 33.3107L6.4 24.525L7.25818 21.7695Z" fill="white"/>
</svg>
