<?xml version="1.0" encoding="UTF-8"?>
<svg width="889px" height="200px" viewBox="0 0 889 200" version="1.1" xmlns="http://www.w3.org/2000/svg" xmlns:xlink="http://www.w3.org/1999/xlink">
    <title>DIGITAL-5_logo_Final_white</title>
    <g id="Page-1" stroke="none" stroke-width="1" fill="none" fill-rule="evenodd">
        <g id="DIGITAL-5_logo_Final_white" fill="#FFFFFF">
            <path d="M293.75,122.59 C296.217163,122.643818 298.681766,122.398701 301.09,121.86 C302.751721,121.490882 304.329159,120.812414 305.74,119.86 C306.818735,119.113912 307.659066,118.072181 308.16,116.86 C308.622837,115.609215 308.850002,114.283522 308.83,112.95 C308.83,109.9 307.4,107.36 304.52,105.35 C301.64,103.34 296.71,101.15 289.71,98.81 C286.663333,97.73 283.613333,96.4966667 280.56,95.11 C277.58302,93.7677661 274.817341,91.9992137 272.35,89.86 C269.891781,87.7147762 267.87724,85.1091221 266.42,82.19 C264.797036,78.7561839 264.012196,74.9862124 264.13,71.19 C264.066796,67.1745861 264.896807,63.1953156 266.56,59.54 C268.144139,56.1153308 270.490647,53.0983921 273.42,50.72 C276.611549,48.1728313 280.270112,46.2739114 284.19,45.13 C288.823562,43.7546328 293.636877,43.080499 298.47,43.13 C303.96735,43.0211466 309.452251,43.6945536 314.76,45.13 C318.673687,46.2140359 322.464063,47.702035 326.07,49.57 L320,66.18 C317.204321,64.760395 314.298131,63.5698269 311.31,62.62 C307.577761,61.5056991 303.694053,60.9826976 299.8,61.07 C294.766667,61.07 291.153333,61.7633333 288.96,63.15 C286.771327,64.5183568 285.505439,66.9734134 285.66,69.55 C285.611641,71.0782038 286.037838,72.5838694 286.88,73.86 C287.807657,75.123926 288.976904,76.1912045 290.32,77 C291.940563,78.0156543 293.655138,78.8729418 295.44,79.56 C297.373333,80.32 299.503333,81.1066667 301.83,81.92 C306.683333,83.7133333 310.903333,85.4833333 314.49,87.23 C317.783045,88.7796572 320.805062,90.8494855 323.44,93.36 C325.802286,95.6665988 327.619825,98.4714851 328.76,101.57 C330.007038,105.2484 330.599342,109.116993 330.51,113 C330.51,121.666667 327.456667,128.42 321.35,133.26 C315.243333,138.1 306.043333,140.5 293.75,140.46 C290.013633,140.485027 286.280411,140.237705 282.58,139.72 C279.60564,139.298249 276.660068,138.693772 273.76,137.91 C271.509427,137.296985 269.304126,136.528471 267.16,135.61 C265.574559,134.931592 264.025768,134.170548 262.52,133.33 L268.44,116.63 C271.718573,118.35986 275.171171,119.737547 278.74,120.74 C283.629178,122.050002 288.679546,122.659413 293.74,122.55" id="Path" fill-rule="nonzero"></path>
            <path d="M370.63,47.33 C370.792954,50.6078576 369.483784,53.78727 367.06,56 C362.24183,60.2152895 355.04817,60.2152895 350.23,56 C347.800665,53.7827323 346.490974,50.5947187 346.66,47.31 C346.494012,44.0287114 347.803442,40.8449996 350.23,38.63 C355.043205,34.4015152 362.246795,34.4015152 367.06,38.63 C369.486558,40.8449996 370.795988,44.0287114 370.63,47.31 M368.74,138.6 L348.68,138.6 L348.68,67.8 L368.74,67.8 L368.74,138.6 Z" id="Shape" fill-rule="nonzero"></path>
            <path d="M453.43,136.33 C451.63,136.87 449.57,137.33 447.24,137.88 C444.91,138.43 442.46,138.8 439.9,139.16 C437.34,139.52 434.74,139.8 432.09,140.03 C429.44,140.26 426.91,140.37 424.48,140.37 C419.165679,140.453817 413.879177,139.586844 408.87,137.81 C404.514113,136.250985 400.558873,133.743951 397.29,130.47 C394.07504,127.178768 391.614787,123.22735 390.08,118.89 C388.356703,113.98303 387.513752,108.810221 387.59,103.61 C387.522435,98.3474442 388.250659,93.104902 389.75,88.06 C391.012083,83.7618414 393.116213,79.7575352 395.94,76.28 C398.606432,73.0673526 401.995504,70.5315454 405.83,68.88 C410.070618,67.1060204 414.63408,66.234195 419.23,66.32 C421.742774,66.2924361 424.250049,66.5609528 426.7,67.12 C428.985617,67.688185 431.217388,68.4544152 433.37,69.41 L433.37,37.41 L453.43,34.18 L453.43,136.33 Z M408.06,102.67 C408.06,108.856667 409.45,113.836667 412.23,117.61 C415.01,121.383333 419.14,123.27 424.62,123.27 C426.41,123.27 428.07,123.2 429.62,123.07 C431.17,122.94 432.4,122.78 433.39,122.59 L433.39,86.11 C431.861371,85.1967693 430.202247,84.5223288 428.47,84.11 C426.474266,83.5731986 424.416666,83.3008692 422.35,83.3 C412.83,83.3 408.073333,89.7633333 408.08,102.69" id="Shape" fill-rule="nonzero"></path>
            <path d="M472.28,103.75 C472.161418,98.1144147 473.143075,92.5097965 475.17,87.25 C476.895694,82.8551269 479.483127,78.8498756 482.78,75.47 C485.859599,72.3670915 489.551179,69.9389578 493.62,68.34 C497.624058,66.7382379 501.897447,65.916824 506.21,65.9199908 C516.256667,65.9199908 524.2,68.9933333 530.04,75.14 C535.88,81.2866667 538.796667,90.3266667 538.790011,102.26 C538.790011,103.43 538.790011,104.71 538.65,106.1 C538.51,107.49 538.47,108.73 538.38,109.8 L492.88,109.8 C493.23532,113.78008 495.361312,117.389492 498.67,119.63 C502.076667,122.063333 506.653333,123.276667 512.4,123.27 C516.036614,123.275483 519.665764,122.940691 523.24,122.27 C526.215935,121.761015 529.126799,120.925986 531.92,119.78 L534.61,136.07 C533.225809,136.729739 531.787105,137.268417 530.31,137.68 C528.337895,138.264288 526.334797,138.738354 524.31,139.1 C522.11,139.5 519.756667,139.833333 517.25,140.1 C514.74559,140.3676 512.228666,140.501124 509.71,140.5 C504.036951,140.625343 498.392261,139.664761 493.08,137.67 C488.655277,135.981938 484.657075,133.339233 481.37,129.93 C478.240736,126.610781 475.893445,122.63371 474.5,118.29 C472.988123,113.593022 472.238623,108.684132 472.28,103.75 M519.4,96.07 C519.316008,94.3731926 519.020386,92.6935222 518.52,91.07 C518.052983,89.4964955 517.277978,88.0314648 516.24,86.76 C515.163972,85.4711059 513.832685,84.4190142 512.33,83.67 C510.502016,82.8015144 508.492703,82.3831934 506.47,82.45 C504.48201,82.4013326 502.507962,82.794093 500.69,83.6 C499.157359,84.3022539 497.793303,85.3252953 496.69,86.6 C495.575069,87.8928125 494.716451,89.3860615 494.16,91 C493.58325,92.6246031 493.154833,94.2981063 492.88,96 L519.4,96.07 Z" id="Shape" fill-rule="nonzero"></path>
            <path d="M584.43,122.59 C586.897163,122.643818 589.361766,122.398701 591.77,121.86 C593.429349,121.493136 595.003918,120.814443 596.41,119.86 C597.491653,119.114501 598.335364,118.072883 598.84,116.86 C599.302837,115.609215 599.530002,114.283522 599.51,112.95 C599.51,109.9 598.07,107.36 595.2,105.35 C592.33,103.34 587.39,101.15 580.39,98.81 C577.343333,97.73 574.293333,96.4966667 571.24,95.11 C568.249822,93.7541552 565.473827,91.9686241 563,89.81 C560.54538,87.663844 558.534285,85.0582528 557.08,82.14 C555.457036,78.7061839 554.672196,74.9362124 554.79,71.14 C554.728639,67.1258135 555.555003,63.1476556 557.21,59.49 C558.801248,56.0668998 561.150553,53.0507612 564.08,50.67 C567.270278,48.1208761 570.929245,46.2217469 574.85,45.08 C579.480161,43.7047381 584.290166,43.0305959 589.12,43.08 C598.717192,42.8749188 608.210738,45.0969591 616.72,49.54 L610.66,66.1 C607.872436,64.7071755 604.976225,63.54334 602,62.62 C598.267588,61.5065045 594.384007,60.9835202 590.49,61.07 C585.463333,61.07 581.85,61.7633333 579.65,63.15 C577.461327,64.5183568 576.195439,66.9734134 576.35,69.55 C576.303243,71.0765815 576.725545,72.580812 577.56,73.86 C578.488643,75.1230391 579.657698,76.1901413 581,77 C582.61813,78.0137468 584.329201,78.8709563 586.11,79.56 C588.036667,80.32 590.17,81.1066667 592.51,81.92 C597.363333,83.7133333 601.58,85.4833333 605.16,87.23 C608.469854,88.7765325 611.508821,90.8464067 614.16,93.36 C616.522286,95.6665988 618.339825,98.4714851 619.48,101.57 C620.71346,105.250822 621.292217,109.119353 621.19,113 C621.19,121.666667 618.136667,128.42 612.03,133.26 C605.923333,138.1 596.723333,140.5 584.43,140.46 C580.693633,140.485027 576.960411,140.237705 573.26,139.72 C570.285291,139.300266 567.339594,138.695763 564.44,137.91 C562.189427,137.296985 559.984126,136.528471 557.84,135.61 C556.25233,134.929365 554.700323,134.168381 553.19,133.33 L559.12,116.63 C562.39775,118.361642 565.850541,119.739406 569.42,120.74 C574.309178,122.050002 579.359546,122.659413 584.42,122.55" id="Path" fill-rule="nonzero"></path>
            <path d="M680.76,98 C678.973333,104.82 677.066667,111.596667 675.04,118.33 C673.013333,125.063333 670.88,131.84 668.64,138.66 L653,138.66 C651.38,134.886667 649.623333,130.396667 647.73,125.19 C645.836667,119.983333 643.88,114.316667 641.86,108.19 C639.86,102.05 637.79,95.5433333 635.65,88.67 C633.51,81.7966667 631.46,74.8633333 629.5,67.87 L650.64,67.87 C651.36,71.1033333 652.15,74.6266667 653.01,78.44 C653.87,82.2533333 654.773333,86.18 655.72,90.22 C656.673333,94.26 657.673333,98.32 658.72,102.4 C659.766667,106.48 660.826667,110.406667 661.9,114.18 C663.073333,110.233333 664.22,106.196667 665.34,102.07 C666.46,97.9433333 667.536667,93.88 668.57,89.88 C669.596667,85.88 670.596667,82.02 671.57,78.3 C672.543333,74.58 673.353333,71.08 674,67.8 L688.54,67.8 C689.26,71.0333333 690.07,74.51 690.97,78.23 C691.87,81.95 692.81,85.81 693.79,89.81 C694.776667,93.81 695.81,97.8733333 696.89,102 C697.97,106.126667 699.093333,110.163333 700.26,114.11 C701.34,110.343333 702.423333,106.416667 703.51,102.33 C704.596667,98.2433333 705.596667,94.1833333 706.51,90.15 C707.456667,86.11 708.36,82.1833333 709.22,78.37 C710.08,74.5566667 710.87,71.0333333 711.59,67.8 L732.46,67.8 C730.46,74.8 728.413333,81.7333333 726.32,88.6 C724.226667,95.4666667 722.156667,101.973333 720.11,108.12 C718.11,114.266667 716.126667,119.933333 714.16,125.12 C712.193333,130.306667 710.416667,134.796667 708.83,138.59 L693.28,138.59 C691.04,131.77 688.843333,124.993333 686.69,118.26 C684.536667,111.526667 682.56,104.773333 680.76,98" id="Path" fill-rule="nonzero"></path>
            <path d="M770.63,65.91 C775.642105,65.7757612 780.643038,66.4511065 785.44,67.91 C789.030911,69.0375992 792.292072,71.0251911 794.94,73.7 C797.33499,76.295405 799.052435,79.4417649 799.94,82.86 C800.965795,86.7761912 801.463536,90.8119246 801.42,94.86 L801.42,136.6 C798.54,137.226667 794.54,137.966667 789.42,138.82 C783.271272,139.746591 777.057705,140.174651 770.84,140.1 C766.658984,140.135895 762.485859,139.730314 758.39,138.89 C754.951325,138.192643 751.68079,136.834166 748.76,134.89 C746.093618,133.078318 743.957221,130.589881 742.57,127.68 C741.034809,124.256816 740.296273,120.529942 740.41,116.78 C740.293359,113.119815 741.156434,109.494898 742.91,106.28 C744.510445,103.461489 746.802516,101.097146 749.57,99.41 C752.52161,97.6368596 755.754973,96.3820714 759.13,95.7 C762.803347,94.9312307 766.547086,94.5491482 770.3,94.56 C772.617761,94.5486156 774.934451,94.6621134 777.24,94.9 C778.897894,95.0538359 780.540183,95.3448322 782.15,95.77 L782.15,93.92 C782.28897,90.8724865 781.172071,87.9013194 779.06,85.7 C776.986667,83.64 773.396667,82.61 768.29,82.61 C764.909752,82.6089387 761.533996,82.8562714 758.19,83.35 C755.252145,83.7468193 752.363361,84.4472321 749.57,85.44 L747.01,69.28 C748.176667,68.92 749.636667,68.54 751.39,68.14 C753.14,67.73 755.04,67.37 757.11,67.06 C759.18,66.75 761.35,66.47 763.64,66.25 C765.93,66.03 768.24,65.91 770.57,65.91 M772.19,124.61 C774.19,124.61 776.05,124.61 777.85,124.48 C779.289594,124.425781 780.725106,124.292245 782.15,124.08 L782.15,108.86 C780.949768,108.619543 779.738252,108.439317 778.52,108.32 C777.042312,108.153363 775.556995,108.063243 774.07,108.049924 C772.294453,108.046554 770.520608,108.160133 768.76,108.39 C767.239823,108.574256 765.760172,109.006665 764.38,109.67 C763.169264,110.240012 762.133352,111.12399 761.38,112.23 C760.630879,113.426548 760.254913,114.819016 760.3,116.23 C760.3,119.37 761.35,121.55 763.47,122.76 C765.59,123.97 768.47,124.57 772.15,124.57" id="Shape" fill-rule="nonzero"></path>
            <path d="M888.85,103.21 C888.911627,108.260654 888.2379,113.293393 886.85,118.15 C885.64354,122.358249 883.629414,126.291399 880.92,129.73 C878.320615,132.963001 875.002634,135.544795 871.23,137.27 C867.035193,139.151553 862.476699,140.08374 857.88,140 C855.25548,140.014824 852.637012,139.746607 850.07,139.2 C847.667126,138.668394 845.32247,137.901356 843.07,136.91 L843.07,163.56 L823,163.56 L823,70.22 C824.79,69.68 826.86,69.22 829.19,68.67 C831.52,68.12 833.97,67.75 836.53,67.39 C839.09,67.03 841.69,66.74 844.34,66.52 C846.99,66.3 849.52,66.18 851.95,66.18 C857.270497,66.0931898 862.561666,66.9846553 867.56,68.81 C871.908375,70.4129318 875.858664,72.9372964 879.14,76.21 C882.358168,79.5239054 884.815213,83.4995415 886.34,87.86 C888.062474,92.7916324 888.908571,97.9866665 888.84,103.21 M868.37,103.75 C868.37,97.55 866.98,92.59 864.2,88.87 C861.42,85.15 857.29,83.2866667 851.81,83.28 C850.01,83.28 848.35,83.35 846.81,83.48 C845.27,83.61 844.02,83.78 843.04,83.96 L843.04,120.17 C844.564967,121.083418 846.220829,121.757903 847.95,122.17 C849.949013,122.707443 852.010001,122.98 854.08,122.98 C863.586667,122.98 868.343333,116.563333 868.35,103.73" id="Shape" fill-rule="nonzero"></path>
            <path d="M193.79,161.59 L184.61,153.33 C165.232569,184.00491 130.770645,201.789748 94.5418997,199.811635 C58.3131542,197.833521 25.9924524,176.402307 10.07,143.8 C40.9,180.2 120.13,172.48 168.69,139 L154.69,126.47 C194.26,110.39 203.31,88.2 203.5,87.72 C208.802745,112.739975 205.361164,138.821865 193.75,161.61" id="Path"></path>
            <path d="M-0.000175009139,100 C-0.0450974205,75.9494406 8.62692363,52.6973399 24.41,34.55 L24.53,34.43 C25.07,33.79 25.61,33.16 26.18,32.56 C27.18,31.45 28.18,30.37 29.28,29.3 C48.024961,10.538185 73.4587017,-0.00351084602 99.98,-0.00351084602 C126.501298,-0.00351084602 151.935039,10.538185 170.68,29.3 C215.54,74.15 157.8,132.12 86.8,129.9 L86.8,149.46 L25.67,105.62 L86.8,61.78 L86.8,81.53 C107,78.46 142.67,69.38 132.22,44 C117.85,8.94 16.81,17 -0.000175009139,100" id="Path"></path>
        </g>
    </g>
</svg>