<?xml version="1.0" encoding="utf-8"?>
<!-- Generator: Adobe Illustrator 25.4.2, SVG Export Plug-In . SVG Version: 6.00 Build 0)  -->
<svg version="1.1" id="Layer_1" xmlns="http://www.w3.org/2000/svg" xmlns:xlink="http://www.w3.org/1999/xlink" x="0px" y="0px"
	 viewBox="0 0 90 90" style="enable-background:new 0 0 90 90;" xml:space="preserve">
<style type="text/css">
	.st0{fill:#1A1E24;}
	.st1{fill:#72C7E7;}
</style>
<g>
	<g>
		<g transform="translate(-319.000000, -1055.000000) translate(319.000000, 1055.000000)">
			<circle class="st0" cx="45" cy="45" r="45"/>
		</g>
	</g>
	<g>
		<g>
			<path class="st1" d="M43.9,49.3h-5.5v-1.2l3-3.5c0.6-0.7,0.8-1.2,0.8-1.8c0-0.7-0.5-1.1-1.1-1.1c-0.6,0-1.1,0.4-1.1,1.1h-1.6
				c0-1.5,1.3-2.6,2.8-2.6c1.6,0,2.8,1.1,2.8,2.6c0,1.2-0.8,2.1-1.4,2.8l-1.8,2.2h3.1V49.3z"/>
			<path class="st1" d="M50.1,40.4l-2.8,6.1H49v-2.3h1.8v2.3h0.8v1.5h-0.8v1.3H49v-1.3h-4v-1.3l3.1-6.4H50.1z"/>
		</g>
		<path class="st1" d="M60.2,34.3l-2.4,0.9c2.1,2.7,3.4,6.1,3.4,9.9c0,8.9-7.2,16.2-16.2,16.2c-5.4,0-10.3-2.7-13.2-6.8
			c-0.1-0.1-0.2-0.3-0.3-0.4c-0.2-0.4-0.5-0.8-0.7-1.1c0-0.1-0.1-0.1-0.1-0.2c-1.2-2.3-1.9-4.8-1.9-7.6c0-0.3,0-0.6,0-0.9
			c0-0.5,0.1-0.9,0.1-1.4c0,0,0,0,0,0c0.1-1,0.4-2,0.7-2.9c0.1-0.3,0.2-0.6,0.4-1c0-0.1,0-0.1,0.1-0.2c0.4-0.9,0.9-1.8,1.5-2.7
			c0,0,0,0,0-0.1c0.2-0.3,0.5-0.6,0.7-0.9c0.1-0.2,0.3-0.3,0.4-0.5c0.2-0.2,0.3-0.4,0.5-0.6c0.2-0.2,0.4-0.4,0.6-0.6
			c0.2-0.2,0.4-0.3,0.5-0.5c0.3-0.2,0.5-0.4,0.8-0.6c0.1-0.1,0.1-0.1,0.2-0.2c0.4-0.3,0.7-0.5,1.1-0.8c0,0,0,0,0,0
			c0.4-0.3,0.8-0.5,1.3-0.7c0,0,0,0,0.1,0c0.4-0.2,0.8-0.4,1.2-0.5c0.2-0.1,0.4-0.1,0.6-0.2c0.2-0.1,0.5-0.2,0.8-0.3
			c1.5-0.4,3-0.7,4.7-0.7c3.4,0,6.5,1.1,9.1,2.9l-4.8,1.7l0.7,2.1l8.5-3v-0.1l-3-8.4l-2.1,0.7l1.7,4.7c-2.2-1.5-4.8-2.4-7.5-2.8
			c0,0,0,0,0,0c-0.4-0.1-0.8-0.1-1.1-0.1c-0.4,0-0.9-0.1-1.3-0.1c0,0-0.1,0-0.1,0c0,0,0,0,0,0c0,0,0,0,0,0c-0.6,0-1.2,0-1.8,0.1
			c-0.1,0-0.2,0-0.2,0c-0.5,0.1-1.1,0.1-1.6,0.2c-0.1,0-0.2,0-0.2,0.1c-0.5,0.1-1,0.2-1.6,0.4c-0.1,0-0.1,0-0.2,0.1
			c-0.5,0.2-1,0.4-1.5,0.6c0,0-0.1,0-0.1,0.1c-0.5,0.2-1,0.4-1.4,0.7c-0.1,0.1-0.2,0.1-0.3,0.2c-0.4,0.2-0.7,0.4-1.1,0.7
			c-0.2,0.2-0.5,0.3-0.7,0.5c-0.2,0.1-0.4,0.3-0.5,0.4c-4.4,3.4-7.2,8.7-7.2,14.7c0,10.3,8.3,18.6,18.6,18.6
			c10.3,0,18.6-8.3,18.6-18.6C63.6,41,62.4,37.3,60.2,34.3z"/>
	</g>
</g>
</svg>
