<?xml version="1.0" encoding="utf-8"?>
<!-- Generator: Adobe Illustrator 25.4.2, SVG Export Plug-In . SVG Version: 6.00 Build 0)  -->
<svg version="1.1" id="Layer_1" xmlns="http://www.w3.org/2000/svg" xmlns:xlink="http://www.w3.org/1999/xlink" x="0px" y="0px"
	 viewBox="0 0 90 90" style="enable-background:new 0 0 90 90;" xml:space="preserve">
<style type="text/css">
	.st0{fill:#1A1E24;}
	.st1{fill:#677FD3;}
</style>
<g>
	<circle class="st0" cx="45" cy="45" r="45"/>
	<g>
		<path class="st1" d="M61.8,27.4H34.4c-2.2,0-3.9,1.8-3.9,3.9v2.9v20.6h-2.9c-0.5,0-1,0.4-1,1v2.9c0,2.2,1.8,3.9,3.9,3.9H56
			c2.2,0,3.9-1.8,3.9-3.9V35.2h4.9c0.5,0,1-0.4,1-1v-2.9C65.8,29.1,64,27.4,61.8,27.4z M30.5,60.7c-1.1,0-2-0.9-2-2v-2H52v2
			c0,0.7,0.2,1.4,0.5,2H30.5z M57.9,58.7c0,1.1-0.9,2-2,2s-2-0.9-2-2v-2.9c0-0.5-0.4-1-1-1H32.5V34.2v-2.9c0-1.1,0.9-2,2-2h24
			c-0.3,0.6-0.5,1.2-0.5,2V58.7z M63.8,33.2h-3.9v-2c0-1.1,0.9-2,2-2c1.1,0,2,0.9,2,2V33.2z"/>
		<path class="st1" d="M47.4,34.3c-0.5-0.1-1.1,0.1-1.2,0.7l-3.9,13.7c-0.1,0.5,0.1,1.1,0.7,1.2c0.1,0,0.2,0,0.3,0
			c0.4,0,0.8-0.3,0.9-0.7l3.9-13.7C48.2,35,47.9,34.4,47.4,34.3z"/>
		<path class="st1" d="M41,38.4c-0.4-0.4-1-0.4-1.4,0l-2.9,2.9c-0.4,0.4-0.4,1,0,1.4l2.9,2.9c0.2,0.2,0.4,0.3,0.7,0.3
			c0.2,0,0.5-0.1,0.7-0.3c0.4-0.4,0.4-1,0-1.4l-2.3-2.3l2.3-2.3C41.4,39.5,41.4,38.8,41,38.4z"/>
		<path class="st1" d="M50.8,38.4c-0.4-0.4-1-0.4-1.4,0c-0.4,0.4-0.4,1,0,1.4l2.3,2.3l-2.3,2.3c-0.4,0.4-0.4,1,0,1.4
			c0.2,0.2,0.4,0.3,0.7,0.3c0.2,0,0.5-0.1,0.7-0.3l2.9-2.9c0.4-0.4,0.4-1,0-1.4L50.8,38.4z"/>
	</g>
</g>
</svg>
