<?xml version="1.0" encoding="utf-8"?>
<!-- Generator: Adobe Illustrator 25.4.2, SVG Export Plug-In . SVG Version: 6.00 Build 0)  -->
<svg version="1.1" id="Layer_1" xmlns="http://www.w3.org/2000/svg" xmlns:xlink="http://www.w3.org/1999/xlink" x="0px" y="0px"
	 viewBox="0 0 90 90" style="enable-background:new 0 0 90 90;" xml:space="preserve">
<style type="text/css">
	.st0{fill:#1A1E24;}
	.st1{fill:#72C7E7;}
</style>
<g>
	<circle class="st0" cx="45" cy="45" r="45"/>
	<path class="st1" d="M55.3,56.1l0.3-0.2c6.9-6.1,8-16.3,2.6-23.7c-2.7-3.8-6.9-6.4-11.7-7.2c-4.7-0.8-9.4,0.2-13.4,3
		c-3.8,2.7-6.5,7-7.3,11.6c-0.8,4.7,0.3,9.4,3.1,13.3c2.9,3.9,7.1,6.5,11.9,7.3c4.2,0.5,8.4-0.3,12-2.3l0.4-0.2l9.2,12.5l2.2-1.5
		L55.3,56.1z M58.7,44.8c-0.6,4-2.7,7.4-6.1,9.8c-2.7,1.9-5.8,2.9-8.9,2.9c-0.8,0-1.6-0.1-2.3-0.2l0,0c-4-0.6-7.4-2.6-9.9-6
		C29,48.1,28,44,28.7,40c0.6-4,2.8-7.5,6.1-9.8c3.3-2.4,7.3-3.3,11.3-2.7C54.3,28.8,60,36.5,58.7,44.8z"/>
	<path class="st1" d="M48.3,37.8c-0.1,0-0.7,0.2-0.7,0.2l-0.5,0.1l0.3,0.4c0,0,0.4,0.4,0.5,0.5l0.6,0.6l-3.9,3.9l-2.8-2.8
		c-0.3-0.3-0.9-0.3-1.2,0l-6.2,6.2c-0.3,0.3-0.3,0.9,0,1.2c0.2,0.2,0.4,0.3,0.6,0.3s0.5-0.1,0.6-0.3l5.6-5.6l2.8,2.8
		c0.3,0.3,0.9,0.3,1.2,0l4.5-4.5l1.4,1.4l0.9-4.2l0.2-1L48.3,37.8z"/>
</g>
</svg>
