<?xml version="1.0" encoding="utf-8"?>
<!-- Generator: Adobe Illustrator 25.4.2, SVG Export Plug-In . SVG Version: 6.00 Build 0)  -->
<svg version="1.1" id="Layer_1" xmlns="http://www.w3.org/2000/svg" xmlns:xlink="http://www.w3.org/1999/xlink" x="0px" y="0px"
	 viewBox="0 0 90 90" style="enable-background:new 0 0 90 90;" xml:space="preserve">
<style type="text/css">
	.st0{fill:#1A1E24;}
	.st1{fill:#677FD3;}
</style>
<g>
	<circle class="st0" cx="45" cy="45" r="45"/>
	<g>
		<path class="st1" d="M42.2,63l1.5,1.1l0.8,0.6l0.8-0.6l1.5-1.1c2.9-2,5.9-4.1,8.2-6.3c3.4-3.3,5-6.4,5-9.7V31.1l-15.6-5.7L29,31.1
			v15.8c0,3.4,1.6,6.5,5,9.8C36.4,58.9,39.4,61,42.2,63z M31.9,46.9V33.1l12.7-4.6l12.7,4.6v13.8c0,2.5-1.3,5-4.1,7.6
			c-2.2,2.1-5.1,4.1-7.8,6.1l-0.7,0.5L44,60.6c-2.8-2-5.7-4-7.8-6.1C33.2,51.8,31.9,49.4,31.9,46.9z"/>
		<path class="st1" d="M53.3,39.5l-2-2.1l-9.1,8.9l-3.9-4.5L36,43.7l5.9,6.9L53.3,39.5z"/>
	</g>
</g>
</svg>
