<?xml version="1.0" encoding="utf-8"?>
<!-- Generator: Adobe Illustrator 25.4.2, SVG Export Plug-In . SVG Version: 6.00 Build 0)  -->
<svg version="1.1" id="Layer_1" xmlns="http://www.w3.org/2000/svg" xmlns:xlink="http://www.w3.org/1999/xlink" x="0px" y="0px"
	 viewBox="0 0 90 90" style="enable-background:new 0 0 90 90;" xml:space="preserve">
<style type="text/css">
	.st0{fill:#1A1E24;}
	.st1{fill:#72C7E7;}
</style>
<g>
	<circle class="st0" cx="45" cy="45" r="45"/>
	<g>
		<path class="st1" d="M66.4,43.9l-12.6,0l3.7-3.7c0.4-0.4,0.4-1.2,0-1.6s-1.2-0.4-1.6,0l-5.6,5.6c-0.4,0.4-0.4,1.2,0,1.6l5.7,5.7
			c0.2,0.2,0.5,0.3,0.8,0.3c0.3,0,0.6-0.1,0.8-0.3c0.2-0.2,0.3-0.5,0.3-0.8c0-0.3-0.1-0.6-0.3-0.8l-3.7-3.7h12.6
			c0.3,0,0.6-0.1,0.8-0.3c0.2-0.2,0.3-0.5,0.3-0.8C67.5,44.4,67,43.9,66.4,43.9z"/>
		<path class="st1" d="M39.8,44.2l-5.7-5.7c-0.2-0.2-0.5-0.3-0.8-0.3h0c-0.3,0-0.6,0.1-0.8,0.3c-0.4,0.4-0.4,1.2,0,1.6l3.7,3.7H23.6
			c-0.6,0-1.1,0.5-1.1,1.1s0.5,1.1,1.1,1.1h12.6l-3.7,3.7c-0.2,0.2-0.3,0.5-0.3,0.8c0,0.3,0.1,0.6,0.3,0.8c0.2,0.2,0.5,0.3,0.8,0.3
			c0.3,0,0.6-0.1,0.8-0.3l5.6-5.6C40.2,45.4,40.2,44.6,39.8,44.2z"/>
		<path class="st1" d="M44.2,39.8c0.2,0.2,0.5,0.3,0.8,0.3c0.3,0,0.6-0.1,0.8-0.3l5.7-5.7c0.2-0.2,0.3-0.5,0.3-0.8
			c0-0.3-0.1-0.6-0.3-0.8c-0.2-0.2-0.5-0.3-0.8-0.3h0c-0.3,0-0.6,0.1-0.8,0.3l-3.7,3.7l0-12.6c0-0.6-0.5-1.1-1.1-1.1c0,0,0,0,0,0
			c-0.3,0-0.6,0.1-0.8,0.3c-0.2,0.2-0.3,0.5-0.3,0.8v12.6l-3.7-3.7c-0.4-0.4-1.2-0.4-1.6,0s-0.4,1.2,0,1.6L44.2,39.8z"/>
		<path class="st1" d="M45.8,50.2c-0.4-0.4-1.2-0.4-1.6,0l-5.7,5.7c-0.2,0.2-0.3,0.5-0.3,0.8c0,0.3,0.1,0.6,0.3,0.8
			c0.4,0.4,1.2,0.4,1.6,0l3.7-3.7v12.6c0,0.6,0.5,1.1,1.1,1.1c0.3,0,0.6-0.1,0.8-0.3c0.2-0.2,0.3-0.5,0.3-0.8V53.8l3.7,3.7
			c0.4,0.4,1.2,0.4,1.6,0c0.2-0.2,0.3-0.5,0.3-0.8c0-0.3-0.1-0.6-0.3-0.8L45.8,50.2z"/>
	</g>
</g>
</svg>
