<?xml version="1.0" encoding="utf-8"?>
<!-- Generator: Adobe Illustrator 25.4.2, SVG Export Plug-In . SVG Version: 6.00 Build 0)  -->
<svg version="1.1" id="Layer_1" xmlns="http://www.w3.org/2000/svg" xmlns:xlink="http://www.w3.org/1999/xlink" x="0px" y="0px"
	 viewBox="0 0 90 90" style="enable-background:new 0 0 90 90;" xml:space="preserve">
<style type="text/css">
	.st0{fill:#1A1E24;}
	.st1{fill:#677FD3;}
</style>
<g>
	<circle class="st0" cx="45" cy="45" r="45"/>
	<g transform="translate(-204 -1130)">
		<g>
			<path class="st1" d="M262.3,1159.1h-26.6l-8,9.3l21.3,25.3l21.3-25.3L262.3,1159.1z M240.1,1167.1h-7.7l4-4.8L240.1,1167.1z
				 M244.8,1167.1l4.2-4.9l4.2,4.9H244.8z M254.3,1169.8l-5.3,17.8l-5.3-17.8H254.3z M241.2,1169.8l5.6,17.2l-14.4-17.2H241.2z
				 M256.8,1169.8h8.9l-14.5,17.2L256.8,1169.8z M261.7,1162.4l4,4.8H258L261.7,1162.4z M259.7,1161.8l-3.9,4.8l-3.9-4.8H259.7z
				 M242.2,1166.6l-3.8-4.9h7.7L242.2,1166.6z"/>
		</g>
	</g>
</g>
</svg>
