<?xml version="1.0" encoding="utf-8"?>
<!-- Generator: Adobe Illustrator 25.4.2, SVG Export Plug-In . SVG Version: 6.00 Build 0)  -->
<svg version="1.1" id="Layer_1" xmlns="http://www.w3.org/2000/svg" xmlns:xlink="http://www.w3.org/1999/xlink" x="0px" y="0px"
	 viewBox="0 0 90 90" style="enable-background:new 0 0 90 90;" xml:space="preserve">
<style type="text/css">
	.st0{fill:#1A1E24;}
	.st1{fill:#72C7E7;}
</style>
<g>
	<circle class="st0" cx="45" cy="45" r="45"/>
	<g>
		<path class="st1" d="M54.5,37.1c-0.2,0-0.9,0.2-0.9,0.2L53,37.5l0.4,0.5c0,0,0.5,0.5,0.6,0.6l0.7,0.7l-5,5l-3.7-3.7
			c-0.4-0.4-1.2-0.4-1.6,0l-8,8c-0.4,0.4-0.4,1.2,0,1.6c0.2,0.2,0.5,0.3,0.8,0.3c0.3,0,0.6-0.1,0.8-0.3l7.2-7.2l3.7,3.7
			c0.4,0.4,1.2,0.4,1.6,0l5.8-5.8l0.7,0.7c0.1,0.1,0.7,0.7,0.7,0.7l0.5,0.5l1.1-5.4c0-0.2,0.2-0.8,0.2-0.8l0.1-0.6L54.5,37.1z"/>
		<polygon class="st1" points="67.3,60.6 30.2,60.6 30.2,23.5 27.8,23.5 27.8,62.9 67.3,62.9 		"/>
	</g>
</g>
</svg>
