<?xml version="1.0" encoding="utf-8"?>
<!-- Generator: Adobe Illustrator 25.3.1, SVG Export Plug-In . SVG Version: 6.00 Build 0)  -->
<svg version="1.1" id="Layer_1" xmlns="http://www.w3.org/2000/svg" xmlns:xlink="http://www.w3.org/1999/xlink" x="0px" y="0px"
	 viewBox="0 0 90 90" style="enable-background:new 0 0 90 90;" xml:space="preserve">
<style type="text/css">
	.st0{fill:#2B313B;}
	.st1{fill:#32B284;}
</style>
<g>
	<g>
		<g>
			<g>
				
					<g transform="translate(-1023.000000, -3815.000000) translate(131.000000, 3787.000000) translate(858.000000, 0.000000) translate(34.000000, 28.000000)">
					<circle class="st0" cx="45" cy="45" r="45"/>
					<g>
						<path class="st1" d="M45,63.4c-9.9,0-18-8.1-18-18s8.1-18,18-18s18,8.1,18,18S54.9,63.4,45,63.4z M34.4,57.4
							c2.8,2.5,6.5,4,10.6,4s7.8-1.5,10.6-4l-4.3-4.3c-1.7,1.4-3.9,2.3-6.3,2.3s-4.6-0.8-6.3-2.3C38.7,53.2,34.4,57.4,34.4,57.4z
							 M33,56l4.3-4.3C35.8,50,35,47.8,35,45.4c0-2.4,0.8-4.6,2.3-6.3L33,34.9c-2.5,2.8-4,6.5-4,10.6S30.5,53.2,33,56z M34.4,33.4
							l4.3,4.3c1.7-1.4,3.9-2.3,6.3-2.3s4.6,0.8,6.3,2.3l4.3-4.3c-2.8-2.5-6.5-4-10.6-4S37.2,30.9,34.4,33.4L34.4,33.4z M57,34.9
							l-4.3,4.3c1.4,1.7,2.3,3.9,2.3,6.3c0,2.4-0.8,4.6-2.3,6.3L57,56c2.5-2.8,4-6.5,4-10.6S59.5,37.7,57,34.9L57,34.9z M45,53.4
							c4.4,0,8-3.6,8-8s-3.6-8-8-8s-8,3.6-8,8S40.6,53.4,45,53.4z"/>
					</g>
				</g>
			</g>
		</g>
	</g>
</g>
</svg>
