<svg xmlns="http://www.w3.org/2000/svg" width="90" height="90" viewBox="0 0 90 90">
    <g fill="none" fill-rule="evenodd">
        <g fill-rule="nonzero">
            <g transform="translate(-576.000000, -1130.000000) translate(576.000000, 1130.000000)">
                <circle cx="45" cy="45" r="45" fill="#2B313B"/>
                <g fill="#DD1F48">
                    <path d="M21.99 8.025c7.712 0 13.965 6.253 13.965 13.965 0 7.706-6.258 13.963-13.965 13.963-7.71 0-13.965-6.253-13.965-13.963 0-7.713 6.253-13.965 13.965-13.965zm4.15 14.752l-5.405 8.938c-.763 1.27-2.7.106-1.934-1.166l4.4-7.275h-4.425c-.854-.01-1.418-.933-.976-1.696l5.369-9.298c.743-1.282 2.696-.151 1.953 1.132l-4.39 7.6h4.471c.916 0 1.439 1.027.937 1.765zM31.446 3.36c.736-1.282 2.69-.163 1.953 1.122l-2.102 3.642c-.735 1.282-2.69.163-1.953-1.122l2.102-3.642zm8.052 7.222c1.285-.737 2.404 1.218 1.122 1.953l-3.641 2.101c-1.285.737-2.404-1.218-1.122-1.953l3.64-2.101zm3.357 10.278c1.488 0 1.488 2.261 0 2.261H38.65c-1.488 0-1.488-2.261 0-2.261h4.205zm-2.23 10.586c1.282.742.151 2.696-1.132 1.953l-3.64-2.103c-1.283-.743-.152-2.696 1.13-1.953l3.642 2.103zm-7.226 8.054c.737 1.285-1.217 2.404-1.953 1.122l-2.102-3.642c-.737-1.285 1.218-2.404 1.953-1.122l2.102 3.642zm-10.277 3.356c0 1.488-2.263 1.488-2.263 0V38.65c0-1.488 2.263-1.488 2.263 0v4.205zm-10.588-2.23c-.743 1.283-2.696.152-1.953-1.13l2.103-3.643c.743-1.282 2.696-.151 1.953 1.131l-2.103 3.642zm-8.047-7.227c-1.283.743-2.414-1.21-1.132-1.953l3.642-2.103c1.282-.743 2.414 1.21 1.13 1.953l-3.64 2.103zM1.125 23.12c-1.488 0-1.488-2.261 0-2.261H5.33c1.488 0 1.488 2.261 0 2.261H1.125zM3.36 12.534c-1.282-.735-.163-2.69 1.122-1.953l3.641 2.101c1.282.735.163 2.69-1.122 1.953L3.36 12.534zm7.22-8.048c-.742-1.283 1.211-2.414 1.954-1.132l2.103 3.643c.743 1.282-1.21 2.414-1.953 1.13L10.58 4.487zm10.28-3.36c0-1.489 2.262-1.489 2.262 0V5.33c0 1.487-2.263 1.487-2.263 0V1.125zm1.13 9.161c-6.462 0-11.703 5.24-11.703 11.703 0 6.466 5.238 11.7 11.703 11.7 6.462 0 11.703-5.238 11.703-11.7 0-6.462-5.241-11.703-11.703-11.703z" transform="translate(23.000000, 23.000000)"/>
                </g>
            </g>
        </g>
    </g>
</svg>
