<?xml version="1.0" encoding="utf-8"?>
<!-- Generator: Adobe Illustrator 25.3.1, SVG Export Plug-In . SVG Version: 6.00 Build 0)  -->
<svg version="1.1" id="Layer_1" xmlns="http://www.w3.org/2000/svg" xmlns:xlink="http://www.w3.org/1999/xlink" x="0px" y="0px"
	 viewBox="0 0 90 90" style="enable-background:new 0 0 90 90;" xml:space="preserve">
<style type="text/css">
	.st0{fill:#1A1E24;}
	.st1{fill:#32B284;}
</style>
<g>
	<g>
		<g transform="translate(-762.000000, -3206.000000) translate(762.000000, 3206.000000)">
			<circle class="st0" cx="45" cy="45" r="45"/>
			<g>
				<path class="st1" d="M55.2,36.3c0.6,0.4,1.4,0.6,2.1,0.6c1.5,0,2.9-0.8,3.6-2.1c1.2-2,0.5-4.6-1.5-5.7c-0.6-0.4-1.4-0.6-2.1-0.6
					c-1.5,0-2.9,0.8-3.6,2.1C52.5,32.6,53.2,35.1,55.2,36.3L55.2,36.3z M55.9,31.8c0.3-0.5,0.8-0.8,1.5-0.8c0.3,0,0.6,0.1,0.8,0.2
					c0.8,0.5,1.1,1.5,0.6,2.3c-0.4,0.8-1.5,1.1-2.3,0.6C55.7,33.6,55.4,32.6,55.9,31.8z M67.1,34.7c-0.6-0.3-1.4-0.1-1.7,0.5
					L54.8,53.5c-1.6,2.8-3.4,4.5-5.3,5c-2,0.6-4.4,0.1-7.4-1.6l-4.6-2.7c-2.1-1.2-3.8-1.4-6.3-0.8L24,55.3c-0.6,0.1-1.1,0.6-1.1,1.2
					c0,0.7,0.6,1.3,1.3,1.3c0.1,0,0.2,0,0.3,0l0,0l7.4-1.9c1.8-0.5,2.8-0.4,4.4,0.5l4.6,2.7c2.6,1.5,4.9,2.2,6.9,2.2
					c0.8,0,1.6-0.1,2.4-0.3c2.6-0.8,4.8-2.8,6.8-6.2l10.6-18.3C67.9,35.9,67.7,35.1,67.1,34.7z"/>
				<path class="st1" d="M23.8,52.2c0.9-0.2,6.7-1.8,7.5-2c2.3-0.6,4.3-0.4,6,0.5l6.5,3.8c1.3,0.7,2.4,1.1,3.5,1.1
					c1.9,0,3.4-1.1,4.7-3.3l4.5-7.7c1.3-2.2,0.5-5-1.7-6.3c-2.2-1.3-5-0.5-6.3,1.7l-4.3,7.4c-0.3,0.6-0.1,1.4,0.5,1.7
					c0.6,0.3,1.4,0.1,1.7-0.5l4.3-7.4c0.6-1,1.9-1.3,2.8-0.8c1,0.6,1.3,1.9,0.8,2.8l-4.5,7.7c-1.3,2.2-2.6,2.6-4.8,1.3l-6.5-3.8
					c-2.2-1.3-4.9-1.6-7.8-0.8c-0.9,0.2-7.7,2-7.7,2l0,0c-0.5,0.1-0.9,0.6-0.9,1.2c0,0.7,0.6,1.3,1.3,1.3
					C23.5,52.3,23.6,52.3,23.8,52.2z"/>
			</g>
		</g>
	</g>
</g>
</svg>
