<?xml version="1.0" encoding="utf-8"?>
<!-- Generator: Adobe Illustrator 25.3.1, SVG Export Plug-In . SVG Version: 6.00 Build 0)  -->
<svg version="1.1" id="Layer_1" xmlns="http://www.w3.org/2000/svg" xmlns:xlink="http://www.w3.org/1999/xlink" x="0px" y="0px"
	 viewBox="0 0 90 90" style="enable-background:new 0 0 90 90;" xml:space="preserve">
<style type="text/css">
	.st0{fill:#2B313B;}
	.st1{fill:#32B284;}
</style>
<g>
	<g>
		<g>
			<g transform="translate(-165.000000, -3814.000000) translate(131.000000, 3787.000000) translate(34.000000, 27.000000)">
				<circle class="st0" cx="45" cy="45" r="45"/>
				<g>
					<g>
						<path class="st1" d="M42.6,36.2h8c0.5,0,0.9-0.4,0.9-0.9c0-0.5-0.4-0.9-0.9-0.9h-8c-0.5,0-0.9,0.4-0.9,0.9
							C41.7,35.7,42.1,36.2,42.6,36.2z M42.6,42.3h9.4c0.5,0,0.9-0.4,0.9-0.9c0-0.5-0.4-0.9-0.9-0.9h-9.4c-0.5,0-0.9,0.4-0.9,0.9
							C41.7,41.9,42.1,42.3,42.6,42.3z M42.6,48.5h10.9c0.5,0,0.9-0.4,0.9-0.9c0-0.5-0.4-0.9-0.9-0.9H42.6c-0.5,0-0.9,0.4-0.9,0.9
							C41.7,48.1,42.1,48.5,42.6,48.5z M42.6,54.7h13c0.5,0,0.9-0.4,0.9-0.9c0-0.5-0.4-0.9-0.9-0.9h-13c-0.5,0-0.9,0.4-0.9,0.9
							C41.7,54.3,42.1,54.7,42.6,54.7z M33.2,56.7c0,0,0.1,0,0.1,0.1l0.1,0.1c0.1,0,0.2,0.1,0.3,0.1H34l0.1,0l0.1,0l0.1,0l0.1-0.1
							l0.1-0.1c0,0,0,0,0.1-0.1c0.2-0.2,0.2-0.4,0.2-0.7L34,47.8l1.2,0.3c0.3,0.1,0.6,0,0.8-0.1c0.2-0.2,0.4-0.4,0.4-0.7l0.1-2.3
							l2.1-0.8c0.3-0.1,0.5-0.3,0.5-0.6c0.1-0.3,0-0.6-0.1-0.8l-1.2-1.9l1.2-1.9c0.1-0.2,0.2-0.5,0.1-0.8c-0.1-0.3-0.3-0.5-0.6-0.6
							l-2.1-0.8l-0.2-2.2c0-0.3-0.1-0.5-0.4-0.7c-0.2-0.2-0.5-0.2-0.8-0.2l-2.2,0.6l-1.5-1.7c-0.2-0.2-0.4-0.3-0.7-0.3
							c-0.3,0-0.5,0.1-0.7,0.3l-1.4,1.8l-2.2-0.6c-0.3-0.1-0.6,0-0.8,0.2c-0.2,0.2-0.4,0.4-0.4,0.7l-0.1,2.3L23,37.6
							c-0.3,0.1-0.5,0.3-0.5,0.6c-0.1,0.3,0,0.6,0.1,0.8l1.2,1.9l-1.2,1.9c-0.1,0.2-0.2,0.5-0.1,0.8s0.3,0.5,0.5,0.6l2.1,0.8
							l0.1,2.3c0,0.3,0.2,0.5,0.4,0.7c0.2,0.2,0.5,0.2,0.8,0.1l1.3-0.4l-0.9,8c0,0.1,0,0.1,0,0.2c0,0.1,0,0.1,0,0.2
							c0,0.1,0,0.1,0.1,0.2c0,0,0,0.1,0.1,0.1v0c0,0,0,0.1,0.1,0.1l0,0c0,0,0.1,0.1,0.1,0.1h0l0.1,0.1h0c0,0,0.1,0,0.1,0h0.1
							c0.1,0,0.2,0,0.3-0.1h0c0.1,0,0.2-0.1,0.2-0.1l2.3-2C30.7,54.6,33.2,56.7,33.2,56.7z M28.8,45.6L27.1,46L27,44.3
							c0-0.4-0.3-0.7-0.6-0.8l-1.6-0.6l0.9-1.5c0.2-0.3,0.2-0.7,0-1L24.8,39l1.6-0.6c0.3-0.1,0.6-0.5,0.6-0.8l0.1-1.8l1.7,0.4
							c0.4,0.1,0.7,0,1-0.3l1.1-1.3l1.1,1.3c0.2,0.3,0.6,0.4,1,0.3l1.7-0.4l0.1,1.7c0,0.3,0.3,0.6,0.6,0.8l1.6,0.6l-0.9,1.5
							c-0.2,0.3-0.2,0.7,0,1l0.9,1.5l-1.6,0.6c-0.3,0.1-0.6,0.5-0.6,0.8L34.5,46l-1.7-0.4c-0.4-0.1-0.7,0-1,0.3l-1.1,1.3l-1.1-1.3
							c-0.2-0.2-0.4-0.3-0.7-0.3C28.9,45.5,28.8,45.6,28.8,45.6L28.8,45.6z M29,53.7l0.6-5l0.5,0.6c0.2,0.2,0.4,0.3,0.7,0.3
							c0.3,0,0.5-0.1,0.7-0.3l0.6-0.8l0.4,5.2l-1.2-1c-0.4-0.3-0.9-0.3-1.2,0L29,53.7L29,53.7z"/>
						<path class="st1" d="M60.7,27H30.8c-0.5,0-0.9,0.4-0.9,0.9v2.8c0.3-0.1,0.6-0.2,0.9-0.2h0.1c0.3,0,0.6,0.1,0.9,0.2v-1.9h28
							v31.2h-28v-2.6l-0.9-0.8l-0.9,0.8v3.6c0,0.5,0.4,0.9,0.9,0.9h29.9c0.5,0,0.9-0.4,0.9-0.9V27.9C61.6,27.4,61.2,27,60.7,27
							L60.7,27z"/>
						<path class="st1" d="M34.2,41c0-1.4-0.8-2.6-2.1-3.1c-1.3-0.5-2.7-0.2-3.7,0.7c-1,1-1.3,2.4-0.7,3.7c0.5,1.3,1.8,2.1,3.1,2.1
							C32.7,44.3,34.2,42.8,34.2,41z M29.3,41c0-0.6,0.4-1.2,0.9-1.4c0.6-0.2,1.2-0.1,1.7,0.3c0.4,0.4,0.6,1.1,0.3,1.7
							c-0.2,0.6-0.8,0.9-1.4,0.9C30,42.5,29.3,41.8,29.3,41z"/>
					</g>
				</g>
			</g>
		</g>
	</g>
</g>
</svg>
