<svg xmlns="http://www.w3.org/2000/svg" width="90" height="90" viewBox="0 0 90 90">
    <g fill="none" fill-rule="evenodd">
        <g fill-rule="nonzero">
            <g>
                <g transform="translate(-188.000000, -1130.000000) translate(148.000000, 1089.000000) translate(40.000000, 41.000000)">
                    <circle cx="45" cy="45" r="45" fill="#2B313B"/>
                    <g fill="#DD1F48">
                        <path d="M25.29 25.641c-.07-2.445-1.468-4.392-2.718-5.513.079-.199.14-.406.18-.621 1.258-.08 3.728.111 5.064 2.498-.529 1.417-1.403 2.663-2.526 3.636m-6.444 2.154c1.642-1.74 2.021-4.096 1.933-5.815.226-.097.433-.222.631-.365.937.882 2.465 2.776 1.88 5.335-1.164.556-2.46.876-3.833.876-.207 0-.41-.017-.611-.031m-6.147-2.792h.002c2.405 0 4.318-1.567 5.448-2.871.238.101.493.094.756.138.046 1.362-.226 3.893-2.428 5.213-1.477-.525-2.775-1.544-3.778-2.48m1.089-12.999c.002 2.441 1.344 4.4 2.588 5.567-.104.24-.173.496-.219.76-1.334.06-3.739-.221-4.997-2.712.561-1.417 1.469-2.66 2.628-3.615m6.472-1.995c-1.632 1.713-2.03 4.032-1.959 5.749-.254.095-.5.208-.721.358-.96-.933-2.395-2.835-1.748-5.371 1.11-.495 2.333-.777 3.625-.777.27 0 .538.017.803.041m5.99 3.109c-2.365.054-4.251 1.47-5.355 2.759-.228-.11-.467-.2-.72-.255-.05-1.358.213-3.75 2.4-5.08 1.436.537 2.698 1.429 3.675 2.576m-5.308 5.779c0 .819-.666 1.485-1.485 1.485-.819 0-1.485-.666-1.485-1.485 0-.82.666-1.485 1.485-1.485.819 0 1.485.666 1.485 1.485m-9.59 3.723c-.524-1.135-.824-2.393-.824-3.723 0-.29.016-.575.043-.857 1.555 1.674 3.678 2.173 5.348 2.173.156 0 .294-.015.441-.024.091.216.204.42.336.61-.89 1.006-2.793 2.61-5.344 1.821m11.212-4.982c-.073-.179-.165-.346-.266-.507.83-.97 2.711-2.657 5.253-1.978.53 1.14.834 2.406.834 3.744 0 .242-.018.48-.037.718-1.738-1.737-4.106-2.1-5.784-1.977m-3.107-9.542c-5.955 0-10.8 4.846-10.8 10.8 0 5.956 4.845 10.801 10.8 10.801 5.955 0 10.8-4.845 10.8-10.8 0-5.955-4.845-10.8-10.8-10.8" transform="translate(25.750000, 26.000000)"/>
                        <path d="M33.937 0H5.563C2.905 0 .75 2.155.75 4.813v28.374C.75 35.845 2.905 38 5.563 38h28.374c2.658 0 4.813-2.155 4.813-4.813V4.813C38.75 2.155 36.595 0 33.937 0zM5.563 1.52h28.374c1.819 0 3.293 1.474 3.293 3.293v28.374c0 1.819-1.474 3.293-3.293 3.293H5.563c-1.819 0-3.293-1.474-3.293-3.293V4.813c0-1.819 1.474-3.293 3.293-3.293z" transform="translate(25.750000, 26.000000)"/>
                    </g>
                </g>
            </g>
        </g>
    </g>
</svg>
