<?xml version="1.0" encoding="utf-8"?>
<!-- Generator: Adobe Illustrator 25.3.1, SVG Export Plug-In . SVG Version: 6.00 Build 0)  -->
<svg version="1.1" id="Layer_1" xmlns="http://www.w3.org/2000/svg" xmlns:xlink="http://www.w3.org/1999/xlink" x="0px" y="0px"
	 viewBox="0 0 90 90" style="enable-background:new 0 0 90 90;" xml:space="preserve">
<style type="text/css">
	.st0{fill:#1A1E24;}
	.st1{fill:#32B284;}
</style>
<g>
	<g>
		<g transform="translate(-126.000000, -3206.000000) translate(126.000000, 3206.000000)">
			<circle class="st0" cx="45" cy="45" r="45"/>
			<g>
				<path class="st1" d="M33.2,54.9c-2.7,0-5.3-1-7.2-2.9c-1.9-1.9-3-4.4-3-7.1c0-2.7,1.1-5.2,3-7.1c1.9-1.9,4.5-2.9,7.2-2.9h0
					c2.7,0,5.3,1,7.2,2.9l4.6,4.6l4.6-4.6c1.9-1.9,4.5-2.9,7.2-2.9h0c5.6,0,10.2,4.5,10.2,10.1c0,2.7-1.1,5.2-3,7.1
					c-1.9,1.9-4.5,2.9-7.2,2.9h0c-2.7,0-5.3-1-7.2-2.9L45,47.4L40.4,52C38.4,53.9,35.9,54.9,33.2,54.9
					C33.2,54.9,33.2,54.9,33.2,54.9z M47.6,44.8l4.6,4.6c1.2,1.2,2.9,1.9,4.6,1.9h0c1.7,0,3.4-0.7,4.6-1.9c1.2-1.2,1.9-2.8,1.9-4.5
					c0-3.5-2.9-6.4-6.5-6.4c-1.7,0-3.4,0.7-4.6,1.9C50.1,42.4,48.6,43.8,47.6,44.8z M33.2,38.4L33.2,38.4c-1.8,0-3.4,0.7-4.6,1.9
					c-1.2,1.2-1.9,2.8-1.9,4.5s0.7,3.3,1.9,4.5c1.2,1.2,2.9,1.9,4.6,1.9h0c1.7,0,3.4-0.7,4.6-1.9c2.1-2.1,3.6-3.5,4.6-4.5l-4.6-4.6
					C36.6,39.1,34.9,38.4,33.2,38.4z"/>
			</g>
		</g>
	</g>
</g>
</svg>
