<?xml version="1.0" encoding="utf-8"?>
<!-- Generator: Adobe Illustrator 25.3.1, SVG Export Plug-In . SVG Version: 6.00 Build 0)  -->
<svg version="1.1" id="Layer_1" xmlns="http://www.w3.org/2000/svg" xmlns:xlink="http://www.w3.org/1999/xlink" x="0px" y="0px"
	 viewBox="0 0 90 90" style="enable-background:new 0 0 90 90;" xml:space="preserve">
<style type="text/css">
	.st0{fill:#2B313B;}
	.st1{fill:#32B284;}
</style>
<g>
	<g>
		<g>
			<g>
				
					<g transform="translate(-456.000000, -3814.000000) translate(131.000000, 3787.000000) translate(286.000000, 0.000000) translate(39.000000, 27.000000)">
					<circle class="st0" cx="45" cy="45" r="45"/>
					<g>
						<path class="st1" d="M63.6,40.7c-1.9-0.3-3.2-0.4-3.9-2.3c-1.4-3.3,3-4.5,1-6.5l-2.5-2.5c-0.6-0.6-1.5-0.7-2.2-0.2
							c-1.2,0.8-2.4,2-4.4,1.1c-2-0.8-2-2.5-2.3-3.9c-0.1-0.8-0.8-1.4-1.7-1.4H44c-0.8,0-1.5,0.6-1.7,1.4l-0.2,1.3
							c-0.2,1.2-1,2.1-2.1,2.6c-1.1,0.5-2.3,0.3-3.3-0.4l-1.1-0.8c-0.7-0.5-1.6-0.4-2.1,0.2l-2.5,2.5c-0.6,0.6-0.7,1.5-0.2,2.1
							c0.9,1.2,2,2.4,1.1,4.4c-0.8,2-2.5,2-3.9,2.3c-0.8,0.1-1.4,0.8-1.4,1.7V46c0,2.8,3.9,0.6,5.3,3.9c0.3,0.8,0.7,1.5,1.2,2.3
							c-7.7,7.7-8.2,7.7-8.2,9.5c0,1.8,1.5,3.3,3.3,3.3c1.8,0,1.9-0.5,9.5-8.2c3.2,2,3.8,0.9,4.5,5.1c0.1,0.8,0.8,1.4,1.7,1.4h3.6
							c2.9,0,0.5-3.9,4-5.3c3.3-1.4,4.5,3,6.5,1l2.5-2.5c0.6-0.6,0.7-1.5,0.2-2.2L60,53.2c-0.7-1-0.8-2.2-0.4-3.3
							c0.5-1.1,1.4-1.9,2.6-2.1l1.3-0.2c0.8-0.1,1.4-0.8,1.4-1.7v-3.6C65,41.6,64.4,40.9,63.6,40.7z M29.5,62.8
							c-0.5,0.5-1.2,0.6-1.8,0.4c-0.6-0.3-1-0.9-1-1.5c0-1-0.5-0.1,13.5-14.2c0.7-0.7,1.1-1.7,1-2.8c-0.2-1.5,0.2-3,1.2-4.1
							c1-1.1,2.5-1.7,4-1.6c-1.9,1.9-2.5,2.2-2.2,3c1.1,2.8,1,2.8,1.5,3c3.6,1.4,2.5,1.7,5.5-1.2c0.1,1.5-0.5,3-1.6,4
							c-1.1,1-2.6,1.5-4.1,1.2c-1-0.1-2,0.2-2.7,1C42.5,49.9,29.5,62.8,29.5,62.8z M45.8,35c3.7,0,7.1,2.3,8.5,5.7s0.6,7.4-2.1,10
							c-2.7,2.6-6.7,3.3-10.1,1.8c1.5-1.5,1.9-2.1,2.8-2c2.3,0.4,4.7-0.5,6.2-2.3c1.5-1.8,1.9-4.3,1.1-6.5c-0.1-0.3-0.3-0.5-0.6-0.5
							c-0.3-0.1-0.6,0-0.8,0.2l-2.8,2.7l-1.7-0.7l-0.7-1.7l2.8-2.8c0.2-0.2,0.3-0.5,0.2-0.8c-0.1-0.3-0.3-0.5-0.5-0.6
							c-2.2-0.8-4.7-0.4-6.5,1.1c-1.8,1.5-2.7,3.8-2.4,6.2c0.1,0.9-0.4,1.2-2,2.8c-1.2-2.8-1-6.1,0.7-8.7C39.9,36.6,42.7,35,45.8,35
							z M63.3,46c-1.7,0.3-4,0.5-5.2,3.3c-0.7,1.6-0.5,3.5,0.5,4.9l0.8,1.1L57,57.8L55.8,57c-1.4-1-3.3-1.2-4.9-0.5
							c-1.6,0.7-2.8,2.1-3.1,3.9l-0.2,1.3H44c-0.8-5-2.2-4.4-5-6l1.8-1.8c4.7,2.4,10.6,1,13.7-3.3c3.1-4.3,2.7-10.3-1.1-14
							c-3.8-3.8-9.7-4.2-14-1.1c-4.3,3.1-5.7,8.9-3.3,13.7l-1.8,1.8c-1.6-2.7-1.1-4.2-6-5v-3.6c1.7-0.3,4-0.5,5.2-3.3
							c0.7-1.6,0.4-3.4-0.6-4.8l-0.8-1.1l2.5-2.5l1.1,0.8c1.4,1,3.3,1.2,4.9,0.6s2.8-2.1,3.1-3.9l0.2-1.3h3.6c0.3,1.7,0.5,4,3.3,5.2
							c1.6,0.7,3.5,0.5,4.9-0.6l1.1-0.8l2.5,2.5c-1.1,1.5-2.5,3.2-1.3,6c1.1,2.7,3.4,3,5.2,3.3C63.3,42.3,63.3,46,63.3,46z"/>
					</g>
				</g>
			</g>
		</g>
	</g>
</g>
</svg>
