<svg xmlns="http://www.w3.org/2000/svg" width="90" height="90" viewBox="0 0 90 90">
    <g fill="none" fill-rule="evenodd">
        <g fill-rule="nonzero">
            <g transform="translate(-972.000000, -1130.000000) translate(972.000000, 1130.000000)">
                <circle cx="45" cy="45" r="45" fill="#2B313B"/>
                <g fill="#DD1F48">
                    <path stroke="#DD1F48" d="M19.333.192l9.017 5.206V5.4l9.014 5.205.336.194v21.585l-.336.195-9.015 5.204v.002l-9.016 5.205-.333.193-.333-.193-9.017-5.205v-.002L.637 32.578.3 32.384V10.798l.336-.194 9.015-5.205h0L18.666.191 19 0l.333.192zm8.35 6.357L19 1.535 10.316 6.55h-.002L1.633 11.56v20.06l8.68 5.012h.003L19 41.647l8.684-5.014h.002l8.681-5.012v-20.06l-8.68-5.012h-.003z" transform="translate(26.000000, 23.000000)"/>
                    <path d="M8.212 28.123c.195 0 .389-.075.537-.223l7.5-7.5 3.929 3.929c.142.142.335.222.536.222s.394-.08.536-.222l6.035-6.035.943.942c.096.096.225.148.357.148.048 0 .097-.006.144-.02.177-.053.312-.198.35-.38l.818-3.814c.036-.167-.015-.342-.137-.463-.121-.122-.296-.173-.463-.137l-3.815.817c-.18.039-.326.174-.379.351-.052.178-.003.37.128.501l.981.982-5.498 5.498-3.928-3.928c-.297-.296-.777-.296-1.073 0l-8.037 8.037c-.296.296-.296.776 0 1.072.148.149.342.223.536.223z" transform="translate(26.000000, 23.000000)"/>
                </g>
            </g>
        </g>
    </g>
</svg>
