<?xml version="1.0" encoding="utf-8"?>
<!-- Generator: Adobe Illustrator 25.3.1, SVG Export Plug-In . SVG Version: 6.00 Build 0)  -->
<svg version="1.1" id="Layer_1" xmlns="http://www.w3.org/2000/svg" xmlns:xlink="http://www.w3.org/1999/xlink" x="0px" y="0px"
	 viewBox="0 0 90 90" style="enable-background:new 0 0 90 90;" xml:space="preserve">
<style type="text/css">
	.st0{fill:#1A1E24;}
	.st1{fill:#32B284;}
</style>
<g>
	<g>
		<g transform="translate(-762.000000, -2904.000000) translate(762.000000, 2904.000000)">
			<circle class="st0" cx="45" cy="45" r="45"/>
			<g>
				<path class="st1" d="M46.7,46.7l-4.1,4.1l-3.3-3.3l4.1-4.1c0.4-0.5,0.4-1.2,0-1.6c-0.5-0.5-1.2-0.5-1.6,0l-4.1,4.1l-1.6-1.6
					c-0.5-0.5-1.2-0.5-1.6,0l-5,4.9c-2.9,2.9-3.2,7.4-0.7,10.6L24.4,64c-0.3,0.3-0.4,0.7-0.3,1.1c0.1,0.4,0.4,0.7,0.8,0.8
					c0.4,0.1,0.8,0,1.1-0.3l4.2-4.2c3.2,2.5,7.8,2.1,10.6-0.7l5-5c0.5-0.5,0.5-1.2,0-1.7l-1.6-1.6l4.1-4.1c0.4-0.5,0.4-1.2,0-1.6
					C47.8,46.2,47.1,46.2,46.7,46.7z M39.2,59c-1.5,1.5-3.6,2.1-5.6,1.5c-2-0.5-3.6-2.1-4.1-4.1c-0.5-2,0-4.2,1.5-5.6l4.1-4.1
					l6.6,6.6l1.6,1.7L39.2,59L39.2,59z M65.6,24.4c-0.5-0.5-1.2-0.5-1.7,0l-4.2,4.2c-3.2-2.4-7.8-2.1-10.6,0.7l-5,5
					c-0.5,0.5-0.5,1.2,0,1.6l9.9,9.9c0.2,0.2,0.5,0.3,0.8,0.3c0.3,0,0.6-0.1,0.8-0.3l5-4.9c2.9-2.9,3.2-7.4,0.7-10.6l4.2-4.2
					c0.2-0.2,0.3-0.5,0.3-0.8C66,24.9,65.8,24.6,65.6,24.4z M59,39.2l-4.1,4.1l-8.2-8.2l4.1-4.1c2.3-2.3,6-2.3,8.2,0
					C61.3,33.3,61.3,36.9,59,39.2L59,39.2z"/>
			</g>
		</g>
	</g>
</g>
</svg>
