<svg enable-background="new 0 0 500 410.6" viewBox="0 0 500 410.6" xmlns="http://www.w3.org/2000/svg" xmlns:xlink="http://www.w3.org/1999/xlink"><clipPath id="a"><path d="m502.3 404.4-504.6 6.2v-404.4l504.6-6.2z"/></clipPath><radialGradient id="b" cx="242.8933" cy="-13341.5732" gradientTransform="matrix(1 0 0 -.307 0 -3783.4202)" gradientUnits="userSpaceOnUse" r="298.1366"><stop offset=".4022" stop-color="#358de5"/><stop offset=".4544" stop-color="#3283d4" stop-opacity=".8804"/><stop offset=".5579" stop-color="#2a69a7" stop-opacity=".6429"/><stop offset=".7014" stop-color="#1e3f60" stop-opacity=".3137"/><stop offset=".8381" stop-color="#111316" stop-opacity="0"/></radialGradient><linearGradient id="c" gradientTransform="matrix(1 0 0 -1 0 412)" gradientUnits="userSpaceOnUse" x1="88.0456" x2="245.3" y1="377.7127" y2="377.7127"><stop offset=".4067" stop-color="#414c59"/><stop offset=".5207" stop-color="#3d4753"/><stop offset=".6666" stop-color="#313a43"/><stop offset=".83" stop-color="#1e2329"/><stop offset="1" stop-color="#040506"/></linearGradient><linearGradient id="d"><stop offset=".4908" stop-color="#358de5"/><stop offset=".5446" stop-color="#3682e1"/><stop offset=".6382" stop-color="#3766d8"/><stop offset=".7568" stop-color="#3939c9"/></linearGradient><linearGradient id="e" gradientTransform="matrix(-1 0 0 -1 1048.8132 412)" gradientUnits="userSpaceOnUse" x1="854.6262" x2="864.2767" xlink:href="#d" y1="412.4851" y2="354.8482"/><linearGradient id="f"><stop offset="0" stop-color="#414c59"/><stop offset=".1698" stop-color="#37404b"/><stop offset=".4893" stop-color="#1c2126"/><stop offset=".7347" stop-color="#040506"/></linearGradient><linearGradient id="g" gradientTransform="matrix(1 0 0 -1 0 412)" gradientUnits="userSpaceOnUse" x1="141.1973" x2="335.175" xlink:href="#f" y1="67.4679" y2="153.1991"/><linearGradient id="h" gradientTransform="matrix(1 0 0 -1 0 412)" gradientUnits="userSpaceOnUse" x1="181.9" x2="309" y1="103.8997" y2="103.8997"><stop offset="0" stop-color="#414c59"/><stop offset=".2101" stop-color="#37404b"/><stop offset=".6055" stop-color="#1c2126"/><stop offset=".9092" stop-color="#040506"/></linearGradient><linearGradient id="i" gradientTransform="matrix(1 0 0 -1 0 412)" gradientUnits="userSpaceOnUse" x1="179.2415" x2="311.5782" xlink:href="#f" y1="109.1489" y2="160.1357"/><linearGradient id="j"><stop offset=".1018" stop-color="#3939c9"/><stop offset=".2816" stop-color="#3857d3"/><stop offset=".495" stop-color="#3675dd"/><stop offset=".6793" stop-color="#3587e3"/><stop offset=".812" stop-color="#358de5"/></linearGradient><linearGradient id="k" gradientTransform="matrix(1 0 0 -1 0 412)" gradientUnits="userSpaceOnUse" x1="172.8165" x2="314.0759" xlink:href="#j" y1="120.4889" y2="147.9679"/><linearGradient id="l" gradientTransform="matrix(1 0 0 -1 0 412)" gradientUnits="userSpaceOnUse" x1="203.1636" x2="266.4868" xlink:href="#j" y1="102.2094" y2="150.8865"/><linearGradient id="m" gradientTransform="matrix(1 0 0 -1 0 412)" gradientUnits="userSpaceOnUse" x1="270.6808" x2="308.3544" xlink:href="#j" y1="98.4" y2="98.4"/><linearGradient id="n" gradientTransform="matrix(1 0 0 -1 0 412)" gradientUnits="userSpaceOnUse" x1="267.3731" x2="305.2408" xlink:href="#j" y1="107.25" y2="107.25"/><linearGradient id="o" gradientTransform="matrix(1 0 0 -1 0 412)" gradientUnits="userSpaceOnUse" x1="270.219" x2="287.0242" xlink:href="#j" y1="104.8696" y2="104.8696"/><linearGradient id="p" gradientTransform="matrix(1 0 0 -1 0 412)" gradientUnits="userSpaceOnUse" x1="272.5" x2="289.3052" xlink:href="#j" y1="95.2696" y2="95.2696"/><linearGradient id="q" gradientTransform="matrix(1 0 0 -1 0 412)" gradientUnits="userSpaceOnUse" x1="182.0917" x2="216.3854" xlink:href="#j" y1="97.5903" y2="97.5903"/><linearGradient id="r" gradientTransform="matrix(1 0 0 -1 0 412)" gradientUnits="userSpaceOnUse" x1="185.4361" x2="220.4505" xlink:href="#j" y1="106.7403" y2="106.7403"/><linearGradient id="s" gradientTransform="matrix(1 0 0 -1 0 412)" gradientUnits="userSpaceOnUse" x1="201.8935" x2="218.14" xlink:href="#j" y1="104.4828" y2="104.4828"/><linearGradient id="t" gradientTransform="matrix(1 0 0 -1 0 412)" gradientUnits="userSpaceOnUse" x1="198.7994" x2="215.0459" xlink:href="#j" y1="95.1828" y2="95.1828"/><linearGradient id="u" gradientTransform="matrix(1 0 0 -1 0 412)" gradientUnits="userSpaceOnUse" x1="245.3" x2="402.5544" y1="377.7127" y2="377.7127"><stop offset="0" stop-color="#040506"/><stop offset=".17" stop-color="#1e2329"/><stop offset=".3334" stop-color="#313a43"/><stop offset=".4793" stop-color="#3d4753"/><stop offset=".5933" stop-color="#414c59"/></linearGradient><linearGradient id="v" gradientTransform="matrix(1 0 0 -1 0 412)" gradientUnits="userSpaceOnUse" x1="296.4218" x2="306.0721" xlink:href="#d" y1="412.4831" y2="354.8462"/><linearGradient id="w" gradientTransform="matrix(1 0 0 -1 0 412)" gradientUnits="userSpaceOnUse" x1="155.0962" x2="348.6443" y1="271.3835" y2="239.5338"><stop offset="0" stop-color="#414c59"/><stop offset=".1412" stop-color="#3d4753"/><stop offset=".3219" stop-color="#313a43"/><stop offset=".5241" stop-color="#1e2329"/><stop offset=".7347" stop-color="#040506"/></linearGradient><linearGradient id="x" gradientTransform="matrix(1 0 0 -1 0 412)" gradientUnits="userSpaceOnUse" x1="244.6714" x2="245.6066" xlink:href="#d" y1="217.1226" y2="180.4168"/><linearGradient id="y" gradientTransform="matrix(1 0 0 -1 0 412)" gradientUnits="userSpaceOnUse" x1="244.671" x2="245.6061" xlink:href="#d" y1="207.6919" y2="170.9861"/><linearGradient id="z" gradientTransform="matrix(1 0 0 -1 0 412)" gradientUnits="userSpaceOnUse" x1="244.6705" x2="245.6056" xlink:href="#d" y1="198.2612" y2="161.5554"/><linearGradient id="A" gradientTransform="matrix(1 0 0 -1 0 412)" gradientUnits="userSpaceOnUse" x1="244.6712" x2="245.6064" xlink:href="#d" y1="188.8304" y2="152.1246"/><linearGradient id="B"><stop offset=".0910612" stop-color="#040506"/><stop offset=".2669" stop-color="#1e2329"/><stop offset=".4358" stop-color="#313a43"/><stop offset=".5868" stop-color="#3d4753"/><stop offset=".7047" stop-color="#414c59"/></linearGradient><linearGradient id="C" gradientTransform="matrix(1 0 0 -1 0 412)" gradientUnits="userSpaceOnUse" x1="475.762" x2="335.8545" xlink:href="#B" y1="175.8408" y2="236.4903"/><linearGradient id="D" gradientTransform="matrix(1 0 0 -1 0 412)" gradientUnits="userSpaceOnUse" x1="478.5085" x2="277.9475" xlink:href="#B" y1="173.1399" y2="282.5988"/><linearGradient id="E"><stop offset=".1018" stop-color="#3939c9"/><stop offset=".2252" stop-color="#3857d3"/><stop offset=".3716" stop-color="#3675dd"/><stop offset=".4981" stop-color="#3587e3"/><stop offset=".5892" stop-color="#358de5"/></linearGradient><linearGradient id="F" gradientTransform="matrix(1 0 0 -1 0 412)" gradientUnits="userSpaceOnUse" x1="469.7841" x2="318.5215" xlink:href="#E" y1="171.3075" y2="268.1386"/><linearGradient id="G" gradientTransform="matrix(1 0 0 -1 0 412)" gradientUnits="userSpaceOnUse" x1="464.7126" x2="324.3651" xlink:href="#B" y1="174.554" y2="264.3978"/><linearGradient id="H"><stop offset=".3983" stop-color="#040506"/><stop offset=".481" stop-color="#0b0d10"/><stop offset=".619" stop-color="#1e2329"/><stop offset=".7946" stop-color="#3d4753"/><stop offset=".8178" stop-color="#414c59"/></linearGradient><linearGradient id="I" gradientTransform="matrix(1 0 0 -1 0 412)" gradientUnits="userSpaceOnUse" x1="399.5" x2="399.5" xlink:href="#H" y1="181.2523" y2="256.7325"/><linearGradient id="J"><stop offset=".1284" stop-color="#3939c9"/><stop offset=".4424" stop-color="#376dda"/><stop offset=".6668" stop-color="#358de5"/></linearGradient><linearGradient id="K" gradientTransform="matrix(1 0 0 -1 0 412)" gradientUnits="userSpaceOnUse" x1="399.5" x2="399.5" xlink:href="#J" y1="190.8146" y2="223.2562"/><linearGradient id="L" gradientTransform="matrix(1 0 0 -1 0 412)" gradientUnits="userSpaceOnUse" x1="188.1422" x2="48.2348" xlink:href="#B" y1="177.7494" y2="238.3989"/><linearGradient id="M" gradientTransform="matrix(1 0 0 -1 0 412)" gradientUnits="userSpaceOnUse" x1="190.8915" x2="-9.6694" xlink:href="#B" y1="175.0491" y2="284.5079"/><linearGradient id="N" gradientTransform="matrix(1 0 0 -1 0 412)" gradientUnits="userSpaceOnUse" x1="182.1694" x2="30.9067" xlink:href="#E" y1="173.2169" y2="270.0479"/><linearGradient id="O" gradientTransform="matrix(1 0 0 -1 0 412)" gradientUnits="userSpaceOnUse" x1="177.098" x2="36.7503" xlink:href="#B" y1="176.4634" y2="266.3072"/><linearGradient id="P" gradientTransform="matrix(1 0 0 -1 0 412)" gradientUnits="userSpaceOnUse" x1="111.9" x2="111.9" xlink:href="#H" y1="183.1392" y2="258.6194"/><linearGradient id="Q" gradientTransform="matrix(1 0 0 -1 0 412)" gradientUnits="userSpaceOnUse" x1="111.9" x2="111.9" xlink:href="#J" y1="192.7011" y2="225.1427"/><g clip-path="url(#a)"><path d="m531.4 150.7-90.7 39.1-38.2-16.4 92.2-39.7c.3-.1.5-.5.3-.7-.2-.3-.6-.3-1-.2l-92.9 40-38.2-16.4 91.2-39.3c.3-.1.5-.5.3-.7-.2-.3-.6-.3-1-.2l-91.9 39.6-38.2-16.4 90.2-38.9c.3-.1.4-.5.3-.7-.2-.2-.6-.3-1-.2l-90.9 39.2-90.9-39.3c-.3-.1-.8-.1-1 .2s-.1.6.3.7l90.2 38.9-38.2 16.4-91.9-39.6c-.3-.1-.8-.1-1 .2s-.1.6.3.7l91.2 39.3-38.2 16.4-92.9-40c-.3-.1-.8-.1-1 .2s-.1.6.3.7l92.2 39.7-38.2 16.4-93.9-40.4c-.3-.1-.8-.1-1 .2s-.1.6.3.7l93.2 40.1-38.2 16.4-94.8-40.7c-.3-.1-.8-.1-1 .2s-.1.6.3.7l94.1 40.5-38.1 16.5-95.8-41.3c-.3-.1-.8-.1-1 .2s-.1.6.3.7l95.1 41-38.2 16.4-96.8-41.7c-.3-.1-.8-.1-1 .2s-.1.6.3.7l96.1 41.4-38.1 16.5-97.8-42.1c-.3-.1-.8-.1-1 .2s-.1.6.3.7l97.1 41.8-38.2 16.4-98.8-42.5c-.3-.1-.8-.1-1 .2s-.1.6.3.7l98.1 42.2-38.2 16.4-99.8-43c-.3-.1-.8-.1-1 .2s-.1.6.3.7l99.1 42.7-38.2 16.4-94.6-40.8v1.2l93.2 40.2-38.2 16.4-55.1-23.7v1.2l53.6 23.1-53.6 23.1v1.2l55.1-23.7 38.2 16.4-93.2 40.1v1.2l94.6-40.8 38.2 16.4-99.1 42.7c-.3.1-.5.5-.3.7.1.2.4.3.6.3.1 0 .2 0 .3-.1l99.8-43 38.2 16.4-76.3 32.8h2.8l74.9-32.2 38.2 16.4-36.6 16.2h2.8l35.3-15.2 35.3 15.2h2.8l-36.7-15.8 38.2-16.4 38.2 16.4-36.7 15.8h2.8l35.3-15.2 35.3 15.2h2.8l-36.7-15.8 38.2-16.4 38.2 16.4-36.7 15.8h2.8l35.3-15.2 35.3 15.2h2.8l-36.7-15.8 38.2-16.4 38.2 16.4-36.7 15.8h2.8l35.3-15.2 35.3 15.2h2.8l-36.7-15.8 38.2-16.4 38.2 16.4-36.7 15.8h2.8l35.3-15.2 35.3 15.2h2.8l-36.7-15.8 38.2-16.4 38.2 16.4-36.7 15.8h2.8l35.3-15.2 35.3 15.2h2.8l-37-15.8 38.2-16.4 38.2 16.4-36.7 15.8h2.8l35.3-15.2 8.5 3.7c.2-.3.4-.7.5-1l-7.6-3.3 10-4.3c.1-.4.1-.8.1-1.3l-11.5 5-38.2-16.4 38.2-16.4 11.6 5v-1.2l-10.2-4.4 10.2-4.4v-1.2l-11.6 5-38.2-16.4 38.2-16.4 11.6 5v-1.2l-10.2-4.4 10.2-4.4v-1.2l-11.6 5-38.2-16.4 38.2-16.4 11.6 5v-1.2l-10.2-4.4 10.2-4.4v-1.2l-11.6 5-38.2-16.4 38.2-16.4 11.6 5v-1.5l-10.2-4.4 10.2-4.4v-1.2l-11.6 5-38.2-16.4 38.2-16.4 11.6 5v-1.2l-10.2-4.4 10.2-4.4v-1.2l-11.6 5-38.2-16.4 49.7-21.4v-1.2l-51.1 22-38.2-16.6 89.3-38.5v-1.2zm-92.2 39.7-38.2 16.4-38.2-16.4 38.2-16.4zm-313.8 102.3 38.2-16.4 38.2 16.4-38.2 16.4zm36.8 17-38.2 16.5-38.2-16.4 38.2-16.4zm159.7-34.7-38.2-16.4 38.2-16.4 38.2 16.4zm39.6-15.8 38.2 16.4-38.2 16.4-38.2-16.4zm-41 16.4-38.2 16.4-38.2-16.4 38.2-16.4zm-36.8-51.1 38.2-16.4 38.2 16.4-38.2 16.4zm36.8 17-38.2 16.5-38.2-16.4 38.2-16.4zm-39.6 17.1-38.2 16.4-38.2-16.4 38.2-16.4zm-39.6 17-38.2 16.4-38.1-16.4 38.2-16.4zm-38.1 17.7 38.2 16.4-38.2 16.4-38.2-16.4zm1.4-.6 38.2-16.4 38.2 16.4-38.2 16.4zm77.7.6 38.2 16.4-38.2 16.4-38.2-16.4zm1.4-.6 38.2-16.4 38.2 16.4-38.2 16.4zm77.8.6 38.2 16.4-38.2 16.4-38.2-16.4zm1.4-.6 38.2-16.4 38.2 16.4-38.2 16.4zm0-34.1 38.2-16.4 38.2 16.4-38.2 16.4zm-1.4-.6-38.2-16.4 38.2-16.4 38.2 16.4zm-38.2-50.6 38.2-16.4 38.2 16.4-38.2 16.4zm-1.4-.6-38.2-16.4 38.2-16.4 38.2 16.4zm-1.4.6-38.2 16.4-38.2-16.4 38.2-16.4zm-39.6 17.1-38.2 16.4-38.2-16.4 38.2-16.4zm-39.6 17-38.1 16.5-38.2-16.5 38.2-16.4zm-39.5 17.1-38.2 16.4-38.2-16.4 38.2-16.4zm-39.6 17-38.2 16.5-38.2-16.4 38.2-16.4zm-39.6 17.1-38.2 16.4-38.2-16.4 38.2-16.4zm-39.6 17-38.2 16.4-38.1-16.4 38.2-16.4zm-39.6 17.1-38.1 16.4-38.2-16.4 38.2-16.4zm1.5.6 38.1 16.4-38.2 16.4-38.1-16.4zm1.4-.6 38.2-16.4 38.2 16.4-38.2 16.4zm77.7.6 38.2 16.4-38.2 16.5-38.2-16.4zm1.4-.6 38.2-16.4 38.2 16.4-38.2 16.4zm77.8.6 38.2 16.4-38.2 16.4-38.2-16.4zm1.4-.6 38.2-16.4 38.2 16.4-38.2 16.4zm77.7.6 38.2 16.4-38.2 16.4-38.2-16.4zm1.4-.6 38.2-16.4 38.2 16.4-38.2 16.4zm77.8.6 38.2 16.4-38.2 16.4-38.2-16.4zm1.4-.6 38.2-16.4 38.2 16.4-38.2 16.4zm77.7.6 38.2 16.4-38.2 16.4-38.2-16.4zm0-1.2-38.2-16.4 38.2-16.4 38.2 16.4zm-38.1-50.6 38.2-16.4 38.2 16.4-38.2 16.4zm0-34.1 38.2-16.4 38.2 16.4-38.3 16.5zm-1.4-.6-38.2-16.4 38.2-16.4 38.2 16.4zm-1.5-67.5-38.2 16.4-38.2-16.4 38.2-16.4zm-77.7-33.5 38.2 16.4-38.2 16.4-38.2-16.4zm-39.6 17 38.2 16.4-38.2 16.4-38.2-16.4zm-39.6 17.1 38.2 16.4-38.2 16.4-38.2-16.4zm-39.5 17 38.2 16.4-38.2 16.4-38.2-16.4zm-39.6 17.1 38.2 16.4-38.2 16.4-38.2-16.4zm-39.6 17 38.2 16.4-38.2 16.5-38.2-16.4zm-39.6 17 38.2 16.4-38.2 16.5-38.2-16.4zm-39.5 17.1 38.1 16.4-38.2 16.4-38.1-16.4zm-39.6 17 38.2 16.4-38.2 16.5-38.2-16.4zm-39.6 17.1 38.2 16.4-38.2 16.4-38.2-16.4zm-77.7 33.5 38.2-16.4 38.2 16.4-38.2 16.4zm39.5 17 38.2-16.4 38.2 16.4-38.2 16.4zm39.6 17.1 38.2-16.4 38.2 16.4-38.2 16.4zm77.8 33.4-38.2-16.4 38.2-16.4 38.1 16.4zm1.4-33.4 38.2-16.4 38.2 16.4-38.2 16.4zm77.7 33.4-38.2-16.4 38.2-16.4 38.2 16.4zm1.4-33.4 38.2-16.4 38.2 16.4-38.2 16.4zm77.8 33.4-38.2-16.4 38.2-16.4 38.2 16.4zm1.4-33.4 38.2-16.4 38.2 16.4-38.2 16.4zm77.7 33.4-38.2-16.4 38.2-16.4 38.2 16.4zm1.4-33.4 38.2-16.4 38.2 16.4-38.2 16.4zm77.8 33.4-38.2-16.4 38.2-16.4 38.2 16.4zm1.4-33.4 38.2-16.4 38.2 16.4-38.2 16.4zm77.7 33.4-38.2-16.4 38.2-16.4 38.2 16.4zm77.8-33.4-38.2 16.4-38.2-16.4 38.2-16.4zm0-34.1-38.2 16.4-38.2-16.4 38.2-16.4zm0-34.1-38.2 16.4-38.2-16.4 38.2-16.4zm0-34.1-38.2 16.4-38.2-16.4 38.2-16.4zm0-34.1-38.2 16.4-38.2-16.4 38.2-16.4zm-39.6-17.1-38.2 16.4-38.2-16.4 38.2-16.4z" fill="url(#b)" opacity=".45"/><path d="m245.3 24.6h-120s-4.2-.2-8 1.2-8.5 3.8-10.5 4.1c-5.3.8-10 1.4-13.1-2.3-2.7-3.4-2-4.7-3.7-5-1.5-.3-2.7 2.1-1.4 4.7.8 1.6 3.5 6.4 9.7 6.5 6 .1 15.8-2.6 24.9-2.3l109.1 14.5z" fill="url(#c)"/><path d="m136 33.2 102.8 13.7v-3.6c-19.6-5.5-60.8-14.8-102.8-10.1z" fill="url(#e)"/><path d="m309.2 307.6c-1.6 16.3-29.6 29.2-63.9 29.2s-62.2-13-63.9-29.2c-.1-.9 0-1.8.3-2.6l.1-.4.2-.5.8-2.2 2.6-7.4.8-2.4 2-5.9.8-2.3.6-1.8 3.4-9.8h104.3l3.4 9.8 1 2.8.8 2.2 1.9 5.4.8 2.2 2.3 6.7.8 2.3.5 1.3c0 .1.1.2.1.3.3.7.3 1.5.3 2.3z" fill="url(#g)"/><path d="m308.9 305.2c-3.2 16.2-32.8 29-63.6 28.9-42.7-.1-60.2-16.7-63.4-29.5l.2-.5.8-2.2 2.6-7.4.8-2.4 2-5.9.8-2.3.6-1.8c4 13.3 27.4 23.5 55.6 23.5s51.6-10.2 55.6-23.5l1 2.8.8 2.2 1.9 5.4.8 2.2 2.3 6.7.8 2.3.5 1.3c-.1 0-.1.1-.1.2z" fill="url(#h)"/><ellipse cx="245.3" cy="277.4" fill="url(#i)" rx="53.3" ry="25.6"/><path d="m245.3 300.3c-12.6 0-24.5-2.4-33.5-6.7s-13.9-10.1-13.9-16.2 5-11.9 13.9-16.2 20.8-6.7 33.5-6.7c12.6 0 24.5 2.4 33.5 6.7s13.9 10.1 13.9 16.2-5 11.9-13.9 16.2c-9 4.4-20.9 6.7-33.5 6.7zm0-45.3c-25.9 0-47 10.1-47 22.5s21.1 22.5 47 22.5 47-10.1 47-22.5-21.1-22.5-47-22.5z" fill="url(#k)"/><path d="m245.3 301.9c-13.5 0-26.2-2.5-35.8-7.1-4.7-2.2-8.3-4.9-10.9-7.8-2.7-3-4-6.3-4-9.6s1.4-6.6 4-9.6c2.6-2.9 6.2-5.5 10.9-7.8 9.6-4.6 22.3-7.1 35.8-7.1s26.2 2.5 35.8 7.1c4.7 2.2 8.3 4.9 10.9 7.8 2.7 3 4 6.3 4 9.6s-1.4 6.6-4 9.6c-2.6 2.9-6.2 5.5-10.9 7.8-9.6 4.6-22.3 7.1-35.8 7.1zm0-48.5c-27.7 0-50.3 10.8-50.3 24.1s22.6 24.1 50.3 24.1 50.3-10.8 50.3-24.1-22.6-24.1-50.3-24.1z" fill="url(#l)"/><path d="m308.4 303.6c-3.6 6.4-10.7 12-21 16.8-8.2 3.8-15.5 5.5-15.6 5.5s-.1 0-.2 0c-.4 0-.8-.3-.9-.7-.1-.5.2-1 .7-1.1.3-.1 28.5-7 36.2-22.8z" fill="url(#m)"/><path d="m305.2 294.6c-3.6 6.5-10.7 12.3-21.2 17.1-8.2 3.8-15.5 5.5-15.6 5.5s-.1 0-.2 0c-.4 0-.8-.3-.9-.7-.1-.5.2-1 .7-1.1.3-.1 28.5-7 36.2-22.8.1-.1.1-.2.2-.3z" fill="url(#n)"/><path d="m270.6 310.5c-.2 0-.4-.1-.4-.3s.1-.4.3-.5c.1 0 8.5-1.7 15.9-5.9.2-.1.4 0 .5.2s0 .4-.2.5c-7.4 4.3-15.9 6-16.1 6z" fill="url(#o)"/><path d="m272.9 320.1c-.2 0-.4-.1-.4-.3s.1-.4.3-.5c.1 0 8.5-1.7 15.9-5.9.2-.1.4 0 .5.2s0 .4-.2.5c-7.4 4.3-16 6-16.1 6z" fill="url(#p)"/><path d="m216.3 326.3c-.1.4-.5.7-1 .6-.1 0-.1 0-.2 0s-7.2-2.4-15.1-6.9c-8.5-4.9-14.6-10.2-18.1-15.9l.8-2.2c8 14.8 32.6 23.2 32.9 23.3.6.1.9.6.7 1.1z" fill="url(#q)"/><path d="m220.4 317.9c-.1.4-.5.7-1 .6-.1 0-.1 0-.2 0s-7.2-2.4-15.1-6.9c-9.2-5.2-15.5-11-18.8-17.2l.8-2.4c7.1 15.7 33.3 24.6 33.6 24.7.6.2.9.7.7 1.2z" fill="url(#r)"/><path d="m217.7 311.6c.2 0 .4-.1.4-.3.1-.2-.1-.4-.3-.5-.1 0-8.3-2.4-15.4-7.3-.2-.1-.4-.1-.5.1s-.1.4.1.5c7.2 5 15.6 7.4 15.7 7.5z" fill="url(#s)"/><path d="m214.6 320.9c.2 0 .4-.1.4-.3.1-.2-.1-.4-.3-.5-.1 0-8.3-2.4-15.4-7.3-.2-.1-.4-.1-.5.1s-.1.4.1.5c7.2 5.1 15.6 7.5 15.7 7.5z" fill="url(#t)"/><path d="m245.3 24.6h120s4.2-.2 8 1.2c3.7 1.5 8.5 3.8 10.5 4.1 5.3.8 10 1.4 13.1-2.3 2.7-3.4 2-4.7 3.7-5 1.5-.3 2.7 2.1 1.4 4.7-.8 1.6-3.5 6.4-9.7 6.5-6 .1-15.8-2.6-24.9-2.3l-109.1 14.5z" fill="url(#u)"/><path d="m354.6 33.2-102.8 13.6v-3.6c19.6-5.4 60.9-14.7 102.8-10z" fill="url(#v)"/><path d="m259.9 244.8c-.3-3-11.2-102-.2-204.7 1.2-10.7 6.7-15.6 6.7-15.6h-42.2s5.5 4.9 6.8 14.2c12.6 94.4.8 200.1-.9 208-1.4 6.4-8.5 28.9-8.5 28.9-.1.4-.1.9-.1 1.4 0 6.8 10.7 12.3 24 12.3 13.2 0 23.9-5.5 24-12.2 0-.4 0-.8-.1-1.2l-.1-.3c-.8-5.7-8.6-22-9.4-30.8z" fill="url(#w)"/><path d="m245.3 218.3-6.6 4v-5.5l6.6-3.9 6.6 3.9v5.5z" fill="url(#x)"/><path d="m245.3 227.8-6.6 3.9v-5.4l6.6-4 6.6 4v5.4z" fill="url(#y)"/><path d="m245.3 237.2-6.6 4v-5.5l6.6-4 6.6 4v5.5z" fill="url(#z)"/><path d="m245.3 246.6-6.6 4v-5.5l6.6-3.9 6.6 3.9v5.5z" fill="url(#A)"/><path d="m450.7 202.3-61.3-171.9" fill="#414c59"/><path d="m450.7 202.8c-.2 0-.4-.1-.5-.3l-61.3-171.9c-.1-.3 0-.6.3-.7s.5 0 .6.3l61.3 171.9c.1.3 0 .6-.3.7.1 0 0 0-.1 0z" fill="#414c59"/><path d="m349.8 204.3 39.1-172.2" fill="#414c59"/><path d="m349.8 204.8h-.1c-.3-.1-.4-.3-.4-.6l39.2-172.2c.1-.3.3-.5.6-.4s.4.3.4.6l-39.1 172.2c-.1.2-.3.4-.6.4z" fill="#414c59"/><path d="m452.9 196.4c0 26-23.9 39.7-53.4 39.7s-53.4-13.6-53.4-39.7c0-.1 0-.3 0-.4v-.1c0-.3 0-.7 0-1 .9-12.5 24.5-22.5 53.4-22.5s52.5 10 53.4 22.5v1 .1z" fill="url(#C)"/><path d="m452.9 195.7v.2.1c-.4 12.7-24.1 23-53.4 23s-53.1-10.3-53.4-23v-.1c0-.1 0-.2 0-.2 0-.2 0-.5 0-.7.9-12.5 24.5-22.5 53.4-22.5s52.5 10 53.4 22.5z" fill="url(#D)"/><ellipse cx="399.5" cy="195.7" fill="url(#F)" rx="49.9" ry="21.8"/><ellipse cx="399.5" cy="195.7" fill="url(#G)" rx="46.3" ry="20.2"/><ellipse cx="399.5" cy="195.7" fill="url(#I)" rx="42.1" ry="18.4"/><path d="m360.2 202.3s41.1-22.6 78.6 0c0 0-9.7 11.7-39.3 11.7-30.1 0-39.3-11.7-39.3-11.7z" fill="url(#K)"/><g fill="#414c59"><path d="m405.5 218.8-16.1-188.4"/><path d="m405.5 219.3c-.3 0-.5-.2-.5-.5l-16.1-188.3c0-.3.2-.5.5-.6.3 0 .5.2.5.5l16.1 188.4c0 .2-.2.5-.5.5z"/><path d="m163.1 200.4-61.3-171.9"/><path d="m163.1 201c-.2 0-.4-.1-.5-.3l-61.3-172c-.1-.3 0-.6.3-.7s.5 0 .6.3l61.3 171.9c.1.3 0 .6-.3.7 0 0 0 .1-.1.1z"/><path d="m62.2 202.4 39.1-172.2"/><path d="m62.2 202.9c-.4-.1-.5-.3-.5-.6l39.1-172.2c.1-.3.3-.5.6-.4s.4.3.4.6l-39.1 172.2c-.1.2-.3.4-.5.4z"/></g><path d="m165.3 194.5c0 26-23.9 39.7-53.4 39.7s-53.4-13.6-53.4-39.7c0-.1 0-.3 0-.4v-.1c0-.3 0-.7 0-1 .9-12.5 24.5-22.5 53.4-22.5s52.5 10 53.4 22.5v1 .1z" fill="url(#L)"/><path d="m165.3 193.8v.2.1c-.4 12.7-24.1 23-53.4 23s-53.1-10.3-53.4-23v-.1c0-.1 0-.2 0-.2 0-.2 0-.5 0-.7.9-12.5 24.5-22.5 53.4-22.5s52.5 10 53.4 22.5z" fill="url(#M)"/><ellipse cx="111.9" cy="193.8" fill="url(#N)" rx="49.9" ry="21.8"/><ellipse cx="111.9" cy="193.8" fill="url(#O)" rx="46.3" ry="20.2"/><ellipse cx="111.9" cy="193.8" fill="url(#P)" rx="42.1" ry="18.4"/><path d="m72.6 200.4s41.1-22.6 78.6 0c0 0-9.7 11.7-39.3 11.7-30.1 0-39.3-11.7-39.3-11.7z" fill="url(#Q)"/><path d="m117.8 216.9-16-188.4" fill="#414c59"/><path d="m117.8 217.4c-.3 0-.5-.2-.5-.5l-16-188.3c0-.3.2-.5.5-.6.3 0 .5.2.5.5l16.1 188.4c0 .3-.2.5-.6.5.1 0 .1 0 0 0z" fill="#414c59"/></g></svg>