<?xml version="1.0" encoding="utf-8"?>
<!-- Generator: Adobe Illustrator 25.4.2, SVG Export Plug-In . SVG Version: 6.00 Build 0)  -->
<svg version="1.1" id="Layer_1" xmlns="http://www.w3.org/2000/svg" xmlns:xlink="http://www.w3.org/1999/xlink" x="0px" y="0px"
	 viewBox="0 0 90 90" style="enable-background:new 0 0 90 90;" xml:space="preserve">
<style type="text/css">
	.st0{fill:#1A1E24;}
	.st1{fill:#677FD3;}
</style>
<g>
	<circle class="st0" cx="45" cy="45" r="45"/>
	<g>
		<g>
			<path class="st1" d="M23.1,45.3c-0.1,0-0.2,0-0.3-0.1l-7-3.9c-0.2-0.1-0.4-0.4-0.4-0.6s0.1-0.5,0.4-0.6l7-3.9
				c0.2-0.1,0.5-0.1,0.7,0l7,3.9c0.2,0.1,0.4,0.4,0.4,0.6s-0.1,0.5-0.4,0.6l-7,3.9C23.4,45.3,23.2,45.3,23.1,45.3z M17.6,40.7
				l5.6,3.1l5.6-3.1l-5.6-3.1L17.6,40.7z"/>
		</g>
		<g>
			<path class="st1" d="M23.1,53.9c-0.1,0-0.2,0-0.3-0.1l-7-3.9c-0.2-0.1-0.4-0.4-0.4-0.6v-8.6c0-0.2,0.1-0.5,0.3-0.6
				c0.2-0.1,0.5-0.1,0.7,0l6.7,3.7l6.7-3.7c0.2-0.1,0.5-0.1,0.7,0c0.2,0.1,0.3,0.4,0.3,0.6v8.6c0,0.3-0.1,0.5-0.4,0.6l-7,3.9
				C23.4,53.9,23.2,53.9,23.1,53.9z M16.8,48.9l6.3,3.5l6.3-3.5v-7l-6,3.3c-0.2,0.1-0.5,0.1-0.7,0l-6-3.3V48.9z"/>
		</g>
		<g>
			<rect x="22.4" y="44.6" class="st1" width="1.4" height="8.6"/>
		</g>
		<g>
			<path class="st1" d="M45,45.3c-0.1,0-0.2,0-0.3-0.1l-7-3.9c-0.2-0.1-0.4-0.4-0.4-0.6s0.1-0.5,0.4-0.6l7-3.9
				c0.2-0.1,0.5-0.1,0.7,0l7,3.9c0.2,0.1,0.4,0.4,0.4,0.6s-0.1,0.5-0.4,0.6l-7,3.9C45.2,45.3,45.1,45.3,45,45.3z M39.4,40.7l5.6,3.1
				l5.6-3.1L45,37.6L39.4,40.7z"/>
		</g>
		<g>
			<path class="st1" d="M45,53.9c-0.1,0-0.2,0-0.3-0.1l-7-3.9c-0.2-0.1-0.4-0.4-0.4-0.6v-8.6c0-0.2,0.1-0.5,0.3-0.6
				c0.2-0.1,0.5-0.1,0.7,0l6.7,3.7l6.7-3.7c0.2-0.1,0.5-0.1,0.7,0c0.2,0.1,0.3,0.4,0.3,0.6v8.6c0,0.3-0.1,0.5-0.4,0.6l-7,3.9
				C45.2,53.9,45.1,53.9,45,53.9z M38.7,48.9l6.3,3.5l6.3-3.5v-7l-6,3.3c-0.2,0.1-0.5,0.1-0.7,0l-6-3.3V48.9z"/>
		</g>
		<g>
			<rect x="44.3" y="44.6" class="st1" width="1.4" height="8.6"/>
		</g>
		<g>
			<rect x="31.7" y="44.7" class="st1" width="4.7" height="1.4"/>
		</g>
		<g>
			<path class="st1" d="M66.9,45.3c-0.1,0-0.2,0-0.3-0.1l-7-3.9c-0.2-0.1-0.4-0.4-0.4-0.6s0.1-0.5,0.4-0.6l7-3.9
				c0.2-0.1,0.5-0.1,0.7,0l7,3.9c0.2,0.1,0.4,0.4,0.4,0.6s-0.1,0.5-0.4,0.6l-7,3.9C67.1,45.3,67,45.3,66.9,45.3z M61.3,40.7l5.6,3.1
				l5.6-3.1l-5.6-3.1L61.3,40.7z"/>
		</g>
		<g>
			<path class="st1" d="M66.9,53.9c-0.1,0-0.2,0-0.3-0.1l-7-3.9c-0.2-0.1-0.4-0.4-0.4-0.6v-8.6c0-0.2,0.1-0.5,0.3-0.6
				c0.2-0.1,0.5-0.1,0.7,0l6.7,3.7l6.7-3.7c0.2-0.1,0.5-0.1,0.7,0c0.2,0.1,0.3,0.4,0.3,0.6v8.6c0,0.3-0.1,0.5-0.4,0.6l-7,3.9
				C67.1,53.9,67,53.9,66.9,53.9z M60.5,48.9l6.3,3.5l6.3-3.5v-7l-6,3.3c-0.2,0.1-0.5,0.1-0.7,0l-6-3.3V48.9z"/>
		</g>
		<g>
			<rect x="66.2" y="44.6" class="st1" width="1.4" height="8.6"/>
		</g>
		<g>
			<rect x="53.6" y="44.7" class="st1" width="4.7" height="1.4"/>
		</g>
	</g>
</g>
</svg>
