<?xml version="1.0" encoding="utf-8"?>
<!-- Generator: Adobe Illustrator 25.4.2, SVG Export Plug-In . SVG Version: 6.00 Build 0)  -->
<svg version="1.1" id="Layer_1" xmlns="http://www.w3.org/2000/svg" xmlns:xlink="http://www.w3.org/1999/xlink" x="0px" y="0px"
	 viewBox="0 0 90 90" style="enable-background:new 0 0 90 90;" xml:space="preserve">
<style type="text/css">
	.st0{fill:#1A1E24;}
	.st1{fill:#72C7E7;}
</style>
<g>
	<circle class="st0" cx="45" cy="45" r="45"/>
	<g>
		<path class="st1" d="M35,59.4c-7.9,0-14.4-6.5-14.4-14.4S27,30.6,35,30.6c3.4,0,6.7,1.2,9.3,3.4l-1.1,1.2c-2.3-2-5.2-3-8.3-3
			c-7,0-12.8,5.7-12.8,12.8S27.9,57.8,35,57.8c3,0,6-1.1,8.3-3l1.1,1.2C41.7,58.2,38.4,59.4,35,59.4z"/>
		<path class="st1" d="M55.8,31.4c-3.6,0-7,1.4-9.6,4c-2.6,2.6-4,6-4,9.6c0,7.5,6.1,13.6,13.6,13.6c3.6,0,7-1.4,9.6-4
			c2.6-2.6,4-6,4-9.6C69.4,37.5,63.3,31.4,55.8,31.4z M64.3,53.5C62,55.7,59,57,55.8,57c-6.6,0-12-5.4-12-12c0-3.2,1.2-6.2,3.5-8.5
			c2.3-2.3,5.3-3.5,8.5-3.5c6.6,0,12,5.4,12,12C67.8,48.2,66.6,51.2,64.3,53.5z"/>
		<path class="st1" d="M37.7,45.9c-0.3-0.4-0.7-0.8-1.3-1.1c-0.3-0.2-0.7-0.3-1.2-0.5v-2.9c0.2,0,0.4,0.1,0.6,0.2
			c0.3,0.2,0.6,0.4,0.9,0.8l0.1,0.2l1.1-0.8l-0.2-0.2c-0.4-0.5-0.8-0.8-1.2-1.1c-0.4-0.2-0.9-0.4-1.4-0.5v-0.7h-1.3v0.7
			c-0.5,0.1-0.9,0.2-1.2,0.4c-0.6,0.3-1,0.6-1.2,1S31,42.2,31,42.6c0,0.4,0.1,0.8,0.4,1.2c0.2,0.4,0.6,0.7,1.1,1
			c0.3,0.2,0.8,0.4,1.4,0.6v3.5c-0.3-0.1-0.6-0.2-0.9-0.3c-0.3-0.2-0.6-0.5-1-1l-0.1-0.2l-1.3,0.8l0.2,0.2c0.3,0.4,0.5,0.7,0.7,0.9
			c0.3,0.3,0.5,0.5,0.8,0.7c0.3,0.2,0.6,0.3,0.8,0.4c0.2,0.1,0.5,0.1,0.7,0.1V52h1.3v-1.7c0.5-0.1,0.9-0.2,1.3-0.4
			c0.6-0.3,1-0.7,1.3-1.2c0.3-0.5,0.4-1,0.4-1.5C38.1,46.8,37.9,46.3,37.7,45.9z M36.6,47.4c0,0.2-0.1,0.5-0.2,0.7l0,0
			c-0.1,0.2-0.3,0.4-0.6,0.6c-0.2,0.1-0.4,0.2-0.7,0.2v-3c0.5,0.2,0.9,0.4,1.1,0.6C36.5,46.8,36.6,47,36.6,47.4z M33.8,41.3v2.5
			c-0.5-0.2-0.9-0.4-1.1-0.6c-0.2-0.2-0.3-0.5-0.3-0.7c0-0.3,0.1-0.5,0.4-0.8C33,41.6,33.4,41.4,33.8,41.3z"/>
		<path class="st1" d="M61.1,44c0.2-1.1-0.7-2.4-2.5-2.9l0.5-1.6l-1.4-0.3l-0.5,1.6c-0.4-0.1-0.7-0.2-1.1-0.2l0.5-1.6l-1.4-0.3
			l-0.5,1.6l-2.5-0.6L52,40.8l1,0.2c0.5,0.2,0.6,0.5,0.6,0.7l-1.6,5.5c-0.1,0.2-0.3,0.4-0.6,0.3l-1-0.2l-0.6,1.4l2.5,0.6l-0.5,1.8
			l1.4,0.3l0.5-1.8c0.4,0.1,0.7,0.2,1.1,0.2l-0.5,1.7l1.4,0.3l0.5-1.8c2.4,0.4,4.1-0.2,4.6-1.7c0.4-1.3,0-2.2-1-2.9
			C60.3,45.5,61,44.9,61.1,44z M58.3,47.8c-0.5,1.6-3.3,0.7-4.2,0.5l0.7-2.7C55.8,45.8,58.8,46.2,58.3,47.8z M58.8,43.9
			c-0.4,1.4-2.7,0.7-3.6,0.5l0.6-2.5C56.7,42.1,59.1,42.5,58.8,43.9L58.8,43.9z"/>
	</g>
</g>
</svg>
