<?xml version="1.0" encoding="utf-8"?>
<!-- Generator: Adobe Illustrator 25.4.2, SVG Export Plug-In . SVG Version: 6.00 Build 0)  -->
<svg version="1.1" id="Layer_1" xmlns="http://www.w3.org/2000/svg" xmlns:xlink="http://www.w3.org/1999/xlink" x="0px" y="0px"
	 viewBox="0 0 90 90" style="enable-background:new 0 0 90 90;" xml:space="preserve">
<style type="text/css">
	.st0{fill:#1A1E24;}
	.st1{fill:#677FD3;}
</style>
<g>
	<circle class="st0" cx="45" cy="45" r="45"/>
	<g>
		<path class="st1" d="M29,39.8l24.3,0l-0.1,6.4l10.8-10.8L53.3,24.6V31l-24.3,0.1L29,39.8z M30.9,38.1l0-5.1h24.3v-3.8l6.3,6.3
			l-6.3,6.3v-3.8L30.9,38.1z"/>
		<path class="st1" d="M61,50.2l-24.3,0l0.1-6.4L25.9,54.6l10.7,10.7l0-6.4l24.3-0.1L61,50.2z M59.1,52v5.1L34.8,57v3.8l-6.3-6.3
			l6.3-6.3v3.8L59.1,52z"/>
	</g>
</g>
</svg>
