<svg xmlns="http://www.w3.org/2000/svg" viewBox="0 0 22.65 22.65"><defs><style>.cls-1{fill:#fff;}</style></defs><g id="Layer_2" data-name="Layer 2"><g id="Capa_1" data-name="Capa 1"><path class="cls-1" d="M22.46,18.88,14.9,11.32l7.56-7.55a.65.65,0,0,0,0-.91L19.79.19a.65.65,0,0,0-.91,0L11.32,7.74,3.77.19a.65.65,0,0,0-.91,0L.19,2.86a.65.65,0,0,0,0,.91l7.55,7.55L.19,18.88a.65.65,0,0,0,0,.91l2.67,2.67a.65.65,0,0,0,.91,0l7.55-7.56,7.56,7.56a.65.65,0,0,0,.91,0l2.67-2.67A.65.65,0,0,0,22.46,18.88Z"/></g></g></svg>