<svg xmlns="http://www.w3.org/2000/svg" viewBox="0 0 61.58 64"><defs><style>.cls-1{fill:#fff;}</style></defs><g id="Layer_2" data-name="Layer 2"><g id="Capa_1" data-name="Capa 1"><path class="cls-1" d="M28.4.24a5.3,5.3,0,0,0-1.13.81c-.45.42-.79.63-1,.63a30.73,30.73,0,0,0-7.55,2.1A30.77,30.77,0,0,0,0,32.21,30.76,30.76,0,0,0,20.84,61.3a22.31,22.31,0,0,0,3.77,1c.23,0,.25-.5.22-13.73,0-12.2,0-13.7.16-13.64.46.17,10.32,7.73,10.32,7.9,0,6.08,0,11,.08,11a15.38,15.38,0,0,0,3.78-1.08,19.44,19.44,0,0,0,3.9-2.07,22.32,22.32,0,0,0,9.74-14.95,29.62,29.62,0,0,0,0-7.58,22.18,22.18,0,0,0-4.17-9.52c-.7-.94-.76-1.1-.77-1.8a3.27,3.27,0,0,0-3.13-3.19,3.07,3.07,0,0,0-2.2.79A3,3,0,0,0,41.38,17a2.82,2.82,0,0,0,.91,2.27,2.85,2.85,0,0,0,2,1c.75.08.78.09,1.47,1A19.83,19.83,0,0,1,49,28.33,25.61,25.61,0,0,1,49,36a18.94,18.94,0,0,1-6.78,10.79,11.52,11.52,0,0,1-3,1.82s-.06-1.78,0-3.86l0-3.79-5.7-4.28L27.58,32.2c-.16-.13,1-1.24,5.71-5.6l5.9-5.45V13.79c0-5.83,0-7.32.16-7.3A24.51,24.51,0,0,1,42.84,8a27.15,27.15,0,0,1,14.64,19.7,30.92,30.92,0,0,1,0,9A27.13,27.13,0,0,1,35.32,58.8L34,59l-.56-.57a3.05,3.05,0,0,0-2.3-1,3.25,3.25,0,1,0,2.14,5.71,1.88,1.88,0,0,1,1.4-.49,26.72,26.72,0,0,0,5.93-1.36A30.79,30.79,0,0,0,60.85,39.06a28.37,28.37,0,0,0,.73-6.92A29.66,29.66,0,0,0,58.45,18.5,30.79,30.79,0,0,0,37.66,2.08a20.07,20.07,0,0,0-2-.4h-.32V10.5c0,6.93,0,8.84-.17,9-3.24,3-10.21,9-10.27,8.94s-.06-4.07,0-8.93l0-8.8-.42.08a23.25,23.25,0,0,0-5.54,2.51A22.5,22.5,0,0,0,8.79,28.57a31.57,31.57,0,0,0,0,7.14A22.56,22.56,0,0,0,12.61,45c.35.43.39.61.39,1.47A3,3,0,0,0,14,49a3.22,3.22,0,0,0,5.42-2.38,3,3,0,0,0-1.14-2.46,3,3,0,0,0-1.91-.79c-.86,0-3-4.23-3.72-7.41a25.61,25.61,0,0,1,0-7.62,18.83,18.83,0,0,1,7-10.95A8.47,8.47,0,0,1,21,16.49c.1,0,.14,6.9.14,20.43s0,20.42-.14,20.42-.9-.37-1.83-.81A27.08,27.08,0,0,1,4.94,24.25a29.17,29.17,0,0,1,4.38-8.51,27.55,27.55,0,0,1,15.58-10c1.84-.42,2.25-.42,2.6,0a3.28,3.28,0,0,0,3.16.66,3.94,3.94,0,0,0,1.95-1.74,3.71,3.71,0,0,0,0-2.76A3.33,3.33,0,0,0,28.4.24Z"/></g></g></svg>