<svg xmlns="http://www.w3.org/2000/svg" viewBox="0 0 64 24.19"><defs><style>.cls-1{fill:#fff;}</style></defs><g id="Layer_2" data-name="Layer 2"><g id="Capa_1" data-name="Capa 1"><path class="cls-1" d="M27.61,12a3.93,3.93,0,0,1-1.26-.59l.55-1.21A4,4,0,0,0,28,10.7a4.09,4.09,0,0,0,1.25.2,2,2,0,0,0,1-.21.6.6,0,0,0,.33-.54.55.55,0,0,0-.19-.42,1.37,1.37,0,0,0-.51-.26A7.7,7.7,0,0,0,29,9.25a12.22,12.22,0,0,1-1.31-.38,2.15,2.15,0,0,1-.87-.61,1.62,1.62,0,0,1-.37-1.12A2.05,2.05,0,0,1,26.82,6a2.26,2.26,0,0,1,1-.78A3.88,3.88,0,0,1,29.44,5a5.26,5.26,0,0,1,1.3.16,3.9,3.9,0,0,1,1.12.46l-.51,1.23a3.92,3.92,0,0,0-1.94-.55,2,2,0,0,0-1,.22.7.7,0,0,0-.32.58.57.57,0,0,0,.35.53,5.64,5.64,0,0,0,1.15.34c.44.11.87.23,1.3.38a2.13,2.13,0,0,1,.9.6A1.64,1.64,0,0,1,32.15,10a1.93,1.93,0,0,1-.34,1.09,2.19,2.19,0,0,1-1,.78,4,4,0,0,1-1.63.29A5.57,5.57,0,0,1,27.61,12Z"/><path class="cls-1" d="M34.45,11.36A3.14,3.14,0,0,1,33.62,9V5.09h1.61V8.94c0,1.26.52,1.88,1.56,1.88a1.46,1.46,0,0,0,1.15-.46,2.06,2.06,0,0,0,.42-1.42V5.09H40V9a3.2,3.2,0,0,1-.84,2.36,3.13,3.13,0,0,1-2.33.84A3.17,3.17,0,0,1,34.45,11.36Z"/><path class="cls-1" d="M46.05,5.4a2.54,2.54,0,0,1,1.05.87,2.41,2.41,0,0,1,.36,1.35A2.41,2.41,0,0,1,47.1,9a2.37,2.37,0,0,1-1.05.88,3.89,3.89,0,0,1-1.62.3H43v1.93H41.41v-7h3A4.1,4.1,0,0,1,46.05,5.4Zm-.6,3.12a1.08,1.08,0,0,0,.38-.89,1.09,1.09,0,0,0-.38-.9,1.62,1.62,0,0,0-1.1-.32H43V8.83h1.31A1.68,1.68,0,0,0,45.45,8.52Z"/><path class="cls-1" d="M53.47,12.07l-1.35-1.94H50.63v1.94H49v-7h3a4,4,0,0,1,1.61.31,2.48,2.48,0,0,1,1.05.87,2.5,2.5,0,0,1,.37,1.35,2.28,2.28,0,0,1-1.44,2.21l1.58,2.24Zm-.42-5.34a1.63,1.63,0,0,0-1.11-.32H50.63V8.84h1.31a1.63,1.63,0,0,0,1.11-.32,1.08,1.08,0,0,0,.38-.89,1.11,1.11,0,0,0-.37-.9Z"/><path class="cls-1" d="M61.68,10.57H58.44l-.62,1.5H56.17l3.11-7h1.59l3.13,7H62.33Zm-.51-1.22L60.06,6.69,59,9.35Z"/><path class="cls-1" d="M27.69,18.88a2.56,2.56,0,0,1-1-.94,2.69,2.69,0,0,1,0-2.69,2.56,2.56,0,0,1,1-.94,3.18,3.18,0,0,1,2.85,0,2.59,2.59,0,0,1,1.07,3.5,2.69,2.69,0,0,1-1.07,1.07A3.18,3.18,0,0,1,27.69,18.88ZM29.93,18a1.49,1.49,0,0,0,.57-.57,1.82,1.82,0,0,0,0-1.67,1.39,1.39,0,0,0-.57-.58,1.72,1.72,0,0,0-1.62,0,1.39,1.39,0,0,0-.57.58,1.82,1.82,0,0,0,0,1.67,1.42,1.42,0,0,0,.57.57A1.67,1.67,0,0,0,29.93,18Z"/><path class="cls-1" d="M36.34,19.13l-1-1.41H34.3v1.41H33.13V14.06h2.19a2.93,2.93,0,0,1,1.17.22,1.84,1.84,0,0,1,.74.64,1.75,1.75,0,0,1-.48,2.42,1.43,1.43,0,0,1-.3.16l1.14,1.63ZM36,15.25a1.2,1.2,0,0,0-.8-.23H34.3v1.77h1a1.22,1.22,0,0,0,.8-.24.82.82,0,0,0,.26-.66A.8.8,0,0,0,36,15.25Z"/><path class="cls-1" d="M42.32,18.05H40l-.45,1.08h-1.2l2.25-5.07h1.16L44,19.13H42.74Zm-.37-.9-.8-1.94-.81,1.94Z"/><path class="cls-1" d="M45.68,18.88a2.53,2.53,0,0,1-1-.93,2.71,2.71,0,0,1,0-2.7,2.56,2.56,0,0,1,1-.94,3.15,3.15,0,0,1,2.6-.1,2.23,2.23,0,0,1,.89.66l-.75.7a1.64,1.64,0,0,0-1.27-.6,1.72,1.72,0,0,0-.84.21,1.51,1.51,0,0,0-.57.58,1.77,1.77,0,0,0,0,1.67,1.42,1.42,0,0,0,.57.57,1.61,1.61,0,0,0,.84.21,1.58,1.58,0,0,0,1.27-.6l.75.69a2.32,2.32,0,0,1-.9.68,3,3,0,0,1-1.19.23A2.86,2.86,0,0,1,45.68,18.88Z"/><path class="cls-1" d="M50.26,14.06h1.19v4.11H54v1H50.24Z"/><path class="cls-1" d="M58.86,18.19v.94H54.93V14.06h3.83V15H56.1v1.1h2.35V17H56.1v1.17Z"/><path class="cls-1" d="M60.68,19.05a2.52,2.52,0,0,1-.91-.42l.4-.88a2.85,2.85,0,0,0,.78.39,3,3,0,0,0,.89.14,1.34,1.34,0,0,0,.74-.15.43.43,0,0,0,.24-.42.37.37,0,0,0-.14-.29.84.84,0,0,0-.36-.19,3.59,3.59,0,0,0-.6-.16c-.32-.08-.64-.17-.95-.28a1.54,1.54,0,0,1-.63-.44,1.26,1.26,0,0,1-.27-.81,1.4,1.4,0,0,1,.25-.8,1.55,1.55,0,0,1,.72-.57A2.92,2.92,0,0,1,62,14a3.81,3.81,0,0,1,1,.12,2.39,2.39,0,0,1,.81.33l-.36.89a2.79,2.79,0,0,0-1.4-.42,1.31,1.31,0,0,0-.73.16.47.47,0,0,0-.24.42.41.41,0,0,0,.27.38,4.09,4.09,0,0,0,.84.26,7.9,7.9,0,0,1,1,.27,1.59,1.59,0,0,1,.63.42,1.18,1.18,0,0,1,.27.8,1.36,1.36,0,0,1-.24.79A1.62,1.62,0,0,1,63,19a3,3,0,0,1-1.18.21A4.15,4.15,0,0,1,60.68,19.05Z"/><path class="cls-1" d="M15.51,7.55a2.6,2.6,0,0,0-.45-.77,2,2,0,0,0-.75-.54,2.38,2.38,0,0,0-.63-.18,2.76,2.76,0,0,0,.06.57L15,9.88a2.25,2.25,0,0,0,.66-1.45A2.65,2.65,0,0,0,15.51,7.55Z"/><path class="cls-1" d="M9.2,14.37a2.3,2.3,0,0,0-.64,1.42,2.82,2.82,0,0,0,.13.87,2.52,2.52,0,0,0,.45.78,2.2,2.2,0,0,0,.74.55,3.83,3.83,0,0,0,.58.16,2.78,2.78,0,0,0-.05-.58Z"/><path class="cls-1" d="M8.27,18.38a3.42,3.42,0,0,1-.84-1.15,3.67,3.67,0,0,1-.32-1.42,4,4,0,0,1,1-2.7,2.93,2.93,0,0,1,.42-.37l-.26-.68a4.32,4.32,0,0,0-.66.54,4.53,4.53,0,0,0-1,1.41,5,5,0,0,0-.38,1.74,4.82,4.82,0,0,0,.31,1.77,4.59,4.59,0,0,0,1,1.52,4.12,4.12,0,0,0,1.48,1,2.36,2.36,0,0,0,.28.12h0a2.66,2.66,0,0,0,.46-.35,2.41,2.41,0,0,0,.41-.54,3.43,3.43,0,0,1-.7-.18A3.36,3.36,0,0,1,8.27,18.38Z"/><path class="cls-1" d="M7.41,19.14a4.82,4.82,0,0,1-1.1-1.55,5.42,5.42,0,0,1-.42-1.87,5.62,5.62,0,0,1,.32-1.9,4.94,4.94,0,0,1,1-1.64,4.68,4.68,0,0,1,.84-.69L7.88,11a5.4,5.4,0,0,0-1,.8,5.65,5.65,0,0,0-1.25,1.81,6.12,6.12,0,0,0-.49,2.15,6.61,6.61,0,0,0,.38,2.2,5.78,5.78,0,0,0,1.22,1.9,5.91,5.91,0,0,0,.81.69,1.84,1.84,0,0,0,.47.06,2.76,2.76,0,0,0,1.26-.37L9,20.14A4.89,4.89,0,0,1,7.41,19.14Z"/><path class="cls-1" d="M9,17.57a2.78,2.78,0,0,1-.58-.78,2.29,2.29,0,0,1-.22-1,2.44,2.44,0,0,1,.16-1A2.32,2.32,0,0,1,8.94,14L9,13.89l-.28-.73a2,2,0,0,0-.28.23,2.86,2.86,0,0,0-.72,1.06,3,3,0,0,0-.29,1.29,4,4,0,0,0,.22,1.33,4.28,4.28,0,0,0,.72,1.15,3.53,3.53,0,0,0,1.1.81h0a3.26,3.26,0,0,0,.69.22,2.53,2.53,0,0,0,.3-1.08,2.07,2.07,0,0,1-.61-.12A2.29,2.29,0,0,1,9,17.57Z"/><path class="cls-1" d="M16.49,9.75a2.74,2.74,0,0,0,.29-1.29,3.74,3.74,0,0,0-.22-1.32A4.24,4.24,0,0,0,15.84,6a3.58,3.58,0,0,0-1.12-.8A2.81,2.81,0,0,0,14,4.94,2.51,2.51,0,0,0,13.68,6a2.19,2.19,0,0,1,1.47.61,2.56,2.56,0,0,1,.58.77,2.38,2.38,0,0,1,.23,1,2.62,2.62,0,0,1-.16,1,2.48,2.48,0,0,1-.55.87l-.1.11.27.73a4.19,4.19,0,0,0,.33-.26A2.83,2.83,0,0,0,16.49,9.75Z"/><path class="cls-1" d="M17.5,4.37a4.78,4.78,0,0,0-.8-.69A2.44,2.44,0,0,0,14.89,4a2.07,2.07,0,0,1,.33.1,4.94,4.94,0,0,1,2.67,2.55,5.18,5.18,0,0,1,.41,1.86A5.62,5.62,0,0,1,18,10.39,5.09,5.09,0,0,1,17,12a4.23,4.23,0,0,1-.9.73l.2.51a5.27,5.27,0,0,0,1.11-.83,6,6,0,0,0,1.26-1.81,6.46,6.46,0,0,0,.49-2.16,6.36,6.36,0,0,0-.39-2.19A5.63,5.63,0,0,0,17.5,4.37Z"/><path class="cls-1" d="M12.1,0A12.1,12.1,0,1,0,24.19,12.1,12.1,12.1,0,0,0,12.1,0ZM19,10.79a5.94,5.94,0,0,1-1.29,2,5.82,5.82,0,0,1-1.25,1,6,6,0,0,1-5.74,7.8h-.1a6.28,6.28,0,0,1-2.1-.42,6.45,6.45,0,0,1-2-1.26A5.58,5.58,0,0,1,5.24,18a5.63,5.63,0,0,1-.49-2.28,6.53,6.53,0,0,1,.42-2.32,6.22,6.22,0,0,1,1.29-2,5.92,5.92,0,0,1,1.2-1v0a6,6,0,0,1,6.47-7.76A5.78,5.78,0,0,1,15.67,3a6.62,6.62,0,0,1,2,1.26A5.87,5.87,0,0,1,19,6.2a5.69,5.69,0,0,1,.46,2.27A6.15,6.15,0,0,1,19,10.79Z"/><path class="cls-1" d="M17.57,10.2a5.16,5.16,0,0,0,.37-1.74,4.89,4.89,0,0,0-.31-1.77,4.73,4.73,0,0,0-1-1.54,4.38,4.38,0,0,0-1.48-1L14.79,4a2.72,2.72,0,0,0-.42.34,3,3,0,0,0-.42.57,3.3,3.3,0,0,1,2,.92A3.42,3.42,0,0,1,16.76,7a3.67,3.67,0,0,1,.32,1.42,3.91,3.91,0,0,1-1,2.7,4.81,4.81,0,0,1-.48.42l.29.67a3.92,3.92,0,0,0,.72-.57A4.88,4.88,0,0,0,17.57,10.2Z"/></g></g></svg>