<?xml version="1.0" encoding="utf-8"?>
<!-- Generator: Adobe Illustrator 25.2.1, SVG Export Plug-In . SVG Version: 6.00 Build 0)  -->
<svg version="1.1" id="Capa_1" xmlns="http://www.w3.org/2000/svg" xmlns:xlink="http://www.w3.org/1999/xlink" x="0px" y="0px"
	 viewBox="0 0 400 400" style="enable-background:new 0 0 400 400;" xml:space="preserve">
<style type="text/css">
	.st0{fill:#FFFFFF;}
</style>
<g>
	<ellipse class="st0" cx="33.3" cy="229.8" rx="33.3" ry="3"/>
	<path class="st0" d="M169.6,182.7H138L130,204h-0.5l-8-21.3H91v44.9h19.4v-28h0.5l11.5,28h14.7l11.4-27.8h0.5v27.8h20.6V182.7z
		 M233.9,210.5c0-3-0.6-5.7-1.7-7.9c-1.1-2.3-2.9-4.2-5.2-5.8c-2.4-1.6-5.6-2.9-9.5-3.7c-3.9-0.8-8.7-1.2-14.1-1.2
		c-4.5,0-8.5,0.3-11.9,0.8c-3.4,0.6-6.4,1.3-8.7,2.3c-2.4,1-4.3,2.3-5.8,3.8c-1.5,1.5-2.6,3.3-3.3,5.2c-0.7,1.9-1,4.1-1,6.5
		c0,3.1,0.5,5.7,1.6,8c1,2.2,2.8,4.2,5.2,5.8c2.4,1.6,5.5,2.9,9.5,3.7c4,0.8,8.8,1.2,14.4,1.2c4,0,7.6-0.1,10.8-0.4
		c3.2-0.3,5.8-0.7,7.9-1.3c2.1-0.6,3.9-1.2,5.4-1.9c1.5-0.7,2.6-1.5,3.4-2.5c0.8-1,1.4-1.9,1.8-2.8c0.4-0.9,0.6-1.9,0.7-3.1h-21.6
		c-1,1.9-3.8,2.9-8.4,2.9c-3.1,0-5.5-0.5-7-1.4c-1.5-0.9-2.4-2.3-2.6-4.2h39.9C233.9,213.4,233.9,212.1,233.9,210.5z M203.4,201
		c2.8,0,4.9,0.4,6.4,1.2c1.5,0.8,2.5,1.9,2.9,3.5H194c0.4-1.5,1.4-2.7,2.9-3.5C198.3,201.4,200.5,201,203.4,201z M265.4,213.7
		c-1.6,0-2.7-0.2-3.3-0.5c-0.6-0.3-0.9-1-0.9-2v-7.8h10.5v-9.9h-10.5v-9.1h-20.3v9.1h-6.5v9.9h6.5v11.8c0,3.3,0.6,5.9,1.7,7.7
		c1.1,1.8,3.1,3.1,5.9,4c2.8,0.8,6.7,1.2,11.8,1.2c4.7,0,8.5-0.2,11.4-0.6v-14C269.9,213.7,267.9,213.7,265.4,213.7z M332.6,222.2
		v-19.1c0-1.6-0.3-3-0.8-4.2c-0.5-1.2-1.4-2.2-2.5-3c-1.1-0.8-2.4-1.5-3.9-2.1c-1.5-0.5-3.3-0.9-5.5-1.2c-2.2-0.3-4.5-0.5-6.8-0.6
		c-2.3-0.1-5.1-0.2-8.3-0.2c-3.1,0-5.9,0.1-8.3,0.2c-2.4,0.1-4.7,0.4-6.9,0.7c-2.2,0.3-4.1,0.8-5.6,1.4c-1.5,0.6-2.9,1.3-4.1,2.2
		c-1.2,0.9-2.1,2-2.7,3.2c-0.6,1.3-1,2.7-1,4.3h21.5c0.9-2,3.4-3,7.4-3c2.2,0,3.8,0.2,4.8,0.5c1,0.4,1.6,0.9,1.6,1.7
		c0,0.7-0.3,1.2-0.9,1.5c-0.6,0.3-1.6,0.5-2.9,0.6l-19.8,1.4c-2.3,0.2-4.3,0.4-5.9,0.9c-1.7,0.4-3.1,1.1-4.3,1.9
		c-1.3,0.9-2.2,2-2.8,3.3c-0.6,1.4-0.9,3.1-0.9,5.1c0,1.7,0.3,3.2,1,4.5c0.7,1.4,1.6,2.4,2.8,3.3c1.2,0.9,2.5,1.6,4.2,2.1
		c1.6,0.6,3.3,1,5.2,1.2c1.8,0.2,3.7,0.3,5.8,0.3c4.7,0,8.7-0.5,12.1-1.6c3.4-1.1,5.9-2.6,7.6-4.5v1.1c0,1.7,0.2,2.8,0.6,3.4h20
		v-0.4c-0.2-0.4-0.3-0.9-0.4-1.5c-0.1-0.6-0.2-1.1-0.2-1.5C332.6,223.8,332.6,223.2,332.6,222.2z M312.3,212.9c0,1.7-0.6,3-1.7,4.1
		c-1.2,1.1-2.6,1.9-4.3,2.4c-1.7,0.5-3.7,0.7-5.9,0.7c-1.9,0-3.2-0.2-4.1-0.6c-0.9-0.4-1.3-1.1-1.3-2.1c0-0.9,0.3-1.7,1-2.2
		c0.7-0.5,1.8-0.9,3.4-1l9.8-1.2c1.4-0.2,2.5-0.4,3.2-0.8V212.9z M382.7,190.9v-8.2h-44v44.9h9.9v-17.8h32.9V202h-32.9v-11.1H382.7z
		 M390,188.6h10v-6.8h-10V188.6z M390.1,227.6h9.8v-33.8h-9.8V227.6z"/>
	<g>
		<path class="st0" d="M4.2,200.7L3,205.2l30.9,24.2l35.5-6.7l1.3-4.6l-35.5,6.7L4.2,200.7z"/>
		<path class="st0" d="M67.9,175.1l-35.6,3.2l11.2,18.3l-0.7,2.4l-31-19l0.9-3.3l15.9-1.7l3,2.5l1.5-5.4l32-2.7l-2.5-2.1L29.1,170
			l-0.7,2.7l-17.5,1.8L9.2,181l6.3,3.9l-4.1,15l-2,0.2L9,201.4l5.3,4l6.6-0.8l0.4-1.2l-1.9-1.5l3.4-12.6l3.7,2.3L22,207.9l-2,0.3
			l-0.4,1.2l5.3,4l6.6-0.8l0.3-1.2L30,210l3.8-13.8l3.7,2.3L32.6,216l-2,0.3l-0.4,1.2l5.3,4l6.6-0.8l0.4-1.3l-1.9-1.5l4.2-15.1
			l5.6-0.4l-4.7,17.3l22.1-4.2l4-14.5l4.6-0.3l1.8-6.6L67.9,175.1z"/>
	</g>
</g>
</svg>
