<svg xmlns="http://www.w3.org/2000/svg" viewBox="0 0 64 36.4"><defs><style>.cls-1{fill:#fff;}</style></defs><g id="Layer_2" data-name="Layer 2"><g id="Capa_1" data-name="Capa 1"><path class="cls-1" d="M21.27,8.83H11.49s-6.26-.26-6.67,5.48,6.74,5.89,6.74,5.89l9.71-.09V36.37h-4v-13H12l-7.59,13H0L8,23S1,22.53.9,14.33c-.05-8.46,9.18-8.62,9.18-8.62l11.19-.07h0Z"/><path class="cls-1" d="M45.88,36.4l-7.59-13H33.05v13h-4V20.11l9.71.09s7.15-.15,6.74-5.89-6.67-5.48-6.67-5.48H29.06V5.64l11.2.07s9.23.16,9.19,8.62c-.05,8.2-7.1,8.69-7.1,8.69l8,13.38Z"/><path class="cls-1" d="M54,13.85v-.18c0-2.37,1.07-4.29,4-6.44,1.93-1.4,2.51-1.89,2.51-3.08S60,2.3,58.81,2.3c-1.32,0-1.81.81-2,2H54A4.47,4.47,0,0,1,58.81,0c3.5,0,4.69,2.07,4.69,4.12s-.86,2.94-3.36,4.7c-1.68,1.17-2.35,1.95-2.58,2.56H64l-.37,2.47Z"/></g></g></svg>