<svg xmlns="http://www.w3.org/2000/svg" viewBox="0 0 64 18.63"><defs><style>.cls-1{fill:#fff;}</style></defs><g id="Layer_2" data-name="Layer 2"><g id="Capa_1" data-name="Capa 1"><path class="cls-1" d="M2,4.64l0,0V8.93l.48.51.9.9.48.44V6.3l2.05,2,.51.51L6.61,9l.29-.24L7.63,8l0,0h0c.17,0,.36-.32.48-.44L9.35,6.3V8.71c0,.1,0,.26,0,.35l0,0-.07,0v1.71l.42-.37.68-.7,0,0h0c.09,0,.16-.12.22-.18s.46-.37.54-.58a3,3,0,0,0,0-.95V5.13a.61.61,0,0,0,0-.3.17.17,0,0,0-.06-.06l.09.05V2.53a3,3,0,0,0,0-1L9.87,2.87l-.71.73,0,0h0c-.14,0-.27.23-.36.32l-.86.85A12.18,12.18,0,0,0,6.61,6.15h0l-.78-.8L4.29,3.84,2.76,2.31,2,1.53V3.7a2.65,2.65,0,0,0,0,.89Zm8.94,0,0,0-.13-.08ZM7.26,7.81l0,0-.44-.27Z"/><path class="cls-1" d="M39.35,5.25l0,.06v0c-.06-.16-.44-.28-.58-.35-.53-.27-1.62-.48-1.78-1.14s.41-.89.91-.82a1.16,1.16,0,0,1,.8.65c.45-.09.85-.56,1.26-.75a1.39,1.39,0,0,0-.36-.59,2.41,2.41,0,0,0-1.78-.73,2.89,2.89,0,0,0-1.36.28,2.19,2.19,0,0,0-.92,2.74,2.16,2.16,0,0,0,.75.94,14.56,14.56,0,0,0,2.29,1.18l0,0c0,.12.12.22.16.31a.69.69,0,0,1,0,.64,1,1,0,0,1-.61.39c-.09,0-.24,0-.32.07l0,0,0-.06a1.59,1.59,0,0,1-1.11-.44c-.12-.1-.3-.45-.45-.49s-.27.12-.36.17l-1,.54a2.7,2.7,0,0,0,1.46,1.38c.15.06.47.23.63.17l0,0s0,.05,0,.08a3.84,3.84,0,0,0,2.6-.45A2.28,2.28,0,0,0,39.35,5.25Z"/><path class="cls-1" d="M24.27,6.64a3.88,3.88,0,0,0,0-1.13h0a4.9,4.9,0,0,0,0-1.27V1.53c-.33,0-.62.53-.83.76-.74.79-1.46,1.62-2.19,2.43-.2.23-.4.46-.61.68-.05.06-.14.22-.24.22s-.19-.16-.24-.22c-.23-.24-.45-.48-.67-.73-.7-.8-1.45-1.56-2.15-2.36-.2-.23-.53-.77-.86-.78V9.32H18c0-1.39.06-2.79-.05-4.16h0a10.41,10.41,0,0,0,1.72,2.09c.14.17.43.63.66.63s.53-.46.67-.63a10.41,10.41,0,0,0,1.72-2.09h0L22.73,8.1h0a4.52,4.52,0,0,0,0,1.22h1.54Zm-.5-.29A3.15,3.15,0,0,1,24,6c-.23.41-.51.82-.75,1.22C23.42,6.94,23.6,6.65,23.77,6.35Z"/><path class="cls-1" d="M13.13,16.43h0V11.85a1.41,1.41,0,0,0,0-.46l0-.05,0,0V6.47a1.35,1.35,0,0,0,0-.45l0,0h0V0H3.25V0l0,0,0,0H0V2.43a3,3,0,0,0,0,1l0,.05,0,0v4.6a1.41,1.41,0,0,0,0,.46l0,.05,0,0V18.63H13.17V17.05c0-.15.06-.46,0-.6Zm-.71,1.47H.77V9.54c0-.15,0-.45,0-.57l0,0H.77V4.33a1.23,1.23,0,0,0,0-.43l0,0,.05,0V.73H4.42L4.36.7h.06a3.53,3.53,0,0,0,.92,0h7.08V5.08a1.61,1.61,0,0,0,0,.44l0,.05,0,0v4.89a1.35,1.35,0,0,0,0,.45l0,0-.05,0v4.6a1.35,1.35,0,0,0,0,.45.21.21,0,0,0,0,.06l-.05,0Z"/><path class="cls-1" d="M11.23,10.58a.88.88,0,0,0,0-.36l0-.06.06,0V9.56l-.42.39,0,0h0c-.18,0-.43.39-.56.51L8.84,11.9l-.8.8a1.65,1.65,0,0,0-.39.44,7.58,7.58,0,0,1,.91.52l-.42-.25-.49-.27-.29.24-.75.78L3.47,11a7.35,7.35,0,0,0-1.2-1.16L2,9.56A.21.21,0,0,0,2,9.73L2,9.71V11.6a2.88,2.88,0,0,0,0,.83.91.91,0,0,0,.26.29l.58.59L4.9,15.4l1.24,1.24c.1.09.32.41.47.39s.18-.13.24-.2l.51-.51L8.72,15a5.74,5.74,0,0,0,.73-.75l0,0h.08c.23-.08.5-.48.68-.65l.73-.73c.1-.11.27-.23.32-.37a3.47,3.47,0,0,0,0-1Z"/><path class="cls-1" d="M63.85,14.6c-.33-.74-1.16-1-1.83-1.3-.31-.15-.7-.34-.62-.75.13-.73,1.07-.35,1.28.1a3.22,3.22,0,0,0,.73-.44c.06,0,.21-.1.21-.19s-.13-.24-.19-.32a1.59,1.59,0,0,0-1-.58,1.77,1.77,0,0,0-2.25,1.31,1.93,1.93,0,0,0,.12,1c.33.83,1.25,1,2,1.38.29.16.61.42.46.78a.68.68,0,0,1-.56.39,1.3,1.3,0,0,1-1.34-.7,3.65,3.65,0,0,0-.75.41c-.08,0-.23.09-.23.2s.14.27.21.36a2.18,2.18,0,0,0,1,.68c1.12.38,2.72.1,2.93-1.26A1.87,1.87,0,0,0,63.85,14.6Z"/><path class="cls-1" d="M33,14.57a20.58,20.58,0,0,0-2.65-2.63c-.26-.24-.68-.83-1.05-.85V17h1.12V14.89a6.15,6.15,0,0,0-.07-1.36l1.63,1.65,1.07,1,.2-.34-.2.36c.31.22.63.79,1,.8V15.23l0-.78,0,.06,0-.08V11.14H32.88Z"/><polygon class="cls-1" points="24.63 15.08 26.94 15.08 26.94 14.04 24.63 14.04 24.63 12.21 27.26 12.21 27.26 11.14 23.39 11.14 23.39 16.96 27.38 16.96 27.38 15.88 24.63 15.88 24.63 15.08"/><path class="cls-1" d="M21,11.16c-.08,0-.12.15-.16.22l0,0,.15-.28h-.29l-.83,1.92h0c-.06.12-.12.24-.17.37-.16.38-.24.79-.4,1.17l-.1-.32-.05,0a.13.13,0,0,0,0-.06,1.68,1.68,0,0,0-.22-.71c-.22-.56-.49-1.1-.73-1.65-.08-.18-.19-.62-.36-.73s-.25,0-.35,0h-.92a5,5,0,0,0,.49,1.15c.46,1,1,2.06,1.4,3.13h.05v.05a3,3,0,0,0,.35.8c.08.19.17.38.25.56s.07.19.18.17.16-.24.2-.34l.45-1c.44-1,.86-2,1.29-3a7.36,7.36,0,0,0,.64-1.51A2.53,2.53,0,0,0,21,11.16Z"/><path class="cls-1" d="M31.39,8.49c.18.11.32.63.37.83h1.7a15.44,15.44,0,0,0-.89-2c-.6-1.32-1.22-2.63-1.8-4-.2-.47-.41-.93-.62-1.39,0-.11-.13-.42-.29-.41s-.22.32-.27.43c-.19.47-.39.93-.6,1.39-.89,2-1.81,3.94-2.58,5.94h1.12c.11,0,.33,0,.42,0s.32-.64.36-.82h2.21C30.74,8.47,31.2,8.38,31.39,8.49Zm-1.55-4,.36,1.07.64,1.55h-2A16.54,16.54,0,0,0,29.84,4.48Z"/><path class="cls-1" d="M60.73,7.42l.29.41.68,1.05.29.41.52,0h1.34l-.53-.83-1-1.58a2,2,0,0,0,1-.83A3,3,0,0,0,63,2.51c-1.23-1.2-3.27-.88-4.84-.88V9.32h1.61V7.42h1ZM59.76,6V3a3.15,3.15,0,0,1,1.82.3,1.61,1.61,0,0,1,0,2.38A3.14,3.14,0,0,1,59.76,6Z"/><polygon class="cls-1" points="42.07 3.04 44.26 3.04 44.26 9.32 45.87 9.32 45.87 3.04 48.06 3.04 48.06 1.63 42.07 1.63 42.07 3.04"/><polygon class="cls-1" points="55.58 7.91 51.93 7.91 51.93 6.84 55.02 6.84 55.02 5.45 51.93 5.45 51.93 3.04 55.43 3.04 55.43 1.63 50.32 1.63 50.32 9.32 55.58 9.32 55.58 7.91"/><polygon class="cls-1" points="55.65 15.08 57.98 15.08 57.98 14.04 55.65 14.04 55.65 12.21 58.3 12.21 58.3 11.14 54.43 11.14 54.43 16.96 58.42 16.96 58.42 15.88 55.65 15.88 55.65 15.08"/><path class="cls-1" d="M51.54,15.13a1.44,1.44,0,0,0,.75-.56,2.25,2.25,0,0,0-.24-2.79c-.92-.88-2.47-.64-3.63-.64V17h1.22V15.52h.72l.26.37.48.73.23.31.4,0h1l-.41-.66Zm-.49-.92a2.35,2.35,0,0,1-1.41.24V12.21a2.37,2.37,0,0,1,1.39.24A1.23,1.23,0,0,1,51.05,14.21Z"/><path class="cls-1" d="M36.26,11.14c-.09,0-.24,0-.33,0l0,0,0-.06h-.27v.46h0a3.27,3.27,0,0,0,0,.61h1.66V17h1.21V12.21h1.66V11.14H36.26Z"/><path class="cls-1" d="M46.5,11.14H45.29v3.12A2,2,0,0,1,45,15.64a1.25,1.25,0,0,1-1.92-.31A4.34,4.34,0,0,1,43,13.89V11.14H41.78v3a4.06,4.06,0,0,0,.18,1.7,2.57,2.57,0,0,0,4.24.25,3.62,3.62,0,0,0,.3-1.9Z"/></g></g></svg>