<svg xmlns="http://www.w3.org/2000/svg" viewBox="0 0 64 27.49"><defs><style>.cls-1{fill:#fff;}</style></defs><g id="Layer_2" data-name="Layer 2"><g id="Capa_1" data-name="Capa 1"><path class="cls-1" d="M8.41,5.27a5.55,5.55,0,0,0-2.85-.73,5.52,5.52,0,0,0-2.81.72,5.2,5.2,0,0,0-2,1.94A5.63,5.63,0,0,0,0,10v9.61A.58.58,0,0,0,.17,20a.54.54,0,0,0,.43.17A.57.57,0,0,0,1,20a.61.61,0,0,0,.15-.43V13.4A4.61,4.61,0,0,0,3,15.05a5.24,5.24,0,0,0,2.58.62,5.55,5.55,0,0,0,2.85-.73,5.14,5.14,0,0,0,2-2,5.53,5.53,0,0,0,.73-2.83,5.56,5.56,0,0,0-.73-2.86A5.21,5.21,0,0,0,8.41,5.27Zm.95,7.11A4.4,4.4,0,0,1,7.8,14a4.33,4.33,0,0,1-2.24.59A4.29,4.29,0,0,1,3.33,14a4.2,4.2,0,0,1-1.57-1.59,4.52,4.52,0,0,1-.57-2.26,4.54,4.54,0,0,1,.57-2.28,4.23,4.23,0,0,1,1.57-1.6,4.29,4.29,0,0,1,2.23-.58,4.32,4.32,0,0,1,2.24.58,4.43,4.43,0,0,1,1.56,1.6,4.73,4.73,0,0,1,0,4.54Z"/><path class="cls-1" d="M21.25,5.25a5,5,0,0,0-7.07,2,6.06,6.06,0,0,0-.66,2.88,5.72,5.72,0,0,0,.7,2.86,5,5,0,0,0,1.92,2,5.42,5.42,0,0,0,2.8.71,5.53,5.53,0,0,0,2-.38,5.06,5.06,0,0,0,1.66-.95.49.49,0,0,0,.19-.4.54.54,0,0,0-.23-.4.56.56,0,0,0-.39-.13.54.54,0,0,0-.38.17,3.39,3.39,0,0,1-1.25.71,4.74,4.74,0,0,1-1.56.27A4.16,4.16,0,0,1,16.75,14a4,4,0,0,1-1.5-1.56,4.69,4.69,0,0,1-.52-1.94h8.35a.64.64,0,0,0,.42-.14.57.57,0,0,0,.16-.41A5.91,5.91,0,0,0,23,7.14,4.88,4.88,0,0,0,21.25,5.25Zm-6,2.56a4,4,0,0,1,1.4-1.57,3.63,3.63,0,0,1,2-.56,3.61,3.61,0,0,1,3.44,2.13,4.51,4.51,0,0,1,.43,1.63H14.75A4.91,4.91,0,0,1,15.22,7.81Z"/><path class="cls-1" d="M27.87,14.94a5.4,5.4,0,0,0,2.8.71,5.53,5.53,0,0,0,2-.38,5.06,5.06,0,0,0,1.66-.95.49.49,0,0,0,.19-.4.54.54,0,0,0-.23-.4.59.59,0,0,0-.39-.13.58.58,0,0,0-.39.17,3.35,3.35,0,0,1-1.24.71,4.83,4.83,0,0,1-1.56.27A4.16,4.16,0,0,1,28.48,14,4,4,0,0,1,27,12.41a4.54,4.54,0,0,1-.52-1.94h8.35a.64.64,0,0,0,.42-.14.57.57,0,0,0,.16-.41,5.91,5.91,0,0,0-.64-2.78A4.88,4.88,0,0,0,33,5.25a5,5,0,0,0-7.07,2,6.06,6.06,0,0,0-.66,2.88A5.72,5.72,0,0,0,26,13,5,5,0,0,0,27.87,14.94ZM27,7.81a4,4,0,0,1,1.4-1.57,3.63,3.63,0,0,1,2-.56,3.77,3.77,0,0,1,2.08.56,3.72,3.72,0,0,1,1.36,1.57,4.51,4.51,0,0,1,.43,1.63H26.48A4.69,4.69,0,0,1,27,7.81Z"/><path class="cls-1" d="M44.43,5.05a5.44,5.44,0,0,0-2.33-.49,4.82,4.82,0,0,0-2.65.73,5,5,0,0,0-1.81,2A6,6,0,0,0,37,10.12a5.55,5.55,0,0,0,.71,2.82,5.27,5.27,0,0,0,1.93,2,5.59,5.59,0,0,0,6.4-.59.47.47,0,0,0,.17-.39.61.61,0,0,0-.21-.41.46.46,0,0,0-.38-.14.66.66,0,0,0-.4.18,3.47,3.47,0,0,1-1.26.74,4.91,4.91,0,0,1-1.54.24,4,4,0,0,1-3.69-2.18,4.72,4.72,0,0,1-.54-2.26,5.18,5.18,0,0,1,.49-2.29A3.86,3.86,0,0,1,40,6.25a3.7,3.7,0,0,1,2.06-.57,4,4,0,0,1,3.24,1.51.59.59,0,0,0,.38.23.52.52,0,0,0,.4-.11.5.5,0,0,0,.14-.78A5,5,0,0,0,44.43,5.05Z"/><path class="cls-1" d="M59.4,15V9.6a5.42,5.42,0,0,0-.66-2.78,4.3,4.3,0,0,0-1.8-1.71,5.57,5.57,0,0,0-2.58-.59,4.78,4.78,0,0,0-3.78,1.77V.6a.58.58,0,0,0-.16-.44A.58.58,0,0,0,50,0a.6.6,0,0,0-.43.16.59.59,0,0,0-.17.44V15a.58.58,0,0,0,.17.43.57.57,0,0,0,.43.17.55.55,0,0,0,.44-.17.57.57,0,0,0,.16-.43V8.86h0a2.7,2.7,0,0,1,.5-1.61,3.42,3.42,0,0,1,1.35-1.13,4.47,4.47,0,0,1,1.93-.4,4.41,4.41,0,0,1,2,.42A3.3,3.3,0,0,1,57.7,7.43a4.17,4.17,0,0,1,.51,2.17V15a.57.57,0,0,0,.59.6.54.54,0,0,0,.43-.17A.58.58,0,0,0,59.4,15Z"/><path class="cls-1" d="M63.71,14.15a1,1,0,0,0-.71-.29,1,1,0,0,0-.71.28.92.92,0,0,0-.3.72.94.94,0,0,0,.29.72,1,1,0,0,0,.72.29.94.94,0,0,0,.71-.3,1,1,0,0,0,.29-.71A1,1,0,0,0,63.71,14.15Z"/><path class="cls-1" d="M27.75,19.54a2.73,2.73,0,0,0-1.22-.26,2.59,2.59,0,0,0-1.39.38,2.65,2.65,0,0,0-.95,1,3.17,3.17,0,0,0-.34,1.49,3,3,0,0,0,.37,1.49,2.88,2.88,0,0,0,4.37.73.29.29,0,0,0,.09-.21.31.31,0,0,0-.11-.21.23.23,0,0,0-.2-.07.33.33,0,0,0-.21.09,1.83,1.83,0,0,1-.66.39,2.74,2.74,0,0,1-.81.12,2.2,2.2,0,0,1-1.16-.3,2.25,2.25,0,0,1-.78-.84,2.58,2.58,0,0,1-.28-1.19,2.71,2.71,0,0,1,.26-1.2,2,2,0,0,1,.72-.82,2,2,0,0,1,1.08-.31,2.12,2.12,0,0,1,1.7.8.3.3,0,0,0,.2.12.26.26,0,0,0,.21-.06.29.29,0,0,0,.14-.19.28.28,0,0,0-.07-.22A2.62,2.62,0,0,0,27.75,19.54Z"/><path class="cls-1" d="M35.5,20.69a2.81,2.81,0,0,0-1-1,3.13,3.13,0,0,0-3,0,2.76,2.76,0,0,0-1,1,3,3,0,0,0-.38,1.5,3,3,0,0,0,.38,1.49,2.86,2.86,0,0,0,1,1.05,3,3,0,0,0,1.49.38,2.74,2.74,0,0,0,1.36-.33,2.59,2.59,0,0,0,.93-.87v.82a.33.33,0,0,0,.55.23.36.36,0,0,0,.08-.23V22.19h0A3,3,0,0,0,35.5,20.69Zm-1.36,3.52a2.38,2.38,0,0,1-2.35,0,2.25,2.25,0,0,1-.82-.83,2.38,2.38,0,0,1,.82-3.22,2.38,2.38,0,0,1,2.35,0A2.25,2.25,0,0,1,35,21a2.51,2.51,0,0,1,0,2.38A2.15,2.15,0,0,1,34.14,24.21Z"/><path class="cls-1" d="M41.86,19.65a3,3,0,0,0-1.5-.38,2.92,2.92,0,0,0-1.47.37,2.83,2.83,0,0,0-1,1,2.89,2.89,0,0,0-.4,1.47v5.05a.29.29,0,0,0,.09.22.28.28,0,0,0,.22.09A.3.3,0,0,0,38,27.4a.29.29,0,0,0,.08-.22V23.92a2.44,2.44,0,0,0,.94.86,2.75,2.75,0,0,0,1.35.33,3,3,0,0,0,1.5-.38,2.83,2.83,0,0,0,1-1.05,2.88,2.88,0,0,0,.39-1.49,2.94,2.94,0,0,0-.39-1.5A2.73,2.73,0,0,0,41.86,19.65Zm.5,3.73a2.33,2.33,0,0,1-.82.83,2.38,2.38,0,0,1-2.35,0,2.18,2.18,0,0,1-.82-.83,2.51,2.51,0,0,1,0-2.38,2.28,2.28,0,0,1,.82-.84,2.38,2.38,0,0,1,2.35,0,2.44,2.44,0,0,1,.82.84,2.51,2.51,0,0,1,0,2.38Z"/><path class="cls-1" d="M45.7,17.28a.51.51,0,0,0-.32-.12.52.52,0,0,0-.34.12.41.41,0,0,0-.16.36A.47.47,0,0,0,45,18a.45.45,0,0,0,.33.14.48.48,0,0,0,.35-.14.47.47,0,0,0,.15-.35A.44.44,0,0,0,45.7,17.28Z"/><path class="cls-1" d="M45.38,19.33a.34.34,0,0,0-.23.08.32.32,0,0,0-.09.23v5.09a.32.32,0,0,0,.09.23.3.3,0,0,0,.23.09.32.32,0,0,0,.23-.09.36.36,0,0,0,.08-.23V19.64a.28.28,0,0,0-.31-.31Z"/><path class="cls-1" d="M50.36,24.41h-.23a1.31,1.31,0,0,1-1-.38,1.37,1.37,0,0,1-.38-1V20.1h1.38a.27.27,0,0,0,.2-.07.26.26,0,0,0,.08-.21.24.24,0,0,0-.08-.2.28.28,0,0,0-.2-.08H48.78v-1.7a.32.32,0,0,0-.09-.24.34.34,0,0,0-.46,0,.32.32,0,0,0-.09.24v1.7h-.81a.3.3,0,0,0-.21.08.27.27,0,0,0-.07.2.25.25,0,0,0,.28.28h.81V23a2.18,2.18,0,0,0,.25,1,1.84,1.84,0,0,0,.7.71,2.16,2.16,0,0,0,1,.27h.24a.3.3,0,0,0,.23-.09.32.32,0,0,0,.09-.23.31.31,0,0,0-.32-.32Z"/><path class="cls-1" d="M57.13,20.69a2.73,2.73,0,0,0-1-1,3,3,0,0,0-1.49-.38,3,3,0,0,0-1.5.38,2.73,2.73,0,0,0-1,1,2.94,2.94,0,0,0-.39,1.5,2.88,2.88,0,0,0,.39,1.49,2.83,2.83,0,0,0,1,1.05,3,3,0,0,0,1.5.38A2.77,2.77,0,0,0,56,24.78a2.59,2.59,0,0,0,.93-.87v.82A.32.32,0,0,0,57,25a.28.28,0,0,0,.22.09.3.3,0,0,0,.23-.09.31.31,0,0,0,.08-.23V22.19h0A2.94,2.94,0,0,0,57.13,20.69Zm-1.36,3.52a2.18,2.18,0,0,1-1.17.31,2.23,2.23,0,0,1-1.17-.31,2.28,2.28,0,0,1-.83-.83,2.37,2.37,0,0,1,.83-3.22,2.32,2.32,0,0,1,1.17-.31,2.24,2.24,0,0,1,2,1.15,2.51,2.51,0,0,1,0,2.38A2.18,2.18,0,0,1,55.77,24.21Z"/><path class="cls-1" d="M60.49,24.42h-.26a.61.61,0,0,1-.53-.31,1.44,1.44,0,0,1-.2-.79V17.2a.3.3,0,0,0-.09-.23.27.27,0,0,0-.22-.08A.3.3,0,0,0,59,17a.3.3,0,0,0-.09.23v6.12a2.29,2.29,0,0,0,.17.9,1.56,1.56,0,0,0,.48.61,1.24,1.24,0,0,0,.71.22h.21a.3.3,0,0,0,.23-.09.36.36,0,0,0,.08-.23.33.33,0,0,0-.07-.23A.26.26,0,0,0,60.49,24.42Z"/></g></g></svg>