<svg xmlns="http://www.w3.org/2000/svg" viewBox="0 0 64 23.44"><defs><style>.cls-1{fill:#fff;}</style></defs><g id="Layer_2" data-name="Layer 2"><g id="Capa_1" data-name="Capa 1"><path class="cls-1" d="M11.05,0A11.77,11.77,0,0,0,.11,10a13.13,13.13,0,0,0,0,3.43,11.62,11.62,0,0,0,2.53,5.71,8.39,8.39,0,0,0,1.44,1.46,4.09,4.09,0,0,0,.06-1.11V18.38L3.85,18A10.06,10.06,0,0,1,2.63,7.41a9.22,9.22,0,0,1,2-2.74A9.19,9.19,0,0,1,7.2,2.76a8.88,8.88,0,0,1,4.19-1,9,9,0,0,1,2.89.3,10.08,10.08,0,0,1,7.29,7.8,8.11,8.11,0,0,1,.13,1.93,8.24,8.24,0,0,1-.45,3.12,10.32,10.32,0,0,1-3.75,5.06,12.07,12.07,0,0,1-2.71,1.36A10.2,10.2,0,0,1,7.7,21l-.36-.17v-13h8.74v6l-2.21,1.26-2.2,1.26-1.2-.68L9.25,15a4.72,4.72,0,0,0,0,.78v.79l1.11.63,1.22.68a17.36,17.36,0,0,0,3.11-1.66l3-1.7V6.27H5.76l0,2.58c0,2,0,9.61,0,12.73v.27l.77.38a11.73,11.73,0,0,0,16.8-8.85,15.26,15.26,0,0,0,0-3.31A11.73,11.73,0,0,0,12.54.05,7.54,7.54,0,0,0,11.05,0Z"/><path class="cls-1" d="M26.8,2.37s0,1.83,0,4v4h1.42V8.59c0-2,0-2.06.42-2.42a1,1,0,0,1,1.62.29c.13.3.13.32.14,2.11v1.81h1.41V8.56c0-1,0-1.95-.05-2.12a2.08,2.08,0,0,0-1.12-1.55,1.64,1.64,0,0,0-.77-.13,1.45,1.45,0,0,0-.82.17,2.46,2.46,0,0,0-.58.42l-.26.25V2.33h-.67A3.6,3.6,0,0,0,26.8,2.37Z"/><path class="cls-1" d="M44.86,6.36v4h1.43v-8H44.86Z"/><path class="cls-1" d="M51.77,6.36v4H53.2V6.69l.17-.27a1.06,1.06,0,0,1,1.76-.1c.22.33.24.54.24,2.33v1.73H56.8V8.73a7.35,7.35,0,0,0-.26-2.86,1.68,1.68,0,0,0-1.2-1.06,2,2,0,0,0-1.93.55l-.21.22V2.33H51.77Z"/><path class="cls-1" d="M48.63,3.47l-.6.15,0,.61v.61h-.74V5.93H48l0,1.61c0,1.76.07,2,.38,2.42a1.38,1.38,0,0,0,.45.37,1.62,1.62,0,0,0,.91.14,4.19,4.19,0,0,0,.78-.05c.16,0,.16-.05.16-.49a2.77,2.77,0,0,0,0-.53c0-.06-.13-.07-.42-.06s-.4,0-.56-.12-.31-.52-.31-2V5.93h.68l.67,0v-1l-.67,0h-.68V4.07c0-.58,0-.77-.06-.76A6.87,6.87,0,0,0,48.63,3.47Z"/><path class="cls-1" d="M35,4.79a2.79,2.79,0,0,0-2.11,2.89,2.68,2.68,0,0,0,.75,2.06,2.87,2.87,0,0,0,2.36.74c.83,0,1.63-.22,1.63-.38a3,3,0,0,0-.1-.5l-.08-.39-.38.09a4.18,4.18,0,0,1-1,.11,1.79,1.79,0,0,1-1-.16,1.32,1.32,0,0,1-.74-.83l-.06-.28c0-.09.09-.1,1.82-.1h1.86l0-.13a3.42,3.42,0,0,0,0-1.21,2.37,2.37,0,0,0-1.38-1.8A3.46,3.46,0,0,0,35,4.79Zm1,1a.83.83,0,0,1,.41.45,2,2,0,0,1,.17.53l0,.23-1.17,0a11.79,11.79,0,0,1-1.21,0c-.06-.06.13-.59.3-.84A1.19,1.19,0,0,1,36.07,5.83Z"/><path class="cls-1" d="M40.41,4.79c-.56.1-1.26.36-1.26.47a2.72,2.72,0,0,0,.29.84.75.75,0,0,0,.24-.1,2.51,2.51,0,0,1,1.85-.12.91.91,0,0,1,.48.74c0,.15,0,.15-.56.19a3.23,3.23,0,0,0-2.27.84,1.68,1.68,0,0,0-.43,1.21,1.57,1.57,0,0,0,.89,1.48,1.4,1.4,0,0,0,.82.13,1.75,1.75,0,0,0,.95-.16,2.23,2.23,0,0,0,.52-.34c.2-.19.23-.18.26.18l0,.2.62,0,.63,0V8.8a7.74,7.74,0,0,0-.28-2.94,1.94,1.94,0,0,0-1-1A4.47,4.47,0,0,0,40.41,4.79Zm1.64,3.42c0,.62-.18.91-.56,1.13a1.13,1.13,0,0,1-1.05.05.91.91,0,0,1-.16-1.17,1.83,1.83,0,0,1,1.44-.52h.36Z"/><path class="cls-1" d="M57.43,4.88s.46,1.19,1,2.61,1,2.65,1,2.73a2.23,2.23,0,0,1-.71,1l-.26.2v.67c0,.76,0,.76.45.53a4.85,4.85,0,0,0,2.09-2.71c.29-.67,1.86-4.93,1.86-5a3.16,3.16,0,0,0-.73,0h-.74L61,6.57c-.28.95-.54,1.83-.57,2-.09.32-.14.36-.18.13s-.31-1-.65-2L59,4.84h-.76A3.82,3.82,0,0,0,57.43,4.88Z"/><path class="cls-1" d="M8.45,8.74s0,1,0,2.24l0,2.17L10,14c.86.5,1.61.91,1.65.91s.8-.42,1.69-.93c1.37-.78,1.62-.94,1.6-1s0-1.06,0-2.21V8.67H11.71A22.66,22.66,0,0,0,8.45,8.74ZM12,9.58v.33l.22,0a2.17,2.17,0,0,1,.81.32,2.71,2.71,0,0,1-.35.68l-.42-.14c-.4-.15-.69-.18-.74-.08s.08.22.41.31c.78.22,1,.43,1.09.87a.94.94,0,0,1-.83,1C12,13,12,13,12,13.3v.34h-.68v-.73l-.27-.07a2.18,2.18,0,0,1-.52-.21l-.24-.14.17-.34a3,3,0,0,1,.19-.34l.41.18c.47.22.91.28,1,.13s0-.12,0-.14a3.25,3.25,0,0,0-.59-.23,1.4,1.4,0,0,1-.75-.37.58.58,0,0,1-.17-.47.8.8,0,0,1,.5-.81l.29-.15V9.24H12Z"/><path class="cls-1" d="M44.92,14.87v4h1.37V17l.21-.25a1,1,0,0,1,.26-.25,9.33,9.33,0,0,1,.83,1.18l.77,1.19h.85c.67,0,.85,0,.82-.07L48.9,17.24c-.59-.83-1.09-1.54-1.11-1.58a17.66,17.66,0,0,1,1.84-2.12l.17-.19H48.08l-.81,1.1c-.45.6-.85,1.15-.89,1.22s-.08-.2-.09-2.36V10.84H44.92Z"/><path class="cls-1" d="M57.24,12l-.56.15v1.24h-.79v1h.79V16c0,1.62,0,1.93.24,2.33a1.48,1.48,0,0,0,1.45.69,4.18,4.18,0,0,0,.73-.05l.21,0V17.8l-.31,0c-.45.05-.7,0-.84-.34s-.1-.39-.1-1.68V14.38h1.31v-1H58.06v-.77C58.06,11.68,58.13,11.74,57.24,12Z"/><path class="cls-1" d="M29.26,13.31a2.33,2.33,0,0,0-1,.61,1,1,0,0,1-.24.23s0-.1,0-.22a2.5,2.5,0,0,0,0-.4l0-.18H26.76v7.77h1.42V18.31l.24.21a2.25,2.25,0,0,0,3-.2,3,3,0,0,0,.84-2.25,2.71,2.71,0,0,0-1.37-2.61,1.6,1.6,0,0,0-.87-.2A2.83,2.83,0,0,0,29.26,13.31Zm.55,1.08a1.79,1.79,0,0,1,1,2.1c-.15.92-.66,1.44-1.41,1.43A1.34,1.34,0,0,1,28.24,17a5.06,5.06,0,0,1,.08-1.88,1.54,1.54,0,0,1,.74-.71A1.07,1.07,0,0,1,29.81,14.39Z"/><path class="cls-1" d="M35.11,13.33a2.61,2.61,0,0,0-1.91,1.82,4.32,4.32,0,0,0,0,1.89,2.65,2.65,0,0,0,1.94,1.88A2.79,2.79,0,0,0,38.55,17a4.11,4.11,0,0,0,0-1.78,2.56,2.56,0,0,0-2-1.91A4.07,4.07,0,0,0,35.11,13.33Zm1.28,1a1.46,1.46,0,0,1,.66.79,1.91,1.91,0,0,1,.13,1,2,2,0,0,1-.15,1,1.6,1.6,0,0,1-.78.8,1.87,1.87,0,0,1-.5,0,1.17,1.17,0,0,1-1-.76,1.68,1.68,0,0,1-.2-1.08,1.79,1.79,0,0,1,.18-1.07,1.37,1.37,0,0,1,.71-.73A1.55,1.55,0,0,1,36.39,14.37Z"/><path class="cls-1" d="M41.69,13.32a2.93,2.93,0,0,0-2.08,3.87A2.69,2.69,0,0,0,42.55,19a3.22,3.22,0,0,0,1.25-.26,2.88,2.88,0,0,0-.14-1,.91.91,0,0,0-.31.06,3.38,3.38,0,0,1-1.38,0,1.79,1.79,0,0,1-1-2,1.7,1.7,0,0,1,2.3-1.38l.38.08a1.56,1.56,0,0,0,.15-.44c.06-.24.11-.47.12-.51C44,13.33,42.35,13.16,41.69,13.32Z"/><path class="cls-1" d="M52.17,13.33A2.78,2.78,0,0,0,50.25,16a2.62,2.62,0,0,0,1.86,2.9,5.12,5.12,0,0,0,2.56-.1c.32-.1.36-.12.33-.24s-.06-.28-.11-.47-.1-.33-.15-.33l-.48.1a3.81,3.81,0,0,1-1.65,0,1.37,1.37,0,0,1-1-1.21c0-.12,0-.12,1.85-.13h1.84V16a2.71,2.71,0,0,0-1-2.42A2.84,2.84,0,0,0,52.17,13.33Zm1.13.94a1.25,1.25,0,0,1,.68,1l0,.25H51.59l0-.21a1.53,1.53,0,0,1,.77-1A2,2,0,0,1,53.3,14.27Z"/><path class="cls-1" d="M61.59,13.32A1.74,1.74,0,0,0,60.23,15c0,.71.49,1.24,1.54,1.64.59.22.79.37.85.64a.54.54,0,0,1-.32.65,2.29,2.29,0,0,1-1.52-.11,1.13,1.13,0,0,0-.42-.12,4.18,4.18,0,0,0-.25.9c0,.1.33.24.89.36a2.94,2.94,0,0,0,2.53-.51,1.62,1.62,0,0,0,.24-2,2.56,2.56,0,0,0-1.3-.88c-.74-.3-.87-.42-.87-.74,0-.57.78-.75,1.63-.37a1.33,1.33,0,0,0,.28.1s.07-.23.14-.49c.15-.54.16-.52-.31-.67A4.52,4.52,0,0,0,61.59,13.32Z"/></g></g></svg>