<svg xmlns="http://www.w3.org/2000/svg" viewBox="0 0 64 32.48"><defs><style>.cls-1{fill:#fff;}</style></defs><g id="Layer_2" data-name="Layer 2"><g id="Capa_1" data-name="Capa 1"><path class="cls-1" d="M64,11.17v-.05c0-.27,0-.52-.07-.8s-.09-.56-.11-.84a11.27,11.27,0,0,0-.45-1.73,13.21,13.21,0,0,0-3.59-5.63A12.53,12.53,0,0,0,56.66,0a.13.13,0,0,0-.16,0c-.16.3-.3.61-.46.91a.08.08,0,0,0,.05.11l.57.34a12.22,12.22,0,0,1,3,2.43,11.74,11.74,0,0,1,2.4,4.09,11,11,0,0,1,.56,2.48,10.52,10.52,0,0,1,.1,1.37,9.63,9.63,0,0,1-.1,1.52,6.24,6.24,0,0,1-.13.85A11.84,11.84,0,0,1,61,18.06,11.72,11.72,0,0,1,59,20.62a11.93,11.93,0,0,1-2.88,2,12.24,12.24,0,0,1-2,.79,14.17,14.17,0,0,1-1.47.35c-.37.05-.74.11-1.1.13l-.53,0a9.56,9.56,0,0,1-1.07,0c-.34,0-.69,0-1-.12a13.31,13.31,0,0,1-3.29-1l-.16-.07a.17.17,0,0,0-.16.07c-.14.3-.3.6-.45.92a.1.1,0,0,0,0,.11.35.35,0,0,0,.16.08,12.52,12.52,0,0,0,1.25.5,12.33,12.33,0,0,0,2,.51,5.4,5.4,0,0,0,.58.1,4.78,4.78,0,0,0,.84.08c.15,0,.31,0,.45,0s.11.08.11.13c0,.32,0,.62,0,.94a.09.09,0,0,1,0,.05.22.22,0,0,1,0,.08H2a3.41,3.41,0,0,1-.55,0l-.2,0H.68a.71.71,0,0,0-.21,0,.12.12,0,0,0-.1.06s-.06,0-.06.05a3.94,3.94,0,0,0,0,1,.07.07,0,0,0,0,.05.23.23,0,0,0,.07.07,2.66,2.66,0,0,0,.49,0H52.68s0,0,0-.07a7.6,7.6,0,0,0,0-1.07s0,0,0,0a0,0,0,0,0,0,0,.13.13,0,0,0-.08,0h-.89q-.15,0-.15-.12v-.9a.11.11,0,0,1,0-.08.1.1,0,0,1,.05-.06.61.61,0,0,1,.3-.05c.4,0,.8-.11,1.2-.18a11.38,11.38,0,0,0,1.6-.41,14,14,0,0,0,2.75-1.26A13.8,13.8,0,0,0,60,21.37a13.62,13.62,0,0,0,1.6-1.87,12.26,12.26,0,0,0,1.1-1.89,12.72,12.72,0,0,0,1-2.78c.05-.24.12-.46.15-.7s.09-.5.11-.75a1.81,1.81,0,0,1,0-.23c0-.16,0-.32,0-.49C64,12.18,64,11.67,64,11.17Z"/><path class="cls-1" d="M41.16,14.11a9.26,9.26,0,0,0,1,2.61,9.62,9.62,0,0,0,1.64,2.16A11.9,11.9,0,0,0,45.23,20a9.84,9.84,0,0,0,2.91,1.33c.24.06.5.11.74.18s.64.09,1,.12.45,0,.67,0a3.47,3.47,0,0,0,.72,0c.32,0,.66-.05,1-.1a9.58,9.58,0,0,0,1.31-.3A9.21,9.21,0,0,0,56.13,20a9.5,9.5,0,0,0,1.7-1.46,10,10,0,0,0,2-3.11,12.18,12.18,0,0,0,.51-1.76A4,4,0,0,0,60.4,13,6.39,6.39,0,0,0,60.45,12a8.71,8.71,0,0,0-.05-1,3.93,3.93,0,0,0-.06-.48,8.45,8.45,0,0,0-.45-1.78A9.69,9.69,0,0,0,56.29,4a9,9,0,0,0-1.5-.87,8.69,8.69,0,0,0-1.6-.57c-.33-.08-.67-.15-1-.21s-.69-.06-1-.11a10.37,10.37,0,0,0-1.47,0,2.71,2.71,0,0,0-.4,0l-.7.13a9.45,9.45,0,0,0-2.62,1,9.58,9.58,0,0,0-2.72,2.23,9.48,9.48,0,0,0-1.6,2.57A9,9,0,0,0,41,11a4.53,4.53,0,0,0-.05.53,12,12,0,0,0,0,1.34A9.8,9.8,0,0,0,41.16,14.11ZM57.24,6.68a.17.17,0,0,1,.19.06s0,0,.06.07A6.59,6.59,0,0,1,58.24,8a8.28,8.28,0,0,1,.66,1.71c.05.21.11.4.14.61s.05.26.07.4,0,.51.08.75,0,.24,0,.35a3.76,3.76,0,0,1,0,.58,1.14,1.14,0,0,0,0,.27A6.24,6.24,0,0,1,58.92,14a9,9,0,0,1-1.36,2.89c-.18.26-.39.5-.59.74,0,0,0,0-.07,0s0,0-.08,0a1.64,1.64,0,0,0-.22,0l-.18.05h-.05a.11.11,0,0,1-.08,0s0,0-.08,0l-1.74-1.17-.11-.08a.16.16,0,0,1-.08-.14v-.13a.77.77,0,0,0-.13-.42.64.64,0,0,0-.45-.33l-.22-.05a.06.06,0,0,1-.06-.05.4.4,0,0,1-.08-.16c-.15-.35-.31-.72-.45-1.07a.17.17,0,0,1,0-.18s0,0,0-.06a.35.35,0,0,0,0-.08A.74.74,0,0,0,53,13a.61.61,0,0,0-.19-.24.77.77,0,0,0-1,0,1.12,1.12,0,0,0-.2.18.12.12,0,0,1-.08,0,.47.47,0,0,1-.17,0c-.58-.14-1.17-.25-1.74-.4l-1-.21a4.15,4.15,0,0,1-.48-.11.12.12,0,0,1-.1-.09c0-.13-.08-.26-.11-.39a.15.15,0,0,1,0-.16l0,0L50,9.7c.42-.38.82-.78,1.23-1.17.2-.17.39-.38.6-.54A.17.17,0,0,1,52,8l.13,0a.78.78,0,0,0,.31.06h.17A1,1,0,0,0,53,8a.28.28,0,0,1,.13,0,.33.33,0,0,1,.13,0,.12.12,0,0,1,.06.06l1,1c.24.22.48.45.7.69a.19.19,0,0,1,.07.16S55,10,55,10s0,.1,0,.13a.81.81,0,0,0,.11.43.71.71,0,0,0,.29.28l.25.09a.41.41,0,0,0,.22,0,1.29,1.29,0,0,0,.26-.08.76.76,0,0,0,.38-.41.33.33,0,0,0,0-.13v-.23a.75.75,0,0,0-.47-.65.72.72,0,0,0-.48,0l-.12,0a.21.21,0,0,1-.13,0l-.15-.11c-.27-.26-.52-.53-.8-.79s-.52-.53-.81-.77l0,0c-.08-.06-.08-.14,0-.24a.84.84,0,0,0,0-.17c0-.16.09-.23.25-.26.39-.06.77-.14,1.14-.22l1.18-.24.3-.07a.28.28,0,0,1,.29.07A.77.77,0,0,0,57.24,6.68Zm-15,4.22a7.14,7.14,0,0,1,.18-1,7.15,7.15,0,0,1,.51-1.52A8.49,8.49,0,0,1,47.37,4a8.35,8.35,0,0,1,1.44-.47,7.26,7.26,0,0,1,1.86-.19,4,4,0,0,1,.49,0,6.85,6.85,0,0,1,1.23.17,9.4,9.4,0,0,1,1.75.56,9.22,9.22,0,0,1,2.27,1.5l.12.13a.14.14,0,0,1-.06.23L56,6.09l-1.26.25-1.06.21H53.5a.31.31,0,0,1-.08-.1,1.16,1.16,0,0,0-.48-.4l-.08,0a.11.11,0,0,1-.08-.1,2.35,2.35,0,0,1,0-.53.11.11,0,0,1,0-.08c.06-.06.14-.11.21-.17a.53.53,0,0,0,.17-.35.66.66,0,0,0-.27-.67A.72.72,0,0,0,52.55,4h-.09a.33.33,0,0,1-.13,0,.54.54,0,0,0-.3.19.48.48,0,0,0-.16.35V4.7a.64.64,0,0,0,.22.48l.18.14a.19.19,0,0,1,0,.08,4.17,4.17,0,0,1,0,.5.14.14,0,0,1-.07.11,2.69,2.69,0,0,0-.43.24s0,0-.08,0l-.19-.09-1.2-.71-.88-.52a.27.27,0,0,1-.16-.24.49.49,0,0,0-.17-.35.57.57,0,0,0-.36-.16h-.09a.56.56,0,0,0-.46.3.39.39,0,0,0-.05.13,1.14,1.14,0,0,0,0,.27.49.49,0,0,0,.23.37.53.53,0,0,0,.46.09l.22,0s.07,0,.08,0l.08,0L51.32,6.6l.11.08a.23.23,0,0,1,.08.16v0a.69.69,0,0,0,0,.35,2.41,2.41,0,0,0,.08.25.21.21,0,0,1-.06.21l-.16.16L50.06,9.08l-1.6,1.48-.57.56a1.58,1.58,0,0,1-.15.12h-.08a1.66,1.66,0,0,0-.38-.11h-.35s0,0,0,0a0,0,0,0,1,0,0,.18.18,0,0,1-.08-.11c-.23-.43-.44-.85-.64-1.28l-.31-.59a.12.12,0,0,1,0-.16.6.6,0,0,0,.06-.11.78.78,0,0,0,.1-.43.16.16,0,0,0,0-.1.75.75,0,0,0-.4-.56.72.72,0,0,0-.52-.08.75.75,0,0,0-.5.35.65.65,0,0,0-.11.43V8.5a.64.64,0,0,0,.09.34.81.81,0,0,0,.48.37,1.81,1.81,0,0,0,.23,0,.19.19,0,0,1,.17.11l1,1.92a.12.12,0,0,1,0,.13s0,0,0,0l0,0a1.19,1.19,0,0,0-.27.69.11.11,0,0,1,0,.08s0,0-.05.06a.3.3,0,0,1-.11.06c-.49.2-1,.37-1.5.55a.2.2,0,0,1-.21,0L44,12.8a.5.5,0,0,0-.4,0,.58.58,0,0,0-.38.5.6.6,0,0,0,.17.48.43.43,0,0,0,.2.11l.12,0a.28.28,0,0,0,.18,0l.13,0a.48.48,0,0,0,.27-.22.54.54,0,0,0,.08-.21c0-.07.06-.1.13-.13a6.5,6.5,0,0,1,.62-.22l1-.37s.08,0,.12,0,0,.05.07.07a1.18,1.18,0,0,0,.4.29.2.2,0,0,1,.11.06.56.56,0,0,1,.05.08v1.34a.18.18,0,0,1-.1.18h0a.69.69,0,0,0,0,1.14.53.53,0,0,0,.28.1h.13a.67.67,0,0,0,.59-.47.62.62,0,0,0-.09-.59.47.47,0,0,0-.19-.18.18.18,0,0,1-.12-.17V13.27a.14.14,0,0,1,.07-.12.29.29,0,0,0,.11-.06,1,1,0,0,0,.46-.4.14.14,0,0,1,.2-.06L50,13l1.39.32a.61.61,0,0,1,.12.05l.07.05a.52.52,0,0,1,.06.16.83.83,0,0,0,.27.35l.16.1a1.6,1.6,0,0,0,.26.08.18.18,0,0,1,.18.11l.49,1.2a.11.11,0,0,1,0,.12,1.13,1.13,0,0,0-.13.2.71.71,0,0,0-.07.6c0,.05,0,.08,0,.13a.06.06,0,0,1,0,0s0,0,0,0c-.16.16-.3.32-.46.5s-.22.24-.34.35l-.22.21a.18.18,0,0,1-.13,0,.84.84,0,0,0-.27,0,.57.57,0,0,0-.43.51,1.77,1.77,0,0,0,0,.23.12.12,0,0,0,0,.08.73.73,0,0,0,.35.32.62.62,0,0,0,.75-.39.13.13,0,0,0,0-.08v-.22a.27.27,0,0,1,0-.16c.07-.08.13-.16.21-.24l.77-.82a.12.12,0,0,1,.16,0,.31.31,0,0,0,.13,0,.63.63,0,0,0,.4-.05.76.76,0,0,1,.16-.06s0,0,.08,0a.6.6,0,0,1,.11.06L56,18.14l0,0a.3.3,0,0,1,0,.34l-.06.06a8.84,8.84,0,0,1-1.07.74,8.51,8.51,0,0,1-1.92.81,7.73,7.73,0,0,1-1.27.26,6.2,6.2,0,0,1-.62.06,7.27,7.27,0,0,1-1.47-.06,7.65,7.65,0,0,1-1.9-.46,8.61,8.61,0,0,1-2.19-1.19,8,8,0,0,1-2.14-2.38,8.8,8.8,0,0,1-1-2.43,9.74,9.74,0,0,1-.21-1.18,8.08,8.08,0,0,1-.05-.85C42.16,11.52,42.18,11.22,42.21,10.9Z"/><path class="cls-1" d="M.26,11.24V14a.12.12,0,0,0,.1.13H1.3s.05-.05.05-.07a2.35,2.35,0,0,0,0-.27V11.54c0-.22,0-.45,0-.67s0-.48,0-.72c0,0,0-.07,0-.1s0-.05.06,0a0,0,0,0,1,0,0,.46.46,0,0,1,.07.16c.19.62.38,1.24.57,1.88s.36,1.14.53,1.71a1.31,1.31,0,0,0,.08.21s.05.05.07.05a7.85,7.85,0,0,0,1,0A.12.12,0,0,0,3.84,14c0-.08.07-.16.1-.26.11-.34.22-.67.33-1,.29-.87.56-1.73.85-2.59A.48.48,0,0,1,5.2,10l.07-.05a.43.43,0,0,1,0,.05,1,1,0,0,1,0,.35c0,.16,0,.32,0,.49s0,.32,0,.5v2.64a.14.14,0,0,0,.12.11h.89a.13.13,0,0,0,.14-.13V8.65a1.77,1.77,0,0,0,0-.23s0-.09-.08-.09l-.08,0H4.82a.16.16,0,0,0-.16.13l0,.17c-.22.71-.46,1.41-.69,2.13-.17.54-.35,1.07-.53,1.61,0,.05,0,.08,0,.13s0,0,0,0-.06,0-.06,0a1.31,1.31,0,0,1-.08-.21c-.3-1-.62-2-.93-3-.06-.19-.12-.4-.17-.59L2,8.42a.1.1,0,0,0-.09-.08H.41s0,0,0,0,0,0-.07.06a.59.59,0,0,0,0,.23C.26,9.51.26,10.37.26,11.24Z"/><path class="cls-1" d="M19.13,11.19V14a.1.1,0,0,0,.11.11h.89s.1-.05.1-.08V11c0-.24,0-.48,0-.72a1.62,1.62,0,0,1,0-.22l.05,0h0c.08.08.11.18.18.26l2,3.49a2.13,2.13,0,0,0,.16.25s0,0,.08.05a.13.13,0,0,0,.08,0H24l.1,0s.08-.06.08-.1,0-.24,0-.35v-5a.5.5,0,0,0,0-.17s0-.05-.05-.07l-.08,0h-.85a.14.14,0,0,0-.12.11c0,.07,0,.11,0,.18V11a1.51,1.51,0,0,0,0,.31,1,1,0,0,1,0,.17,4.43,4.43,0,0,0,0,.63c0,.06,0,.11,0,.17a0,0,0,0,1,0,0,.12.12,0,0,1-.08,0,.7.7,0,0,1-.14-.21L21.11,9c-.11-.21-.24-.42-.37-.63a.18.18,0,0,0-.14-.08H19.25a0,0,0,0,0,0,0,.14.14,0,0,0-.07.06.6.6,0,0,0,0,.23Z"/><path class="cls-1" d="M13.15,12.08a3,3,0,0,0,.38,1,2.27,2.27,0,0,0,.37.45,2.32,2.32,0,0,0,.69.42,2.35,2.35,0,0,0,.86.17H16a5.33,5.33,0,0,0,1.54-.24.13.13,0,0,0,.08,0c.11,0,.13-.06.13-.16V12.34h0v-1.2c0-.06,0-.11,0-.18s0,0-.05-.06a.27.27,0,0,0-.12,0H15.66c-.15,0-.18.08-.18.2v.62s0,.06,0,.09.06.08.09.08.27,0,.4,0a4.35,4.35,0,0,1,.5,0s.06,0,.06.06c0,.34,0,.69,0,1,0,0-.07.08-.1.1a1.58,1.58,0,0,1-.48.06h-.27a1.44,1.44,0,0,1-.67-.19.59.59,0,0,1-.18-.14,1.54,1.54,0,0,1-.38-.59,1.4,1.4,0,0,1-.1-.44c0-.14,0-.28,0-.44a2.29,2.29,0,0,1,.06-.58,1.82,1.82,0,0,1,.34-.81,1.32,1.32,0,0,1,.83-.56A2,2,0,0,1,16,9.33h.32a.5.5,0,0,1,.17,0,3.53,3.53,0,0,1,.72.22l.08,0s.12,0,.12,0c.11-.26.22-.51.31-.79a0,0,0,0,1,0,0s0-.1-.05-.12a3.68,3.68,0,0,0-1.34-.3h-.58a3.27,3.27,0,0,0-1.37.35,2.41,2.41,0,0,0-1.09,1.2,3.49,3.49,0,0,0-.24,1,3.17,3.17,0,0,0,.05,1A.47.47,0,0,0,13.15,12.08Z"/><path class="cls-1" d="M25.66,12.67A1.82,1.82,0,0,0,26.78,14a2.32,2.32,0,0,0,.87.17h.54A2.35,2.35,0,0,0,29.1,14a1.28,1.28,0,0,0,.24-.11,1.88,1.88,0,0,0,.88-1.09,2.93,2.93,0,0,0,.1-.65V8.52a.16.16,0,0,0-.16-.18h-.85a.25.25,0,0,0-.13,0s-.08.06-.09.09a1.32,1.32,0,0,0,0,.28v3.38a1.43,1.43,0,0,1-.24.68s0,.08-.1.09a.79.79,0,0,1-.4.19,2.56,2.56,0,0,1-.62,0c-.11,0-.24,0-.35-.08a.87.87,0,0,1-.46-.52,1.35,1.35,0,0,1-.08-.52V8.55s0-.06,0-.1-.06-.08-.1-.08h-1a.14.14,0,0,0-.11.13v3.57A4.36,4.36,0,0,0,25.66,12.67Z"/><path class="cls-1" d="M7.2,14.08a10.46,10.46,0,0,0,1.12,0h0s0,0,0,0a.15.15,0,0,0,.06-.11c.08-.24.15-.48.23-.72s.08-.26.12-.39a.12.12,0,0,1,.1-.08h1.87a.13.13,0,0,1,.11.07,1.45,1.45,0,0,1,.11.29c.1.3.2.59.29.89a.11.11,0,0,0,.1.08l.53,0h.35a.84.84,0,0,0,.27,0A.11.11,0,0,0,12.6,14s0-.07,0-.08c-.3-.87-.61-1.72-.89-2.58s-.6-1.65-.88-2.48l-.15-.38c-.05-.11-.06-.13-.19-.13H9.17l-.07.05,0,.08c-.2.61-.41,1.2-.64,1.81-.41,1.16-.81,2.33-1.23,3.5,0,.06,0,.11,0,.17s0,0,0,.05S7.17,14.08,7.2,14.08Zm2-2.44c0-.1.05-.21.07-.31.17-.57.36-1.17.52-1.74a.52.52,0,0,1,.07-.11s0,0,0,0l0,0,.34,1.06c.09.32.2.65.3,1a.3.3,0,0,1,0,.13.06.06,0,0,1-.05.06l-.08,0H9.28A.07.07,0,0,1,9.18,11.64Z"/><path class="cls-1" d="M31.42,13.86a3.15,3.15,0,0,0,1,.27h.48a4,4,0,0,0,.59,0,2,2,0,0,0,1-.41,1.59,1.59,0,0,0,.54-1.09v-.32a1.35,1.35,0,0,0-.35-.85,2.51,2.51,0,0,0-.34-.3,3.44,3.44,0,0,0-.7-.4c-.22-.11-.46-.22-.67-.35a1.88,1.88,0,0,1-.23-.16.86.86,0,0,1-.14-.18.53.53,0,0,1,.26-.72,1.32,1.32,0,0,1,.3-.08,2.65,2.65,0,0,1,.88.13l.25.1a.55.55,0,0,1,.18.06c.1,0,.14,0,.18-.06.11-.24.2-.5.3-.74a.12.12,0,0,0-.06-.14,4.6,4.6,0,0,0-.68-.24,2.63,2.63,0,0,0-.3-.08,4.43,4.43,0,0,0-1.15,0,1.42,1.42,0,0,0-.7.26,1.39,1.39,0,0,0-.66.86,1.69,1.69,0,0,0-.05.67,1.5,1.5,0,0,0,.15.51,1.64,1.64,0,0,0,.48.6,2.52,2.52,0,0,0,.44.28l.44.23c.16.06.32.16.48.24a1.38,1.38,0,0,1,.25.17.35.35,0,0,1,.11.13.58.58,0,0,1,.12.34.53.53,0,0,1-.1.28.45.45,0,0,1-.16.15.81.81,0,0,1-.29.09,1.19,1.19,0,0,1-.53,0,3.55,3.55,0,0,1-.78-.19l-.41-.16-.13-.05a.09.09,0,0,0-.13.07v.94C31.32,13.79,31.36,13.84,31.42,13.86Z"/><path class="cls-1" d="M24,18.05a.13.13,0,0,0-.1-.08h-.45a.15.15,0,0,0-.11.06c-.09.24-.19.46-.29.7l-1.61,4.11c-.1.24-.19.47-.27.71s0,.15.13.15h.44a.13.13,0,0,0,.1-.07c.16-.39.3-.77.45-1.17a3.18,3.18,0,0,1,.14-.37.29.29,0,0,1,.06-.11.12.12,0,0,1,.12-.07h2a.25.25,0,0,1,.13,0,.11.11,0,0,1,.1.08l.38,1,.24.62c0,.15.08.15.19.15h.5s.06-.07.05-.1l-1-2.44c-.4-1-.79-2-1.19-3C24.05,18.09,24,18.06,24,18.05ZM24.48,21a1.59,1.59,0,0,1,.07.2.1.1,0,0,1-.07.1l-.13,0h-.7a6.43,6.43,0,0,1-.75,0,.08.08,0,0,1,0-.1.41.41,0,0,0,0-.08c.16-.43.34-.86.5-1.28a8.33,8.33,0,0,0,.29-.84s0-.05,0-.05.05,0,.07.06a0,0,0,0,0,0,0c.13.42.29.8.44,1.22A7.16,7.16,0,0,0,24.48,21Z"/><path class="cls-1" d="M4.67,23.48a.61.61,0,0,0,0,.13.07.07,0,0,0,.07.09h.52s0,0,.07,0l0-.08c.19-.48.36-1,.55-1.46A1.19,1.19,0,0,1,6,22s0-.05.07-.05H8.14a.06.06,0,0,1,0,0l.08.05c.06.16.14.33.21.49.16.39.3.77.46,1.17a.11.11,0,0,0,.1.08,2.71,2.71,0,0,0,.57,0l.05-.06c-.05-.13-.09-.26-.14-.37-.32-.8-.63-1.6-.95-2.41h0c-.35-.92-.71-1.83-1.07-2.74a.15.15,0,0,0,0-.08s0,0-.07,0a1.93,1.93,0,0,0-.48,0,.06.06,0,0,0-.06,0c0,.05,0,.11-.08.16-.4,1-.8,2.05-1.22,3.07C5.27,22,5,22.73,4.67,23.48Zm1.62-2.32s0-.06,0-.08c.16-.43.32-.86.5-1.29a7.69,7.69,0,0,0,.28-.85c0-.05,0-.05.07,0l0,0,0,0a8.18,8.18,0,0,0,.39,1,.25.25,0,0,1,0,.08L8,21a1.21,1.21,0,0,1,.08.25,0,0,0,0,1,0,.07H6.38C6.3,21.28,6.26,21.23,6.29,21.16Z"/><path class="cls-1" d="M10.44,23.63a.11.11,0,0,0,.07.06,2.35,2.35,0,0,0,.53,0,.11.11,0,0,0,.08-.1v-2c0-.12,0-.16.16-.16H12a4,4,0,0,0,.7-.08,3.13,3.13,0,0,0,.54-.19,1.43,1.43,0,0,0,.69-.68,1.48,1.48,0,0,0,.16-.46,2.43,2.43,0,0,0,0-.85,1.22,1.22,0,0,0-.19-.49,1.36,1.36,0,0,0-.69-.56,2.78,2.78,0,0,0-1-.19H10.51s0,0-.07.07a.55.55,0,0,0,0,.22v5.08A2.44,2.44,0,0,0,10.44,23.63Zm.69-5s0-.08.08-.1h0a4.26,4.26,0,0,1,.62,0l.45,0a1.41,1.41,0,0,1,.59.19.88.88,0,0,1,.4.51.13.13,0,0,1,0,.08,1.88,1.88,0,0,1,0,.53.9.9,0,0,1-.08.3.92.92,0,0,1-.49.48,2.19,2.19,0,0,1-.56.14l-.27,0a.9.9,0,0,0-.23,0,1.77,1.77,0,0,1-.4,0c-.12,0-.19-.05-.19-.17V19.58C11.13,19.34,11.12,19,11.13,18.67Z"/><path class="cls-1" d="M.82,23.13a2.27,2.27,0,0,0,.78.5,2.69,2.69,0,0,0,.92.15H3a2.22,2.22,0,0,0,.45,0,.3.3,0,0,1,.13,0,3.71,3.71,0,0,0,.53-.13.16.16,0,0,0,.09-.14v-.4C4.16,23,4.1,23,4,23a.53.53,0,0,0-.17,0,3.69,3.69,0,0,1-1.2.14h-.1A2.3,2.3,0,0,1,2,23a1.82,1.82,0,0,1-1-.87,2.72,2.72,0,0,1-.24-.81c0-.08,0-.14,0-.22a3.48,3.48,0,0,1,.09-1.2A1.9,1.9,0,0,1,1.4,19,1.71,1.71,0,0,1,2,18.65a2.55,2.55,0,0,1,1.1-.14c.18,0,.35.06.53.11l.41.15a.12.12,0,0,0,.11-.05,2.14,2.14,0,0,0,.2-.4.12.12,0,0,0,0-.16A2.6,2.6,0,0,0,3.67,18a3.77,3.77,0,0,0-.88-.1H2.61a2.84,2.84,0,0,0-1,.21,2.29,2.29,0,0,0-.89.64A2.9,2.9,0,0,0,.07,20,5.08,5.08,0,0,0,0,21.13,3,3,0,0,0,.17,22,2.36,2.36,0,0,0,.82,23.13Z"/><path class="cls-1" d="M18.58,23.26v.35a.1.1,0,0,0,.08.09,2.35,2.35,0,0,0,.53,0,.1.1,0,0,0,.08-.09V18.75a.11.11,0,0,1,0-.08s0-.05.06-.05h1.47a.58.58,0,0,0,.18,0s0,0,.06-.06a2.23,2.23,0,0,0,0-.45A.11.11,0,0,0,21,18l-.22,0H16.87a.1.1,0,0,0-.09.08,1.69,1.69,0,0,0,0,.45.1.1,0,0,0,.08.08h1.39l.22,0a.1.1,0,0,1,.08.09c0,.11,0,.21,0,.32v2.1C18.58,21.82,18.58,22.54,18.58,23.26Z"/><path class="cls-1" d="M27,23.31c0,.11,0,.2,0,.32s.07.07.1.07h3a.06.06,0,0,0,.06-.05,1.36,1.36,0,0,0,0-.45.06.06,0,0,0,0,0l-.07-.07H27.82a.12.12,0,0,1-.14-.13V18.16c0-.05,0-.1,0-.13s0-.05-.06-.06a2.35,2.35,0,0,0-.53,0S27,18,27,18.06s0,.21,0,.32v2.46C27,21.67,27,22.49,27,23.31Z"/><path class="cls-1" d="M15.93,18.05s0-.05-.07-.07a2.26,2.26,0,0,0-.52,0s-.08.07-.1.08,0,.21,0,.31v5a1.32,1.32,0,0,0,0,.28.07.07,0,0,0,.06,0,2.35,2.35,0,0,0,.53,0h.05a0,0,0,0,0,0,0,.36.36,0,0,0,0-.18V18.27A.4.4,0,0,0,15.93,18.05Z"/><path class="cls-1" d="M47.93,29.86a.15.15,0,0,0,0-.06.29.29,0,0,1-.08,0,.14.14,0,0,0-.16.13v1.56c0,.08,0,.15,0,.23s0,.05-.06.05,0,0,0,0l-.32-.48c-.27-.42-.52-.81-.8-1.23a1.13,1.13,0,0,1-.12-.18l0,0H46a.1.1,0,0,0-.08.08c0,.4,0,.8,0,1.19h0v1.25s.08.1.13.1h0a.12.12,0,0,0,.13-.1V30.85c0-.08,0-.14,0-.22a.1.1,0,0,1,.09-.08h0a1.71,1.71,0,0,1,.29.4l.83,1.26a.81.81,0,0,0,.12.14.12.12,0,0,0,.08,0,.82.82,0,0,0,.22,0,.13.13,0,0,0,.11-.11V29.89S47.93,29.88,47.93,29.86Z"/><path class="cls-1" d="M7.87,31.43v-.28A.11.11,0,0,0,7.76,31H7a.11.11,0,0,0-.08.1v.09a.11.11,0,0,0,.08.1,1.72,1.72,0,0,1,.32,0c.14,0,.18,0,.18.19V32a.15.15,0,0,1-.13.16,1.9,1.9,0,0,1-.63,0,.51.51,0,0,1-.17,0,.67.67,0,0,1-.48-.43A1.3,1.3,0,0,1,6,31.19a1.16,1.16,0,0,1,.08-.48.85.85,0,0,1,.54-.55A1.28,1.28,0,0,1,7,30.1a2,2,0,0,1,.48.06l.18.05s.09,0,.11-.05a.31.31,0,0,0,0-.17.09.09,0,0,0,0-.08.83.83,0,0,0-.34-.1H6.8a1,1,0,0,0-.43.11,1,1,0,0,0-.56.54,1.83,1.83,0,0,0-.16.64,1.51,1.51,0,0,0,.11.66,1.09,1.09,0,0,0,.51.59,1,1,0,0,0,.56.14H7.1a2.13,2.13,0,0,0,.71-.09s.08-.07.08-.1,0-.35,0-.53h0A1.31,1.31,0,0,1,7.87,31.43Z"/><path class="cls-1" d="M2.6,30.44A1.21,1.21,0,0,0,2.28,30a1.29,1.29,0,0,0-.71-.24H.9a.42.42,0,0,0-.22,0s-.05,0-.07.06,0,.08,0,.13v2.19a1,1,0,0,0,0,.17s0,0,.07,0a8.81,8.81,0,0,0,.89,0,1.14,1.14,0,0,0,.51-.13,1,1,0,0,0,.58-.75,2.11,2.11,0,0,0,0-.75A.7.7,0,0,0,2.6,30.44Zm-.28,1a.91.91,0,0,1-.2.39.87.87,0,0,1-.47.25,2.75,2.75,0,0,1-.57,0C1,32.16.92,32.1.92,32v-.94h0c0-.3,0-.62,0-.93A.15.15,0,0,1,1,30.05h.05a4.35,4.35,0,0,1,.5,0,.81.81,0,0,1,.48.21.73.73,0,0,1,.25.41A1.47,1.47,0,0,1,2.32,31.47Z"/><path class="cls-1" d="M51,30a.3.3,0,0,0-.16-.08,1.12,1.12,0,0,0-.48-.1h-.75a.25.25,0,0,0-.13,0s-.05,0-.05.06c0,.4,0,.8,0,1.13v1.27a.13.13,0,0,0,.13.14c.27,0,.52,0,.8,0a1.06,1.06,0,0,0,.35,0,1.13,1.13,0,0,0,.8-.81.61.61,0,0,1,0-.13,1.64,1.64,0,0,0-.07-.93A1.1,1.1,0,0,0,51,30Zm.13,1.51a.86.86,0,0,1-.15.32.72.72,0,0,1-.51.32,3.66,3.66,0,0,1-.57,0h0s-.1-.07-.1-.08v-1h0c0-.3,0-.62,0-.93,0,0,0-.08.08-.09a3.77,3.77,0,0,1,.58,0,.89.89,0,0,1,.44.2.56.56,0,0,1,.21.28A1.41,1.41,0,0,1,51.1,31.47Z"/><path class="cls-1" d="M31.15,32.13H30.3l-.13,0a.09.09,0,0,1-.06-.06,4.69,4.69,0,0,1,0-.75s.06-.08.09-.08a3.31,3.31,0,0,0,.45,0h.45a.12.12,0,0,0,.1-.08.54.54,0,0,1,0-.08.14.14,0,0,0-.08-.1l-.13,0h-.76a.15.15,0,0,1-.12-.11v-.53s0-.06,0-.08.06-.08.1-.08c.28,0,.56,0,.84,0h.13s.05,0,.05-.07v-.08a.11.11,0,0,0-.11-.11H30l-.08,0s-.05,0-.07.06,0,.08,0,.13v1.12h0v1.2a.11.11,0,0,0,.11.11h1.25a.06.06,0,0,0,.05,0s0,0,.06-.06a.15.15,0,0,0,0-.13C31.23,32.16,31.18,32.13,31.15,32.13Z"/><path class="cls-1" d="M23.07,32.16c-.27-.69-.54-1.37-.81-2.08a1.28,1.28,0,0,0-.11-.24s0,0-.07,0a.25.25,0,0,0-.12,0,.15.15,0,0,0-.15.08.6.6,0,0,1-.08.16c-.16.42-.32.83-.49,1.25s-.28.68-.4,1c0,0,0,.09.06.11H21a.19.19,0,0,0,.21-.12c.06-.18.14-.37.21-.55a.2.2,0,0,1,.06-.11s.05,0,.08,0h.85a.13.13,0,0,1,.12.11c.07.18.15.36.21.55a.21.21,0,0,0,.07.11s0,0,.06.05H23c.12,0,.15-.06.12-.17S23.09,32.19,23.07,32.16Zm-.75-.88,0,0H21.7a.09.09,0,0,1-.08-.08,1.21,1.21,0,0,1,.05-.18c.08-.22.16-.44.25-.67,0,0,0-.05,0,0l0,0,0,0,.28.79S22.34,31.25,22.32,31.28Z"/><path class="cls-1" d="M25.41,31.12,25,31l-.26-.1-.07,0a.52.52,0,0,1-.26-.3.15.15,0,0,1,0-.13.34.34,0,0,1,.18-.24.44.44,0,0,1,.25-.08,1.32,1.32,0,0,1,.48.06l.13,0c.05,0,.11,0,.14-.09a.26.26,0,0,0,0-.08.09.09,0,0,0,0-.11,1.12,1.12,0,0,0-.31-.1,3.21,3.21,0,0,0-.62,0,.49.49,0,0,0-.29.11.62.62,0,0,0-.29.39.69.69,0,0,0,0,.35.13.13,0,0,1,0,.08.75.75,0,0,0,.24.32,1.66,1.66,0,0,0,.4.2l.33.13a.56.56,0,0,1,.21.16.48.48,0,0,1,.08.16v.13a.23.23,0,0,1-.09.19.36.36,0,0,1-.2.11.53.53,0,0,1-.17,0,2.26,2.26,0,0,1-.45,0l-.35-.08s-.05,0-.06.05a.3.3,0,0,0,0,.13.15.15,0,0,0,.1.14.81.81,0,0,0,.43.08H25a.8.8,0,0,0,.52-.21.5.5,0,0,0,.12-.13.78.78,0,0,0,.09-.24A.61.61,0,0,0,25.41,31.12Z"/><path class="cls-1" d="M28.17,31.14a2.93,2.93,0,0,0-.4-.19l-.28-.13a.47.47,0,0,1-.26-.34v-.09a.32.32,0,0,1,.18-.24.46.46,0,0,1,.25-.08,1.32,1.32,0,0,1,.48.06l.13,0c.05,0,.11,0,.14-.08a.59.59,0,0,0,0-.08.12.12,0,0,0-.05-.11.8.8,0,0,0-.31-.09,5.43,5.43,0,0,0-.57,0,.66.66,0,0,0-.37.13.63.63,0,0,0-.27.57.82.82,0,0,0,.06.26.83.83,0,0,0,.18.25,1.83,1.83,0,0,0,.38.23c.1.05.19.06.29.11l.16.08.14.11a.37.37,0,0,1-.14.59.71.71,0,0,1-.22,0,1.35,1.35,0,0,1-.45,0c-.11,0-.24,0-.35-.08l-.07,0s0,.12,0,.18a.12.12,0,0,0,.08.1,1.57,1.57,0,0,0,.43.09h.4a.8.8,0,0,0,.53-.21l.09-.09a.52.52,0,0,0,.13-.32A.61.61,0,0,0,28.17,31.14Z"/><path class="cls-1" d="M36.54,31.15c-.1,0-.18-.09-.28-.14l-.36-.16a1,1,0,0,1-.2-.11.57.57,0,0,1-.16-.26.16.16,0,0,1,0-.12.43.43,0,0,1,.32-.28,1,1,0,0,1,.53,0,.4.4,0,0,0,.22,0,.1.1,0,0,0,.08,0,.6.6,0,0,0,.06-.11.08.08,0,0,0,0-.11.84.84,0,0,0-.33-.1,2.81,2.81,0,0,0-.58,0,.73.73,0,0,0-.43.21.64.64,0,0,0-.14.22.54.54,0,0,0,0,.43.07.07,0,0,0,0,.05.53.53,0,0,0,.23.32,1.69,1.69,0,0,0,.4.21,1.62,1.62,0,0,1,.28.11.79.79,0,0,1,.23.14.3.3,0,0,1,.11.28.37.37,0,0,1-.24.35,1.19,1.19,0,0,1-.22,0,1.68,1.68,0,0,1-.45,0,2.14,2.14,0,0,0-.35-.06s-.07,0-.07,0a.22.22,0,0,0,0,.18.12.12,0,0,0,.08.1,1.07,1.07,0,0,0,.43.09h.4a.9.9,0,0,0,.49-.17.81.81,0,0,0,.16-.16.86.86,0,0,0,.13-.39A.76.76,0,0,0,36.54,31.15Z"/><path class="cls-1" d="M15.29,31.22h0c-.13-.32-.24-.64-.37-1-.05-.14-.11-.27-.17-.42a.13.13,0,0,0-.12-.06h-.12a.11.11,0,0,0-.1.08c-.21.53-.42,1.05-.62,1.57l-.34.86s0,.1.06.11a.28.28,0,0,0,.18,0,.12.12,0,0,0,.1-.08c.06-.16.12-.33.19-.49l.09-.2s0,0,.07,0H15a.15.15,0,0,1,.11.06c.05.1.08.19.12.29s.1.29.18.41,0,0,.06,0a.58.58,0,0,0,.18,0c.06,0,.11-.07.08-.13Zm-.43.08h-.55a.19.19,0,0,1-.08,0,.25.25,0,0,1,0-.08.31.31,0,0,1,0-.13c.08-.23.18-.45.26-.67,0,0,0-.05.06,0a.09.09,0,0,1,.06.06c.1.26.2.49.28.75C15,31.23,14.92,31.3,14.86,31.3Z"/><path class="cls-1" d="M44.45,30.76h0v-.85a.14.14,0,0,0-.15-.13h0c-.1,0-.15,0-.15.13V31.6a.53.53,0,0,1-.13.34.45.45,0,0,1-.25.17.91.91,0,0,1-.61,0,.2.2,0,0,1-.11-.06.57.57,0,0,1-.24-.42V29.89c0-.05-.06-.09-.13-.11h-.09s0,0,0,0-.08.06-.08.09v1.74a.9.9,0,0,0,.13.42.56.56,0,0,0,.32.3.77.77,0,0,0,.43.12h.35l.13,0a1,1,0,0,0,.51-.34.3.3,0,0,0,.06-.11,1.24,1.24,0,0,0,.11-.43C44.45,31.3,44.45,31,44.45,30.76Z"/><path class="cls-1" d="M41.24,29.8c-.23,0-.45,0-.64,0h-.26a3.46,3.46,0,0,0-.45,0s-.08.06-.08.09v2.32a.25.25,0,0,0,0,.13.06.06,0,0,0,.05.06.2.2,0,0,0,.2,0s.05,0,.05-.07c0-.25,0-.51,0-.75s0-.26.24-.26h.77a.11.11,0,0,0,.08-.1v-.09a.11.11,0,0,0-.08-.1c-.21,0-.42,0-.63,0h-.27a.11.11,0,0,1-.1-.08,5,5,0,0,1,0-.67.49.49,0,0,1,0-.13s0,0,0-.05h0l.18,0h.72a.27.27,0,0,0,.13,0s0,0,0-.06v-.13S41.27,29.8,41.24,29.8Z"/><path class="cls-1" d="M34.11,29.8H32.38c-.08,0-.13,0-.15.14s0,.13.1.13h.58l.08,0a.11.11,0,0,1,.08.1c0,.35,0,.71,0,.94v1.2s.07.09.13.09h.1a.14.14,0,0,0,.09-.08c0-.08,0-.14,0-.22V30.34a1.15,1.15,0,0,1,0-.18.2.2,0,0,1,.07-.06.3.3,0,0,1,.13,0,3,3,0,0,0,.52,0s.08-.07.08-.1v0A.12.12,0,0,0,34.11,29.8Z"/><path class="cls-1" d="M12.52,29.8H10.78c-.08,0-.11,0-.11.16a.11.11,0,0,0,.11.11h.62s.1.05.1.08,0,.08,0,.13v1h0v.94a.49.49,0,0,0,0,.13s0,0,.05.07.08,0,.13,0a.11.11,0,0,0,.11-.11V30.42a1.18,1.18,0,0,1,0-.27s0-.1.08-.1h.62c.06,0,.1-.05.1-.13v-.05S12.59,29.8,12.52,29.8Z"/><path class="cls-1" d="M18.25,32.15a2.05,2.05,0,0,0-.5,0,4.1,4.1,0,0,1-.49,0s-.08-.06-.08-.08V29.89c0-.06-.05-.09-.12-.11h0s-.07,0-.08,0-.08.06-.08.08c0,.41,0,.83,0,1.24h0v1a.5.5,0,0,0,0,.17s.06.08.08.1h1.29l.05,0s.08-.06.08-.09v-.1S18.28,32.15,18.25,32.15Z"/><path class="cls-1" d="M4.35,29.88s-.06-.08-.09-.08-.1,0-.13,0a.1.1,0,0,0-.11.11v2.36s0,.07,0,.08a.16.16,0,0,0,.07.07h.13a.14.14,0,0,0,.14-.14v-1.2h0v-1C4.37,30,4.35,29.94,4.35,29.88Z"/><path class="cls-1" d="M9.57,30a.52.52,0,0,0,0-.18s0-.05-.05-.06-.11,0-.17,0-.1,0-.1.08v2.45a.1.1,0,0,0,.08.09.28.28,0,0,0,.18,0,.12.12,0,0,0,.08-.09c0-.4,0-.8,0-1.2h0C9.57,30.76,9.57,30.4,9.57,30Z"/></g></g></svg>