<svg xmlns="http://www.w3.org/2000/svg" viewBox="0 0 62.85 64"><defs><style>.cls-1{fill:#fff;}</style></defs><g id="Layer_2" data-name="Layer 2"><g id="Capa_1" data-name="Capa 1"><path class="cls-1" d="M28.38,1.86C19.9,8.47,18.27,9.8,18.21,10.16c0,.19-.1,5.42-.18,11.61-.14,12.29-.13,11.77-.24,11.82a17.61,17.61,0,0,1-1.66-1.06l-1.57-1.08.07-1.62c0-.9.12-2.47.19-3.52s.16-2.9.23-4.13.17-3.07.23-4.08.15-2.59.19-3.51l.08-1.66-.68-.46L14.19,12,8.35,12A57.2,57.2,0,0,0,2.53,12c0,.1-.2,2-.58,5.54-.3,2.75-.35,3.37-.46,4.4-.05.59-.16,1.6-.23,2.24-.12,1.25-.56,5.47-.92,9C.22,34.44.09,35.69.06,36L0,36.52l3.13,2.8C4.85,40.86,6.73,42.54,7.3,43l1.09,1c.06.07,4.65,4.17,12.92,11.53l1.5,1.35c1.69,1.54,8,7.11,8,7.11S30.92.14,30.83.08A22.85,22.85,0,0,0,28.38,1.86Z"/><path class="cls-1" d="M31.94,32c0,25.57,0,32,.15,31.92s.35-.29.6-.52L35.5,60.9,38.78,58l3.62-3.22,3.16-2.83,6-5.33C61.69,37.54,62.85,36.5,62.85,36.4s0-.45-.1-.87-.16-1.37-.24-2.09-.18-1.74-.23-2.24-.16-1.44-.23-2.07c-.13-1.21-.44-4-.53-4.82,0-.26-.31-2.87-.62-5.81s-.6-5.62-.65-5.95l0-.6H48.94l-.87.6-.85.61.06.57c0,.31.12,1.59.17,2.82.12,2.26.17,3.17.58,10.36.13,2.21.23,4.12.23,4.26s-.31.5-1.62,1.39c-.9.61-1.64,1.09-1.66,1.08s-.09-4.46-.16-9.86-.16-10.75-.19-11.9l-.07-2.07-.7-.57L41.54,7.38c-2-1.62-1.74-1.41-3.22-2.57C36.08,3.07,32.06,0,32,0S31.94,14.41,31.94,32Z"/></g></g></svg>