<svg xmlns="http://www.w3.org/2000/svg" viewBox="0 0 64 43.18"><defs><style>.cls-1{fill:#fff;}</style></defs><g id="Layer_2" data-name="Layer 2"><g id="Capa_1" data-name="Capa 1"><path class="cls-1" d="M30.59.05A21.65,21.65,0,0,0,17.26,5.78,14.79,14.79,0,0,0,15.3,8c0,.23.21.06.86-.67a21.5,21.5,0,0,1,13-6.87,27,27,0,0,1,5.54,0A22.94,22.94,0,0,1,42,2.73a22.43,22.43,0,0,1,6.08,4.85c.38.42.52.54.59.46s-.38-.7-1.75-2a20.4,20.4,0,0,0-5.44-3.8A19.63,19.63,0,0,0,37.38.69,22.15,22.15,0,0,0,30.59.05Z"/><path class="cls-1" d="M32.2,8.94a2.54,2.54,0,0,0-1.7,1.56c-.19.45-.19.47-.19,4.79v4.33l.2.48A2.66,2.66,0,0,0,32,21.56a4,4,0,0,0,1.32.15,2.39,2.39,0,0,0,1.33-.21,2.18,2.18,0,0,0,1.15-1,5.18,5.18,0,0,0,.46-2.56V16.84l-.94,0-1,0,0,1.21c0,1.25-.1,1.45-.42,1.68a1.49,1.49,0,0,1-1.17,0c-.42-.29-.42-.29-.42-4.52V11.34l.19-.28a1.09,1.09,0,0,1,.49-.38,1,1,0,0,1,1.14.38c.17.25.19.37.19,1.22v1h2l-.05-1.11a3.67,3.67,0,0,0-.59-2.3,2.73,2.73,0,0,0-2.39-1A4.43,4.43,0,0,0,32.2,8.94Z"/><path class="cls-1" d="M0,15.28v6.31H1.93V19.24l0-2.35.88-.05a7.58,7.58,0,0,0,1.21-.13,2.61,2.61,0,0,0,1.31-1c.43-.67.51-1.18.48-3.05a5.74,5.74,0,0,0-.21-2.11A2.43,2.43,0,0,0,4.43,9.25L4,9,2,9,0,9ZM3.59,11l.22.22,0,1.57c0,2.11,0,2.22-1.23,2.24H2l0-2.05c0-1.13,0-2.1,0-2.15s.2-.11.72-.09S3.39,10.81,3.59,11Z"/><path class="cls-1" d="M8.55,9.24c-.05.34-2,12.29-2,12.33s.42,0,.93,0a2.29,2.29,0,0,0,.92-.08c0-.11.23-1.68.29-2l0-.23,1.21,0,1.22,0,.16,1.1.16,1.11h2l-1-6.3L11.52,9H8.6Zm1.88,5.14c.24,1.61.45,3,.47,3s0,.15-.94.15-1,0-.94-.15.23-1.44.47-3,.44-2.92.47-2.92S10.2,12.78,10.43,14.38Z"/><path class="cls-1" d="M14.94,15.28v6.31h1.92l0-2.55,0-2.55h.62c.5,0,.66,0,.84.17.44.32.46.47.52,2.6,0,1.09.08,2,.11,2.15s.09.18,1.09.18h1L21,21.17a10.31,10.31,0,0,1-.11-2,16.66,16.66,0,0,0-.09-2.05,2.29,2.29,0,0,0-.85-1.43l-.35-.22.32-.22c.73-.47,1-1.46.94-3.21s-.37-2.29-1.32-2.75L19.07,9,17,9,14.94,9ZM18.47,11c.33.29.4.61.4,1.74,0,1.61-.22,1.93-1.34,2H16.9l0-1.84c0-1,0-1.9,0-2S18.24,10.74,18.47,11Z"/><path class="cls-1" d="M23.13,15.26l-1,6.29.88,0a2.57,2.57,0,0,0,.93-.05c0-.05.11-.56.19-1.13l.16-1.05h2.44l.13.9c.07.5.16,1,.18,1.13l0,.22h2l0-.26C29,21,27.06,9,27.06,9s-.66,0-1.47,0H24.13ZM26,14.43c.25,1.64.45,3,.45,3.07a2.59,2.59,0,0,1-.92.08c-.74,0-.93,0-.93-.12s.2-1.43.44-3.05.45-3,.45-3,0,0,0,0S25.73,12.78,26,14.43Z"/><path class="cls-1" d="M37.82,15.29v6.3h2V16.21h2.25v5.38h2.09V9H42.08v5.38H39.83V9h-2Z"/><path class="cls-1" d="M47.5,9.16c0,.23-2,12.26-2,12.36a3,3,0,0,0,.91.07h.91l.15-1c.08-.56.16-1.07.17-1.12s.36-.1,1.23-.1c1.07,0,1.2,0,1.23.14s.11.58.19,1.12l.13,1h1c.89,0,1,0,1-.14s-.45-2.9-1-6.28L50.46,9,49,9,47.54,9Zm1.89,5.35.44,3-.91,0c-.51,0-.93,0-1,0s.19-1.41.44-3.09.47-3.05.49-3S49.14,12.84,49.39,14.51Z"/><path class="cls-1" d="M53.88,15.29v6.3h1.93V9H53.88Z"/><path class="cls-1" d="M57.74,15.29v6.3H59.5V17.11c0-2.46,0-4.42.06-4.35s.58,2.07,1.22,4.45L62,21.55l1,0,1,0V9H62.23v3.66l0,3.64L61.31,13c-.48-1.79-.92-3.43-1-3.65L60.21,9H57.74Z"/><path class="cls-1" d="M56.72,21.83c-1.34.28-2,1.43-1.94,3.22.07,1.33.55,2,2.32,3.21a6.39,6.39,0,0,1,2.22,2.07,2.17,2.17,0,0,1,.22,1.26A2.65,2.65,0,0,1,59,33.53a2.37,2.37,0,0,1-3.15.16,2.58,2.58,0,0,1-.74-2c0-.76-.05-.8-.22-.83s-.18,0-.18.6a4.81,4.81,0,0,0,.39,1.94,2.44,2.44,0,0,0,1.3,1.09,3.9,3.9,0,0,0,1.89,0,2.54,2.54,0,0,0,1.38-1.22,4,4,0,0,0,0-3.12c-.34-.7-.8-1.14-2.17-2.09s-1.92-1.51-2.17-2.18a2.56,2.56,0,0,1-.15-1.27c.08-1.56.71-2.33,2-2.43a2.06,2.06,0,0,1,2,1,5.42,5.42,0,0,1,.35,1.62c0,.27,0,.3.2.3s.2,0,.2-.26a4.69,4.69,0,0,0-.4-1.8A2.1,2.1,0,0,0,58.38,22,3.91,3.91,0,0,0,56.72,21.83Z"/><path class="cls-1" d="M4,21.93C4,22,6.72,33.17,7,34.21c.08.28.1.31.39.31h.3l1.5-6.25c.83-3.44,1.5-6.29,1.5-6.35s-.07-.09-.18-.07-.27.4-1.63,6c-.81,3.3-1.47,6-1.5,6s-2-8.15-2.81-11.43c-.14-.6-.18-.66-.35-.66S4,21.87,4,21.93Z"/><path class="cls-1" d="M12.58,21.89s-.05,2.88-.05,6.34v6.29h4.82v-.4H12.93V31.2l0-2.9,1.87,0c1.79,0,1.86,0,1.86-.18s-.07-.16-1.86-.17l-1.87,0V22.27l2.19,0,2.19,0v-.4H15C13.69,21.83,12.61,21.86,12.58,21.89Z"/><path class="cls-1" d="M19.27,28.18c0,6.28,0,6.34.16,6.34s.16-.06.16-6c0-3.27,0-5.93.07-5.9s1.05,2.69,2.26,5.94l2.21,5.91h.52V21.83h-.4l0,5.87,0,5.88L22,27.7l-2.2-5.87h-.53Z"/><path class="cls-1" d="M26.18,22v.2h2.73V34.52h.4V22.23H32v-.4H26.18Z"/><path class="cls-1" d="M33.6,21.94c0,.07,0,2.42,0,5.24,0,5.06,0,5.14.21,5.67a2.44,2.44,0,0,0,1.14,1.46,1.92,1.92,0,0,0,1.29.25,1.91,1.91,0,0,0,1.28-.25,2.37,2.37,0,0,0,1.14-1.5c.19-.58.19-.6.19-5.76V21.87l-.18,0-.18,0,0,5.25c0,5.81,0,5.7-.57,6.42a1.88,1.88,0,0,1-1.66.74,2,2,0,0,1-2-1.5C34,32.25,34,32.07,34,27s0-5.2-.18-5.2A.22.22,0,0,0,33.6,21.94Z"/><path class="cls-1" d="M40.71,28.17v6.35h.4V28.63l1.23.05c1.44.05,1.93.18,2.4.6s.65.77.71,2.91.1,2.33.5,2.33h.23L46,34.25a5.74,5.74,0,0,1-.2-2.1c0-1.82-.08-2.1-.33-2.59a2.45,2.45,0,0,0-1.18-.94c-.3-.09-.34-.12-.2-.16a2.42,2.42,0,0,0,.95-.53c.62-.54.82-1.37.75-3.09a3.07,3.07,0,0,0-.73-2.33c-.54-.53-.88-.61-2.76-.65l-1.63-.05Zm3.5-5.75c1,.42,1.3,1.31,1.22,3.26a3.57,3.57,0,0,1-.22,1.44c-.39.89-.94,1.13-2.83,1.19l-1.27.05V22.22l1.39,0A5,5,0,0,1,44.21,22.42Z"/><path class="cls-1" d="M48,28.18v6.34h4.82v-.4H48.42l0-2.92,0-2.9,1.83,0c1.76,0,1.83,0,1.83-.18s-.06-.16-1.85-.16H48.42v-5.7h4.42v-.4H48Z"/><path class="cls-1" d="M15.12,34.93c-.22.22,2.14,2.64,3.77,3.87A21.37,21.37,0,0,0,28.8,43a28.93,28.93,0,0,0,5.6.09,21.43,21.43,0,0,0,12.48-5.79,16.23,16.23,0,0,0,2-2.28c0-.23-.25,0-.74.54a23.7,23.7,0,0,1-3.34,3.12,21.1,21.1,0,0,1-9.7,4.09,31,31,0,0,1-5.22.12,21.84,21.84,0,0,1-11.51-4.81,31.92,31.92,0,0,1-2.85-2.85C15.29,34.92,15.19,34.86,15.12,34.93Z"/></g></g></svg>