<svg xmlns="http://www.w3.org/2000/svg" viewBox="0 0 64 18.13"><defs><style>.cls-1{fill:#fff;}</style></defs><g id="Layer_2" data-name="Layer 2"><g id="Capa_1" data-name="Capa 1"><path class="cls-1" d="M49.85,7v7h2.51V0H49.85Z"/><path class="cls-1" d="M0,3.07s.4,1,.89,2.17.86,2.15.84,2.17a2.67,2.67,0,0,1-.84-.24A3.34,3.34,0,0,0,0,6.94C0,7,4.59,14.58,4.75,14.68a9.79,9.79,0,0,0,1.65.09c1.29,0,1.56,0,1.67-.17.27-.31,4.7-7.64,4.65-7.68a4.56,4.56,0,0,0-.83.25A2.59,2.59,0,0,1,11,7.4a19,19,0,0,1,.84-2.17c.48-1.18.87-2.15.84-2.17s-.8.24-1.77.56l-1.72.61L8.06,7.11C7.44,8.69,6.93,10,7,10a2.6,2.6,0,0,0,.78-.22,2.08,2.08,0,0,1,.77-.2A27.06,27.06,0,0,1,6.4,13.17a26.32,26.32,0,0,1-2.18-3.6A3.53,3.53,0,0,1,5,9.79a3.91,3.91,0,0,0,.79.24c.09,0-2.09-5.57-2.26-5.74A25.82,25.82,0,0,0,0,3.07Z"/><path class="cls-1" d="M43.35,4a2.93,2.93,0,0,0-1.7.93c-.55.62-.7.58-.7-.2V4.08H38.44V14h2.5L41,11c0-3.42.06-3.54.79-4.29A2.12,2.12,0,0,1,43.54,6a1.87,1.87,0,0,1,1.78,1c.24.45.24.51.24,3.75V14h2.63l0-3.54c0-3.35,0-3.56-.27-4.1a3.68,3.68,0,0,0-2.2-2.23A5.28,5.28,0,0,0,43.35,4Z"/><path class="cls-1" d="M18,9l1.59,5,2.06,0,2,0,.11-.33,1.57-4.93c.82-2.52,1.48-4.6,1.48-4.63a8,8,0,0,0-1.34-.06H24.13l-1,3.59-1.18,4.09c-.29,1-.41.79-1.67-3.59l-1.16-4-1.36,0-1.36,0Z"/><path class="cls-1" d="M31,4.25a5.38,5.38,0,0,0-3.41,2.8,5.1,5.1,0,0,0,3.29,7,4.85,4.85,0,0,0,5.43-2.38l.29-.56-1.26,0-1.25,0-.48.35a1.9,1.9,0,0,1-1.31.38,2,2,0,0,1-2.11-.91,2,2,0,0,1-.3-.62c0-.1.68-.13,3.44-.13h3.45l.06-.33a5,5,0,0,0-2.57-5.22A4.62,4.62,0,0,0,31,4.25Zm2.11,2.41a2.3,2.3,0,0,1,1.32,1.48l.08.24H29.64L29.8,8A2.2,2.2,0,0,1,32,6.49,3.37,3.37,0,0,1,33.07,6.66Z"/><path class="cls-1" d="M54.25,7.4c0,1.84,0,3.53.1,3.79a4,4,0,0,0,2.26,2.74,3.67,3.67,0,0,0,1.62.25,2.89,2.89,0,0,0,2.5-.94c.68-.78.75-.68.75.94,0,1.34,0,1.42-.23,1.57s-.67.17-3,.17H55.4v2.21l3.54,0,3.53,0,.45-.27a2,2,0,0,0,.73-.73l.29-.47,0-6.26,0-6.26H61.5l-.06,3c0,3.08-.08,3.42-.52,4.07a2.49,2.49,0,0,1-3.48.49c-.61-.53-.68-.95-.68-4.45V4.08H54.25Z"/></g></g></svg>