<svg xmlns="http://www.w3.org/2000/svg" viewBox="0 0 64 56.9"><defs><style>.cls-1{fill:#fff;}</style></defs><g id="Layer_2" data-name="Layer 2"><g id="Capa_1" data-name="Capa 1"><path class="cls-1" d="M23.5,26.22a40.48,40.48,0,0,1,8.15-10.44.36.36,0,0,1,.41-.1,8,8,0,0,0,3.67.3,7.39,7.39,0,0,0,4.81-2.72,8.09,8.09,0,0,0,1.83-5.95A8,8,0,0,0,35.28.06h0V0H33.55V.06l-.64.1a8,8,0,0,0-6.49,7.38,7.7,7.7,0,0,0,.76,3.92.64.64,0,0,1,0,.6,20.27,20.27,0,0,1-8.86,10.18.59.59,0,0,1-.45.06,7.88,7.88,0,0,0-3.35,0,8,8,0,0,0-6.3,8.65,7.73,7.73,0,0,0,2.37,4.9,7.76,7.76,0,0,0,7.45,2,7.94,7.94,0,0,0,6.13-7.71,7.44,7.44,0,0,0-.73-3.38A.6.6,0,0,1,23.5,26.22ZM35,.08h0Z"/><path class="cls-1" d="M7.74,52.74C7,51.1,6.32,49.47,5.6,47.84a.29.29,0,0,0-.32-.22c-.34,0-.67,0-1,0-.19,0-.27.06-.35.22C3.46,48.93,3,50,2.5,51.1,1.73,52.9.94,54.69.16,56.48c0,.08,0,.21-.16.24v.05c.48,0,.94,0,1.42,0a.34.34,0,0,0,.37-.24c.23-.58.5-1.14.72-1.73.07-.18.16-.22.35-.22,1.25,0,2.52,0,3.76,0,.34,0,.26,0,.4.27.26.57.5,1.17.74,1.74,0,.1.08.18.21.18h1.5c0-.11-.05-.19-.08-.27C8.85,55.23,8.29,54,7.74,52.74Zm-4.52.41c.24-.62.51-1.2.75-1.79s.49-1.17.78-1.82c.53,1.23,1,2.4,1.57,3.61Z"/><path class="cls-1" d="M43.22,52.16a2.9,2.9,0,0,0-.53-.26,10,10,0,0,0-1-.33c-.46-.13-.94-.23-1.39-.39a2.1,2.1,0,0,1-.67-.33.88.88,0,0,1-.36-.61A1.05,1.05,0,0,1,40,49.07a2.5,2.5,0,0,1,.91-.09,4.19,4.19,0,0,1,2,.73.87.87,0,0,0,.31.18c.25-.35.49-.72.75-1.07.08-.12.05-.16,0-.23a4.93,4.93,0,0,0-4.19-.91,2.5,2.5,0,0,0-2,2.26,2.21,2.21,0,0,0,1.25,2.4,4.76,4.76,0,0,0,.91.35c.54.16,1.09.29,1.63.45a3.15,3.15,0,0,1,.85.36,1,1,0,0,1,.42.58,1,1,0,0,1-.58,1.18,1.81,1.81,0,0,1-.88.21,3.88,3.88,0,0,1-2.5-.8c-.16-.11-.32-.24-.49-.38-.31.35-.59.7-.88,1.05,0,.07,0,.12,0,.16l.13.12a5.6,5.6,0,0,0,2.63,1.2h0v0h1.66a.87.87,0,0,1,.38-.11,2.56,2.56,0,0,0,2.1-2.4A2.19,2.19,0,0,0,43.22,52.16Z"/><path class="cls-1" d="M63.87,53.2a2.29,2.29,0,0,0-1-1.1,5.49,5.49,0,0,0-1.22-.47c-.53-.16-1.07-.25-1.58-.45a2.37,2.37,0,0,1-.69-.35.88.88,0,0,1-.35-.64,1,1,0,0,1,.76-1.12,2.18,2.18,0,0,1,.92-.09,3.84,3.84,0,0,1,1.79.62c.14.1.29.19.46.29l.83-1.17a.15.15,0,0,0,0-.06,4.89,4.89,0,0,0-4.31-1,2.5,2.5,0,0,0-2,2.28,2.23,2.23,0,0,0,1.25,2.36,3.72,3.72,0,0,0,.91.35c.55.16,1.09.29,1.63.45a3.15,3.15,0,0,1,.85.36.83.83,0,0,1,.4.55,1.05,1.05,0,0,1-.53,1.2,1.91,1.91,0,0,1-.91.22,3.68,3.68,0,0,1-2.19-.59c-.27-.18-.53-.37-.8-.58-.29.34-.56.66-.83,1-.13.14-.13.16,0,.28a5.32,5.32,0,0,0,2.42,1.2c.11,0,.24,0,.32.12h1.5a2.81,2.81,0,0,1,.48-.12,2.64,2.64,0,0,0,1.89-1.45c.09-.19.11-.42.19-.61V53.6C63.9,53.47,63.92,53.33,63.87,53.2Z"/><path class="cls-1" d="M51,28.54a4.71,4.71,0,0,0-4.69,4.8,4.79,4.79,0,1,0,9.57,0A4.67,4.67,0,0,0,54.5,30,4.79,4.79,0,0,0,51,28.54Z"/><path class="cls-1" d="M32,55.33H27.41c-.26,0-.24,0-.24-.24v-2c0-.14,0-.2.17-.19h4.23c.09,0,.13,0,.13-.13V51.62c0-.12-.05-.15-.15-.15H27.39c-.24,0-.25,0-.24-.24V49.28c0-.11,0-.16.15-.14H32c.24,0,.24,0,.24-.24V48c0-.35,0-.32-.32-.32H25.7c-.13,0-.16,0-.16.16v8.8c0,.06,0,.11.09.1h6.48c.19,0,.21,0,.21-.2v-.89C32.37,55.26,32.42,55.33,32,55.33Z"/><path class="cls-1" d="M34.83,30.24a3.08,3.08,0,0,0-3.12,3.12,3.12,3.12,0,1,0,6.24,0A3.08,3.08,0,0,0,34.83,30.24Z"/><path class="cls-1" d="M42.94,18.9A3.13,3.13,0,1,0,46.06,22,3.11,3.11,0,0,0,42.94,18.9Z"/><path class="cls-1" d="M20.14,47.68h-7c-.24,0-.26,0-.26.24v1c0,.24,0,.24.24.24h2.43c.21,0,.21,0,.23.21v7.24c0,.1,0,.13.12.13h1.35c.09,0,.13,0,.13-.13V49.41c0-.24,0-.24.24-.24h2.51c.08,0,.13,0,.13-.11V47.81C20.26,47.73,20.22,47.68,20.14,47.68Z"/><path class="cls-1" d="M51.55,56.43V48c0-.29,0-.27-.27-.27h-1c-.35,0-.32,0-.32.32v8.64c0,.09,0,.12.13.12h1.31c.11,0,.16,0,.15-.14S51.55,56.5,51.55,56.43Z"/></g></g></svg>