<svg xmlns="http://www.w3.org/2000/svg" viewBox="0 0 64 63.83"><defs><style>.cls-1{fill:#fff;fill-rule:evenodd;}</style></defs><g id="Layer_2" data-name="Layer 2"><g id="Capa_1" data-name="Capa 1"><path class="cls-1" d="M31.16,45.25,17.82,40.86,9.7,29.58v-14L17.91,4.39,31.16,0,44.69,4.48l8,11.19v14L44.5,41ZM29.76,44l-8.21-7.65L18.47,40.3ZM18.19,40.12l3.08-3.92L11,30.14Zm12.69,4.29V36.85l-9-.56Zm-.65-7.84L18,27.9,21.55,36Zm-12.78-9-6.72,2.06,10.35,6.25Zm13.62,9V22.86L18,27.15Zm-.19-13.9L23,11.66l-5,15.21ZM17.17,27.06l-1.78-8.77L10.45,28.92Zm-1.59-9.24,6.62-6.06L17.45,26.5Zm-.28,0-4.85-1.68V27.9Zm-4.76-2,7-9.61L15.39,17.54Zm5.13,1.4,6.72-6.06L18.1,5.32ZM18.56,4.94l12.13,1.5L23,10.92Zm.84-.28L31.07.93V6.25Zm12-3.73L43.1,4.76,31.35,6.16ZM43.85,5,31.63,6.44l8,4.48ZM39,10.92,31.25,6.53,23.7,10.92ZM44.32,5.5,40,11.2l6.91,6.34Zm.37.66v.07c.23,1,2.6,11.31,2.6,11.31L52,16Zm2.7,11.66L52,16.23v12ZM52,29.39,47.11,18l-1.86,9Zm-7-2.71,1.86-8.86L40.3,12ZM51.78,30l-6.91-2.61-3.54,8.58Zm-.47.56-10,5.78L44,40.21ZM43.85,40.4l-2.8-3.92-9,7.74ZM31.53,44.32V37l9.24-.75Zm.66-7.75L44.32,27.8,41.05,36Zm-.75-13.71,12.88,4.2-13,9.51Zm8.21-11.1,4.76,14.92-12.88-4.1Zm-16.42-.28H39.37l-8.12,11Z"/><path id="METRIX.CAPITAL" class="cls-1" d="M0,58.3v5.45H1.31V62.48l-.12-2.61,1.32,3.88h.87l1.31-3.88-.12,2.61v1.27H5.88V58.3H4.16L2.94,62.09,1.73,58.3Zm10.56,2.16H8.49V59.32h2.45v-1H7.18v5.45h3.75v-1H8.49v-1.3h2.07Zm5.72-2.16H11.73v1h1.6v4.43h1.32V59.32h1.63v-1Zm4,5.45h1.41v-.06l-1.14-2.2a1.51,1.51,0,0,0,.72-.6A1.64,1.64,0,0,0,21.5,60,1.47,1.47,0,0,0,21,58.73a2.39,2.39,0,0,0-1.52-.43H17.3v5.45h1.31V61.82h.71Zm-1.67-4.44h.83a.76.76,0,0,1,.56.2.71.71,0,0,1,.19.56.75.75,0,0,1-.18.55.77.77,0,0,1-.57.19h-.83Zm5.55-1H22.85v5.45h1.31V58.3Zm2.58,0h-1.5L26.76,61,25.2,63.75h1.51l.92-1.84.91,1.84h1.52L28.5,61,30,58.3h-1.5l-.89,1.81Zm4.73,5.4a.29.29,0,0,0,.23.08.3.3,0,0,0,.24-.08.31.31,0,0,0,0-.44.3.3,0,0,0-.24-.09.29.29,0,0,0-.23.09.34.34,0,0,0,0,.44Zm5.44-1.65a1.7,1.7,0,0,1-.45,1,1.55,1.55,0,0,1-1.09.35,1.39,1.39,0,0,1-1.16-.57,2.37,2.37,0,0,1-.43-1.5V60.7a2.42,2.42,0,0,1,.44-1.53,1.42,1.42,0,0,1,1.18-.55A1.38,1.38,0,0,1,36.91,60h.47a2,2,0,0,0-.59-1.3,2.24,2.24,0,0,0-2.49-.17,2,2,0,0,0-.73.87,3.13,3.13,0,0,0-.25,1.29v.7a2.92,2.92,0,0,0,.26,1.27,1.92,1.92,0,0,0,1.79,1.17,2.06,2.06,0,0,0,1.39-.46,2,2,0,0,0,.62-1.32Zm5.4,1.7h.48L40.73,58.3h-.44l-2.07,5.45h.49l.56-1.53h2.47ZM40.5,58.86l1.1,3H39.41Zm5.24,2.67a2,2,0,0,0,1.37-.42,1.47,1.47,0,0,0,.48-1.18,1.48,1.48,0,0,0-.5-1.19,1.93,1.93,0,0,0-1.34-.44H43.9v5.45h.46V61.53Zm-1.38-2.84h1.42a1.47,1.47,0,0,1,1,.34,1.26,1.26,0,0,1,.35.9,1.12,1.12,0,0,1-.36.89,1.42,1.42,0,0,1-1,.32H44.36Zm5.12-.39H49v5.45h.46V58.3Zm5.38,0H50.67v.39h1.86v5.06H53V58.69h1.87Zm4.4,5.45h.48L57.67,58.3h-.43l-2.07,5.45h.49l.56-1.53h2.47Zm-1.81-4.89,1.1,3H56.36Zm3.86-.56h-.47v5.45H64v-.39H61.31V58.3Z"/></g></g></svg>