<svg xmlns="http://www.w3.org/2000/svg" viewBox="0 0 62.61 64"><defs><style>.cls-1{fill:#fff;}</style></defs><g id="Layer_2" data-name="Layer 2"><g id="Capa_1" data-name="Capa 1"><path class="cls-1" d="M30.15.05a35.11,35.11,0,0,0-4.37.59c-.62.13-1.15.24-1.17.26a1.07,1.07,0,0,1-.21,0c-.15,0-1.27.34-1.42.41l-.17,0a29,29,0,0,0-5,2.06l.19.07A6.15,6.15,0,0,0,19.25,4s.05,0,0,0a4,4,0,0,0,.88.39L21.84,5l1.31.47,1.11.39.58.21.22-.17a1.27,1.27,0,0,1,1.25-.21c.2.07.24.07.29,0s.06-.1,0-.13,0,0,.05,0,.39-.2.34-.28,0,0,0,0,.16-.07.28-.21a6,6,0,0,1,.45-.43c.12-.1.47-.42.77-.71l2.31-2.17.26-.23V1a.9.9,0,0,1,.17-.69c.09-.13.18-.22.21-.21s.05,0,.08,0A5.14,5.14,0,0,0,30.15.05Z"/><path class="cls-1" d="M32.63.12a1,1,0,0,1,.38.8,1.17,1.17,0,0,1,0,.4c0,.06.06.19.4.55a2.14,2.14,0,0,0,.53.43s0,0,0,0,.13.26.21.21,0,0,0,0,.29.42.36.38,0,0,0,0a5.45,5.45,0,0,0,.84.94l.87.86.23-.08a.85.85,0,0,1,.79,0l.27.14.55-.39c.3-.21.59-.43.63-.47s.09-.08.12-.08.45-.3,1.2-.85l1.42-1,.69-.51s0,0,0,0-.06,0-.1,0A18.89,18.89,0,0,0,38.52.66c-.05,0-.07,0-.05,0S38.14.53,37,.35A29.39,29.39,0,0,0,33.55,0L32.47,0Z"/><path class="cls-1" d="M30.69,2.57a6.76,6.76,0,0,0-.81.85s0,0,0,0-.46.33-1.53,1.36a11.46,11.46,0,0,1-1.39,1.27s0,0,0,.1a1,1,0,0,1,.14.4l0,.31.94.34c.52.19,1,.34,1.06.35s.11,0,.1,0a14.28,14.28,0,0,0,2.08.8l.84.3L33,8.09c1.13-.82,1.11-.81,1.56-1.12.92-.64,1.3-.94,1.27-1a3,3,0,0,1,0-.43V5.18l-.38-.39c-.21-.22-.39-.39-.41-.37s0,0-.06-.08A8,8,0,0,0,33.58,3s0,0,0,0-.08-.19-.23-.32a1.19,1.19,0,0,1-.25-.31s0,0-.09,0-.07,0,0,0-.06-.14-.17-.25-.24-.19-.34-.16a2,2,0,0,1-.85-.05A5.92,5.92,0,0,0,30.69,2.57Zm.76-.47a.07.07,0,0,1,0,.09s-.06,0-.06,0S31.4,2,31.45,2.1Zm-.76.84s-.11.07-.14,0,0-.05.05-.05S30.69,2.93,30.69,2.94Zm4.14,1.31c.08.09.07.09,0,0s-.13-.12-.08-.12A.49.49,0,0,1,34.83,4.25Z"/><path class="cls-1" d="M42.71,1.88c0,.05,0,.12,0,.14s0,0,0,0a.08.08,0,0,1,0-.11s-.11.05-.31.19a1.78,1.78,0,0,0-.35.28s0,.06-.12.08-.1,0-.07.1,0,.06,0,0-.14,0-.23.09L41,3.1c-.22.15-.39.3-.37.33s0,0,0,0a9.65,9.65,0,0,0-1.65,1.16s0,0,0,0-.3.13-.27.19,0,0,0,0-.23.08-.44.23-.36.28-.36.46a1.58,1.58,0,0,1-.09.42c-.07.22-.07.22.15.46,2.9,3,3,3.1,3.1,3a2.73,2.73,0,0,1,1-.4,1.55,1.55,0,0,1,.6,0l.39.08a.3.3,0,0,1,.14.07l.32.27c.15.13.27.19.31.16s.06,0,0,0,0,.08,0,.13,0,.08,0,0-.07,0,0,0a1.49,1.49,0,0,1,.17.32l.1.23.57-.16c.31-.1.61-.18.65-.21l.17,0c.05,0,.51-.13,1-.28s1.17-.34,1.46-.42l.52-.15-.46-.82c-.24-.45-.46-.83-.47-.84s-.07,0-.12,0-.1.07,0,0,.09-.13,0-.31A.88.88,0,0,0,47.12,7a.14.14,0,0,1-.06-.08,4.41,4.41,0,0,0-.54-1.12c-.25-.44-.54-1-.65-1.18-.65-1.19-1.12-2.06-1.14-2.08l-.3-.13-1.65-.62A.38.38,0,0,0,42.71,1.88ZM41.26,9.13s0,0-.1,0-.11,0,0,0S41.22,9.07,41.26,9.13Z"/><path class="cls-1" d="M45.61,2.93a1,1,0,0,0,.13.29c.08.12.19.35.27.51A6.44,6.44,0,0,0,46.75,5s0,0,0,0a4.42,4.42,0,0,0,.67,1.2s0,0,0,0a1.14,1.14,0,0,0,.17.45l.33.59c.06.11.13.2.15.18s0,0,0,0a5.3,5.3,0,0,0,.38.79l.38.72.24-.08,1.69-.49c.79-.22,1.45-.43,1.46-.45a0,0,0,0,1,.07,0,1.27,1.27,0,0,0,.46-.09c.25-.08.38-.14.34-.17a4.36,4.36,0,0,1-.4-.33,17.56,17.56,0,0,0-1.52-1.17,5.49,5.49,0,0,0-.78-.53s-.06,0-.1-.07a12.46,12.46,0,0,0-1.9-1.2s-.06,0,0,0A19.6,19.6,0,0,0,45.71,3s-.06,0-.07,0S45.61,2.9,45.61,2.93Z"/><path class="cls-1" d="M16.43,4.13a5.77,5.77,0,0,0-1.1.7s-.06,0,0,0-.09,0-.25.11-.27.19-.22.23,0,.05,0,0-.31.11-.73.4a12.48,12.48,0,0,0-1.63,1.22s0,0,.07,0,0,0,0,0a.09.09,0,0,1-.09,0s-.1,0-.18.12a7.11,7.11,0,0,0-.74,1.12s.09,0,.13.07.07.09,0,0-.11-.05-.19,0A3.93,3.93,0,0,0,11,9a.11.11,0,0,1,0,.08,1.3,1.3,0,0,0-.38.62s0,.06,0,0-.43.53-.39.61,0,0,0,0a8.15,8.15,0,0,0-1,1.55.07.07,0,0,1,0,.09c-.05,0-.05,0,0,0s0-.07,0-.07a1.28,1.28,0,0,0-.15.21l-.4.63a1.35,1.35,0,0,0-.24.47s0,0,0,0-.07,0-.09,0a17,17,0,0,0,2.76-.08L14.41,13l2.1-.12a3.77,3.77,0,0,1,.6,0l1-.05c.85-.05.9-.07,1.09-.21s.17-.18.13-.22a.07.07,0,0,1,0-.12s0,0,0,0,0,.07,0,.07a2.46,2.46,0,0,0,.46-.39,2.21,2.21,0,0,1,.46-.4s0,0,0-.06,0,0,0,0a7.92,7.92,0,0,0,.86-.78c.44-.42.88-.83,1-.91s.17-.16.15-.19,0-.05,0,0a2.34,2.34,0,0,0,.47-.38l1.11-1,.69-.65,0-.46a1.42,1.42,0,0,0-.1-.5s-.33-.13-.66-.24L23.17,6c-.12-.06-1.71-.63-2.12-.78l-.37-.13a11.12,11.12,0,0,0-1.63-.53s0,0,0,0a12.53,12.53,0,0,0-1.88-.72C17,3.82,16.85,3.89,16.43,4.13Z"/><path class="cls-1" d="M36,6.65a2.18,2.18,0,0,0-.33.27.43.43,0,0,1-.14.08c-.06,0-.09.07-.06.1s0,.06,0,0-.14,0-.23.09-.34.26-.56.41a1.45,1.45,0,0,0-.38.32s0,0,0,0a4.78,4.78,0,0,0-.79.51L32.68,9l.81,0a23.6,23.6,0,0,1,6.16,1.17l.67.22.09-.23c.08-.21.08-.24,0-.33s-.22-.15-.15,0,0,.05,0,0a.09.09,0,0,1,0-.11c.05-.11-.79-1-.87-.88s0,0,0,0a5.91,5.91,0,0,0-1.06-1.19L37.15,6.54l-.24,0a.91.91,0,0,1-.44-.05C36.27,6.44,36.26,6.44,36,6.65Z"/><path class="cls-1" d="M26.85,7.64a1.14,1.14,0,0,1-1,.45,1.19,1.19,0,0,1-.56-.1l-.24-.1a2.85,2.85,0,0,0-.77.78c0,.05,0,.07,0,.05s-.24,0-.2.09,0,0,0,0a2.58,2.58,0,0,0-.48.41,2.5,2.5,0,0,1-.46.39s0,0,0,.06.07.1,0,.07-.17.05-1.24,1.05l-.92.85c-.38.35-.43.46-.11.26s1.84-.95,2.38-1.17a1.89,1.89,0,0,0,.46-.23,0,0,0,0,1,.05,0,1.89,1.89,0,0,0,.58-.16,5.21,5.21,0,0,1,.61-.2s.07,0,.07-.06,0,0,0,0a1.14,1.14,0,0,0,.41-.08,21.44,21.44,0,0,1,2.78-.66l.28-.06s.12,0,.23,0l1.13-.1c.52,0,1.07-.1,1.22-.1l.29,0-.77-.28a7.58,7.58,0,0,0-.88-.28c-.07,0-.12,0-.11,0s-2.16-.84-2.51-.93C27,7.45,27,7.48,26.85,7.64Z"/><path class="cls-1" d="M10.68,8.26a.41.41,0,0,1-.15.14,15.84,15.84,0,0,0-1.81,1.86s0,.06,0,0a3.45,3.45,0,0,0-1,1.18s0,0,0,0a4.7,4.7,0,0,0-1,1.17c0,.09,0,.11.09.1a1.15,1.15,0,0,1,.65.21l.27.12c.17-.23.3-.48.27-.52s0-.05,0,0a2.18,2.18,0,0,0,.46-.6c.31-.48.4-.65.35-.7s0-.07,0,0,.09,0,.09-.06,0-.09.05-.09a.94.94,0,0,0,.31-.52s0-.05,0,0,.1,0,.6-.81l.57-.9a3.58,3.58,0,0,0,.27-.46s0-.06.05-.06.06,0,.09-.09S10.81,8.1,10.68,8.26Z"/><path class="cls-1" d="M53.49,8.36a.74.74,0,0,0-.18.26s0,.06-.06,0,0,0,0,.05,0,.09-.05.09a5.34,5.34,0,0,0-.87,1s0,.05,0,0-.13.06-.25.19l-.61.71-.42.46.09.17a1.13,1.13,0,0,1,0,1l-.14.2.21.41c.5,1,.6,1.11.65,1.08s0,0,0,0a4.91,4.91,0,0,0,.68,1.3.06.06,0,0,1,0,.09c0,.15.1.2.92.34l1.81.32c.52.09,1,.17,1,.16s.07,0,.12,0,.32.07.61.12l.54.09.17-.19a1.28,1.28,0,0,1,2.09.27,1.52,1.52,0,0,1-.07,1.25.69.69,0,0,0-.12.27s0,0,0,0-.11,0-.16.05a1.33,1.33,0,0,1-.34.17c-.25.08-.26.09-.47.63a2.08,2.08,0,0,0-.18.62s0,0,0,0-.07,0-.07,0-.15.45-.34.94-.34.89-.34.9,1.14,0,2.52,0h2.53l-.06-.16a30,30,0,0,0-1.64-3.82c-.48-.95-.59-1.14-.65-1.08s0,0,0,0a7.92,7.92,0,0,0-1.16-1.91s0,0,0,0-.45-.8-.51-.74,0,0,0,0,0-.18-.15-.32c-.54-.75-.8-1.06-.85-1s0,0,0,0a.11.11,0,0,0,0-.13l-.27-.33A19.86,19.86,0,0,0,54.89,9.4s0,0,0,0a6.81,6.81,0,0,0-1-1l-.17-.16Zm.62.54c.07.09.07.09,0,0a.43.43,0,0,1-.1-.1S54,8.81,54.11,8.9Z"/><path class="cls-1" d="M52.29,8.6l-.63.18a.84.84,0,0,0-.39.15s0,0-.05,0a11.47,11.47,0,0,0-1.8.49l-.24.07.37.69.38.7h.63l.43-.5a2.78,2.78,0,0,0,.41-.55s0,0,0,0a.11.11,0,0,0,.12,0c.05-.06.06-.09,0-.15s0-.07,0-.05.24-.15.57-.53a3.78,3.78,0,0,0,.45-.57Z"/><path class="cls-1" d="M48.52,9.7l-.6.16-.72.2c-.13,0-.24.08-.24.11s0,0,0,0a23.93,23.93,0,0,0-2.7.77s0,0-.08,0-.12,0-.15.25a2.76,2.76,0,0,1-.16.54l-.14.26.6.35a4.94,4.94,0,0,0,.67.36s.06,0,0,0,.55.43.63.41,0,0,0,0,.13.17.34.33.49.38.64.51.3.2.34.18.05,0,0,0,0,.12.15.2l.19.15.18-.21c.1-.11.17-.23.16-.28s0-.06,0,0a1.14,1.14,0,0,0,.36-.3,10,10,0,0,0,1.11-1.32.06.06,0,0,1,.06-.06s0-.13,0-.33a.94.94,0,0,1,.09-.6l.12-.27L49,10.42C48.7,9.8,48.62,9.68,48.52,9.7Z"/><path class="cls-1" d="M49.52,12.93c-.1.11-.23.27-.31.35l-.38.45a3.06,3.06,0,0,1-.36.39.14.14,0,0,0-.06.13s0,.05,0,0-.11,0-.15.09l-.24.3-.15.17.13,0c.15.05,1.8.34,2.06.37l.71.13.82.16.27,0-.19-.36c-.45-.81-.59-1.06-.81-1.48-.14-.24-.25-.43-.27-.41s0,0,0-.09a.92.92,0,0,0-.1-.25c-.08-.12-.14-.14-.33-.14a.82.82,0,0,1-.32-.06C49.71,12.72,49.66,12.75,49.52,12.93Z"/><path class="cls-1" d="M15.8,13.48l-2.92.16c-3.16.17-4.66.26-4.68.28s0,.09,0,.18a2.21,2.21,0,0,1,0,1.11,2.39,2.39,0,0,1-.24.48,1,1,0,0,0-.14.27s0,0-.05,0a0,0,0,0,0-.06.06s0,.06,0,0a.26.26,0,0,0-.18.08c-.1.08-.12.12-.07.18s.23.42.44.84a8,8,0,0,0,.45.8.09.09,0,0,1,0,.08,2.37,2.37,0,0,0,.36.66s0,.05,0,.05a1.45,1.45,0,0,0,.22.49l.45.86c.09.19.19.33.22.31s0,0,0,0,0,.31.17.38.07.07,0,.09a2,2,0,0,0,.23.51,4.14,4.14,0,0,1,.25.53s0,0,.07,0,0,0,0,0a1.86,1.86,0,0,0,.21.54l.25.47.12-.28a2.12,2.12,0,0,0,.13-.34.16.16,0,0,1,0-.08,8.77,8.77,0,0,0,.64-1.37s0-.05,0,0,.07,0,.07-.09,0-.09,0-.07a1.83,1.83,0,0,0,.34-.49l.51-.8c.11-.14.17-.3.15-.33s0-.05,0,0,.16-.1.28-.29.46-.63.76-1a5.1,5.1,0,0,0,.52-.72s0,0,0,0a2.42,2.42,0,0,0,.43-.41,12.41,12.41,0,0,1,1.33-1.36,2,2,0,0,0,.47-.53s0,0,0,0,.26-.12.52-.35.57-.47.72-.58l.33-.26a.83.83,0,0,1,.17-.12C18.73,13.33,18.39,13.33,15.8,13.48Z"/><path class="cls-1" d="M4.41,15.93a27.43,27.43,0,0,0-2.1,4.39s0,.05,0,0-.21.34-.16.42,0,.05,0,0-.17.26-.32.72c-.37,1.06-.44,1.3-.31,1.1l.26-.4a37.79,37.79,0,0,0,2-3.21.07.07,0,0,1,0-.09s.05,0,0,0,.08-.07.46-.68a4.19,4.19,0,0,0,.36-.61.3.3,0,0,0-.07-.14q-.09-.11,0,0c.1.07.23,0,.18-.06s0,0,0,0a1.1,1.1,0,0,0,.32-.53s0-.05,0,0,.13-.08.23-.24a1.27,1.27,0,0,0,.18-.31A3.59,3.59,0,0,0,5,15.92s0,0,0,0-.08-.25-.13-.22,0,0,0-.07C4.81,15.39,4.65,15.52,4.41,15.93Z"/><path class="cls-1" d="M48.38,15.52a1.82,1.82,0,0,0,.3.33c.16.16.48.49.69.72a2.26,2.26,0,0,0,.44.41s0,0,0,0a4.86,4.86,0,0,0,.74.94.47.47,0,0,1,.12.17.58.58,0,0,0,.15.21c.07.09.13.16.1.16s0,.05.08.12a22,22,0,0,1,1.77,2.89,6.66,6.66,0,0,0,1.17,0h1.17L55,21.37c-.06-.1-.21-.37-.33-.61s-.47-.87-1.08-2c-.09-.16-.18-.28-.21-.25s0,0,0-.07,0-.09,0-.06-.06,0,0,0,0-.15-.06-.25-.43-.75-.81-1.46l-.25-.48-.31-.07L51.39,16l-1.31-.24c-.61-.1-1.15-.18-1.21-.17s-.08,0-.06,0-.06-.06-.14,0-.07.05,0,0,0-.07-.05,0-.09.06-.08,0a.07.07,0,0,0,0-.09S48.38,15.5,48.38,15.52Z"/><path class="cls-1" d="M27.09,15.89a12.24,12.24,0,0,0-7.71,3.66,13,13,0,0,0-3.81,7.34c-.1.56-.11,1.48-.12,16.75l0,16.16.87.5a31.42,31.42,0,0,0,7.61,3.1l.89.23s.05-7.93.06-17.62l0-17.62.15-.5a4.82,4.82,0,0,1,1.19-2.05,3.58,3.58,0,0,1,1.21-.57,5.16,5.16,0,0,1,1.92,0,3.66,3.66,0,0,1,2.49,2,3.63,3.63,0,0,1-.68,4.06,3.55,3.55,0,0,1-1.52.95,3.23,3.23,0,0,1-3-.49l-.24-.16,0,5v4.95l.31,0c.17,0,.93,0,1.68,0a12.13,12.13,0,0,0,9-3.52,13.45,13.45,0,0,0,3.77-7.55A19.89,19.89,0,0,0,41.35,27a11.42,11.42,0,0,0-3.9-7.45A13.47,13.47,0,0,0,30.35,16,20.86,20.86,0,0,0,27.09,15.89Z"/><path class="cls-1" d="M53,16.51c.07.12.15.21.17.19s0,0,0,0,.06.3.14.26,0,0,0,0a11.1,11.1,0,0,0,1.18,2.18s0,0,0,0,0,.19.13.34a2.8,2.8,0,0,1,.17.32,6.48,6.48,0,0,0,.71,1.17s0,0,0,0,0,.25.09.2,0,0,0,0a.15.15,0,0,0,0,.14c.06.07.22.09.68.09H57l.13-.35a.78.78,0,0,0,.08-.41s0,0,0,0A14.15,14.15,0,0,0,57.94,19a1.19,1.19,0,0,1,.07-.2c.18-.41.18-.4,0-.5s-.18-.07-.23,0-.06.05,0,0,0-.14-.1-.23a1.45,1.45,0,0,1-.32-.8c0-.15,0-.15-.71-.28a5.22,5.22,0,0,0-.8-.1s-.07,0-.06,0a3.76,3.76,0,0,0-1.07-.21l-.48-.1c-.21-.05-.48-.1-.63-.12a2.58,2.58,0,0,1-.34-.05L53,16.32l-.15,0Z"/><path class="cls-1" d="M6.06,16.55l-.51.81c-.28.41-.49.76-.49.77a1,1,0,0,1-.15.22c-.08.11-.13.23-.11.26s0,.05,0,.05a17.82,17.82,0,0,0-1.45,2.2s0,.05-.06,0,0,0,0,.07,0,.08,0,.06-.08,0-.12.1-.23.38-.43.68-.35.57-.32.61,0,.06,0,0a2.11,2.11,0,0,0-.54.79s0,.06,0,.05-.24.32-.21.35L2.85,24l1.78.47c1.59.44,1.86.5,1.94.43s.07-.08,0-.09.37-.41.49-.45.1-.05.1-.07,1-.11,1.14,0,.37.28.47.25a11,11,0,0,0,1.36-1.08c.19-.16.22-.22.17-.29s-.35-.66-.7-1.35S9,20.53,9,20.49a.46.46,0,0,1-.07-.16,1,1,0,0,0-.12-.23,2.92,2.92,0,0,1-.21-.4c-.09-.21-.12-.23-.2-.17s-.08.06,0,0,0-.17-.19-.6a2.8,2.8,0,0,0-.33-.53s-.05-.06,0-.09-.19-.47-.23-.44,0,0,0-.06,0-.09,0-.09-.06,0,0,0a2.41,2.41,0,0,0-.27-.61l-.3-.58h-.4C6.21,16.48,6.07,16.49,6.06,16.55ZM9.17,24.1a.07.07,0,0,1,0,.09s-.05,0-.05-.05S9.12,24,9.17,24.1Zm-2.64.5s-.11.07-.13,0,0-.05,0-.05S6.53,24.59,6.53,24.6Z"/><path class="cls-1" d="M9.75,24.52l-.7.58s0,.14,0,.3,0,.31.16.28.13,0,.11,0,.08.06.24.1l.27.06c.06-.14.63-1.91.62-1.91Z"/><path class="cls-1" d="M.9,24.55A34.86,34.86,0,0,0,0,30.13l0,.48.26,0a2.13,2.13,0,0,1,.49.15,1.1,1.1,0,0,0,.29.11,2.35,2.35,0,0,0,.76-.63s.05-.07.11-.07.11,0,.1-.07,0-.07,0-.06.41-.25.38-.33a.08.08,0,0,1,0-.11s0,0,0,0,.09.06.37-.17l.38-.33.34-.28a2.49,2.49,0,0,0,.32-.26l.21-.16c.09-.05.15-.13.14-.17s0-.06.07-.07a4.63,4.63,0,0,0,1-.83s0,0,0,0a11.32,11.32,0,0,0,1.26-1L6.5,25.9c-.11-.34-.16-.41-.29-.44l-.78-.21L3.5,24.73c-.72-.19-1.37-.35-1.45-.36l-.14,0s0,0-.08,0l-.34-.11C1,24,1,24.05.9,24.55Z"/><path class="cls-1" d="M8.82,26.36a.3.3,0,0,0-.09.24c0,.06,0,.07,0,0s-.12,0-.33.07a1.38,1.38,0,0,1-1,.08c-.17-.05-.24-.05-.3,0l-.55.46a1.87,1.87,0,0,0-.47.46s0,0,0,0-.36.19-.31.27,0,0,0,0-.2.05-.48.32a.58.58,0,0,1-.16.12s0,0-.08,0-.07.09,0,.13,0,0,0,0-.12,0-.19.09l-.74.6-.68.56-.68.56-.84.7-.25.2.15.31A1.71,1.71,0,0,1,1.8,32.8c-.07.42-.1.36.35.71a1.33,1.33,0,0,0,.24.17s.08,0,.16.12.28.22.42.32.31.22.39.29a.34.34,0,0,0,.23.12.05.05,0,0,1,.07,0s0,.12.14.17a3.09,3.09,0,0,1,.31.23.39.39,0,0,0,.22.1s0,0,0,0,.06.12.18.19a2.81,2.81,0,0,1,.3.21,14.33,14.33,0,0,0,1.25.91.07.07,0,0,0,.07,0,1.2,1.2,0,0,1,.68-.24c.26,0,.22,0,.75-.86,0-.05.26-.43.5-.83a2.77,2.77,0,0,0,.4-.81s0-.05,0,0,.2-.17.15-.25,0-.05,0,0,.07,0,.07-.08,0-.09,0-.08S9,32.79,9,31.71a24.27,24.27,0,0,1,.6-4.82,1.5,1.5,0,0,0,.08-.47A2.52,2.52,0,0,0,9,26.21S8.88,26.28,8.82,26.36Z"/><path class="cls-1" d="M1.37,33.74c0,.16-.89.63-1.19.63-.15,0-.15.16,0,1.73A33.41,33.41,0,0,0,.9,39.87a20.63,20.63,0,0,0,.69,2.38.37.37,0,0,1,0,.15,15.33,15.33,0,0,0,.63,1.73,12.3,12.3,0,0,0,1-1.62A2.85,2.85,0,0,0,3.54,42s0-.06,0-.05A4,4,0,0,0,4.16,41a2.7,2.7,0,0,1,.2-.33c.1-.1.1-.14,0-.09s0,0,.11-.14.18-.23.16-.27,0-.08,0-.08a8.24,8.24,0,0,0,.93-1.6s0,0,0,0,.07,0,.07,0a1.61,1.61,0,0,1,.21-.35l.19-.31L6,37.6a.88.88,0,0,1-.12-.39c0-.13,0-.17-.07-.14s0,0,0,0-.09-.2-.93-.81a6.26,6.26,0,0,0-1.06-.72s0,0,0,0-.27-.28-1.13-.91c-.13-.09-.45-.33-.7-.53C1.47,33.7,1.37,33.64,1.37,33.74Z"/><path class="cls-1" d="M8.46,34.86a9.56,9.56,0,0,0-.53,1s0,.07,0,.06-.1.11-.2.28-.15.31-.08.4a.67.67,0,0,1,.16.62,2.45,2.45,0,0,1-.07.37c0,.06.11.19.41.4l1,.73a1.86,1.86,0,0,0,.59.36s0,0,0,0,.08.14.22.25.25.15.21.08a18.48,18.48,0,0,1-.7-2.7c0-.07,0-.1-.06-.07s0,0,0,0a3.55,3.55,0,0,0-.07-.76c-.06-.39-.13-.92-.15-1.18s-.06-.53-.08-.59S8.86,34.19,8.46,34.86Zm.34,3.28s0,0-.09,0-.07,0-.05,0S8.8,38.09,8.8,38.14Z"/><path class="cls-1" d="M6.87,38c-.28,0-.33,0-.41.18s-.13.26,0,.2.05,0,0,0-.06,0-.08,0a3.54,3.54,0,0,0-.65,1.12s0,0,0,0S5.43,40,5,40.74l-.47.78c-.22.38-.42.72-.42.75a.51.51,0,0,1-.12.18c-.16.18-.27.42-.23.5s0,0,0,0a12.38,12.38,0,0,0-1.12,1.79,1.51,1.51,0,0,0,.3.75c.06.06.06.09,0,.07s-.06,0,0,.07.1.12.22.1l2-.35.63-.12A1.09,1.09,0,0,1,6,45.23l.66-.12,1.41-.25.73-.14a2.22,2.22,0,0,0,.1-.4,2,2,0,0,1,.22-.6,1.44,1.44,0,0,1,.71-.56c.09,0,.1-.11.14-.95,0-.52,0-1.22.06-1.56,0-.54,0-.61-.07-.65a1.32,1.32,0,0,1-.33-.23,1.16,1.16,0,0,0-.28-.19.82.82,0,0,1-.17-.14c-.09-.08-.17-.12-.22-.1s0,0,0,0-.42-.43-.49-.42a.18.18,0,0,1-.1-.07A7.42,7.42,0,0,0,7.21,38Zm.58.23c.07.09.06.09,0,0s-.13-.12-.08-.12A.43.43,0,0,1,7.45,38.27Z"/><path class="cls-1" d="M10.54,41.18c0,.26,0,.8,0,1.18l0,.71.3.11a1.44,1.44,0,0,1,.72.6c0,.07.06.12.08.12s.07.05.09.63c0,.32,0,.49,0,.46s0,0,0,0a.27.27,0,0,1-.08.19c-.13.14-.13.21,0,.59.08.18.29.72.48,1.2s.55,1.4.79,2,.48,1.24.5,1.32.07.14.1.11,0,0,0,0a2.46,2.46,0,0,0,.31.86s0-1.12,0-2.51V46.36l-.18-.24c-.09-.13-.19-.24-.22-.24s-.05,0,0,0a4.77,4.77,0,0,0-.83-1.16s0,0,0,0a3.14,3.14,0,0,0-.55-1s-.05-.05-.05-.08,0-.14-.06-.11,0,0,0,0,0-.1-.05-.15a.32.32,0,0,1-.09-.12c0-.1-.3-.7-.36-.67s0,0,0,0a.86.86,0,0,0-.13-.39,2.15,2.15,0,0,1-.18-.36,2.7,2.7,0,0,0-.16-.4c-.09-.2-.18-.42-.22-.5S10.57,40.77,10.54,41.18Z"/><path class="cls-1" d="M33,42.69a7.29,7.29,0,0,0-4.47,2.18,7.52,7.52,0,0,0-1.86,3.61l-.12.55,0,7.47,0,7.47h6.3V59h1.29l1.29,0v5h6.25l0-7.42c0-6.89,0-7.43-.12-7.83a8.37,8.37,0,0,0-2-4,6.52,6.52,0,0,0-3.77-2A16.24,16.24,0,0,0,33,42.69ZM34.56,49a1.4,1.4,0,0,1,.67.81c.13.32.13.38.14,2v1.7l-1.29,0H32.79V51.88c0-1.82,0-2,.32-2.49A1.22,1.22,0,0,1,34.56,49Z"/><path class="cls-1" d="M50,43.56a8.4,8.4,0,0,0-6.32,4.21,11.37,11.37,0,0,0-1.46,4.6A20.39,20.39,0,0,0,42.28,56,10,10,0,0,0,45,61.57a7.94,7.94,0,0,0,4.24,2.3,7.33,7.33,0,0,0,1.89.13,9.66,9.66,0,0,0,3-.35,11.42,11.42,0,0,0,3.14-1.28l.35-.22V51.5H50.14v5.16h2.61l0,.75v.75l-.32.11a2.86,2.86,0,0,1-1,.11,3.1,3.1,0,0,1-2.44-.9,5.85,5.85,0,0,1-1-5,5.71,5.71,0,0,1,.4-1.07,3.25,3.25,0,0,1,.75-1.06,2.92,2.92,0,0,1,2.21-1,3,3,0,0,1,2.37,1l.5.5.56-.81L56,48.24c.38-.56.85-1.23,1-1.49l.32-.47-.44-.44a8.24,8.24,0,0,0-4.47-2.2A12,12,0,0,0,50,43.56Z"/><path class="cls-1" d="M8.26,45.37l-.54.12H7.65l-.82.14L4.8,46a9.44,9.44,0,0,0-1.54.3s.11.32.16.32,0,0,0,.05.21.51.26.48,0,0,0,0a1,1,0,0,0,.14.39l.33.59c.08.15.16.26.18.24s0,0,0,.05a7.16,7.16,0,0,0,.82,1.31s0,0,0,.05A4.94,4.94,0,0,0,6.1,51s0,0,0,0a5,5,0,0,0,.78,1.13c.31.41.56.68.62.66s0,0,0,0,.29.48.36.44,0,0,0,0,.62.78.7.74,0,0,0,0A6.49,6.49,0,0,0,10,55.48s0,0,0,0,.07.14.18.23.41.35.64.57a1.71,1.71,0,0,0,.5.38s.06,0,0,0,.58.6.69.59.06,0,0,.05,0,0,.05,0,.08,0,.06,0,0,.09.06.06.09,0,.06,0a1.71,1.71,0,0,0,.43.39,2.57,2.57,0,0,0,.45.31s0,0,.09.06.11.08.15,0,0,0,0,0,0,.11.14.18l.17.12V53.44l-.18,0-.25-.08a2,2,0,0,0-.39-.17l-.54-.21-.82-.31a5,5,0,0,0-.72-.24c-.06,0-.11,0-.11-.06s0,0,0,0a0,0,0,0,1-.06,0c0-.09-.19-.08-.37,0a1.33,1.33,0,0,1-.86,0,1,1,0,0,1-.53-.89.92.92,0,0,1,.46-.83c.26-.17.26-.12.34-2.38,0-.91.07-1.81.09-2s0-.37-.12-.44a2.12,2.12,0,0,1-.39-.29C9,45.23,9,45.23,8.26,45.37ZM13,57.8a0,0,0,0,1-.08,0,.05.05,0,0,1,0-.08.07.07,0,0,1,.09,0A.07.07,0,0,1,13,57.8Z"/><path class="cls-1" d="M10.61,45.86l-.25.06,0,.42c0,.24-.08,1.26-.12,2.29-.05,1.53-.05,1.87,0,1.89a1.44,1.44,0,0,1,.56.61,1.13,1.13,0,0,1,.05.41l0,.21,1.42.53c.77.29,1.41.52,1.42.51A12.23,12.23,0,0,0,12.91,51s0,0,0,0a3.26,3.26,0,0,0-.37-1s0-.08,0-.08a4.77,4.77,0,0,0-.28-.81c-.17-.44-.47-1.2-.65-1.68a6.87,6.87,0,0,0-.39-.9.05.05,0,0,1,0-.07,1.34,1.34,0,0,0-.25-.61Z"/></g></g></svg>