<svg xmlns="http://www.w3.org/2000/svg" viewBox="0 0 64 12.59"><defs><style>.cls-1{fill:#fff;}</style></defs><g id="Layer_2" data-name="Layer 2"><g id="Capa_1" data-name="Capa 1"><path class="cls-1" d="M25.34.07a4.31,4.31,0,0,0-1,.24A3.65,3.65,0,0,0,22.22,2a3.15,3.15,0,0,0,.06,3,4.79,4.79,0,0,0,2.3,1.8l.29.12a.43.43,0,0,0,.15,0s.07,0,.08,0a.22.22,0,0,0,.13.06l.16.05.52.18a5.32,5.32,0,0,1,2.07,1,1.14,1.14,0,0,1,.38,1c0,.71-.38,1.14-1.19,1.34a4.32,4.32,0,0,1-1.9-.09A1.74,1.74,0,0,1,24,8.85l0-.26H21.48l0,.35a3.52,3.52,0,0,0,.19.94,3.47,3.47,0,0,0,1.17,1.6,5.48,5.48,0,0,0,2.78,1.07,8.91,8.91,0,0,0,2.12-.06,3.78,3.78,0,0,0,2.84-1.89,2.61,2.61,0,0,0,.25-1.41,3,3,0,0,0-.07-.93,3.8,3.8,0,0,0-2.22-2.37,11,11,0,0,0-1.85-.72c-1.46-.48-2-.8-2.24-1.31a1.44,1.44,0,0,1,0-1,1.65,1.65,0,0,1,1.06-.79,3.71,3.71,0,0,1,1.59,0,1.73,1.73,0,0,1,1,.71,1.88,1.88,0,0,1,.22.64,1.5,1.5,0,0,0,0,.2l0,.11h2.48V3.52a3.5,3.5,0,0,0-2.09-3,3.54,3.54,0,0,0-.64-.26,4.18,4.18,0,0,0-.86-.19A8,8,0,0,0,25.34.07Z"/><path class="cls-1" d="M0,1.18v1H3l3,0L6,2.36l-.26.37c-.08.13-.21.31-.27.4L4.57,4.38c-.11.16-.25.37-.32.46L3.19,6.36l-.53.76-.35.5-.2.29-.3.43-.32.47-.42.6-.8,1.17L0,11v1.49H9.35v-2H6.26c-1.7,0-3.09,0-3.09,0l.35-.52.92-1.34.2-.29L5,7.67l.58-.83.72-1,.73-1c.19-.29.48-.7.62-.92L8,3.41a2.69,2.69,0,0,0,.19-.28l.31-.44.44-.64.3-.45V.17H0Z"/><path class="cls-1" d="M11,6.31v6.14h2.5a16.34,16.34,0,0,0,3.82-.18,3.23,3.23,0,0,0,2.79-3.39A2.63,2.63,0,0,0,18.3,6.21c-.1,0-.17-.07-.16-.09a.81.81,0,0,1,.2-.12,3.15,3.15,0,0,0,.82-.63A2.93,2.93,0,0,0,19.77,3,2.79,2.79,0,0,0,18.09.7,4.31,4.31,0,0,0,16.73.29,19.71,19.71,0,0,0,13.35.17H11Zm4.85-4.07a1.44,1.44,0,0,1,1.39.92,2,2,0,0,1,.06.61,1.17,1.17,0,0,1-.11.68,1.45,1.45,0,0,1-1,.77,6,6,0,0,1-1.46.08l-1.25,0V2.2h1C15.11,2.21,15.69,2.22,15.82,2.24Zm.73,5a1.48,1.48,0,0,1,1,1.57,1.48,1.48,0,0,1-1.15,1.54,6,6,0,0,1-1.56.08l-1.36,0V7.1H14.9A5.24,5.24,0,0,1,16.55,7.21Z"/><path class="cls-1" d="M35.29,2.17a1.79,1.79,0,0,0-.92.54,1.49,1.49,0,0,0-.41.57,2.83,2.83,0,0,0-.27,1.63A3.26,3.26,0,0,0,33.77,6,2.05,2.05,0,0,0,35.28,7.6a4.15,4.15,0,0,0,1.36,0,1.92,1.92,0,0,0,1.22-1,2,2,0,0,0,.21-.79,3.44,3.44,0,0,0-.55,0c-.59,0-.53,0-.6.29a1,1,0,0,1-.33.52,1.18,1.18,0,0,1-.68.16c-.58,0-.86-.22-1-.85a3.11,3.11,0,0,1-.07-1,3,3,0,0,1,.08-1A1,1,0,0,1,35.93,3a1.29,1.29,0,0,1,.68.18,1,1,0,0,1,.33.57L37,4h.54a3.21,3.21,0,0,0,.55,0A1.77,1.77,0,0,0,38,3.68a1.89,1.89,0,0,0-1.47-1.51A3,3,0,0,0,35.29,2.17Z"/><path class="cls-1" d="M40.28,2.43c-.05.15-.11.32-.14.38L40,3.22c-.06.17-.16.44-.22.59s-.13.36-.17.46-.09.24-.12.3a.73.73,0,0,0,0,.16.12.12,0,0,1,0,.08.34.34,0,0,0,0,.13.91.91,0,0,1-.06.16s-.07.16-.11.29L39,5.83c0,.1-.1.28-.14.39a2.93,2.93,0,0,1-.12.31c0,.06-.09.24-.15.42s-.14.38-.18.47l-.06.17h1.2l0-.14a.29.29,0,0,1,0-.16s0-.07,0-.14A.52.52,0,0,1,39.75,7a.62.62,0,0,0,0-.14s.05-.17.08-.25l.06-.14h2l.18.56.19.57h.58a2.7,2.7,0,0,0,.59,0,4.21,4.21,0,0,0-.2-.52.68.68,0,0,1,0-.15.09.09,0,0,0,0-.08.35.35,0,0,1,0-.12,1.18,1.18,0,0,0-.07-.2.36.36,0,0,1,0-.13.6.6,0,0,0-.05-.14.43.43,0,0,1,0-.15.15.15,0,0,0,0-.09l-.06-.15c0-.07-.07-.21-.11-.31l-.11-.28s-.06-.17-.1-.28-.09-.23-.11-.3a.7.7,0,0,0-.08-.2.47.47,0,0,1-.05-.16s0-.07,0-.08a.1.1,0,0,1,0-.08.47.47,0,0,0,0-.16.36.36,0,0,1,0-.13A1.2,1.2,0,0,0,42,3.67a.68.68,0,0,1-.07-.2.11.11,0,0,0,0-.08s0-.06-.06-.12a.68.68,0,0,0-.07-.2.36.36,0,0,1,0-.13.47.47,0,0,0-.05-.14.37.37,0,0,1,0-.16.11.11,0,0,0,0-.07.19.19,0,0,1,0-.11l-.07-.2,0-.09h-1Zm1,2.06c.17.5.31.94.31,1v.09h-.67a5.8,5.8,0,0,1-.66,0s.55-1.7.62-1.88,0-.1.06-.1A8.89,8.89,0,0,1,41.24,4.49Z"/><path class="cls-1" d="M44,4.87V7.59h1.1V5.67l.78,0a4.06,4.06,0,0,0,1-.08,2.17,2.17,0,0,0,.83-.45,1.49,1.49,0,0,0,.38-.58,1.78,1.78,0,0,0,0-.61v-.5L48,3.17a1.7,1.7,0,0,0-1.07-.9c-.2-.08-.28-.08-1.56-.09H44Zm2.58-1.72a.79.79,0,0,1,.44.74.73.73,0,0,1-.22.67c-.21.18-.34.2-1,.19h-.64V3.06h.68A2,2,0,0,1,46.57,3.15Z"/><path class="cls-1" d="M49,4.88V7.59h1.1V2.17H49Z"/><path class="cls-1" d="M50.72,2.61v.44h1.64V7.59h1.11V3.07h.82c.45,0,.83,0,.84,0s0-.21,0-.45V2.17H50.71Z"/><path class="cls-1" d="M56.9,2.21a.15.15,0,0,0,0,.08s-.37,1-.83,2.26-.86,2.3-.89,2.4-.08.21-.1.26a.43.43,0,0,0,0,.14.1.1,0,0,1,0,.08.26.26,0,0,0,0,.09c0,.06,0,.07.57.07h.59L56.27,7l.19-.57h1c1,0,1,0,1,.06s0,.08,0,.09a.41.41,0,0,1,.05.16.81.81,0,0,0,0,.15s0,.08.06.14a.64.64,0,0,0,0,.19,2,2,0,0,1,.07.2l0,.15h.59a3.53,3.53,0,0,0,.58,0s-1.85-5-2-5.33c0,0-.08-.06-.53-.06A1.57,1.57,0,0,0,56.9,2.21Zm.89,2.36c.19.54.32,1,.32,1a9.81,9.81,0,0,1-1.33,0s.37-1.22.61-1.94a.07.07,0,0,1,0,0S57.61,4,57.79,4.57Z"/><path class="cls-1" d="M60.48,4.88V7.59H64v-.9H61.62V2.17H60.48Z"/></g></g></svg>