<svg xmlns="http://www.w3.org/2000/svg" viewBox="0 0 64 35.55"><defs><style>.cls-1{fill:#fff;}</style></defs><g id="Layer_2" data-name="Layer 2"><g id="Capa_1" data-name="Capa 1"><path class="cls-1" d="M56.38,25.27a.41.41,0,0,0-.16-.35,1.9,1.9,0,0,0-.86-.46,2.59,2.59,0,0,0-1.2-.16.92.92,0,0,0-.37.09c-.48.27-.95.58-1.39.88-.23.15-.42.34-.64.48a7.18,7.18,0,0,0-1,.87c-.25.25-.49.51-.73.78s-.36.58-.58.83c-.06.08-.13.16-.24.15a4,4,0,0,0-.77.05c-.19,0-.19,0-.19-.16s.08-.56.1-.85,0-.83,0-1.27A4.68,4.68,0,0,0,48.28,25c0-.26-.16-.39-.41-.35s-.31,0-.4-.15a.27.27,0,0,0-.2-.06,4.07,4.07,0,0,0-.78,0,1.17,1.17,0,0,0-.91.54c-.15.24-.35.42-.51.63L44,27c-.32.45-.66.89-1,1.34s-.54.79-.8,1.19a1,1,0,0,1-.59.52,4,4,0,0,1-.94.2.35.35,0,0,0-.26.11.17.17,0,0,1-.14.09,6.85,6.85,0,0,0-1.54.34c-.83.29-1.68.54-2.5.85a2.35,2.35,0,0,1-.86.24.13.13,0,0,1-.14-.19.47.47,0,0,1,.06-.15c.13-.32.24-.62.37-.94A.42.42,0,0,1,36,30.3a2,2,0,0,0,.42-.13,3.72,3.72,0,0,1,.94-.32,8.25,8.25,0,0,0,1.12-.24,2.86,2.86,0,0,0,.8-.3.17.17,0,0,0,0-.29c-.08-.1-.22-.11-.28-.24a.75.75,0,0,1,.33-.1c.24,0,.47-.08.71-.11s.33,0,.38-.19c0-.05.08,0,.11,0,.26,0,.51,0,.77,0s.14-.06.11-.14a.36.36,0,0,0-.3-.35,3.05,3.05,0,0,1-.67-.13s-.07,0-.1,0a.35.35,0,0,1-.26.07,4,4,0,0,0-.49,0L38.6,28a3.88,3.88,0,0,0-.94.27c-.08,0-.18.08-.16.19a.21.21,0,0,0,.16.23s.06,0,.06,0,0,0,0,.05-.19,0-.28,0l-.77.1a3.67,3.67,0,0,1,.81-1.22,2.36,2.36,0,0,0,.42-.59.56.56,0,0,1,.5-.39l.14,0a11.55,11.55,0,0,1,1.28-.35,10.92,10.92,0,0,1,1.14-.22,6.3,6.3,0,0,0,1-.2.79.79,0,0,0,.49-.32c.13-.19.1-.44.29-.59s0-.21.1-.27,0-.19-.1-.23a.61.61,0,0,0-.27,0c-.32,0-.64,0-1,.06-.53.05-1,.13-1.55.22l-1.65.33c-.1,0-.19,0-.24-.1a1.47,1.47,0,0,0-.23-.26c-.24-.24-.44-.19-.67.05a2.48,2.48,0,0,0-.32.55c-.3.6-.67,1.18-1,1.74-.2.32-.42.62-.6,1s-.36.64-.52,1-.45.86-.64,1.33c-.07.14-.13.29-.21.46a1.42,1.42,0,0,1-.1-.46,2.28,2.28,0,0,0-.57-1.2A3.43,3.43,0,0,0,32,28.31c-.24-.12-.5-.22-.74-.35.11,0,.18-.06.24-.13s.45-.22.66-.35h0a.31.31,0,0,0,.29-.14,1.93,1.93,0,0,1,.35-.29,2.57,2.57,0,0,0,1-.72s0,0,.06,0c.21-.24.53-.32.75-.54a1.29,1.29,0,0,0,.4-.63,7.44,7.44,0,0,0,.1-1.15,1,1,0,0,0-.64-1,3.42,3.42,0,0,0-1.38-.3,10.88,10.88,0,0,0-2,.09c-.52.08-1,.18-1.55.28s-.69.25-1.05.33-.87.26-1.3.4a2.6,2.6,0,0,0-.58.23.27.27,0,0,1-.16,0,.69.69,0,0,0-.46.2c-.26.22-.35.35-.26.64,0,.08.08.11.11.17a2,2,0,0,0,.76.88,1.23,1.23,0,0,0,.41.13c.15,0,.12.08.08.18l-.36.8c-.33.7-.6,1.41-1,2.09s-.81,1.65-1.16,2.5c-.13.34-.21.67-.37,1a1.74,1.74,0,0,0-.13.64c0,.15-.1.32.1.43,0,0,.08,0,.08.08a1.2,1.2,0,0,0-.47.28.62.62,0,0,0-.24.52,1.91,1.91,0,0,0,.1.53c0,.16.09.29.3.27a.28.28,0,0,1,.16,0c.18.2.35.15.53,0s.16-.06.14.12a.37.37,0,0,1,.18-.1,2.63,2.63,0,0,0,.64-.18l.61-.24.51-.22c-.11.19-.35.13-.48.3a2,2,0,0,0,.79-.2,1,1,0,0,1,.32-.12,2.49,2.49,0,0,0,1-.19s.06-.06.09,0,0,.07,0,.08c-.27,0-.48.26-.73.34,0,0-.11,0-.08.08s.08,0,.13,0a1.71,1.71,0,0,1,.38-.13,1.62,1.62,0,0,1,.38-.09.8.8,0,0,0,.34,0,1.21,1.21,0,0,1,.42-.13.36.36,0,0,0,.24-.1,1.34,1.34,0,0,1,.44-.24c.07,0,.12,0,.2,0a3.37,3.37,0,0,1,.92-.43,7.12,7.12,0,0,0,1.78-1,.68.68,0,0,1,.3-.21c0,.1-.08.21,0,.29s.15.24.24.35.13.14.21.14.32.15.5.16a.23.23,0,0,1,.17,0,.89.89,0,0,0,.69.1c.27,0,.48-.23.74-.29.61-.18,1.15-.5,1.74-.72a1.59,1.59,0,0,1,.4-.16.53.53,0,0,0,.36-.11,1.06,1.06,0,0,1,.52-.23,2,2,0,0,0,.64-.27h-.2c0-.05,0-.05.08-.07a2.14,2.14,0,0,0,.51-.16,1.7,1.7,0,0,1,.75-.24c.1,0,.22,0,.11-.21a.08.08,0,0,1,0-.11c.2-.21.49-.16.78-.21-.22.37-.4.72-.61,1.06a3.73,3.73,0,0,0-.59,1.49c0,.14,0,.17.16.17a6.91,6.91,0,0,1,1,0s.1,0,.12,0,0-.07.08-.05a.26.26,0,0,0,.25-.13.11.11,0,0,1,.13-.06c.13,0,.18,0,.22-.13s.07-.08.1-.11a1.31,1.31,0,0,0,.4-.55,1.37,1.37,0,0,1,.19-.3.84.84,0,0,0,.21-.35c0-.13.08-.19.18-.26s0,0,0-.05a1.42,1.42,0,0,1,.24-.41,7.27,7.27,0,0,0,.5-.85.35.35,0,0,1,.22-.16c.05,0,0,.11.12.05.32-.19.72-.19,1-.37.06,0,.08.1.17,0a3.65,3.65,0,0,1,.56-.18,5,5,0,0,1,.53-.11c.05,0,.14-.05.14.05s.05.38.05.57c0,.68,0,1.35,0,2,0,.46.11.93.11,1.41a.31.31,0,0,0,.19.27.24.24,0,0,0,.31-.05s0,0,.06,0,.15-.14.13-.19.05-.29.11-.35a.37.37,0,0,0,.13-.32.76.76,0,0,1,.05-.27A1.71,1.71,0,0,0,48,32c-.11,0-.11.13-.17.16-.1-.16,0-.32,0-.48v-.89c0-.1,0-.15.13-.15.08.23,0,.47.09.69,0,0,.08-.06.08-.09s.1-.31.08-.48,0-.34,0-.52a.24.24,0,0,1,0-.16c.08-.06,0-.14,0-.24a.51.51,0,0,1,.13-.44c.1-.08.21-.07.29-.15s.35-.09.54-.11.07,0,.08.08a2.07,2.07,0,0,0,.42.75.5.5,0,0,0,.51.19l.93-.17a.14.14,0,0,1,.14,0,.21.21,0,0,0,.19,0,1.7,1.7,0,0,1,.44-.08,1.77,1.77,0,0,0,.73-.09,3.85,3.85,0,0,0,.58-.08.32.32,0,0,1,.3.09c0,.12-.11.15-.21.2-.32.19-.67.35-1,.54s-.64.4-1,.59c-.48.29-1,.61-1.47.87a5.83,5.83,0,0,0-.85.46c-.31.21-.4.35-.19.66a.69.69,0,0,0,.38.33c.08,0,.11,0,.13.11s.06.16.17.13a.28.28,0,0,1,.21.08s.07,0,.11.05a.83.83,0,0,0,.58-.26c.18-.14.38-.16.56-.28s.43,0,.58-.29.28-.1.44-.07.34-.06.34-.12.11-.18.21-.23.29-.05.4-.16a3.06,3.06,0,0,1,.7-.41c.15-.07.26-.16.39-.23a5.86,5.86,0,0,0,1.32-.67,1.06,1.06,0,0,0,.45-.74,1.49,1.49,0,0,1,.1-.51.36.36,0,0,0-.05-.33,3.72,3.72,0,0,1-.38-.64.57.57,0,0,0-.2-.21,2.67,2.67,0,0,0-1.55-.34l-.57,0a3.1,3.1,0,0,0-.45.05,6,6,0,0,1-1.33.08c-.05,0-.1,0-.11-.07s0-.08,0-.11.32-.29.49-.42c.34-.24.71-.46,1-.72a9.78,9.78,0,0,1,1.27-.81,1.41,1.41,0,0,1,.49-.16.39.39,0,0,1,0,.13,1.33,1.33,0,0,0-.17.83c0,.19.06.4.25.48a1,1,0,0,0,.64.14,1.14,1.14,0,0,0,.6-.27.62.62,0,0,0,.17-.61c0-.05,0-.14,0-.16s.09-.16.06-.24a.33.33,0,0,1,0-.24C56.22,26,56.35,25.64,56.38,25.27Zm-25,2.2a.59.59,0,0,1,.35-.2C31.56,27.42,31.51,27.45,31.37,27.47Zm-2.55-.37A6.59,6.59,0,0,1,29.45,26a2.87,2.87,0,0,0,.29-.7v-.05c-.16-.21,0-.22.16-.29A3.32,3.32,0,0,1,31,24.66a1,1,0,0,0,.32-.11,1.85,1.85,0,0,0,.48-.08c.24,0,.5-.08.74-.09a4.33,4.33,0,0,1,.72,0s.1,0,.11,0,0,.08-.06.09a12,12,0,0,1-1.95,1.33c-.66.36-1.3.69-1.94,1.09a4.89,4.89,0,0,1-.51.26s-.07.05-.08,0S28.81,27.13,28.82,27.1Zm3.3,3.49c-.11.12-.14.3-.3.38s-.05.05-.08.06c-.56.28-1.11.58-1.68.8-.88.34-1.78.61-2.68.9l-2,.64a1.2,1.2,0,0,1-.35.11,1.43,1.43,0,0,0,.3-.38c.05,0,0,.11.08.08a.45.45,0,0,0,.24-.21,1.92,1.92,0,0,1,.21-.46,2,2,0,0,1,.24-.34l0,0c-.05-.19.15-.16.23-.24s.08-.26.14-.37a1,1,0,0,1,.37-.37,1.17,1.17,0,0,0,.53-.67c.16-.4.35-.78.53-1.18a.13.13,0,0,1,.17-.08l.82.09,1,.16.32,0a7.93,7.93,0,0,1,1.27.34,2,2,0,0,1,.69.45C32.23,30.39,32.22,30.49,32.12,30.59Zm14.59-2.48a3.08,3.08,0,0,0,0,.43c0,.11,0,.14-.12.17a12.71,12.71,0,0,1-1.64.42c.6-.82,1.19-1.62,1.81-2.38C46.73,27.23,46.78,27.66,46.71,28.11Z"/><path class="cls-1" d="M22.25,25.93a.17.17,0,0,1,0-.14.63.63,0,0,0,0-.45,1.31,1.31,0,0,0-.67-.58,5.05,5.05,0,0,0-1.76-.3c-.24,0-.46,0-.7,0a5.93,5.93,0,0,0-1.12.05,10.42,10.42,0,0,0-1.14.19,11.5,11.5,0,0,0-1.39.3,3.68,3.68,0,0,1-.79.16,2.07,2.07,0,0,0,.34-.78.91.91,0,0,0-.19-.93,4.91,4.91,0,0,0-.77-.59c-.14-.1-.26-.23-.43-.23h-.43a.45.45,0,0,0-.28.1.63.63,0,0,1-.4.19.82.82,0,0,0-.48.26c-.19.21-.46.33-.62.56a4.48,4.48,0,0,1-.37.38,3.47,3.47,0,0,0-.32.34c-.14.22-.33.41-.49.62s-.52.64-.82.95a3.87,3.87,0,0,0-.32.37c-.22.24-.38.52-.59.78a17.79,17.79,0,0,0-1.12,1.57,6.62,6.62,0,0,1-.47.61,2.62,2.62,0,0,1,0-.28c.07-.2.1-.41.16-.62a9,9,0,0,0,.23-1.17,5.49,5.49,0,0,1,.22-.91c.1-.35.19-.72.27-1.07a1.12,1.12,0,0,0-.17-1.14c-.19-.21-.35-.45-.67-.5a.59.59,0,0,1-.32-.11.76.76,0,0,0-.47-.14c-.37,0-.72,0-1.07-.05-.1,0-.21,0-.26-.1a.27.27,0,0,0-.37-.12,1.66,1.66,0,0,0-.91.8,22.17,22.17,0,0,0-1,2.08c-.32.75-.6,1.5-.88,2.27-.48,1.38-1,2.74-1.36,4.13a.41.41,0,0,0,0,.11A1.5,1.5,0,0,1,.19,33,6,6,0,0,0,0,34.41c0,.27.07.32.35.35a6.48,6.48,0,0,0,.77-.08c.07,0,.11,0,.13-.13s0-.09.08-.09,0,.06,0,.09,0,.13.13.08a.61.61,0,0,0,.26-.33A2.43,2.43,0,0,1,2,33.66a1.38,1.38,0,0,0,.29-.58c.05-.22.16-.45.21-.67s0-.38.06-.58.19-.41.27-.62a13.45,13.45,0,0,1,.74-1.7c.29-.56.56-1.12.88-1.66A4.46,4.46,0,0,1,5,27.08,4.22,4.22,0,0,1,5,28a8.08,8.08,0,0,0-.15,1.1c0,.22-.06.45-.09.69a8.11,8.11,0,0,0-.12,1v.86a1,1,0,0,0,.13.47.19.19,0,0,1,0,.11.53.53,0,0,0,.5.45,2.49,2.49,0,0,0,.67-.13,1.11,1.11,0,0,0,.61-.18,3.18,3.18,0,0,0,.56-.44A8.42,8.42,0,0,1,8,30.78l.39-.4c.12-.13.14-.31.28-.42a1.61,1.61,0,0,0,.4-.53c.15-.24.32-.46.48-.68s.45-.6.68-.88A7.49,7.49,0,0,1,11,27c-.11.32-.22.63-.35.93-.32.75-.61,1.52-.86,2.31A20.05,20.05,0,0,0,9,32.94a6.79,6.79,0,0,0-.15,1.34s0,.1,0,.07.11,0,.15.08a.44.44,0,0,0,.43.25h.19c.34,0,.34,0,.43-.27l0,0,.11.09c.1.13.14.08.18,0a1.38,1.38,0,0,1,.14-.3s0,0,.06,0,0,0,0,0,0,.11,0,.13.08-.07.1-.1,0-.08.09-.06,0,.06,0,.09a.19.19,0,0,0,.08.15c.08,0,0-.1.09-.12s0,.1.05.1a.06.06,0,0,0,0-.08,2.66,2.66,0,0,1,.08-.75c.05-.21,0-.47.17-.63,0,0,0,0,0-.08.13-.25,0-.54.13-.8s0-.51.21-.72a1.4,1.4,0,0,0,.25-.54,12.37,12.37,0,0,1,.53-1.36c.21-.43.37-.9.62-1.31s.28-.69.45-1a4.46,4.46,0,0,0,.34-.59c.05-.16.13-.16.25-.13a.84.84,0,0,1,.34.24c.22.19.29.21.54.05s.18-.18.34-.13c-.1.22-.21.45-.3.66-.34.7-.76,1.36-1.06,2.08a.49.49,0,0,1-.3.35c-.08,0-.08.13-.07.14s0,.23-.05.34-.11.25-.14.38c-.19.61-.38,1.2-.58,1.81a2.64,2.64,0,0,0-.22,1c0,.18.05.22.22.24a1.17,1.17,0,0,1,.42,0,.23.23,0,0,0,.21,0,.38.38,0,0,1,.41,0A2.09,2.09,0,0,0,14.2,33l0-.06c.13,0,.12-.08.13-.13s.05-.27.21-.32,0,0,0-.05c.16-.18.05-.48.27-.62.23-.6.53-1.16.79-1.73a.76.76,0,0,1,.33-.4c.09-.05.28-.07.18-.26,0,0,.05,0,.08,0s.29,0,.43-.06.13,0,.16.08a5.39,5.39,0,0,1,.23.81c.06.48.21.95.29,1.43a9.68,9.68,0,0,0,.22,1.15c.08.22.22.4.32.61a.09.09,0,0,0,.08,0,5.09,5.09,0,0,0,.51.1c.15,0,.24,0,.21-.19s0-.21.1-.24a.17.17,0,0,0,.11-.19.35.35,0,0,1,.14-.34.13.13,0,0,0,.07-.14,6.19,6.19,0,0,1-.15-1c-.05-.37-.09-.74-.16-1.11l-.14-.91c0-.18-.23-.45.11-.59v0c.1-.15.16-.32.35-.36a2.3,2.3,0,0,0,.67-.32c.15,0,.28-.17.42-.2a3.57,3.57,0,0,0,1-.45.88.88,0,0,0,.37-.37c.05-.11.11-.16.19-.14s.23-.12.29-.21a.45.45,0,0,1,.1-.13.4.4,0,0,0,.12-.32A1,1,0,0,0,22.25,25.93ZM10.92,34.12a.81.81,0,0,1-.08-.46s0-.07,0-.07,0,0,0,0A.91.91,0,0,1,10.92,34.12Zm9.92-7.95A7.56,7.56,0,0,1,19,27.24c-.67.27-1.35.53-2,.85a.74.74,0,0,0-.24.11,1,1,0,0,1,.23-.51,10.57,10.57,0,0,0,.62-1.07c.07-.1,0-.21,0-.31s.05-.14.11-.16a14.74,14.74,0,0,1,1.62-.25c.3,0,.59-.07.89-.07a3.23,3.23,0,0,1,.53.08c.05,0,.13,0,.13.12A.19.19,0,0,1,20.84,26.17Z"/><path class="cls-1" d="M64,25.18a.13.13,0,0,1,0-.05h0c0-.06-.11-.11,0-.18s.08-.16,0-.24a.45.45,0,0,0-.19-.05,11.79,11.79,0,0,0-1.57.07l-1.33.17L60,25c-.3.05-.59.06-.9.11a5.48,5.48,0,0,1-1.55.22.39.39,0,0,0-.34.08,2.54,2.54,0,0,0-.32.34c-.12.19-.12.42,0,.5s.23.25.34.36.24.44.53.56.45,0,.67,0c0,0,0,0,0,0a.72.72,0,0,1,.58-.26,1.22,1.22,0,0,0,.27,0s.07-.05.1,0,0,.07,0,.1c-.13.27-.24.54-.35.83-.32.77-.64,1.54-.95,2.31-.37,1-.64,2-.93,3a3.21,3.21,0,0,0-.19.88c0,.16.08.2.22.16s.1-.08.15-.12.3-.27.54-.22a.41.41,0,0,0,.16,0c.28,0,.36-.06.55-.41s.11-.63.43-.82a.11.11,0,0,0,0-.06c.19-.6.48-1.16.69-1.75s.53-1.31.8-2a2.57,2.57,0,0,1,.3-.57,2.62,2.62,0,0,0,.44-.82.84.84,0,0,1,.11-.21c.14-.19.35-.36.32-.64,0-.11.08-.16.16-.17a2.81,2.81,0,0,0,.49-.16,7.41,7.41,0,0,1,1-.18c.17,0,.38-.13.38-.24s.11-.29.24-.38S63.84,25.24,64,25.18Z"/><path class="cls-1" d="M35.53,15.4Z"/><path class="cls-1" d="M35.48,15.3Z"/><polygon class="cls-1" points="20.81 3.91 20.81 3.91 20.81 3.89 20.81 3.91"/><path class="cls-1" d="M17.33,5.72v0L32.57,7.7s0,0,0,0L30.89,6.23c.73,0,1.44,0,2.14.06l1.57.1c.1,0,.14,0,.1-.11s-.13-.32-.21-.48a.39.39,0,0,0-.26-.18,1.44,1.44,0,0,1-.43-.14.12.12,0,0,1,.1,0,4.9,4.9,0,0,0,1.69-.39s.13,0,.13-.08a.9.9,0,0,0-.1-.45c0-.09-.17,0-.25,0a.93.93,0,0,0-.23,0l-3.64-.1-5.11-.12s-.08,0-.11,0c1,.46,1.95.94,2.93,1.41a0,0,0,0,1,0,0Z"/><path class="cls-1" d="M25.73,18c.12,0,.18.15.29.13l0,0v0s0,0,.05,0h0a.21.21,0,0,1,.13-.2c.08,0,.14,0,.19.08s.18.13.2.24,0,0,.06,0h0c.18,0,.29.19.42.28.3.24.59.47.89.69a.17.17,0,0,1,.1.13.71.71,0,0,1,.43.27h0l0,0a.82.82,0,0,1,.47.28h0c.14,0,.3.06.36.22a5.84,5.84,0,0,0,1,.5s0,0,.06,0h0a4.78,4.78,0,0,0,1,.4,10.39,10.39,0,0,1-.87-1.42,7.08,7.08,0,0,1-.53-1.57c-.06,0-.06-.08,0-.13s0-.08,0-.12,0-.05,0-.07,0-.06,0-.09a.48.48,0,0,1,0-.37v-.53a.31.31,0,0,1,0-.32s0-.05,0-.06,0,0,0,0v0c.06,0,.09,0,.14,0a1.94,1.94,0,0,1,.27.21c.11.11.16.07.21-.05a1.88,1.88,0,0,1,.75-.73c.13-.07.26-.11.39-.18a0,0,0,0,1,0,0,8.44,8.44,0,0,0-1.5-.82s-.1,0-.13,0,0,.1,0,.13a8.88,8.88,0,0,1,.5.75v0s0,0,0,0a.39.39,0,0,1-.13-.06,14.12,14.12,0,0,0-2.75-1.51,6.35,6.35,0,0,0-1.09-.37h-.06a.18.18,0,0,1-.23-.07h0c-.06,0-.13,0-.16,0H26.2s-.05,0-.07,0l-.22,0a.77.77,0,0,1,.4,0l.16,0c.05,0,.08,0,.1,0a3.2,3.2,0,0,1,.8.14,11.22,11.22,0,0,1,2.21.92c.09,0,.17.11.2-.07a.28.28,0,0,1,.31-.18l.33.08a8.39,8.39,0,0,1,.9.45.83.83,0,0,0,.35.18,2.85,2.85,0,0,0-.24-.3l0,0h0l0,0,0,0a0,0,0,0,1,0,0s0,0,0-.07l0,0-.09-.1,0,0-.1-.09,0,0,0,0,0,0,0,0,0,0h0l0,0,0,0,0,0h0l0,0-.13-.13c-.09,0-.12-.13-.22-.18a.26.26,0,0,1,.29.12h0s0,0,0,0a4.9,4.9,0,0,1,2.06,2.21c0,.16-.19.14-.28.22s-.1,0-.1.08.06.07.11.08a3,3,0,0,1,.53.29.18.18,0,0,1,.08.19c0,.08-.06.13-.14.13l-.36.08s-.09,0-.11.05.05.05.1.06a8.83,8.83,0,0,0,2.25.56.92.92,0,0,0,.85-.3h0s0,0,.07,0a0,0,0,0,1,0,0,6.71,6.71,0,0,0,.58-.48,2.15,2.15,0,0,1,1-.6s.07,0,.08-.05a.3.3,0,0,0,.11-.24c0-.1-.11-.05-.16-.07a.28.28,0,0,1-.12,0,.13.13,0,0,0-.2,0,.45.45,0,0,1-.54.09,2.45,2.45,0,0,1-.48-.2.22.22,0,0,1-.13-.26.65.65,0,0,1-.3-.18s-.07,0-.08,0,0,0,0-.06,0,0,0,0-.21-.16-.32-.21l0,0a3.68,3.68,0,0,0,.56.85c-.06,0-.11,0-.16,0s0-.05-.06-.07a2.57,2.57,0,0,1-1-1.28,4.47,4.47,0,0,1-.23-2.35,2.14,2.14,0,0,1,.53-1.22,8.87,8.87,0,0,1,1.14-.88.12.12,0,0,0,0-.08,1.62,1.62,0,0,0-.38,0h-.13s0,0-.06,0l0,0s0,0,0,0a4.4,4.4,0,0,1-.89,0c-.56,0-1.12,0-1.73.07a1.3,1.3,0,0,1,.45-.07c.6-.06,1.2-.08,1.8-.11l.1,0h.26a1.81,1.81,0,0,1,.52,0h.23l.29-.11h0s0,0,.08,0a0,0,0,0,1,0,0h0l0,0,.05,0,.19-.09.05,0h0c0-.08-.08-.06-.13-.06-.79-.08-1.57-.19-2.35-.24a1.81,1.81,0,0,1-.31-.05,16.66,16.66,0,0,1,2.35.14l.6.08c.08,0,.14-.06.22,0l.08,0a.32.32,0,0,1,.18-.06.1.1,0,0,1-.08.11s0,0,0,0,.24.08.35.09c.38.07.77.12,1.15.18.54.1,1.07.18,1.62.32l.06,0L38,9.81a7,7,0,0,1-.8-.12H37.1l0,0-.33.28c0,.08,0,.06.1.06l.85,0c.88.07,1.76.08,2.67.24l-2.64-.14c-.33,0-.69,0-1,0a.18.18,0,0,0-.12.05,1,1,0,0,1,0,.1v0c0,.11.11.21.16.32a.94.94,0,0,0,.47.45,8,8,0,0,0,1.85.64,2.83,2.83,0,0,0,1.12,0,2.9,2.9,0,0,0,1.33-.67,1.81,1.81,0,0,0,.56-.75c-.14-.06-.19-.05-.35,0s-.1-.05-.11-.09a.91.91,0,0,1-.16-.24,11.43,11.43,0,0,1-.56-1.43.46.46,0,0,0-.24-.3c-.29-.16-.58-.31-.88-.45a.41.41,0,0,0-.16,0,5.32,5.32,0,0,0-.9,0c-.3,0-.62,0-.78.38,0,0,0,.06-.07.08a.12.12,0,0,1-.06.06.66.66,0,0,1-.14.2.15.15,0,0,1-.12.09.24.24,0,0,1,.1-.14.39.39,0,0,0,.06-.11s0,0,0-.05,0,0,0-.07a.79.79,0,0,1,.53-.52c.44-.12.84-.29,1.28-.45a.06.06,0,0,1,.06,0h0c0-.07.14,0,.11-.13s0,0,0,0h0s-.07,0-.08,0a.61.61,0,0,1-.27,0l-.23,0a.9.9,0,0,1-.37,0h-.12s-.05,0-.07,0a.06.06,0,0,0-.05,0,2.65,2.65,0,0,1-.62.14c-.1,0,0,0,0,0s.16-.11.26-.11h0c0-.06,0,0,.09,0s0,0,.07,0,.28-.09.43-.16S38.91,7,39,7a7.9,7.9,0,0,0-1.19-.15c.05-.14.23-.19.42-.12h.13c0-.08.09-.05.14-.05a2.48,2.48,0,0,0,.46,0c-.2-.1-.36-.29-.6-.31-.05,0-.1,0-.1-.06h-.06c0,.11-.13,0-.18,0-.24,0-.48.1-.72.08,0,0-.06,0-.1,0a1.23,1.23,0,0,1,.6-.23c.08,0,.16-.08.24,0h.06a.57.57,0,0,1,.4-.08,1.58,1.58,0,0,1,.56.26,7,7,0,0,0,.75.32c.11,0,.1,0,.1-.1h0a.14.14,0,0,1-.16-.16h0c-.18,0-.26-.19-.35-.33V6c-.15,0-.21-.11-.26-.22h0a.3.3,0,0,1-.26-.23h0a.26.26,0,0,1-.25-.19h0c-.08,0-.11,0-.13-.09h0c-.08,0-.13,0-.13-.1h0c-.09,0-.13,0-.14-.11-.18,0-.24-.15-.35-.23s0-.06-.08,0a.05.05,0,0,0,0,.06c0,.19-.12.29-.24.4s0,0-.06,0a.11.11,0,0,1,0-.13.83.83,0,0,0,0-.38,5.78,5.78,0,0,0-.13-.93s0-.07,0-.1-.11-.08-.16-.13c-.29-.24-.61-.46-.93-.68-.08-.07-.18-.12-.23-.21l0,0h0a.79.79,0,0,1-.49-.32h0a.53.53,0,0,1-.16,0,2.89,2.89,0,0,0-.56-.27S34.7,2,34.7,2a.1.1,0,0,1-.07,0c-.08.05-.14.05-.19,0l0,0h0c-.08.05-.15,0-.23,0s-.4-.06-.61-.11-.12,0-.16-.08h-.09c-.1.08-.18,0-.26,0s-.3,0-.43-.12h-.13a.19.19,0,0,1-.27-.05s-.05,0-.06,0a.23.23,0,0,1-.21,0,1.2,1.2,0,0,0-.32-.06.07.07,0,0,1-.07-.07h-.06c-.13.08-.24,0-.35,0-.37-.07-.75-.16-1.11-.26,0,0-.12,0-.11-.09S30,1,30,1a6.45,6.45,0,0,1,.88.14l.37,0a.37.37,0,0,0-.23-.1S31,1,31,1h0c-.12.05-.22,0-.32-.1a7.06,7.06,0,0,0-1.9-.57c-.32-.07-.64-.15-.94-.24a1.13,1.13,0,0,0-.77.08c-.21.08-.42.14-.63.24a5.9,5.9,0,0,0-.7.38,1.12,1.12,0,0,0-.34.21H26c.1,0,.22,0,.22.14s-.09.18-.19.19-.24.1-.35,0a.2.2,0,0,0-.1,0,.1.1,0,0,1,0,0,2.12,2.12,0,0,1-.71,0,.25.25,0,0,0-.12,0,.27.27,0,0,1-.24.08l-2,.19c-.44,0-.88.1-1.32.11s-.73.08-1.1.1a.47.47,0,0,0-.19.06s0,.05,0,.07,0,.19,0,.29a.15.15,0,0,0,0,.09.1.1,0,0,1,.08.11c0,.1.05.2.06.29a.21.21,0,0,0,.23.18.33.33,0,0,1,.25,0c.15.09.19.25.08.46a.24.24,0,0,0,.07.34.2.2,0,0,1,.11.2.36.36,0,0,1,.25.28h0a.32.32,0,0,1,.26.25h0a.73.73,0,0,0,.46.07c.24,0,.36.14.31.37s0,.12.11.12h.22c.16,0,.29.08.31.26s.05.11.13.08a.71.71,0,0,1,.25,0h4c.15,0,.29,0,.47,0A1.52,1.52,0,0,0,27,5.19l-.65-.32-.48-.22c-.06,0-.12-.05-.16-.13l0,0s0,0,0,0l-.11,0s0,0,0,0a.14.14,0,0,1-.1,0,.19.19,0,0,1-.16-.08.22.22,0,0,1-.14-.06s0,0,0,0h0l0,0,0,0h-.1l-.05,0h0c-.16-.1-.24,0-.29.12a.87.87,0,0,1-.16.26h0a2,2,0,0,1,.13-.85c0-.11,0-.16-.12-.16-.3,0-.6-.08-.92-.11-.93-.13-1.78-.56-2.69-.66a.58.58,0,0,1,.77-.19,1,1,0,0,0,.25.08A15,15,0,0,0,23.62,3h.1a.17.17,0,0,1,.11,0,.17.17,0,0,0-.11,0,3.21,3.21,0,0,0,.88.1s.08,0,.09-.05h0c.16-.31.32-.6.48-.9h0s0-.05,0-.06,0-.13.09-.13,0,0,0-.05a0,0,0,0,0,0,0h0c0,.1,0,.18,0,.27a11.58,11.58,0,0,1-.36,1.14v0h0a2.46,2.46,0,0,0-.19.4c-.08.16-.08.17.1.19h.35a.82.82,0,0,1,.35,0h.26c.61,0,1.23,0,1.84,0a.71.71,0,0,1,.29,0h.37l1.6,0h.17a1.37,1.37,0,0,1,.35,0c.61,0,1.24,0,1.84,0a2.33,2.33,0,0,1,.53,0c.61,0,1.23,0,1.84,0h.15a.22.22,0,0,1,.16,0,.25.25,0,0,1,.17,0s0,0,.07,0,0,0,0,0-.16-.18-.27-.23h0s-.07,0-.07-.06a.1.1,0,0,1-.14-.1c-.07,0-.1,0-.1-.09a1.05,1.05,0,0,1-.21-.24c.12.06.18.11.24.14a.1.1,0,0,1,.1.07l0,0c.08,0,.18,0,.19.16s.13,0,.16.11h0a.77.77,0,0,1,.45.31c.16,0,.16.17.23.27s0,.11.06.16c.11-.21,0-.4,0-.61,0-.05,0-.13,0-.16s.11.06.13.13a4.16,4.16,0,0,1,.13.59c0,.1-.07.21-.1.3a.34.34,0,0,0,.26.48.6.6,0,0,0,.32,0c.08,0,.14,0,.16.11s-.08,0-.13.07a2.28,2.28,0,0,1-.69.13c-.11,0-.16.14-.08.27a2.37,2.37,0,0,0,.23.3s.09.08,0,.13a.12.12,0,0,1-.17,0c-.11-.11-.18,0-.27,0a1.27,1.27,0,0,1-1.06.23,2.79,2.79,0,0,0-.58,0c-.54,0-1.07.08-1.61.06l-.35,0c0,.1.09.13.16.21s.09.06.09.14h0a.69.69,0,0,1,.42.36h0a.65.65,0,0,1,.43.35h0c.13,0,.24.06.26.22h0s.08,0,.09,0,0,0,0,.07h0a1,1,0,0,1-.41,0h-.08s-.1,0-.13-.07h-.06a1.35,1.35,0,0,0-.18,0c-.82-.09-1.63-.21-2.45-.3l-2.48-.32-2.94-.39L23.13,7c-.13,0-.18,0-.21.14A15.6,15.6,0,0,0,22.5,10a.28.28,0,0,0,0,.17l.31-.38V10a10.13,10.13,0,0,0,0,1.65,10.13,10.13,0,0,0,.28,1.9A10.49,10.49,0,0,0,24.66,17,12.89,12.89,0,0,1,25.73,18Zm10.58-1.58a.9.9,0,0,1-.51.21,2,2,0,0,1-.88-.1.24.24,0,0,1-.16-.09,2.32,2.32,0,0,1-.42-.9,2,2,0,0,1,.48.48.67.67,0,0,0,.37.24A4,4,0,0,0,36.31,16.44Zm1-6a12.29,12.29,0,0,1,3.09,0ZM20.82,2.61s0,0,0,0S20.84,2.63,20.82,2.61Zm19.75,7.2A11.09,11.09,0,0,0,39.27,9,2.46,2.46,0,0,1,40.57,9.81Zm-2.94-.89a1.59,1.59,0,0,0,.43,0,.62.62,0,0,1,.72.22c.09.18.27.21.43.27s.32.11.5.18a.07.07,0,0,1,.06.08,3.72,3.72,0,0,1,.7.33,5.16,5.16,0,0,1-.83-.3c-.43-.14-.86-.26-1.29-.42a1.53,1.53,0,0,0-.82,0,1.18,1.18,0,0,1-.43,0,2.14,2.14,0,0,1,.46-.19,4.32,4.32,0,0,0-.64-.19.71.71,0,0,0-.22-.07,1.35,1.35,0,0,1,.45,0C37.31,8.81,37.47,8.9,37.63,8.92ZM36.74,7a.57.57,0,0,1-.4.9A3.44,3.44,0,0,0,36.74,7Zm-.11,1a.68.68,0,0,0,.27-.53c0-.06,0-.13.05-.21a.76.76,0,0,1-.7,1.14C36.39,8.33,36.5,8.18,36.63,8.07Z"/><path class="cls-1" d="M35.54,14.31a.11.11,0,0,0,.07.16,6.2,6.2,0,0,0,.77.43c-.07-.22-.13-.4-.18-.57a9.42,9.42,0,0,1-.26-2,.49.49,0,0,0-.12-.34,4.43,4.43,0,0,0-.68-.62c-.08-.07-.11-.05-.17,0a1.72,1.72,0,0,0-.31.8c-.11.55-.06.66.44.9.17.08.22.16.12.32a.15.15,0,0,0,0,.06c-.05.1,0,.15.08.21.4.23.37.1.25.61Z"/><path class="cls-1" d="M41.07,8.25c0-.18-.12-.29-.15-.45a1,1,0,0,1-.13-.19c.1,0,.15.08.16.16h0s0,0,0,0a2.47,2.47,0,0,1,.36,1.13,2.27,2.27,0,0,0,.58,0,.48.48,0,0,1,.35.14c.11.12.26.23.37.34l.05,0a.28.28,0,0,1,0-.09,6.26,6.26,0,0,0-1.82-1.84.41.41,0,0,0-.14-.08,1.84,1.84,0,0,0-1.27.2A3.44,3.44,0,0,1,41.07,8.25Z"/><path class="cls-1" d="M39.79,12.1a4.78,4.78,0,0,1-1.08-.17c-.11,0-.09,0-.11.11a1.72,1.72,0,0,1-.41,1c-.1.11-.18.24-.29.38A5.43,5.43,0,0,0,39.79,12.1Z"/><path class="cls-1" d="M34.63,5.67a2.66,2.66,0,0,1,.39.66c0,.09.08.11.17.09A1,1,0,0,0,35.88,6a1.22,1.22,0,0,0,0-.33c0-.07-.07-.15-.13,0a.73.73,0,0,1-.24.29c0-.16.11-.3.16-.48A3.41,3.41,0,0,1,34.63,5.67Z"/><path class="cls-1" d="M36.55,15.74c.1,0,.19.09.29,0a5.28,5.28,0,0,0,.95-.94.51.51,0,0,0,.12-.31l-.14.1a5.51,5.51,0,0,1-1.14.62.38.38,0,0,0-.19.16C36.26,15.67,36.23,15.59,36.55,15.74Z"/><path class="cls-1" d="M41.67,9.25a.52.52,0,0,1,.48.1.69.69,0,0,0,.32.26c.05,0,.12,0,.13,0s-.08,0-.09-.08a1,1,0,0,0-1.09-.36.08.08,0,0,1,0,.06s0,.06,0,.1a6.46,6.46,0,0,1,.33.76c.16.15.36.08.55.08,0-.06,0-.06,0-.06H42a.14.14,0,0,1-.16-.1c-.06-.2-.14-.4-.21-.6C41.63,9.33,41.61,9.29,41.67,9.25Z"/><path class="cls-1" d="M38.39,14.65a.27.27,0,0,0-.22.14,1.91,1.91,0,0,1-.37.51c-.11.12-.24.21-.35.32C37.64,15.64,38.27,15,38.39,14.65Z"/><path class="cls-1" d="M39.18,13.16a2.75,2.75,0,0,0,.75-.61.68.68,0,0,0,.22-.27.91.91,0,0,0-.27.22c-.24.21-.49.42-.73.61a.38.38,0,0,0-.18.13.37.37,0,0,0-.24.17,2.85,2.85,0,0,0,.3-.16Z"/></g></g></svg>