<svg xmlns="http://www.w3.org/2000/svg" viewBox="0 0 64 18.77"><defs><style>.cls-1{fill:#fff;}</style></defs><g id="Layer_2" data-name="Layer 2"><g id="Capa_1" data-name="Capa 1"><path class="cls-1" d="M18.11,4.41q-1.63,5.25-3.24,10.48c-.09.27-.17.53-.25.79s-.09.27-.14.4-.11.25-.18.38a3.42,3.42,0,0,1-1.81,1.62,5.84,5.84,0,0,1-1.7.34c-.54,0-1.19,0-1.74,0s-1.19,0-1.73,0a5.77,5.77,0,0,1-1.7-.34A3.48,3.48,0,0,1,3.8,16.46l-.17-.38c0-.13-.09-.26-.14-.4s-.17-.52-.25-.79C2.16,11.41,1.09,7.92,0,4.41c.6,0,1.33,0,1.92.1a6.34,6.34,0,0,1,1.87.42,3.06,3.06,0,0,1,1.4,1.26A8.3,8.3,0,0,1,5.91,8l3,9.43h.36s1.61-5.1,3-9.43a8.82,8.82,0,0,1,.71-1.78,3.08,3.08,0,0,1,1.41-1.26,6,6,0,0,1,1.87-.41C16.79,4.46,17.51,4.44,18.11,4.41Z"/><path class="cls-1" d="M63.2,7H60.28v5.05c0,2.49.76,3.25,3.72,2.89v3.59l-1.13.15-1.14.08a7.84,7.84,0,0,1-2.26-.2,5.09,5.09,0,0,1-3.93-5.11V7H53.41V4.41h2.13a10,10,0,0,1,.18-1.89A2.87,2.87,0,0,1,56.63.88,3.68,3.68,0,0,1,58.37.15,13.54,13.54,0,0,1,60.28,0V4.41H63.2V7"/><path class="cls-1" d="M34.58,11.33c0-4.6-3-7.33-8.31-7.33-5.15,0-8.44,2.84-8.44,7.49s3.29,7.28,8.67,7.28c3.59,0,6.32-1.34,7.77-3.65l-3.59-1.65a4.54,4.54,0,0,1-4,2c-2.46,0-4.05-1.17-4.21-3.07H34.58ZM29.84,9.85H22.4c.14-1.95,1.53-3.12,3.82-3.12s3.62,1.14,3.62,3Z"/><path class="cls-1" d="M40.55,8h.36a11.68,11.68,0,0,1,.4-1.13,4.66,4.66,0,0,1,.61-1,4.29,4.29,0,0,1,1.91-1.4A7.81,7.81,0,0,1,46.54,4c3.87,0,5.93,2.25,5.93,6.57v7.78H47.65V11.24c0-2.48-1-3.68-3.18-3.68s-3.59,1.45-3.59,4v6.8H36.06V4.41a8.36,8.36,0,0,1,1.57.16A3.31,3.31,0,0,1,39,5.25a3.74,3.74,0,0,1,1,1.24A11.46,11.46,0,0,1,40.55,8Z"/></g></g></svg>