<svg xmlns="http://www.w3.org/2000/svg" viewBox="0 0 64 15.74"><defs><style>.cls-1{fill:#fff;}</style></defs><g id="Layer_2" data-name="Layer 2"><g id="Capa_1" data-name="Capa 1"><polygon class="cls-1" points="7.19 0.29 4.79 2.69 9.59 7.48 7.19 9.87 2.4 5.08 0 7.48 7.19 14.67 14.38 7.48 7.19 0.29"/><polygon class="cls-1" points="11.07 2.4 16.15 7.48 10.95 12.69 13.34 15.08 16.15 12.27 18.55 9.87 20.95 7.48 13.47 0 11.07 2.4"/><path class="cls-1" d="M28.92,4.8a2.6,2.6,0,0,1-.06.56,2,2,0,0,1-.17.49,1,1,0,0,1-.35.34A1.07,1.07,0,0,1,27,5.86a1.61,1.61,0,0,1-.19-.49,2.6,2.6,0,0,1-.06-.56V2.14H25.5V4.81a3.62,3.62,0,0,0,.13,1,2.37,2.37,0,0,0,.4.83,1.9,1.9,0,0,0,.72.57,2.42,2.42,0,0,0,1.06.21,2.7,2.7,0,0,0,1.05-.21,1.82,1.82,0,0,0,.71-.55A2.26,2.26,0,0,0,30,5.82a3.47,3.47,0,0,0,.14-1V2.14h-1.2Z"/><path class="cls-1" d="M31.93,5.18a.88.88,0,0,1,.21-.34.76.76,0,0,1,.3-.23.66.66,0,0,1,.33-.09.49.49,0,0,1,.38.17.82.82,0,0,1,.14.55V7.36h1.18V4.93a3.89,3.89,0,0,0,0-.49A1.63,1.63,0,0,0,34.27,4a1,1,0,0,0-.36-.34,1.12,1.12,0,0,0-.6-.13,2,2,0,0,0-.63.08,1.75,1.75,0,0,0-.5.23,1.52,1.52,0,0,0-.37.39V3.55H30.75V7.36h1.18Z"/><path class="cls-1" d="M38.81,6.38a.28.28,0,0,1-.2-.08.42.42,0,0,1,0-.24v-1a1.47,1.47,0,0,0-.49-1.18,2,2,0,0,0-1.34-.4,3,3,0,0,0-1.68.5l.35.75a2.52,2.52,0,0,1,.6-.33,1.39,1.39,0,0,1,.6-.11.8.8,0,0,1,.58.17.57.57,0,0,1,.2.47v.17A1.85,1.85,0,0,0,37,5a3.57,3.57,0,0,0-.46,0,2.11,2.11,0,0,0-.86.18,1.35,1.35,0,0,0-.59.44,1,1,0,0,0-.21.65,1.06,1.06,0,0,0,.17.62,1.32,1.32,0,0,0,.48.43,1.49,1.49,0,0,0,.69.16A1.79,1.79,0,0,0,37,7.26a1.75,1.75,0,0,0,.61-.5l0,.17a.58.58,0,0,0,.21.36.77.77,0,0,0,.51.13h.22l.28,0Zm-1.43-.31a.25.25,0,0,1-.06.15.57.57,0,0,1-.13.14,1.22,1.22,0,0,1-.29.17,1.13,1.13,0,0,1-.36.06.62.62,0,0,1-.3-.06.55.55,0,0,1-.2-.17A.41.41,0,0,1,36,6.12a.42.42,0,0,1,.22-.36.92.92,0,0,1,.53-.14,1.87,1.87,0,0,1,.34,0,2,2,0,0,1,.33.09Z"/><path class="cls-1" d="M43,7.36V4.93a2.63,2.63,0,0,0,0-.49A1.31,1.31,0,0,0,42.77,4a.88.88,0,0,0-.35-.34,1.18,1.18,0,0,0-.61-.13,1.86,1.86,0,0,0-.62.08,2,2,0,0,0-.51.23,1.71,1.71,0,0,0-.37.39V3.55H39.26V7.36h1.17V5.18a1.2,1.2,0,0,1,.21-.34A.87.87,0,0,1,41,4.61a.63.63,0,0,1,.33-.09.52.52,0,0,1,.38.17.94.94,0,0,1,.14.55V7.36Z"/><rect class="cls-1" x="43.61" y="2" width="1.18" height="1.06"/><rect class="cls-1" x="43.61" y="3.5" width="1.18" height="3.86"/><path class="cls-1" d="M51.34,4A.84.84,0,0,0,51,3.62a1.21,1.21,0,0,0-.59-.13,1.65,1.65,0,0,0-.82.19,1.53,1.53,0,0,0-.59.54.91.91,0,0,0-.33-.51,1.07,1.07,0,0,0-.73-.22,1.81,1.81,0,0,0-.85.18,1.41,1.41,0,0,0-.58.53V3.55h-1V7.36h1.17V5.18A1.15,1.15,0,0,1,47,4.7a.78.78,0,0,1,.46-.18.46.46,0,0,1,.36.17.94.94,0,0,1,.14.55V7.36h1.17V5.19a1,1,0,0,1,.33-.48.76.76,0,0,1,.46-.19.44.44,0,0,1,.36.18.93.93,0,0,1,.14.54V7.36h1.17V4.92a2.7,2.7,0,0,0,0-.49A1.48,1.48,0,0,0,51.34,4Z"/><path class="cls-1" d="M54.87,3.65A2.14,2.14,0,0,0,54,3.49a2.22,2.22,0,0,0-.88.16,1.92,1.92,0,0,0-.65.44,2,2,0,0,0-.4.63,2.15,2.15,0,0,0,0,1.5,2,2,0,0,0,.4.63,2,2,0,0,0,.65.42,2.22,2.22,0,0,0,.88.16,2.13,2.13,0,0,0,.87-.15,1.8,1.8,0,0,0,.65-.43,1.87,1.87,0,0,0,.4-.64,2,2,0,0,0,0-1.5A1.83,1.83,0,0,0,54.87,3.65ZM54.74,6a.78.78,0,0,1-.31.34A.83.83,0,0,1,53.25,6a1,1,0,0,1-.11-.52,1.22,1.22,0,0,1,.11-.5,1,1,0,0,1,.31-.35.85.85,0,0,1,.87,0,.87.87,0,0,1,.31.35A1.21,1.21,0,0,1,54.74,6Z"/><path class="cls-1" d="M60.19,6.06V3.55H59V5.9a1.11,1.11,0,0,1-.25.32,1,1,0,0,1-.28.17,1.06,1.06,0,0,1-.31.05.49.49,0,0,1-.4-.18.84.84,0,0,1-.13-.53V3.55H56.46V6a1.59,1.59,0,0,0,.31,1.07,1.07,1.07,0,0,0,.89.37,2.06,2.06,0,0,0,.88-.17,1.56,1.56,0,0,0,.66-.56l0,.24a.57.57,0,0,0,.23.36.83.83,0,0,0,.49.12h.22l.28,0v-1a.3.3,0,0,1-.2-.08A.4.4,0,0,1,60.19,6.06Z"/><path class="cls-1" d="M63.84,5.65a1.21,1.21,0,0,0-.47-.34,5.84,5.84,0,0,0-.8-.28l-.34-.11a.56.56,0,0,1-.2-.11A.28.28,0,0,1,62,4.63.27.27,0,0,1,62,4.46a.42.42,0,0,1,.17-.1.91.91,0,0,1,.23,0,1.45,1.45,0,0,1,.5.11,3.42,3.42,0,0,1,.59.33L64,4a2.08,2.08,0,0,0-.7-.42,2.59,2.59,0,0,0-.78-.12,2.12,2.12,0,0,0-.86.16,1.32,1.32,0,0,0-.55.44,1.22,1.22,0,0,0-.2.66.93.93,0,0,0,.15.52,1.24,1.24,0,0,0,.44.35c.24.1.49.2.74.28s.27.07.37.11a.65.65,0,0,1,.22.11.21.21,0,0,1,.08.17.23.23,0,0,1-.13.21.61.61,0,0,1-.35.07,1.69,1.69,0,0,1-.63-.13,2.93,2.93,0,0,1-.69-.39l-.4.74a2,2,0,0,0,.79.48,2.85,2.85,0,0,0,1,.16,1.82,1.82,0,0,0,1.15-.33A1.09,1.09,0,0,0,64,6.2.89.89,0,0,0,63.84,5.65Z"/><path class="cls-1" d="M29.08,13.42a1.81,1.81,0,0,1-.61.33,2.06,2.06,0,0,1-.65.11,1.75,1.75,0,0,1-.81-.19,2.12,2.12,0,0,1-.67-.52,2.64,2.64,0,0,1-.44-.74,2.35,2.35,0,0,1-.16-.87,2.81,2.81,0,0,1,.13-.82,2.29,2.29,0,0,1,.41-.73,2,2,0,0,1,.64-.54,2,2,0,0,1,.88-.2,2.16,2.16,0,0,1,.61.1,1.61,1.61,0,0,1,.58.3,1.78,1.78,0,0,1,.45.57l.31-.17A2.06,2.06,0,0,0,29,9.23a2.21,2.21,0,0,0-1.2-.32A2.33,2.33,0,0,0,26,9.75a2.76,2.76,0,0,0-.64,1.76,2.8,2.8,0,0,0,.18,1,2.77,2.77,0,0,0,.5.86,2.58,2.58,0,0,0,.78.61,1.93,1.93,0,0,0,1,.23,2.28,2.28,0,0,0,.82-.14,2.5,2.5,0,0,0,.75-.41,1.75,1.75,0,0,0,.51-.66l-.33-.15A1.71,1.71,0,0,1,29.08,13.42Z"/><path class="cls-1" d="M33.35,13.69V11.8a1.49,1.49,0,0,0-.4-1.1,1.44,1.44,0,0,0-1.08-.4,1.84,1.84,0,0,0-.69.13,3.11,3.11,0,0,0-.72.38l.16.26a2.72,2.72,0,0,1,.63-.34,1.52,1.52,0,0,1,.59-.12,1.11,1.11,0,0,1,.84.31,1.19,1.19,0,0,1,.31.84v.36a3.65,3.65,0,0,0-.57-.14,4.07,4.07,0,0,0-.61-.05,2.39,2.39,0,0,0-.83.15,1.29,1.29,0,0,0-.56.39.93.93,0,0,0-.21.6,1.25,1.25,0,0,0,.16.6,1.1,1.1,0,0,0,.46.42,1.33,1.33,0,0,0,.65.16,2.16,2.16,0,0,0,.87-.19,1.75,1.75,0,0,0,.68-.52v.31a.34.34,0,0,0,.08.21.4.4,0,0,0,.22.12h.18v-.3a.17.17,0,0,1-.12-.06A.15.15,0,0,1,33.35,13.69ZM33,13a.42.42,0,0,1,0,.16.72.72,0,0,1-.11.19,1.29,1.29,0,0,1-.53.39,1.82,1.82,0,0,1-.76.16,1.1,1.1,0,0,1-.51-.12.93.93,0,0,1-.35-.33.8.8,0,0,1-.12-.45.68.68,0,0,1,.35-.61,1.76,1.76,0,0,1,.93-.23,3,3,0,0,1,.59.06,2.81,2.81,0,0,1,.55.15Z"/><path class="cls-1" d="M37.42,10.91a1.78,1.78,0,0,0-.57-.45,1.71,1.71,0,0,0-.74-.17,1.59,1.59,0,0,0-.82.23,2,2,0,0,0-.62.6v-.77h-.34v5.39h.36V13.35a2.1,2.1,0,0,0,.62.64,1.62,1.62,0,0,0,.88.26,1.66,1.66,0,0,0,.92-.28,1.86,1.86,0,0,0,.61-.72,2.23,2.23,0,0,0,.22-1,2,2,0,0,0-.13-.73A2,2,0,0,0,37.42,10.91Zm0,2a1.78,1.78,0,0,1-.29.52,1.37,1.37,0,0,1-.46.37,1.19,1.19,0,0,1-.61.14,1.29,1.29,0,0,1-.58-.13,1.72,1.72,0,0,1-.49-.36,2,2,0,0,1-.34-.51V11.65a.86.86,0,0,1,.16-.38,1.77,1.77,0,0,1,.33-.34,1.94,1.94,0,0,1,.43-.22,1.25,1.25,0,0,1,.42-.08,1.35,1.35,0,0,1,.6.13,1.6,1.6,0,0,1,.49.36,1.66,1.66,0,0,1,.44,1.15A1.72,1.72,0,0,1,37.46,12.87Z"/><rect class="cls-1" x="38.67" y="9.05" width="0.37" height="0.43"/><rect class="cls-1" x="38.67" y="10.35" width="0.37" height="3.82"/><path class="cls-1" d="M41.44,13.82a.87.87,0,0,1-.39.07.5.5,0,0,1-.33-.1.44.44,0,0,1-.15-.32V10.66h.89v-.31h-.89V9.05H40.2v1.3h-.54v.31h.54v2.89a.61.61,0,0,0,.38.61,1,1,0,0,0,.37.08,1.65,1.65,0,0,0,.38-.05,1.57,1.57,0,0,0,.28-.1l.14-.08-.11-.29Z"/><path class="cls-1" d="M45.07,13.69V11.8a1.49,1.49,0,0,0-.4-1.1,1.43,1.43,0,0,0-1.08-.4,1.79,1.79,0,0,0-.68.13,3,3,0,0,0-.73.38l.16.26a2.94,2.94,0,0,1,.63-.34,1.53,1.53,0,0,1,.6-.12,1.06,1.06,0,0,1,1.14,1.15v.36a3.53,3.53,0,0,0-.56-.14,4.3,4.3,0,0,0-.61-.05,2.31,2.31,0,0,0-.83.15,1.33,1.33,0,0,0-.57.39.87.87,0,0,0-.2.6,1.14,1.14,0,0,0,.15.6,1.1,1.1,0,0,0,.46.42,1.33,1.33,0,0,0,.65.16,2.34,2.34,0,0,0,.86-.19,1.72,1.72,0,0,0,.68-.52v.31a.43.43,0,0,0,.09.21.34.34,0,0,0,.22.12h.18v-.3a.17.17,0,0,1-.12-.06A.18.18,0,0,1,45.07,13.69ZM44.71,13a.41.41,0,0,1,0,.16,1.18,1.18,0,0,1-.11.19,1.36,1.36,0,0,1-.53.39,1.83,1.83,0,0,1-.77.16,1.13,1.13,0,0,1-.51-.12,1,1,0,0,1-.35-.33.89.89,0,0,1-.12-.45.71.71,0,0,1,.35-.61,1.81,1.81,0,0,1,.93-.23,2.88,2.88,0,0,1,.59.06,2.64,2.64,0,0,1,.55.15Z"/><path class="cls-1" d="M47.09,13.88l-.24,0a.38.38,0,0,1-.29-.1.52.52,0,0,1-.11-.36V9.05h-.37v4.5a.69.69,0,0,0,.19.51.65.65,0,0,0,.49.19,1.88,1.88,0,0,0,.33-.05,1.77,1.77,0,0,0,.31-.08l-.08-.3A.79.79,0,0,1,47.09,13.88Z"/></g></g></svg>