<svg xmlns="http://www.w3.org/2000/svg" viewBox="0 0 100 10.55"><defs><style>.cls-1{fill:#fff;}</style></defs><g id="Layer_2" data-name="Layer 2"><g id="Capa_1" data-name="Capa 1"><path class="cls-1" d="M66.18,0l3.45,9.41L71,9.18V1.6L70,1.37c-.16,0-.23-.1-.22-.26a2,2,0,0,0,0-.34l.11,0c1.43,0,2.86,0,4.28.05a3.19,3.19,0,0,1,1.66.55,1.83,1.83,0,0,1,.75,1.92,2.26,2.26,0,0,1-1.72,1.9c-.23.07-.47.12-.76.19l.32.1a2,2,0,0,1,1.36,1L76.66,8c.18.3.36.59.55.88a1.29,1.29,0,0,0,.68.53,1,1,0,0,0,1-.2A.24.24,0,0,0,78.94,9l0-7.26c0-.13,0-.19-.16-.22s-.49-.13-.73-.18a.19.19,0,0,1-.17-.21c0-.13,0-.26,0-.4h.17c1.51,0,3,0,4.53.06a4.55,4.55,0,0,1,2,8.53,4.25,4.25,0,0,1-2.17.63c-1.09,0-2.19,0-3.28.07a.89.89,0,0,0-.39.12,2.15,2.15,0,0,1-3.16-.76c-.54-.92-1.06-1.85-1.6-2.77a1.6,1.6,0,0,0-.66-.7,4.89,4.89,0,0,0-.65-.26c0,.11,0,.17,0,.22l0,3.14c0,.15,0,.22.19.24a6.39,6.39,0,0,1,.63.13c.23,0,.33.15.3.38a1.91,1.91,0,0,0,0,.24H67c-.1,0-.25.08-.29-.11s0-.46.2-.51a4.7,4.7,0,0,1,.63-.13c.18,0,.22-.11.16-.27-.28-.8-.56-1.59-.86-2.38,0-.08-.16-.15-.26-.15l-1.68,0h-.85a.28.28,0,0,0-.19.11c-.33.87-.65,1.74-1,2.61,0,0,0,0,0,.08.21,0,.41.11.62.15s.23.1.22.26,0,.23,0,.36H60.85a3.88,3.88,0,0,1,0-.48A.26.26,0,0,1,61,9.4l.56-.16A.44.44,0,0,0,61.9,9L63.8,4.3l1-2.5a.8.8,0,0,0,.05-.66s0-.13.06-.16l1-.83ZM80.63,1.6v.26c0,.82,0,1.65,0,2.47V8.82c0,.32,0,.34.31.35s.89,0,1.33,0a3.11,3.11,0,0,0,2.88-2.62,6.76,6.76,0,0,0,.06-1.8A3.53,3.53,0,0,0,85,3.63a2.93,2.93,0,0,0-2-1.9A9.63,9.63,0,0,0,80.63,1.6ZM72.7,4.93h.55a1.69,1.69,0,0,0,1.69-1.47A1.46,1.46,0,0,0,74,1.72a11,11,0,0,0-1.34-.21Zm-6.17.72L65.41,2.6h-.07l-1.16,3Z"/><path class="cls-1" d="M23.43,10a3.37,3.37,0,0,1,0-.46.15.15,0,0,1,.11-.12A3.17,3.17,0,0,1,24,9.29a.68.68,0,0,0,.54-.48c.5-1.23,1-2.46,1.5-3.69s.9-2.22,1.34-3.34a3.75,3.75,0,0,0,.11-.6A.36.36,0,0,1,27.54,1l1-.88A.79.79,0,0,1,28.73,0c.05.1.09.19.13.29C29.91,3.19,31,6.07,32,8.94c.19.51.08.47.67.37l.57-.12.1-7.59-1.17-.27V.76h2.24a.47.47,0,0,1,.4.19l5.34,6.3.2.22c0-.14,0-.22,0-.3,0-1.79-.06-3.59-.08-5.38,0-.15,0-.21-.2-.23l-.87-.2V.77h3.14a3.26,3.26,0,0,1,0,.45c0,.05-.07.11-.13.12a4.55,4.55,0,0,1-.66.17.3.3,0,0,0-.28.35c0,1.64,0,3.27-.07,4.91L41.16,10c0,.11,0,.22,0,.33a.46.46,0,0,1-.55-.14l-1.74-2L34.53,3.09l-.32-.34c0,.14,0,.24,0,.33,0,1.93.05,3.87.08,5.8,0,.35,0,.35.36.4l.43.09c.4.09.45.2.31.62H29.3c-.1-.4,0-.52.35-.63a3.78,3.78,0,0,1,.46-.1c.17,0,.22-.1.18-.25a5.54,5.54,0,0,0-.17-.58c-.23-.63-.45-1.26-.69-1.89a.19.19,0,0,0-.14-.11l-2.64,0a.34.34,0,0,0-.24.18c-.3.78-.59,1.57-.89,2.35-.05.14,0,.21.12.25s.37.11.56.15a.16.16,0,0,1,.15.18c0,.5,0,.4-.39.4H23.43Zm3.34-4.36a15,15,0,0,0,2.32,0L28,2.6H27.9Z"/><path class="cls-1" d="M100,9.42V10H96.21a3.15,3.15,0,0,1,0-.44.23.23,0,0,1,.15-.15c.28-.09.57-.15.88-.23a1.26,1.26,0,0,0-.07-.25l-.85-2.34a.2.2,0,0,0-.24-.16l-2.58,0a.19.19,0,0,0-.22.14c-.28.8-.58,1.6-.88,2.39-.07.19,0,.26.16.29l.27.06c.4.09.47.2.4.65h-.39l-5.32,0c-.09,0-.24.08-.27-.1s0-.42.18-.48l.69-.18.22-.06V9c0-2.38,0-4.76,0-7.13,0-.19,0-.28-.23-.31s-.45-.1-.67-.15-.2-.08-.19-.23,0-.25,0-.36h3.91a3.16,3.16,0,0,1,0,.44.23.23,0,0,1-.14.13l-1,.24v.26L90.1,9c0,.14,0,.23.19.25s.21.07.32.08a.64.64,0,0,0,.8-.46q1.41-3.48,2.84-7a1.06,1.06,0,0,0,.11-.78A.22.22,0,0,1,94.44,1l.94-.76c.24-.2.29-.17.39.11.59,1.61,1.17,3.22,1.76,4.82.43,1.17.9,2.33,1.29,3.51a.91.91,0,0,0,.81.69ZM96,5.65,94.9,2.6h-.08L93.65,5.65Z"/><path class="cls-1" d="M51,3.64c0-.09-.07-.18-.11-.27a3.34,3.34,0,0,0-2.21-2.09,2.93,2.93,0,0,0-3.14,1,4.8,4.8,0,0,0-1,3.45,7.8,7.8,0,0,0,.2,1.37A3.24,3.24,0,0,0,47,9.54a3.45,3.45,0,0,0,2.78-.41.32.32,0,0,0,.13-.24c0-.88,0-1.76,0-2.64,0-.12,0-.18-.15-.2L49.2,5.9c-.32-.09-.33-.1-.32-.43,0,0,0-.11,0-.17h3.53c.06.33,0,.4-.23.52,0,0,0,0-.08,0-.42.09-.51.36-.5.76,0,1,0,2.09,0,3.14V10a2.14,2.14,0,0,1-.37-.1,3.08,3.08,0,0,1-.55-.33c-.14-.12-.24-.09-.39,0a4.92,4.92,0,0,1-6.41-.76,4.72,4.72,0,0,1-1.12-2.79,5.17,5.17,0,0,1,7-5.3l.48.18a.3.3,0,0,0,.4-.11,1.89,1.89,0,0,1,.25-.31c0-.06.16-.12.21-.1a.31.31,0,0,1,.19.2,5.85,5.85,0,0,1,0,.73c0,.61,0,1.22,0,1.83C51.28,3.39,51.25,3.57,51,3.64Z"/><path class="cls-1" d="M52.53.76h3.73c0,.17,0,.33,0,.49s-.08.09-.12.11a5.3,5.3,0,0,1-.55.1.36.36,0,0,0-.36.35c0,.22,0,.44,0,.66,0,1.61,0,3.22.05,4.82a2.18,2.18,0,0,0,2.19,2.16,4.43,4.43,0,0,0,1-.09,2.27,2.27,0,0,0,1.65-1.5.44.44,0,0,0,0-.16v-6s0-.05,0-.1c-.27-.07-.55-.16-.83-.22S59,1.26,59,1.06a2.59,2.59,0,0,0,0-.28h3.08a3.38,3.38,0,0,1,0,.45.27.27,0,0,1-.14.14L61,1.6v.19C61,3.53,61,5.27,60.94,7A3.24,3.24,0,0,1,60,9.44a3.64,3.64,0,0,1-2.22,1,3.8,3.8,0,0,1-3.56-1.36,2.66,2.66,0,0,1-.62-1.66c0-1.87,0-3.73-.07-5.6,0-.18,0-.26-.23-.29s-.37-.1-.56-.13a.21.21,0,0,1-.22-.24C52.54,1,52.53.9,52.53.76Z"/><path class="cls-1" d="M15.85,10h-3.8a.43.43,0,0,1,0-.05c0-.5,0-.49.48-.62.67-.18.58-.07.38-.69s-.51-1.44-.77-2.17H9.3a.21.21,0,0,0-.15.11c-.31.81-.61,1.63-.92,2.44,0,.13,0,.2.12.23a4.81,4.81,0,0,1,.54.16A.23.23,0,0,1,9,9.58a2.87,2.87,0,0,1,0,.42H6.23c.07-.29.16-.55.46-.64a.93.93,0,0,0,.6-.63c.92-2.28,1.86-4.56,2.79-6.84.09-.23.22-.45.09-.72,0,0,0-.14.07-.17.37-.33.75-.64,1.12-1l.09,0a.82.82,0,0,1,.09.19c.43,1.16.84,2.33,1.27,3.49.61,1.68,1.25,3.35,1.85,5a.86.86,0,0,0,.75.63C15.84,9.41,15.9,9.53,15.85,10ZM10.71,2.65h-.08l-1.16,3h2.35Z"/><path class="cls-1" d="M21.45,7.53,23.76,1.6A7.48,7.48,0,0,0,23,1.39c-.21,0-.3-.13-.26-.34a2.42,2.42,0,0,0,0-.27H26a3.68,3.68,0,0,1,0,.47c0,.05-.1.11-.16.12a6.6,6.6,0,0,1-.77.17.35.35,0,0,0-.29.24L21.45,9.7a4.37,4.37,0,0,1-.23.49.26.26,0,0,1-.48,0,2.92,2.92,0,0,1-.25-.54l-3.3-7.9A.34.34,0,0,0,17,1.57a7.91,7.91,0,0,0-.81-.19c-.15,0-.22-.09-.21-.24V.76h4.11v.57l-1.13.25,2.43,6Z"/><path class="cls-1" d="M1,9.19V9C1,6.58,1,4.19,1,1.8,1,1.63,1,1.55.8,1.52L.42,1.43C0,1.32,0,1.23.06.78H3.72a2,2,0,0,1,0,.42.26.26,0,0,1-.18.17,5,5,0,0,1-.64.16.19.19,0,0,0-.17.23V9.25H3c.41,0,.82,0,1.23,0a.59.59,0,0,0,.33-.13L6.17,7.61c.11-.11.25-.21.4-.07a.34.34,0,0,1,.1.26c-.26.71-.53,1.41-.81,2.11a.22.22,0,0,1-.17.1L.47,10,.26,10c-.12,0-.26,0-.26-.2s0-.34.24-.39Z"/></g></g></svg>