<svg xmlns="http://www.w3.org/2000/svg" viewBox="0 0 100 13.82"><defs><style>.cls-1{fill:#fff;}</style></defs><g id="Layer_2" data-name="Layer 2"><g id="Capa_1" data-name="Capa 1"><path class="cls-1" d="M33.57,4a4.61,4.61,0,0,0-1.88.3l-.62.2V4.1c0-1.1,0-2.2.05-3.28,0-.27,0-.55,0-.82H31a.65.65,0,0,1-.2.05c-1.2.22-2.4.47-3.6.7-.1,0-.22.07-.25.15s0,.3.23.32c.77.15,1,.38,1,1.18v.15c0,.9.05,1.8.05,2.7,0,2.6,0,5.17,0,7.77,0,.15-.05.3.2.35a15.53,15.53,0,0,0,3.9.35,5.2,5.2,0,0,0,3-1.1c2.08-1.62,2.25-5.45.8-7.22A3.43,3.43,0,0,0,33.57,4Zm.62,4.75a7.35,7.35,0,0,1-.52,2.82,5.67,5.67,0,0,1-.45.8,1.81,1.81,0,0,1-1.83.73c-.17,0-.25-.1-.25-.28v-.7c0-2.22,0-4.42-.07-6.65,0-.27.1-.35.32-.37a2,2,0,0,1,2.43,1.4A5,5,0,0,1,34.19,8.7Z"/><path class="cls-1" d="M10.52,4.2c.6-.08.6-.08.6-.63V.65a2,2,0,0,0,0-.33H.4A2.42,2.42,0,0,1,0,.3V.77A3,3,0,0,0,.37.9,1.46,1.46,0,0,1,1.82,2.42c.08,1,.13,2,.13,3,0,1.82,0,3.65-.08,5.47A5.77,5.77,0,0,1,1.7,12a1.2,1.2,0,0,1-1,1L0,13.07v.48c.12,0,.22,0,.35,0H7.1V13A1.65,1.65,0,0,0,6.72,13c-1-.1-1.45-.48-1.55-1.53C5.07,10.2,5.05,9,5,7.7a.55.55,0,0,1,0-.18c0-.15.08-.22.23-.22.42,0,.85,0,1.25,0a1.15,1.15,0,0,1,1,.55,3.15,3.15,0,0,1,.4.8c.15.42.18.45.65.35V4.65C8.1,4.6,8.1,4.62,8,5a6,6,0,0,1-.33.73,1.24,1.24,0,0,1-.85.65c-.57.07-1.15.1-1.7.12V1.25c1,0,2,0,2.93,0a1.42,1.42,0,0,1,.62.2,3.23,3.23,0,0,1,1.5,1.77C10.27,3.62,10.4,3.9,10.52,4.2Z"/><path class="cls-1" d="M18.37,5.5A4.19,4.19,0,0,0,14.9,3.87a4.6,4.6,0,0,0-4.53,2.45,5.74,5.74,0,0,0-.5,3.58,4.25,4.25,0,0,0,3.45,3.77c.33.08.63.1.95.15h.48a2,2,0,0,1,.35-.05,4.54,4.54,0,0,0,3.4-1.95,5.37,5.37,0,0,0,.87-3.65A4.9,4.9,0,0,0,18.37,5.5Zm-2.3,6.22a3.3,3.3,0,0,1-.3.73,1.25,1.25,0,0,1-2.15.15,3.61,3.61,0,0,1-.7-1.73c-.1-.67-.1-1.35-.15-2A11,11,0,0,1,13.05,6a3.81,3.81,0,0,1,.4-.9A1.29,1.29,0,0,1,15.55,5a4.22,4.22,0,0,1,.7,1.75A12,12,0,0,1,16.07,11.72Z"/><path class="cls-1" d="M41.39,13.57a7.76,7.76,0,0,0,1,.2h.65a1.37,1.37,0,0,1,.28,0,5,5,0,0,0,3-1.4c.27-.27.27-.3,0-.62a3.55,3.55,0,0,1-4.13.05C41,11,40.87,9.67,40.77,8.35h5.9a5.22,5.22,0,0,0-.75-2.9A3.14,3.14,0,0,0,43.82,4a6.13,6.13,0,0,0-1.35-.08,4.32,4.32,0,0,0-3.8,2.18,5.3,5.3,0,0,0-.73,2.37A4.78,4.78,0,0,0,41.39,13.57Zm.55-8.85a.77.77,0,0,1,1.18,0,2.41,2.41,0,0,1,.5,1c.12.62.17,1.3.25,2H40.92A4.06,4.06,0,0,1,41.94,4.72Z"/><path class="cls-1" d="M47.32,11.77h.07V12.9a.37.37,0,0,0,.28.4,8.22,8.22,0,0,0,4.34.32,3,3,0,0,0,2.65-3.52,2.32,2.32,0,0,0-1.25-1.73C53,8.12,52.46,7.92,52,7.7a12.15,12.15,0,0,1-1.53-.88,1.09,1.09,0,0,1-.35-1.35,1.16,1.16,0,0,1,1-.9,2,2,0,0,1,1.57.48,3.22,3.22,0,0,1,.95,1.5c.05.12,0,.35.3.3s.25-.23.25-.4c0-.65-.05-1.3-.07-1.93,0-.1-.15-.22-.23-.25-.6-.12-1.17-.27-1.77-.35a5,5,0,0,0-2.9.38,2.77,2.77,0,0,0-1.62,1.85,2.52,2.52,0,0,0,1.47,3.1c.43.22.87.35,1.3.55a7,7,0,0,1,1.15.6,1.21,1.21,0,0,1,.55,1.3,1.31,1.31,0,0,1-1,1.12,2.09,2.09,0,0,1-2-.47,3.85,3.85,0,0,1-1.15-1.78c-.08-.17-.13-.27-.35-.22s-.23.17-.23.35C47.34,11.07,47.32,11.42,47.32,11.77Z"/><path class="cls-1" d="M27.22,4a5.47,5.47,0,0,0-1.4,0A3,3,0,0,0,23.9,5.5c0,.1-.13.2-.18.3s-.07,0-.12,0V3.85l-.3,0-2.2.43c-.43.07-.85.17-1.28.27-.12,0-.2.15-.3.25a1.74,1.74,0,0,0,.3.2.09.09,0,0,0,.08,0c.57.15.77.35.82,1s.13,1.17.13,1.75c0,1.4-.05,2.8-.13,4.2a.89.89,0,0,1-.82,1c-.45.1-.45.1-.38.57h5.8c0-.42,0-.47-.38-.52a1.12,1.12,0,0,0-.32,0c-.55-.1-.8-.32-.87-.87a25.41,25.41,0,0,1-.1-5.23.59.59,0,0,1,.42-.5,2.39,2.39,0,0,1,1.8,0c.2.07.4.17.67.27.33-.77.63-1.5.93-2.25C27.57,4.1,27.52,4,27.22,4Z"/><path class="cls-1" d="M57.26,5.77a.76.76,0,0,1,.2.28c1,2.4,2.1,4.77,3.15,7.17a.38.38,0,0,0,.43.28.37.37,0,0,0,.4-.28L64.59,6c0-.1.07-.17.12-.27l.08,0V13.5c.42.07.52,0,.52-.35,0-2.83,0-5.68,0-8.5,0-.08,0-.15,0-.23-.58-.07-.58-.07-.78.43l-.82,1.9c-.8,1.82-1.6,3.62-2.4,5.42-.08.2-.2.38-.33.63-.15-.33-.27-.55-.37-.78l-3.15-7.2c-.2-.45-.23-.45-.7-.4v9.1h.47Z"/><path class="cls-1" d="M81.16,13.42a3.88,3.88,0,0,0,4-.75s.07-.07.12-.1,0,0,0,0c0,.2.08.4.13.6.07.35.2.42.55.27a5.81,5.81,0,0,1,0-.72c0-1.4-.08-2.8-.13-4.23a1.76,1.76,0,0,0-1.37-1.77,5.59,5.59,0,0,0-2-.13,2.65,2.65,0,0,0-1.53.68,1.88,1.88,0,0,0-.62,1.1c.4.07.47,0,.62-.23a2,2,0,0,1,1.28-1,3.67,3.67,0,0,1,2,0,1.34,1.34,0,0,1,1,.93.9.9,0,0,1-.7,1.32c-.35.1-.72.15-1.1.23-.77.15-1.57.27-2.35.47a1.45,1.45,0,0,0-1.1,1.2A1.68,1.68,0,0,0,81.16,13.42Zm0-2.8a5.59,5.59,0,0,1,1.9-.47,10.49,10.49,0,0,0,1.25-.2,10.45,10.45,0,0,0,1-.33v1.53a1.49,1.49,0,0,1-.8,1.4,3.61,3.61,0,0,1-2.9.45,3.32,3.32,0,0,1-.47-.2A1.22,1.22,0,0,1,81.13,10.62Z"/><path class="cls-1" d="M96.63,13.72a5.49,5.49,0,0,0,1.18-.25,3.56,3.56,0,0,0,2.14-4,3.47,3.47,0,0,0-2.72-2.87,3.23,3.23,0,0,0-3.6,1.82A3.58,3.58,0,0,0,96.63,13.72Zm-1.7-6.1a2.79,2.79,0,0,1,3.15-.12,3.06,3.06,0,0,1,1.38,3.05,3,3,0,0,1-1.93,2.5,2.57,2.57,0,0,1-1.87,0A3,3,0,0,1,93.73,10,3,3,0,0,1,94.93,7.62Z"/><path class="cls-1" d="M69.26,13.67a3.5,3.5,0,0,0,3.63-3.55A3.67,3.67,0,0,0,72,7.72a3.25,3.25,0,0,0-3.7-1,3.61,3.61,0,0,0-2.17,4A3.51,3.51,0,0,0,69.26,13.67Zm-1.07-6.3A6.06,6.06,0,0,1,69.44,7s0,0,0,.07a2.92,2.92,0,0,1,2.9,2.48,3.13,3.13,0,0,1-2,3.52,2.69,2.69,0,0,1-2.55-.45A3.19,3.19,0,0,1,68.19,7.37Z"/><path class="cls-1" d="M88.13,13.2a3.31,3.31,0,0,0,4.7-1.4,1.06,1.06,0,0,0,.1-.33c-.37-.15-.5.08-.65.3a2.63,2.63,0,0,1-2.57,1.4A3,3,0,0,1,87,10.75a3.1,3.1,0,0,1,1.67-3.43A2.84,2.84,0,0,1,92.33,8.5c.2.35.28.37.63.25l-.08-.3a3.22,3.22,0,0,0-4-1.73,3.3,3.3,0,0,0-2.32,2.93A3.44,3.44,0,0,0,88.13,13.2Z"/><path class="cls-1" d="M74,13.15c0-1.13,0-2.25,0-3.38a4.54,4.54,0,0,1,.22-1.45,2.6,2.6,0,0,1,3.22-1.07,2,2,0,0,1,1.2,1.82c0,1.38,0,2.73.08,4.1v.35h.47v-.35c0-1.4,0-2.82,0-4.22a2.53,2.53,0,0,0-1.65-2.23,8.67,8.67,0,0,0-1.13-.12,2.46,2.46,0,0,0-1.94.72c-.15.15-.3.28-.5.45v-1h-.43V13.5h.45A2.24,2.24,0,0,1,74,13.15Z"/></g></g></svg>