<?xml version="1.0" encoding="utf-8"?>
<!-- Generator: Adobe Illustrator 25.4.2, SVG Export Plug-In . SVG Version: 6.00 Build 0)  -->
<svg version="1.1" id="Layer_1" xmlns="http://www.w3.org/2000/svg" xmlns:xlink="http://www.w3.org/1999/xlink" x="0px" y="0px"
	 viewBox="0 0 90 90" style="enable-background:new 0 0 90 90;" xml:space="preserve">
<style type="text/css">
	.st0{fill:#1A1E24;}
	.st1{fill:#3DABE8;}
</style>
<circle class="st0" cx="45" cy="45" r="45"/>
<path class="st1" d="M61.9,32.7l-2.6,0.9c1.1,1.5,2,3.1,2.7,4.9c0.8,2.2,1.1,4.5,1,6.8c-0.1,2.3-0.6,4.6-1.6,6.7
	c-1,2.2-2.4,4.1-4.2,5.8c-3.3,3.1-7.7,4.8-12.2,4.8c-2.5,0-4.9-0.5-7.1-1.5c-2.3-1-4.4-2.5-6.1-4.4c-1.6-1.8-2.9-3.9-3.7-6.1
	c-0.8-2.2-1.1-4.5-1-6.8c0.1-2.3,0.6-4.6,1.6-6.7c1-2.2,2.4-4.1,4.2-5.8c3.3-3.1,7.7-4.8,12.2-4.8c2.5,0,4.9,0.5,7.1,1.5
	c1.1,0.5,2.2,1.1,3.2,1.8l-5.4,1.9l0.8,2.3l9.5-3.4l0,0l0,0l0-0.1l0,0l-3.3-9.4L54.5,22l1.9,5.3C53,25,49,23.9,45,23.9
	c-5,0-10,1.8-14,5.5c-8.4,7.7-9,20.8-1.2,29.2c4.1,4.4,9.6,6.7,15.2,6.7c5,0,10-1.8,14-5.5C66.7,52.7,67.8,41,61.9,32.7z"/>
<g>
	<path class="st1" d="M43.3,43.3h1.2c1.4,0,2.3-0.7,2.3-2.1c0-1.1-0.8-1.9-2.1-1.9c-1.2,0-1.9,0.7-2.1,1.8h-3
		c0.1-2.7,2.4-4.6,5.2-4.6c3,0,5.2,2.1,5.2,4.6c0,1.9-1.2,3-2.3,3.6c1.4,0.7,2.5,2,2.5,4c0,2.7-1.9,4.8-5.3,4.8
		c-3.5,0-5.5-2-5.6-4.7h3c0.2,1.1,1,1.8,2.4,1.8c1.3,0,2.2-1,2.2-2.2c0-1.5-0.8-2.3-2.5-2.3h-1.2V43.3L43.3,43.3z"/>
</g>
</svg>
