<svg xmlns="http://www.w3.org/2000/svg" xmlns:xlink="http://www.w3.org/1999/xlink" viewBox="0 0 52 52">
    <defs>
        <path id="ampiek3fba" d="M0 0L4.396 0 4.396 6.384 0 6.384z"/>
        <path id="k0lktrjzvc" d="M0 0L51.225 0 51.225 51.876 0 51.876z"/>
    </defs>
    <g fill="none" fill-rule="evenodd">
        <g>
            <g>
                <g fill="#3fabe8" fill-rule="nonzero">
                    <path d="M9.75 16.25v-2.06H2.92l5.252-6.178C9.208 6.79 9.75 5.952 9.75 4.526 9.75 1.743 7.772 0 4.899 0 2.049 0 .024 1.81.024 4.55h2.402c0-1.811 1.2-2.49 2.473-2.49 1.554 0 2.449.995 2.449 2.444 0 .815-.26 1.403-.895 2.15L0 14.19v2.06h9.75zm10.138 0v-2.442h1.779V11.64h-1.779V7.85h-2.316v3.789h-4.141L19.28 0h-2.575l-5.873 11.64v2.168h6.739v2.442h2.316z" transform="translate(-1089.000000, -3207.000000) translate(1089.000000, 3207.000000) translate(15.166667, 17.333333)"/>
                </g>
                <g transform="translate(-1089.000000, -3207.000000) translate(1089.000000, 3207.000000) translate(47.604238, 26.904096)">
                    <mask id="9bcf01f3hb" fill="#fff">
                        <use xlink:href="#ampiek3fba"/>
                    </mask>
                    <path fill="#3fabe8" d="M.808 0C.739 1.736.468 3.454 0 5.127l3.367 1.257c.61-2.082.955-4.222 1.029-6.384H.808z" mask="url(#9bcf01f3hb)"/>
                </g>
                <g transform="translate(-1089.000000, -3207.000000) translate(1089.000000, 3207.000000)">
                    <path fill="#3fabe8" d="M41.353 42.335l2.562 2.508c1.57-1.492 2.944-3.17 4.1-5.005l-3.44-1.284c-.931 1.375-2.011 2.642-3.222 3.78M30.498 47.973l.038 3.64c2.607-.459 5.106-1.31 7.454-2.535l-2.714-2.658c-1.527.696-3.129 1.217-4.778 1.553"/>
                    <mask id="d1nqmlbrkd" fill="#fff">
                        <use xlink:href="#k0lktrjzvc"/>
                    </mask>
                    <path fill="#3fabe8" d="M43.522 12.03l.501.627-4.52 4.51h11.722V5.47L46.587 10.1l-.628-.751C40.989 3.408 33.719 0 26.008 0 11.668 0 0 11.667 0 26.008 0 39.36 10.187 50.54 23.367 51.876l-.038-3.612C12.194 46.926 3.586 37.305 3.586 26.008c0-12.364 10.059-22.423 22.422-22.423 6.84 0 13.222 3.079 17.514 8.445" mask="url(#d1nqmlbrkd)"/>
                </g>
            </g>
        </g>
    </g>
</svg>
