<svg xmlns="http://www.w3.org/2000/svg" viewBox="0 0 47 48">
    <g fill="none" fill-rule="evenodd">
        <g fill="#3fabe8">
            <g>
                <path d="M34.91 0v3.273H12V0H9.273v3.273H0V48h46.364V3.273h-8.728V0H34.91zm2.726 9.273V6h6v7.084H2.727V6h6.546v3.273H12V6h22.91v3.273h2.726zm-34.909 36h40.91V15.81H2.726v29.462z" transform="translate(-562.000000, -3208.000000) translate(562.000000, 3208.000000)"/>
                <path d="M39.077 28.117L39.077 20.579 31.539 20.579 31.539 23.267 34.511 23.267 22.373 35.404 16.715 29.745 7.4 39.06 9.278 40.938 16.715 33.501 22.373 39.16 36.389 25.144 36.389 28.117z" transform="translate(-562.000000, -3208.000000) translate(562.000000, 3208.000000)"/>
            </g>
        </g>
    </g>
</svg>
