<svg xmlns="http://www.w3.org/2000/svg" width="60" height="51" viewBox="0 0 60 51">
    <defs>
        <filter id="4bbc136eua">
            <feColorMatrix in="SourceGraphic" values="0 0 0 0 0.200000 0 0 0 0 0.682353 0 0 0 0 0.949020 0 0 0 1.000000 0"/>
        </filter>
    </defs>
    <g fill="none" fill-rule="evenodd" opacity=".217">
        <g filter="url(#4bbc136eua)" transform="translate(-283 -3806)">
            <g>
                <path fill="#000" fill-rule="nonzero" d="M6.488 7.107C2.172 11.826 0 19.166 0 29.216v20.867h25.083v-22.52H13.017c0-5.544.867-9.628 2.644-12.315 1.778-2.687 4.699-4.05 8.761-4.05V0C16.826 0 10.825 2.368 6.488 7.107zM58.844 0c-3.808 0-7.203.593-10.165 1.736-2.984 1.163-5.55 2.898-7.645 5.289-2.095 2.39-3.714 5.471-4.835 9.174-1.121 3.702-1.653 8.023-1.653 13.017v20.867h25.166V27.521H47.604c0-5.522.909-9.586 2.686-12.273 1.756-2.687 4.619-4.05 8.554-4.05V0z" transform="translate(283 3806)"/>
            </g>
        </g>
    </g>
</svg>
