<svg xmlns="http://www.w3.org/2000/svg" width="61" height="51" viewBox="0 0 61 51">
    <defs>
        <filter id="rl8h5ca3ka">
            <feColorMatrix in="SourceGraphic" values="0 0 0 0 0.200000 0 0 0 0 0.682353 0 0 0 0 0.949020 0 0 0 1.000000 0"/>
        </filter>
    </defs>
    <g fill="none" fill-rule="evenodd" opacity=".217">
        <g filter="url(#rl8h5ca3ka)" transform="translate(-688 -3890)">
            <g>
                <path fill="#000" fill-rule="nonzero" d="M.868 11.2c3.956 0 6.798 1.361 8.554 4.049 1.777 2.687 2.686 6.772 2.686 12.273H0v22.52h25.166V29.216c0-4.973-.532-9.335-1.653-13.058-1.121-3.682-2.74-6.72-4.835-9.133-2.116-2.39-4.642-4.147-7.603-5.29C8.07.573 4.655 0 .868 0v11.2zM35.29 11.2c4.062 0 6.983 1.361 8.76 4.049 1.757 2.687 2.645 6.772 2.645 12.273H34.63v22.52H59.67V29.216c0-9.987-2.15-17.39-6.488-22.108C48.867 2.39 42.907 0 35.29 0v11.2z" transform="matrix(1 0 0 -1 688.828 3940.755)"/>
            </g>
        </g>
    </g>
</svg>
