<?xml version="1.0" encoding="utf-8"?>
<!-- Generator: Adobe Illustrator 25.4.2, SVG Export Plug-In . SVG Version: 6.00 Build 0)  -->
<svg version="1.1" id="Layer_1" xmlns="http://www.w3.org/2000/svg" xmlns:xlink="http://www.w3.org/1999/xlink" x="0px" y="0px"
	 viewBox="0 0 90 90" style="enable-background:new 0 0 90 90;" xml:space="preserve">
<style type="text/css">
	.st0{fill:#1A1E24;}
	.st1{fill:#3DABE8;}
</style>
<circle class="st0" cx="45" cy="45" r="45"/>
<g>
	<path class="st1" d="M64.6,60.9h-5c0.4-0.5,0.8-1.1,1.1-1.7h2.2V30.7H27.1v28.5h20.5c0.3,0.6,0.6,1.2,1.1,1.7H25.4V29h39.2
		L64.6,60.9L64.6,60.9z M54.2,50.8c-3.1,0-5.5,2.5-5.5,5.6c0.1,2.9,2.4,5.3,5.3,5.3c3.1,0.1,5.6-2.4,5.6-5.5l0,0
		C59.6,53.2,57.2,50.8,54.2,50.8z M51,62.7V69l3.3-1.8l3.3,1.8v-6.5C55.6,63.7,53.1,63.7,51,62.7L51,62.7z M46.6,51.6
		c0-0.4-0.2-0.8-0.5-0.8H32.8c-0.2,0-0.5,0.3-0.5,0.8c0,0.5,0.2,1,0.5,1h13.3C46.4,52.5,46.6,52.1,46.6,51.6z M57.6,44.5
		c0-0.4-0.4-0.8-0.9-0.8H33.2c-0.4,0-0.8,0.3-0.9,0.8c-0.1,0.5,0.3,1,0.8,1h23.6C57.3,45.5,57.7,45.1,57.6,44.5z M57.6,37.4
		c0-0.4-0.4-0.8-0.9-0.8H33.2c-0.4,0-0.8,0.3-0.9,0.8c-0.1,0.5,0.3,1,0.8,1h23.6C57.3,38.3,57.7,37.9,57.6,37.4z"/>
</g>
</svg>
