<?xml version="1.0" encoding="utf-8"?>
<!-- Generator: Adobe Illustrator 25.4.2, SVG Export Plug-In . SVG Version: 6.00 Build 0)  -->
<svg version="1.1" id="Layer_1" xmlns="http://www.w3.org/2000/svg" xmlns:xlink="http://www.w3.org/1999/xlink" x="0px" y="0px"
	 viewBox="0 0 90 90" style="enable-background:new 0 0 90 90;" xml:space="preserve">
<style type="text/css">
	.st0{fill:#1A1E24;}
	.st1{fill:#3DABE8;}
</style>
<circle class="st0" cx="45" cy="45" r="45"/>
<g>
	<path class="st1" d="M46.4,23.9L29.2,41l-4.5-4.5v15.2H40l-4.6-4.5L52.6,30L46.4,23.9z M32.8,47.2l2.7,2.7l-8.9,0l0-8.9l2.7,2.7
		l17.2-17.2l3.6,3.6L32.8,47.2z"/>
	<path class="st1" d="M43.6,66.1L60.8,49l4.5,4.5V38.3H50l4.6,4.5L37.4,60L43.6,66.1z M57.2,42.8l-2.7-2.7l8.9,0l0,8.9l-2.7-2.7
		L43.6,63.5L40,59.9L57.2,42.8z"/>
</g>
</svg>
