<?xml version="1.0" encoding="utf-8"?>
<!-- Generator: Adobe Illustrator 26.0.2, SVG Export Plug-In . SVG Version: 6.00 Build 0)  -->
<svg version="1.1"
	 id="svg2" inkscape:version="0.48.4 r9939" sodipodi:docname="swooshwhite.svg" xmlns:cc="http://creativecommons.org/ns#" xmlns:dc="http://purl.org/dc/elements/1.1/" xmlns:inkscape="http://www.inkscape.org/namespaces/inkscape" xmlns:rdf="http://www.w3.org/1999/02/22-rdf-syntax-ns#" xmlns:sodipodi="http://sodipodi.sourceforge.net/DTD/sodipodi-0.dtd" xmlns:svg="http://www.w3.org/2000/svg"
	 xmlns="http://www.w3.org/2000/svg" xmlns:xlink="http://www.w3.org/1999/xlink" x="0px" y="0px" viewBox="0 0 252.9 70.3"
	 style="enable-background:new 0 0 252.9 70.3;" xml:space="preserve">
<style type="text/css">
	.st0{fill:#FFFFFF;stroke:#FFFFFF;}
	.st1{fill-rule:evenodd;clip-rule:evenodd;fill:#FFFFFF;stroke:#FFFFFF;}
</style>
<sodipodi:namedview  bordercolor="#666666" borderopacity="1.0" fit-margin-bottom="0" fit-margin-left="0" fit-margin-right="0" fit-margin-top="0" id="base" inkscape:current-layer="layer1" inkscape:cx="86.460446" inkscape:cy="-0.7865588" inkscape:document-units="px" inkscape:pageopacity="0.0" inkscape:pageshadow="2" inkscape:window-height="984" inkscape:window-maximized="1" inkscape:window-width="1680" inkscape:window-x="-8" inkscape:window-y="-8" inkscape:zoom="1.4" pagecolor="#ffffff" showgrid="false">
	</sodipodi:namedview>
<g id="layer1" transform="translate(-147.84822,-434.38054)" inkscape:groupmode="layer" inkscape:label="Layer 1">
	<g id="g2986" transform="translate(-145.65178,171.60554)">
		<polygon id="polygon2988" class="st0" points="366.8,291.9 371.3,291.9 371.3,291.9 366.3,304.7 361.7,304.7 		"/>
		<polygon id="polygon2990" class="st0" points="377.5,302.6 382.2,302.6 381.4,304.7 372.1,304.7 377.2,291.9 381.7,291.9 
			381.7,291.9 		"/>
		<polygon id="polygon2992" class="st0" points="390,302.6 394.7,302.6 393.8,304.7 384.6,304.7 389.6,291.9 394.2,291.9 
			394.2,291.9 		"/>
		<polygon id="polygon2994" class="st0" points="403.1,291.9 407.6,291.9 407.6,291.9 402.6,304.7 398,304.7 		"/>
		<polygon id="polygon2996" class="st0" points="418.8,302.5 417.9,304.7 408.5,304.7 413.5,291.9 422.9,291.9 422.9,291.9 
			422,294.1 417.2,294.1 416,297 420.5,297 419.7,299.1 415.2,299.1 413.9,302.5 		"/>
		<path id="path2998" inkscape:connector-curvature="0" class="st0" d="M445.1,294.4c-0.4-0.2-1.2-0.4-2.2-0.4
			c-3.3,0-4.9,3.4-5.4,4.5c-0.7,1.7-1.1,3.5,0.3,4.1c0.5,0.2,1.1,0.3,1.4,0.3l1.2-3h-1.6l0.8-2h5.8l-2.4,6.1c-1.7,0.5-3.2,1-5.3,1
			c-4.7,0-6.6-2.7-5.1-6.5c1.6-4,5.8-6.6,10.6-6.6c1.8,0,3,0.3,3.8,0.6L445.1,294.4L445.1,294.4L445.1,294.4z"/>
		<polygon id="polygon3000" class="st0" points="453.3,291.9 457.9,291.9 457.9,291.9 452.8,304.7 448.3,304.7 		"/>
		<polygon id="polygon3002" class="st0" points="458.7,304.7 463.7,291.9 473.1,291.9 473.1,291.9 472.3,294.1 467.4,294.1 
			466.1,297.4 470.6,297.4 469.7,299.6 465.3,299.6 463.2,304.7 		"/>
		<polygon id="polygon3004" class="st0" points="472.6,304.7 477.7,291.9 487.1,291.9 487.1,291.9 486.2,294.1 481.4,294.1 
			480.1,297.4 484.6,297.4 483.7,299.6 479.2,299.6 477.2,304.7 		"/>
		<path id="path3006" inkscape:connector-curvature="0" class="st1" d="M335.1,302.7c0.6,0,1.2,0,1.7-0.3c0.6-0.2,1.1-0.7,1.5-1.7
			c0.3-0.9,0.2-1.3-0.2-1.5c-0.4-0.2-1-0.2-1.6-0.2h-0.6l-1.4,3.6H335.1L335.1,302.7z M337.3,297.1c0.5,0,1,0,1.5-0.2
			c0.5-0.2,1-0.7,1.3-1.5c0.3-0.7,0.2-1.1-0.2-1.3c-0.3-0.2-0.9-0.2-1.4-0.2h-0.6l-1.3,3.2L337.3,297.1L337.3,297.1z M340.1,291.9
			c1.2,0,2.6,0.1,3.5,0.5c1,0.4,1.5,1.1,1,2.4c-0.7,1.8-2.7,2.7-4.5,3.1c0.5,0.1,1.4,0.3,2,0.7c0.6,0.4,1.1,1.2,0.6,2.4
			c-0.4,1.1-1.7,2.6-4.4,3.3c-1,0.3-2.1,0.4-4.5,0.4h-4.7l5-12.8L340.1,291.9L340.1,291.9L340.1,291.9z"/>
		<path id="path3008" inkscape:connector-curvature="0" class="st1" d="M350.7,300.2h2.8l0-3.6L350.7,300.2L350.7,300.2z
			 M357.4,291.9l0.8,12.8h-4.7l0-2.6h-4.3l-2.1,2.6H344l10.7-12.8H357.4L357.4,291.9z"/>
		<path id="path3010" inkscape:connector-curvature="0" class="st1" d="M493,302.9c0.9,0,2.2-0.5,3.8-4.5c1.5-3.7,1.2-4.6,0-4.6
			c-1.3,0-2.4,0.8-4,4.8C491.7,301.3,491.5,302.9,493,302.9L493,302.9L493,302.9z M497.6,291.8c3.6,0,6.1,1.8,4.3,6.4
			c-1.5,3.8-4.9,6.8-9.7,6.8c-4.6,0-5.8-2.8-4.3-6.5C489.5,294.2,493.5,291.8,497.6,291.8L497.6,291.8z"/>
		<path id="path3012" inkscape:connector-curvature="0" class="st1" d="M512.3,293.9l-1.5,3.7h0.5c1.5,0,2.2-0.4,2.8-1.9
			c0.6-1.5,0.2-1.9-1.3-1.9L512.3,293.9L512.3,293.9L512.3,293.9z M513.6,291.9c2.4,0,3.3,0.1,4.2,0.4c0.8,0.3,1.8,1.1,1.2,2.7
			c-0.6,1.5-2,2.7-4.3,3.4l1.9,6.3h-4.9l-1-5.3h-0.5l-2.1,5.3h-4.4l5-12.8L513.6,291.9L513.6,291.9L513.6,291.9z"/>
		<path id="path3014" inkscape:connector-curvature="0" class="st1" d="M528.4,294l-3.4,8.7h0.4c1.1,0,3,0.4,4.9-4.6
			c1.6-4.1,0.3-4.1-1.4-4.1L528.4,294L528.4,294z M529.2,291.9c2.3,0,4.3,0,5.5,1.2c1.5,1.4,0.7,3.8,0.3,4.9
			c-0.7,1.8-2.4,4.7-6.2,6.1c-1.2,0.4-2.5,0.6-5.1,0.6h-4.2l5-12.8H529.2L529.2,291.9L529.2,291.9z"/>
		<path id="path3016" inkscape:connector-curvature="0" class="st0" d="M294,297.4c0-19.4,57.1-35.1,127.6-35.1
			c62.1,0,113.8,12.2,125.3,28.4c-13.1-12.8-58.9-22.2-113.5-22.2c-64.7,0-117.2,13.3-117.2,29.7c0,16.4,52.5,29.7,117.2,29.7
			c47.8,0,88.9-7.3,107.2-17.7c-18.6,13.1-64.8,22.4-118.9,22.4C351.1,332.5,294,316.8,294,297.4L294,297.4z"/>
	</g>
</g>
</svg>
