<?xml version="1.0" encoding="utf-8"?>
<!-- Generator: Adobe Illustrator 26.0.2, SVG Export Plug-In . SVG Version: 6.00 Build 0)  -->
<svg version="1.1"
	 id="svg446" inkscape:version="0.92.0 r15299" sodipodi:docname="bitfinex.svg" xmlns:cc="http://creativecommons.org/ns#" xmlns:dc="http://purl.org/dc/elements/1.1/" xmlns:inkscape="http://www.inkscape.org/namespaces/inkscape" xmlns:rdf="http://www.w3.org/1999/02/22-rdf-syntax-ns#" xmlns:sodipodi="http://sodipodi.sourceforge.net/DTD/sodipodi-0.dtd" xmlns:svg="http://www.w3.org/2000/svg"
	 xmlns="http://www.w3.org/2000/svg" xmlns:xlink="http://www.w3.org/1999/xlink" x="0px" y="0px" viewBox="0 0 510 95"
	 style="enable-background:new 0 0 510 95;" xml:space="preserve">
<style type="text/css">
	.st0{fill:#FFFFFF;}
</style>
<sodipodi:namedview  bordercolor="#666666" borderopacity="1.0" fit-margin-bottom="0" fit-margin-left="0" fit-margin-right="0" fit-margin-top="0" id="base" inkscape:current-layer="layer1" inkscape:cx="426.69788" inkscape:cy="56.847669" inkscape:document-units="mm" inkscape:pageopacity="0.0" inkscape:pageshadow="2" inkscape:window-height="744" inkscape:window-maximized="1" inkscape:window-width="1280" inkscape:window-x="-4" inkscape:window-y="-4" inkscape:zoom="0.86180571" pagecolor="#ffffff" showgrid="false" units="px">
	</sodipodi:namedview>
<g>
	<path class="st0" d="M398.2,92.1c-1.1,0-2-1.4-1.1-2.6L437.5,46l-41-41c-1.1-1.1,0-2.6,1.1-2.6h23.2c0.6,0,1.1,0,1.1,0.6l28.2,30
		l27-30.1c0.6-0.6,0.6-0.6,1.1-0.6h20.1c1.1,0,2,1.4,1.1,2.6l-36.7,38.7l45.6,46.2c1.1,1.1,0.6,2.6-1.1,2.6h-24.4
		c-0.6,0-0.6,0-1.1-0.6l-32.2-34.1L420,91.8c-0.6,0.6-0.6,0.6-1.1,0.6h-20.7C398.2,92.7,398.2,92.1,398.2,92.1z"/>
	<path class="st0" d="M292,92.1c-1.1,0-1.4-0.6-1.4-1.4V4.1c0-1.1,0.6-1.4,1.4-1.4h86.1c1.1,0,1.4,0.6,1.4,1.4v12.3
		c0,1.1-0.6,1.4-1.4,1.4h-66.3v20.1h39.9c1.1,0,1.4,0.6,1.4,1.4v12.3c0,1.1-0.6,1.4-1.4,1.4h-39.9v23h67.4c1.1,0,1.4,0.6,1.4,1.4
		v14.1c0,1.1-0.6,1.4-1.4,1.4h-86.9C292,93,292,92.1,292,92.1z"/>
	<path class="st0" d="M139.7,92.1c-1.1,0-1.4-0.6-1.4-1.4V4.1c0-1.1,0.6-1.4,1.4-1.4h18.1c1.1,0,1.4,0.6,1.4,1.4v86.4
		c0,1.1-0.6,1.4-1.4,1.4h-18.1V92.1z"/>
	<path class="st0" d="M37.6,92.1c-1.1,0-1.4-0.6-1.4-1.4V4.1c0-1.1,0.6-1.4,1.4-1.4h84.9c1.1,0,1.4,0.6,1.4,1.4V17
		c0,1.1-0.6,1.4-1.4,1.4H57.1v23.8h36.1c1.1,0,1.4,0.6,1.4,1.4v13.5c0,1.1-0.6,1.4-1.4,1.4H57.1v32.7c0,1.1-0.6,1.4-1.4,1.4H37.6
		V92.1z"/>
	<path class="st0" d="M2.8,92.1c-1.1,0-1.4-0.6-1.4-1.4V4.1C1.4,3,2,2.7,2.8,2.7h18.1c1.1,0,1.4,0.6,1.4,1.4v86.4
		c0,1.1-0.6,1.4-1.4,1.4H2.8V92.1z"/>
	<path class="st0" d="M173.3,90.4V4.1c0-1.1,0.6-1.4,1.4-1.4H187c0.6,0,0.6,0,1.1,0.6L257,64.4V4.1c0-1.1,0.6-1.4,1.4-1.4h16.1
		c1.1,0,1.4,0.6,1.4,1.4v86.4c0,1.1-0.6,1.4-1.4,1.4h-12.3c-0.6,0-0.6,0-1.1-0.6L192,30.5v60c0,1.1-0.6,1.4-1.4,1.4h-16.1
		C174.4,92.1,173.3,91.6,173.3,90.4z"/>
</g>
</svg>
