<svg width="18" height="14" viewBox="0 0 18 14" fill="none" xmlns="http://www.w3.org/2000/svg">
<path d="M14.8841 1.77765C13.8075 1.27403 12.6417 0.908498 11.4274 0.697303C11.4167 0.696961 11.4061 0.698966 11.3964 0.703176C11.3866 0.707387 11.3778 0.7137 11.3707 0.721672C11.225 0.989727 11.055 1.33901 10.9417 1.60706C9.65367 1.41212 8.34382 1.41212 7.05584 1.60706C6.9425 1.33089 6.7725 0.989727 6.61868 0.721672C6.61059 0.705426 6.5863 0.697303 6.56201 0.697303C5.34769 0.908498 4.19004 1.27403 3.10525 1.77765C3.09716 1.77765 3.08906 1.78577 3.08097 1.79389C0.879 5.0999 0.271841 8.31656 0.571373 11.5007C0.571373 11.517 0.579468 11.5332 0.595659 11.5413C2.05284 12.6136 3.45336 13.2634 4.83768 13.6939C4.86197 13.702 4.88625 13.6939 4.89435 13.6777C5.21817 13.2309 5.5096 12.7598 5.76056 12.2643C5.77675 12.2318 5.76056 12.1993 5.72818 12.1912C5.26674 12.0125 4.82959 11.8013 4.40053 11.5576C4.36814 11.5413 4.36814 11.4926 4.39243 11.4682C4.48148 11.4033 4.57053 11.3301 4.65958 11.2652C4.67577 11.2489 4.70006 11.2489 4.71625 11.257C7.50109 12.5323 10.5045 12.5323 13.257 11.257C13.2732 11.2489 13.2974 11.2489 13.3136 11.2652C13.4027 11.3383 13.4917 11.4033 13.5808 11.4764C13.6132 11.5007 13.6132 11.5495 13.5727 11.5657C13.1517 11.8175 12.7065 12.0206 12.245 12.1993C12.2126 12.2074 12.2045 12.248 12.2126 12.2724C12.4717 12.7679 12.7631 13.239 13.0789 13.6858C13.1031 13.6939 13.1274 13.702 13.1517 13.6939C14.5441 13.2634 15.9447 12.6136 17.4018 11.5413C17.418 11.5332 17.4261 11.517 17.4261 11.5007C17.7823 7.82106 16.8352 4.62877 14.9165 1.79389C14.9084 1.78577 14.9003 1.77765 14.8841 1.77765ZM6.18153 9.55936C5.3477 9.55936 4.65148 8.78768 4.65148 7.83731C4.65148 6.88693 5.3315 6.11526 6.18153 6.11526C7.03965 6.11526 7.71966 6.89506 7.71157 7.83731C7.71157 8.78768 7.03155 9.55936 6.18153 9.55936ZM11.8241 9.55936C10.9902 9.55936 10.294 8.78768 10.294 7.83731C10.294 6.88693 10.974 6.11526 11.8241 6.11526C12.6822 6.11526 13.3622 6.89506 13.3541 7.83731C13.3541 8.78768 12.6822 9.55936 11.8241 9.55936Z" fill="white"/>
</svg>
