<svg width="16" height="17" viewBox="0 0 16 17" fill="none" xmlns="http://www.w3.org/2000/svg">
<path fill-rule="evenodd" clip-rule="evenodd" d="M8.00075 0.697266C5.82806 0.697266 5.55539 0.706766 4.70205 0.745599C3.85037 0.7846 3.26903 0.919435 2.76036 1.11727C2.23419 1.32161 1.78785 1.59494 1.34318 2.03978C0.898176 2.48445 0.62484 2.93079 0.419838 3.45679C0.221502 3.96563 0.0865009 4.54714 0.0481672 5.39848C0.0100001 6.25182 0 6.52466 0 8.69735C0 10.87 0.00966677 11.1419 0.0483338 11.9952C0.0875009 12.8469 0.222336 13.4282 0.420004 13.9369C0.624507 14.4631 0.897843 14.9094 1.34268 15.3541C1.78719 15.7991 2.23352 16.0731 2.75936 16.2774C3.26837 16.4753 3.84987 16.6101 4.70138 16.6491C5.55472 16.6879 5.82723 16.6974 7.99975 16.6974C10.1726 16.6974 10.4444 16.6879 11.2978 16.6491C12.1495 16.6101 12.7315 16.4753 13.2405 16.2774C13.7665 16.0731 14.2121 15.7991 14.6567 15.3541C15.1017 14.9094 15.375 14.4631 15.58 13.9371C15.7767 13.4282 15.9117 12.8467 15.9517 11.9954C15.99 11.142 16 10.87 16 8.69735C16 6.52466 15.99 6.25199 15.9517 5.39865C15.9117 4.54697 15.7767 3.96563 15.58 3.45696C15.375 2.93079 15.1017 2.48445 14.6567 2.03978C14.2116 1.59478 13.7666 1.32144 13.24 1.11727C12.73 0.919435 12.1483 0.7846 11.2966 0.745599C10.4433 0.706766 10.1716 0.697266 7.99825 0.697266H8.00075ZM7.28304 2.13892C7.49604 2.13859 7.73371 2.13892 8.00072 2.13892C10.1367 2.13892 10.3899 2.14659 11.2334 2.18493C12.0134 2.22059 12.4368 2.35093 12.7188 2.46043C13.0921 2.60543 13.3583 2.77876 13.6381 3.05877C13.9181 3.33877 14.0914 3.60544 14.2368 3.97878C14.3463 4.26045 14.4768 4.68378 14.5123 5.46379C14.5506 6.30714 14.559 6.56047 14.559 8.69549C14.559 10.8305 14.5506 11.0839 14.5123 11.9272C14.4766 12.7072 14.3463 13.1305 14.2368 13.4122C14.0918 13.7855 13.9181 14.0514 13.6381 14.3312C13.3581 14.6112 13.0923 14.7846 12.7188 14.9296C12.4371 15.0396 12.0134 15.1696 11.2334 15.2052C10.3901 15.2436 10.1367 15.2519 8.00072 15.2519C5.86453 15.2519 5.61136 15.2436 4.76802 15.2052C3.98801 15.1692 3.56467 15.0389 3.2825 14.9294C2.90916 14.7844 2.64249 14.6111 2.36249 14.3311C2.08249 14.0511 1.90915 13.785 1.76382 13.4115C1.65432 13.1299 1.52382 12.7065 1.48831 11.9265C1.44998 11.0832 1.44231 10.8298 1.44231 8.69349C1.44231 6.55714 1.44998 6.30514 1.48831 5.46179C1.52398 4.68178 1.65432 4.25845 1.76382 3.97644C1.90882 3.60311 2.08249 3.33644 2.36249 3.05643C2.64249 2.77643 2.90916 2.6031 3.2825 2.45776C3.5645 2.34776 3.98801 2.21776 4.76802 2.18193C5.50602 2.14859 5.79203 2.13859 7.28304 2.13692V2.13892ZM12.2711 3.46728C11.7411 3.46728 11.3111 3.89678 11.3111 4.42695C11.3111 4.95696 11.7411 5.38696 12.2711 5.38696C12.8011 5.38696 13.2311 4.95696 13.2311 4.42695C13.2311 3.89695 12.8011 3.46728 12.2711 3.46728ZM8.00076 4.58895C5.73191 4.58895 3.89239 6.42847 3.89239 8.69733C3.89239 10.9662 5.73191 12.8049 8.00076 12.8049C10.2696 12.8049 12.1085 10.9662 12.1085 8.69733C12.1085 6.42847 10.2696 4.58895 8.00076 4.58895ZM8.00073 6.03063C9.47342 6.03063 10.6674 7.22448 10.6674 8.69733C10.6674 10.17 9.47342 11.364 8.00073 11.364C6.52788 11.364 5.33404 10.17 5.33404 8.69733C5.33404 7.22448 6.52788 6.03063 8.00073 6.03063Z" fill="white"/>
</svg>
