<svg width="14" height="11" viewBox="0 0 14 11" fill="none" xmlns="http://www.w3.org/2000/svg">
<path d="M12.8826 1.29263L14 0.232242V0H10.1299L7.37188 6.81244L4.23464 0H0.176823V0.232242L1.48203 1.79133C1.60964 1.90655 1.67526 2.07578 1.65885 2.24501V8.37152C1.69896 8.59296 1.62786 8.818 1.47109 8.97823L0 10.748V10.9766H4.16719V10.7444L2.69792 8.98003C2.61919 8.9011 2.55998 8.80529 2.52488 8.70005C2.48979 8.59482 2.47976 8.48301 2.49557 8.37332V3.07316L6.15417 10.9802H6.57891L9.72526 3.07316V9.3725C9.72526 9.53813 9.72526 9.57234 9.61589 9.68216L8.48385 10.7678V11H13.9745V10.7678L12.8826 9.70737C12.7878 9.63535 12.7385 9.51473 12.7586 9.39771V1.60229C12.7492 1.54444 12.7557 1.48514 12.7775 1.43065C12.7993 1.37615 12.8356 1.32847 12.8826 1.29263V1.29263Z" fill="white"/>
</svg>
