<svg width="16" height="13" viewBox="0 0 16 13" fill="none" xmlns="http://www.w3.org/2000/svg">
<path fill-rule="evenodd" clip-rule="evenodd" d="M7.55075 3.88945L7.58223 4.40849L7.05762 4.34493C5.14804 4.1013 3.47978 3.27509 2.06334 1.88747L1.37085 1.19895L1.19248 1.70739C0.814766 2.84079 1.05609 4.03775 1.843 4.84278C2.26269 5.28767 2.16826 5.35122 1.4443 5.08641C1.19248 5.00167 0.972149 4.93811 0.951164 4.96989C0.877719 5.04404 1.12953 6.00796 1.32888 6.38929C1.60168 6.91892 2.15777 7.43795 2.76631 7.74513L3.28043 7.98876L2.67188 7.99935C2.08432 7.99935 2.06334 8.00995 2.12629 8.23239C2.33613 8.9209 3.16502 9.65179 4.08833 9.96956L4.73885 10.192L4.17227 10.531C3.33289 11.0182 2.34663 11.2936 1.36036 11.3148C0.888211 11.3254 0.5 11.3678 0.5 11.3996C0.5 11.5055 1.78005 12.0987 2.52499 12.3317C4.75983 13.0202 7.41435 12.7236 9.40787 11.5479C10.8243 10.711 12.2408 9.04801 12.9018 7.43795C13.2585 6.57996 13.6152 5.01226 13.6152 4.26019C13.6152 3.77294 13.6467 3.70938 14.2343 3.12679C14.5805 2.78783 14.9058 2.41709 14.9687 2.31117C15.0737 2.10991 15.0632 2.10991 14.5281 2.28998C13.6362 2.60776 13.5103 2.56539 13.951 2.08872C14.2762 1.74976 14.6645 1.1354 14.6645 0.955323C14.6645 0.923546 14.5071 0.976508 14.3287 1.07184C14.1398 1.17777 13.7202 1.33665 13.4054 1.43199L12.8388 1.61206L12.3247 1.26251C12.0414 1.07184 11.6427 0.859991 11.4329 0.796436C10.8978 0.64814 10.0794 0.669325 9.59673 0.838806C8.28521 1.31547 7.45632 2.5442 7.55075 3.88945Z" fill="white"/>
</svg>
