<svg width="140" height="140" viewBox="0 0 140 140" fill="none" xmlns="http://www.w3.org/2000/svg">
<path d="M7.91602 102.984C47.8752 91.0864 91.6329 91.1608 131.666 102.612C127.325 111.708 122.836 123.704 114.548 129.752C96.7388 130.025 78.8558 129.876 61.0222 130C49.4045 129.975 37.7867 129.876 26.169 129.851C25.1576 130 24.3437 129.603 23.6283 129.009C16.2285 121.994 12.1586 112.105 7.91602 102.984Z" fill="#E8934B"/>
<path d="M135 91.5331C95.4401 76.6543 45.1025 78.9395 5 90.9866C7.6143 86.3417 12.0537 83.038 16.1971 79.8586C16.5671 79.5853 16.7397 79.3618 16.6657 78.8402C15.9258 72.0838 17.8989 65.0791 22.7575 60.2355C14.964 50.8958 61.0349 49.0577 66.0662 48.9335C71.3935 48.5609 125.332 50.1507 116.996 60.1858C121.361 64.6072 123.433 70.8915 123.211 77.0766C123.334 77.9459 122.619 79.1382 123.408 79.7592C127.724 83.1622 132.509 86.4907 135 91.5331ZM110.238 71.7858C113.074 73.3507 115.837 74.8659 118.574 76.3811C119.659 73.7729 116.651 66.023 114.406 64.632C113 67.0166 111.619 69.4012 110.238 71.7858ZM21.1544 76.4059C23.9907 74.841 26.753 73.3258 29.5399 71.7858C28.1341 69.4012 26.753 66.9918 25.2979 64.5327C22.4616 67.8611 20.5625 71.9597 21.1544 76.4059Z" fill="#E8934B"/>
<path fill-rule="evenodd" clip-rule="evenodd" d="M133.356 98.5987C114.997 92.2583 88.8404 88.7063 65.7488 89.4881C44.979 90.1914 26.5236 94.1949 12.9354 97.1426C10.4242 97.6873 8.07929 98.196 5.91669 98.6412L5.41602 96.2447C7.54877 95.8057 9.87173 95.3016 12.3675 94.7599C25.9496 91.8122 44.6498 87.7537 65.6648 87.0422C89.0076 86.2518 115.474 89.8318 134.166 96.2872L133.356 98.5987Z" fill="white"/>
<path fill-rule="evenodd" clip-rule="evenodd" d="M48.1243 45.5452C53.0747 45.5452 57.0878 41.5181 57.0878 36.5505C57.0878 31.5829 53.0747 27.5559 48.1243 27.5559C43.174 27.5559 39.1609 31.5829 39.1609 36.5505C39.1609 41.5181 43.174 45.5452 48.1243 45.5452ZM48.1243 46.7944C53.7623 46.7944 58.3327 42.2081 58.3327 36.5505C58.3327 30.893 53.7623 26.3066 48.1243 26.3066C42.4864 26.3066 37.916 30.893 37.916 36.5505C37.916 42.2081 42.4864 46.7944 48.1243 46.7944Z" fill="#E8934B"/>
<path fill-rule="evenodd" clip-rule="evenodd" d="M72.5 28.8459C77.3493 28.8459 81.2805 24.9011 81.2805 20.0348C81.2805 15.1686 77.3493 11.2238 72.5 11.2238C67.6507 11.2238 63.7195 15.1686 63.7195 20.0348C63.7195 24.9011 67.6507 28.8459 72.5 28.8459ZM72.5 30.0697C78.0228 30.0697 82.5 25.5769 82.5 20.0348C82.5 14.4928 78.0228 10 72.5 10C66.9772 10 62.5 14.4928 62.5 20.0348C62.5 25.5769 66.9772 30.0697 72.5 30.0697Z" fill="#E8934B"/>
<path fill-rule="evenodd" clip-rule="evenodd" d="M92.7083 45.5452C97.6587 45.5452 101.672 41.5181 101.672 36.5505C101.672 31.5829 97.6587 27.5559 92.7083 27.5559C87.758 27.5559 83.7449 31.5829 83.7449 36.5505C83.7449 41.5181 87.758 45.5452 92.7083 45.5452ZM92.7083 46.7944C98.3462 46.7944 102.917 42.2081 102.917 36.5505C102.917 30.893 98.3462 26.3066 92.7083 26.3066C87.0704 26.3066 82.5 30.893 82.5 36.5505C82.5 42.2081 87.0704 46.7944 92.7083 46.7944Z" fill="#E8934B"/>
<path d="M47.2559 44.2858V42.3692C46.5828 42.3572 45.9282 42.3035 45.2919 42.208C44.6555 42.1005 44.1416 41.9572 43.75 41.7781V40.2555C44.1661 40.4466 44.6984 40.6138 45.3469 40.7571C45.9955 40.9004 46.6318 40.978 47.2559 40.9899V37.3717C46.0444 37.0493 45.1572 36.6433 44.5943 36.1537C44.0314 35.6641 43.75 34.9954 43.75 34.1475C43.75 33.2639 44.062 32.5713 44.6861 32.0697C45.3224 31.5682 46.179 31.2876 47.2559 31.2279V29.6516H48.4306V31.21C49.0792 31.2338 49.6665 31.3055 50.1927 31.4249C50.7312 31.5443 51.2206 31.6936 51.6612 31.8727L51.1656 33.1982C50.774 33.043 50.3396 32.9116 49.8623 32.8041C49.3973 32.6847 48.9201 32.6071 48.4306 32.5713V36.1716C49.2383 36.3985 49.9113 36.6433 50.4497 36.906C50.9881 37.1568 51.3919 37.4732 51.6612 37.8553C51.9426 38.2255 52.0833 38.7091 52.0833 39.3062C52.0833 40.1421 51.7652 40.8228 51.1289 41.3482C50.4925 41.8617 49.5931 42.1781 48.4306 42.2975V44.2858H47.2559ZM47.2559 35.7775V32.6071C46.5951 32.6549 46.1056 32.8041 45.7874 33.0549C45.4815 33.3057 45.3286 33.6281 45.3286 34.0222C45.3286 34.4998 45.4632 34.87 45.7324 35.1327C46.0138 35.3835 46.5217 35.5984 47.2559 35.7775ZM48.4306 40.9004C49.1526 40.8287 49.6788 40.6675 50.0092 40.4168C50.3396 40.154 50.5048 39.8197 50.5048 39.4137C50.5048 38.9599 50.3579 38.6196 50.0642 38.3927C49.7706 38.1658 49.226 37.9509 48.4306 37.7479V40.9004Z" fill="#E8934B"/>
<path d="M71.6646 27.561V25.6444C71.0252 25.6325 70.4032 25.5788 69.7987 25.4832C69.1942 25.3758 68.706 25.2325 68.334 25.0533V23.5308C68.7292 23.7219 69.2349 23.8891 69.8511 24.0324C70.4672 24.1756 71.0717 24.2533 71.6646 24.2652V20.647C70.5137 20.3246 69.6709 19.9186 69.1361 19.429C68.6014 18.9394 68.334 18.2706 68.334 17.4228C68.334 16.5391 68.6304 15.8465 69.2233 15.345C69.8278 14.8435 70.6416 14.5628 71.6646 14.5031V12.9269H72.7806V14.4852C73.3967 14.5091 73.9547 14.5808 74.4546 14.7002C74.9661 14.8196 75.4311 14.9689 75.8496 15.148L75.3788 16.4735C75.0068 16.3182 74.5941 16.1869 74.1407 16.0794C73.699 15.96 73.2456 15.8824 72.7806 15.8465V19.4469C73.5478 19.6738 74.1872 19.9186 74.6987 20.1813C75.2102 20.432 75.5938 20.7485 75.8496 21.1306C76.117 21.5008 76.2507 21.9844 76.2507 22.5815C76.2507 23.4174 75.9484 24.098 75.3439 24.6235C74.7394 25.1369 73.885 25.4534 72.7806 25.5728V27.561H71.6646ZM71.6646 19.0528V15.8824C71.0368 15.9301 70.5718 16.0794 70.2696 16.3302C69.9789 16.5809 69.8336 16.9034 69.8336 17.2974C69.8336 17.7751 69.9615 18.1453 70.2172 18.408C70.4846 18.6587 70.9671 18.8737 71.6646 19.0528ZM72.7806 24.1756C73.4664 24.104 73.9663 23.9428 74.2802 23.692C74.5941 23.4293 74.751 23.095 74.751 22.6889C74.751 22.2352 74.6115 21.8948 74.3325 21.668C74.0535 21.4411 73.5362 21.2261 72.7806 21.0231V24.1756Z" fill="#E8934B"/>
<path d="M92.0806 44.2858V42.3692C91.4412 42.3572 90.8193 42.3035 90.2148 42.208C89.6103 42.1005 89.122 41.9572 88.75 41.7781V40.2555C89.1453 40.4466 89.6509 40.6138 90.2671 40.7571C90.8832 40.9004 91.4877 40.978 92.0806 40.9899V37.3717C90.9297 37.0493 90.0869 36.6433 89.5521 36.1537C89.0174 35.6641 88.75 34.9954 88.75 34.1475C88.75 33.2639 89.0464 32.5713 89.6393 32.0697C90.2438 31.5682 91.0576 31.2876 92.0806 31.2279V29.6516H93.1966V31.21C93.8127 31.2338 94.3707 31.3055 94.8706 31.4249C95.3821 31.5443 95.8471 31.6936 96.2656 31.8727L95.7948 33.1982C95.4228 33.043 95.0101 32.9116 94.5567 32.8041C94.115 32.6847 93.6616 32.6071 93.1966 32.5713V36.1716C93.9638 36.3985 94.6032 36.6433 95.1147 36.906C95.6262 37.1568 96.0099 37.4732 96.2656 37.8553C96.533 38.2255 96.6667 38.7091 96.6667 39.3062C96.6667 40.1421 96.3644 40.8228 95.7599 41.3482C95.1554 41.8617 94.301 42.1781 93.1966 42.2975V44.2858H92.0806ZM92.0806 35.7775V32.6071C91.4528 32.6549 90.9878 32.8041 90.6856 33.0549C90.3949 33.3057 90.2496 33.6281 90.2496 34.0222C90.2496 34.4998 90.3775 34.87 90.6333 35.1327C90.9006 35.3835 91.3831 35.5984 92.0806 35.7775ZM93.1966 40.9004C93.8825 40.8287 94.3823 40.6675 94.6962 40.4168C95.0101 40.154 95.167 39.8197 95.167 39.4137C95.167 38.9599 95.0275 38.6196 94.7485 38.3927C94.4695 38.1658 93.9522 37.9509 93.1966 37.7479V40.9004Z" fill="#E8934B"/>
</svg>
