<svg width="140" height="140" viewBox="0 0 140 140" fill="none" xmlns="http://www.w3.org/2000/svg">
<path d="M48.9289 74.3424C50.5415 74.4701 58.8685 74.0232 58.4873 74.6935C58.37 78.4602 58.2234 82.195 58.0768 85.9617C57.637 99.7516 57.0799 113.51 56.6108 127.3C56.8747 128.225 56.0244 128.289 53.327 128.193C50.4242 128.161 47.5215 128.161 44.6188 128.098C44.1497 128.066 43.9738 128.002 44.0031 127.842C44.179 126.055 44.3843 124.267 44.5602 122.448C44.8241 119.319 45.1173 116.191 45.4105 113.063C46.5833 100.167 47.6681 87.2385 48.9289 74.3424Z" fill="#E8934B"/>
<path d="M91.0735 74.313C92.7474 92.0072 94.2451 109.701 95.8896 127.396C95.8309 127.683 96.4769 128.13 95.1848 128.13C91.7783 128.194 88.3718 128.194 84.9653 128.226C83.9374 128.226 83.1445 128.066 83.3795 127.683C83.262 124.489 83.1445 121.327 83.0564 118.133C82.6747 107.881 82.3223 97.6604 81.9699 87.408C81.823 83.192 81.6762 78.9761 81.5 74.7601C81.5 74.4727 81.7643 74.3449 82.5866 74.313C85.347 74.313 88.1368 74.313 91.0735 74.313Z" fill="#E8934B"/>
<path d="M68.3824 74.313C68.5294 92.2887 68.4412 110.232 68.5 128.208C65.7059 128.272 62.8529 128.144 60.0294 128.144C58.9412 128.176 59.0294 127.762 59 127.507C59.2941 116.001 59.4412 104.496 59.7059 92.958C59.8235 86.8067 59.9412 80.6555 60.0882 74.5361C60.1471 74.3449 60.2647 74.313 60.8529 74.313C63.4412 74.313 65.7647 74.313 68.3824 74.313Z" fill="#E8934B"/>
<path d="M71.5047 128.219C71.5047 110.208 71.4752 92.3243 71.5639 74.3449C74.0782 74.2811 76.563 74.3449 79.1069 74.313C79.7576 74.313 79.876 74.3449 79.9351 74.568C80.1126 83.3665 80.2901 92.1649 80.4676 100.995C80.645 109.921 80.8521 118.879 81 127.805C80.9408 128.092 80.6746 128.188 79.7576 128.188C77.0067 128.156 74.2261 128.251 71.5047 128.219Z" fill="#E8934B"/>
<path d="M100.735 128.765C100.823 129.821 100.912 130.876 101 131.966C80.3628 131.932 59.7255 131.83 39 132C39.0883 130.91 39.1766 129.821 39.265 128.765C59.755 128.765 80.2156 128.765 100.735 128.765Z" fill="#E8934B"/>
<path d="M94.7929 69.4608C94.8521 70.1484 94.9112 70.836 95 71.5236C78.4906 71.6486 62.0108 71.6486 45.5606 71.5236C45.4126 71.3673 45.5606 69.6796 45.7381 69.4608C62.0108 69.4608 78.3427 69.4608 94.7929 69.4608Z" fill="#E8934B"/>
<path d="M46.5 72.2482C62.1573 72.1259 77.7852 72.1259 93.3836 72.2482C94.1488 72.4519 90.9114 73.7558 90.3522 73.715C85.2607 73.7558 80.1397 73.715 75.0481 73.7558C66.8074 73.7965 58.5667 73.7558 50.3555 73.7558C48.7073 73.7965 47.9716 73.1038 46.8532 72.6964C46.5 72.5334 46.5 72.5334 46.5 72.2482Z" fill="#E8934B"/>
<path d="M52.5008 28.6873C51.484 30.1635 50.6415 31.7359 50.0605 33.4688C49.77 34.3352 49.5376 35.2017 49.3342 36.1002C49.1599 36.9988 49.0437 37.8973 48.9565 38.8279C48.8403 40.6571 48.9275 42.5183 49.218 44.3154C49.5376 46.1125 50.0024 47.9096 50.6996 49.5462L50.1767 49.5783C50.4091 48.7118 50.7287 47.9738 51.0482 47.1715C51.3678 46.4013 51.7164 45.6311 52.0941 44.8931C52.8204 43.4169 53.6338 41.9407 54.4473 40.5287C54.854 39.8227 55.2898 39.1167 55.7255 38.4107C56.1613 37.7048 56.5971 37.0309 57.0329 36.3249C57.4686 35.651 57.9044 34.945 58.3983 34.2711L59.0955 33.2763C59.3279 32.9553 59.5603 32.6023 59.7637 32.2814C60.5771 31.0299 61.1001 29.5216 61.2163 27.9813C61.3615 26.4409 61.1001 24.8364 60.4609 23.3923C59.8509 21.9162 59.0374 20.5042 58.1368 19.1885C57.2362 17.8728 56.2194 16.6212 55.1445 15.466L55.5222 15.0488C55.9289 15.5622 56.1323 16.204 56.2485 16.8138C56.3937 17.4556 56.4228 18.0974 56.3937 18.7071C56.3647 19.9586 56.1032 21.1781 55.7546 22.3333C55.406 23.4886 54.9121 24.6118 54.3601 25.6708C53.8081 26.7298 53.1981 27.7246 52.5008 28.6873ZM52.1522 28.3985C52.8204 27.4358 53.4305 26.473 53.9824 25.4141C54.5344 24.3872 54.9993 23.2961 55.3479 22.1729C55.6965 21.0497 55.9289 19.8624 55.9289 18.7071C55.9289 18.1295 55.8998 17.5518 55.7546 16.9742C55.6384 16.4287 55.435 15.8831 55.1155 15.498C55.0283 15.3697 55.0283 15.1771 55.1445 15.0809C55.2607 14.9846 55.406 14.9846 55.5222 15.0809C56.1032 15.6585 56.6552 16.2361 57.1781 16.8779C57.701 17.4877 58.224 18.1295 58.7178 18.7713C59.7056 20.087 60.6062 21.4669 61.3325 23.0073C61.7102 23.7453 62.0297 24.6118 62.2331 25.4782C62.4364 26.3447 62.5236 27.2432 62.4946 28.1418C62.4364 29.9388 61.9135 31.7359 60.9839 33.2442C60.7515 33.6292 60.519 33.9502 60.2866 34.3031L59.6184 35.298L58.2821 37.3197C57.3815 38.6675 56.5099 40.0153 55.6384 41.3952C54.7668 42.7751 53.9243 44.155 53.1109 45.5349C52.7042 46.2409 52.2975 46.9469 51.9198 47.6528C51.7164 48.0058 51.5421 48.3588 51.3678 48.7439C51.1935 49.0969 50.9901 49.482 50.8449 49.835L50.8158 49.8671C50.7577 50.0276 50.5834 50.0917 50.4382 50.0276C50.3801 49.9955 50.3219 49.9313 50.2929 49.8671C49.9152 49.0007 49.6538 48.1021 49.3923 47.2036C49.1599 46.305 48.9565 45.3744 48.8113 44.4438C48.5208 42.5825 48.4336 40.6892 48.5498 38.7958C48.637 37.8652 48.7532 36.9346 48.9275 36.004C49.1308 35.0733 49.3632 34.1748 49.6828 33.3083C50.2348 31.5113 51.1063 29.8746 52.1522 28.3985Z" fill="#E8934B"/>
<path d="M80.6711 58.2343C77.922 60.4724 78.5654 66.7653 78.5654 66.7653C78.5654 66.7653 83.5372 63.8784 85.6428 61.2509C87.7485 58.6235 85.4674 53.3038 84.2098 51.1305C84.707 52.2009 84.3268 55.2176 80.6711 58.2343Z" fill="#E8934B"/>
<path d="M76.8573 24.4013C77.6867 25.1973 78.7531 27.713 78.8716 31.6298C77.6867 29.2097 76.3241 26.8851 74.8725 24.6878C73.9542 23.3504 73.0359 22.0448 72.0583 20.7711C71.0808 19.5292 70.0736 18.2873 69.0072 17.0772C66.8743 14.6889 64.6526 12.428 62.2235 10.4219L62.1347 10.3263C61.8088 10.0716 61.3645 10.1034 61.0978 10.4219C60.9497 10.5811 60.8609 10.804 60.8609 11.0269C60.8609 11.2498 60.9497 11.4727 61.0978 11.6319C61.8384 12.5235 62.4901 13.5744 63.0233 14.6889C63.5566 15.8034 63.9713 16.9817 64.2675 18.1917C64.86 20.6118 64.9785 23.1593 64.623 25.675C64.4452 26.9169 64.149 28.1588 63.7639 29.337C63.5862 29.9421 63.3492 30.5152 63.1122 31.0884C62.8456 31.6616 62.6086 32.2348 62.3124 32.7761C62.0458 33.3493 61.7199 33.8907 61.4237 34.432C61.0978 34.9734 60.772 35.5147 60.4165 36.0242C59.7352 37.0751 58.9354 38.0304 58.1355 38.9857C57.3061 39.9728 56.4767 40.9918 55.7361 42.1064C55.351 42.6477 55.0251 43.2209 54.6697 43.7622C54.3438 44.3354 53.9883 44.9086 53.6921 45.5136C52.8627 47.1377 52.1517 48.8891 51.737 50.7042C51.7074 50.8634 51.6481 51.0226 51.6185 51.1818C51.6185 51.2455 51.5889 51.3092 51.5889 51.3729C51.5592 51.5321 51.5296 51.6595 51.5 51.8187C51.5296 51.8187 51.5889 51.8187 51.6185 51.8187C51.7074 51.8187 51.8259 51.8187 51.9147 51.8187C51.974 51.8187 52.0628 51.8187 52.1221 51.8187C52.1813 51.8187 52.211 51.8187 52.2702 51.8505C52.3591 51.8505 52.4183 51.8824 52.5072 51.8824C52.5368 51.6913 52.5961 51.5003 52.6257 51.3092V51.2773C52.6849 51.0863 52.7145 50.8952 52.7738 50.7042C53.2181 49.112 53.8402 47.5516 54.64 46.1187C54.9363 45.5455 55.2621 45.0041 55.588 44.4628C55.9434 43.9533 56.2693 43.3801 56.6544 42.8706C57.3654 41.8198 58.1948 40.8645 58.9946 39.9091C59.8241 38.922 60.6535 37.9348 61.3941 36.8521C61.7792 36.3108 62.105 35.7695 62.4605 35.2281C62.7864 34.6549 63.1418 34.1136 63.4381 33.5086C63.7639 32.9354 64.0305 32.3303 64.2971 31.7253C64.5341 31.1203 64.8007 30.4834 65.0081 29.8465C65.4524 28.5728 65.7783 27.2672 65.9856 25.9297C66.4004 23.2549 66.3115 20.4845 65.6894 17.8414C65.6598 17.6504 65.6005 17.4275 65.5413 17.2364C66.0153 17.8414 66.4596 18.4465 66.904 19.0833C68.7406 21.5672 70.4291 24.1783 72.0287 26.8214C72.7989 28.1588 73.5691 29.4962 74.2505 30.8655C74.9318 32.2348 75.6131 33.6359 76.1759 35.0371C76.7388 36.4382 77.3016 37.8711 77.6867 39.336C77.8052 39.6862 77.8941 40.0684 77.9829 40.4186C78.0718 40.8008 78.1903 41.151 78.2496 41.5013L78.4569 42.6159L78.605 43.6985C78.7828 45.1634 78.842 46.6282 78.7531 48.0611C78.6347 49.4941 78.3384 50.8634 77.8645 52.2008L77.6867 52.7103L77.5978 52.9651C77.5682 53.0606 77.509 53.1243 77.4794 53.2198L77.035 54.2707L76.561 55.3215C76.4129 55.6718 76.2352 55.9902 76.0575 56.3405C75.3761 57.7098 74.6059 59.0154 73.7469 60.2254C72.8878 61.4355 71.9399 62.55 70.8438 63.5053C70.281 63.9511 69.7181 64.397 69.1257 64.7472C68.5036 65.0975 67.8815 65.416 67.2298 65.6389C65.8968 66.0847 64.4749 66.2757 63.053 66.2439C61.6014 66.1802 60.1795 65.8936 58.7576 65.4796C57.6912 65.0338 56.684 64.4288 55.7953 63.6327C55.7657 63.6009 55.7361 63.569 55.7065 63.5372C55.6768 63.5372 55.6768 63.5053 55.6472 63.4735C55.4991 63.3461 55.3806 63.2187 55.2325 63.0595L55.2029 63.0277C55.114 63.0914 55.0548 63.1551 54.9659 63.2187C54.7585 63.378 54.5512 63.5053 54.3142 63.6327C54.4327 63.7601 54.5512 63.8875 54.6697 64.0467C54.6993 64.0785 54.7289 64.1104 54.7289 64.1104C54.8474 64.2377 54.9659 64.3333 55.0844 64.4606C56.0619 65.3841 57.158 66.1165 58.3725 66.6579H58.4022H58.4318C59.8833 67.1674 61.3941 67.5495 62.9641 67.7406C64.5341 67.9316 66.1634 67.8679 67.7334 67.454C68.5036 67.2629 69.3034 66.9763 70.044 66.626C70.7846 66.2757 71.4955 65.8618 72.1768 65.3841C73.5395 64.4288 74.754 63.3143 75.8501 62.0405C76.9461 60.7986 77.9237 59.4612 78.7828 58.0601C78.9901 57.7098 79.2271 57.3595 79.4345 57.0092L80.0566 55.9265L80.6194 54.8438C80.6786 54.7483 80.7083 54.6528 80.7675 54.5573L80.9156 54.2388L81.1822 53.6338C81.8636 52.0416 82.3079 50.322 82.5153 48.6025C83.0485 46.5645 84.4704 40.8963 84.5 36.8521C84.5 31.789 79.2567 26.3756 76.8573 24.4013Z" fill="#E8934B"/>
<path d="M56.0757 12.2052C56.1396 14.3725 59.3331 16.087 59.3331 16.087C59.3331 16.087 59.7482 12.5287 59.2692 10.5555C58.7902 8.58226 55.469 8.0647 54 8C54.7026 8.09704 55.9799 9.29391 56.0757 12.2052Z" fill="#E8934B"/>
<path d="M73.8442 18.8599C73.7907 19.2928 73.8442 19.7258 73.9511 20.1255C74.0581 20.5252 74.2453 20.9249 74.4325 21.2913C74.6198 21.6576 74.8605 22.024 75.1012 22.3238C75.3419 22.6569 75.6093 22.9566 75.8767 23.2231L75.5826 23.323C75.743 22.3238 75.9035 21.3579 76.0105 20.3587C76.064 19.8591 76.1174 19.3928 76.1709 18.8932C76.1977 18.66 76.1977 18.4269 76.1977 18.1604V17.8273C76.1977 17.7274 76.1709 17.6275 76.1709 17.5276C76.1174 17.1612 75.9035 16.7948 75.6628 16.4618C75.4221 16.1287 75.1012 15.8622 74.7802 15.5958C74.1384 15.0962 73.3895 14.6632 72.6407 14.3301L72.7209 13.9304C72.9349 14.0303 73.0686 14.1969 73.2023 14.3634C73.336 14.5299 73.443 14.7298 73.5232 14.9296C73.6837 15.3293 73.7907 15.7623 73.8709 16.1953C74.0046 17.1279 73.9511 17.9939 73.8442 18.8599ZM73.5767 18.8265C73.6837 17.9939 73.7105 17.1279 73.5767 16.3285C73.5232 15.9288 73.4163 15.5292 73.2558 15.1628C73.0953 14.8297 72.8814 14.4966 72.6139 14.3967C72.5337 14.3634 72.4802 14.2302 72.507 14.1303C72.5337 14.0303 72.6139 13.9637 72.6942 13.997H72.7209C73.55 14.1303 74.3523 14.43 75.1279 14.9296C75.5023 15.1628 75.8767 15.4625 76.1977 15.8622C76.5186 16.2619 76.8128 16.7615 76.9465 17.361C76.9733 17.5276 76.9733 17.6608 77 17.8273V18.227C77 18.4935 76.9733 18.7599 76.9465 19.0264C76.893 19.5593 76.8128 20.0589 76.7326 20.5585C76.5453 21.5577 76.2779 22.5236 75.957 23.4895C75.9302 23.6228 75.8233 23.6561 75.7163 23.6228C75.6895 23.6228 75.6628 23.5894 75.6628 23.5894C75.3686 23.2897 75.1279 22.9566 74.8872 22.5902C74.6465 22.2572 74.4058 21.8908 74.2186 21.4911C74.0314 21.0914 73.8442 20.6917 73.7372 20.2254C73.5767 19.7924 73.5232 19.2928 73.5767 18.8265Z" fill="#E8934B"/>
<path d="M53 50.6344C52.9487 50.9795 52.9231 51.3245 52.8718 51.6696C52.7692 51.6121 52.6667 51.6121 52.5897 51.6121C52.5128 51.6121 52.4359 51.5545 52.3333 51.5545C52.2308 51.5545 52.1026 51.5545 52 51.5545C52.0256 51.267 52.0513 50.9795 52.1026 50.6919C52.3077 50.6344 52.5128 50.6344 52.7179 50.6344C52.7949 50.5769 52.8974 50.5769 53 50.6344Z" fill="#E8934B"/>
<path d="M56 63.6382C55.8333 63.8 55.6667 63.9617 55.5 64.0695C55.6667 63.9078 55.8 63.746 55.9333 63.5304C55.9333 63.5843 55.9667 63.6382 56 63.6382Z" fill="#E8934B"/>
<path fill-rule="evenodd" clip-rule="evenodd" d="M57.7113 60.4272C57.9134 59.8061 58 59.1228 58 58.4396C58 55.2099 55.8637 52.5081 52.8903 51.7006C52.8037 51.6696 52.746 51.6696 52.6594 51.6696H52.5728H52.3707C52.3162 51.6696 52.2552 51.6765 52.1909 51.6838C52.1189 51.692 52.0427 51.7006 51.9665 51.7006L51.9657 51.7008H51.8221C50.8406 51.7008 49.9168 51.9492 49.0796 52.384C47.9249 53.2225 47.0589 54.4958 46.6258 55.9554C47.1743 54.651 48.127 53.5641 49.3395 52.943C49.3828 52.912 49.4188 52.8887 49.4549 52.8654C49.491 52.8421 49.5271 52.8188 49.5704 52.7877C49.5704 52.7877 49.5993 52.7567 49.6281 52.7567C49.6859 52.6946 49.7436 52.6635 49.8013 52.6325L49.8014 52.6325C49.8302 52.6014 49.8591 52.5703 49.888 52.5703C49.9021 52.5552 49.9231 52.54 49.9477 52.5248C50.0732 52.4823 50.1986 52.4453 50.321 52.4149C50.3679 52.3981 50.4148 52.3904 50.4663 52.3819C50.5099 52.3747 50.5568 52.367 50.6097 52.3528C50.6963 52.3217 50.8118 52.2907 50.8984 52.2907H50.9273C50.9675 52.2907 51.0076 52.284 51.0507 52.2768C51.1005 52.2685 51.1541 52.2596 51.2159 52.2596H51.5335H51.649H51.9377H52.1397C52.1975 52.2907 52.2263 52.2907 52.2841 52.2907H52.2841C52.3274 52.2907 52.3635 52.2984 52.3995 52.3062C52.4356 52.314 52.4717 52.3217 52.515 52.3217C52.7748 52.3528 53.0346 52.4149 53.2656 52.508C53.3089 52.5236 53.345 52.5391 53.3811 52.5546C53.4172 52.5702 53.4532 52.5857 53.4965 52.6012C53.5254 52.6167 53.5615 52.6323 53.5976 52.6478C53.6337 52.6633 53.6698 52.6789 53.6986 52.6944L53.6986 52.6944C53.7852 52.7254 53.8718 52.7565 53.9584 52.8186C54.0017 52.8341 54.0378 52.8574 54.0739 52.8807C54.11 52.904 54.1461 52.9273 54.1894 52.9428C54.2182 52.9584 54.2543 52.9816 54.2904 53.0049C54.3265 53.0282 54.3626 53.0515 54.3915 53.067C54.7667 53.2844 55.1132 53.5329 55.4307 53.8434L55.6039 54.0298L55.7771 54.2161L55.9503 54.4024C55.9658 54.4273 55.9791 54.45 55.9915 54.471L55.9916 54.4712L55.9917 54.4712C56.0256 54.5289 56.0524 54.5743 56.0947 54.6198C56.1101 54.6447 56.1235 54.6674 56.1359 54.6884L56.136 54.6886L56.136 54.6886C56.17 54.7463 56.1968 54.7917 56.239 54.8372C56.2968 54.8993 56.3545 54.9925 56.3834 55.0546C56.4411 55.1167 56.4988 55.2099 56.5277 55.272C56.571 55.3496 56.6071 55.435 56.6432 55.5204L56.6432 55.5204C56.6793 55.6058 56.7154 55.6912 56.7587 55.7689C56.8453 55.9241 56.903 56.0794 56.9607 56.2347L56.9607 56.2347C56.9752 56.2813 56.9896 56.3201 57.004 56.3589C57.0185 56.3977 57.0329 56.4365 57.0473 56.4831C57.0618 56.5142 57.069 56.553 57.0762 56.5918C57.0834 56.6306 57.0906 56.6695 57.1051 56.7005C57.1195 56.7316 57.1267 56.7704 57.134 56.8092L57.134 56.8092C57.1412 56.848 57.1484 56.8869 57.1628 56.9179C57.1628 56.949 57.17 56.98 57.1773 57.0111C57.1845 57.0421 57.1917 57.0732 57.1917 57.1042C57.2206 57.1353 57.2206 57.1664 57.2206 57.1974C57.2206 57.2285 57.2278 57.2595 57.235 57.2906C57.2422 57.3216 57.2494 57.3527 57.2494 57.3837C57.2783 57.508 57.3072 57.6632 57.3072 57.7875C57.336 57.9117 57.336 58.0048 57.336 58.098V58.4086V58.7812C57.336 58.9055 57.336 58.9986 57.3072 59.1228C57.3072 59.216 57.3072 59.3402 57.2783 59.4334V59.4955C57.2783 59.5576 57.2783 59.6197 57.2494 59.6818C57.2494 59.7439 57.2494 59.8061 57.2206 59.8682C57.2206 59.8837 57.2133 59.8992 57.2061 59.9147C57.1989 59.9303 57.1917 59.9458 57.1917 59.9613L57.1051 60.2408L57.0185 60.5203C57.0185 60.5824 56.9896 60.6445 56.9607 60.7067C56.9319 60.7998 56.903 60.8619 56.8741 60.924L56.8741 60.924C56.8741 60.9396 56.8669 60.9473 56.8597 60.9551C56.8525 60.9629 56.8453 60.9706 56.8453 60.9862C56.8308 61.0172 56.8092 61.056 56.7875 61.0948C56.7659 61.1337 56.7442 61.1725 56.7298 61.2035L56.6432 61.3899C56.6288 61.4054 56.6215 61.4209 56.6143 61.4365C56.6071 61.452 56.5999 61.4675 56.5855 61.483C56.571 61.5141 56.5494 61.5451 56.5277 61.5762L56.5277 61.5762C56.5061 61.6073 56.4844 61.6383 56.47 61.6694C56.47 61.7315 56.4411 61.7625 56.4122 61.7936C56.3834 61.8247 56.3617 61.8635 56.3401 61.9023C56.3184 61.9411 56.2968 61.9799 56.2679 62.011C56.239 62.0576 56.2102 62.0964 56.1813 62.1352C56.1524 62.174 56.1236 62.2128 56.0947 62.2594C56.0947 62.2905 56.0658 62.3215 56.0658 62.3215C56.037 62.3526 56.0081 62.3914 55.9792 62.4302L55.9792 62.4303C55.9503 62.4691 55.9215 62.5079 55.8926 62.5389C55.8349 62.6321 55.7771 62.6942 55.7194 62.7563C55.6993 62.7996 55.6651 62.8278 55.6365 62.8515L55.6365 62.8515C55.624 62.8617 55.6127 62.8711 55.6039 62.8805C55.5853 62.9206 55.5546 62.9478 55.5197 62.9787C55.5005 62.9957 55.48 63.0138 55.4596 63.0358C55.4298 63.0678 55.3924 63.108 55.3513 63.148C55.3393 63.1559 55.3273 63.1636 55.3152 63.1714C55.2286 63.2362 55.142 63.301 55.0554 63.3334C54.8533 63.4954 54.6513 63.625 54.4203 63.7546C53.612 64.2082 52.746 64.4674 51.7933 64.4674C51.6201 64.4674 51.4469 64.4674 51.2737 64.435C51.6778 64.5322 52.1108 64.597 52.5727 64.597H52.948C52.9882 64.597 53.0346 64.59 53.0844 64.5825C53.1418 64.5739 53.2037 64.5646 53.2656 64.5646H53.3233C53.3522 64.5646 53.3883 64.5565 53.4244 64.5484C53.4604 64.5403 53.4965 64.5322 53.5254 64.5322C53.5543 64.5322 53.5831 64.5241 53.612 64.516C53.6409 64.5079 53.6697 64.4998 53.6986 64.4998C53.7852 64.4674 53.879 64.4431 53.9729 64.4188C54.0667 64.3945 54.1605 64.3702 54.2471 64.3378C54.3156 64.3378 54.3661 64.3175 54.4271 64.293C54.4431 64.2865 54.46 64.2797 54.4781 64.273L54.7379 64.1758C54.7956 64.1434 54.8822 64.111 54.9688 64.0786C55.0265 64.0462 55.0771 64.0219 55.1276 63.9976C55.1781 63.9733 55.2286 63.949 55.2864 63.9166C55.3441 63.868 55.4091 63.8113 55.474 63.7546C55.539 63.6979 55.6039 63.6412 55.6617 63.5926C56.4305 62.8866 57.0489 61.9906 57.4562 60.9558C57.5486 60.7842 57.6338 60.6078 57.7113 60.4272ZM46.0774 58.4399C46.0774 61.6075 48.3291 64.2162 51.2159 64.4957C51.649 64.5888 52.082 64.6509 52.515 64.6509C53.4965 64.6509 54.4203 64.4025 55.2575 63.9677C54.2471 64.713 53.0346 65.1478 51.7356 65.1478C48.3002 65.1478 45.5 62.1354 45.5 58.4399C45.5 55.7691 46.9434 53.471 49.0219 52.3841C47.8672 53.2536 47.0012 54.4958 46.5681 55.9554C46.2506 56.7318 46.0774 57.5703 46.0774 58.4399Z" fill="white"/>
<path fill-rule="evenodd" clip-rule="evenodd" d="M62.5 42.6122C60.0542 42.6122 58.0714 44.857 58.0714 47.6261C58.0714 50.3952 60.0542 52.64 62.5 52.64C64.9458 52.64 66.9286 50.3952 66.9286 47.6261C66.9286 44.857 64.9458 42.6122 62.5 42.6122ZM57.5 47.6261C57.5 44.4997 59.7386 41.9652 62.5 41.9652C65.2614 41.9652 67.5 44.4997 67.5 47.6261C67.5 50.7525 65.2614 53.2869 62.5 53.2869C59.7386 53.2869 57.5 50.7525 57.5 47.6261Z" fill="white"/>
<path fill-rule="evenodd" clip-rule="evenodd" d="M82.5 18.355C80.9003 18.355 79.6034 19.7533 79.6034 21.4783C79.6034 23.2032 80.9003 24.6015 82.5 24.6015C84.0997 24.6015 85.3966 23.2032 85.3966 21.4783C85.3966 19.7533 84.0997 18.355 82.5 18.355ZM79 21.4783C79 19.394 80.567 17.7043 82.5 17.7043C84.433 17.7043 86 19.394 86 21.4783C86 23.5625 84.433 25.2522 82.5 25.2522C80.567 25.2522 79 23.5625 79 21.4783Z" fill="white"/>
<path d="M89.1496 26.2909C89.1496 26.2909 97.4667 35.6064 90.5111 51.111L89.9487 49.484C89.9191 49.3882 89.7711 49.3882 89.7711 49.5159L89.2088 55.3221C89.2088 55.4178 89.3271 55.4816 89.3863 55.4178L92.9677 51.0791C93.0565 50.9834 92.9382 50.8239 92.8198 50.8558L91.3694 51.5257C91.3694 51.5257 99.0946 36.7868 90.2743 25.5571L90.5407 24.6C90.6295 24.3129 90.5407 23.9939 90.3335 23.7706L88.3208 21.5374C88.2024 21.4098 88.0248 21.5055 88.0248 21.665L87.9656 23.5792L86.1601 23.7068C86.0121 23.7068 85.9529 23.8982 86.0417 24.0258L87.8768 26.2271C88.084 26.4823 88.4096 26.578 88.7056 26.4823L89.1496 26.2909Z" fill="white"/>
<path d="M44.8994 45.1173C44.8994 45.1173 39.0141 32.4655 50.843 18.6088L50.9595 20.5113C50.9595 20.6382 51.1343 20.6699 51.1635 20.543L53.4943 14.6452C53.5234 14.5501 53.436 14.4233 53.3486 14.4867L48.3082 17.8161C48.1917 17.9112 48.2499 18.1015 48.3956 18.1015L50.1146 17.9112C50.1146 17.9112 37.7321 30.6899 43.5592 45.5613L43.0056 46.4808C42.8308 46.7662 42.8308 47.1467 42.9473 47.4321L44.375 50.4761C44.4624 50.6347 44.6663 50.6347 44.7246 50.4444L45.3656 48.4468L47.2593 48.9224C47.405 48.9541 47.5507 48.7956 47.4924 48.637L46.2396 45.6881C46.0939 45.3393 45.7734 45.1491 45.453 45.1491L44.8994 45.1173Z" fill="white"/>
</svg>
