<svg width="140" height="140" viewBox="0 0 140 140" fill="none" xmlns="http://www.w3.org/2000/svg">
<path fill-rule="evenodd" clip-rule="evenodd" d="M41.546 122.73C53.6007 119.707 60.9265 107.468 57.9087 95.3935C54.8908 83.3189 42.6721 75.9809 30.6174 79.0038C18.5627 82.0266 11.2369 94.2656 14.2548 106.34C17.2726 118.415 29.4913 125.753 41.546 122.73ZM42.305 125.766C56.0339 122.324 64.3772 108.385 60.9402 94.6333C57.5032 80.8816 43.5874 72.5246 29.8585 75.9673C16.1295 79.41 7.78624 93.3487 11.2232 107.1C14.6603 120.852 28.576 129.209 42.305 125.766Z" fill="#E8934B"/>
<path fill-rule="evenodd" clip-rule="evenodd" d="M54.207 76.6749C66.7547 76.6749 76.9265 66.4862 76.9265 53.9178C76.9265 41.3494 66.7547 31.1607 54.207 31.1607C41.6594 31.1607 31.4875 41.3494 31.4875 53.9178C31.4875 66.4862 41.6594 76.6749 54.207 76.6749ZM54.207 79.8357C68.4974 79.8357 80.082 68.2319 80.082 53.9178C80.082 39.6038 68.4974 28 54.207 28C39.9167 28 28.332 39.6038 28.332 53.9178C28.332 68.2319 39.9167 79.8357 54.207 79.8357Z" fill="#E8934B"/>
<path fill-rule="evenodd" clip-rule="evenodd" d="M109.125 112.643C121.673 112.643 131.845 102.454 131.845 89.8855C131.845 77.3171 121.673 67.1284 109.125 67.1284C96.5774 67.1284 86.4055 77.3171 86.4055 89.8855C86.4055 102.454 96.5774 112.643 109.125 112.643ZM109.125 115.803C123.415 115.803 135 104.2 135 89.8855C135 75.5715 123.415 63.9677 109.125 63.9677C94.8346 63.9677 83.25 75.5715 83.25 89.8855C83.25 104.2 94.8346 115.803 109.125 115.803Z" fill="#E8934B"/>
<path d="M39.9927 112.959C38.4835 113.628 36.9709 114.182 35.4549 114.622C33.9263 115.035 32.6318 115.239 31.5716 115.236L29.9606 111.761C31.0879 111.766 32.4484 111.597 34.0422 111.254C35.6359 110.91 37.133 110.429 38.5333 109.811L34.7048 101.552C31.6698 102.07 29.2675 102.06 27.4978 101.525C25.728 100.99 24.3946 99.7548 23.4975 97.8197C22.5625 95.8028 22.5235 93.8992 23.3805 92.1091C24.2647 90.3062 25.8725 88.7798 28.2038 87.5297L26.5359 83.932L29.1481 82.717L30.797 86.2738C32.2518 85.6303 33.6337 85.1863 34.9427 84.9419C36.2663 84.6576 37.5127 84.492 38.6817 84.4452L38.9823 87.9831C37.9473 88.0338 36.8423 88.1833 35.6674 88.4316C34.5071 88.64 33.3638 88.9564 32.2375 89.3809L36.0471 97.5983C38.083 97.2808 39.8386 97.1435 41.3138 97.1862C42.7764 97.2017 44.0092 97.5063 45.0121 98.1C46.0297 98.6538 46.8543 99.6121 47.4861 100.975C48.3706 102.883 48.3833 104.765 47.5244 106.623C46.6528 108.453 44.9877 110.105 42.5291 111.58L44.6329 116.118L42.0207 117.333L39.9927 112.959ZM29.6632 90.6777C28.2444 91.4702 27.3139 92.3171 26.8718 93.2185C26.4569 94.1073 26.458 95.0014 26.8749 95.9008C27.3803 96.991 28.0714 97.6967 28.948 98.0179C29.8391 98.2991 31.1958 98.2645 33.0179 97.9139L29.6632 90.6777ZM41.0507 108.391C42.5803 107.481 43.5798 106.569 44.0491 105.655C44.5058 104.714 44.5193 103.78 44.0897 102.853C43.6096 101.817 42.9229 101.192 42.0298 100.978C41.1241 100.737 39.6858 100.809 37.7149 101.196L41.0507 108.391Z" fill="white"/>
<path d="M52.6158 68.6394C50.9952 68.6092 49.4188 68.4732 47.8865 68.2315C46.3543 67.9596 45.1167 67.597 44.1738 67.1438V63.2917C45.1757 63.7751 46.4574 64.1981 48.0191 64.5607C49.5808 64.9232 51.1131 65.1196 52.6158 65.1498V55.9954C49.6987 55.1797 47.5624 54.1525 46.207 52.9137C44.8515 51.675 44.1738 49.9831 44.1738 47.838C44.1738 45.6023 44.9252 43.85 46.428 42.5811C47.9602 41.3121 50.0228 40.6021 52.6158 40.4511V36.463H55.4446V40.4058C57.0063 40.436 58.4206 40.6172 59.6877 40.9496C60.9842 41.2517 62.1628 41.6294 63.2236 42.0825L62.0302 45.4361C61.0873 45.0434 60.0413 44.711 58.8921 44.4391C57.7724 44.137 56.6232 43.9406 55.4446 43.85V52.9591C57.3893 53.5331 59.0099 54.1525 60.3064 54.8171C61.6029 55.4516 62.5753 56.2522 63.2236 57.219C63.9013 58.1556 64.2402 59.3792 64.2402 60.8899C64.2402 63.0047 63.474 64.7268 61.9418 66.0562C60.4096 67.3553 58.2438 68.156 55.4446 68.4581V73.4885H52.6158V68.6394ZM52.6158 43.9406C51.0247 44.0615 49.846 44.4391 49.0799 45.0736C48.3433 45.7081 47.9749 46.5238 47.9749 47.5208C47.9749 48.7293 48.2991 49.6659 48.9473 50.3306C49.625 50.965 50.8479 51.5089 52.6158 51.962V43.9406ZM55.4446 64.9232C57.1831 64.742 58.4501 64.3341 59.2457 63.6996C60.0413 63.0349 60.439 62.189 60.439 61.1618C60.439 60.0137 60.0855 59.1526 59.3783 58.5786C58.6711 57.9743 57.3598 57.4305 55.4446 56.9471V64.9232Z" fill="white"/>
<path d="M107.534 103.549C105.913 103.519 104.337 103.383 102.805 103.141C101.272 102.869 100.035 102.507 99.0918 102.054V98.2014C100.094 98.6848 101.375 99.1078 102.937 99.4703C104.499 99.8329 106.031 100.029 107.534 100.059V90.9051C104.617 90.0894 102.48 89.0621 101.125 87.8234C99.7695 86.5847 99.0918 84.8928 99.0918 82.7477C99.0918 80.512 99.8432 78.7596 101.346 77.4907C102.878 76.2218 104.941 75.5118 107.534 75.3607V71.3727H110.363V75.3154C111.924 75.3456 113.339 75.5269 114.606 75.8592C115.902 76.1614 117.081 76.539 118.142 76.9922L116.948 80.3458C116.005 79.953 114.959 79.6207 113.81 79.3488C112.69 79.0467 111.541 78.8503 110.363 78.7596V87.8687C112.307 88.4428 113.928 89.0621 115.224 89.7268C116.521 90.3613 117.493 91.1619 118.142 92.1287C118.819 93.0653 119.158 94.2889 119.158 95.7995C119.158 97.9144 118.392 99.6365 116.86 100.966C115.328 102.265 113.162 103.066 110.363 103.368V108.398H107.534V103.549ZM107.534 78.8503C105.943 78.9711 104.764 79.3488 103.998 79.9833C103.261 80.6177 102.893 81.4335 102.893 82.4305C102.893 83.639 103.217 84.5756 103.865 85.2402C104.543 85.8747 105.766 86.4185 107.534 86.8717V78.8503ZM110.363 99.8329C112.101 99.6516 113.368 99.2438 114.164 98.6093C114.959 97.9446 115.357 97.0987 115.357 96.0714C115.357 94.9234 115.003 94.0623 114.296 93.4883C113.589 92.884 112.278 92.3402 110.363 91.8568V99.8329Z" fill="white"/>
<path fill-rule="evenodd" clip-rule="evenodd" d="M84.7339 42.864C80.9995 43.2548 78.4741 44.5229 77.4545 46.1563L74.8008 44.5186C76.5921 41.6491 80.3525 40.1999 84.4069 39.7756C88.5518 39.3418 93.4314 39.9214 98.0436 41.5446C107.255 44.7868 115.866 52.4235 114.852 65.0255L111.739 64.7778C112.599 54.0891 105.436 47.4408 97.0013 44.4721C92.79 42.9899 88.3777 42.4826 84.7339 42.864Z" fill="#E8934B"/>
<path fill-rule="evenodd" clip-rule="evenodd" d="M79.1399 65.5231C85.78 63.1501 93.5685 63.5049 100.148 66.5006L98.8715 69.3714C93.0051 66.7005 86.0447 66.3942 80.1762 68.4915C74.3461 70.575 69.6442 75.0002 68.0409 81.836C63.9464 99.2935 78.7305 110.307 91.1142 104.897L92.3478 107.787C77.3495 114.34 60.3954 100.799 65.0134 81.1092C66.8951 73.0861 72.4614 67.9098 79.1399 65.5231Z" fill="#E8934B"/>
<path fill-rule="evenodd" clip-rule="evenodd" d="M101.218 114.938H58.9457C58.5972 114.938 58.3147 115.196 58.3147 115.515V116.092C58.3147 116.41 58.5972 116.669 58.9457 116.669H101.218C101.566 116.669 101.849 116.41 101.849 116.092V115.515C101.849 115.196 101.566 114.938 101.218 114.938ZM58.9457 112.63C57.2034 112.63 55.791 113.921 55.791 115.515V116.092C55.791 117.685 57.2034 118.977 58.9457 118.977H101.218C102.96 118.977 104.373 117.685 104.373 116.092V115.515C104.373 113.921 102.96 112.63 101.218 112.63H58.9457Z" fill="#E8934B"/>
<path fill-rule="evenodd" clip-rule="evenodd" d="M101.218 121.285H58.9457C58.5972 121.285 58.3147 121.543 58.3147 121.862V122.439C58.3147 122.758 58.5972 123.016 58.9457 123.016H101.218C101.566 123.016 101.849 122.758 101.849 122.439V121.862C101.849 121.543 101.566 121.285 101.218 121.285ZM58.9457 118.977C57.2034 118.977 55.791 120.269 55.791 121.862V122.439C55.791 124.032 57.2034 125.324 58.9457 125.324H101.218C102.96 125.324 104.373 124.032 104.373 122.439V121.862C104.373 120.269 102.96 118.977 101.218 118.977H58.9457Z" fill="#E8934B"/>
<path fill-rule="evenodd" clip-rule="evenodd" d="M93.8914 109.648H67.3289C66.9877 109.648 66.7112 109.907 66.7112 110.225V110.802C66.7112 111.121 66.9877 111.379 67.3289 111.379H93.8914C94.2325 111.379 94.5091 111.121 94.5091 110.802V110.225C94.5091 109.907 94.2325 109.648 93.8914 109.648ZM67.3289 107.34C65.6231 107.34 64.2402 108.632 64.2402 110.225V110.802C64.2402 112.396 65.6231 113.688 67.3289 113.688H93.8914C95.5972 113.688 96.98 112.396 96.98 110.802V110.225C96.98 108.632 95.5972 107.34 93.8914 107.34H67.3289Z" fill="#E8934B"/>
</svg>
