<svg width="140" height="140" viewBox="0 0 140 140" fill="none" xmlns="http://www.w3.org/2000/svg">
<path d="M70.0543 7C155.135 8.36347 155.605 135.731 69.7257 137C-15.3318 135.354 -15.2613 8.36347 70.0543 7ZM132.902 72C131.517 -14.3219 7.11231 -11.736 7.11231 71.7179C7.11231 158.228 132.902 156.347 132.902 72Z" fill="#E8934B"/>
<path d="M72.1024 132.192C70.8123 131.98 67.3878 132.923 67.5051 130.871C67.5285 129.315 67.5989 127.735 67.6693 126.179C67.7162 125.189 68.1384 124.812 69.1235 124.788C70.2025 124.623 76.6293 125.094 76.5121 123.986C76.301 123.397 76.6059 121.227 75.7615 121.345C72.8295 121.605 69.8976 121.746 66.9421 121.581C66.3323 121.558 65.7459 121.463 65.1595 121.416C64.5966 121.369 64.5497 121.416 64.4558 121.958C64.0571 124.906 63.846 127.877 63.4707 130.824C63.4472 133.017 53.9711 129.834 52.5169 129.551C43.6506 126.297 43.9321 127.948 47.2863 120.992C47.8961 119.577 49.3973 120.732 50.3824 121.039C52.0478 121.628 53.6897 122.218 55.355 122.784C56.5278 123.255 56.3871 121.322 56.7389 120.638C56.8796 120.025 56.8093 119.907 56.2229 119.742C52.9156 118.775 49.7022 117.478 46.6764 115.828C46.1838 115.592 46.0196 115.592 45.7616 116.063C45.2456 116.959 44.753 117.879 44.2605 118.775C43.3926 120.331 42.5482 121.911 41.7038 123.467C41.2816 124.246 40.5779 124.434 39.8039 123.986C35.746 121.605 31.9697 118.728 28.5686 115.474C24.2762 111.701 26.8329 112.196 30.187 108.542C30.7969 107.976 31.5006 108.023 32.0635 108.589C33.7054 110.239 35.3942 111.866 37.2003 113.328C37.599 113.658 37.7163 113.658 38.0447 113.257C38.3496 112.668 39.9446 111.536 39.2409 110.923C36.5201 108.707 34.0338 106.254 31.8055 103.566C31.3129 103 31.1722 102.977 30.6092 103.448C28.4513 105.193 26.2934 106.938 24.1355 108.683C22.822 109.768 21.9775 107.905 21.2739 107.032C19.5147 104.557 17.9197 101.986 16.5827 99.2747C15.6914 97.4827 14.9174 95.6199 14.1199 93.7807C13.8619 93.1676 13.9322 92.3659 14.847 92.0593C23.0565 88.9468 19.4443 90.0315 23.8775 97.4355C24.3466 98.6145 25.707 97.0347 26.4107 96.7989C27.3254 96.3037 26.0354 95.1011 25.8243 94.4173C24.7688 92.3659 23.8775 90.2673 23.1503 88.0744C22.7516 87.367 22.8454 85.3627 21.6726 85.8343C19.069 86.5889 16.4655 87.3434 13.8619 88.1216C12.8298 88.4281 12.3607 88.2159 11.9854 87.2255C11.3521 85.3156 8.20904 68.9749 11.3052 69.6115C17.5444 70.1303 17.4271 68.3146 17.4506 75.1292C17.6148 75.7658 17.3333 78.7368 18.2715 78.3831C18.9752 78.1709 21.1097 78.5482 20.7813 77.3928C20.4998 74.9405 20.4764 72.5118 20.5233 70.0595C20.5467 69.0928 20.664 68.1024 20.7344 67.1357C20.7579 66.6876 20.4998 66.5462 20.1011 66.5226C17.779 66.3104 15.4803 66.0746 13.1582 65.8152C11.915 65.6973 10.1324 65.7445 10.5312 63.9524C11.2817 58.7885 12.6187 53.7896 14.5655 48.9557C14.9174 48.0597 15.4334 46.5978 16.6531 47.258C24.6046 50.7478 21.4615 49.0736 19.3974 57.2322C19.1159 58.1282 19.1863 58.2225 20.0776 58.4348C20.5702 58.5527 21.0628 58.6941 21.5319 58.8356C22.0245 59.0007 22.1886 58.9064 22.3528 58.3876C22.7985 57.02 23.1738 55.6524 23.7133 54.3319C24.5108 52.422 25.2848 50.4648 26.2699 48.6256C26.8798 47.706 25.0502 47.3995 24.5108 46.9279C22.517 45.8197 20.4998 44.735 18.5061 43.6267C17.8728 43.2731 17.6617 42.7543 17.9901 42.1176C20.0542 38.2742 22.6812 34.7372 25.5897 31.5068C26.6452 30.6815 28.7328 27.1446 30.1167 28.5122C33.94 33.1338 35.4177 32.1199 31.6413 35.7747C30.6796 36.8594 29.7414 37.944 28.8032 39.0523C27.8649 39.9955 29.8352 40.6085 30.3278 41.2216C30.75 41.5282 30.8907 41.5046 31.2191 41.1037C33.4239 38.3213 35.8868 35.7983 38.6076 33.5346C38.9126 33.2281 38.936 33.1102 38.678 32.7565C36.9423 30.54 35.1597 28.3471 33.4005 26.1542C33.0017 25.7062 32.6968 25.046 33.2128 24.5508C35.4646 22.4522 38.162 20.896 40.8125 19.3633C42.9 18.1843 45.058 17.1232 47.2863 16.2508C48.1307 15.8971 49.2331 15.2368 49.7726 16.5573C52.5638 23.8434 52.3996 21.6977 45.9962 24.9281C43.4864 26.2014 43.6741 25.8241 45.0814 28.2528C45.3394 28.7244 45.5036 28.7716 45.9962 28.5122C47.1221 27.9463 48.2479 27.3332 49.3973 26.7909C51.391 25.8948 53.4316 25.0931 55.5192 24.4329C56.0587 24.2678 56.1525 24.1499 56.0118 23.6312C55.2612 20.9195 54.4637 18.2079 53.6662 15.5198C53.3847 14.6473 53.6427 14.0579 54.5341 13.8456C56.1525 13.4448 57.771 13.0675 59.4129 12.761C63.1423 12.0064 66.9656 11.7942 70.7654 11.7706C71.6098 11.8414 72.595 11.9593 72.4542 13.0675C72.4073 22.0514 72.29 18.1607 64.0571 19.4812C63.4238 19.5755 63.4003 19.5991 63.4707 20.2357C63.5411 20.8252 63.6114 21.4383 63.6818 22.0278C63.6818 23.0653 65.0422 22.4522 65.699 22.4994C68.7717 22.1928 71.8913 22.2164 74.964 22.5465C75.3627 22.5701 75.4096 22.523 75.48 22.1221C75.8788 19.717 76.0195 17.2411 76.301 14.8124C76.4886 13.94 76.2071 12.5488 77.3565 12.3365C79.2798 12.0536 96.1679 15.9442 94.8544 18.3022C91.3361 26.6965 92.6027 23.2303 84.6277 21.1789C83.4549 20.7309 83.5488 22.688 83.2439 23.3954C83.1031 23.9613 83.1969 24.0792 83.7599 24.2443C85.8709 24.8809 87.9585 25.6119 89.9756 26.5315C94.7841 28.7244 93.3298 29.4318 96.0037 24.7159C96.7778 23.3247 97.5518 21.9099 98.279 20.4951C98.795 19.5283 99.4752 19.5991 100.202 19.9999C105.058 22.8766 109.608 26.4136 113.431 30.5872C113.83 31.2003 113.783 31.6954 113.244 32.1906C112.071 33.2753 110.898 34.3599 109.725 35.4446C109.092 36.0105 108.506 36.0105 107.896 35.3739C106.348 33.7704 104.706 32.2613 102.97 30.823C102.337 30.2807 102.22 30.2807 101.727 30.9173C101.422 31.5775 99.8974 32.45 100.836 33.1574C101.821 34.0062 102.806 34.8315 103.768 35.704C105.269 37.0952 106.7 38.5571 107.966 40.1841C108.646 41.033 108.717 41.033 109.561 40.3256C111.649 38.6279 113.736 36.9537 115.847 35.2795C116.504 34.7608 117.09 34.808 117.606 35.4682C121.031 39.9719 123.869 44.9236 125.863 50.229C126.144 50.9836 125.98 51.5967 125.136 51.9032C123.635 52.4455 122.157 53.0114 120.656 53.5302C119.811 53.8132 119.366 53.5538 119.014 52.7049C118.498 51.5024 117.982 50.2762 117.442 49.0972C117.044 48.2248 116.574 47.3995 116.129 46.5506C115.847 46.0319 115.683 45.9847 115.191 46.2441C114.604 46.7393 112.775 47.0694 113.384 48.0833C115.05 51.1487 116.41 54.3555 117.395 57.6802C117.56 58.2225 117.747 58.3169 118.263 58.1518C120.093 57.6095 121.946 57.0907 123.775 56.5484C126.52 55.8174 127.857 54.497 128.42 58.4583C128.771 60.4155 131.68 74.799 128.724 74.3746C122.532 73.8323 122.532 75.7894 122.556 68.9749C122.509 68.0081 122.415 67.0649 122.298 66.0982C122.251 65.6266 122.133 65.5558 121.664 65.603C120.937 65.8388 118.92 65.4143 119.225 66.5933C119.577 69.9416 119.6 73.29 119.272 76.6383C119.225 77.3221 119.319 77.4164 119.999 77.4871C121.266 77.605 122.532 77.7229 123.799 77.8408C131.117 78.6189 129.897 77.5814 128.208 86.3295C127.716 87.7679 125.417 98.308 123.4 96.7989C121.922 96.1151 120.421 95.4548 118.967 94.7474C118.193 94.3702 117.982 93.7807 118.334 92.979C119.248 90.904 119.999 88.7346 120.632 86.5653C120.796 85.8815 120.703 85.7872 120.046 85.6221C119.319 85.5985 117.841 84.4903 117.606 85.6221C116.715 89.0412 115.284 92.248 113.713 95.3841C113.478 95.8557 113.502 95.9736 113.947 96.233C115.472 97.0818 116.997 97.9071 118.521 98.756C119.553 99.6048 122.837 100.265 121.993 101.892C120.093 105.429 117.724 108.73 115.05 111.748C110.03 117.007 111.367 117.266 106.418 111.725C105.949 111.182 105.879 110.923 106.535 110.145C108.083 108.542 109.561 106.867 111.039 105.193C111.461 104.651 111.743 104.344 110.969 103.826C110.312 103.543 109.42 101.963 108.764 102.977C106.676 105.618 104.331 108.046 101.75 110.192C100.976 110.829 100.976 110.876 101.61 111.654C103.275 113.729 104.94 115.78 106.582 117.855C107.262 118.469 107.145 119.435 106.395 119.907C102.947 122.406 99.4283 124.811 95.5346 126.58C94.3149 127.169 93.0249 127.641 91.7583 128.183C91.125 128.443 90.4448 128.113 90.2337 127.523C89.7176 126.038 89.1547 124.552 88.5918 123.09C88.2399 122.218 88.451 121.652 89.3189 121.275C90.0695 120.85 96.8951 118.327 95.863 117.502C95.4408 117.03 94.9717 114.979 94.1508 115.474C91.5472 116.842 88.8967 118.138 86.1055 119.058C83.8068 119.86 83.5488 119.317 84.3697 121.888C85.0265 124.104 85.6598 126.321 86.3165 128.537C86.5746 129.41 86.3165 129.975 85.4487 130.211C81.1094 131.367 76.6528 132.121 72.1493 132.216C72.1024 132.145 72.1024 132.168 72.1024 132.192ZM20.406 41.5989C33.94 50.6535 28.0995 43.108 23.8775 60.1561C23.6429 61.1228 23.1269 61.4058 22.1652 61.1936C20.7344 60.8635 19.3271 60.5334 17.8963 60.2268C16.5827 60.0382 16.8877 58.6706 17.1926 57.751C17.8024 55.6995 18.4357 53.6481 19.1629 51.6438C19.3036 51.243 19.2332 51.1015 18.8345 50.9364C15.2692 49.3094 16.4185 49.9225 14.9643 53.2944C13.8853 56.3126 13.2989 59.4723 12.6891 62.6084C12.5953 63.0564 12.7125 63.1979 13.1582 63.2686C14.2841 63.4572 15.4099 63.6459 16.5358 63.8109C26.2699 65.2729 21.4381 63.4808 22.4936 75.4829C23.2676 81.4957 22.8454 79.6565 17.1457 80.8826C15.3865 81.0241 15.8087 78.6425 15.5741 77.5107C15.4569 75.8366 15.3865 74.1624 15.2927 72.4882C15.2692 71.9931 15.2223 71.9223 14.7297 71.9223C14.0026 71.8988 13.2755 71.9223 12.5249 71.9223C11.9854 71.9223 11.915 71.9931 11.915 72.559C11.9385 76.7326 12.4311 80.859 13.3224 84.9383C13.4162 85.4571 13.6039 85.5514 14.1199 85.4335C17.0049 84.8204 19.8196 83.9715 22.7047 83.4292C24.1824 83.217 24.112 85.5514 24.5811 86.5417C25.1441 88.4281 25.8477 90.2437 26.6921 92.0122C27.4193 93.4977 28.2168 94.9597 28.9908 96.398C29.3426 97.0582 29.2723 97.5534 28.6624 97.9543C27.3254 98.8267 25.965 99.6756 24.628 100.524C23.9244 101.043 23.2442 100.572 22.8454 99.8878C21.6961 97.7656 20.5467 95.667 19.6085 93.4506C19.4912 93.1676 19.3036 93.0969 19.0221 93.144C18.3419 93.3562 17.7086 93.6863 17.0518 93.9457C16.3013 94.2051 16.3482 94.5588 16.6766 95.219C17.5913 97.3176 18.5999 99.3926 19.7727 101.35C20.6875 102.835 21.6492 104.297 22.6109 105.759C22.9158 106.231 23.08 106.231 23.5256 105.901C25.8008 104.226 28.0995 102.576 30.3747 100.878C31.8289 99.7935 32.5092 101.821 33.377 102.623C35.4646 105.122 37.7867 107.41 40.3434 109.438C41.0236 110.051 42.5717 110.734 41.7507 111.843C40.8125 113.187 39.8742 114.531 38.936 115.851C38.1854 116.983 37.0127 115.828 36.2855 115.238C34.714 113.965 33.1659 112.644 31.7117 111.23C31.3598 110.876 31.2425 110.876 30.8673 111.23C30.3278 111.748 29.8118 112.291 29.2723 112.833C28.8735 113.187 29.155 113.517 29.4834 113.8C32.3919 116.7 35.6522 119.176 39.1002 121.392C39.8977 122.029 40.2026 120.661 40.6014 120.19C47.8023 108.542 41.9618 114.153 58.0055 118.256C60.1165 118.728 58.4512 121.463 58.3808 122.902C58.0524 123.986 58.1228 125.519 56.5513 125.212C54.1353 124.717 51.8367 123.703 49.5145 122.925C48.5529 122.548 48.4121 124.599 47.9665 125.26C47.7788 125.731 47.8257 125.896 48.2949 126.108C51.1564 127.287 54.1119 128.16 57.1142 128.891C57.7944 128.938 61.0313 130.117 61.0078 129.056C61.2659 127.5 61.5239 125.943 61.7584 124.363C62.2041 123.09 61.735 119.223 63.5411 119.388C67.9273 119.907 72.337 119.883 76.7232 119.317C78.412 118.987 78.154 121.039 78.4354 122.147C78.4354 123.35 79.5613 125.212 78.4589 126.038C75.9491 126.887 73.1344 126.627 70.5074 126.887C70.0617 126.91 69.9445 127.004 69.921 127.405C69.921 128.207 69.9445 129.032 69.9679 129.834C69.9679 130.329 70.4839 130.282 70.8358 130.258C73.369 130.14 75.9257 130.046 78.4589 129.645C79.8193 129.433 81.2032 129.197 82.5402 128.867C83.5722 128.631 83.5722 128.702 83.3142 127.57C82.6809 124.882 82.0007 122.194 81.3439 119.506C81.039 117.903 83.2204 117.973 84.229 117.502C87.7943 116.346 91.2188 114.861 94.3853 112.904C94.9248 112.668 95.4408 112.809 95.7692 113.305C96.5901 114.554 97.3407 115.828 98.1851 117.054C98.9826 118.233 98.4197 118.775 97.5987 119.247C95.6285 120.379 93.6347 121.463 91.5472 122.336C91.3126 122.477 90.8435 122.619 91.0077 122.996C91.3361 123.798 91.6879 124.599 92.0163 125.377C92.157 125.778 92.6027 125.613 92.8841 125.472C96.6371 123.774 100.273 121.817 103.603 119.341C104.026 119.034 104.049 118.917 103.744 118.469C102.055 116.111 100.32 113.8 98.6308 111.442C98.1851 110.829 98.279 110.31 98.8184 109.862C100.46 108.518 102.102 107.174 103.556 105.618C104.635 104.439 105.691 103.26 106.746 102.057C107.614 101.279 108.295 99.1332 109.702 100.194C115.894 104.557 115.144 102.741 108.904 110.31C108.271 110.9 110.218 112.102 110.64 112.692C111.039 113.092 111.438 112.526 111.719 112.244C112.915 110.876 114.112 109.532 115.261 108.164C116.668 106.443 117.911 104.604 119.084 102.717C119.342 102.317 119.272 102.128 118.873 101.892C116.434 100.383 113.971 98.8975 111.531 97.3884C110.851 96.9639 110.687 96.4216 111.062 95.7142C112.329 93.427 113.478 91.069 114.37 88.6167C114.956 86.9897 115.519 85.3627 115.894 83.665C116.058 82.9104 116.574 82.5568 117.348 82.6982C122.321 84.2545 124.033 82.2502 121.852 88.6167C120.679 92.979 119.084 92.4602 122.978 93.875C123.377 94.04 123.541 93.9457 123.705 93.5213C123.986 92.8139 124.268 92.1301 124.502 91.4227C125.159 89.4892 125.793 87.5321 126.191 85.5042C126.449 84.1837 126.731 82.8633 126.989 81.5193C127.129 80.8354 127.059 80.7647 126.332 80.6704C124.573 80.4346 122.814 80.1516 121.054 79.8451C119.952 79.4442 116.997 79.8923 116.926 78.3596C117.255 74.2803 117.536 70.1774 116.95 66.1217C116.832 65.2257 116.645 63.9524 117.864 63.8581C119.436 63.5987 120.984 63.2686 122.579 63.08C124.502 62.9621 123.799 65.8859 124.151 67.1121C124.268 68.5976 124.362 70.0831 124.385 71.5686C124.385 71.828 124.456 72.0402 124.76 72.0402C125.652 72.0402 126.52 72.0402 127.411 72.0402C127.857 72.0402 127.763 71.4979 127.763 71.1678C127.646 68.5269 127.528 65.8859 127.129 63.2922C126.871 62.514 126.66 57.916 125.628 58.5291C123.165 59.0714 120.703 59.7081 118.24 60.274C117.348 60.4862 116.082 60.9814 115.753 59.7316C115.191 58.0575 114.721 56.3362 114.088 54.6856C113.15 52.2333 112.024 49.8754 110.664 47.6353C109.655 45.8904 112.47 45.3245 113.431 44.4049C114.323 44.0276 115.284 42.6836 116.246 43.4381C117.911 45.4424 118.756 48.0597 119.975 50.3705C120.351 51.4788 121.899 50.1347 122.72 49.9697C123.377 49.781 123.259 49.333 123.001 48.7907C121.336 45.0887 119.436 41.481 117.02 38.2034C116.692 37.7554 116.551 37.7318 116.105 38.0619C114.745 39.0523 113.408 40.0191 112.047 41.0094C108.834 42.9901 108.811 44.9944 106.277 41.3631C103.815 38.4864 101.07 35.8926 98.0913 33.5582C96.942 32.5679 98.5135 31.4125 99.0061 30.4929C99.9443 29.5261 100.648 26.8616 102.29 27.8991C104.448 29.4082 106.348 31.271 108.318 33.0159C109.139 32.4736 109.725 31.6719 110.429 31.0116C111.015 30.4221 109.467 29.6676 109.162 29.196C108.248 28.4886 100.249 21.1789 99.6863 22.6644C98.1617 25.1167 96.7074 27.6162 95.1359 30.0684C94.268 31.6954 92.6965 29.8798 91.5706 29.4554C88.3337 27.8048 84.9796 26.4608 81.4612 25.6119C79.5848 25.1639 81.1797 22.3343 81.2267 21.0139C81.6958 17.7834 82.7278 18.5851 85.261 19.269C86.8795 19.8113 88.4745 20.4008 90.0695 20.9667C90.4682 21.1082 90.6559 21.061 90.82 20.6602C92.2508 17.4297 92.0397 18.1136 88.967 16.9346C85.7536 15.8263 82.4464 14.8596 79.0687 14.4351C78.2947 14.2465 78.3416 17.0289 78.1305 17.642C76.5121 25.8948 79.186 24.5272 70.8592 24.1735C68.1618 24.0556 65.4644 24.315 62.7905 24.6215C61.172 24.8573 61.4535 22.8766 61.1486 21.8156C61.172 20.4951 59.7412 18.09 61.6881 17.6655C64.1274 17.194 66.6138 17.2175 69.0766 17.0525C69.4988 17.0289 69.6161 16.9582 69.6395 16.5101C69.5223 15.8263 70.0852 13.4212 69.0062 13.6806C66.0977 13.6806 63.1892 13.94 60.3276 14.4351C59.1783 14.6709 58.0524 14.836 56.9031 15.0718C56.1291 15.2368 56.0352 15.4019 56.1994 16.1564C56.8562 18.9388 57.5599 21.7212 58.2401 24.4801C58.3104 24.7394 58.2401 24.9988 58.0993 25.2346C57.1846 26.2014 55.6365 26.1542 54.4402 26.673C52.6576 27.2389 50.9453 27.9463 49.3034 28.7716C47.9899 29.4082 46.7233 30.1392 45.4333 30.8466C44.6358 31.2946 44.1432 31.2003 43.6272 30.4221C42.8297 29.1488 42.0087 27.8755 41.2112 26.6022C40.7656 25.9184 40.8828 25.3761 41.5631 24.9045C43.6272 23.5369 45.8789 22.523 48.1307 21.4619C48.6232 21.2261 48.6467 21.1789 48.4356 20.6837C48.1776 20.0471 47.8961 19.3869 47.6146 18.7738C47.3566 18.1843 47.2393 18.1371 46.6295 18.4201C42.8297 20.0707 39.2175 22.1457 35.8633 24.5744C35.0424 25.0931 36.4263 26.0363 36.6608 26.6022C38.0682 28.5122 39.452 30.4221 40.8594 32.3321C41.3754 33.0395 41.305 33.5346 40.6248 34.1006C38.3965 35.8926 36.309 37.8261 34.3856 39.9483C33.377 41.0566 32.4388 42.2355 31.524 43.4381C31.1253 43.9569 30.3747 44.0983 29.7883 43.6739C25.9181 40.4199 23.5725 41.5517 27.7711 36.7651C28.6624 35.704 29.6241 34.6901 30.5389 33.6525C30.8438 33.2989 30.8438 33.181 30.5154 32.8508C29.8352 32.4028 28.7797 30.3514 28.0057 31.4125C25.2379 34.4778 22.7047 37.8969 20.406 41.5989Z" fill="#E8934B"/>
<path d="M25.8145 71.9853C26.7997 13.4477 113.55 13.4006 114.582 72.0324C113.503 130.546 26.7763 130.593 25.8145 71.9853ZM70.1984 29.466C12.2084 29.466 12.2084 113.421 70.1514 114.528C126.968 115.659 128.188 29.466 70.1984 29.466Z" fill="#E8934B"/>
<path d="M84.3991 70.8777C82.681 73.0628 80.9864 74.8484 78.8917 76.7515C80.2097 76.3521 81.4101 75.9997 82.6339 75.6472C83.1517 71.794 87.6 69.5855 84.1873 75.2478C86.4702 74.8954 84.8463 73.7206 87.5529 71.888C87.8824 71.653 88.1413 71.888 88.1177 72.2404C88.0471 73.1567 87.4352 73.6501 86.8704 74.3785C90.0477 73.7676 87.9295 73.3212 89.7652 70.9482C91.2009 69.6794 90.5184 72.5459 90.0477 73.1097C90.4949 73.1097 91.3657 72.6398 91.8599 72.1464C89.9771 68.0113 93.0602 64.4635 92.872 71.4181C93.5545 70.8542 94.0958 70.3138 94.6371 69.7264C92.872 68.5987 93.8134 63.8996 94.8254 65.3563C95.4138 66.3666 95.7433 67.4004 95.4609 68.5752C95.5315 68.5986 95.6021 68.6221 95.6021 68.5986C96.0257 67.9878 96.4729 67.3769 96.8966 66.766C97.0613 65.2623 97.532 63.8996 98.8971 63.0538C99.3678 62.7718 100.686 61.6675 100.615 62.8658C100.45 64.8159 99.509 66.2726 97.7203 67.1184C97.0849 67.4944 96.8966 68.2227 96.4259 68.8336C97.7909 68.6221 99.0854 68.8571 100.403 69.139C100.521 69.1625 100.686 69.3035 100.709 69.421C100.733 69.5385 100.639 69.7264 100.545 69.7969C99.0619 71.0422 97.0613 70.9952 95.4373 70.0789C94.896 70.6192 94.3547 71.1596 93.8369 71.7C95.3903 71.747 96.9201 72.3579 98.3087 73.0627C99.8385 74.261 94.2841 75.0364 92.5189 72.6868C91.8129 73.1097 91.1068 73.5092 90.3772 73.9556C91.554 74.6369 92.4483 75.5532 93.2015 76.681C93.2956 76.7985 93.3191 77.0569 93.2485 77.1979C91.5775 77.6913 89.577 76.0467 89.2004 74.4255C88.4943 74.6604 87.8118 74.9189 87.0351 75.1773C87.5058 75.6002 90.3066 79.5944 88.2825 78.9836C86.7291 78.4667 85.9289 77.1744 85.623 75.6237C85.0346 75.7882 84.4932 75.9292 83.9284 76.0936C84.6345 77.1274 85.1993 78.1612 85.3876 79.4065C85.4347 79.6649 85.5759 79.9469 85.317 80.1348C85.0581 80.3228 84.8463 80.1113 84.658 79.9939C83.3871 79.2185 82.7987 77.9263 82.7045 76.4696C78.5152 77.2919 74.8201 79.5005 71.478 82.0849C67.9476 85.1393 67.7358 85.3038 67.9712 89.8854C76.5382 89.8149 85.1287 89.5329 93.6957 89.392C94.6607 89.5329 100.921 88.8046 100.662 89.6269C100.592 90.0968 100.05 89.9559 99.7209 89.9794C93.884 90.0968 88.0471 90.2143 82.2103 90.3553C67.9947 90.6372 53.8027 90.9896 39.5871 91.2716C38.575 91.3891 38.7162 90.4023 39.7047 90.5667C48.8601 90.3553 58.0156 90.2143 67.1945 89.9558C67.3122 86.7135 67.1945 83.4947 67.1945 80.2523C67.1709 78.6546 66.4413 77.4094 65.1233 76.5166C63.7112 75.5533 62.0402 75.1303 60.4868 74.496C60.275 74.402 60.0867 74.402 59.9219 74.5664C59.2865 75.2008 58.4392 75.5298 57.6861 75.9527C57.8979 77.9263 56.2739 79.0305 54.697 79.8059C54.2734 80.0408 53.9439 79.7589 54.0615 79.2655C54.2734 78.0437 55.1207 77.2684 55.9444 76.4226C55.2148 76.4931 54.5087 76.587 53.7791 76.6575C53.5202 78.4902 51.8963 79.383 50.2252 79.7119C49.731 79.8529 49.4956 79.5709 49.6604 79.0775C50.0369 77.7618 51.1902 77.2449 52.2728 76.5635C51.3549 76.3756 50.4135 76.1641 49.4721 75.9527C48.6719 78.1142 46.3889 78.3022 44.3884 78.3022C44.2236 78.3022 43.9647 78.1847 43.9412 78.0672C44.2471 76.2581 46.789 75.9292 48.3188 75.6707C42.2937 72.9923 46.0594 76.4226 39.8695 75.2948C39.4223 75.2713 38.9987 74.8484 39.4459 74.496C41.7053 72.6633 44.9297 73.8381 47.448 74.496C47.0244 73.4152 46.3183 72.4754 45.8476 71.4181C45.6358 70.3373 47.1185 71.0891 47.5186 71.3946C48.6013 72.3109 49.4015 73.6501 49.3309 75.0833C50.084 75.3888 50.8842 75.5533 51.755 75.6942C51.4491 74.9189 49.8957 72.6868 50.3429 71.935C52.2493 71.4181 53.2849 74.308 53.6379 75.7882C54.0851 75.9292 54.697 75.8822 55.662 75.6472C51.708 71.841 55.4737 71.935 56.9564 75.3653C57.8508 75.0833 58.6981 74.7544 59.4748 74.0496C57.4507 72.9923 55.4737 72.029 54.0615 70.2903C52.2258 71.3006 50.5076 70.4548 49.119 69.233C48.9543 69.1155 48.7425 68.9511 48.8602 68.7396C49.9899 67.6353 51.755 68.5282 53.0495 68.9041C53.0024 68.5752 52.2964 67.2594 51.7315 66.4606C49.6604 67.1184 47.8481 65.7557 46.6949 64.1345C46.5536 63.9701 46.4595 63.7821 46.6007 63.5707C46.7419 63.3827 46.9302 63.4532 47.1185 63.4767C48.5777 63.4062 49.7074 64.1345 50.8842 64.8629C49.9899 61.832 48.2718 62.8188 47.1656 60.3048C46.9538 59.7409 45.824 57.9083 47.1891 58.2372C48.2012 58.6132 49.1661 59.1066 49.778 60.0464C50.5547 61.1741 50.3664 62.4664 51.1431 63.6411C51.4255 62.8188 51.4726 62.02 51.755 61.2446C52.7435 60.3048 53.1437 63.8526 52.8612 64.44C52.7671 65.0274 52.6494 65.4738 52.3905 66.0612C53.4496 67.8468 54.2263 69.8909 55.9915 71.1361C56.4622 70.4078 56.8623 69.7029 57.0977 68.8806C55.7561 68.6456 54.7205 67.8468 54.0615 66.672C53.8497 66.2961 54.038 65.9907 54.4617 66.0142C55.8032 65.9907 56.4622 67.048 57.333 67.9408C57.6154 67.1184 57.639 66.3666 57.6625 65.5678C56.1327 65.5678 55.0265 64.581 54.0851 63.5002C53.9909 63.4062 53.8968 63.1477 53.9674 63.0538C54.3675 62.5134 55.1442 62.9598 55.662 63.0303C56.4857 63.2652 56.9564 63.9466 57.639 64.4165C57.7331 63.5942 57.639 62.8188 57.5213 61.9965C55.7797 62.2314 54.4146 61.1741 53.3084 59.9524C53.2143 59.8584 53.1201 59.6235 53.1672 59.5295C54.7205 58.7306 56.2033 60.2578 57.4036 61.2211C57.2624 60.1169 56.98 59.1771 56.674 58.2137C54.2498 58.5662 52.6023 56.8745 51.5197 54.9244C50.9784 53.8906 52.4611 54.1961 52.9789 54.4545C54.3204 54.8774 55.1442 55.9582 56.2504 56.757C55.9444 55.6528 55.662 54.572 55.356 53.4677C53.073 53.4207 51.9433 51.5646 51.0725 49.7085C50.7901 49.2385 51.1431 48.6277 51.708 48.8391C53.0966 49.2855 53.8497 50.4838 54.8853 51.4236C54.2734 46.7246 52.4376 49.1211 52.1787 43.5762C52.1316 43.1298 52.5317 42.8008 52.9083 43.1768C56.0621 45.7143 54.391 47.8053 55.5914 51.1887C56.1092 50.3663 56.4857 49.5205 57.1918 48.8391C57.5919 48.5572 58.9805 46.3251 59.2629 47.4764C59.5689 49.9434 57.8508 51.7525 55.9915 53.1153C56.2033 53.9376 56.4151 54.7599 56.6505 55.6293C57.4507 54.5015 58.298 53.5382 59.4512 52.7393C60.7457 52.152 59.9926 54.8539 59.5689 55.3473C58.957 56.2871 58.2274 57.039 57.2624 57.6499C57.4742 58.4487 57.686 59.271 57.9449 60.1638C58.345 59.6235 60.1102 57.0625 60.7457 57.4149C61.2399 57.8848 60.8398 58.7071 60.6751 59.224C58.9805 62.4664 57.8273 60.0464 58.3921 63.7351C59.0982 62.8893 62.911 59.6 61.5224 62.8188C59.616 65.9907 58.1568 63.7116 58.2744 67.1889C59.5218 66.625 60.8163 66.1551 62.1814 65.8732C63.5229 65.5913 62.6521 67.4239 62.0166 67.7528C60.8869 68.6456 59.4512 68.9041 58.0626 69.0686C57.8979 69.092 57.7331 69.1155 57.639 69.3035C57.2859 70.0554 56.9094 70.7837 56.5328 71.5825C59.7337 74.1435 64.3702 74.2375 67.1003 77.4564C67.2651 71.982 67.1003 66.2961 67.1474 60.7512C66.1118 60.4458 65.2175 60.0464 64.6526 59.1066C64.3467 58.4487 63.6171 57.6968 63.8053 56.945C63.9466 56.7335 64.1819 56.851 64.3702 56.9215C65.5705 57.2974 66.2531 58.1668 67.0533 59.1066C67.6417 56.3811 66.206 56.71 65.8765 54.478C65.9 53.7966 65.3116 52.7158 65.7823 52.199C67.3828 52.2224 68.2301 54.9244 67.9006 56.2871C67.8299 58.2842 67.8064 60.3048 67.9241 62.2784C68.5831 61.5031 69.195 60.7982 69.8305 60.0464C68.9361 58.6367 69.0773 57.133 69.3598 55.6058C69.4068 55.0889 69.9482 55.1124 70.16 55.5118C70.7484 56.5926 70.6072 57.8143 70.5366 58.9891C70.9602 58.7776 71.8781 57.4384 72.1841 56.6161C71.0308 55.3708 69.9482 53.9846 70.16 52.199C70.3012 51.4941 70.16 50.5778 70.6542 50.0139C71.3132 49.5675 71.6663 50.8597 71.9958 51.2591C72.5842 52.3869 72.8666 53.5617 72.9137 54.8539C73.5491 54.1491 74.4435 50.6248 74.3023 49.3795C69.4539 47.8993 69.0773 38.1018 74.2787 46.6071C74.3258 45.1974 74.2317 43.7642 74.1846 42.3544C73.455 40.4278 72.4665 38.7832 73.2902 36.6451C73.5256 36.1517 73.7139 34.1076 74.5141 35.0944C76.1851 37.1855 75.6203 39.676 74.8671 42.002C74.9142 43.7642 74.9613 45.3853 75.1025 47.1475C76.0204 45.9962 76.8677 44.9389 78.2327 44.3045C78.7976 44.0931 79.3625 43.4822 79.9979 43.6232C80.2803 43.7876 80.045 44.2575 79.9979 44.516C78.9388 46.6306 77.7856 48.9801 75.126 49.2855C75.0319 51.1417 74.5612 52.9273 73.8551 54.7834C74.2787 54.4075 79.2212 51.6821 78.3504 53.5147C77.2678 55.4883 75.5261 56.4046 73.3608 56.6161C73.149 56.6396 73.0313 56.6865 72.9137 56.8745C72.4194 57.7673 71.7133 58.5662 71.3368 59.506C71.9016 59.224 77.9503 57.9318 76.75 59.5765C75.1496 61.3386 72.3253 62.0435 70.2306 60.7277C69.3127 61.7145 68.2065 62.7013 67.877 64.0406C67.9241 66.766 67.7829 69.515 67.9476 72.2404C69.1244 71.5356 70.16 70.7837 71.0308 69.8909C70.0658 68.2697 70.4189 67.001 71.3368 65.4973C72.49 64.1111 72.3959 68.0818 72.0664 68.6221C73.3844 67.5649 73.1961 65.7087 74.2552 64.4635C74.773 64.0171 75.1731 63.1008 75.9498 63.1243C76.1851 63.1712 76.1616 63.4062 76.1616 63.5942C76.0204 64.9569 75.6909 66.2021 74.3493 66.8835C73.7139 67.2359 73.6433 67.7998 73.2196 68.4577C73.9963 68.2462 74.6553 68.1052 75.2908 67.9173C75.4791 67.8703 75.6438 67.7528 75.8086 67.9173C76.2557 69.1625 74.467 70.4078 73.2667 70.3843C72.6783 70.4783 71.9722 70.0788 71.478 70.4783C70.4424 71.4886 69.195 72.2639 67.9476 73.0393C67.9476 76.8455 67.9476 80.6752 67.9476 84.5519C71.6427 80.2288 77.103 77.9028 81.0335 73.7911C79.2212 72.7573 78.8211 70.9952 78.727 69.139C78.7034 68.9276 78.727 68.7161 78.9388 68.5986C79.1506 68.4812 79.2918 68.6456 79.4331 68.7631C80.7511 69.8204 81.5277 71.1831 81.7396 72.8748C82.1867 72.5928 83.2929 71.2536 83.693 70.5488C82.7045 69.7264 81.9749 68.8101 81.8102 67.4944C81.7866 66.9775 81.4101 66.2256 81.8102 65.8027C81.9279 65.7557 82.1397 65.8027 82.2573 65.8967C83.4341 66.7425 84.1402 67.9173 84.3991 69.3505C84.7757 69.0451 85.317 68.1052 85.6465 67.2124C83.9519 66.4136 83.5283 64.628 83.3871 62.9128C83.3635 62.7483 83.4577 62.4899 83.5754 62.3724C85.1522 62.4429 86.0937 64.487 86.1878 65.9437C87.7412 64.0406 86.5409 61.832 88.1648 60.0464C88.5885 59.6939 89.9535 57.5559 90.3066 58.7306C90.4007 60.6338 90.0006 62.3254 88.2825 63.4532C87.6235 63.9701 87.6235 64.9099 87.2234 65.6382C87.8824 65.4503 91.8599 64.158 91.3892 65.5678C90.4007 67.3769 88.306 67.7528 86.4232 67.3769C86.0701 68.0348 85.7406 68.7161 85.3641 69.421C86.1407 69.28 90.0947 68.7866 90.3536 69.4445C90.3772 69.5855 90.283 69.7734 90.1889 69.8674C88.5414 71.3711 86.4702 71.6295 84.3991 70.8777Z" fill="white"/>
</svg>
