<svg width="140" height="140" viewBox="0 0 140 140" fill="none" xmlns="http://www.w3.org/2000/svg">
<path d="M70.8612 69.0393C82.0697 69.8817 90.1532 79.2243 96.9196 87.214C83.4901 85.274 69.4924 85.4016 56.4503 89.3582C55.1591 90.0729 52.0341 90.5324 51.5692 91.9108C48.341 101.611 44.5704 111.489 35.8413 117.667C39.5602 124.278 54.281 121.011 60.7633 120.628C67.9945 119.836 75.3549 118.458 81.0883 113.761C89.6883 107.865 100.974 112.255 110.452 108.962C114.61 107.635 116.418 104.214 115.566 99.9515C113.913 92.9829 106.501 90.2516 100.432 88.1074C93.743 81.2664 87.6997 73.5064 78.8156 69.0138C93.7172 59.5436 116.676 45.4276 133.153 58.5481C136.872 61.5602 138.654 67.3801 134.987 71.0814C131.061 75.5485 124.682 76.5185 119.879 79.8114C115.101 82.6192 115.075 87.8011 109.497 90.3792C111.046 91.7321 112.699 92.9574 114.12 94.4123C118.846 98.9815 117.968 108.63 110.891 110.213C104.564 112.025 97.901 111.745 91.367 111.974C80.7784 112.179 78.2991 120.526 64.5855 121.445C56.8377 121.879 39.1986 126.167 34.834 118.305C27.577 122.44 16.9883 124.712 9.7829 119.147C6.83874 116.824 5.4958 113.123 4.04955 109.779C0.769654 96.1481 5.75405 81.8535 11.0484 69.2946C22.4118 41.6242 69.4666 -2.91893 97.901 26.8701C108.645 47.3931 86.4342 60.5902 70.7837 68.7841C70.8096 68.8862 70.8354 68.9627 70.8612 69.0393ZM4.02372 100.207C3.99789 118.764 15.258 126.192 32.5097 118.56C43.6923 112.766 47.7987 100.641 51.3885 89.5113C56.8636 69.4988 80.0553 66.2315 92.9424 52.6515C100.716 44.9682 102.834 30.214 92.8133 23.4496C81.9147 15.7662 67.6846 17.5275 56.4503 23.5007C27.2929 37.8464 6.81292 68.1714 4.02372 100.207ZM123.675 70.0093C121.248 70.2391 119.466 70.9538 117.916 72.1535C115.566 74.1701 112.622 75.9569 111.46 78.9435C111.046 80.0922 111.769 80.9856 112.957 80.7048C113.913 80.4751 114.972 80.0922 115.669 79.454C117.658 77.6927 119.879 76.4164 122.229 75.1911C124.476 74.0425 127.472 71.4133 123.675 70.0093Z" fill="#E8934B"/>
<path d="M68.9082 112.599C70.9192 108.174 80.3556 104.246 84.9965 103.618C86.4403 103.461 87.9357 103.539 89.4053 103.67C91.2358 103.749 91.8546 106.367 90.2303 107.258C86.4661 109.64 81.9026 110.295 78.2415 112.966C76.0242 114.328 73.4717 114.616 70.945 114.773C69.7075 114.851 69.2434 114.249 69.166 112.704C69.0629 112.678 68.9856 112.626 68.9082 112.599Z" fill="#E8934B"/>
<path d="M111.416 96.1755C114.127 98.1283 113.992 103.062 111.66 105.425C111.254 105.836 110.739 106.479 110.142 105.888C109.573 105.323 110.332 104.989 110.711 104.655C113.368 102.214 111.823 99.1303 111.416 96.1755Z" fill="#E8934B"/>
<path d="M44.7041 119.958C43.1179 119.736 40.6996 119.637 40.1016 117.81C41.7918 117.761 43.378 118.502 45.0422 118.823C45.5882 118.823 45.9003 119.045 46.2123 119.464C45.7703 119.934 45.3542 120.008 44.7041 119.958Z" fill="#E8934B"/>
<path d="M44.4743 92.0708C45.0957 78.7425 53.718 58.9817 68.6323 57.6694C71.7913 58.287 69.435 61.7091 68.3475 63.2272C61.0975 72.0784 52.6046 80.2606 48.9278 91.3761C47.5296 95.0555 44.2671 98.6835 44.4743 92.0708Z" fill="#E8934B"/>
<path d="M6.05493 100.917C6.59402 99.4152 6.31164 95.4545 7.85189 94.4449C8.51933 95.9464 7.6722 97.7067 7.74921 99.3375C7.51817 103.35 8.08293 107.207 10.1623 110.702C14.8857 119.659 26.8484 119.219 33.5998 112.902C34.3699 112.307 35.2427 110.987 36.3209 111.375C36.8343 111.737 36.5776 112.255 36.1926 112.643C24.384 124.965 5.97792 118.908 6.05493 100.917Z" fill="#E8934B"/>
<path d="M86.5985 21.7592C97.7777 24.5698 100.682 41.5108 92.9205 49.1949C92.7149 49.427 92.0724 49.5301 91.8154 49.3754C91.3272 49.066 91.5327 48.5503 91.8925 48.1893C98.9341 41.2788 96.5698 27.5609 86.3672 22.1202C86.4443 22.017 86.5214 21.8881 86.5985 21.7592Z" fill="#E8934B"/>
</svg>
