<?xml version="1.0" encoding="utf-8"?>
<!-- Generator: Adobe Illustrator 25.4.2, SVG Export Plug-In . SVG Version: 6.00 Build 0)  -->
<svg version="1.1" id="Layer_1" xmlns="http://www.w3.org/2000/svg" xmlns:xlink="http://www.w3.org/1999/xlink" x="0px" y="0px"
	 viewBox="0 0 90 90" style="enable-background:new 0 0 90 90;" xml:space="preserve">
<style type="text/css">
	.st0{fill:#1A1E24;}
	.st1{fill:#00B093;}
</style>
<circle class="st0" cx="45" cy="45" r="45"/>
<g>
	<path class="st1" d="M65.8,29.1H24.3c-0.4,0-0.7,0.3-0.7,0.7l0,0v24c0,0.4,0.3,0.7,0.7,0.7h41.4c0.4,0,0.7-0.3,0.7-0.7v-24
		C66.4,29.4,66.1,29.1,65.8,29.1L65.8,29.1z M63.8,51.8H26.3v-20h37.5L63.8,51.8L63.8,51.8z"/>
	<path class="st1" d="M43.5,55.8V56c0,1.4-1.1,2.5-2.5,2.5l0,0h-3.7c-1.6,0-2.1,0.3-2.4,0.9l-0.5,1h21.3l-0.5-1
		c-0.3-0.5-0.8-0.9-2.4-0.9h-3.7c-1.4,0-2.5-1.1-2.5-2.5l0,0v-0.1H43.5z"/>
</g>
</svg>
