<?xml version="1.0" encoding="utf-8"?>
<!-- Generator: Adobe Illustrator 25.4.2, SVG Export Plug-In . SVG Version: 6.00 Build 0)  -->
<svg version="1.1" id="Layer_1" xmlns="http://www.w3.org/2000/svg" xmlns:xlink="http://www.w3.org/1999/xlink" x="0px" y="0px"
	 viewBox="0 0 90 90" style="enable-background:new 0 0 90 90;" xml:space="preserve">
<style type="text/css">
	.st0{fill:#1A1E24;}
	.st1{fill:#00B093;}
</style>
<circle class="st0" cx="45" cy="45" r="45"/>
<g>
	<g>
		<path class="st1" d="M62.5,57.5v-6.1H66c0.4,0,0.7-0.3,0.7-0.7V39.4c0-0.4-0.3-0.7-0.7-0.7h-3.5v-6.1c0-0.4-0.3-0.7-0.7-0.7H26
			c-0.4,0-0.7,0.3-0.7,0.7v24.9c0,0.4,0.3,0.7,0.7,0.7h35.8C62.2,58.2,62.5,57.9,62.5,57.5z M28.3,55V35h31.1V55H28.3z"/>
		<rect x="31.7" y="37.8" class="st1" width="3.8" height="14.3"/>
		<rect x="38.6" y="37.8" class="st1" width="3.8" height="14.3"/>
		<rect x="45.4" y="37.8" class="st1" width="3.8" height="14.3"/>
		<rect x="52.3" y="37.8" class="st1" width="3.8" height="14.3"/>
	</g>
</g>
</svg>
