<?xml version="1.0" encoding="utf-8"?>
<!-- Generator: Adobe Illustrator 25.4.2, SVG Export Plug-In . SVG Version: 6.00 Build 0)  -->
<svg version="1.1" id="Layer_1" xmlns="http://www.w3.org/2000/svg" xmlns:xlink="http://www.w3.org/1999/xlink" x="0px" y="0px"
	 viewBox="0 0 90 90" style="enable-background:new 0 0 90 90;" xml:space="preserve">
<style type="text/css">
	.st0{fill:#1A1E24;}
	.st1{fill:#00B093;}
</style>
<circle class="st0" cx="45" cy="45" r="45"/>
<path class="st1" d="M46.7,27.1l0.7,2.8l0.3,1.3l1.3,0.4c0.9,0.3,1.8,0.6,2.6,1.1l1.2,0.7l1.2-0.7l2.5-1.5l2.3,2.3L57.4,36l-0.7,1.2
	l0.7,1.2c0.4,0.8,0.8,1.7,1.1,2.6l0.4,1.3l1.3,0.3l2.8,0.7v3.3l-2.8,0.7l-1.4,0.3L58.4,49c-0.3,0.9-0.6,1.8-1.1,2.6l-0.7,1.2
	l0.7,1.2l1.5,2.5l-2.3,2.3l-2.5-1.5l-1.2-0.7l-1.2,0.7c-0.8,0.4-1.7,0.8-2.6,1.1l-1.3,0.4l-0.3,1.3l-0.7,2.8h-3.3l-0.7-2.8l-0.3-1.3
	l-1.3-0.4c-0.9-0.3-1.8-0.6-2.6-1.1l-1.2-0.7l-1.2,0.7l-2.5,1.5l-2.3-2.3l1.5-2.5l0.7-1.2l-0.7-1.2c-0.4-0.8-0.8-1.7-1.1-2.6
	l-0.4-1.3L30,47.3l-2.8-0.7v-3.3l2.8-0.7l1.3-0.3l0.4-1.3c0.3-0.9,0.6-1.8,1.1-2.6l0.7-1.2L32.8,36l-1.5-2.5l2.3-2.3l2.5,1.5
	l1.2,0.7l1.2-0.7c0.8-0.4,1.7-0.8,2.6-1.1l1.3-0.4l0.3-1.3l0.7-2.8H46.7 M45.1,54.9L45.1,54.9c5.5,0,9.9-4.4,9.9-9.9
	s-4.4-9.9-9.9-9.9s-9.9,4.4-9.9,9.9C35.2,50.5,39.6,54.9,45.1,54.9 M48.6,24.7h-7.1l-1.2,4.6c-1.1,0.3-2.1,0.7-3.1,1.3l-4.1-2.5
	l-5,5l2.5,4.1c-0.5,1-0.9,2-1.3,3.1l-4.6,1.1v7.1l4.6,1.2c0.3,1.1,0.7,2.1,1.3,3.1l-2.5,4.1l5,5l4.1-2.5c1,0.5,2,0.9,3.1,1.3
	l1.2,4.6h7.1l1.2-4.6c1.1-0.3,2.1-0.7,3.1-1.3l4.1,2.5l5-5l-2.5-4.1c0.5-1,1-2,1.3-3.1l4.6-1.1v-7.1l-4.6-1.2
	c-0.3-1.1-0.7-2.1-1.3-3.1l2.5-4.1l-5-5l-4.1,2.5c-1-0.5-2-0.9-3.1-1.3L48.6,24.7L48.6,24.7z M45.1,52.5c-4.1,0-7.5-3.3-7.5-7.5
	s3.3-7.5,7.5-7.5s7.5,3.3,7.5,7.5S49.2,52.5,45.1,52.5L45.1,52.5z"/>
</svg>
