<?xml version="1.0" encoding="utf-8"?>
<!-- Generator: Adobe Illustrator 25.4.2, SVG Export Plug-In . SVG Version: 6.00 Build 0)  -->
<svg version="1.1" id="Layer_1" xmlns="http://www.w3.org/2000/svg" xmlns:xlink="http://www.w3.org/1999/xlink" x="0px" y="0px"
	 viewBox="0 0 90 90" style="enable-background:new 0 0 90 90;" xml:space="preserve">
<style type="text/css">
	.st0{fill:#1A1E24;}
	.st1{fill:#00B093;}
</style>
<circle class="st0" cx="45" cy="45" r="45"/>
<g>
	<path class="st1" d="M58.1,34.3H31.9c-5.6,0-10.1,4.5-10.1,10.1V45c0,5.6,4.5,10.1,10.1,10.1h26.3c5.6,0,10.1-4.5,10.1-10.1v-0.5
		C68.2,38.9,63.7,34.3,58.1,34.3 M57.6,51.4H32.4c-3.7,0-6.7-3-6.7-6.7s3-6.7,6.7-6.7h25.2c3.7,0,6.7,3,6.7,6.7
		C64.3,48.4,61.3,51.4,57.6,51.4"/>
	<path class="st1" d="M57.7,47.6H32.3c-1.5,0-2.8-1.2-2.8-2.8v-0.3c0-1.5,1.2-2.8,2.8-2.8h25.3c1.5,0,2.8,1.2,2.8,2.8v0.3
		C60.4,46.4,59.2,47.6,57.7,47.6"/>
</g>
</svg>
