<?xml version="1.0" encoding="utf-8"?>
<!-- Generator: Adobe Illustrator 25.4.2, SVG Export Plug-In . SVG Version: 6.00 Build 0)  -->
<svg version="1.1" id="Layer_1" xmlns="http://www.w3.org/2000/svg" xmlns:xlink="http://www.w3.org/1999/xlink" x="0px" y="0px"
	 viewBox="0 0 90 90" style="enable-background:new 0 0 90 90;" xml:space="preserve">
<style type="text/css">
	.st0{fill:#1A1E24;}
	.st1{fill:#00B093;}
</style>
<circle class="st0" cx="45" cy="45" r="45"/>
<g>
	<path class="st1" d="M63.8,34.1L45.1,23.3L45,23.3L26.3,34l-0.1,0.1l0,21.7l18.7,10.8l0.1,0.1l18.7-10.8l0.1-0.1V34.1z M44.2,45.4
		v18.8l-16.3-9.4l0-18.8L44.2,45.4z M62.1,54.8l-16.3,9.4V45.4L62.1,36V54.8z M44.2,42v1.5l-15.4-8.9l15.4-8.9v0.3h1.7v-0.3
		l15.4,8.9l-15.4,8.9V42L44.2,42L44.2,42z"/>
	<polygon class="st1" points="43.7,46.7 42.8,45.2 41.2,46.2 42,47.6 	"/>
	<polygon class="st1" points="30.9,54.1 30,52.6 28.4,53.6 29.2,55 	"/>
	<polygon class="st1" points="36,51.1 35.1,49.7 33.5,50.6 34.3,52.1 	"/>
	<polygon class="st1" points="33.4,52.6 32.6,51.2 30.9,52.1 31.8,53.6 	"/>
	<polygon class="st1" points="38.5,49.6 37.7,48.2 36.1,49.1 36.9,50.6 	"/>
	<polygon class="st1" points="41.1,48.2 40.3,46.7 38.6,47.7 39.5,49.1 	"/>
	<polygon class="st1" points="51.4,47.7 49.7,46.7 48.9,48.2 50.5,49.1 	"/>
	<rect x="51.8" y="48.4" transform="matrix(0.4991 -0.8666 0.8666 0.4991 -16.404 70.3971)" class="st1" width="1.7" height="1.9"/>
	<polygon class="st1" points="59.1,52.1 57.4,51.2 56.6,52.6 58.2,53.6 	"/>
	<polygon class="st1" points="61.6,53.6 60,52.6 59.1,54.1 60.8,55 	"/>
	<polygon class="st1" points="56.5,50.6 54.8,49.7 54,51.1 55.7,52.1 	"/>
	<polygon class="st1" points="48.8,46.2 47.2,45.2 46.3,46.7 48,47.6 	"/>
	<rect x="44.2" y="27" class="st1" width="1.7" height="1.9"/>
	<rect x="44.2" y="33" class="st1" width="1.7" height="1.9"/>
	<rect x="44.2" y="30" class="st1" width="1.7" height="1.9"/>
	<rect x="44.2" y="36" class="st1" width="1.7" height="1.9"/>
	<rect x="44.2" y="39" class="st1" width="1.7" height="1.9"/>
</g>
</svg>
