<svg width="468" height="211" viewBox="0 0 468 211" fill="none" xmlns="http://www.w3.org/2000/svg">
<rect x="12" y="12" width="444" height="187" rx="18.575" fill="url(#paint0_linear_2467_4062)"/>
<rect x="14.2032" y="13.1609" width="440.636" height="184.678" rx="17.4141" stroke="url(#paint1_linear_2467_4062)" stroke-width="2.32188"/>
<g filter="url(#filter0_f_2467_4062)">
<rect x="13.1609" y="13.1609" width="441.678" height="184.678" rx="17.4141" stroke="url(#paint2_linear_2467_4062)" stroke-width="2.32188"/>
</g>
<path d="M53.968 51.032H45.584L44.24 55H38.512L46.64 32.536H52.976L61.104 55H55.312L53.968 51.032ZM52.56 46.808L49.776 38.584L47.024 46.808H52.56ZM69.431 43.736C69.431 41.5173 69.911 39.544 70.871 37.816C71.831 36.0667 73.1643 34.712 74.871 33.752C76.599 32.7707 78.551 32.28 80.727 32.28C83.3937 32.28 85.6763 32.984 87.575 34.392C89.4737 35.8 90.743 37.72 91.383 40.152H85.367C84.919 39.2133 84.279 38.4987 83.447 38.008C82.6363 37.5173 81.7083 37.272 80.663 37.272C78.9777 37.272 77.6123 37.8587 76.567 39.032C75.5217 40.2053 74.999 41.7733 74.999 43.736C74.999 45.6987 75.5217 47.2667 76.567 48.44C77.6123 49.6133 78.9777 50.2 80.663 50.2C81.7083 50.2 82.6363 49.9547 83.447 49.464C84.279 48.9733 84.919 48.2587 85.367 47.32H91.383C90.743 49.752 89.4737 51.672 87.575 53.08C85.6763 54.4667 83.3937 55.16 80.727 55.16C78.551 55.16 76.599 54.68 74.871 53.72C73.1643 52.7387 71.831 51.384 70.871 49.656C69.911 47.928 69.431 45.9547 69.431 43.736ZM111.566 45.784C111.566 46.296 111.534 46.8293 111.47 47.384H99.086C99.1713 48.4933 99.5233 49.3467 100.142 49.944C100.782 50.52 101.561 50.808 102.478 50.808C103.843 50.808 104.793 50.232 105.326 49.08H111.15C110.851 50.2533 110.307 51.3093 109.518 52.248C108.75 53.1867 107.779 53.9227 106.606 54.456C105.433 54.9893 104.121 55.256 102.67 55.256C100.921 55.256 99.3633 54.8827 97.998 54.136C96.6327 53.3893 95.566 52.3227 94.798 50.936C94.03 49.5493 93.646 47.928 93.646 46.072C93.646 44.216 94.0193 42.5947 94.766 41.208C95.534 39.8213 96.6007 38.7547 97.966 38.008C99.3313 37.2613 100.899 36.888 102.67 36.888C104.398 36.888 105.934 37.2507 107.278 37.976C108.622 38.7013 109.667 39.736 110.414 41.08C111.182 42.424 111.566 43.992 111.566 45.784ZM105.966 44.344C105.966 43.4053 105.646 42.6587 105.006 42.104C104.366 41.5493 103.566 41.272 102.606 41.272C101.689 41.272 100.91 41.5387 100.27 42.072C99.6513 42.6053 99.2673 43.3627 99.118 44.344H105.966ZM125.333 36.952C127.423 36.952 129.087 37.6347 130.325 39C131.583 40.344 132.213 42.2 132.213 44.568V55H126.773V45.304C126.773 44.1093 126.463 43.1813 125.845 42.52C125.226 41.8587 124.394 41.528 123.349 41.528C122.303 41.528 121.471 41.8587 120.853 42.52C120.234 43.1813 119.925 44.1093 119.925 45.304V55H114.453V37.144H119.925V39.512C120.479 38.7227 121.226 38.104 122.165 37.656C123.103 37.1867 124.159 36.952 125.333 36.952ZM145.967 50.36V55H143.183C141.199 55 139.653 54.52 138.543 53.56C137.434 52.5787 136.879 50.9893 136.879 48.792V41.688H134.703V37.144H136.879V32.792H142.351V37.144H145.935V41.688H142.351V48.856C142.351 49.3893 142.479 49.7733 142.735 50.008C142.991 50.2427 143.418 50.36 144.015 50.36H145.967ZM154.487 40.12C155.127 39.1387 155.927 38.3707 156.887 37.816C157.847 37.24 158.914 36.952 160.087 36.952V42.744H158.583C157.218 42.744 156.194 43.0427 155.511 43.64C154.829 44.216 154.487 45.24 154.487 46.712V55H149.015V37.144H154.487V40.12ZM161.615 46.04C161.615 44.2053 161.956 42.5947 162.639 41.208C163.343 39.8213 164.292 38.7547 165.487 38.008C166.681 37.2613 168.015 36.888 169.487 36.888C170.745 36.888 171.844 37.144 172.783 37.656C173.743 38.168 174.479 38.84 174.991 39.672V37.144H180.463V55H174.991V52.472C174.457 53.304 173.711 53.976 172.751 54.488C171.812 55 170.713 55.256 169.455 55.256C168.004 55.256 166.681 54.8827 165.487 54.136C164.292 53.368 163.343 52.2907 162.639 50.904C161.956 49.496 161.615 47.8747 161.615 46.04ZM174.991 46.072C174.991 44.7067 174.607 43.6293 173.839 42.84C173.092 42.0507 172.175 41.656 171.087 41.656C169.999 41.656 169.071 42.0507 168.303 42.84C167.556 43.608 167.183 44.6747 167.183 46.04C167.183 47.4053 167.556 48.4933 168.303 49.304C169.071 50.0933 169.999 50.488 171.087 50.488C172.175 50.488 173.092 50.0933 173.839 49.304C174.607 48.5147 174.991 47.4373 174.991 46.072ZM189.894 31.32V55H184.422V31.32H189.894ZM196.611 35.288C195.651 35.288 194.862 35.0107 194.243 34.456C193.646 33.88 193.347 33.176 193.347 32.344C193.347 31.4907 193.646 30.7867 194.243 30.232C194.862 29.656 195.651 29.368 196.611 29.368C197.55 29.368 198.318 29.656 198.915 30.232C199.534 30.7867 199.843 31.4907 199.843 32.344C199.843 33.176 199.534 33.88 198.915 34.456C198.318 35.0107 197.55 35.288 196.611 35.288ZM199.331 37.144V55H193.859V37.144H199.331ZM208.417 50.488H216.161V55H202.305V50.648L209.729 41.656H202.368V37.144H216.001V41.496L208.417 50.488ZM236.003 45.784C236.003 46.296 235.972 46.8293 235.908 47.384H223.524C223.609 48.4933 223.961 49.3467 224.58 49.944C225.22 50.52 225.998 50.808 226.916 50.808C228.281 50.808 229.23 50.232 229.764 49.08H235.588C235.289 50.2533 234.745 51.3093 233.956 52.248C233.188 53.1867 232.217 53.9227 231.044 54.456C229.87 54.9893 228.558 55.256 227.108 55.256C225.358 55.256 223.801 54.8827 222.436 54.136C221.07 53.3893 220.004 52.3227 219.236 50.936C218.468 49.5493 218.084 47.928 218.084 46.072C218.084 44.216 218.457 42.5947 219.204 41.208C219.972 39.8213 221.038 38.7547 222.404 38.008C223.769 37.2613 225.337 36.888 227.108 36.888C228.836 36.888 230.372 37.2507 231.716 37.976C233.06 38.7013 234.105 39.736 234.852 41.08C235.62 42.424 236.003 43.992 236.003 45.784ZM230.404 44.344C230.404 43.4053 230.084 42.6587 229.444 42.104C228.804 41.5493 228.004 41.272 227.044 41.272C226.126 41.272 225.348 41.5387 224.708 42.072C224.089 42.6053 223.705 43.3627 223.556 44.344H230.404ZM237.802 46.04C237.802 44.2053 238.144 42.5947 238.826 41.208C239.53 39.8213 240.48 38.7547 241.674 38.008C242.869 37.2613 244.202 36.888 245.674 36.888C246.848 36.888 247.914 37.1333 248.874 37.624C249.856 38.1147 250.624 38.776 251.178 39.608V31.32H256.65V55H251.178V52.44C250.666 53.2933 249.93 53.976 248.97 54.488C248.032 55 246.933 55.256 245.674 55.256C244.202 55.256 242.869 54.8827 241.674 54.136C240.48 53.368 239.53 52.2907 238.826 50.904C238.144 49.496 237.802 47.8747 237.802 46.04ZM251.178 46.072C251.178 44.7067 250.794 43.6293 250.026 42.84C249.28 42.0507 248.362 41.656 247.274 41.656C246.186 41.656 245.258 42.0507 244.49 42.84C243.744 43.608 243.37 44.6747 243.37 46.04C243.37 47.4053 243.744 48.4933 244.49 49.304C245.258 50.0933 246.186 50.488 247.274 50.488C248.362 50.488 249.28 50.0933 250.026 49.304C250.794 48.5147 251.178 47.4373 251.178 46.072ZM272.862 36.92V41.464H280.19V45.688H272.862V50.616H281.15V55H267.39V32.536H281.15V36.92H272.862ZM295.263 55L291.839 50.04L288.959 55H283.039L288.927 45.88L282.879 37.144H289.023L292.447 42.072L295.327 37.144H301.247L295.263 46.136L301.407 55H295.263ZM302.427 46.072C302.427 44.216 302.801 42.5947 303.547 41.208C304.315 39.8213 305.371 38.7547 306.715 38.008C308.081 37.2613 309.638 36.888 311.387 36.888C313.627 36.888 315.494 37.4747 316.987 38.648C318.502 39.8213 319.494 41.4747 319.963 43.608H314.139C313.649 42.2427 312.699 41.56 311.291 41.56C310.289 41.56 309.489 41.9547 308.891 42.744C308.294 43.512 307.995 44.6213 307.995 46.072C307.995 47.5227 308.294 48.6427 308.891 49.432C309.489 50.2 310.289 50.584 311.291 50.584C312.699 50.584 313.649 49.9013 314.139 48.536H319.963C319.494 50.6267 318.502 52.2693 316.987 53.464C315.473 54.6587 313.606 55.256 311.387 55.256C309.638 55.256 308.081 54.8827 306.715 54.136C305.371 53.3893 304.315 52.3227 303.547 50.936C302.801 49.5493 302.427 47.928 302.427 46.072ZM333.866 36.952C335.914 36.952 337.557 37.6347 338.794 39C340.032 40.344 340.65 42.2 340.65 44.568V55H335.21V45.304C335.21 44.1093 334.901 43.1813 334.282 42.52C333.664 41.8587 332.832 41.528 331.786 41.528C330.741 41.528 329.909 41.8587 329.29 42.52C328.672 43.1813 328.362 44.1093 328.362 45.304V55H322.89V31.32H328.362V39.544C328.917 38.7547 329.674 38.1253 330.634 37.656C331.594 37.1867 332.672 36.952 333.866 36.952ZM343.365 46.04C343.365 44.2053 343.706 42.5947 344.389 41.208C345.093 39.8213 346.042 38.7547 347.237 38.008C348.431 37.2613 349.765 36.888 351.237 36.888C352.495 36.888 353.594 37.144 354.533 37.656C355.493 38.168 356.229 38.84 356.741 39.672V37.144H362.213V55H356.741V52.472C356.207 53.304 355.461 53.976 354.501 54.488C353.562 55 352.463 55.256 351.205 55.256C349.754 55.256 348.431 54.8827 347.237 54.136C346.042 53.368 345.093 52.2907 344.389 50.904C343.706 49.496 343.365 47.8747 343.365 46.04ZM356.741 46.072C356.741 44.7067 356.357 43.6293 355.589 42.84C354.842 42.0507 353.925 41.656 352.837 41.656C351.749 41.656 350.821 42.0507 350.053 42.84C349.306 43.608 348.933 44.6747 348.933 46.04C348.933 47.4053 349.306 48.4933 350.053 49.304C350.821 50.0933 351.749 50.488 352.837 50.488C353.925 50.488 354.842 50.0933 355.589 49.304C356.357 48.5147 356.741 47.4373 356.741 46.072ZM377.052 36.952C379.142 36.952 380.806 37.6347 382.044 39C383.302 40.344 383.932 42.2 383.932 44.568V55H378.492V45.304C378.492 44.1093 378.182 43.1813 377.564 42.52C376.945 41.8587 376.113 41.528 375.068 41.528C374.022 41.528 373.19 41.8587 372.572 42.52C371.953 43.1813 371.644 44.1093 371.644 45.304V55H366.172V37.144H371.644V39.512C372.198 38.7227 372.945 38.104 373.884 37.656C374.822 37.1867 375.878 36.952 377.052 36.952ZM394.518 36.888C395.777 36.888 396.875 37.144 397.814 37.656C398.774 38.168 399.51 38.84 400.022 39.672V37.144H405.494V54.968C405.494 56.6107 405.163 58.0933 404.502 59.416C403.862 60.76 402.87 61.8267 401.526 62.616C400.203 63.4053 398.55 63.8 396.566 63.8C393.921 63.8 391.777 63.1707 390.134 61.912C388.491 60.6747 387.553 58.9893 387.318 56.856H392.726C392.897 57.5387 393.302 58.072 393.942 58.456C394.582 58.8613 395.371 59.064 396.31 59.064C397.441 59.064 398.337 58.7333 398.998 58.072C399.681 57.432 400.022 56.3973 400.022 54.968V52.44C399.489 53.272 398.753 53.9547 397.814 54.488C396.875 55 395.777 55.256 394.518 55.256C393.046 55.256 391.713 54.8827 390.518 54.136C389.323 53.368 388.374 52.2907 387.67 50.904C386.987 49.496 386.646 47.8747 386.646 46.04C386.646 44.2053 386.987 42.5947 387.67 41.208C388.374 39.8213 389.323 38.7547 390.518 38.008C391.713 37.2613 393.046 36.888 394.518 36.888ZM400.022 46.072C400.022 44.7067 399.638 43.6293 398.87 42.84C398.123 42.0507 397.206 41.656 396.118 41.656C395.03 41.656 394.102 42.0507 393.334 42.84C392.587 43.608 392.214 44.6747 392.214 46.04C392.214 47.4053 392.587 48.4933 393.334 49.304C394.102 50.0933 395.03 50.488 396.118 50.488C397.206 50.488 398.123 50.0933 398.87 49.304C399.638 48.5147 400.022 47.4373 400.022 46.072ZM426.285 45.784C426.285 46.296 426.253 46.8293 426.189 47.384H413.805C413.89 48.4933 414.242 49.3467 414.861 49.944C415.501 50.52 416.279 50.808 417.197 50.808C418.562 50.808 419.511 50.232 420.045 49.08H425.869C425.57 50.2533 425.026 51.3093 424.237 52.248C423.469 53.1867 422.498 53.9227 421.325 54.456C420.151 54.9893 418.839 55.256 417.389 55.256C415.639 55.256 414.082 54.8827 412.717 54.136C411.351 53.3893 410.285 52.3227 409.517 50.936C408.749 49.5493 408.365 47.928 408.365 46.072C408.365 44.216 408.738 42.5947 409.485 41.208C410.253 39.8213 411.319 38.7547 412.685 38.008C414.05 37.2613 415.618 36.888 417.389 36.888C419.117 36.888 420.653 37.2507 421.997 37.976C423.341 38.7013 424.386 39.736 425.133 41.08C425.901 42.424 426.285 43.992 426.285 45.784ZM420.685 44.344C420.685 43.4053 420.365 42.6587 419.725 42.104C419.085 41.5493 418.285 41.272 417.325 41.272C416.407 41.272 415.629 41.5387 414.989 42.072C414.37 42.6053 413.986 43.3627 413.837 44.344H420.685Z" fill="white"/>
<g opacity="0.3" clip-path="url(#clip0_2467_4062)" filter="url(#filter1_f_2467_4062)">
<path d="M89.4539 130.508L89.3669 130.594V130.508H89.4539Z" fill="url(#paint3_linear_2467_4062)"/>
<path d="M89.3668 94.8042H68.9404V126.206H89.3668V94.8042Z" fill="url(#paint4_linear_2467_4062)"/>
<path d="M117.67 94.8042L94.9062 126.206H117.323L141.212 94.8042H117.67Z" fill="url(#paint5_linear_2467_4062)"/>
<path d="M112.823 135.67H68.9404V167.846H89.3668V135.842L112.39 167.846H137.144L112.823 135.67Z" fill="url(#paint6_linear_2467_4062)"/>
<path d="M144.587 94.8042V126.206H165.014V94.8042H144.587ZM144.587 135.67V167.846H165.014V135.67H144.587Z" fill="url(#paint7_linear_2467_4062)"/>
<path d="M197.125 152.274V94.8042H176.698V167.846H219.974V152.274H197.125Z" fill="url(#paint8_linear_2467_4062)"/>
<path d="M248.364 152.274V94.8042H227.938V167.846H271.214V152.274H248.364Z" fill="url(#paint9_linear_2467_4062)"/>
<path d="M299.516 139.971V94.8042H279.09V167.846H326.088V151.586H299.516V139.971ZM305.402 94.8042V111.064H326.088V94.8042H305.402ZM322.972 123.023H305.402V138.423H322.972V123.023Z" fill="url(#paint10_linear_2467_4062)"/>
<path d="M379.664 139.369C384.944 137.734 388.925 135.067 391.695 131.368C394.464 127.583 395.849 123.195 395.849 118.291C395.849 113.903 394.811 109.86 392.733 106.333C390.656 102.805 387.54 99.9661 383.472 97.9014C379.318 95.8366 374.298 94.8042 368.412 94.8042H336.215V111.839H366.768C369.451 111.839 371.528 112.527 372.999 113.903C374.471 115.28 375.163 117.087 375.163 119.409C375.163 121.904 374.471 123.797 373.086 125.088C371.701 126.378 369.624 127.066 366.854 127.066H363.392H336.301V167.846H356.728V140.918H358.891L373.432 167.846H396.282L379.664 139.369Z" fill="url(#paint11_linear_2467_4062)"/>
<path d="M89.4539 126.207L89.3669 126.293V126.207H89.4539Z" fill="url(#paint12_linear_2467_4062)"/>
</g>
<g clip-path="url(#clip1_2467_4062)">
<path d="M77.7736 130.588L77.6797 130.681V130.588H77.7736Z" fill="url(#paint13_linear_2467_4062)"/>
<path d="M77.6795 92H55.6025V125.939H77.6795V92Z" fill="url(#paint14_linear_2467_4062)"/>
<path d="M108.269 92L83.6665 125.939H107.895L133.714 92H108.269Z" fill="url(#paint15_linear_2467_4062)"/>
<path d="M103.031 136.167H55.6025V170.944H77.6795V136.353L102.563 170.944H129.317L103.031 136.167Z" fill="url(#paint16_linear_2467_4062)"/>
<path d="M137.362 92V125.939H159.439V92H137.362ZM137.362 136.168V170.944H159.439V136.168H137.362Z" fill="url(#paint17_linear_2467_4062)"/>
<path d="M194.145 154.114V92H172.068V170.944H218.841V154.114H194.145Z" fill="url(#paint18_linear_2467_4062)"/>
<path d="M249.525 154.114V92H227.448V170.944H274.221V154.114H249.525Z" fill="url(#paint19_linear_2467_4062)"/>
<path d="M304.811 140.817V92H282.734V170.944H333.529V153.37H304.811V140.817ZM311.172 92V109.574H333.529V92H311.172ZM330.162 122.499H311.172V139.143H330.162V122.499Z" fill="url(#paint20_linear_2467_4062)"/>
<path d="M391.435 140.166C397.141 138.399 401.445 135.517 404.438 131.518C407.432 127.427 408.928 122.685 408.928 117.385C408.928 112.643 407.806 108.272 405.561 104.46C403.315 100.648 399.948 97.5791 395.551 95.3474C391.061 93.1158 385.635 92 379.274 92H344.475V110.411H377.497C380.397 110.411 382.642 111.155 384.232 112.643C385.822 114.13 386.571 116.083 386.571 118.594C386.571 121.29 385.822 123.336 384.325 124.731C382.829 126.125 380.584 126.869 377.59 126.869H373.848H344.568V170.944H366.645V141.84H368.984L384.7 170.944H409.396L391.435 140.166Z" fill="url(#paint21_linear_2467_4062)"/>
<path d="M77.7736 125.939L77.6797 126.032V125.939H77.7736Z" fill="url(#paint22_linear_2467_4062)"/>
</g>
<defs>
<filter id="filter0_f_2467_4062" x="0.390597" y="0.390597" width="467.219" height="210.219" filterUnits="userSpaceOnUse" color-interpolation-filters="sRGB">
<feFlood flood-opacity="0" result="BackgroundImageFix"/>
<feBlend mode="normal" in="SourceGraphic" in2="BackgroundImageFix" result="shape"/>
<feGaussianBlur stdDeviation="5.8047" result="effect1_foregroundBlur_2467_4062"/>
</filter>
<filter id="filter1_f_2467_4062" x="57.4829" y="83.3467" width="350.17" height="95.9565" filterUnits="userSpaceOnUse" color-interpolation-filters="sRGB">
<feFlood flood-opacity="0" result="BackgroundImageFix"/>
<feBlend mode="normal" in="SourceGraphic" in2="BackgroundImageFix" result="shape"/>
<feGaussianBlur stdDeviation="5.72875" result="effect1_foregroundBlur_2467_4062"/>
</filter>
<linearGradient id="paint0_linear_2467_4062" x1="234" y1="-112.667" x2="234" y2="199" gradientUnits="userSpaceOnUse">
<stop/>
<stop offset="1" stop-color="#1AC486" stop-opacity="0"/>
</linearGradient>
<linearGradient id="paint1_linear_2467_4062" x1="234.521" y1="12" x2="234.521" y2="199" gradientUnits="userSpaceOnUse">
<stop stop-color="#77FFCD"/>
<stop offset="1" stop-color="#077E53" stop-opacity="0"/>
</linearGradient>
<linearGradient id="paint2_linear_2467_4062" x1="234" y1="12" x2="234" y2="199" gradientUnits="userSpaceOnUse">
<stop stop-color="#00FFA2"/>
<stop offset="1" stop-color="#077E53" stop-opacity="0"/>
</linearGradient>
<linearGradient id="paint3_linear_2467_4062" x1="89.4148" y1="97.7986" x2="89.4148" y2="169.549" gradientUnits="userSpaceOnUse">
<stop stop-color="#55FF69"/>
<stop offset="1" stop-color="#BFE5FF"/>
</linearGradient>
<linearGradient id="paint4_linear_2467_4062" x1="79.158" y1="97.7981" x2="79.158" y2="169.549" gradientUnits="userSpaceOnUse">
<stop stop-color="#55FF69"/>
<stop offset="1" stop-color="#BFE5FF"/>
</linearGradient>
<linearGradient id="paint5_linear_2467_4062" x1="118.084" y1="97.7981" x2="118.084" y2="169.549" gradientUnits="userSpaceOnUse">
<stop stop-color="#55FF69"/>
<stop offset="1" stop-color="#BFE5FF"/>
</linearGradient>
<linearGradient id="paint6_linear_2467_4062" x1="103.025" y1="97.7984" x2="103.025" y2="169.55" gradientUnits="userSpaceOnUse">
<stop stop-color="#55FF69"/>
<stop offset="1" stop-color="#BFE5FF"/>
</linearGradient>
<linearGradient id="paint7_linear_2467_4062" x1="154.827" y1="97.7981" x2="154.827" y2="169.549" gradientUnits="userSpaceOnUse">
<stop stop-color="#55FF69"/>
<stop offset="1" stop-color="#BFE5FF"/>
</linearGradient>
<linearGradient id="paint8_linear_2467_4062" x1="198.341" y1="97.7981" x2="198.341" y2="169.549" gradientUnits="userSpaceOnUse">
<stop stop-color="#55FF69"/>
<stop offset="1" stop-color="#BFE5FF"/>
</linearGradient>
<linearGradient id="paint9_linear_2467_4062" x1="249.519" y1="97.7981" x2="249.519" y2="169.549" gradientUnits="userSpaceOnUse">
<stop stop-color="#55FF69"/>
<stop offset="1" stop-color="#BFE5FF"/>
</linearGradient>
<linearGradient id="paint10_linear_2467_4062" x1="302.567" y1="97.7981" x2="302.567" y2="169.549" gradientUnits="userSpaceOnUse">
<stop stop-color="#55FF69"/>
<stop offset="1" stop-color="#BFE5FF"/>
</linearGradient>
<linearGradient id="paint11_linear_2467_4062" x1="366.201" y1="97.7981" x2="366.201" y2="169.549" gradientUnits="userSpaceOnUse">
<stop stop-color="#55FF69"/>
<stop offset="1" stop-color="#BFE5FF"/>
</linearGradient>
<linearGradient id="paint12_linear_2467_4062" x1="89.4148" y1="97.7989" x2="89.4148" y2="169.549" gradientUnits="userSpaceOnUse">
<stop stop-color="#55FF69"/>
<stop offset="1" stop-color="#BFE5FF"/>
</linearGradient>
<linearGradient id="paint13_linear_2467_4062" x1="77.7314" y1="95.236" x2="77.7314" y2="172.784" gradientUnits="userSpaceOnUse">
<stop stop-color="#55FF69"/>
<stop offset="1" stop-color="#BFE5FF"/>
</linearGradient>
<linearGradient id="paint14_linear_2467_4062" x1="66.6457" y1="95.2359" x2="66.6457" y2="172.785" gradientUnits="userSpaceOnUse">
<stop stop-color="#55FF69"/>
<stop offset="1" stop-color="#BFE5FF"/>
</linearGradient>
<linearGradient id="paint15_linear_2467_4062" x1="108.717" y1="95.2359" x2="108.717" y2="172.785" gradientUnits="userSpaceOnUse">
<stop stop-color="#55FF69"/>
<stop offset="1" stop-color="#BFE5FF"/>
</linearGradient>
<linearGradient id="paint16_linear_2467_4062" x1="92.4412" y1="95.2357" x2="92.4412" y2="172.785" gradientUnits="userSpaceOnUse">
<stop stop-color="#55FF69"/>
<stop offset="1" stop-color="#BFE5FF"/>
</linearGradient>
<linearGradient id="paint17_linear_2467_4062" x1="148.429" y1="95.2359" x2="148.429" y2="172.785" gradientUnits="userSpaceOnUse">
<stop stop-color="#55FF69"/>
<stop offset="1" stop-color="#BFE5FF"/>
</linearGradient>
<linearGradient id="paint18_linear_2467_4062" x1="195.459" y1="95.2359" x2="195.459" y2="172.785" gradientUnits="userSpaceOnUse">
<stop stop-color="#55FF69"/>
<stop offset="1" stop-color="#BFE5FF"/>
</linearGradient>
<linearGradient id="paint19_linear_2467_4062" x1="250.774" y1="95.2359" x2="250.774" y2="172.785" gradientUnits="userSpaceOnUse">
<stop stop-color="#55FF69"/>
<stop offset="1" stop-color="#BFE5FF"/>
</linearGradient>
<linearGradient id="paint20_linear_2467_4062" x1="308.108" y1="95.2359" x2="308.108" y2="172.785" gradientUnits="userSpaceOnUse">
<stop stop-color="#55FF69"/>
<stop offset="1" stop-color="#BFE5FF"/>
</linearGradient>
<linearGradient id="paint21_linear_2467_4062" x1="376.884" y1="95.2359" x2="376.884" y2="172.785" gradientUnits="userSpaceOnUse">
<stop stop-color="#55FF69"/>
<stop offset="1" stop-color="#BFE5FF"/>
</linearGradient>
<linearGradient id="paint22_linear_2467_4062" x1="77.7314" y1="95.2358" x2="77.7314" y2="172.784" gradientUnits="userSpaceOnUse">
<stop stop-color="#55FF69"/>
<stop offset="1" stop-color="#BFE5FF"/>
</linearGradient>
<clipPath id="clip0_2467_4062">
<rect width="327.255" height="73.0416" fill="white" transform="translate(68.9404 94.8042)"/>
</clipPath>
<clipPath id="clip1_2467_4062">
<rect width="353.7" height="78.9439" fill="white" transform="translate(55.6025 92)"/>
</clipPath>
</defs>
</svg>
