<svg width="24" height="24" viewBox="0 0 24 24" fill="none" xmlns="http://www.w3.org/2000/svg">
<circle cx="12" cy="12" r="12" fill="black"/>
<path d="M13.9697 6.33301C13.8858 6.33301 13.8858 6.33301 13.8858 6.33301H13.8019H7.42428C6.83687 6.33301 6.33337 6.85001 6.33337 7.45319C6.33337 8.05636 6.83687 8.57337 7.42428 8.57337H13.8019H13.8858H13.9697C15.1446 8.57337 16.1516 9.60738 16.1516 10.8137C16.1516 12.0201 15.1446 13.0541 13.9697 13.0541H11.7879V11.9339H13.9697C14.5572 11.9339 15.0606 11.4169 15.0606 10.8137C15.0606 10.2106 14.5572 9.69355 13.9697 9.69355H10.697H8.85086C8.26344 9.69355 7.75995 10.2106 7.75995 10.8137C7.75995 11.4169 8.26344 11.9339 8.85086 11.9339H9.6061V13.0541V15.2945V17.8795C9.6061 18.4827 10.1096 18.9997 10.697 18.9997C11.2844 18.9997 11.7879 18.4827 11.7879 17.8795V15.2945H13.9697C16.4033 15.2945 18.3334 13.3126 18.3334 10.8137C18.3334 8.40104 16.4033 6.41918 13.9697 6.33301Z" fill="url(#paint0_linear_15266_61059)"/>
<defs>
<linearGradient id="paint0_linear_15266_61059" x1="15.7445" y1="5.07866" x2="6.86277" y2="16.5674" gradientUnits="userSpaceOnUse">
<stop stop-color="#00A8A1"/>
<stop offset="1" stop-color="#41FF7A"/>
</linearGradient>
</defs>
</svg>
