<svg width="24" height="24" viewBox="0 0 24 24" fill="none" xmlns="http://www.w3.org/2000/svg">
<rect x="3" y="3" width="18" height="18" rx="9" stroke="#718096" stroke-width="1.5"/>
<path d="M12.0039 6.5V17.5" stroke="#718096" stroke-width="1.5" stroke-linecap="round" stroke-linejoin="round"/>
<path d="M14.2956 8.33203H10.8581C10.4326 8.33203 10.0246 8.52519 9.72376 8.869C9.42292 9.21282 9.25391 9.67913 9.25391 10.1654C9.25391 10.6516 9.42292 11.1179 9.72376 11.4617C10.0246 11.8055 10.4326 11.9987 10.8581 11.9987H13.1497C13.5752 11.9987 13.9832 12.1919 14.2841 12.5357C14.5849 12.8795 14.7539 13.3458 14.7539 13.832C14.7539 14.3183 14.5849 14.7846 14.2841 15.1284C13.9832 15.4722 13.5752 15.6654 13.1497 15.6654H9.25391" stroke="#718096" stroke-width="1.5" stroke-linecap="round" stroke-linejoin="round"/>
</svg>
