<svg width="24" height="24" viewBox="0 0 24 24" fill="none" xmlns="http://www.w3.org/2000/svg">
<path d="M12 16.5C16.0041 16.5 19.25 13.2541 19.25 9.25C19.25 5.24594 16.0041 2 12 2C7.99594 2 4.75 5.24594 4.75 9.25C4.75 13.2541 7.99594 16.5 12 16.5Z" stroke="#718096" stroke-width="1.5" stroke-linecap="round" stroke-linejoin="round"/>
<path d="M12.0004 13.1004C14.1267 13.1004 15.8504 11.3767 15.8504 9.25039C15.8504 7.12409 14.1267 5.40039 12.0004 5.40039C9.87409 5.40039 8.15039 7.12409 8.15039 9.25039C8.15039 11.3767 9.87409 13.1004 12.0004 13.1004Z" stroke="#718096" stroke-width="1.5" stroke-linecap="round" stroke-linejoin="round"/>
<path d="M16.3504 14.8574V22.0002L12.0004 19.8574L7.65039 22.0002V14.8574" stroke="#718096" stroke-width="1.5" stroke-linecap="round" stroke-linejoin="round"/>
</svg>
